<?xml version="1.0" standalone="no"?>
<!DOCTYPE svg PUBLIC "-//W3C//DTD SVG 1.1//EN" "http://www.w3.org/Graphics/SVG/1.1/DTD/svg11.dtd">
<svg version="1.1" width="1200" height="582" onload="init(evt)" viewBox="0 0 1200 582" xmlns="http://www.w3.org/2000/svg" xmlns:xlink="http://www.w3.org/1999/xlink">
<!-- Flame graph stack visualization. See https://github.com/brendangregg/FlameGraph for latest version, and http://www.brendangregg.com/flamegraphs.html for examples. -->
<!-- NOTES:  -->
<defs>
	<linearGradient id="background" y1="0" y2="1" x1="0" x2="0" >
		<stop stop-color="#eeeeee" offset="5%" />
		<stop stop-color="#eeeeb0" offset="95%" />
	</linearGradient>
</defs>
<style type="text/css">
	text { font-family:Verdana; font-size:12px; fill:rgb(0,0,0); }
	#search, #ignorecase { opacity:0.1; cursor:pointer; }
	#search:hover, #search.show, #ignorecase:hover, #ignorecase.show { opacity:1; }
	#subtitle { text-anchor:middle; font-color:rgb(160,160,160); }
	#title { text-anchor:middle; font-size:17px}
	#unzoom { cursor:pointer; }
	#frames > *:hover { stroke:black; stroke-width:0.5; cursor:pointer; }
	.hide { display:none; }
	.parent { opacity:0.5; }
</style>
<script type="text/ecmascript">
<![CDATA[
	"use strict";
	var details, searchbtn, unzoombtn, matchedtxt, svg, searching, currentSearchTerm, ignorecase, ignorecaseBtn;
	function init(evt) {
		details = document.getElementById("details").firstChild;
		searchbtn = document.getElementById("search");
		ignorecaseBtn = document.getElementById("ignorecase");
		unzoombtn = document.getElementById("unzoom");
		matchedtxt = document.getElementById("matched");
		svg = document.getElementsByTagName("svg")[0];
		searching = 0;
		currentSearchTerm = null;

		// use GET parameters to restore a flamegraphs state.
		var params = get_params();
		if (params.x && params.y)
			zoom(find_group(document.querySelector('[x="' + params.x + '"][y="' + params.y + '"]')));
                if (params.s) search(params.s);
	}

	// event listeners
	window.addEventListener("click", function(e) {
		var target = find_group(e.target);
		if (target) {
			if (target.nodeName == "a") {
				if (e.ctrlKey === false) return;
				e.preventDefault();
			}
			if (target.classList.contains("parent")) unzoom(true);
			zoom(target);
			if (!document.querySelector('.parent')) {
				// we have basically done a clearzoom so clear the url
				var params = get_params();
				if (params.x) delete params.x;
				if (params.y) delete params.y;
				history.replaceState(null, null, parse_params(params));
				unzoombtn.classList.add("hide");
				return;
			}

			// set parameters for zoom state
			var el = target.querySelector("rect");
			if (el && el.attributes && el.attributes.y && el.attributes._orig_x) {
				var params = get_params()
				params.x = el.attributes._orig_x.value;
				params.y = el.attributes.y.value;
				history.replaceState(null, null, parse_params(params));
			}
		}
		else if (e.target.id == "unzoom") clearzoom();
		else if (e.target.id == "search") search_prompt();
		else if (e.target.id == "ignorecase") toggle_ignorecase();
	}, false)

	// mouse-over for info
	// show
	window.addEventListener("mouseover", function(e) {
		var target = find_group(e.target);
		if (target) details.nodeValue = "Function: " + g_to_text(target);
	}, false)

	// clear
	window.addEventListener("mouseout", function(e) {
		var target = find_group(e.target);
		if (target) details.nodeValue = ' ';
	}, false)

	// ctrl-F for search
	// ctrl-I to toggle case-sensitive search
	window.addEventListener("keydown",function (e) {
		if (e.keyCode === 114 || (e.ctrlKey && e.keyCode === 70)) {
			e.preventDefault();
			search_prompt();
		}
		else if (e.ctrlKey && e.keyCode === 73) {
			e.preventDefault();
			toggle_ignorecase();
		}
	}, false)

	// functions
	function get_params() {
		var params = {};
		var paramsarr = window.location.search.substr(1).split('&');
		for (var i = 0; i < paramsarr.length; ++i) {
			var tmp = paramsarr[i].split("=");
			if (!tmp[0] || !tmp[1]) continue;
			params[tmp[0]]  = decodeURIComponent(tmp[1]);
		}
		return params;
	}
	function parse_params(params) {
		var uri = "?";
		for (var key in params) {
			uri += key + '=' + encodeURIComponent(params[key]) + '&';
		}
		if (uri.slice(-1) == "&")
			uri = uri.substring(0, uri.length - 1);
		if (uri == '?')
			uri = window.location.href.split('?')[0];
		return uri;
	}
	function find_child(node, selector) {
		var children = node.querySelectorAll(selector);
		if (children.length) return children[0];
	}
	function find_group(node) {
		var parent = node.parentElement;
		if (!parent) return;
		if (parent.id == "frames") return node;
		return find_group(parent);
	}
	function orig_save(e, attr, val) {
		if (e.attributes["_orig_" + attr] != undefined) return;
		if (e.attributes[attr] == undefined) return;
		if (val == undefined) val = e.attributes[attr].value;
		e.setAttribute("_orig_" + attr, val);
	}
	function orig_load(e, attr) {
		if (e.attributes["_orig_"+attr] == undefined) return;
		e.attributes[attr].value = e.attributes["_orig_" + attr].value;
		e.removeAttribute("_orig_"+attr);
	}
	function g_to_text(e) {
		var text = find_child(e, "title").firstChild.nodeValue;
		return (text)
	}
	function g_to_func(e) {
		var func = g_to_text(e);
		// if there's any manipulation we want to do to the function
		// name before it's searched, do it here before returning.
		return (func);
	}
	function update_text(e) {
		var r = find_child(e, "rect");
		var t = find_child(e, "text");
		var w = parseFloat(r.attributes.width.value) -3;
		var txt = find_child(e, "title").textContent.replace(/\([^(]*\)$/,"");
		t.attributes.x.value = parseFloat(r.attributes.x.value) + 3;

		// Smaller than this size won't fit anything
		if (w < 2 * 12 * 0.59) {
			t.textContent = "";
			return;
		}

		t.textContent = txt;
		var sl = t.getSubStringLength(0, txt.length);
		// check if only whitespace or if we can fit the entire string into width w
		if (/^ *$/.test(txt) || sl < w)
			return;

		// this isn't perfect, but gives a good starting point
		// and avoids calling getSubStringLength too often
		var start = Math.floor((w/sl) * txt.length);
		for (var x = start; x > 0; x = x-2) {
			if (t.getSubStringLength(0, x + 2) <= w) {
				t.textContent = txt.substring(0, x) + "..";
				return;
			}
		}
		t.textContent = "";
	}

	// zoom
	function zoom_reset(e) {
		if (e.attributes != undefined) {
			orig_load(e, "x");
			orig_load(e, "width");
		}
		if (e.childNodes == undefined) return;
		for (var i = 0, c = e.childNodes; i < c.length; i++) {
			zoom_reset(c[i]);
		}
	}
	function zoom_child(e, x, ratio) {
		if (e.attributes != undefined) {
			if (e.attributes.x != undefined) {
				orig_save(e, "x");
				e.attributes.x.value = (parseFloat(e.attributes.x.value) - x - 10) * ratio + 10;
				if (e.tagName == "text")
					e.attributes.x.value = find_child(e.parentNode, "rect[x]").attributes.x.value + 3;
			}
			if (e.attributes.width != undefined) {
				orig_save(e, "width");
				e.attributes.width.value = parseFloat(e.attributes.width.value) * ratio;
			}
		}

		if (e.childNodes == undefined) return;
		for (var i = 0, c = e.childNodes; i < c.length; i++) {
			zoom_child(c[i], x - 10, ratio);
		}
	}
	function zoom_parent(e) {
		if (e.attributes) {
			if (e.attributes.x != undefined) {
				orig_save(e, "x");
				e.attributes.x.value = 10;
			}
			if (e.attributes.width != undefined) {
				orig_save(e, "width");
				e.attributes.width.value = parseInt(svg.width.baseVal.value) - (10 * 2);
			}
		}
		if (e.childNodes == undefined) return;
		for (var i = 0, c = e.childNodes; i < c.length; i++) {
			zoom_parent(c[i]);
		}
	}
	function zoom(node) {
		var attr = find_child(node, "rect").attributes;
		var width = parseFloat(attr.width.value);
		var xmin = parseFloat(attr.x.value);
		var xmax = parseFloat(xmin + width);
		var ymin = parseFloat(attr.y.value);
		var ratio = (svg.width.baseVal.value - 2 * 10) / width;

		// XXX: Workaround for JavaScript float issues (fix me)
		var fudge = 0.0001;

		unzoombtn.classList.remove("hide");

		var el = document.getElementById("frames").children;
		for (var i = 0; i < el.length; i++) {
			var e = el[i];
			var a = find_child(e, "rect").attributes;
			var ex = parseFloat(a.x.value);
			var ew = parseFloat(a.width.value);
			var upstack;
			// Is it an ancestor
			if (0 == 0) {
				upstack = parseFloat(a.y.value) > ymin;
			} else {
				upstack = parseFloat(a.y.value) < ymin;
			}
			if (upstack) {
				// Direct ancestor
				if (ex <= xmin && (ex+ew+fudge) >= xmax) {
					e.classList.add("parent");
					zoom_parent(e);
					update_text(e);
				}
				// not in current path
				else
					e.classList.add("hide");
			}
			// Children maybe
			else {
				// no common path
				if (ex < xmin || ex + fudge >= xmax) {
					e.classList.add("hide");
				}
				else {
					zoom_child(e, xmin, ratio);
					update_text(e);
				}
			}
		}
		search();
	}
	function unzoom(dont_update_text) {
		unzoombtn.classList.add("hide");
		var el = document.getElementById("frames").children;
		for(var i = 0; i < el.length; i++) {
			el[i].classList.remove("parent");
			el[i].classList.remove("hide");
			zoom_reset(el[i]);
			if(!dont_update_text) update_text(el[i]);
		}
		search();
	}
	function clearzoom() {
		unzoom();

		// remove zoom state
		var params = get_params();
		if (params.x) delete params.x;
		if (params.y) delete params.y;
		history.replaceState(null, null, parse_params(params));
	}

	// search
	function toggle_ignorecase() {
		ignorecase = !ignorecase;
		if (ignorecase) {
			ignorecaseBtn.classList.add("show");
		} else {
			ignorecaseBtn.classList.remove("show");
		}
		reset_search();
		search();
	}
	function reset_search() {
		var el = document.querySelectorAll("#frames rect");
		for (var i = 0; i < el.length; i++) {
			orig_load(el[i], "fill")
		}
		var params = get_params();
		delete params.s;
		history.replaceState(null, null, parse_params(params));
	}
	function search_prompt() {
		if (!searching) {
			var term = prompt("Enter a search term (regexp " +
			    "allowed, eg: ^ext4_)"
			    + (ignorecase ? ", ignoring case" : "")
			    + "\nPress Ctrl-i to toggle case sensitivity", "");
			if (term != null) search(term);
		} else {
			reset_search();
			searching = 0;
			currentSearchTerm = null;
			searchbtn.classList.remove("show");
			searchbtn.firstChild.nodeValue = "Search"
			matchedtxt.classList.add("hide");
			matchedtxt.firstChild.nodeValue = ""
		}
	}
	function search(term) {
		if (term) currentSearchTerm = term;

		var re = new RegExp(currentSearchTerm, ignorecase ? 'i' : '');
		var el = document.getElementById("frames").children;
		var matches = new Object();
		var maxwidth = 0;
		for (var i = 0; i < el.length; i++) {
			var e = el[i];
			var func = g_to_func(e);
			var rect = find_child(e, "rect");
			if (func == null || rect == null)
				continue;

			// Save max width. Only works as we have a root frame
			var w = parseFloat(rect.attributes.width.value);
			if (w > maxwidth)
				maxwidth = w;

			if (func.match(re)) {
				// highlight
				var x = parseFloat(rect.attributes.x.value);
				orig_save(rect, "fill");
				rect.attributes.fill.value = "rgb(230,0,230)";

				// remember matches
				if (matches[x] == undefined) {
					matches[x] = w;
				} else {
					if (w > matches[x]) {
						// overwrite with parent
						matches[x] = w;
					}
				}
				searching = 1;
			}
		}
		if (!searching)
			return;
		var params = get_params();
		params.s = currentSearchTerm;
		history.replaceState(null, null, parse_params(params));

		searchbtn.classList.add("show");
		searchbtn.firstChild.nodeValue = "Reset Search";

		// calculate percent matched, excluding vertical overlap
		var count = 0;
		var lastx = -1;
		var lastw = 0;
		var keys = Array();
		for (k in matches) {
			if (matches.hasOwnProperty(k))
				keys.push(k);
		}
		// sort the matched frames by their x location
		// ascending, then width descending
		keys.sort(function(a, b){
			return a - b;
		});
		// Step through frames saving only the biggest bottom-up frames
		// thanks to the sort order. This relies on the tree property
		// where children are always smaller than their parents.
		var fudge = 0.0001;	// JavaScript floating point
		for (var k in keys) {
			var x = parseFloat(keys[k]);
			var w = matches[keys[k]];
			if (x >= lastx + lastw - fudge) {
				count += w;
				lastx = x;
				lastw = w;
			}
		}
		// display matched percent
		matchedtxt.classList.remove("hide");
		var pct = 100 * count / maxwidth;
		if (pct != 100) pct = pct.toFixed(1)
		matchedtxt.firstChild.nodeValue = "Matched: " + pct + "%";
	}
]]>
</script>
<rect x="0.0" y="0" width="1200.0" height="582.0" fill="url(#background)"  />
<text id="title" x="600.00" y="24" >Flame Graph</text>
<text id="details" x="10.00" y="565" > </text>
<text id="unzoom" x="10.00" y="24" class="hide">Reset Zoom</text>
<text id="search" x="1090.00" y="24" >Search</text>
<text id="ignorecase" x="1174.00" y="24" >ic</text>
<text id="matched" x="1090.00" y="565" > </text>
<g id="frames">
<g >
<title>ReleaseBuffer (3,000,000 samples, 0.01%)</title><rect x="1058.5" y="277" width="0.1" height="15.0" fill="rgb(220,71,17)" rx="2" ry="2" />
<text  x="1061.49" y="287.5" ></text>
</g>
<g >
<title>irqentry_exit_to_user_mode (11,500,000 samples, 0.04%)</title><rect x="1140.6" y="181" width="0.5" height="15.0" fill="rgb(254,229,54)" rx="2" ry="2" />
<text  x="1143.63" y="191.5" ></text>
</g>
<g >
<title>LockBuffer (6,000,000 samples, 0.02%)</title><rect x="1084.1" y="261" width="0.2" height="15.0" fill="rgb(235,142,34)" rx="2" ry="2" />
<text  x="1087.09" y="271.5" ></text>
</g>
<g >
<title>tts_buffer_heap_getsomeattrs (1,186,000,000 samples, 3.80%)</title><rect x="977.3" y="277" width="44.9" height="15.0" fill="rgb(222,81,19)" rx="2" ry="2" />
<text  x="980.32" y="287.5" >tts_..</text>
</g>
<g >
<title>__handle_mm_fault (3,500,000 samples, 0.01%)</title><rect x="1169.3" y="133" width="0.1" height="15.0" fill="rgb(207,9,2)" rx="2" ry="2" />
<text  x="1172.31" y="143.5" ></text>
</g>
<g >
<title>slot_getsomeattrs_int (1,246,000,000 samples, 3.99%)</title><rect x="975.0" y="293" width="47.2" height="15.0" fill="rgb(252,219,52)" rx="2" ry="2" />
<text  x="978.05" y="303.5" >slot..</text>
</g>
<g >
<title>heap_getnextslot (197,500,000 samples, 0.63%)</title><rect x="1177.6" y="309" width="7.5" height="15.0" fill="rgb(213,40,9)" rx="2" ry="2" />
<text  x="1180.60" y="319.5" ></text>
</g>
<g >
<title>__count_memcg_events (3,000,000 samples, 0.01%)</title><rect x="1138.3" y="149" width="0.2" height="15.0" fill="rgb(250,211,50)" rx="2" ry="2" />
<text  x="1141.34" y="159.5" ></text>
</g>
<g >
<title>exc_page_fault (799,000,000 samples, 2.56%)</title><rect x="1111.0" y="213" width="30.3" height="15.0" fill="rgb(212,35,8)" rx="2" ry="2" />
<text  x="1114.04" y="223.5" >ex..</text>
</g>
<g >
<title>pg_detoast_datum_packed (98,000,000 samples, 0.31%)</title><rect x="971.1" y="293" width="3.7" height="15.0" fill="rgb(238,155,37)" rx="2" ry="2" />
<text  x="974.06" y="303.5" ></text>
</g>
<g >
<title>ResourceOwnerForget (9,500,000 samples, 0.03%)</title><rect x="1084.6" y="245" width="0.4" height="15.0" fill="rgb(235,142,33)" rx="2" ry="2" />
<text  x="1087.64" y="255.5" ></text>
</g>
<g >
<title>do_set_pte (183,000,000 samples, 0.59%)</title><rect x="1120.5" y="85" width="6.9" height="15.0" fill="rgb(253,221,52)" rx="2" ry="2" />
<text  x="1123.49" y="95.5" ></text>
</g>
<g >
<title>UnpinBufferNoOwner (16,500,000 samples, 0.05%)</title><rect x="1085.0" y="261" width="0.6" height="15.0" fill="rgb(253,221,53)" rx="2" ry="2" />
<text  x="1088.02" y="271.5" ></text>
</g>
<g >
<title>all (31,203,000,000 samples, 100%)</title><rect x="10.0" y="533" width="1180.0" height="15.0" fill="rgb(213,39,9)" rx="2" ry="2" />
<text  x="13.00" y="543.5" ></text>
</g>
<g >
<title>PostgresMain (31,202,500,000 samples, 100.00%)</title><rect x="10.0" y="405" width="1180.0" height="15.0" fill="rgb(227,103,24)" rx="2" ry="2" />
<text  x="13.02" y="415.5" >PostgresMain</text>
</g>
<g >
<title>GetPrivateRefCountEntry (7,000,000 samples, 0.02%)</title><rect x="1172.0" y="213" width="0.3" height="15.0" fill="rgb(250,209,50)" rx="2" ry="2" />
<text  x="1175.04" y="223.5" ></text>
</g>
<g >
<title>__alloc_pages (8,000,000 samples, 0.03%)</title><rect x="1137.1" y="53" width="0.3" height="15.0" fill="rgb(233,129,30)" rx="2" ry="2" />
<text  x="1140.11" y="63.5" ></text>
</g>
<g >
<title>handle_pte_fault (8,500,000 samples, 0.03%)</title><rect x="1172.4" y="133" width="0.3" height="15.0" fill="rgb(217,57,13)" rx="2" ry="2" />
<text  x="1175.38" y="143.5" ></text>
</g>
<g >
<title>__memcmp_avx2_movbe (10,000,000 samples, 0.03%)</title><rect x="1143.8" y="213" width="0.3" height="15.0" fill="rgb(224,91,21)" rx="2" ry="2" />
<text  x="1146.77" y="223.5" ></text>
</g>
<g >
<title>IOContextForStrategy (3,000,000 samples, 0.01%)</title><rect x="1169.5" y="229" width="0.1" height="15.0" fill="rgb(241,169,40)" rx="2" ry="2" />
<text  x="1172.52" y="239.5" ></text>
</g>
<g >
<title>asm_exc_page_fault (880,500,000 samples, 2.82%)</title><rect x="1108.1" y="229" width="33.2" height="15.0" fill="rgb(225,93,22)" rx="2" ry="2" />
<text  x="1111.05" y="239.5" >as..</text>
</g>
<g >
<title>alloc_page_interleave (8,000,000 samples, 0.03%)</title><rect x="1137.1" y="69" width="0.3" height="15.0" fill="rgb(221,74,17)" rx="2" ry="2" />
<text  x="1140.11" y="79.5" ></text>
</g>
<g >
<title>PostmasterMain (31,202,500,000 samples, 100.00%)</title><rect x="10.0" y="469" width="1180.0" height="15.0" fill="rgb(212,35,8)" rx="2" ry="2" />
<text  x="13.02" y="479.5" >PostmasterMain</text>
</g>
<g >
<title>LWLockAcquire (5,500,000 samples, 0.02%)</title><rect x="1169.6" y="229" width="0.2" height="15.0" fill="rgb(209,20,4)" rx="2" ry="2" />
<text  x="1172.64" y="239.5" ></text>
</g>
<g >
<title>next_uptodate_page (187,500,000 samples, 0.60%)</title><rect x="1127.7" y="85" width="7.1" height="15.0" fill="rgb(210,25,6)" rx="2" ry="2" />
<text  x="1130.72" y="95.5" ></text>
</g>
<g >
<title>StartReadBuffer (794,500,000 samples, 2.55%)</title><rect x="1143.0" y="245" width="30.0" height="15.0" fill="rgb(222,78,18)" rx="2" ry="2" />
<text  x="1145.96" y="255.5" >St..</text>
</g>
<g >
<title>asm_sysvec_apic_timer_interrupt (9,500,000 samples, 0.03%)</title><rect x="969.1" y="261" width="0.4" height="15.0" fill="rgb(232,127,30)" rx="2" ry="2" />
<text  x="972.09" y="271.5" ></text>
</g>
<g >
<title>SeqNext (7,000,000 samples, 0.02%)</title><rect x="1189.7" y="325" width="0.3" height="15.0" fill="rgb(214,41,10)" rx="2" ry="2" />
<text  x="1192.74" y="335.5" ></text>
</g>
<g >
<title>exc_page_fault (11,500,000 samples, 0.04%)</title><rect x="1172.3" y="197" width="0.4" height="15.0" fill="rgb(212,35,8)" rx="2" ry="2" />
<text  x="1175.30" y="207.5" ></text>
</g>
<g >
<title>lock_vma_under_rcu (21,500,000 samples, 0.07%)</title><rect x="1139.6" y="181" width="0.8" height="15.0" fill="rgb(251,211,50)" rx="2" ry="2" />
<text  x="1142.57" y="191.5" ></text>
</g>
<g >
<title>__sysvec_apic_timer_interrupt (7,500,000 samples, 0.02%)</title><rect x="437.5" y="229" width="0.3" height="15.0" fill="rgb(242,173,41)" rx="2" ry="2" />
<text  x="440.50" y="239.5" ></text>
</g>
<g >
<title>error_return (5,000,000 samples, 0.02%)</title><rect x="1141.5" y="229" width="0.2" height="15.0" fill="rgb(230,115,27)" rx="2" ry="2" />
<text  x="1144.54" y="239.5" ></text>
</g>
<g >
<title>ResourceOwnerRemember (4,000,000 samples, 0.01%)</title><rect x="1058.6" y="277" width="0.2" height="15.0" fill="rgb(243,178,42)" rx="2" ry="2" />
<text  x="1061.61" y="287.5" ></text>
</g>
<g >
<title>asm_exc_page_fault (4,500,000 samples, 0.01%)</title><rect x="1169.3" y="197" width="0.2" height="15.0" fill="rgb(225,93,22)" rx="2" ry="2" />
<text  x="1172.30" y="207.5" ></text>
</g>
<g >
<title>LWLockAttemptLock (6,000,000 samples, 0.02%)</title><rect x="1102.0" y="245" width="0.3" height="15.0" fill="rgb(235,138,33)" rx="2" ry="2" />
<text  x="1105.04" y="255.5" ></text>
</g>
<g >
<title>heap_page_prune_opt (1,044,500,000 samples, 3.35%)</title><rect x="1102.6" y="245" width="39.5" height="15.0" fill="rgb(211,29,7)" rx="2" ry="2" />
<text  x="1105.59" y="255.5" >hea..</text>
</g>
<g >
<title>__hrtimer_run_queues (5,000,000 samples, 0.02%)</title><rect x="437.5" y="197" width="0.2" height="15.0" fill="rgb(237,150,35)" rx="2" ry="2" />
<text  x="440.52" y="207.5" ></text>
</g>
<g >
<title>xas_descend (6,500,000 samples, 0.02%)</title><rect x="1135.8" y="53" width="0.3" height="15.0" fill="rgb(215,47,11)" rx="2" ry="2" />
<text  x="1138.85" y="63.5" ></text>
</g>
<g >
<title>sysvec_apic_timer_interrupt (8,500,000 samples, 0.03%)</title><rect x="969.1" y="245" width="0.4" height="15.0" fill="rgb(220,69,16)" rx="2" ry="2" />
<text  x="972.13" y="255.5" ></text>
</g>
<g >
<title>do_fault (8,500,000 samples, 0.03%)</title><rect x="1172.4" y="117" width="0.3" height="15.0" fill="rgb(248,200,47)" rx="2" ry="2" />
<text  x="1175.38" y="127.5" ></text>
</g>
<g >
<title>mt_find (13,500,000 samples, 0.04%)</title><rect x="1139.1" y="149" width="0.5" height="15.0" fill="rgb(252,218,52)" rx="2" ry="2" />
<text  x="1142.06" y="159.5" ></text>
</g>
<g >
<title>ResourceOwnerRemember (4,000,000 samples, 0.01%)</title><rect x="1172.8" y="229" width="0.2" height="15.0" fill="rgb(243,178,42)" rx="2" ry="2" />
<text  x="1175.83" y="239.5" ></text>
</g>
<g >
<title>bpcharlen (23,512,500,000 samples, 75.35%)</title><rect x="80.3" y="293" width="889.2" height="15.0" fill="rgb(221,77,18)" rx="2" ry="2" />
<text  x="83.30" y="303.5" >bpcharlen</text>
</g>
<g >
<title>ExecInterpExpr (26,531,500,000 samples, 85.03%)</title><rect x="21.4" y="309" width="1003.3" height="15.0" fill="rgb(225,96,22)" rx="2" ry="2" />
<text  x="24.36" y="319.5" >ExecInterpExpr</text>
</g>
<g >
<title>LockBuffer (5,000,000 samples, 0.02%)</title><rect x="1102.3" y="245" width="0.2" height="15.0" fill="rgb(235,142,34)" rx="2" ry="2" />
<text  x="1105.26" y="255.5" ></text>
</g>
<g >
<title>PinBuffer (35,000,000 samples, 0.11%)</title><rect x="1171.4" y="229" width="1.3" height="15.0" fill="rgb(219,64,15)" rx="2" ry="2" />
<text  x="1174.41" y="239.5" ></text>
</g>
<g >
<title>[postgres] (31,202,500,000 samples, 100.00%)</title><rect x="10.0" y="421" width="1180.0" height="15.0" fill="rgb(245,184,44)" rx="2" ry="2" />
<text  x="13.02" y="431.5" >[postgres]</text>
</g>
<g >
<title>do_read_fault (3,500,000 samples, 0.01%)</title><rect x="1169.3" y="85" width="0.1" height="15.0" fill="rgb(223,84,20)" rx="2" ry="2" />
<text  x="1172.31" y="95.5" ></text>
</g>
<g >
<title>do_user_addr_fault (4,500,000 samples, 0.01%)</title><rect x="1169.3" y="165" width="0.2" height="15.0" fill="rgb(228,108,25)" rx="2" ry="2" />
<text  x="1172.30" y="175.5" ></text>
</g>
<g >
<title>filemap_map_pages (557,500,000 samples, 1.79%)</title><rect x="1115.3" y="101" width="21.1" height="15.0" fill="rgb(229,112,27)" rx="2" ry="2" />
<text  x="1118.27" y="111.5" ></text>
</g>
<g >
<title>__pte_offset_map_lock (3,500,000 samples, 0.01%)</title><rect x="1120.2" y="85" width="0.1" height="15.0" fill="rgb(240,163,39)" rx="2" ry="2" />
<text  x="1123.17" y="95.5" ></text>
</g>
<g >
<title>mas_walk (12,500,000 samples, 0.04%)</title><rect x="1139.9" y="165" width="0.5" height="15.0" fill="rgb(242,170,40)" rx="2" ry="2" />
<text  x="1142.91" y="175.5" ></text>
</g>
<g >
<title>find_vma (18,000,000 samples, 0.06%)</title><rect x="1138.9" y="165" width="0.7" height="15.0" fill="rgb(213,37,8)" rx="2" ry="2" />
<text  x="1141.89" y="175.5" ></text>
</g>
<g >
<title>PortalRunSelect (31,202,500,000 samples, 100.00%)</title><rect x="10.0" y="357" width="1180.0" height="15.0" fill="rgb(245,188,45)" rx="2" ry="2" />
<text  x="13.02" y="367.5" >PortalRunSelect</text>
</g>
<g >
<title>sync_regs (5,000,000 samples, 0.02%)</title><rect x="1141.9" y="229" width="0.2" height="15.0" fill="rgb(228,106,25)" rx="2" ry="2" />
<text  x="1144.90" y="239.5" ></text>
</g>
<g >
<title>ResourceOwnerEnlarge (5,000,000 samples, 0.02%)</title><rect x="1056.4" y="245" width="0.2" height="15.0" fill="rgb(223,86,20)" rx="2" ry="2" />
<text  x="1059.41" y="255.5" ></text>
</g>
<g >
<title>LWLockRelease (14,000,000 samples, 0.04%)</title><rect x="1083.6" y="261" width="0.5" height="15.0" fill="rgb(217,58,13)" rx="2" ry="2" />
<text  x="1086.56" y="271.5" ></text>
</g>
<g >
<title>alloc_pages (8,500,000 samples, 0.03%)</title><rect x="1137.1" y="85" width="0.3" height="15.0" fill="rgb(210,25,6)" rx="2" ry="2" />
<text  x="1140.11" y="95.5" ></text>
</g>
<g >
<title>ExecInterpExpr (78,500,000 samples, 0.25%)</title><rect x="10.0" y="325" width="3.0" height="15.0" fill="rgb(225,96,22)" rx="2" ry="2" />
<text  x="13.02" y="335.5" ></text>
</g>
<g >
<title>do_user_addr_fault (11,500,000 samples, 0.04%)</title><rect x="1172.3" y="181" width="0.4" height="15.0" fill="rgb(228,108,25)" rx="2" ry="2" />
<text  x="1175.30" y="191.5" ></text>
</g>
<g >
<title>ExecStoreBufferHeapTuple (383,000,000 samples, 1.23%)</title><rect x="1044.0" y="277" width="14.5" height="15.0" fill="rgb(230,117,28)" rx="2" ry="2" />
<text  x="1046.99" y="287.5" ></text>
</g>
<g >
<title>lock_mm_and_find_vma (23,000,000 samples, 0.07%)</title><rect x="1138.7" y="181" width="0.9" height="15.0" fill="rgb(235,138,33)" rx="2" ry="2" />
<text  x="1141.70" y="191.5" ></text>
</g>
<g >
<title>next_uptodate_page (6,000,000 samples, 0.02%)</title><rect x="1172.5" y="69" width="0.2" height="15.0" fill="rgb(210,25,6)" rx="2" ry="2" />
<text  x="1175.45" y="79.5" ></text>
</g>
<g >
<title>ReleaseBuffer (18,000,000 samples, 0.06%)</title><rect x="1084.3" y="261" width="0.7" height="15.0" fill="rgb(220,71,17)" rx="2" ry="2" />
<text  x="1087.32" y="271.5" ></text>
</g>
<g >
<title>ResourceOwnerForget (11,000,000 samples, 0.04%)</title><rect x="1056.8" y="245" width="0.4" height="15.0" fill="rgb(235,142,33)" rx="2" ry="2" />
<text  x="1059.81" y="255.5" ></text>
</g>
<g >
<title>irqentry_exit (12,500,000 samples, 0.04%)</title><rect x="1140.6" y="197" width="0.5" height="15.0" fill="rgb(219,66,15)" rx="2" ry="2" />
<text  x="1143.59" y="207.5" ></text>
</g>
<g >
<title>filemap_map_pages (3,000,000 samples, 0.01%)</title><rect x="1137.8" y="117" width="0.1" height="15.0" fill="rgb(229,112,27)" rx="2" ry="2" />
<text  x="1140.79" y="127.5" ></text>
</g>
<g >
<title>filemap_map_pages (3,500,000 samples, 0.01%)</title><rect x="1169.3" y="69" width="0.1" height="15.0" fill="rgb(229,112,27)" rx="2" ry="2" />
<text  x="1172.31" y="79.5" ></text>
</g>
<g >
<title>sysvec_apic_timer_interrupt (8,000,000 samples, 0.03%)</title><rect x="437.5" y="245" width="0.3" height="15.0" fill="rgb(220,69,16)" rx="2" ry="2" />
<text  x="440.50" y="255.5" ></text>
</g>
<g >
<title>ExecStoreBufferHeapTuple (26,500,000 samples, 0.08%)</title><rect x="1036.8" y="293" width="1.0" height="15.0" fill="rgb(230,117,28)" rx="2" ry="2" />
<text  x="1039.77" y="303.5" ></text>
</g>
<g >
<title>ServerLoop (31,202,500,000 samples, 100.00%)</title><rect x="10.0" y="453" width="1180.0" height="15.0" fill="rgb(238,155,37)" rx="2" ry="2" />
<text  x="13.02" y="463.5" >ServerLoop</text>
</g>
<g >
<title>exec_simple_query (31,202,500,000 samples, 100.00%)</title><rect x="10.0" y="389" width="1180.0" height="15.0" fill="rgb(211,29,6)" rx="2" ry="2" />
<text  x="13.02" y="399.5" >exec_simple_query</text>
</g>
<g >
<title>heap_scan_stream_read_next_serial (8,500,000 samples, 0.03%)</title><rect x="1173.9" y="245" width="0.3" height="15.0" fill="rgb(205,4,0)" rx="2" ry="2" />
<text  x="1176.91" y="255.5" ></text>
</g>
<g >
<title>standard_ExecutorRun (31,202,500,000 samples, 100.00%)</title><rect x="10.0" y="341" width="1180.0" height="15.0" fill="rgb(247,196,47)" rx="2" ry="2" />
<text  x="13.02" y="351.5" >standard_ExecutorRun</text>
</g>
<g >
<title>handle_mm_fault (9,500,000 samples, 0.03%)</title><rect x="1172.3" y="165" width="0.4" height="15.0" fill="rgb(234,135,32)" rx="2" ry="2" />
<text  x="1175.34" y="175.5" ></text>
</g>
<g >
<title>__irqentry_text_end (6,000,000 samples, 0.02%)</title><rect x="1107.8" y="229" width="0.3" height="15.0" fill="rgb(248,199,47)" rx="2" ry="2" />
<text  x="1110.82" y="239.5" ></text>
</g>
<g >
<title>__handle_mm_fault (9,000,000 samples, 0.03%)</title><rect x="1172.4" y="149" width="0.3" height="15.0" fill="rgb(207,9,2)" rx="2" ry="2" />
<text  x="1175.36" y="159.5" ></text>
</g>
<g >
<title>pg_utf_mblen_private (14,059,000,000 samples, 45.06%)</title><rect x="437.8" y="277" width="531.7" height="15.0" fill="rgb(242,173,41)" rx="2" ry="2" />
<text  x="440.80" y="287.5" >pg_utf_mblen_private</text>
</g>
<g >
<title>asm_exc_page_fault (11,500,000 samples, 0.04%)</title><rect x="1172.3" y="213" width="0.4" height="15.0" fill="rgb(225,93,22)" rx="2" ry="2" />
<text  x="1175.30" y="223.5" ></text>
</g>
<g >
<title>hrtimer_interrupt (7,000,000 samples, 0.02%)</title><rect x="969.1" y="213" width="0.3" height="15.0" fill="rgb(228,109,26)" rx="2" ry="2" />
<text  x="972.15" y="223.5" ></text>
</g>
<g >
<title>pg_mbstrlen_with_len (7,500,000 samples, 0.02%)</title><rect x="974.8" y="293" width="0.2" height="15.0" fill="rgb(228,106,25)" rx="2" ry="2" />
<text  x="977.77" y="303.5" ></text>
</g>
<g >
<title>handle_mm_fault (693,000,000 samples, 2.22%)</title><rect x="1112.5" y="181" width="26.2" height="15.0" fill="rgb(234,135,32)" rx="2" ry="2" />
<text  x="1115.49" y="191.5" >h..</text>
</g>
<g >
<title>LWLockAcquire (5,000,000 samples, 0.02%)</title><rect x="1101.8" y="245" width="0.2" height="15.0" fill="rgb(209,20,4)" rx="2" ry="2" />
<text  x="1104.85" y="255.5" ></text>
</g>
<g >
<title>int4lt (63,500,000 samples, 0.20%)</title><rect x="1185.1" y="309" width="2.4" height="15.0" fill="rgb(242,172,41)" rx="2" ry="2" />
<text  x="1188.06" y="319.5" ></text>
</g>
<g >
<title>MemoryContextReset (38,500,000 samples, 0.12%)</title><rect x="1188.3" y="325" width="1.4" height="15.0" fill="rgb(210,26,6)" rx="2" ry="2" />
<text  x="1191.28" y="335.5" ></text>
</g>
<g >
<title>ExecScan (31,057,000,000 samples, 99.53%)</title><rect x="13.0" y="325" width="1174.5" height="15.0" fill="rgb(237,150,36)" rx="2" ry="2" />
<text  x="15.99" y="335.5" >ExecScan</text>
</g>
<g >
<title>GetPrivateRefCountEntry (13,000,000 samples, 0.04%)</title><rect x="1058.0" y="245" width="0.5" height="15.0" fill="rgb(250,209,50)" rx="2" ry="2" />
<text  x="1060.98" y="255.5" ></text>
</g>
<g >
<title>ss_report_location (4,000,000 samples, 0.01%)</title><rect x="1174.1" y="229" width="0.1" height="15.0" fill="rgb(249,202,48)" rx="2" ry="2" />
<text  x="1177.08" y="239.5" ></text>
</g>
<g >
<title>ReleaseBuffer (16,500,000 samples, 0.05%)</title><rect x="1056.6" y="261" width="0.6" height="15.0" fill="rgb(220,71,17)" rx="2" ry="2" />
<text  x="1059.60" y="271.5" ></text>
</g>
<g >
<title>PortalRun (31,202,500,000 samples, 100.00%)</title><rect x="10.0" y="373" width="1180.0" height="15.0" fill="rgb(223,85,20)" rx="2" ry="2" />
<text  x="13.02" y="383.5" >PortalRun</text>
</g>
<g >
<title>LWLockAttemptLock (34,500,000 samples, 0.11%)</title><rect x="1169.8" y="229" width="1.3" height="15.0" fill="rgb(235,138,33)" rx="2" ry="2" />
<text  x="1172.84" y="239.5" ></text>
</g>
<g >
<title>mtree_range_walk (4,500,000 samples, 0.01%)</title><rect x="1140.2" y="149" width="0.2" height="15.0" fill="rgb(215,49,11)" rx="2" ry="2" />
<text  x="1143.21" y="159.5" ></text>
</g>
<g >
<title>do_fault (618,500,000 samples, 1.98%)</title><rect x="1114.6" y="133" width="23.4" height="15.0" fill="rgb(248,200,47)" rx="2" ry="2" />
<text  x="1117.57" y="143.5" >d..</text>
</g>
<g >
<title>scheduler_tick (3,500,000 samples, 0.01%)</title><rect x="437.6" y="133" width="0.1" height="15.0" fill="rgb(246,190,45)" rx="2" ry="2" />
<text  x="440.58" y="143.5" ></text>
</g>
<g >
<title>pte_offset_map_nolock (5,000,000 samples, 0.02%)</title><rect x="1138.0" y="133" width="0.2" height="15.0" fill="rgb(240,162,38)" rx="2" ry="2" />
<text  x="1140.96" y="143.5" ></text>
</g>
<g >
<title>srso_alias_safe_ret (7,000,000 samples, 0.02%)</title><rect x="1137.5" y="101" width="0.3" height="15.0" fill="rgb(242,170,40)" rx="2" ry="2" />
<text  x="1140.51" y="111.5" ></text>
</g>
<g >
<title>__sysvec_apic_timer_interrupt (7,500,000 samples, 0.02%)</title><rect x="969.1" y="229" width="0.3" height="15.0" fill="rgb(242,173,41)" rx="2" ry="2" />
<text  x="972.13" y="239.5" ></text>
</g>
<g >
<title>read_stream_next_buffer (847,000,000 samples, 2.71%)</title><rect x="1142.3" y="261" width="32.0" height="15.0" fill="rgb(216,50,12)" rx="2" ry="2" />
<text  x="1145.26" y="271.5" >re..</text>
</g>
<g >
<title>asm_sysvec_apic_timer_interrupt (8,000,000 samples, 0.03%)</title><rect x="437.5" y="261" width="0.3" height="15.0" fill="rgb(232,127,30)" rx="2" ry="2" />
<text  x="440.50" y="271.5" ></text>
</g>
<g >
<title>RecoveryInProgress (3,000,000 samples, 0.01%)</title><rect x="1102.5" y="245" width="0.1" height="15.0" fill="rgb(249,205,49)" rx="2" ry="2" />
<text  x="1105.45" y="255.5" ></text>
</g>
<g >
<title>do_user_addr_fault (3,500,000 samples, 0.01%)</title><rect x="1110.9" y="213" width="0.1" height="15.0" fill="rgb(228,108,25)" rx="2" ry="2" />
<text  x="1113.91" y="223.5" ></text>
</g>
<g >
<title>pte_alloc_one (11,000,000 samples, 0.04%)</title><rect x="1137.1" y="101" width="0.4" height="15.0" fill="rgb(252,217,51)" rx="2" ry="2" />
<text  x="1140.08" y="111.5" ></text>
</g>
<g >
<title>handle_pte_fault (3,500,000 samples, 0.01%)</title><rect x="1169.3" y="117" width="0.1" height="15.0" fill="rgb(217,57,13)" rx="2" ry="2" />
<text  x="1172.31" y="127.5" ></text>
</g>
<g >
<title>bpcharlen (78,000,000 samples, 0.25%)</title><rect x="1174.6" y="309" width="3.0" height="15.0" fill="rgb(221,77,18)" rx="2" ry="2" />
<text  x="1177.65" y="319.5" ></text>
</g>
<g >
<title>pg_database_encoding_max_length (42,000,000 samples, 0.13%)</title><rect x="969.5" y="293" width="1.6" height="15.0" fill="rgb(243,176,42)" rx="2" ry="2" />
<text  x="972.47" y="303.5" ></text>
</g>
<g >
<title>__rcu_read_unlock (4,000,000 samples, 0.01%)</title><rect x="1112.1" y="181" width="0.2" height="15.0" fill="rgb(253,224,53)" rx="2" ry="2" />
<text  x="1115.14" y="191.5" ></text>
</g>
<g >
<title>[postgres] (31,202,500,000 samples, 100.00%)</title><rect x="10.0" y="437" width="1180.0" height="15.0" fill="rgb(245,184,44)" rx="2" ry="2" />
<text  x="13.02" y="447.5" >[postgres]</text>
</g>
<g >
<title>down_read_trylock (5,000,000 samples, 0.02%)</title><rect x="1112.3" y="181" width="0.2" height="15.0" fill="rgb(219,66,15)" rx="2" ry="2" />
<text  x="1115.29" y="191.5" ></text>
</g>
<g >
<title>MemoryContextReset (53,000,000 samples, 0.17%)</title><rect x="1027.4" y="309" width="2.0" height="15.0" fill="rgb(210,26,6)" rx="2" ry="2" />
<text  x="1030.37" y="319.5" ></text>
</g>
<g >
<title>count_memcg_events.constprop.0 (8,000,000 samples, 0.03%)</title><rect x="1138.2" y="165" width="0.3" height="15.0" fill="rgb(213,41,9)" rx="2" ry="2" />
<text  x="1141.17" y="175.5" ></text>
</g>
<g >
<title>exit_to_user_mode_prepare (10,500,000 samples, 0.03%)</title><rect x="1140.6" y="165" width="0.4" height="15.0" fill="rgb(228,108,25)" rx="2" ry="2" />
<text  x="1143.65" y="175.5" ></text>
</g>
<g >
<title>heap_getnextslot (3,610,000,000 samples, 11.57%)</title><rect x="1037.8" y="293" width="136.5" height="15.0" fill="rgb(213,40,9)" rx="2" ry="2" />
<text  x="1040.77" y="303.5" >heap_getnextslot</text>
</g>
<g >
<title>pg_mbstrlen_with_len (8,548,000,000 samples, 27.39%)</title><rect x="114.5" y="277" width="323.3" height="15.0" fill="rgb(228,106,25)" rx="2" ry="2" />
<text  x="117.54" y="287.5" >pg_mbstrlen_with_len</text>
</g>
<g >
<title>percpu_counter_add_batch (39,500,000 samples, 0.13%)</title><rect x="1125.9" y="69" width="1.5" height="15.0" fill="rgb(241,166,39)" rx="2" ry="2" />
<text  x="1128.92" y="79.5" ></text>
</g>
<g >
<title>folio_test_hugetlb (16,500,000 samples, 0.05%)</title><rect x="1136.4" y="101" width="0.6" height="15.0" fill="rgb(247,196,46)" rx="2" ry="2" />
<text  x="1139.36" y="111.5" ></text>
</g>
<g >
<title>tick_sched_timer (5,000,000 samples, 0.02%)</title><rect x="437.5" y="181" width="0.2" height="15.0" fill="rgb(254,227,54)" rx="2" ry="2" />
<text  x="440.52" y="191.5" ></text>
</g>
<g >
<title>main (31,202,500,000 samples, 100.00%)</title><rect x="10.0" y="485" width="1180.0" height="15.0" fill="rgb(243,179,42)" rx="2" ry="2" />
<text  x="13.02" y="495.5" >main</text>
</g>
<g >
<title>mtree_range_walk (5,500,000 samples, 0.02%)</title><rect x="1139.4" y="133" width="0.2" height="15.0" fill="rgb(215,49,11)" rx="2" ry="2" />
<text  x="1142.36" y="143.5" ></text>
</g>
<g >
<title>__libc_start_call_main (31,202,500,000 samples, 100.00%)</title><rect x="10.0" y="501" width="1180.0" height="15.0" fill="rgb(210,26,6)" rx="2" ry="2" />
<text  x="13.02" y="511.5" >__libc_start_call_main</text>
</g>
<g >
<title>do_read_fault (607,500,000 samples, 1.95%)</title><rect x="1114.8" y="117" width="23.0" height="15.0" fill="rgb(223,84,20)" rx="2" ry="2" />
<text  x="1117.82" y="127.5" >d..</text>
</g>
<g >
<title>hash_search_with_hash_value (670,500,000 samples, 2.15%)</title><rect x="1144.1" y="213" width="25.4" height="15.0" fill="rgb(249,205,49)" rx="2" ry="2" />
<text  x="1147.15" y="223.5" >h..</text>
</g>
<g >
<title>irqentry_exit_to_user_mode (3,000,000 samples, 0.01%)</title><rect x="1141.1" y="197" width="0.1" height="15.0" fill="rgb(254,229,54)" rx="2" ry="2" />
<text  x="1144.06" y="207.5" ></text>
</g>
<g >
<title>get_page_from_freelist (4,000,000 samples, 0.01%)</title><rect x="1137.3" y="37" width="0.1" height="15.0" fill="rgb(252,218,52)" rx="2" ry="2" />
<text  x="1140.26" y="47.5" ></text>
</g>
<g >
<title>page_add_file_rmap (20,500,000 samples, 0.07%)</title><rect x="1125.1" y="69" width="0.8" height="15.0" fill="rgb(207,13,3)" rx="2" ry="2" />
<text  x="1128.14" y="79.5" ></text>
</g>
<g >
<title>xas_find (34,000,000 samples, 0.11%)</title><rect x="1135.0" y="85" width="1.3" height="15.0" fill="rgb(211,29,7)" rx="2" ry="2" />
<text  x="1138.00" y="95.5" ></text>
</g>
<g >
<title>IncrBufferRefCount (8,000,000 samples, 0.03%)</title><rect x="1056.3" y="261" width="0.3" height="15.0" fill="rgb(209,22,5)" rx="2" ry="2" />
<text  x="1059.30" y="271.5" ></text>
</g>
<g >
<title>update_process_times (4,000,000 samples, 0.01%)</title><rect x="437.6" y="149" width="0.1" height="15.0" fill="rgb(250,209,50)" rx="2" ry="2" />
<text  x="440.56" y="159.5" ></text>
</g>
<g >
<title>exc_page_fault (4,500,000 samples, 0.01%)</title><rect x="1169.3" y="181" width="0.2" height="15.0" fill="rgb(212,35,8)" rx="2" ry="2" />
<text  x="1172.30" y="191.5" ></text>
</g>
<g >
<title>do_read_fault (8,000,000 samples, 0.03%)</title><rect x="1172.4" y="101" width="0.3" height="15.0" fill="rgb(223,84,20)" rx="2" ry="2" />
<text  x="1175.40" y="111.5" ></text>
</g>
<g >
<title>GetPrivateRefCountEntry (11,500,000 samples, 0.04%)</title><rect x="1085.2" y="245" width="0.4" height="15.0" fill="rgb(250,209,50)" rx="2" ry="2" />
<text  x="1088.21" y="255.5" ></text>
</g>
<g >
<title>handle_pte_fault (634,500,000 samples, 2.03%)</title><rect x="1114.2" y="149" width="24.0" height="15.0" fill="rgb(217,57,13)" rx="2" ry="2" />
<text  x="1117.16" y="159.5" >h..</text>
</g>
<g >
<title>heap_prepare_pagescan (1,490,500,000 samples, 4.78%)</title><rect x="1085.7" y="261" width="56.4" height="15.0" fill="rgb(222,82,19)" rx="2" ry="2" />
<text  x="1088.72" y="271.5" >heap_..</text>
</g>
<g >
<title>tts_buffer_heap_getsomeattrs (67,000,000 samples, 0.21%)</title><rect x="1022.2" y="293" width="2.5" height="15.0" fill="rgb(222,81,19)" rx="2" ry="2" />
<text  x="1025.17" y="303.5" ></text>
</g>
<g >
<title>filemap_map_pages (7,500,000 samples, 0.02%)</title><rect x="1172.4" y="85" width="0.3" height="15.0" fill="rgb(229,112,27)" rx="2" ry="2" />
<text  x="1175.40" y="95.5" ></text>
</g>
<g >
<title>postgres (31,203,000,000 samples, 100.00%)</title><rect x="10.0" y="517" width="1180.0" height="15.0" fill="rgb(233,131,31)" rx="2" ry="2" />
<text  x="13.00" y="527.5" >postgres</text>
</g>
<g >
<title>LWLockRelease (7,000,000 samples, 0.02%)</title><rect x="1171.1" y="229" width="0.3" height="15.0" fill="rgb(217,58,13)" rx="2" ry="2" />
<text  x="1174.15" y="239.5" ></text>
</g>
<g >
<title>__handle_mm_fault (668,000,000 samples, 2.14%)</title><rect x="1112.9" y="165" width="25.3" height="15.0" fill="rgb(207,9,2)" rx="2" ry="2" />
<text  x="1115.91" y="175.5" >_..</text>
</g>
<g >
<title>xas_load (24,000,000 samples, 0.08%)</title><rect x="1135.3" y="69" width="0.9" height="15.0" fill="rgb(217,59,14)" rx="2" ry="2" />
<text  x="1138.30" y="79.5" ></text>
</g>
<g >
<title>do_user_addr_fault (765,000,000 samples, 2.45%)</title><rect x="1111.6" y="197" width="28.9" height="15.0" fill="rgb(228,108,25)" rx="2" ry="2" />
<text  x="1114.61" y="207.5" >do..</text>
</g>
<g >
<title>tick_sched_timer (3,500,000 samples, 0.01%)</title><rect x="969.2" y="181" width="0.1" height="15.0" fill="rgb(254,227,54)" rx="2" ry="2" />
<text  x="972.19" y="191.5" ></text>
</g>
<g >
<title>hash_bytes (22,500,000 samples, 0.07%)</title><rect x="1173.1" y="245" width="0.8" height="15.0" fill="rgb(227,102,24)" rx="2" ry="2" />
<text  x="1176.06" y="255.5" ></text>
</g>
<g >
<title>do_fault (3,500,000 samples, 0.01%)</title><rect x="1169.3" y="101" width="0.1" height="15.0" fill="rgb(248,200,47)" rx="2" ry="2" />
<text  x="1172.31" y="111.5" ></text>
</g>
<g >
<title>UnpinBufferNoOwner (32,000,000 samples, 0.10%)</title><rect x="1057.3" y="261" width="1.2" height="15.0" fill="rgb(253,221,53)" rx="2" ry="2" />
<text  x="1060.26" y="271.5" ></text>
</g>
<g >
<title>hrtimer_interrupt (7,000,000 samples, 0.02%)</title><rect x="437.5" y="213" width="0.3" height="15.0" fill="rgb(228,109,26)" rx="2" ry="2" />
<text  x="440.50" y="223.5" ></text>
</g>
<g >
<title>native_set_pte (7,500,000 samples, 0.02%)</title><rect x="1127.4" y="85" width="0.3" height="15.0" fill="rgb(236,145,34)" rx="2" ry="2" />
<text  x="1130.43" y="95.5" ></text>
</g>
<g >
<title>heapgettup_pagemode (9,500,000 samples, 0.03%)</title><rect x="1174.3" y="293" width="0.3" height="15.0" fill="rgb(242,170,40)" rx="2" ry="2" />
<text  x="1177.29" y="303.5" ></text>
</g>
<g >
<title>tick_sched_handle (4,000,000 samples, 0.01%)</title><rect x="437.6" y="165" width="0.1" height="15.0" fill="rgb(219,68,16)" rx="2" ry="2" />
<text  x="440.56" y="175.5" ></text>
</g>
<g >
<title>ExecScanFetch (21,500,000 samples, 0.07%)</title><rect x="1187.5" y="325" width="0.8" height="15.0" fill="rgb(222,80,19)" rx="2" ry="2" />
<text  x="1190.47" y="335.5" ></text>
</g>
<g >
<title>_raw_spin_lock (3,000,000 samples, 0.01%)</title><rect x="1120.4" y="85" width="0.1" height="15.0" fill="rgb(239,160,38)" rx="2" ry="2" />
<text  x="1123.38" y="95.5" ></text>
</g>
<g >
<title>ExecScanFetch (70,500,000 samples, 0.23%)</title><rect x="1024.7" y="309" width="2.7" height="15.0" fill="rgb(222,80,19)" rx="2" ry="2" />
<text  x="1027.70" y="319.5" ></text>
</g>
<g >
<title>handle_mm_fault (4,000,000 samples, 0.01%)</title><rect x="1169.3" y="149" width="0.1" height="15.0" fill="rgb(234,135,32)" rx="2" ry="2" />
<text  x="1172.30" y="159.5" ></text>
</g>
<g >
<title>error_entry (4,000,000 samples, 0.01%)</title><rect x="1141.4" y="229" width="0.1" height="15.0" fill="rgb(240,163,39)" rx="2" ry="2" />
<text  x="1144.39" y="239.5" ></text>
</g>
<g >
<title>heapgettup_pagemode (3,052,000,000 samples, 9.78%)</title><rect x="1058.9" y="277" width="115.4" height="15.0" fill="rgb(242,170,40)" rx="2" ry="2" />
<text  x="1061.87" y="287.5" >heapgettup_pag..</text>
</g>
<g >
<title>do_set_pte (4,000,000 samples, 0.01%)</title><rect x="1115.1" y="101" width="0.2" height="15.0" fill="rgb(253,221,52)" rx="2" ry="2" />
<text  x="1118.12" y="111.5" ></text>
</g>
<g >
<title>xas_start (3,000,000 samples, 0.01%)</title><rect x="1136.1" y="53" width="0.1" height="15.0" fill="rgb(250,209,50)" rx="2" ry="2" />
<text  x="1139.09" y="63.5" ></text>
</g>
<g >
<title>__hrtimer_run_queues (4,000,000 samples, 0.01%)</title><rect x="969.2" y="197" width="0.1" height="15.0" fill="rgb(237,150,35)" rx="2" ry="2" />
<text  x="972.17" y="207.5" ></text>
</g>
<g >
<title>BufTableLookup (681,000,000 samples, 2.18%)</title><rect x="1143.7" y="229" width="25.8" height="15.0" fill="rgb(224,89,21)" rx="2" ry="2" />
<text  x="1146.75" y="239.5" >B..</text>
</g>
<g >
<title>SeqNext (3,841,500,000 samples, 12.31%)</title><rect x="1029.4" y="309" width="145.2" height="15.0" fill="rgb(214,41,10)" rx="2" ry="2" />
<text  x="1032.37" y="319.5" >SeqNext</text>
</g>
</g>
</svg>
