<?xml version="1.0" standalone="no"?>
<!DOCTYPE svg PUBLIC "-//W3C//DTD SVG 1.1//EN" "http://www.w3.org/Graphics/SVG/1.1/DTD/svg11.dtd">
<svg version="1.1" width="1200" height="566" onload="init(evt)" viewBox="0 0 1200 566" xmlns="http://www.w3.org/2000/svg" xmlns:xlink="http://www.w3.org/1999/xlink">
<!-- Flame graph stack visualization. See https://github.com/brendangregg/FlameGraph for latest version, and http://www.brendangregg.com/flamegraphs.html for examples. -->
<!-- NOTES:  -->
<defs>
	<linearGradient id="background" y1="0" y2="1" x1="0" x2="0" >
		<stop stop-color="#eeeeee" offset="5%" />
		<stop stop-color="#eeeeb0" offset="95%" />
	</linearGradient>
</defs>
<style type="text/css">
	text { font-family:Verdana; font-size:12px; fill:rgb(0,0,0); }
	#search, #ignorecase { opacity:0.1; cursor:pointer; }
	#search:hover, #search.show, #ignorecase:hover, #ignorecase.show { opacity:1; }
	#subtitle { text-anchor:middle; font-color:rgb(160,160,160); }
	#title { text-anchor:middle; font-size:17px}
	#unzoom { cursor:pointer; }
	#frames > *:hover { stroke:black; stroke-width:0.5; cursor:pointer; }
	.hide { display:none; }
	.parent { opacity:0.5; }
</style>
<script type="text/ecmascript">
<![CDATA[
	"use strict";
	var details, searchbtn, unzoombtn, matchedtxt, svg, searching, currentSearchTerm, ignorecase, ignorecaseBtn;
	function init(evt) {
		details = document.getElementById("details").firstChild;
		searchbtn = document.getElementById("search");
		ignorecaseBtn = document.getElementById("ignorecase");
		unzoombtn = document.getElementById("unzoom");
		matchedtxt = document.getElementById("matched");
		svg = document.getElementsByTagName("svg")[0];
		searching = 0;
		currentSearchTerm = null;

		// use GET parameters to restore a flamegraphs state.
		var params = get_params();
		if (params.x && params.y)
			zoom(find_group(document.querySelector('[x="' + params.x + '"][y="' + params.y + '"]')));
                if (params.s) search(params.s);
	}

	// event listeners
	window.addEventListener("click", function(e) {
		var target = find_group(e.target);
		if (target) {
			if (target.nodeName == "a") {
				if (e.ctrlKey === false) return;
				e.preventDefault();
			}
			if (target.classList.contains("parent")) unzoom(true);
			zoom(target);
			if (!document.querySelector('.parent')) {
				// we have basically done a clearzoom so clear the url
				var params = get_params();
				if (params.x) delete params.x;
				if (params.y) delete params.y;
				history.replaceState(null, null, parse_params(params));
				unzoombtn.classList.add("hide");
				return;
			}

			// set parameters for zoom state
			var el = target.querySelector("rect");
			if (el && el.attributes && el.attributes.y && el.attributes._orig_x) {
				var params = get_params()
				params.x = el.attributes._orig_x.value;
				params.y = el.attributes.y.value;
				history.replaceState(null, null, parse_params(params));
			}
		}
		else if (e.target.id == "unzoom") clearzoom();
		else if (e.target.id == "search") search_prompt();
		else if (e.target.id == "ignorecase") toggle_ignorecase();
	}, false)

	// mouse-over for info
	// show
	window.addEventListener("mouseover", function(e) {
		var target = find_group(e.target);
		if (target) details.nodeValue = "Function: " + g_to_text(target);
	}, false)

	// clear
	window.addEventListener("mouseout", function(e) {
		var target = find_group(e.target);
		if (target) details.nodeValue = ' ';
	}, false)

	// ctrl-F for search
	// ctrl-I to toggle case-sensitive search
	window.addEventListener("keydown",function (e) {
		if (e.keyCode === 114 || (e.ctrlKey && e.keyCode === 70)) {
			e.preventDefault();
			search_prompt();
		}
		else if (e.ctrlKey && e.keyCode === 73) {
			e.preventDefault();
			toggle_ignorecase();
		}
	}, false)

	// functions
	function get_params() {
		var params = {};
		var paramsarr = window.location.search.substr(1).split('&');
		for (var i = 0; i < paramsarr.length; ++i) {
			var tmp = paramsarr[i].split("=");
			if (!tmp[0] || !tmp[1]) continue;
			params[tmp[0]]  = decodeURIComponent(tmp[1]);
		}
		return params;
	}
	function parse_params(params) {
		var uri = "?";
		for (var key in params) {
			uri += key + '=' + encodeURIComponent(params[key]) + '&';
		}
		if (uri.slice(-1) == "&")
			uri = uri.substring(0, uri.length - 1);
		if (uri == '?')
			uri = window.location.href.split('?')[0];
		return uri;
	}
	function find_child(node, selector) {
		var children = node.querySelectorAll(selector);
		if (children.length) return children[0];
	}
	function find_group(node) {
		var parent = node.parentElement;
		if (!parent) return;
		if (parent.id == "frames") return node;
		return find_group(parent);
	}
	function orig_save(e, attr, val) {
		if (e.attributes["_orig_" + attr] != undefined) return;
		if (e.attributes[attr] == undefined) return;
		if (val == undefined) val = e.attributes[attr].value;
		e.setAttribute("_orig_" + attr, val);
	}
	function orig_load(e, attr) {
		if (e.attributes["_orig_"+attr] == undefined) return;
		e.attributes[attr].value = e.attributes["_orig_" + attr].value;
		e.removeAttribute("_orig_"+attr);
	}
	function g_to_text(e) {
		var text = find_child(e, "title").firstChild.nodeValue;
		return (text)
	}
	function g_to_func(e) {
		var func = g_to_text(e);
		// if there's any manipulation we want to do to the function
		// name before it's searched, do it here before returning.
		return (func);
	}
	function update_text(e) {
		var r = find_child(e, "rect");
		var t = find_child(e, "text");
		var w = parseFloat(r.attributes.width.value) -3;
		var txt = find_child(e, "title").textContent.replace(/\([^(]*\)$/,"");
		t.attributes.x.value = parseFloat(r.attributes.x.value) + 3;

		// Smaller than this size won't fit anything
		if (w < 2 * 12 * 0.59) {
			t.textContent = "";
			return;
		}

		t.textContent = txt;
		var sl = t.getSubStringLength(0, txt.length);
		// check if only whitespace or if we can fit the entire string into width w
		if (/^ *$/.test(txt) || sl < w)
			return;

		// this isn't perfect, but gives a good starting point
		// and avoids calling getSubStringLength too often
		var start = Math.floor((w/sl) * txt.length);
		for (var x = start; x > 0; x = x-2) {
			if (t.getSubStringLength(0, x + 2) <= w) {
				t.textContent = txt.substring(0, x) + "..";
				return;
			}
		}
		t.textContent = "";
	}

	// zoom
	function zoom_reset(e) {
		if (e.attributes != undefined) {
			orig_load(e, "x");
			orig_load(e, "width");
		}
		if (e.childNodes == undefined) return;
		for (var i = 0, c = e.childNodes; i < c.length; i++) {
			zoom_reset(c[i]);
		}
	}
	function zoom_child(e, x, ratio) {
		if (e.attributes != undefined) {
			if (e.attributes.x != undefined) {
				orig_save(e, "x");
				e.attributes.x.value = (parseFloat(e.attributes.x.value) - x - 10) * ratio + 10;
				if (e.tagName == "text")
					e.attributes.x.value = find_child(e.parentNode, "rect[x]").attributes.x.value + 3;
			}
			if (e.attributes.width != undefined) {
				orig_save(e, "width");
				e.attributes.width.value = parseFloat(e.attributes.width.value) * ratio;
			}
		}

		if (e.childNodes == undefined) return;
		for (var i = 0, c = e.childNodes; i < c.length; i++) {
			zoom_child(c[i], x - 10, ratio);
		}
	}
	function zoom_parent(e) {
		if (e.attributes) {
			if (e.attributes.x != undefined) {
				orig_save(e, "x");
				e.attributes.x.value = 10;
			}
			if (e.attributes.width != undefined) {
				orig_save(e, "width");
				e.attributes.width.value = parseInt(svg.width.baseVal.value) - (10 * 2);
			}
		}
		if (e.childNodes == undefined) return;
		for (var i = 0, c = e.childNodes; i < c.length; i++) {
			zoom_parent(c[i]);
		}
	}
	function zoom(node) {
		var attr = find_child(node, "rect").attributes;
		var width = parseFloat(attr.width.value);
		var xmin = parseFloat(attr.x.value);
		var xmax = parseFloat(xmin + width);
		var ymin = parseFloat(attr.y.value);
		var ratio = (svg.width.baseVal.value - 2 * 10) / width;

		// XXX: Workaround for JavaScript float issues (fix me)
		var fudge = 0.0001;

		unzoombtn.classList.remove("hide");

		var el = document.getElementById("frames").children;
		for (var i = 0; i < el.length; i++) {
			var e = el[i];
			var a = find_child(e, "rect").attributes;
			var ex = parseFloat(a.x.value);
			var ew = parseFloat(a.width.value);
			var upstack;
			// Is it an ancestor
			if (0 == 0) {
				upstack = parseFloat(a.y.value) > ymin;
			} else {
				upstack = parseFloat(a.y.value) < ymin;
			}
			if (upstack) {
				// Direct ancestor
				if (ex <= xmin && (ex+ew+fudge) >= xmax) {
					e.classList.add("parent");
					zoom_parent(e);
					update_text(e);
				}
				// not in current path
				else
					e.classList.add("hide");
			}
			// Children maybe
			else {
				// no common path
				if (ex < xmin || ex + fudge >= xmax) {
					e.classList.add("hide");
				}
				else {
					zoom_child(e, xmin, ratio);
					update_text(e);
				}
			}
		}
		search();
	}
	function unzoom(dont_update_text) {
		unzoombtn.classList.add("hide");
		var el = document.getElementById("frames").children;
		for(var i = 0; i < el.length; i++) {
			el[i].classList.remove("parent");
			el[i].classList.remove("hide");
			zoom_reset(el[i]);
			if(!dont_update_text) update_text(el[i]);
		}
		search();
	}
	function clearzoom() {
		unzoom();

		// remove zoom state
		var params = get_params();
		if (params.x) delete params.x;
		if (params.y) delete params.y;
		history.replaceState(null, null, parse_params(params));
	}

	// search
	function toggle_ignorecase() {
		ignorecase = !ignorecase;
		if (ignorecase) {
			ignorecaseBtn.classList.add("show");
		} else {
			ignorecaseBtn.classList.remove("show");
		}
		reset_search();
		search();
	}
	function reset_search() {
		var el = document.querySelectorAll("#frames rect");
		for (var i = 0; i < el.length; i++) {
			orig_load(el[i], "fill")
		}
		var params = get_params();
		delete params.s;
		history.replaceState(null, null, parse_params(params));
	}
	function search_prompt() {
		if (!searching) {
			var term = prompt("Enter a search term (regexp " +
			    "allowed, eg: ^ext4_)"
			    + (ignorecase ? ", ignoring case" : "")
			    + "\nPress Ctrl-i to toggle case sensitivity", "");
			if (term != null) search(term);
		} else {
			reset_search();
			searching = 0;
			currentSearchTerm = null;
			searchbtn.classList.remove("show");
			searchbtn.firstChild.nodeValue = "Search"
			matchedtxt.classList.add("hide");
			matchedtxt.firstChild.nodeValue = ""
		}
	}
	function search(term) {
		if (term) currentSearchTerm = term;

		var re = new RegExp(currentSearchTerm, ignorecase ? 'i' : '');
		var el = document.getElementById("frames").children;
		var matches = new Object();
		var maxwidth = 0;
		for (var i = 0; i < el.length; i++) {
			var e = el[i];
			var func = g_to_func(e);
			var rect = find_child(e, "rect");
			if (func == null || rect == null)
				continue;

			// Save max width. Only works as we have a root frame
			var w = parseFloat(rect.attributes.width.value);
			if (w > maxwidth)
				maxwidth = w;

			if (func.match(re)) {
				// highlight
				var x = parseFloat(rect.attributes.x.value);
				orig_save(rect, "fill");
				rect.attributes.fill.value = "rgb(230,0,230)";

				// remember matches
				if (matches[x] == undefined) {
					matches[x] = w;
				} else {
					if (w > matches[x]) {
						// overwrite with parent
						matches[x] = w;
					}
				}
				searching = 1;
			}
		}
		if (!searching)
			return;
		var params = get_params();
		params.s = currentSearchTerm;
		history.replaceState(null, null, parse_params(params));

		searchbtn.classList.add("show");
		searchbtn.firstChild.nodeValue = "Reset Search";

		// calculate percent matched, excluding vertical overlap
		var count = 0;
		var lastx = -1;
		var lastw = 0;
		var keys = Array();
		for (k in matches) {
			if (matches.hasOwnProperty(k))
				keys.push(k);
		}
		// sort the matched frames by their x location
		// ascending, then width descending
		keys.sort(function(a, b){
			return a - b;
		});
		// Step through frames saving only the biggest bottom-up frames
		// thanks to the sort order. This relies on the tree property
		// where children are always smaller than their parents.
		var fudge = 0.0001;	// JavaScript floating point
		for (var k in keys) {
			var x = parseFloat(keys[k]);
			var w = matches[keys[k]];
			if (x >= lastx + lastw - fudge) {
				count += w;
				lastx = x;
				lastw = w;
			}
		}
		// display matched percent
		matchedtxt.classList.remove("hide");
		var pct = 100 * count / maxwidth;
		if (pct != 100) pct = pct.toFixed(1)
		matchedtxt.firstChild.nodeValue = "Matched: " + pct + "%";
	}
]]>
</script>
<rect x="0.0" y="0" width="1200.0" height="566.0" fill="url(#background)"  />
<text id="title" x="600.00" y="24" >Flame Graph</text>
<text id="details" x="10.00" y="549" > </text>
<text id="unzoom" x="10.00" y="24" class="hide">Reset Zoom</text>
<text id="search" x="1090.00" y="24" >Search</text>
<text id="ignorecase" x="1174.00" y="24" >ic</text>
<text id="matched" x="1090.00" y="549" > </text>
<g id="frames">
<g >
<title>asm_sysvec_apic_timer_interrupt (2,750,822 samples, 0.01%)</title><rect x="1080.0" y="277" width="0.1" height="15.0" fill="rgb(232,127,30)" rx="2" ry="2" />
<text  x="1082.97" y="287.5" ></text>
</g>
<g >
<title>sysvec_apic_timer_interrupt (2,750,822 samples, 0.01%)</title><rect x="1080.0" y="261" width="0.1" height="15.0" fill="rgb(220,69,16)" rx="2" ry="2" />
<text  x="1082.97" y="271.5" ></text>
</g>
<g >
<title>PortalRunSelect (27,819,601,046 samples, 99.98%)</title><rect x="10.1" y="341" width="1179.8" height="15.0" fill="rgb(245,188,45)" rx="2" ry="2" />
<text  x="13.12" y="351.5" >PortalRunSelect</text>
</g>
<g >
<title>ExecSeqScanWithQual (27,657,351,558 samples, 99.40%)</title><rect x="13.4" y="309" width="1172.9" height="15.0" fill="rgb(254,227,54)" rx="2" ry="2" />
<text  x="16.38" y="319.5" >ExecSeqScanWithQual</text>
</g>
<g >
<title>pgstat_count_backend_io_op (5,500,574 samples, 0.02%)</title><rect x="1171.0" y="213" width="0.2" height="15.0" fill="rgb(244,179,42)" rx="2" ry="2" />
<text  x="1173.99" y="223.5" ></text>
</g>
<g >
<title>__sysvec_apic_timer_interrupt (2,750,640 samples, 0.01%)</title><rect x="104.6" y="229" width="0.1" height="15.0" fill="rgb(242,173,41)" rx="2" ry="2" />
<text  x="107.60" y="239.5" ></text>
</g>
<g >
<title>SeqNext (2,168,301,481 samples, 7.79%)</title><rect x="1080.1" y="293" width="91.9" height="15.0" fill="rgb(214,41,10)" rx="2" ry="2" />
<text  x="1083.08" y="303.5" >SeqNext</text>
</g>
<g >
<title>pg_detoast_datum_packed (16,485,090 samples, 0.06%)</title><rect x="1006.9" y="277" width="0.7" height="15.0" fill="rgb(238,155,37)" rx="2" ry="2" />
<text  x="1009.85" y="287.5" ></text>
</g>
<g >
<title>ExecInterpExpr (76,986,767 samples, 0.28%)</title><rect x="10.1" y="309" width="3.3" height="15.0" fill="rgb(225,96,22)" rx="2" ry="2" />
<text  x="13.12" y="319.5" ></text>
</g>
<g >
<title>GetPrivateRefCountEntry (8,249,845 samples, 0.03%)</title><rect x="1109.3" y="229" width="0.3" height="15.0" fill="rgb(250,209,50)" rx="2" ry="2" />
<text  x="1112.30" y="239.5" ></text>
</g>
<g >
<title>pgstat_count_io_op (8,250,014 samples, 0.03%)</title><rect x="1171.7" y="229" width="0.3" height="15.0" fill="rgb(207,10,2)" rx="2" ry="2" />
<text  x="1174.69" y="239.5" ></text>
</g>
<g >
<title>sysvec_apic_timer_interrupt (2,750,685 samples, 0.01%)</title><rect x="1112.1" y="229" width="0.1" height="15.0" fill="rgb(220,69,16)" rx="2" ry="2" />
<text  x="1115.10" y="239.5" ></text>
</g>
<g >
<title>__sysvec_apic_timer_interrupt (13,751,840 samples, 0.05%)</title><rect x="472.2" y="213" width="0.6" height="15.0" fill="rgb(242,173,41)" rx="2" ry="2" />
<text  x="475.24" y="223.5" ></text>
</g>
<g >
<title>ExecInterpExpr (24,784,937,259 samples, 89.07%)</title><rect x="24.8" y="293" width="1051.1" height="15.0" fill="rgb(225,96,22)" rx="2" ry="2" />
<text  x="27.81" y="303.5" >ExecInterpExpr</text>
</g>
<g >
<title>PinBuffer (192,513,035 samples, 0.69%)</title><rect x="1162.8" y="213" width="8.2" height="15.0" fill="rgb(219,64,15)" rx="2" ry="2" />
<text  x="1165.82" y="223.5" ></text>
</g>
<g >
<title>BufTableLookup (316,283,674 samples, 1.14%)</title><rect x="1144.4" y="213" width="13.4" height="15.0" fill="rgb(224,89,21)" rx="2" ry="2" />
<text  x="1147.39" y="223.5" ></text>
</g>
<g >
<title>LWLockAcquire (13,751,646 samples, 0.05%)</title><rect x="1158.0" y="213" width="0.6" height="15.0" fill="rgb(209,20,4)" rx="2" ry="2" />
<text  x="1161.04" y="223.5" ></text>
</g>
<g >
<title>UnpinBufferNoOwner (19,254,050 samples, 0.07%)</title><rect x="1129.6" y="245" width="0.8" height="15.0" fill="rgb(253,221,53)" rx="2" ry="2" />
<text  x="1132.58" y="255.5" ></text>
</g>
<g >
<title>asm_sysvec_apic_timer_interrupt (11,002,983 samples, 0.04%)</title><rect x="1003.9" y="245" width="0.5" height="15.0" fill="rgb(232,127,30)" rx="2" ry="2" />
<text  x="1006.94" y="255.5" ></text>
</g>
<g >
<title>ReleaseBuffer (11,001,052 samples, 0.04%)</title><rect x="1129.1" y="245" width="0.5" height="15.0" fill="rgb(220,71,17)" rx="2" ry="2" />
<text  x="1132.11" y="255.5" ></text>
</g>
<g >
<title>MemoryContextReset (99,013,327 samples, 0.36%)</title><rect x="1075.9" y="293" width="4.2" height="15.0" fill="rgb(210,26,6)" rx="2" ry="2" />
<text  x="1078.88" y="303.5" ></text>
</g>
<g >
<title>postmaster_child_launch (27,822,351,742 samples, 99.99%)</title><rect x="10.1" y="421" width="1179.9" height="15.0" fill="rgb(206,5,1)" rx="2" ry="2" />
<text  x="13.12" y="431.5" >postmaster_child_launch</text>
</g>
<g >
<title>heap_page_prune_opt (5,500,426 samples, 0.02%)</title><rect x="1132.6" y="229" width="0.2" height="15.0" fill="rgb(211,29,7)" rx="2" ry="2" />
<text  x="1135.61" y="239.5" ></text>
</g>
<g >
<title>ServerLoop (27,822,351,742 samples, 99.99%)</title><rect x="10.1" y="437" width="1179.9" height="15.0" fill="rgb(238,155,37)" rx="2" ry="2" />
<text  x="13.12" y="447.5" >ServerLoop</text>
</g>
<g >
<title>asm_sysvec_apic_timer_interrupt (2,751,027 samples, 0.01%)</title><rect x="86.5" y="277" width="0.1" height="15.0" fill="rgb(232,127,30)" rx="2" ry="2" />
<text  x="89.53" y="287.5" ></text>
</g>
<g >
<title>tick_sched_handle (5,501,361 samples, 0.02%)</title><rect x="1004.2" y="149" width="0.2" height="15.0" fill="rgb(219,68,16)" rx="2" ry="2" />
<text  x="1007.17" y="159.5" ></text>
</g>
<g >
<title>perf_event_task_tick (8,251,430 samples, 0.03%)</title><rect x="472.4" y="101" width="0.3" height="15.0" fill="rgb(205,3,0)" rx="2" ry="2" />
<text  x="475.35" y="111.5" ></text>
</g>
<g >
<title>ExecStoreBufferHeapTuple (93,512,933 samples, 0.34%)</title><rect x="1086.0" y="277" width="4.0" height="15.0" fill="rgb(230,117,28)" rx="2" ry="2" />
<text  x="1089.03" y="287.5" ></text>
</g>
<g >
<title>sched_clock (2,750,770 samples, 0.01%)</title><rect x="1004.3" y="53" width="0.1" height="15.0" fill="rgb(212,33,7)" rx="2" ry="2" />
<text  x="1007.29" y="63.5" ></text>
</g>
<g >
<title>GetPrivateRefCountEntry (27,502,774 samples, 0.10%)</title><rect x="1169.8" y="197" width="1.2" height="15.0" fill="rgb(250,209,50)" rx="2" ry="2" />
<text  x="1172.82" y="207.5" ></text>
</g>
<g >
<title>pg_utf_mblen_private (2,750,550 samples, 0.01%)</title><rect x="10.0" y="453" width="0.1" height="15.0" fill="rgb(242,173,41)" rx="2" ry="2" />
<text  x="13.00" y="463.5" ></text>
</g>
<g >
<title>LWLockRelease (10,996,105 samples, 0.04%)</title><rect x="1162.4" y="213" width="0.4" height="15.0" fill="rgb(217,58,13)" rx="2" ry="2" />
<text  x="1165.36" y="223.5" ></text>
</g>
<g >
<title>hash_bytes (8,250,689 samples, 0.03%)</title><rect x="1171.2" y="229" width="0.4" height="15.0" fill="rgb(227,102,24)" rx="2" ry="2" />
<text  x="1174.22" y="239.5" ></text>
</g>
<g >
<title>slot_getsomeattrs_int (8,250,344 samples, 0.03%)</title><rect x="1185.9" y="293" width="0.4" height="15.0" fill="rgb(252,219,52)" rx="2" ry="2" />
<text  x="1188.92" y="303.5" ></text>
</g>
<g >
<title>sysvec_apic_timer_interrupt (11,002,983 samples, 0.04%)</title><rect x="1003.9" y="229" width="0.5" height="15.0" fill="rgb(220,69,16)" rx="2" ry="2" />
<text  x="1006.94" y="239.5" ></text>
</g>
<g >
<title>__sysvec_apic_timer_interrupt (2,750,822 samples, 0.01%)</title><rect x="1080.0" y="245" width="0.1" height="15.0" fill="rgb(242,173,41)" rx="2" ry="2" />
<text  x="1082.97" y="255.5" ></text>
</g>
<g >
<title>load_balance (2,750,863 samples, 0.01%)</title><rect x="472.8" y="149" width="0.1" height="15.0" fill="rgb(226,96,23)" rx="2" ry="2" />
<text  x="475.82" y="159.5" ></text>
</g>
<g >
<title>tick_sched_handle (2,750,685 samples, 0.01%)</title><rect x="1112.1" y="149" width="0.1" height="15.0" fill="rgb(219,68,16)" rx="2" ry="2" />
<text  x="1115.10" y="159.5" ></text>
</g>
<g >
<title>arch_scale_freq_tick (2,750,591 samples, 0.01%)</title><rect x="1004.2" y="101" width="0.1" height="15.0" fill="rgb(252,219,52)" rx="2" ry="2" />
<text  x="1007.17" y="111.5" ></text>
</g>
<g >
<title>PostmasterMain (27,822,351,742 samples, 99.99%)</title><rect x="10.1" y="453" width="1179.9" height="15.0" fill="rgb(212,35,8)" rx="2" ry="2" />
<text  x="13.12" y="463.5" >PostmasterMain</text>
</g>
<g >
<title>x86_pmu_enable (2,749,925 samples, 0.01%)</title><rect x="472.5" y="69" width="0.1" height="15.0" fill="rgb(244,179,43)" rx="2" ry="2" />
<text  x="475.47" y="79.5" ></text>
</g>
<g >
<title>update_process_times (5,501,361 samples, 0.02%)</title><rect x="1004.2" y="133" width="0.2" height="15.0" fill="rgb(250,209,50)" rx="2" ry="2" />
<text  x="1007.17" y="143.5" ></text>
</g>
<g >
<title>LWLockRelease (2,750,590 samples, 0.01%)</title><rect x="1134.1" y="229" width="0.1" height="15.0" fill="rgb(217,58,13)" rx="2" ry="2" />
<text  x="1137.13" y="239.5" ></text>
</g>
<g >
<title>hrtimer_interrupt (2,751,027 samples, 0.01%)</title><rect x="86.5" y="229" width="0.1" height="15.0" fill="rgb(228,109,26)" rx="2" ry="2" />
<text  x="89.53" y="239.5" ></text>
</g>
<g >
<title>hrtimer_interrupt (11,002,983 samples, 0.04%)</title><rect x="1003.9" y="197" width="0.5" height="15.0" fill="rgb(228,109,26)" rx="2" ry="2" />
<text  x="1006.94" y="207.5" ></text>
</g>
<g >
<title>postgres (27,825,102,292 samples, 100.00%)</title><rect x="10.0" y="501" width="1180.0" height="15.0" fill="rgb(233,131,31)" rx="2" ry="2" />
<text  x="13.00" y="511.5" >postgres</text>
</g>
<g >
<title>error_return (2,750,177 samples, 0.01%)</title><rect x="1004.4" y="245" width="0.1" height="15.0" fill="rgb(230,115,27)" rx="2" ry="2" />
<text  x="1007.40" y="255.5" ></text>
</g>
<g >
<title>irq_exit_rcu (2,750,863 samples, 0.01%)</title><rect x="472.8" y="213" width="0.1" height="15.0" fill="rgb(254,227,54)" rx="2" ry="2" />
<text  x="475.82" y="223.5" ></text>
</g>
<g >
<title>ResourceOwnerForget (8,250,653 samples, 0.03%)</title><rect x="1129.2" y="229" width="0.4" height="15.0" fill="rgb(235,142,33)" rx="2" ry="2" />
<text  x="1132.23" y="239.5" ></text>
</g>
<g >
<title>heap_getnextslot (159,565,206 samples, 0.57%)</title><rect x="1173.9" y="293" width="6.8" height="15.0" fill="rgb(213,40,9)" rx="2" ry="2" />
<text  x="1176.90" y="303.5" ></text>
</g>
<g >
<title>scheduler_tick (5,501,361 samples, 0.02%)</title><rect x="1004.2" y="117" width="0.2" height="15.0" fill="rgb(246,190,45)" rx="2" ry="2" />
<text  x="1007.17" y="127.5" ></text>
</g>
<g >
<title>sched_clock_cpu (2,750,770 samples, 0.01%)</title><rect x="1004.3" y="69" width="0.1" height="15.0" fill="rgb(229,113,27)" rx="2" ry="2" />
<text  x="1007.29" y="79.5" ></text>
</g>
<g >
<title>native_sched_clock (2,750,770 samples, 0.01%)</title><rect x="1004.3" y="37" width="0.1" height="15.0" fill="rgb(218,64,15)" rx="2" ry="2" />
<text  x="1007.29" y="47.5" ></text>
</g>
<g >
<title>hrtimer_interrupt (13,751,840 samples, 0.05%)</title><rect x="472.2" y="197" width="0.6" height="15.0" fill="rgb(228,109,26)" rx="2" ry="2" />
<text  x="475.24" y="207.5" ></text>
</g>
<g >
<title>__sysvec_apic_timer_interrupt (2,751,027 samples, 0.01%)</title><rect x="86.5" y="245" width="0.1" height="15.0" fill="rgb(242,173,41)" rx="2" ry="2" />
<text  x="89.53" y="255.5" ></text>
</g>
<g >
<title>tick_sched_timer (2,750,685 samples, 0.01%)</title><rect x="1112.1" y="165" width="0.1" height="15.0" fill="rgb(254,227,54)" rx="2" ry="2" />
<text  x="1115.10" y="175.5" ></text>
</g>
<g >
<title>SeqNext (27,504,463 samples, 0.10%)</title><rect x="1188.7" y="309" width="1.2" height="15.0" fill="rgb(214,41,10)" rx="2" ry="2" />
<text  x="1191.72" y="319.5" ></text>
</g>
<g >
<title>perf_event_task_tick (2,750,685 samples, 0.01%)</title><rect x="1112.1" y="101" width="0.1" height="15.0" fill="rgb(205,3,0)" rx="2" ry="2" />
<text  x="1115.10" y="111.5" ></text>
</g>
<g >
<title>asm_sysvec_apic_timer_interrupt (2,750,640 samples, 0.01%)</title><rect x="104.6" y="261" width="0.1" height="15.0" fill="rgb(232,127,30)" rx="2" ry="2" />
<text  x="107.60" y="271.5" ></text>
</g>
<g >
<title>__hrtimer_run_queues (2,750,822 samples, 0.01%)</title><rect x="1080.0" y="213" width="0.1" height="15.0" fill="rgb(237,150,35)" rx="2" ry="2" />
<text  x="1082.97" y="223.5" ></text>
</g>
<g >
<title>sysvec_apic_timer_interrupt (2,737,351 samples, 0.01%)</title><rect x="1157.7" y="165" width="0.1" height="15.0" fill="rgb(220,69,16)" rx="2" ry="2" />
<text  x="1160.69" y="175.5" ></text>
</g>
<g >
<title>scheduler_tick (2,750,685 samples, 0.01%)</title><rect x="1112.1" y="117" width="0.1" height="15.0" fill="rgb(246,190,45)" rx="2" ry="2" />
<text  x="1115.10" y="127.5" ></text>
</g>
<g >
<title>rebalance_domains (2,750,863 samples, 0.01%)</title><rect x="472.8" y="165" width="0.1" height="15.0" fill="rgb(248,202,48)" rx="2" ry="2" />
<text  x="475.82" y="175.5" ></text>
</g>
<g >
<title>read_stream_next_buffer (918,603,331 samples, 3.30%)</title><rect x="1133.1" y="245" width="38.9" height="15.0" fill="rgb(216,50,12)" rx="2" ry="2" />
<text  x="1136.08" y="255.5" >rea..</text>
</g>
<g >
<title>ResourceOwnerEnlarge (8,248,570 samples, 0.03%)</title><rect x="1109.6" y="229" width="0.4" height="15.0" fill="rgb(223,86,20)" rx="2" ry="2" />
<text  x="1112.65" y="239.5" ></text>
</g>
<g >
<title>update_process_times (2,749,615 samples, 0.01%)</title><rect x="472.7" y="149" width="0.1" height="15.0" fill="rgb(250,209,50)" rx="2" ry="2" />
<text  x="475.70" y="159.5" ></text>
</g>
<g >
<title>__sysvec_apic_timer_interrupt (2,737,351 samples, 0.01%)</title><rect x="1157.7" y="149" width="0.1" height="15.0" fill="rgb(242,173,41)" rx="2" ry="2" />
<text  x="1160.69" y="159.5" ></text>
</g>
<g >
<title>__sysvec_apic_timer_interrupt (11,002,983 samples, 0.04%)</title><rect x="1003.9" y="213" width="0.5" height="15.0" fill="rgb(242,173,41)" rx="2" ry="2" />
<text  x="1006.94" y="223.5" ></text>
</g>
<g >
<title>sysvec_apic_timer_interrupt (2,750,640 samples, 0.01%)</title><rect x="104.6" y="245" width="0.1" height="15.0" fill="rgb(220,69,16)" rx="2" ry="2" />
<text  x="107.60" y="255.5" ></text>
</g>
<g >
<title>sysvec_apic_timer_interrupt (2,751,027 samples, 0.01%)</title><rect x="86.5" y="261" width="0.1" height="15.0" fill="rgb(220,69,16)" rx="2" ry="2" />
<text  x="89.53" y="271.5" ></text>
</g>
<g >
<title>update_sd_lb_stats.constprop.0 (2,750,863 samples, 0.01%)</title><rect x="472.8" y="117" width="0.1" height="15.0" fill="rgb(223,86,20)" rx="2" ry="2" />
<text  x="475.82" y="127.5" ></text>
</g>
<g >
<title>handle_softirqs (2,750,863 samples, 0.01%)</title><rect x="472.8" y="197" width="0.1" height="15.0" fill="rgb(238,156,37)" rx="2" ry="2" />
<text  x="475.82" y="207.5" ></text>
</g>
<g >
<title>__sysvec_apic_timer_interrupt (2,750,685 samples, 0.01%)</title><rect x="1112.1" y="213" width="0.1" height="15.0" fill="rgb(242,173,41)" rx="2" ry="2" />
<text  x="1115.10" y="223.5" ></text>
</g>
<g >
<title>StartReadBuffer (871,847,845 samples, 3.13%)</title><rect x="1134.2" y="229" width="37.0" height="15.0" fill="rgb(222,78,18)" rx="2" ry="2" />
<text  x="1137.25" y="239.5" >Sta..</text>
</g>
<g >
<title>profile_tick (2,750,992 samples, 0.01%)</title><rect x="1004.1" y="149" width="0.1" height="15.0" fill="rgb(227,102,24)" rx="2" ry="2" />
<text  x="1007.05" y="159.5" ></text>
</g>
<g >
<title>LockBuffer (8,250,246 samples, 0.03%)</title><rect x="1128.8" y="245" width="0.3" height="15.0" fill="rgb(235,142,34)" rx="2" ry="2" />
<text  x="1131.76" y="255.5" ></text>
</g>
<g >
<title>x86_pmu_disable (2,750,685 samples, 0.01%)</title><rect x="1112.1" y="69" width="0.1" height="15.0" fill="rgb(239,160,38)" rx="2" ry="2" />
<text  x="1115.10" y="79.5" ></text>
</g>
<g >
<title>tts_buffer_heap_getsomeattrs (1,092,022,550 samples, 3.92%)</title><rect x="1021.1" y="261" width="46.3" height="15.0" fill="rgb(222,81,19)" rx="2" ry="2" />
<text  x="1024.10" y="271.5" >tts_..</text>
</g>
<g >
<title>exec_simple_query (27,822,351,742 samples, 99.99%)</title><rect x="10.1" y="373" width="1179.9" height="15.0" fill="rgb(211,29,6)" rx="2" ry="2" />
<text  x="13.12" y="383.5" >exec_simple_query</text>
</g>
<g >
<title>ExecInitNode (2,750,696 samples, 0.01%)</title><rect x="1189.9" y="325" width="0.1" height="15.0" fill="rgb(221,75,18)" rx="2" ry="2" />
<text  x="1192.88" y="335.5" ></text>
</g>
<g >
<title>tick_sched_timer (8,252,353 samples, 0.03%)</title><rect x="1004.1" y="165" width="0.3" height="15.0" fill="rgb(254,227,54)" rx="2" ry="2" />
<text  x="1007.05" y="175.5" ></text>
</g>
<g >
<title>[postgres] (27,822,351,742 samples, 99.99%)</title><rect x="10.1" y="405" width="1179.9" height="15.0" fill="rgb(245,184,44)" rx="2" ry="2" />
<text  x="13.12" y="415.5" >[postgres]</text>
</g>
<g >
<title>hrtimer_update_next_event (2,751,027 samples, 0.01%)</title><rect x="86.5" y="213" width="0.1" height="15.0" fill="rgb(225,92,22)" rx="2" ry="2" />
<text  x="89.53" y="223.5" ></text>
</g>
<g >
<title>calc_global_load_tick (2,750,822 samples, 0.01%)</title><rect x="1080.0" y="149" width="0.1" height="15.0" fill="rgb(236,142,34)" rx="2" ry="2" />
<text  x="1082.97" y="159.5" ></text>
</g>
<g >
<title>update_process_times (11,002,225 samples, 0.04%)</title><rect x="472.2" y="133" width="0.5" height="15.0" fill="rgb(250,209,50)" rx="2" ry="2" />
<text  x="475.24" y="143.5" ></text>
</g>
<g >
<title>LWLockAttemptLock (13,751,519 samples, 0.05%)</title><rect x="1132.0" y="229" width="0.6" height="15.0" fill="rgb(235,138,33)" rx="2" ry="2" />
<text  x="1135.03" y="239.5" ></text>
</g>
<g >
<title>perf_adjust_freq_unthr_context (2,749,925 samples, 0.01%)</title><rect x="472.5" y="85" width="0.1" height="15.0" fill="rgb(236,146,35)" rx="2" ry="2" />
<text  x="475.47" y="95.5" ></text>
</g>
<g >
<title>PortalStart (2,750,696 samples, 0.01%)</title><rect x="1189.9" y="357" width="0.1" height="15.0" fill="rgb(221,77,18)" rx="2" ry="2" />
<text  x="1192.88" y="367.5" ></text>
</g>
<g >
<title>MemoryContextReset (57,758,258 samples, 0.21%)</title><rect x="1186.3" y="309" width="2.4" height="15.0" fill="rgb(210,26,6)" rx="2" ry="2" />
<text  x="1189.27" y="319.5" ></text>
</g>
<g >
<title>GetPrivateRefCountEntry (5,501,355 samples, 0.02%)</title><rect x="1157.8" y="213" width="0.2" height="15.0" fill="rgb(250,209,50)" rx="2" ry="2" />
<text  x="1160.81" y="223.5" ></text>
</g>
<g >
<title>asm_sysvec_apic_timer_interrupt (2,750,685 samples, 0.01%)</title><rect x="1112.1" y="245" width="0.1" height="15.0" fill="rgb(232,127,30)" rx="2" ry="2" />
<text  x="1115.10" y="255.5" ></text>
</g>
<g >
<title>__hrtimer_run_queues (2,737,351 samples, 0.01%)</title><rect x="1157.7" y="117" width="0.1" height="15.0" fill="rgb(237,150,35)" rx="2" ry="2" />
<text  x="1160.69" y="127.5" ></text>
</g>
<g >
<title>find_busiest_group (2,750,863 samples, 0.01%)</title><rect x="472.8" y="133" width="0.1" height="15.0" fill="rgb(239,158,37)" rx="2" ry="2" />
<text  x="475.82" y="143.5" ></text>
</g>
<g >
<title>asm_sysvec_apic_timer_interrupt (2,750,550 samples, 0.01%)</title><rect x="10.0" y="437" width="0.1" height="15.0" fill="rgb(232,127,30)" rx="2" ry="2" />
<text  x="13.00" y="447.5" ></text>
</g>
<g >
<title>tick_sched_handle (2,750,822 samples, 0.01%)</title><rect x="1080.0" y="181" width="0.1" height="15.0" fill="rgb(219,68,16)" rx="2" ry="2" />
<text  x="1082.97" y="191.5" ></text>
</g>
<g >
<title>native_write_msr (2,750,685 samples, 0.01%)</title><rect x="1112.1" y="37" width="0.1" height="15.0" fill="rgb(237,151,36)" rx="2" ry="2" />
<text  x="1115.10" y="47.5" ></text>
</g>
<g >
<title>sysvec_apic_timer_interrupt (16,504,888 samples, 0.06%)</title><rect x="472.2" y="229" width="0.7" height="15.0" fill="rgb(220,69,16)" rx="2" ry="2" />
<text  x="475.24" y="239.5" ></text>
</g>
<g >
<title>perf_adjust_freq_unthr_context (2,750,685 samples, 0.01%)</title><rect x="1112.1" y="85" width="0.1" height="15.0" fill="rgb(236,146,35)" rx="2" ry="2" />
<text  x="1115.10" y="95.5" ></text>
</g>
<g >
<title>scheduler_tick (11,002,225 samples, 0.04%)</title><rect x="472.2" y="117" width="0.5" height="15.0" fill="rgb(246,190,45)" rx="2" ry="2" />
<text  x="475.24" y="127.5" ></text>
</g>
<g >
<title>pg_utf_mblen_private (12,535,075,198 samples, 45.05%)</title><rect x="472.9" y="261" width="531.6" height="15.0" fill="rgb(242,173,41)" rx="2" ry="2" />
<text  x="475.94" y="271.5" >pg_utf_mblen_private</text>
</g>
<g >
<title>tick_sched_timer (13,751,840 samples, 0.05%)</title><rect x="472.2" y="165" width="0.6" height="15.0" fill="rgb(254,227,54)" rx="2" ry="2" />
<text  x="475.24" y="175.5" ></text>
</g>
<g >
<title>__hrtimer_run_queues (13,751,840 samples, 0.05%)</title><rect x="472.2" y="181" width="0.6" height="15.0" fill="rgb(237,150,35)" rx="2" ry="2" />
<text  x="475.24" y="191.5" ></text>
</g>
<g >
<title>GetPrivateRefCountEntry (5,500,467 samples, 0.02%)</title><rect x="1111.9" y="229" width="0.2" height="15.0" fill="rgb(250,209,50)" rx="2" ry="2" />
<text  x="1114.86" y="239.5" ></text>
</g>
<g >
<title>tick_sched_timer (2,750,822 samples, 0.01%)</title><rect x="1080.0" y="197" width="0.1" height="15.0" fill="rgb(254,227,54)" rx="2" ry="2" />
<text  x="1082.97" y="207.5" ></text>
</g>
<g >
<title>hrtimer_interrupt (2,737,351 samples, 0.01%)</title><rect x="1157.7" y="133" width="0.1" height="15.0" fill="rgb(228,109,26)" rx="2" ry="2" />
<text  x="1160.69" y="143.5" ></text>
</g>
<g >
<title>amd_pmu_disable_all (2,750,685 samples, 0.01%)</title><rect x="1112.1" y="53" width="0.1" height="15.0" fill="rgb(213,38,9)" rx="2" ry="2" />
<text  x="1115.10" y="63.5" ></text>
</g>
<g >
<title>ExecStoreBufferHeapTuple (295,604,350 samples, 1.06%)</title><rect x="1099.7" y="261" width="12.5" height="15.0" fill="rgb(230,117,28)" rx="2" ry="2" />
<text  x="1102.68" y="271.5" ></text>
</g>
<g >
<title>heap_getnextslot (1,934,528,473 samples, 6.95%)</title><rect x="1090.0" y="277" width="82.0" height="15.0" fill="rgb(213,40,9)" rx="2" ry="2" />
<text  x="1093.00" y="287.5" >heap_getn..</text>
</g>
<g >
<title>__hrtimer_run_queues (11,002,983 samples, 0.04%)</title><rect x="1003.9" y="181" width="0.5" height="15.0" fill="rgb(237,150,35)" rx="2" ry="2" />
<text  x="1006.94" y="191.5" ></text>
</g>
<g >
<title>UnpinBufferNoOwner (38,502,417 samples, 0.14%)</title><rect x="1110.5" y="245" width="1.6" height="15.0" fill="rgb(253,221,53)" rx="2" ry="2" />
<text  x="1113.46" y="255.5" ></text>
</g>
<g >
<title>LWLockRelease (24,746,262 samples, 0.09%)</title><rect x="1127.7" y="245" width="1.1" height="15.0" fill="rgb(217,58,13)" rx="2" ry="2" />
<text  x="1130.71" y="255.5" ></text>
</g>
<g >
<title>hrtimer_interrupt (2,750,822 samples, 0.01%)</title><rect x="1080.0" y="229" width="0.1" height="15.0" fill="rgb(228,109,26)" rx="2" ry="2" />
<text  x="1082.97" y="239.5" ></text>
</g>
<g >
<title>heap_scan_stream_read_next_serial (2,750,775 samples, 0.01%)</title><rect x="1171.6" y="229" width="0.1" height="15.0" fill="rgb(205,4,0)" rx="2" ry="2" />
<text  x="1174.57" y="239.5" ></text>
</g>
<g >
<title>PortalRun (27,819,601,046 samples, 99.98%)</title><rect x="10.1" y="357" width="1179.8" height="15.0" fill="rgb(223,85,20)" rx="2" ry="2" />
<text  x="13.12" y="367.5" >PortalRun</text>
</g>
<g >
<title>ReleaseBuffer (8,251,581 samples, 0.03%)</title><rect x="1112.3" y="261" width="0.4" height="15.0" fill="rgb(220,71,17)" rx="2" ry="2" />
<text  x="1115.33" y="271.5" ></text>
</g>
<g >
<title>update_process_times (2,750,822 samples, 0.01%)</title><rect x="1080.0" y="165" width="0.1" height="15.0" fill="rgb(250,209,50)" rx="2" ry="2" />
<text  x="1082.97" y="175.5" ></text>
</g>
<g >
<title>asm_sysvec_apic_timer_interrupt (2,737,351 samples, 0.01%)</title><rect x="1157.7" y="181" width="0.1" height="15.0" fill="rgb(232,127,30)" rx="2" ry="2" />
<text  x="1160.69" y="191.5" ></text>
</g>
<g >
<title>ReleaseBuffer (11,001,991 samples, 0.04%)</title><rect x="1110.0" y="245" width="0.5" height="15.0" fill="rgb(220,71,17)" rx="2" ry="2" />
<text  x="1113.00" y="255.5" ></text>
</g>
<g >
<title>asm_sysvec_apic_timer_interrupt (19,255,081 samples, 0.07%)</title><rect x="472.1" y="245" width="0.8" height="15.0" fill="rgb(232,127,30)" rx="2" ry="2" />
<text  x="475.12" y="255.5" ></text>
</g>
<g >
<title>run_rebalance_domains (2,750,863 samples, 0.01%)</title><rect x="472.8" y="181" width="0.1" height="15.0" fill="rgb(232,126,30)" rx="2" ry="2" />
<text  x="475.82" y="191.5" ></text>
</g>
<g >
<title>[unknown] (2,750,550 samples, 0.01%)</title><rect x="10.0" y="485" width="0.1" height="15.0" fill="rgb(210,24,5)" rx="2" ry="2" />
<text  x="13.00" y="495.5" ></text>
</g>
<g >
<title>[unknown] (2,750,550 samples, 0.01%)</title><rect x="10.0" y="469" width="0.1" height="15.0" fill="rgb(210,24,5)" rx="2" ry="2" />
<text  x="13.00" y="479.5" ></text>
</g>
<g >
<title>main (27,822,351,742 samples, 99.99%)</title><rect x="10.1" y="469" width="1179.9" height="15.0" fill="rgb(243,179,42)" rx="2" ry="2" />
<text  x="13.12" y="479.5" >main</text>
</g>
<g >
<title>__hrtimer_run_queues (2,750,685 samples, 0.01%)</title><rect x="1112.1" y="181" width="0.1" height="15.0" fill="rgb(237,150,35)" rx="2" ry="2" />
<text  x="1115.10" y="191.5" ></text>
</g>
<g >
<title>hrtimer_interrupt (2,750,685 samples, 0.01%)</title><rect x="1112.1" y="197" width="0.1" height="15.0" fill="rgb(228,109,26)" rx="2" ry="2" />
<text  x="1115.10" y="207.5" ></text>
</g>
<g >
<title>hash_search_with_hash_value (308,032,371 samples, 1.11%)</title><rect x="1144.7" y="197" width="13.1" height="15.0" fill="rgb(249,205,49)" rx="2" ry="2" />
<text  x="1147.74" y="207.5" ></text>
</g>
<g >
<title>GetPrivateRefCountEntry (8,251,628 samples, 0.03%)</title><rect x="1130.0" y="229" width="0.4" height="15.0" fill="rgb(250,209,50)" rx="2" ry="2" />
<text  x="1133.05" y="239.5" ></text>
</g>
<g >
<title>arch_scale_freq_tick (2,750,795 samples, 0.01%)</title><rect x="472.2" y="101" width="0.2" height="15.0" fill="rgb(252,219,52)" rx="2" ry="2" />
<text  x="475.24" y="111.5" ></text>
</g>
<g >
<title>all (27,825,102,292 samples, 100%)</title><rect x="10.0" y="517" width="1180.0" height="15.0" fill="rgb(213,39,9)" rx="2" ry="2" />
<text  x="13.00" y="527.5" ></text>
</g>
<g >
<title>LWLockAttemptLock (88,012,004 samples, 0.32%)</title><rect x="1158.6" y="213" width="3.8" height="15.0" fill="rgb(235,138,33)" rx="2" ry="2" />
<text  x="1161.62" y="223.5" ></text>
</g>
<g >
<title>task_tick_fair (2,750,770 samples, 0.01%)</title><rect x="1004.3" y="101" width="0.1" height="15.0" fill="rgb(217,57,13)" rx="2" ry="2" />
<text  x="1007.29" y="111.5" ></text>
</g>
<g >
<title>standard_ExecutorStart (2,750,696 samples, 0.01%)</title><rect x="1189.9" y="341" width="0.1" height="15.0" fill="rgb(245,188,45)" rx="2" ry="2" />
<text  x="1192.88" y="351.5" ></text>
</g>
<g >
<title>x86_pmu_enable_all (2,749,925 samples, 0.01%)</title><rect x="472.5" y="53" width="0.1" height="15.0" fill="rgb(208,16,3)" rx="2" ry="2" />
<text  x="475.47" y="63.5" ></text>
</g>
<g >
<title>pg_mbstrlen_with_len (11,002,137 samples, 0.04%)</title><rect x="1007.6" y="277" width="0.4" height="15.0" fill="rgb(228,106,25)" rx="2" ry="2" />
<text  x="1010.55" y="287.5" ></text>
</g>
<g >
<title>heap_scan_stream_read_next_serial (5,500,974 samples, 0.02%)</title><rect x="1132.8" y="245" width="0.3" height="15.0" fill="rgb(205,4,0)" rx="2" ry="2" />
<text  x="1135.85" y="255.5" ></text>
</g>
<g >
<title>__libc_start_call_main (27,822,351,742 samples, 99.99%)</title><rect x="10.1" y="485" width="1179.9" height="15.0" fill="rgb(210,26,6)" rx="2" ry="2" />
<text  x="13.12" y="495.5" >__libc_start_call_main</text>
</g>
<g >
<title>heap_prepare_pagescan (57,757,832 samples, 0.21%)</title><rect x="1130.4" y="245" width="2.4" height="15.0" fill="rgb(222,82,19)" rx="2" ry="2" />
<text  x="1133.40" y="255.5" ></text>
</g>
<g >
<title>standard_ExecutorRun (27,819,601,046 samples, 99.98%)</title><rect x="10.1" y="325" width="1179.8" height="15.0" fill="rgb(247,196,47)" rx="2" ry="2" />
<text  x="13.12" y="335.5" >standard_ExecutorRun</text>
</g>
<g >
<title>bpcharlen (21,643,978,421 samples, 77.79%)</title><rect x="86.6" y="277" width="917.9" height="15.0" fill="rgb(221,77,18)" rx="2" ry="2" />
<text  x="89.65" y="287.5" >bpcharlen</text>
</g>
<g >
<title>ResourceOwnerForget (11,001,991 samples, 0.04%)</title><rect x="1110.0" y="229" width="0.5" height="15.0" fill="rgb(235,142,33)" rx="2" ry="2" />
<text  x="1113.00" y="239.5" ></text>
</g>
<g >
<title>bpcharlen (44,008,832 samples, 0.16%)</title><rect x="1172.0" y="293" width="1.9" height="15.0" fill="rgb(221,77,18)" rx="2" ry="2" />
<text  x="1175.04" y="303.5" ></text>
</g>
<g >
<title>x86_pmu_disable (2,750,684 samples, 0.01%)</title><rect x="472.6" y="85" width="0.1" height="15.0" fill="rgb(239,160,38)" rx="2" ry="2" />
<text  x="475.59" y="95.5" ></text>
</g>
<g >
<title>slot_getsomeattrs_int (1,400,570,027 samples, 5.03%)</title><rect x="1008.0" y="277" width="59.4" height="15.0" fill="rgb(252,219,52)" rx="2" ry="2" />
<text  x="1011.02" y="287.5" >slot_g..</text>
</g>
<g >
<title>PostgresMain (27,822,351,742 samples, 99.99%)</title><rect x="10.1" y="389" width="1179.9" height="15.0" fill="rgb(227,103,24)" rx="2" ry="2" />
<text  x="13.12" y="399.5" >PostgresMain</text>
</g>
<g >
<title>__memcmp_evex_movbe (5,501,323 samples, 0.02%)</title><rect x="1144.5" y="197" width="0.2" height="15.0" fill="rgb(219,67,16)" rx="2" ry="2" />
<text  x="1147.51" y="207.5" ></text>
</g>
<g >
<title>pg_database_encoding_max_length (55,009,274 samples, 0.20%)</title><rect x="1004.5" y="277" width="2.4" height="15.0" fill="rgb(243,176,42)" rx="2" ry="2" />
<text  x="1007.52" y="287.5" ></text>
</g>
<g >
<title>IncrBufferRefCount (2,750,448 samples, 0.01%)</title><rect x="1112.2" y="261" width="0.1" height="15.0" fill="rgb(209,22,5)" rx="2" ry="2" />
<text  x="1115.21" y="271.5" ></text>
</g>
<g >
<title>update_process_times (2,750,685 samples, 0.01%)</title><rect x="1112.1" y="133" width="0.1" height="15.0" fill="rgb(250,209,50)" rx="2" ry="2" />
<text  x="1115.10" y="143.5" ></text>
</g>
<g >
<title>IncrBufferRefCount (21,999,214 samples, 0.08%)</title><rect x="1109.1" y="245" width="0.9" height="15.0" fill="rgb(209,22,5)" rx="2" ry="2" />
<text  x="1112.06" y="255.5" ></text>
</g>
<g >
<title>heapgettup_pagemode (1,399,667,349 samples, 5.03%)</title><rect x="1112.7" y="261" width="59.3" height="15.0" fill="rgb(242,170,40)" rx="2" ry="2" />
<text  x="1115.68" y="271.5" >heapge..</text>
</g>
<g >
<title>tts_buffer_heap_getsomeattrs (199,737,772 samples, 0.72%)</title><rect x="1067.4" y="277" width="8.5" height="15.0" fill="rgb(222,81,19)" rx="2" ry="2" />
<text  x="1070.41" y="287.5" ></text>
</g>
<g >
<title>ExecInitQual (2,750,696 samples, 0.01%)</title><rect x="1189.9" y="309" width="0.1" height="15.0" fill="rgb(237,149,35)" rx="2" ry="2" />
<text  x="1192.88" y="319.5" ></text>
</g>
<g >
<title>update_load_avg (2,750,770 samples, 0.01%)</title><rect x="1004.3" y="85" width="0.1" height="15.0" fill="rgb(240,165,39)" rx="2" ry="2" />
<text  x="1007.29" y="95.5" ></text>
</g>
<g >
<title>int4lt (123,767,939 samples, 0.44%)</title><rect x="1180.7" y="293" width="5.2" height="15.0" fill="rgb(242,172,41)" rx="2" ry="2" />
<text  x="1183.67" y="303.5" ></text>
</g>
<g >
<title>tick_sched_handle (11,002,225 samples, 0.04%)</title><rect x="472.2" y="149" width="0.5" height="15.0" fill="rgb(219,68,16)" rx="2" ry="2" />
<text  x="475.24" y="159.5" ></text>
</g>
<g >
<title>pg_mbstrlen_with_len (8,682,834,685 samples, 31.21%)</title><rect x="104.7" y="261" width="368.2" height="15.0" fill="rgb(228,106,25)" rx="2" ry="2" />
<text  x="107.72" y="271.5" >pg_mbstrlen_with_len</text>
</g>
</g>
</svg>
