<?xml version="1.0" standalone="no"?>
<!DOCTYPE svg PUBLIC "-//W3C//DTD SVG 1.1//EN" "http://www.w3.org/Graphics/SVG/1.1/DTD/svg11.dtd">
<svg version="1.1" width="1200" height="582" onload="init(evt)" viewBox="0 0 1200 582" xmlns="http://www.w3.org/2000/svg" xmlns:xlink="http://www.w3.org/1999/xlink">
<!-- Flame graph stack visualization. See https://github.com/brendangregg/FlameGraph for latest version, and http://www.brendangregg.com/flamegraphs.html for examples. -->
<!-- NOTES:  -->
<defs>
	<linearGradient id="background" y1="0" y2="1" x1="0" x2="0" >
		<stop stop-color="#eeeeee" offset="5%" />
		<stop stop-color="#eeeeb0" offset="95%" />
	</linearGradient>
</defs>
<style type="text/css">
	text { font-family:Verdana; font-size:12px; fill:rgb(0,0,0); }
	#search, #ignorecase { opacity:0.1; cursor:pointer; }
	#search:hover, #search.show, #ignorecase:hover, #ignorecase.show { opacity:1; }
	#subtitle { text-anchor:middle; font-color:rgb(160,160,160); }
	#title { text-anchor:middle; font-size:17px}
	#unzoom { cursor:pointer; }
	#frames > *:hover { stroke:black; stroke-width:0.5; cursor:pointer; }
	.hide { display:none; }
	.parent { opacity:0.5; }
</style>
<script type="text/ecmascript">
<![CDATA[
	"use strict";
	var details, searchbtn, unzoombtn, matchedtxt, svg, searching, currentSearchTerm, ignorecase, ignorecaseBtn;
	function init(evt) {
		details = document.getElementById("details").firstChild;
		searchbtn = document.getElementById("search");
		ignorecaseBtn = document.getElementById("ignorecase");
		unzoombtn = document.getElementById("unzoom");
		matchedtxt = document.getElementById("matched");
		svg = document.getElementsByTagName("svg")[0];
		searching = 0;
		currentSearchTerm = null;

		// use GET parameters to restore a flamegraphs state.
		var params = get_params();
		if (params.x && params.y)
			zoom(find_group(document.querySelector('[x="' + params.x + '"][y="' + params.y + '"]')));
                if (params.s) search(params.s);
	}

	// event listeners
	window.addEventListener("click", function(e) {
		var target = find_group(e.target);
		if (target) {
			if (target.nodeName == "a") {
				if (e.ctrlKey === false) return;
				e.preventDefault();
			}
			if (target.classList.contains("parent")) unzoom(true);
			zoom(target);
			if (!document.querySelector('.parent')) {
				// we have basically done a clearzoom so clear the url
				var params = get_params();
				if (params.x) delete params.x;
				if (params.y) delete params.y;
				history.replaceState(null, null, parse_params(params));
				unzoombtn.classList.add("hide");
				return;
			}

			// set parameters for zoom state
			var el = target.querySelector("rect");
			if (el && el.attributes && el.attributes.y && el.attributes._orig_x) {
				var params = get_params()
				params.x = el.attributes._orig_x.value;
				params.y = el.attributes.y.value;
				history.replaceState(null, null, parse_params(params));
			}
		}
		else if (e.target.id == "unzoom") clearzoom();
		else if (e.target.id == "search") search_prompt();
		else if (e.target.id == "ignorecase") toggle_ignorecase();
	}, false)

	// mouse-over for info
	// show
	window.addEventListener("mouseover", function(e) {
		var target = find_group(e.target);
		if (target) details.nodeValue = "Function: " + g_to_text(target);
	}, false)

	// clear
	window.addEventListener("mouseout", function(e) {
		var target = find_group(e.target);
		if (target) details.nodeValue = ' ';
	}, false)

	// ctrl-F for search
	// ctrl-I to toggle case-sensitive search
	window.addEventListener("keydown",function (e) {
		if (e.keyCode === 114 || (e.ctrlKey && e.keyCode === 70)) {
			e.preventDefault();
			search_prompt();
		}
		else if (e.ctrlKey && e.keyCode === 73) {
			e.preventDefault();
			toggle_ignorecase();
		}
	}, false)

	// functions
	function get_params() {
		var params = {};
		var paramsarr = window.location.search.substr(1).split('&');
		for (var i = 0; i < paramsarr.length; ++i) {
			var tmp = paramsarr[i].split("=");
			if (!tmp[0] || !tmp[1]) continue;
			params[tmp[0]]  = decodeURIComponent(tmp[1]);
		}
		return params;
	}
	function parse_params(params) {
		var uri = "?";
		for (var key in params) {
			uri += key + '=' + encodeURIComponent(params[key]) + '&';
		}
		if (uri.slice(-1) == "&")
			uri = uri.substring(0, uri.length - 1);
		if (uri == '?')
			uri = window.location.href.split('?')[0];
		return uri;
	}
	function find_child(node, selector) {
		var children = node.querySelectorAll(selector);
		if (children.length) return children[0];
	}
	function find_group(node) {
		var parent = node.parentElement;
		if (!parent) return;
		if (parent.id == "frames") return node;
		return find_group(parent);
	}
	function orig_save(e, attr, val) {
		if (e.attributes["_orig_" + attr] != undefined) return;
		if (e.attributes[attr] == undefined) return;
		if (val == undefined) val = e.attributes[attr].value;
		e.setAttribute("_orig_" + attr, val);
	}
	function orig_load(e, attr) {
		if (e.attributes["_orig_"+attr] == undefined) return;
		e.attributes[attr].value = e.attributes["_orig_" + attr].value;
		e.removeAttribute("_orig_"+attr);
	}
	function g_to_text(e) {
		var text = find_child(e, "title").firstChild.nodeValue;
		return (text)
	}
	function g_to_func(e) {
		var func = g_to_text(e);
		// if there's any manipulation we want to do to the function
		// name before it's searched, do it here before returning.
		return (func);
	}
	function update_text(e) {
		var r = find_child(e, "rect");
		var t = find_child(e, "text");
		var w = parseFloat(r.attributes.width.value) -3;
		var txt = find_child(e, "title").textContent.replace(/\([^(]*\)$/,"");
		t.attributes.x.value = parseFloat(r.attributes.x.value) + 3;

		// Smaller than this size won't fit anything
		if (w < 2 * 12 * 0.59) {
			t.textContent = "";
			return;
		}

		t.textContent = txt;
		var sl = t.getSubStringLength(0, txt.length);
		// check if only whitespace or if we can fit the entire string into width w
		if (/^ *$/.test(txt) || sl < w)
			return;

		// this isn't perfect, but gives a good starting point
		// and avoids calling getSubStringLength too often
		var start = Math.floor((w/sl) * txt.length);
		for (var x = start; x > 0; x = x-2) {
			if (t.getSubStringLength(0, x + 2) <= w) {
				t.textContent = txt.substring(0, x) + "..";
				return;
			}
		}
		t.textContent = "";
	}

	// zoom
	function zoom_reset(e) {
		if (e.attributes != undefined) {
			orig_load(e, "x");
			orig_load(e, "width");
		}
		if (e.childNodes == undefined) return;
		for (var i = 0, c = e.childNodes; i < c.length; i++) {
			zoom_reset(c[i]);
		}
	}
	function zoom_child(e, x, ratio) {
		if (e.attributes != undefined) {
			if (e.attributes.x != undefined) {
				orig_save(e, "x");
				e.attributes.x.value = (parseFloat(e.attributes.x.value) - x - 10) * ratio + 10;
				if (e.tagName == "text")
					e.attributes.x.value = find_child(e.parentNode, "rect[x]").attributes.x.value + 3;
			}
			if (e.attributes.width != undefined) {
				orig_save(e, "width");
				e.attributes.width.value = parseFloat(e.attributes.width.value) * ratio;
			}
		}

		if (e.childNodes == undefined) return;
		for (var i = 0, c = e.childNodes; i < c.length; i++) {
			zoom_child(c[i], x - 10, ratio);
		}
	}
	function zoom_parent(e) {
		if (e.attributes) {
			if (e.attributes.x != undefined) {
				orig_save(e, "x");
				e.attributes.x.value = 10;
			}
			if (e.attributes.width != undefined) {
				orig_save(e, "width");
				e.attributes.width.value = parseInt(svg.width.baseVal.value) - (10 * 2);
			}
		}
		if (e.childNodes == undefined) return;
		for (var i = 0, c = e.childNodes; i < c.length; i++) {
			zoom_parent(c[i]);
		}
	}
	function zoom(node) {
		var attr = find_child(node, "rect").attributes;
		var width = parseFloat(attr.width.value);
		var xmin = parseFloat(attr.x.value);
		var xmax = parseFloat(xmin + width);
		var ymin = parseFloat(attr.y.value);
		var ratio = (svg.width.baseVal.value - 2 * 10) / width;

		// XXX: Workaround for JavaScript float issues (fix me)
		var fudge = 0.0001;

		unzoombtn.classList.remove("hide");

		var el = document.getElementById("frames").children;
		for (var i = 0; i < el.length; i++) {
			var e = el[i];
			var a = find_child(e, "rect").attributes;
			var ex = parseFloat(a.x.value);
			var ew = parseFloat(a.width.value);
			var upstack;
			// Is it an ancestor
			if (0 == 0) {
				upstack = parseFloat(a.y.value) > ymin;
			} else {
				upstack = parseFloat(a.y.value) < ymin;
			}
			if (upstack) {
				// Direct ancestor
				if (ex <= xmin && (ex+ew+fudge) >= xmax) {
					e.classList.add("parent");
					zoom_parent(e);
					update_text(e);
				}
				// not in current path
				else
					e.classList.add("hide");
			}
			// Children maybe
			else {
				// no common path
				if (ex < xmin || ex + fudge >= xmax) {
					e.classList.add("hide");
				}
				else {
					zoom_child(e, xmin, ratio);
					update_text(e);
				}
			}
		}
		search();
	}
	function unzoom(dont_update_text) {
		unzoombtn.classList.add("hide");
		var el = document.getElementById("frames").children;
		for(var i = 0; i < el.length; i++) {
			el[i].classList.remove("parent");
			el[i].classList.remove("hide");
			zoom_reset(el[i]);
			if(!dont_update_text) update_text(el[i]);
		}
		search();
	}
	function clearzoom() {
		unzoom();

		// remove zoom state
		var params = get_params();
		if (params.x) delete params.x;
		if (params.y) delete params.y;
		history.replaceState(null, null, parse_params(params));
	}

	// search
	function toggle_ignorecase() {
		ignorecase = !ignorecase;
		if (ignorecase) {
			ignorecaseBtn.classList.add("show");
		} else {
			ignorecaseBtn.classList.remove("show");
		}
		reset_search();
		search();
	}
	function reset_search() {
		var el = document.querySelectorAll("#frames rect");
		for (var i = 0; i < el.length; i++) {
			orig_load(el[i], "fill")
		}
		var params = get_params();
		delete params.s;
		history.replaceState(null, null, parse_params(params));
	}
	function search_prompt() {
		if (!searching) {
			var term = prompt("Enter a search term (regexp " +
			    "allowed, eg: ^ext4_)"
			    + (ignorecase ? ", ignoring case" : "")
			    + "\nPress Ctrl-i to toggle case sensitivity", "");
			if (term != null) search(term);
		} else {
			reset_search();
			searching = 0;
			currentSearchTerm = null;
			searchbtn.classList.remove("show");
			searchbtn.firstChild.nodeValue = "Search"
			matchedtxt.classList.add("hide");
			matchedtxt.firstChild.nodeValue = ""
		}
	}
	function search(term) {
		if (term) currentSearchTerm = term;

		var re = new RegExp(currentSearchTerm, ignorecase ? 'i' : '');
		var el = document.getElementById("frames").children;
		var matches = new Object();
		var maxwidth = 0;
		for (var i = 0; i < el.length; i++) {
			var e = el[i];
			var func = g_to_func(e);
			var rect = find_child(e, "rect");
			if (func == null || rect == null)
				continue;

			// Save max width. Only works as we have a root frame
			var w = parseFloat(rect.attributes.width.value);
			if (w > maxwidth)
				maxwidth = w;

			if (func.match(re)) {
				// highlight
				var x = parseFloat(rect.attributes.x.value);
				orig_save(rect, "fill");
				rect.attributes.fill.value = "rgb(230,0,230)";

				// remember matches
				if (matches[x] == undefined) {
					matches[x] = w;
				} else {
					if (w > matches[x]) {
						// overwrite with parent
						matches[x] = w;
					}
				}
				searching = 1;
			}
		}
		if (!searching)
			return;
		var params = get_params();
		params.s = currentSearchTerm;
		history.replaceState(null, null, parse_params(params));

		searchbtn.classList.add("show");
		searchbtn.firstChild.nodeValue = "Reset Search";

		// calculate percent matched, excluding vertical overlap
		var count = 0;
		var lastx = -1;
		var lastw = 0;
		var keys = Array();
		for (k in matches) {
			if (matches.hasOwnProperty(k))
				keys.push(k);
		}
		// sort the matched frames by their x location
		// ascending, then width descending
		keys.sort(function(a, b){
			return a - b;
		});
		// Step through frames saving only the biggest bottom-up frames
		// thanks to the sort order. This relies on the tree property
		// where children are always smaller than their parents.
		var fudge = 0.0001;	// JavaScript floating point
		for (var k in keys) {
			var x = parseFloat(keys[k]);
			var w = matches[keys[k]];
			if (x >= lastx + lastw - fudge) {
				count += w;
				lastx = x;
				lastw = w;
			}
		}
		// display matched percent
		matchedtxt.classList.remove("hide");
		var pct = 100 * count / maxwidth;
		if (pct != 100) pct = pct.toFixed(1)
		matchedtxt.firstChild.nodeValue = "Matched: " + pct + "%";
	}
]]>
</script>
<rect x="0.0" y="0" width="1200.0" height="582.0" fill="url(#background)"  />
<text id="title" x="600.00" y="24" >Flame Graph</text>
<text id="details" x="10.00" y="565" > </text>
<text id="unzoom" x="10.00" y="24" class="hide">Reset Zoom</text>
<text id="search" x="1090.00" y="24" >Search</text>
<text id="ignorecase" x="1174.00" y="24" >ic</text>
<text id="matched" x="1090.00" y="565" > </text>
<g id="frames">
<g >
<title>hrtimer_interrupt (2,750,452 samples, 0.01%)</title><rect x="1044.5" y="213" width="0.1" height="15.0" fill="rgb(228,109,26)" rx="2" ry="2" />
<text  x="1047.48" y="223.5" ></text>
</g>
<g >
<title>native_read_msr (2,749,638 samples, 0.01%)</title><rect x="983.6" y="101" width="0.1" height="15.0" fill="rgb(211,30,7)" rx="2" ry="2" />
<text  x="986.61" y="111.5" ></text>
</g>
<g >
<title>[unknown] (2,750,094 samples, 0.01%)</title><rect x="10.0" y="485" width="0.1" height="15.0" fill="rgb(210,24,5)" rx="2" ry="2" />
<text  x="13.00" y="495.5" ></text>
</g>
<g >
<title>tts_buffer_heap_getsomeattrs (130,499,761 samples, 0.47%)</title><rect x="1044.6" y="293" width="5.6" height="15.0" fill="rgb(222,81,19)" rx="2" ry="2" />
<text  x="1047.60" y="303.5" ></text>
</g>
<g >
<title>SeqNext (2,720,087,251 samples, 9.88%)</title><rect x="1056.7" y="309" width="116.6" height="15.0" fill="rgb(214,41,10)" rx="2" ry="2" />
<text  x="1059.69" y="319.5" >SeqNext</text>
</g>
<g >
<title>expand_virtual_generated_columns (2,749,380 samples, 0.01%)</title><rect x="1189.9" y="293" width="0.1" height="15.0" fill="rgb(222,80,19)" rx="2" ry="2" />
<text  x="1192.88" y="303.5" ></text>
</g>
<g >
<title>hrtimer_interrupt (2,750,547 samples, 0.01%)</title><rect x="985.9" y="229" width="0.1" height="15.0" fill="rgb(228,109,26)" rx="2" ry="2" />
<text  x="988.85" y="239.5" ></text>
</g>
<g >
<title>sysvec_apic_timer_interrupt (13,751,234 samples, 0.05%)</title><rect x="433.9" y="245" width="0.6" height="15.0" fill="rgb(220,69,16)" rx="2" ry="2" />
<text  x="436.88" y="255.5" ></text>
</g>
<g >
<title>heap_page_prune_opt (10,999,507 samples, 0.04%)</title><rect x="1099.4" y="261" width="0.4" height="15.0" fill="rgb(211,29,7)" rx="2" ry="2" />
<text  x="1102.37" y="271.5" ></text>
</g>
<g >
<title>hrtimer_interrupt (5,500,370 samples, 0.02%)</title><rect x="1134.3" y="197" width="0.2" height="15.0" fill="rgb(228,109,26)" rx="2" ry="2" />
<text  x="1137.25" y="207.5" ></text>
</g>
<g >
<title>GetPrivateRefCountEntry (5,500,051 samples, 0.02%)</title><rect x="1076.7" y="245" width="0.3" height="15.0" fill="rgb(250,209,50)" rx="2" ry="2" />
<text  x="1079.73" y="255.5" ></text>
</g>
<g >
<title>ServerLoop (27,531,374,364 samples, 99.99%)</title><rect x="10.1" y="453" width="1179.9" height="15.0" fill="rgb(238,155,37)" rx="2" ry="2" />
<text  x="13.12" y="463.5" >ServerLoop</text>
</g>
<g >
<title>ResourceOwnerForget (2,750,491 samples, 0.01%)</title><rect x="1077.7" y="261" width="0.1" height="15.0" fill="rgb(235,142,33)" rx="2" ry="2" />
<text  x="1080.67" y="271.5" ></text>
</g>
<g >
<title>update_process_times (2,750,162 samples, 0.01%)</title><rect x="1134.3" y="133" width="0.1" height="15.0" fill="rgb(250,209,50)" rx="2" ry="2" />
<text  x="1137.25" y="143.5" ></text>
</g>
<g >
<title>scheduler_tick (5,499,908 samples, 0.02%)</title><rect x="983.5" y="133" width="0.2" height="15.0" fill="rgb(246,190,45)" rx="2" ry="2" />
<text  x="986.50" y="143.5" ></text>
</g>
<g >
<title>sync_regs (2,749,814 samples, 0.01%)</title><rect x="434.5" y="261" width="0.1" height="15.0" fill="rgb(228,106,25)" rx="2" ry="2" />
<text  x="437.47" y="271.5" ></text>
</g>
<g >
<title>heap_page_prune_opt (8,250,854 samples, 0.03%)</title><rect x="1134.6" y="245" width="0.4" height="15.0" fill="rgb(211,29,7)" rx="2" ry="2" />
<text  x="1137.61" y="255.5" ></text>
</g>
<g >
<title>IncrBufferRefCount (16,499,109 samples, 0.06%)</title><rect x="1076.5" y="261" width="0.7" height="15.0" fill="rgb(209,22,5)" rx="2" ry="2" />
<text  x="1079.49" y="271.5" ></text>
</g>
<g >
<title>sysvec_apic_timer_interrupt (2,750,452 samples, 0.01%)</title><rect x="1044.5" y="245" width="0.1" height="15.0" fill="rgb(220,69,16)" rx="2" ry="2" />
<text  x="1047.48" y="255.5" ></text>
</g>
<g >
<title>tts_buffer_heap_getsomeattrs (1,119,894,082 samples, 4.07%)</title><rect x="996.6" y="277" width="48.0" height="15.0" fill="rgb(222,81,19)" rx="2" ry="2" />
<text  x="999.60" y="287.5" >tts_..</text>
</g>
<g >
<title>relation_open (2,749,380 samples, 0.01%)</title><rect x="1189.9" y="261" width="0.1" height="15.0" fill="rgb(227,105,25)" rx="2" ry="2" />
<text  x="1192.88" y="271.5" ></text>
</g>
<g >
<title>ktime_get_update_offsets_now (2,750,014 samples, 0.01%)</title><rect x="983.7" y="197" width="0.1" height="15.0" fill="rgb(243,178,42)" rx="2" ry="2" />
<text  x="986.73" y="207.5" ></text>
</g>
<g >
<title>generic_smp_call_function_single_interrupt (2,750,287 samples, 0.01%)</title><rect x="1157.1" y="149" width="0.1" height="15.0" fill="rgb(218,61,14)" rx="2" ry="2" />
<text  x="1160.12" y="159.5" ></text>
</g>
<g >
<title>slot_getsomeattrs_int (1,365,241,200 samples, 4.96%)</title><rect x="986.1" y="293" width="58.5" height="15.0" fill="rgb(252,219,52)" rx="2" ry="2" />
<text  x="989.09" y="303.5" >slot_g..</text>
</g>
<g >
<title>ktime_get_update_offsets_now (2,750,208 samples, 0.01%)</title><rect x="1134.4" y="181" width="0.1" height="15.0" fill="rgb(243,178,42)" rx="2" ry="2" />
<text  x="1137.37" y="191.5" ></text>
</g>
<g >
<title>pg_detoast_datum_packed (2,749,961 samples, 0.01%)</title><rect x="986.0" y="293" width="0.1" height="15.0" fill="rgb(238,155,37)" rx="2" ry="2" />
<text  x="988.97" y="303.5" ></text>
</g>
<g >
<title>int4lt (112,736,860 samples, 0.41%)</title><rect x="1181.8" y="309" width="4.8" height="15.0" fill="rgb(242,172,41)" rx="2" ry="2" />
<text  x="1184.75" y="319.5" ></text>
</g>
<g >
<title>tick_sched_handle (5,499,968 samples, 0.02%)</title><rect x="434.1" y="165" width="0.3" height="15.0" fill="rgb(219,68,16)" rx="2" ry="2" />
<text  x="437.12" y="175.5" ></text>
</g>
<g >
<title>__hrtimer_run_queues (5,499,908 samples, 0.02%)</title><rect x="983.5" y="197" width="0.2" height="15.0" fill="rgb(237,150,35)" rx="2" ry="2" />
<text  x="986.50" y="207.5" ></text>
</g>
<g >
<title>sysvec_apic_timer_interrupt (5,500,370 samples, 0.02%)</title><rect x="1134.3" y="229" width="0.2" height="15.0" fill="rgb(220,69,16)" rx="2" ry="2" />
<text  x="1137.25" y="239.5" ></text>
</g>
<g >
<title>tick_program_event (2,750,547 samples, 0.01%)</title><rect x="985.9" y="213" width="0.1" height="15.0" fill="rgb(241,166,39)" rx="2" ry="2" />
<text  x="988.85" y="223.5" ></text>
</g>
<g >
<title>LWLockRelease (13,749,196 samples, 0.05%)</title><rect x="1097.0" y="261" width="0.6" height="15.0" fill="rgb(217,58,13)" rx="2" ry="2" />
<text  x="1100.01" y="271.5" ></text>
</g>
<g >
<title>SeqNext (13,749,578 samples, 0.05%)</title><rect x="1189.3" y="325" width="0.6" height="15.0" fill="rgb(214,41,10)" rx="2" ry="2" />
<text  x="1192.29" y="335.5" ></text>
</g>
<g >
<title>hash_bytes (21,987,191 samples, 0.08%)</title><rect x="1171.6" y="245" width="1.0" height="15.0" fill="rgb(227,102,24)" rx="2" ry="2" />
<text  x="1174.62" y="255.5" ></text>
</g>
<g >
<title>srso_alias_safe_ret (2,750,162 samples, 0.01%)</title><rect x="1134.3" y="37" width="0.1" height="15.0" fill="rgb(242,170,40)" rx="2" ry="2" />
<text  x="1137.25" y="47.5" ></text>
</g>
<g >
<title>error_return (2,750,221 samples, 0.01%)</title><rect x="1134.5" y="245" width="0.1" height="15.0" fill="rgb(230,115,27)" rx="2" ry="2" />
<text  x="1137.49" y="255.5" ></text>
</g>
<g >
<title>asm_sysvec_apic_timer_interrupt (13,752,853 samples, 0.05%)</title><rect x="983.4" y="261" width="0.6" height="15.0" fill="rgb(232,127,30)" rx="2" ry="2" />
<text  x="986.38" y="271.5" ></text>
</g>
<g >
<title>heap_getnextslot (2,557,799,020 samples, 9.29%)</title><rect x="1063.6" y="293" width="109.7" height="15.0" fill="rgb(213,40,9)" rx="2" ry="2" />
<text  x="1066.65" y="303.5" >heap_getnexts..</text>
</g>
<g >
<title>postgres (27,534,124,458 samples, 100.00%)</title><rect x="10.0" y="517" width="1180.0" height="15.0" fill="rgb(233,131,31)" rx="2" ry="2" />
<text  x="13.00" y="527.5" >postgres</text>
</g>
<g >
<title>MemoryContextReset (46,748,467 samples, 0.17%)</title><rect x="1187.3" y="325" width="2.0" height="15.0" fill="rgb(210,26,6)" rx="2" ry="2" />
<text  x="1190.29" y="335.5" ></text>
</g>
<g >
<title>ReleaseBuffer (2,750,768 samples, 0.01%)</title><rect x="1079.1" y="277" width="0.1" height="15.0" fill="rgb(220,71,17)" rx="2" ry="2" />
<text  x="1082.09" y="287.5" ></text>
</g>
<g >
<title>__memcmp_evex_movbe (2,750,601 samples, 0.01%)</title><rect x="1142.4" y="213" width="0.1" height="15.0" fill="rgb(219,67,16)" rx="2" ry="2" />
<text  x="1145.39" y="223.5" ></text>
</g>
<g >
<title>flush_tlb_func (2,750,287 samples, 0.01%)</title><rect x="1157.1" y="117" width="0.1" height="15.0" fill="rgb(214,42,10)" rx="2" ry="2" />
<text  x="1160.12" y="127.5" ></text>
</g>
<g >
<title>PortalRunSelect (27,528,624,984 samples, 99.98%)</title><rect x="10.1" y="357" width="1179.8" height="15.0" fill="rgb(245,188,45)" rx="2" ry="2" />
<text  x="13.12" y="367.5" >PortalRunSelect</text>
</g>
<g >
<title>clockevents_program_event (2,750,452 samples, 0.01%)</title><rect x="1044.5" y="181" width="0.1" height="15.0" fill="rgb(244,182,43)" rx="2" ry="2" />
<text  x="1047.48" y="191.5" ></text>
</g>
<g >
<title>[unknown] (2,750,094 samples, 0.01%)</title><rect x="10.0" y="501" width="0.1" height="15.0" fill="rgb(210,24,5)" rx="2" ry="2" />
<text  x="13.00" y="511.5" ></text>
</g>
<g >
<title>clockevents_program_event (2,750,680 samples, 0.01%)</title><rect x="983.8" y="181" width="0.2" height="15.0" fill="rgb(244,182,43)" rx="2" ry="2" />
<text  x="986.85" y="191.5" ></text>
</g>
<g >
<title>[postgres] (27,531,374,364 samples, 99.99%)</title><rect x="10.1" y="421" width="1179.9" height="15.0" fill="rgb(245,184,44)" rx="2" ry="2" />
<text  x="13.12" y="431.5" >[postgres]</text>
</g>
<g >
<title>ResourceOwnerEnlarge (2,750,547 samples, 0.01%)</title><rect x="1171.3" y="229" width="0.1" height="15.0" fill="rgb(223,86,20)" rx="2" ry="2" />
<text  x="1174.26" y="239.5" ></text>
</g>
<g >
<title>ResourceOwnerForget (8,250,333 samples, 0.03%)</title><rect x="1077.3" y="245" width="0.4" height="15.0" fill="rgb(235,142,33)" rx="2" ry="2" />
<text  x="1080.32" y="255.5" ></text>
</g>
<g >
<title>GetPrivateRefCountEntry (5,499,784 samples, 0.02%)</title><rect x="1078.7" y="245" width="0.3" height="15.0" fill="rgb(250,209,50)" rx="2" ry="2" />
<text  x="1081.73" y="255.5" ></text>
</g>
<g >
<title>sysvec_apic_timer_interrupt (2,750,547 samples, 0.01%)</title><rect x="985.9" y="261" width="0.1" height="15.0" fill="rgb(220,69,16)" rx="2" ry="2" />
<text  x="988.85" y="271.5" ></text>
</g>
<g >
<title>account_process_tick (2,750,202 samples, 0.01%)</title><rect x="434.1" y="133" width="0.1" height="15.0" fill="rgb(234,136,32)" rx="2" ry="2" />
<text  x="437.12" y="143.5" ></text>
</g>
<g >
<title>standard_planner (2,749,380 samples, 0.01%)</title><rect x="1189.9" y="325" width="0.1" height="15.0" fill="rgb(207,11,2)" rx="2" ry="2" />
<text  x="1192.88" y="335.5" ></text>
</g>
<g >
<title>ReservePrivateRefCountEntry (5,500,006 samples, 0.02%)</title><rect x="1171.0" y="229" width="0.3" height="15.0" fill="rgb(232,125,30)" rx="2" ry="2" />
<text  x="1174.03" y="239.5" ></text>
</g>
<g >
<title>PinBuffer (189,743,293 samples, 0.69%)</title><rect x="1162.9" y="229" width="8.1" height="15.0" fill="rgb(219,64,15)" rx="2" ry="2" />
<text  x="1165.89" y="239.5" ></text>
</g>
<g >
<title>perf_adjust_freq_unthr_context (2,750,162 samples, 0.01%)</title><rect x="1134.3" y="85" width="0.1" height="15.0" fill="rgb(236,146,35)" rx="2" ry="2" />
<text  x="1137.25" y="95.5" ></text>
</g>
<g >
<title>MemoryContextReset (151,738,198 samples, 0.55%)</title><rect x="1050.2" y="309" width="6.5" height="15.0" fill="rgb(210,26,6)" rx="2" ry="2" />
<text  x="1053.19" y="319.5" ></text>
</g>
<g >
<title>asm_sysvec_apic_timer_interrupt (13,751,234 samples, 0.05%)</title><rect x="433.9" y="261" width="0.6" height="15.0" fill="rgb(232,127,30)" rx="2" ry="2" />
<text  x="436.88" y="271.5" ></text>
</g>
<g >
<title>PortalRun (27,528,624,984 samples, 99.98%)</title><rect x="10.1" y="373" width="1179.8" height="15.0" fill="rgb(223,85,20)" rx="2" ry="2" />
<text  x="13.12" y="383.5" >PortalRun</text>
</g>
<g >
<title>sysvec_apic_timer_interrupt (13,752,853 samples, 0.05%)</title><rect x="983.4" y="245" width="0.6" height="15.0" fill="rgb(220,69,16)" rx="2" ry="2" />
<text  x="986.38" y="255.5" ></text>
</g>
<g >
<title>LWLockRelease (19,247,831 samples, 0.07%)</title><rect x="1162.1" y="229" width="0.8" height="15.0" fill="rgb(217,58,13)" rx="2" ry="2" />
<text  x="1165.07" y="239.5" ></text>
</g>
<g >
<title>amd_pmu_disable_all (2,750,162 samples, 0.01%)</title><rect x="1134.3" y="53" width="0.1" height="15.0" fill="rgb(213,38,9)" rx="2" ry="2" />
<text  x="1137.25" y="63.5" ></text>
</g>
<g >
<title>pg_utf_mblen_private (12,819,203,657 samples, 46.56%)</title><rect x="434.6" y="277" width="549.4" height="15.0" fill="rgb(242,173,41)" rx="2" ry="2" />
<text  x="437.59" y="287.5" >pg_utf_mblen_private</text>
</g>
<g >
<title>__sysvec_apic_timer_interrupt (2,750,452 samples, 0.01%)</title><rect x="1044.5" y="229" width="0.1" height="15.0" fill="rgb(242,173,41)" rx="2" ry="2" />
<text  x="1047.48" y="239.5" ></text>
</g>
<g >
<title>pg_database_encoding_max_length (46,747,703 samples, 0.17%)</title><rect x="984.0" y="293" width="2.0" height="15.0" fill="rgb(243,176,42)" rx="2" ry="2" />
<text  x="986.97" y="303.5" ></text>
</g>
<g >
<title>ResourceOwnerRemember (2,749,607 samples, 0.01%)</title><rect x="1171.4" y="229" width="0.1" height="15.0" fill="rgb(243,178,42)" rx="2" ry="2" />
<text  x="1174.38" y="239.5" ></text>
</g>
<g >
<title>pg_plan_query (2,749,380 samples, 0.01%)</title><rect x="1189.9" y="357" width="0.1" height="15.0" fill="rgb(232,127,30)" rx="2" ry="2" />
<text  x="1192.88" y="367.5" ></text>
</g>
<g >
<title>read_stream_next_buffer (891,044,050 samples, 3.24%)</title><rect x="1135.0" y="261" width="38.1" height="15.0" fill="rgb(216,50,12)" rx="2" ry="2" />
<text  x="1137.96" y="271.5" >rea..</text>
</g>
<g >
<title>standard_ExecutorRun (27,528,624,984 samples, 99.98%)</title><rect x="10.1" y="341" width="1179.8" height="15.0" fill="rgb(247,196,47)" rx="2" ry="2" />
<text  x="13.12" y="351.5" >standard_ExecutorRun</text>
</g>
<g >
<title>main (27,531,374,364 samples, 99.99%)</title><rect x="10.1" y="485" width="1179.9" height="15.0" fill="rgb(243,179,42)" rx="2" ry="2" />
<text  x="13.12" y="495.5" >main</text>
</g>
<g >
<title>asm_sysvec_call_function_single (2,750,287 samples, 0.01%)</title><rect x="1157.1" y="197" width="0.1" height="15.0" fill="rgb(234,136,32)" rx="2" ry="2" />
<text  x="1160.12" y="207.5" ></text>
</g>
<g >
<title>table_open (2,749,380 samples, 0.01%)</title><rect x="1189.9" y="277" width="0.1" height="15.0" fill="rgb(237,147,35)" rx="2" ry="2" />
<text  x="1192.88" y="287.5" ></text>
</g>
<g >
<title>heap_getnextslot (156,755,673 samples, 0.57%)</title><rect x="1175.0" y="309" width="6.8" height="15.0" fill="rgb(213,40,9)" rx="2" ry="2" />
<text  x="1178.03" y="319.5" ></text>
</g>
<g >
<title>heapgettup_pagemode (2,153,491,059 samples, 7.82%)</title><rect x="1080.9" y="277" width="92.2" height="15.0" fill="rgb(242,170,40)" rx="2" ry="2" />
<text  x="1083.86" y="287.5" >heapgettup_..</text>
</g>
<g >
<title>StartReadBuffer (772,816,164 samples, 2.81%)</title><rect x="1138.5" y="245" width="33.1" height="15.0" fill="rgb(222,78,18)" rx="2" ry="2" />
<text  x="1141.50" y="255.5" >St..</text>
</g>
<g >
<title>__remove_hrtimer (2,750,135 samples, 0.01%)</title><rect x="434.0" y="181" width="0.1" height="15.0" fill="rgb(218,63,15)" rx="2" ry="2" />
<text  x="437.00" y="191.5" ></text>
</g>
<g >
<title>ExecSeqScanWithQual (27,435,126,326 samples, 99.64%)</title><rect x="11.5" y="325" width="1175.8" height="15.0" fill="rgb(254,227,54)" rx="2" ry="2" />
<text  x="14.53" y="335.5" >ExecSeqScanWithQual</text>
</g>
<g >
<title>arch_scale_freq_tick (2,749,638 samples, 0.01%)</title><rect x="983.6" y="117" width="0.1" height="15.0" fill="rgb(252,219,52)" rx="2" ry="2" />
<text  x="986.61" y="127.5" ></text>
</g>
<g >
<title>LockBuffer (5,500,295 samples, 0.02%)</title><rect x="1097.6" y="261" width="0.2" height="15.0" fill="rgb(235,142,34)" rx="2" ry="2" />
<text  x="1100.60" y="271.5" ></text>
</g>
<g >
<title>bpcharlen (41,250,884 samples, 0.15%)</title><rect x="1173.3" y="309" width="1.7" height="15.0" fill="rgb(221,77,18)" rx="2" ry="2" />
<text  x="1176.27" y="319.5" ></text>
</g>
<g >
<title>StartReadBuffer (2,750,094 samples, 0.01%)</title><rect x="10.0" y="469" width="0.1" height="15.0" fill="rgb(222,78,18)" rx="2" ry="2" />
<text  x="13.00" y="479.5" ></text>
</g>
<g >
<title>irq_work_tick (2,749,766 samples, 0.01%)</title><rect x="434.2" y="133" width="0.2" height="15.0" fill="rgb(219,67,16)" rx="2" ry="2" />
<text  x="437.24" y="143.5" ></text>
</g>
<g >
<title>read_stream_next_buffer (2,750,456 samples, 0.01%)</title><rect x="1173.1" y="277" width="0.2" height="15.0" fill="rgb(216,50,12)" rx="2" ry="2" />
<text  x="1176.15" y="287.5" ></text>
</g>
<g >
<title>ktime_get_update_offsets_now (2,750,546 samples, 0.01%)</title><rect x="434.4" y="197" width="0.1" height="15.0" fill="rgb(243,178,42)" rx="2" ry="2" />
<text  x="437.35" y="207.5" ></text>
</g>
<g >
<title>update_process_times (5,499,968 samples, 0.02%)</title><rect x="434.1" y="149" width="0.3" height="15.0" fill="rgb(250,209,50)" rx="2" ry="2" />
<text  x="437.12" y="159.5" ></text>
</g>
<g >
<title>__libc_start_call_main (27,531,374,364 samples, 99.99%)</title><rect x="10.1" y="501" width="1179.9" height="15.0" fill="rgb(210,26,6)" rx="2" ry="2" />
<text  x="13.12" y="511.5" >__libc_start_call_main</text>
</g>
<g >
<title>ExecInterpExpr (23,991,302,640 samples, 87.13%)</title><rect x="22.0" y="309" width="1028.2" height="15.0" fill="rgb(225,96,22)" rx="2" ry="2" />
<text  x="25.02" y="319.5" >ExecInterpExpr</text>
</g>
<g >
<title>__memcmp_evex_movbe (2,749,380 samples, 0.01%)</title><rect x="1189.9" y="229" width="0.1" height="15.0" fill="rgb(219,67,16)" rx="2" ry="2" />
<text  x="1192.88" y="239.5" ></text>
</g>
<g >
<title>pgstat_count_backend_io_op (2,749,925 samples, 0.01%)</title><rect x="1171.5" y="229" width="0.1" height="15.0" fill="rgb(244,179,42)" rx="2" ry="2" />
<text  x="1174.50" y="239.5" ></text>
</g>
<g >
<title>__sysvec_apic_timer_interrupt (2,750,547 samples, 0.01%)</title><rect x="985.9" y="245" width="0.1" height="15.0" fill="rgb(242,173,41)" rx="2" ry="2" />
<text  x="988.85" y="255.5" ></text>
</g>
<g >
<title>LWLockAcquire (8,249,943 samples, 0.03%)</title><rect x="1157.4" y="229" width="0.3" height="15.0" fill="rgb(209,20,4)" rx="2" ry="2" />
<text  x="1160.36" y="239.5" ></text>
</g>
<g >
<title>heap_prepare_pagescan (819,484,749 samples, 2.98%)</title><rect x="1099.8" y="261" width="35.2" height="15.0" fill="rgb(222,82,19)" rx="2" ry="2" />
<text  x="1102.84" y="271.5" >he..</text>
</g>
<g >
<title>PostmasterMain (27,531,374,364 samples, 99.99%)</title><rect x="10.1" y="469" width="1179.9" height="15.0" fill="rgb(212,35,8)" rx="2" ry="2" />
<text  x="13.12" y="479.5" >PostmasterMain</text>
</g>
<g >
<title>rb_next (2,750,135 samples, 0.01%)</title><rect x="434.0" y="165" width="0.1" height="15.0" fill="rgb(242,173,41)" rx="2" ry="2" />
<text  x="437.00" y="175.5" ></text>
</g>
<g >
<title>ReleaseBuffer (10,999,939 samples, 0.04%)</title><rect x="1097.8" y="261" width="0.5" height="15.0" fill="rgb(220,71,17)" rx="2" ry="2" />
<text  x="1100.84" y="271.5" ></text>
</g>
<g >
<title>BufferGetBlockNumber (24,748,910 samples, 0.09%)</title><rect x="1072.7" y="277" width="1.1" height="15.0" fill="rgb(206,7,1)" rx="2" ry="2" />
<text  x="1075.72" y="287.5" ></text>
</g>
<g >
<title>LWLockAcquire (10,999,969 samples, 0.04%)</title><rect x="1132.1" y="245" width="0.5" height="15.0" fill="rgb(209,20,4)" rx="2" ry="2" />
<text  x="1135.13" y="255.5" ></text>
</g>
<g >
<title>ResourceOwnerEnlarge (5,500,011 samples, 0.02%)</title><rect x="1077.0" y="245" width="0.2" height="15.0" fill="rgb(223,86,20)" rx="2" ry="2" />
<text  x="1079.97" y="255.5" ></text>
</g>
<g >
<title>GetPrivateRefCountEntry (19,250,273 samples, 0.07%)</title><rect x="1098.5" y="245" width="0.9" height="15.0" fill="rgb(250,209,50)" rx="2" ry="2" />
<text  x="1101.54" y="255.5" ></text>
</g>
<g >
<title>account_user_time (2,750,202 samples, 0.01%)</title><rect x="434.1" y="117" width="0.1" height="15.0" fill="rgb(225,96,23)" rx="2" ry="2" />
<text  x="437.12" y="127.5" ></text>
</g>
<g >
<title>RelationIdGetRelation (2,749,380 samples, 0.01%)</title><rect x="1189.9" y="245" width="0.1" height="15.0" fill="rgb(212,32,7)" rx="2" ry="2" />
<text  x="1192.88" y="255.5" ></text>
</g>
<g >
<title>planner (2,749,380 samples, 0.01%)</title><rect x="1189.9" y="341" width="0.1" height="15.0" fill="rgb(205,3,0)" rx="2" ry="2" />
<text  x="1192.88" y="351.5" ></text>
</g>
<g >
<title>tick_sched_handle (2,750,162 samples, 0.01%)</title><rect x="1134.3" y="149" width="0.1" height="15.0" fill="rgb(219,68,16)" rx="2" ry="2" />
<text  x="1137.25" y="159.5" ></text>
</g>
<g >
<title>UnpinBufferNoOwner (2,804,948 samples, 0.01%)</title><rect x="1079.2" y="277" width="0.1" height="15.0" fill="rgb(253,221,53)" rx="2" ry="2" />
<text  x="1082.21" y="287.5" ></text>
</g>
<g >
<title>__hrtimer_run_queues (2,750,162 samples, 0.01%)</title><rect x="1134.3" y="181" width="0.1" height="15.0" fill="rgb(237,150,35)" rx="2" ry="2" />
<text  x="1137.25" y="191.5" ></text>
</g>
<g >
<title>IncrBufferRefCount (2,749,771 samples, 0.01%)</title><rect x="1079.0" y="277" width="0.1" height="15.0" fill="rgb(209,22,5)" rx="2" ry="2" />
<text  x="1081.97" y="287.5" ></text>
</g>
<g >
<title>__hrtimer_run_queues (8,250,103 samples, 0.03%)</title><rect x="434.0" y="197" width="0.4" height="15.0" fill="rgb(237,150,35)" rx="2" ry="2" />
<text  x="437.00" y="207.5" ></text>
</g>
<g >
<title>PostgresMain (27,531,374,364 samples, 99.99%)</title><rect x="10.1" y="405" width="1179.9" height="15.0" fill="rgb(227,103,24)" rx="2" ry="2" />
<text  x="13.12" y="415.5" >PostgresMain</text>
</g>
<g >
<title>LWLockAttemptLock (101,749,063 samples, 0.37%)</title><rect x="1157.7" y="229" width="4.4" height="15.0" fill="rgb(235,138,33)" rx="2" ry="2" />
<text  x="1160.71" y="239.5" ></text>
</g>
<g >
<title>ExecStoreBufferHeapTuple (120,992,147 samples, 0.44%)</title><rect x="1073.8" y="277" width="5.2" height="15.0" fill="rgb(230,117,28)" rx="2" ry="2" />
<text  x="1076.78" y="287.5" ></text>
</g>
<g >
<title>pg_mbstrlen_with_len (7,595,221,121 samples, 27.58%)</title><rect x="109.1" y="277" width="325.5" height="15.0" fill="rgb(228,106,25)" rx="2" ry="2" />
<text  x="112.09" y="287.5" >pg_mbstrlen_with_len</text>
</g>
<g >
<title>sync_regs (2,750,094 samples, 0.01%)</title><rect x="10.0" y="453" width="0.1" height="15.0" fill="rgb(228,106,25)" rx="2" ry="2" />
<text  x="13.00" y="463.5" ></text>
</g>
<g >
<title>GetPrivateRefCountEntry (2,750,303 samples, 0.01%)</title><rect x="1157.2" y="229" width="0.2" height="15.0" fill="rgb(250,209,50)" rx="2" ry="2" />
<text  x="1160.24" y="239.5" ></text>
</g>
<g >
<title>__sysvec_apic_timer_interrupt (5,500,370 samples, 0.02%)</title><rect x="1134.3" y="213" width="0.2" height="15.0" fill="rgb(242,173,41)" rx="2" ry="2" />
<text  x="1137.25" y="223.5" ></text>
</g>
<g >
<title>UnpinBufferNoOwner (24,749,418 samples, 0.09%)</title><rect x="1098.3" y="261" width="1.1" height="15.0" fill="rgb(253,221,53)" rx="2" ry="2" />
<text  x="1101.31" y="271.5" ></text>
</g>
<g >
<title>tick_sched_timer (2,750,162 samples, 0.01%)</title><rect x="1134.3" y="165" width="0.1" height="15.0" fill="rgb(254,227,54)" rx="2" ry="2" />
<text  x="1137.25" y="175.5" ></text>
</g>
<g >
<title>tick_sched_timer (5,499,908 samples, 0.02%)</title><rect x="983.5" y="181" width="0.2" height="15.0" fill="rgb(254,227,54)" rx="2" ry="2" />
<text  x="986.50" y="191.5" ></text>
</g>
<g >
<title>update_process_times (5,499,908 samples, 0.02%)</title><rect x="983.5" y="149" width="0.2" height="15.0" fill="rgb(250,209,50)" rx="2" ry="2" />
<text  x="986.50" y="159.5" ></text>
</g>
<g >
<title>asm_sysvec_apic_timer_interrupt (5,500,370 samples, 0.02%)</title><rect x="1134.3" y="245" width="0.2" height="15.0" fill="rgb(232,127,30)" rx="2" ry="2" />
<text  x="1137.25" y="255.5" ></text>
</g>
<g >
<title>__sysvec_call_function_single (2,750,287 samples, 0.01%)</title><rect x="1157.1" y="165" width="0.1" height="15.0" fill="rgb(244,182,43)" rx="2" ry="2" />
<text  x="1160.12" y="175.5" ></text>
</g>
<g >
<title>all (27,534,124,458 samples, 100%)</title><rect x="10.0" y="533" width="1180.0" height="15.0" fill="rgb(213,39,9)" rx="2" ry="2" />
<text  x="13.00" y="543.5" ></text>
</g>
<g >
<title>bpcharlen (20,906,898,350 samples, 75.93%)</title><rect x="88.0" y="293" width="896.0" height="15.0" fill="rgb(221,77,18)" rx="2" ry="2" />
<text  x="90.98" y="303.5" >bpcharlen</text>
</g>
<g >
<title>hrtimer_interrupt (11,000,649 samples, 0.04%)</title><rect x="434.0" y="213" width="0.5" height="15.0" fill="rgb(228,109,26)" rx="2" ry="2" />
<text  x="437.00" y="223.5" ></text>
</g>
<g >
<title>heap_scan_stream_read_next_serial (2,750,080 samples, 0.01%)</title><rect x="1172.6" y="245" width="0.1" height="15.0" fill="rgb(205,4,0)" rx="2" ry="2" />
<text  x="1175.56" y="255.5" ></text>
</g>
<g >
<title>flush_smp_call_function_queue (2,750,287 samples, 0.01%)</title><rect x="1157.1" y="133" width="0.1" height="15.0" fill="rgb(233,129,30)" rx="2" ry="2" />
<text  x="1160.12" y="143.5" ></text>
</g>
<g >
<title>ExecStoreBufferHeapTuple (32,994,493 samples, 0.12%)</title><rect x="1062.2" y="293" width="1.4" height="15.0" fill="rgb(230,117,28)" rx="2" ry="2" />
<text  x="1065.23" y="303.5" ></text>
</g>
<g >
<title>LWLockAttemptLock (38,501,803 samples, 0.14%)</title><rect x="1132.6" y="245" width="1.7" height="15.0" fill="rgb(235,138,33)" rx="2" ry="2" />
<text  x="1135.60" y="255.5" ></text>
</g>
<g >
<title>tick_program_event (2,750,452 samples, 0.01%)</title><rect x="1044.5" y="197" width="0.1" height="15.0" fill="rgb(241,166,39)" rx="2" ry="2" />
<text  x="1047.48" y="207.5" ></text>
</g>
<g >
<title>exec_simple_query (27,531,374,364 samples, 99.99%)</title><rect x="10.1" y="389" width="1179.9" height="15.0" fill="rgb(211,29,6)" rx="2" ry="2" />
<text  x="13.12" y="399.5" >exec_simple_query</text>
</g>
<g >
<title>hrtimer_interrupt (11,000,602 samples, 0.04%)</title><rect x="983.5" y="213" width="0.5" height="15.0" fill="rgb(228,109,26)" rx="2" ry="2" />
<text  x="986.50" y="223.5" ></text>
</g>
<g >
<title>hash_search_with_hash_value (343,747,660 samples, 1.25%)</title><rect x="1142.5" y="213" width="14.7" height="15.0" fill="rgb(249,205,49)" rx="2" ry="2" />
<text  x="1145.51" y="223.5" ></text>
</g>
<g >
<title>__sysvec_apic_timer_interrupt (13,750,633 samples, 0.05%)</title><rect x="983.4" y="229" width="0.6" height="15.0" fill="rgb(242,173,41)" rx="2" ry="2" />
<text  x="986.38" y="239.5" ></text>
</g>
<g >
<title>ReleaseBuffer (11,000,676 samples, 0.04%)</title><rect x="1077.2" y="261" width="0.5" height="15.0" fill="rgb(220,71,17)" rx="2" ry="2" />
<text  x="1080.20" y="271.5" ></text>
</g>
<g >
<title>tick_sched_timer (5,499,968 samples, 0.02%)</title><rect x="434.1" y="181" width="0.3" height="15.0" fill="rgb(254,227,54)" rx="2" ry="2" />
<text  x="437.12" y="191.5" ></text>
</g>
<g >
<title>slot_getsomeattrs_int (16,500,918 samples, 0.06%)</title><rect x="1186.6" y="309" width="0.7" height="15.0" fill="rgb(252,219,52)" rx="2" ry="2" />
<text  x="1189.58" y="319.5" ></text>
</g>
<g >
<title>perf_event_task_tick (2,750,162 samples, 0.01%)</title><rect x="1134.3" y="101" width="0.1" height="15.0" fill="rgb(205,3,0)" rx="2" ry="2" />
<text  x="1137.25" y="111.5" ></text>
</g>
<g >
<title>scheduler_tick (2,750,162 samples, 0.01%)</title><rect x="1134.3" y="117" width="0.1" height="15.0" fill="rgb(246,190,45)" rx="2" ry="2" />
<text  x="1137.25" y="127.5" ></text>
</g>
<g >
<title>subquery_planner (2,749,380 samples, 0.01%)</title><rect x="1189.9" y="309" width="0.1" height="15.0" fill="rgb(253,225,53)" rx="2" ry="2" />
<text  x="1192.88" y="319.5" ></text>
</g>
<g >
<title>tick_sched_handle (5,499,908 samples, 0.02%)</title><rect x="983.5" y="165" width="0.2" height="15.0" fill="rgb(219,68,16)" rx="2" ry="2" />
<text  x="986.50" y="175.5" ></text>
</g>
<g >
<title>UnpinBufferNoOwner (27,497,540 samples, 0.10%)</title><rect x="1077.8" y="261" width="1.2" height="15.0" fill="rgb(253,221,53)" rx="2" ry="2" />
<text  x="1080.79" y="271.5" ></text>
</g>
<g >
<title>ExecInterpExpr (33,000,613 samples, 0.12%)</title><rect x="10.1" y="325" width="1.4" height="15.0" fill="rgb(225,96,22)" rx="2" ry="2" />
<text  x="13.12" y="335.5" ></text>
</g>
<g >
<title>tick_program_event (2,750,680 samples, 0.01%)</title><rect x="983.8" y="197" width="0.2" height="15.0" fill="rgb(241,166,39)" rx="2" ry="2" />
<text  x="986.85" y="207.5" ></text>
</g>
<g >
<title>sysvec_call_function_single (2,750,287 samples, 0.01%)</title><rect x="1157.1" y="181" width="0.1" height="15.0" fill="rgb(221,78,18)" rx="2" ry="2" />
<text  x="1160.12" y="191.5" ></text>
</g>
<g >
<title>asm_sysvec_apic_timer_interrupt (2,750,547 samples, 0.01%)</title><rect x="985.9" y="277" width="0.1" height="15.0" fill="rgb(232,127,30)" rx="2" ry="2" />
<text  x="988.85" y="287.5" ></text>
</g>
<g >
<title>CheckForSerializableConflictOutNeeded (2,750,097 samples, 0.01%)</title><rect x="1096.9" y="261" width="0.1" height="15.0" fill="rgb(213,38,9)" rx="2" ry="2" />
<text  x="1099.89" y="271.5" ></text>
</g>
<g >
<title>heap_prepare_pagescan (35,745,379 samples, 0.13%)</title><rect x="1079.3" y="277" width="1.6" height="15.0" fill="rgb(222,82,19)" rx="2" ry="2" />
<text  x="1082.33" y="287.5" ></text>
</g>
<g >
<title>BufTableLookup (346,498,261 samples, 1.26%)</title><rect x="1142.4" y="229" width="14.8" height="15.0" fill="rgb(224,89,21)" rx="2" ry="2" />
<text  x="1145.39" y="239.5" ></text>
</g>
<g >
<title>asm_sysvec_apic_timer_interrupt (2,750,452 samples, 0.01%)</title><rect x="1044.5" y="261" width="0.1" height="15.0" fill="rgb(232,127,30)" rx="2" ry="2" />
<text  x="1047.48" y="271.5" ></text>
</g>
<g >
<title>pg_plan_queries (2,749,380 samples, 0.01%)</title><rect x="1189.9" y="373" width="0.1" height="15.0" fill="rgb(240,163,39)" rx="2" ry="2" />
<text  x="1192.88" y="383.5" ></text>
</g>
<g >
<title>pgstat_count_io_op (10,996,336 samples, 0.04%)</title><rect x="1172.7" y="245" width="0.4" height="15.0" fill="rgb(207,10,2)" rx="2" ry="2" />
<text  x="1175.68" y="255.5" ></text>
</g>
<g >
<title>__sysvec_apic_timer_interrupt (11,000,649 samples, 0.04%)</title><rect x="434.0" y="229" width="0.5" height="15.0" fill="rgb(242,173,41)" rx="2" ry="2" />
<text  x="437.00" y="239.5" ></text>
</g>
<g >
<title>postmaster_child_launch (27,531,374,364 samples, 99.99%)</title><rect x="10.1" y="437" width="1179.9" height="15.0" fill="rgb(206,5,1)" rx="2" ry="2" />
<text  x="13.12" y="447.5" >postmaster_child_launch</text>
</g>
<g >
<title>x86_pmu_disable (2,750,162 samples, 0.01%)</title><rect x="1134.3" y="69" width="0.1" height="15.0" fill="rgb(239,160,38)" rx="2" ry="2" />
<text  x="1137.25" y="79.5" ></text>
</g>
</g>
</svg>
