<?xml version="1.0" standalone="no"?>
<!DOCTYPE svg PUBLIC "-//W3C//DTD SVG 1.1//EN" "http://www.w3.org/Graphics/SVG/1.1/DTD/svg11.dtd">
<svg version="1.1" width="1200" height="550" onload="init(evt)" viewBox="0 0 1200 550" xmlns="http://www.w3.org/2000/svg" xmlns:xlink="http://www.w3.org/1999/xlink">
<!-- Flame graph stack visualization. See https://github.com/brendangregg/FlameGraph for latest version, and http://www.brendangregg.com/flamegraphs.html for examples. -->
<!-- NOTES:  -->
<defs>
	<linearGradient id="background" y1="0" y2="1" x1="0" x2="0" >
		<stop stop-color="#eeeeee" offset="5%" />
		<stop stop-color="#eeeeb0" offset="95%" />
	</linearGradient>
</defs>
<style type="text/css">
	text { font-family:Verdana; font-size:12px; fill:rgb(0,0,0); }
	#search, #ignorecase { opacity:0.1; cursor:pointer; }
	#search:hover, #search.show, #ignorecase:hover, #ignorecase.show { opacity:1; }
	#subtitle { text-anchor:middle; font-color:rgb(160,160,160); }
	#title { text-anchor:middle; font-size:17px}
	#unzoom { cursor:pointer; }
	#frames > *:hover { stroke:black; stroke-width:0.5; cursor:pointer; }
	.hide { display:none; }
	.parent { opacity:0.5; }
</style>
<script type="text/ecmascript">
<![CDATA[
	"use strict";
	var details, searchbtn, unzoombtn, matchedtxt, svg, searching, currentSearchTerm, ignorecase, ignorecaseBtn;
	function init(evt) {
		details = document.getElementById("details").firstChild;
		searchbtn = document.getElementById("search");
		ignorecaseBtn = document.getElementById("ignorecase");
		unzoombtn = document.getElementById("unzoom");
		matchedtxt = document.getElementById("matched");
		svg = document.getElementsByTagName("svg")[0];
		searching = 0;
		currentSearchTerm = null;

		// use GET parameters to restore a flamegraphs state.
		var params = get_params();
		if (params.x && params.y)
			zoom(find_group(document.querySelector('[x="' + params.x + '"][y="' + params.y + '"]')));
                if (params.s) search(params.s);
	}

	// event listeners
	window.addEventListener("click", function(e) {
		var target = find_group(e.target);
		if (target) {
			if (target.nodeName == "a") {
				if (e.ctrlKey === false) return;
				e.preventDefault();
			}
			if (target.classList.contains("parent")) unzoom(true);
			zoom(target);
			if (!document.querySelector('.parent')) {
				// we have basically done a clearzoom so clear the url
				var params = get_params();
				if (params.x) delete params.x;
				if (params.y) delete params.y;
				history.replaceState(null, null, parse_params(params));
				unzoombtn.classList.add("hide");
				return;
			}

			// set parameters for zoom state
			var el = target.querySelector("rect");
			if (el && el.attributes && el.attributes.y && el.attributes._orig_x) {
				var params = get_params()
				params.x = el.attributes._orig_x.value;
				params.y = el.attributes.y.value;
				history.replaceState(null, null, parse_params(params));
			}
		}
		else if (e.target.id == "unzoom") clearzoom();
		else if (e.target.id == "search") search_prompt();
		else if (e.target.id == "ignorecase") toggle_ignorecase();
	}, false)

	// mouse-over for info
	// show
	window.addEventListener("mouseover", function(e) {
		var target = find_group(e.target);
		if (target) details.nodeValue = "Function: " + g_to_text(target);
	}, false)

	// clear
	window.addEventListener("mouseout", function(e) {
		var target = find_group(e.target);
		if (target) details.nodeValue = ' ';
	}, false)

	// ctrl-F for search
	// ctrl-I to toggle case-sensitive search
	window.addEventListener("keydown",function (e) {
		if (e.keyCode === 114 || (e.ctrlKey && e.keyCode === 70)) {
			e.preventDefault();
			search_prompt();
		}
		else if (e.ctrlKey && e.keyCode === 73) {
			e.preventDefault();
			toggle_ignorecase();
		}
	}, false)

	// functions
	function get_params() {
		var params = {};
		var paramsarr = window.location.search.substr(1).split('&');
		for (var i = 0; i < paramsarr.length; ++i) {
			var tmp = paramsarr[i].split("=");
			if (!tmp[0] || !tmp[1]) continue;
			params[tmp[0]]  = decodeURIComponent(tmp[1]);
		}
		return params;
	}
	function parse_params(params) {
		var uri = "?";
		for (var key in params) {
			uri += key + '=' + encodeURIComponent(params[key]) + '&';
		}
		if (uri.slice(-1) == "&")
			uri = uri.substring(0, uri.length - 1);
		if (uri == '?')
			uri = window.location.href.split('?')[0];
		return uri;
	}
	function find_child(node, selector) {
		var children = node.querySelectorAll(selector);
		if (children.length) return children[0];
	}
	function find_group(node) {
		var parent = node.parentElement;
		if (!parent) return;
		if (parent.id == "frames") return node;
		return find_group(parent);
	}
	function orig_save(e, attr, val) {
		if (e.attributes["_orig_" + attr] != undefined) return;
		if (e.attributes[attr] == undefined) return;
		if (val == undefined) val = e.attributes[attr].value;
		e.setAttribute("_orig_" + attr, val);
	}
	function orig_load(e, attr) {
		if (e.attributes["_orig_"+attr] == undefined) return;
		e.attributes[attr].value = e.attributes["_orig_" + attr].value;
		e.removeAttribute("_orig_"+attr);
	}
	function g_to_text(e) {
		var text = find_child(e, "title").firstChild.nodeValue;
		return (text)
	}
	function g_to_func(e) {
		var func = g_to_text(e);
		// if there's any manipulation we want to do to the function
		// name before it's searched, do it here before returning.
		return (func);
	}
	function update_text(e) {
		var r = find_child(e, "rect");
		var t = find_child(e, "text");
		var w = parseFloat(r.attributes.width.value) -3;
		var txt = find_child(e, "title").textContent.replace(/\([^(]*\)$/,"");
		t.attributes.x.value = parseFloat(r.attributes.x.value) + 3;

		// Smaller than this size won't fit anything
		if (w < 2 * 12 * 0.59) {
			t.textContent = "";
			return;
		}

		t.textContent = txt;
		var sl = t.getSubStringLength(0, txt.length);
		// check if only whitespace or if we can fit the entire string into width w
		if (/^ *$/.test(txt) || sl < w)
			return;

		// this isn't perfect, but gives a good starting point
		// and avoids calling getSubStringLength too often
		var start = Math.floor((w/sl) * txt.length);
		for (var x = start; x > 0; x = x-2) {
			if (t.getSubStringLength(0, x + 2) <= w) {
				t.textContent = txt.substring(0, x) + "..";
				return;
			}
		}
		t.textContent = "";
	}

	// zoom
	function zoom_reset(e) {
		if (e.attributes != undefined) {
			orig_load(e, "x");
			orig_load(e, "width");
		}
		if (e.childNodes == undefined) return;
		for (var i = 0, c = e.childNodes; i < c.length; i++) {
			zoom_reset(c[i]);
		}
	}
	function zoom_child(e, x, ratio) {
		if (e.attributes != undefined) {
			if (e.attributes.x != undefined) {
				orig_save(e, "x");
				e.attributes.x.value = (parseFloat(e.attributes.x.value) - x - 10) * ratio + 10;
				if (e.tagName == "text")
					e.attributes.x.value = find_child(e.parentNode, "rect[x]").attributes.x.value + 3;
			}
			if (e.attributes.width != undefined) {
				orig_save(e, "width");
				e.attributes.width.value = parseFloat(e.attributes.width.value) * ratio;
			}
		}

		if (e.childNodes == undefined) return;
		for (var i = 0, c = e.childNodes; i < c.length; i++) {
			zoom_child(c[i], x - 10, ratio);
		}
	}
	function zoom_parent(e) {
		if (e.attributes) {
			if (e.attributes.x != undefined) {
				orig_save(e, "x");
				e.attributes.x.value = 10;
			}
			if (e.attributes.width != undefined) {
				orig_save(e, "width");
				e.attributes.width.value = parseInt(svg.width.baseVal.value) - (10 * 2);
			}
		}
		if (e.childNodes == undefined) return;
		for (var i = 0, c = e.childNodes; i < c.length; i++) {
			zoom_parent(c[i]);
		}
	}
	function zoom(node) {
		var attr = find_child(node, "rect").attributes;
		var width = parseFloat(attr.width.value);
		var xmin = parseFloat(attr.x.value);
		var xmax = parseFloat(xmin + width);
		var ymin = parseFloat(attr.y.value);
		var ratio = (svg.width.baseVal.value - 2 * 10) / width;

		// XXX: Workaround for JavaScript float issues (fix me)
		var fudge = 0.0001;

		unzoombtn.classList.remove("hide");

		var el = document.getElementById("frames").children;
		for (var i = 0; i < el.length; i++) {
			var e = el[i];
			var a = find_child(e, "rect").attributes;
			var ex = parseFloat(a.x.value);
			var ew = parseFloat(a.width.value);
			var upstack;
			// Is it an ancestor
			if (0 == 0) {
				upstack = parseFloat(a.y.value) > ymin;
			} else {
				upstack = parseFloat(a.y.value) < ymin;
			}
			if (upstack) {
				// Direct ancestor
				if (ex <= xmin && (ex+ew+fudge) >= xmax) {
					e.classList.add("parent");
					zoom_parent(e);
					update_text(e);
				}
				// not in current path
				else
					e.classList.add("hide");
			}
			// Children maybe
			else {
				// no common path
				if (ex < xmin || ex + fudge >= xmax) {
					e.classList.add("hide");
				}
				else {
					zoom_child(e, xmin, ratio);
					update_text(e);
				}
			}
		}
		search();
	}
	function unzoom(dont_update_text) {
		unzoombtn.classList.add("hide");
		var el = document.getElementById("frames").children;
		for(var i = 0; i < el.length; i++) {
			el[i].classList.remove("parent");
			el[i].classList.remove("hide");
			zoom_reset(el[i]);
			if(!dont_update_text) update_text(el[i]);
		}
		search();
	}
	function clearzoom() {
		unzoom();

		// remove zoom state
		var params = get_params();
		if (params.x) delete params.x;
		if (params.y) delete params.y;
		history.replaceState(null, null, parse_params(params));
	}

	// search
	function toggle_ignorecase() {
		ignorecase = !ignorecase;
		if (ignorecase) {
			ignorecaseBtn.classList.add("show");
		} else {
			ignorecaseBtn.classList.remove("show");
		}
		reset_search();
		search();
	}
	function reset_search() {
		var el = document.querySelectorAll("#frames rect");
		for (var i = 0; i < el.length; i++) {
			orig_load(el[i], "fill")
		}
		var params = get_params();
		delete params.s;
		history.replaceState(null, null, parse_params(params));
	}
	function search_prompt() {
		if (!searching) {
			var term = prompt("Enter a search term (regexp " +
			    "allowed, eg: ^ext4_)"
			    + (ignorecase ? ", ignoring case" : "")
			    + "\nPress Ctrl-i to toggle case sensitivity", "");
			if (term != null) search(term);
		} else {
			reset_search();
			searching = 0;
			currentSearchTerm = null;
			searchbtn.classList.remove("show");
			searchbtn.firstChild.nodeValue = "Search"
			matchedtxt.classList.add("hide");
			matchedtxt.firstChild.nodeValue = ""
		}
	}
	function search(term) {
		if (term) currentSearchTerm = term;

		var re = new RegExp(currentSearchTerm, ignorecase ? 'i' : '');
		var el = document.getElementById("frames").children;
		var matches = new Object();
		var maxwidth = 0;
		for (var i = 0; i < el.length; i++) {
			var e = el[i];
			var func = g_to_func(e);
			var rect = find_child(e, "rect");
			if (func == null || rect == null)
				continue;

			// Save max width. Only works as we have a root frame
			var w = parseFloat(rect.attributes.width.value);
			if (w > maxwidth)
				maxwidth = w;

			if (func.match(re)) {
				// highlight
				var x = parseFloat(rect.attributes.x.value);
				orig_save(rect, "fill");
				rect.attributes.fill.value = "rgb(230,0,230)";

				// remember matches
				if (matches[x] == undefined) {
					matches[x] = w;
				} else {
					if (w > matches[x]) {
						// overwrite with parent
						matches[x] = w;
					}
				}
				searching = 1;
			}
		}
		if (!searching)
			return;
		var params = get_params();
		params.s = currentSearchTerm;
		history.replaceState(null, null, parse_params(params));

		searchbtn.classList.add("show");
		searchbtn.firstChild.nodeValue = "Reset Search";

		// calculate percent matched, excluding vertical overlap
		var count = 0;
		var lastx = -1;
		var lastw = 0;
		var keys = Array();
		for (k in matches) {
			if (matches.hasOwnProperty(k))
				keys.push(k);
		}
		// sort the matched frames by their x location
		// ascending, then width descending
		keys.sort(function(a, b){
			return a - b;
		});
		// Step through frames saving only the biggest bottom-up frames
		// thanks to the sort order. This relies on the tree property
		// where children are always smaller than their parents.
		var fudge = 0.0001;	// JavaScript floating point
		for (var k in keys) {
			var x = parseFloat(keys[k]);
			var w = matches[keys[k]];
			if (x >= lastx + lastw - fudge) {
				count += w;
				lastx = x;
				lastw = w;
			}
		}
		// display matched percent
		matchedtxt.classList.remove("hide");
		var pct = 100 * count / maxwidth;
		if (pct != 100) pct = pct.toFixed(1)
		matchedtxt.firstChild.nodeValue = "Matched: " + pct + "%";
	}
]]>
</script>
<rect x="0.0" y="0" width="1200.0" height="550.0" fill="url(#background)"  />
<text id="title" x="600.00" y="24" >Flame Graph</text>
<text id="details" x="10.00" y="533" > </text>
<text id="unzoom" x="10.00" y="24" class="hide">Reset Zoom</text>
<text id="search" x="1090.00" y="24" >Search</text>
<text id="ignorecase" x="1174.00" y="24" >ic</text>
<text id="matched" x="1090.00" y="533" > </text>
<g id="frames">
<g >
<title>bpcharlen (21,692,041,810 samples, 78.92%)</title><rect x="85.0" y="261" width="931.3" height="15.0" fill="rgb(221,77,18)" rx="2" ry="2" />
<text  x="88.00" y="271.5" >bpcharlen</text>
</g>
<g >
<title>update_process_times (2,750,768 samples, 0.01%)</title><rect x="1079.3" y="149" width="0.1" height="15.0" fill="rgb(250,209,50)" rx="2" ry="2" />
<text  x="1082.31" y="159.5" ></text>
</g>
<g >
<title>amd_pmu_disable_all (2,750,768 samples, 0.01%)</title><rect x="1079.3" y="69" width="0.1" height="15.0" fill="rgb(213,38,9)" rx="2" ry="2" />
<text  x="1082.31" y="79.5" ></text>
</g>
<g >
<title>tick_sched_handle (2,751,093 samples, 0.01%)</title><rect x="1016.0" y="133" width="0.1" height="15.0" fill="rgb(219,68,16)" rx="2" ry="2" />
<text  x="1019.03" y="143.5" ></text>
</g>
<g >
<title>tick_sched_do_timer (2,750,707 samples, 0.01%)</title><rect x="107.0" y="149" width="0.1" height="15.0" fill="rgb(227,104,25)" rx="2" ry="2" />
<text  x="109.97" y="159.5" ></text>
</g>
<g >
<title>SeqNext (2,217,974,487 samples, 8.07%)</title><rect x="1079.4" y="277" width="95.3" height="15.0" fill="rgb(214,41,10)" rx="2" ry="2" />
<text  x="1082.43" y="287.5" >SeqNext</text>
</g>
<g >
<title>heapgettup_pagemode (1,379,073,674 samples, 5.02%)</title><rect x="1115.3" y="245" width="59.2" height="15.0" fill="rgb(242,170,40)" rx="2" ry="2" />
<text  x="1118.33" y="255.5" >heapge..</text>
</g>
<g >
<title>tts_buffer_heap_getsomeattrs (877,306,292 samples, 3.19%)</title><rect x="1028.1" y="245" width="37.6" height="15.0" fill="rgb(222,81,19)" rx="2" ry="2" />
<text  x="1031.07" y="255.5" >tts..</text>
</g>
<g >
<title>raw_notifier_call_chain (2,750,593 samples, 0.01%)</title><rect x="382.2" y="53" width="0.1" height="15.0" fill="rgb(221,73,17)" rx="2" ry="2" />
<text  x="385.21" y="63.5" ></text>
</g>
<g >
<title>SeqNext (16,503,953 samples, 0.06%)</title><rect x="1189.3" y="293" width="0.7" height="15.0" fill="rgb(214,41,10)" rx="2" ry="2" />
<text  x="1192.29" y="303.5" ></text>
</g>
<g >
<title>update_wall_time (2,750,593 samples, 0.01%)</title><rect x="382.2" y="101" width="0.1" height="15.0" fill="rgb(207,11,2)" rx="2" ry="2" />
<text  x="385.21" y="111.5" ></text>
</g>
<g >
<title>tick_sched_timer (2,750,673 samples, 0.01%)</title><rect x="1065.6" y="149" width="0.1" height="15.0" fill="rgb(254,227,54)" rx="2" ry="2" />
<text  x="1068.62" y="159.5" ></text>
</g>
<g >
<title>sched_clock_tick (2,750,698 samples, 0.01%)</title><rect x="382.3" y="101" width="0.1" height="15.0" fill="rgb(240,161,38)" rx="2" ry="2" />
<text  x="385.33" y="111.5" ></text>
</g>
<g >
<title>LockBuffer (2,750,916 samples, 0.01%)</title><rect x="1134.6" y="229" width="0.1" height="15.0" fill="rgb(235,142,34)" rx="2" ry="2" />
<text  x="1137.57" y="239.5" ></text>
</g>
<g >
<title>main (27,486,031,280 samples, 100.00%)</title><rect x="10.0" y="453" width="1180.0" height="15.0" fill="rgb(243,179,42)" rx="2" ry="2" />
<text  x="13.00" y="463.5" >main</text>
</g>
<g >
<title>int4lt (96,262,458 samples, 0.35%)</title><rect x="1182.9" y="277" width="4.1" height="15.0" fill="rgb(242,172,41)" rx="2" ry="2" />
<text  x="1185.92" y="287.5" ></text>
</g>
<g >
<title>asm_sysvec_apic_timer_interrupt (13,753,848 samples, 0.05%)</title><rect x="1015.7" y="229" width="0.6" height="15.0" fill="rgb(232,127,30)" rx="2" ry="2" />
<text  x="1018.67" y="239.5" ></text>
</g>
<g >
<title>__hrtimer_run_queues (5,501,787 samples, 0.02%)</title><rect x="1015.9" y="165" width="0.2" height="15.0" fill="rgb(237,150,35)" rx="2" ry="2" />
<text  x="1018.91" y="175.5" ></text>
</g>
<g >
<title>hrtimer_interrupt (2,750,673 samples, 0.01%)</title><rect x="1065.6" y="181" width="0.1" height="15.0" fill="rgb(228,109,26)" rx="2" ry="2" />
<text  x="1068.62" y="191.5" ></text>
</g>
<g >
<title>tick_do_update_jiffies64 (2,750,694 samples, 0.01%)</title><rect x="1015.9" y="117" width="0.1" height="15.0" fill="rgb(208,14,3)" rx="2" ry="2" />
<text  x="1018.91" y="127.5" ></text>
</g>
<g >
<title>hrtimer_interrupt (11,003,170 samples, 0.04%)</title><rect x="382.1" y="181" width="0.5" height="15.0" fill="rgb(228,109,26)" rx="2" ry="2" />
<text  x="385.09" y="191.5" ></text>
</g>
<g >
<title>__update_load_avg_cfs_rq (2,750,673 samples, 0.01%)</title><rect x="1065.6" y="53" width="0.1" height="15.0" fill="rgb(228,107,25)" rx="2" ry="2" />
<text  x="1068.62" y="63.5" ></text>
</g>
<g >
<title>all (27,486,031,280 samples, 100%)</title><rect x="10.0" y="501" width="1180.0" height="15.0" fill="rgb(213,39,9)" rx="2" ry="2" />
<text  x="13.00" y="511.5" ></text>
</g>
<g >
<title>PostmasterMain (27,486,031,280 samples, 100.00%)</title><rect x="10.0" y="437" width="1180.0" height="15.0" fill="rgb(212,35,8)" rx="2" ry="2" />
<text  x="13.00" y="447.5" >PostmasterMain</text>
</g>
<g >
<title>LWLockRelease (2,750,314 samples, 0.01%)</title><rect x="1142.5" y="213" width="0.1" height="15.0" fill="rgb(217,58,13)" rx="2" ry="2" />
<text  x="1145.48" y="223.5" ></text>
</g>
<g >
<title>tick_sched_timer (2,750,707 samples, 0.01%)</title><rect x="107.0" y="165" width="0.1" height="15.0" fill="rgb(254,227,54)" rx="2" ry="2" />
<text  x="109.97" y="175.5" ></text>
</g>
<g >
<title>heap_page_prune_opt (2,750,246 samples, 0.01%)</title><rect x="1140.5" y="213" width="0.1" height="15.0" fill="rgb(211,29,7)" rx="2" ry="2" />
<text  x="1143.48" y="223.5" ></text>
</g>
<g >
<title>asm_sysvec_apic_timer_interrupt (11,003,170 samples, 0.04%)</title><rect x="382.1" y="229" width="0.5" height="15.0" fill="rgb(232,127,30)" rx="2" ry="2" />
<text  x="385.09" y="239.5" ></text>
</g>
<g >
<title>x86_pmu_disable_all (2,750,768 samples, 0.01%)</title><rect x="1079.3" y="53" width="0.1" height="15.0" fill="rgb(254,227,54)" rx="2" ry="2" />
<text  x="1082.31" y="63.5" ></text>
</g>
<g >
<title>heap_scan_stream_read_next_serial (5,499,991 samples, 0.02%)</title><rect x="1140.6" y="229" width="0.2" height="15.0" fill="rgb(205,4,0)" rx="2" ry="2" />
<text  x="1143.59" y="239.5" ></text>
</g>
<g >
<title>ExecInterpExpr (66,005,710 samples, 0.24%)</title><rect x="10.0" y="293" width="2.8" height="15.0" fill="rgb(225,96,22)" rx="2" ry="2" />
<text  x="13.00" y="303.5" ></text>
</g>
<g >
<title>ExecSeqScanWithQual (27,359,513,898 samples, 99.54%)</title><rect x="12.8" y="293" width="1174.6" height="15.0" fill="rgb(254,227,54)" rx="2" ry="2" />
<text  x="15.83" y="303.5" >ExecSeqScanWithQual</text>
</g>
<g >
<title>GetPrivateRefCountEntry (2,750,193 samples, 0.01%)</title><rect x="1170.4" y="181" width="0.1" height="15.0" fill="rgb(250,209,50)" rx="2" ry="2" />
<text  x="1173.40" y="191.5" ></text>
</g>
<g >
<title>LWLockAttemptLock (41,255,930 samples, 0.15%)</title><rect x="1163.6" y="197" width="1.7" height="15.0" fill="rgb(235,138,33)" rx="2" ry="2" />
<text  x="1166.55" y="207.5" ></text>
</g>
<g >
<title>ReservePrivateRefCountEntry (2,750,389 samples, 0.01%)</title><rect x="1170.5" y="197" width="0.1" height="15.0" fill="rgb(232,125,30)" rx="2" ry="2" />
<text  x="1173.52" y="207.5" ></text>
</g>
<g >
<title>x86_pmu_disable (2,750,768 samples, 0.01%)</title><rect x="1079.3" y="85" width="0.1" height="15.0" fill="rgb(239,160,38)" rx="2" ry="2" />
<text  x="1082.31" y="95.5" ></text>
</g>
<g >
<title>__libc_start_call_main (27,486,031,280 samples, 100.00%)</title><rect x="10.0" y="469" width="1180.0" height="15.0" fill="rgb(210,26,6)" rx="2" ry="2" />
<text  x="13.00" y="479.5" >__libc_start_call_main</text>
</g>
<g >
<title>PinBuffer (112,758,006 samples, 0.41%)</title><rect x="1165.7" y="197" width="4.8" height="15.0" fill="rgb(219,64,15)" rx="2" ry="2" />
<text  x="1168.68" y="207.5" ></text>
</g>
<g >
<title>pgstat_count_backend_io_op (16,502,469 samples, 0.06%)</title><rect x="1170.9" y="197" width="0.7" height="15.0" fill="rgb(244,179,42)" rx="2" ry="2" />
<text  x="1173.87" y="207.5" ></text>
</g>
<g >
<title>scheduler_tick (2,751,093 samples, 0.01%)</title><rect x="1016.0" y="101" width="0.1" height="15.0" fill="rgb(246,190,45)" rx="2" ry="2" />
<text  x="1019.03" y="111.5" ></text>
</g>
<g >
<title>__hrtimer_run_queues (2,750,673 samples, 0.01%)</title><rect x="1065.6" y="165" width="0.1" height="15.0" fill="rgb(237,150,35)" rx="2" ry="2" />
<text  x="1068.62" y="175.5" ></text>
</g>
<g >
<title>pgstat_count_io_op (22,003,014 samples, 0.08%)</title><rect x="1173.6" y="213" width="0.9" height="15.0" fill="rgb(207,10,2)" rx="2" ry="2" />
<text  x="1176.59" y="223.5" ></text>
</g>
<g >
<title>hrtimer_interrupt (2,750,707 samples, 0.01%)</title><rect x="107.0" y="197" width="0.1" height="15.0" fill="rgb(228,109,26)" rx="2" ry="2" />
<text  x="109.97" y="207.5" ></text>
</g>
<g >
<title>slot_getsomeattrs_int (8,250,744 samples, 0.03%)</title><rect x="1187.0" y="277" width="0.4" height="15.0" fill="rgb(252,219,52)" rx="2" ry="2" />
<text  x="1190.05" y="287.5" ></text>
</g>
<g >
<title>LWLockRelease (8,251,610 samples, 0.03%)</title><rect x="1165.3" y="197" width="0.4" height="15.0" fill="rgb(217,58,13)" rx="2" ry="2" />
<text  x="1168.32" y="207.5" ></text>
</g>
<g >
<title>scheduler_tick (2,750,835 samples, 0.01%)</title><rect x="382.4" y="101" width="0.2" height="15.0" fill="rgb(246,190,45)" rx="2" ry="2" />
<text  x="385.45" y="111.5" ></text>
</g>
<g >
<title>LWLockRelease (27,504,725 samples, 0.10%)</title><rect x="1133.4" y="229" width="1.2" height="15.0" fill="rgb(217,58,13)" rx="2" ry="2" />
<text  x="1136.39" y="239.5" ></text>
</g>
<g >
<title>heap_getnextslot (151,255,742 samples, 0.55%)</title><rect x="1176.4" y="277" width="6.5" height="15.0" fill="rgb(213,40,9)" rx="2" ry="2" />
<text  x="1179.42" y="287.5" ></text>
</g>
<g >
<title>update_process_times (5,501,533 samples, 0.02%)</title><rect x="382.3" y="117" width="0.3" height="15.0" fill="rgb(250,209,50)" rx="2" ry="2" />
<text  x="385.33" y="127.5" ></text>
</g>
<g >
<title>heap_scan_stream_read_next_serial (5,501,160 samples, 0.02%)</title><rect x="1173.4" y="213" width="0.2" height="15.0" fill="rgb(205,4,0)" rx="2" ry="2" />
<text  x="1176.35" y="223.5" ></text>
</g>
<g >
<title>hash_search_with_hash_value (291,500,755 samples, 1.06%)</title><rect x="1150.7" y="181" width="12.5" height="15.0" fill="rgb(249,205,49)" rx="2" ry="2" />
<text  x="1153.68" y="191.5" ></text>
</g>
<g >
<title>update_wall_time (2,750,694 samples, 0.01%)</title><rect x="1015.9" y="101" width="0.1" height="15.0" fill="rgb(207,11,2)" rx="2" ry="2" />
<text  x="1018.91" y="111.5" ></text>
</g>
<g >
<title>pg_utf_mblen_private (14,760,892,130 samples, 53.70%)</title><rect x="382.6" y="245" width="633.7" height="15.0" fill="rgb(242,173,41)" rx="2" ry="2" />
<text  x="385.57" y="255.5" >pg_utf_mblen_private</text>
</g>
<g >
<title>tick_sched_handle (2,750,673 samples, 0.01%)</title><rect x="1065.6" y="133" width="0.1" height="15.0" fill="rgb(219,68,16)" rx="2" ry="2" />
<text  x="1068.62" y="143.5" ></text>
</g>
<g >
<title>sysvec_apic_timer_interrupt (11,003,170 samples, 0.04%)</title><rect x="382.1" y="213" width="0.5" height="15.0" fill="rgb(220,69,16)" rx="2" ry="2" />
<text  x="385.09" y="223.5" ></text>
</g>
<g >
<title>__sysvec_apic_timer_interrupt (11,003,170 samples, 0.04%)</title><rect x="382.1" y="197" width="0.5" height="15.0" fill="rgb(242,173,41)" rx="2" ry="2" />
<text  x="385.09" y="207.5" ></text>
</g>
<g >
<title>__hrtimer_run_queues (8,252,126 samples, 0.03%)</title><rect x="382.2" y="165" width="0.4" height="15.0" fill="rgb(237,150,35)" rx="2" ry="2" />
<text  x="385.21" y="175.5" ></text>
</g>
<g >
<title>ExecStoreBufferHeapTuple (55,008,858 samples, 0.20%)</title><rect x="1087.8" y="261" width="2.4" height="15.0" fill="rgb(230,117,28)" rx="2" ry="2" />
<text  x="1090.81" y="271.5" ></text>
</g>
<g >
<title>LWLockAcquire (2,750,853 samples, 0.01%)</title><rect x="1139.9" y="213" width="0.1" height="15.0" fill="rgb(209,20,4)" rx="2" ry="2" />
<text  x="1142.89" y="223.5" ></text>
</g>
<g >
<title>scheduler_tick (2,750,673 samples, 0.01%)</title><rect x="1065.6" y="101" width="0.1" height="15.0" fill="rgb(246,190,45)" rx="2" ry="2" />
<text  x="1068.62" y="111.5" ></text>
</g>
<g >
<title>update_process_times (2,751,093 samples, 0.01%)</title><rect x="1016.0" y="117" width="0.1" height="15.0" fill="rgb(250,209,50)" rx="2" ry="2" />
<text  x="1019.03" y="127.5" ></text>
</g>
<g >
<title>tts_buffer_heap_getsomeattrs (101,756,395 samples, 0.37%)</title><rect x="1065.7" y="261" width="4.4" height="15.0" fill="rgb(222,81,19)" rx="2" ry="2" />
<text  x="1068.73" y="271.5" ></text>
</g>
<g >
<title>sysvec_apic_timer_interrupt (2,750,768 samples, 0.01%)</title><rect x="1079.3" y="245" width="0.1" height="15.0" fill="rgb(220,69,16)" rx="2" ry="2" />
<text  x="1082.31" y="255.5" ></text>
</g>
<g >
<title>tick_sched_do_timer (2,750,593 samples, 0.01%)</title><rect x="382.2" y="133" width="0.1" height="15.0" fill="rgb(227,104,25)" rx="2" ry="2" />
<text  x="385.21" y="143.5" ></text>
</g>
<g >
<title>pg_database_encoding_max_length (11,002,102 samples, 0.04%)</title><rect x="1016.3" y="261" width="0.4" height="15.0" fill="rgb(243,176,42)" rx="2" ry="2" />
<text  x="1019.26" y="271.5" ></text>
</g>
<g >
<title>tick_do_update_jiffies64 (2,750,593 samples, 0.01%)</title><rect x="382.2" y="117" width="0.1" height="15.0" fill="rgb(208,14,3)" rx="2" ry="2" />
<text  x="385.21" y="127.5" ></text>
</g>
<g >
<title>UnpinBufferNoOwner (11,000,843 samples, 0.04%)</title><rect x="1135.8" y="229" width="0.4" height="15.0" fill="rgb(253,221,53)" rx="2" ry="2" />
<text  x="1138.75" y="239.5" ></text>
</g>
<g >
<title>PostgresMain (27,486,031,280 samples, 100.00%)</title><rect x="10.0" y="373" width="1180.0" height="15.0" fill="rgb(227,103,24)" rx="2" ry="2" />
<text  x="13.00" y="383.5" >PostgresMain</text>
</g>
<g >
<title>PortalRunSelect (27,486,031,280 samples, 100.00%)</title><rect x="10.0" y="325" width="1180.0" height="15.0" fill="rgb(245,188,45)" rx="2" ry="2" />
<text  x="13.00" y="335.5" >PortalRunSelect</text>
</g>
<g >
<title>sysvec_apic_timer_interrupt (2,750,673 samples, 0.01%)</title><rect x="1065.6" y="213" width="0.1" height="15.0" fill="rgb(220,69,16)" rx="2" ry="2" />
<text  x="1068.62" y="223.5" ></text>
</g>
<g >
<title>BufTableLookup (291,500,755 samples, 1.06%)</title><rect x="1150.7" y="197" width="12.5" height="15.0" fill="rgb(224,89,21)" rx="2" ry="2" />
<text  x="1153.68" y="207.5" ></text>
</g>
<g >
<title>UnpinBufferNoOwner (38,498,717 samples, 0.14%)</title><rect x="1110.5" y="229" width="1.6" height="15.0" fill="rgb(253,221,53)" rx="2" ry="2" />
<text  x="1113.48" y="239.5" ></text>
</g>
<g >
<title>__sysvec_apic_timer_interrupt (2,750,768 samples, 0.01%)</title><rect x="1079.3" y="229" width="0.1" height="15.0" fill="rgb(242,173,41)" rx="2" ry="2" />
<text  x="1082.31" y="239.5" ></text>
</g>
<g >
<title>PortalRun (27,486,031,280 samples, 100.00%)</title><rect x="10.0" y="341" width="1180.0" height="15.0" fill="rgb(223,85,20)" rx="2" ry="2" />
<text  x="13.00" y="351.5" >PortalRun</text>
</g>
<g >
<title>amd_pmu_addr_offset (2,750,768 samples, 0.01%)</title><rect x="1079.3" y="37" width="0.1" height="15.0" fill="rgb(227,104,25)" rx="2" ry="2" />
<text  x="1082.31" y="47.5" ></text>
</g>
<g >
<title>GetPrivateRefCountEntry (5,500,493 samples, 0.02%)</title><rect x="1136.0" y="213" width="0.2" height="15.0" fill="rgb(250,209,50)" rx="2" ry="2" />
<text  x="1138.99" y="223.5" ></text>
</g>
<g >
<title>slot_getsomeattrs_int (1,108,341,305 samples, 4.03%)</title><rect x="1018.2" y="261" width="47.5" height="15.0" fill="rgb(252,219,52)" rx="2" ry="2" />
<text  x="1021.15" y="271.5" >slot..</text>
</g>
<g >
<title>ReleaseBuffer (11,001,669 samples, 0.04%)</title><rect x="1110.0" y="229" width="0.5" height="15.0" fill="rgb(220,71,17)" rx="2" ry="2" />
<text  x="1113.01" y="239.5" ></text>
</g>
<g >
<title>postmaster_child_launch (27,486,031,280 samples, 100.00%)</title><rect x="10.0" y="405" width="1180.0" height="15.0" fill="rgb(206,5,1)" rx="2" ry="2" />
<text  x="13.00" y="415.5" >postmaster_child_launch</text>
</g>
<g >
<title>update_load_avg (2,750,673 samples, 0.01%)</title><rect x="1065.6" y="69" width="0.1" height="15.0" fill="rgb(240,165,39)" rx="2" ry="2" />
<text  x="1068.62" y="79.5" ></text>
</g>
<g >
<title>GetPrivateRefCountEntry (5,500,790 samples, 0.02%)</title><rect x="1109.8" y="213" width="0.2" height="15.0" fill="rgb(250,209,50)" rx="2" ry="2" />
<text  x="1112.78" y="223.5" ></text>
</g>
<g >
<title>tick_sched_handle (5,501,533 samples, 0.02%)</title><rect x="382.3" y="133" width="0.3" height="15.0" fill="rgb(219,68,16)" rx="2" ry="2" />
<text  x="385.33" y="143.5" ></text>
</g>
<g >
<title>pg_mbstrlen_with_len (22,002,483 samples, 0.08%)</title><rect x="1017.2" y="261" width="1.0" height="15.0" fill="rgb(228,106,25)" rx="2" ry="2" />
<text  x="1020.21" y="271.5" ></text>
</g>
<g >
<title>asm_sysvec_apic_timer_interrupt (2,750,707 samples, 0.01%)</title><rect x="107.0" y="245" width="0.1" height="15.0" fill="rgb(232,127,30)" rx="2" ry="2" />
<text  x="109.97" y="255.5" ></text>
</g>
<g >
<title>sysvec_apic_timer_interrupt (2,750,707 samples, 0.01%)</title><rect x="107.0" y="229" width="0.1" height="15.0" fill="rgb(220,69,16)" rx="2" ry="2" />
<text  x="109.97" y="239.5" ></text>
</g>
<g >
<title>ExecStoreBufferHeapTuple (250,327,217 samples, 0.91%)</title><rect x="1101.4" y="245" width="10.7" height="15.0" fill="rgb(230,117,28)" rx="2" ry="2" />
<text  x="1104.39" y="255.5" ></text>
</g>
<g >
<title>tick_sched_do_timer (2,750,694 samples, 0.01%)</title><rect x="1015.9" y="133" width="0.1" height="15.0" fill="rgb(227,104,25)" rx="2" ry="2" />
<text  x="1018.91" y="143.5" ></text>
</g>
<g >
<title>tick_program_event (2,751,079 samples, 0.01%)</title><rect x="1016.1" y="165" width="0.2" height="15.0" fill="rgb(241,166,39)" rx="2" ry="2" />
<text  x="1019.15" y="175.5" ></text>
</g>
<g >
<title>update_process_times (2,750,673 samples, 0.01%)</title><rect x="1065.6" y="117" width="0.1" height="15.0" fill="rgb(250,209,50)" rx="2" ry="2" />
<text  x="1068.62" y="127.5" ></text>
</g>
<g >
<title>hrtimer_interrupt (8,252,866 samples, 0.03%)</title><rect x="1015.9" y="181" width="0.4" height="15.0" fill="rgb(228,109,26)" rx="2" ry="2" />
<text  x="1018.91" y="191.5" ></text>
</g>
<g >
<title>ReservePrivateRefCountEntry (2,750,084 samples, 0.01%)</title><rect x="1142.6" y="213" width="0.1" height="15.0" fill="rgb(232,125,30)" rx="2" ry="2" />
<text  x="1145.60" y="223.5" ></text>
</g>
<g >
<title>timekeeping_advance (2,750,593 samples, 0.01%)</title><rect x="382.2" y="85" width="0.1" height="15.0" fill="rgb(227,104,25)" rx="2" ry="2" />
<text  x="385.21" y="95.5" ></text>
</g>
<g >
<title>__sysvec_apic_timer_interrupt (2,750,707 samples, 0.01%)</title><rect x="107.0" y="213" width="0.1" height="15.0" fill="rgb(242,173,41)" rx="2" ry="2" />
<text  x="109.97" y="223.5" ></text>
</g>
<g >
<title>StartReadBuffer (688,765,002 samples, 2.51%)</title><rect x="1142.7" y="213" width="29.6" height="15.0" fill="rgb(222,78,18)" rx="2" ry="2" />
<text  x="1145.72" y="223.5" >St..</text>
</g>
<g >
<title>asm_sysvec_apic_timer_interrupt (2,750,673 samples, 0.01%)</title><rect x="1065.6" y="229" width="0.1" height="15.0" fill="rgb(232,127,30)" rx="2" ry="2" />
<text  x="1068.62" y="239.5" ></text>
</g>
<g >
<title>tick_sched_timer (2,750,768 samples, 0.01%)</title><rect x="1079.3" y="181" width="0.1" height="15.0" fill="rgb(254,227,54)" rx="2" ry="2" />
<text  x="1082.31" y="191.5" ></text>
</g>
<g >
<title>heap_prepare_pagescan (96,264,728 samples, 0.35%)</title><rect x="1136.5" y="229" width="4.1" height="15.0" fill="rgb(222,82,19)" rx="2" ry="2" />
<text  x="1139.46" y="239.5" ></text>
</g>
<g >
<title>tick_sched_timer (5,501,787 samples, 0.02%)</title><rect x="1015.9" y="149" width="0.2" height="15.0" fill="rgb(254,227,54)" rx="2" ry="2" />
<text  x="1018.91" y="159.5" ></text>
</g>
<g >
<title>hash_search_with_hash_value (2,750,984 samples, 0.01%)</title><rect x="1170.8" y="197" width="0.1" height="15.0" fill="rgb(249,205,49)" rx="2" ry="2" />
<text  x="1173.75" y="207.5" ></text>
</g>
<g >
<title>tick_sched_handle (2,750,768 samples, 0.01%)</title><rect x="1079.3" y="165" width="0.1" height="15.0" fill="rgb(219,68,16)" rx="2" ry="2" />
<text  x="1082.31" y="175.5" ></text>
</g>
<g >
<title>pg_detoast_datum_packed (11,001,766 samples, 0.04%)</title><rect x="1016.7" y="261" width="0.5" height="15.0" fill="rgb(238,155,37)" rx="2" ry="2" />
<text  x="1019.74" y="271.5" ></text>
</g>
<g >
<title>ReleaseBuffer (24,753,885 samples, 0.09%)</title><rect x="1134.7" y="229" width="1.1" height="15.0" fill="rgb(220,71,17)" rx="2" ry="2" />
<text  x="1137.69" y="239.5" ></text>
</g>
<g >
<title>ExecInterpExpr (24,390,706,741 samples, 88.74%)</title><rect x="23.0" y="277" width="1047.1" height="15.0" fill="rgb(225,96,22)" rx="2" ry="2" />
<text  x="25.99" y="287.5" >ExecInterpExpr</text>
</g>
<g >
<title>pg_mbstrlen_with_len (6,416,830,908 samples, 23.35%)</title><rect x="107.1" y="245" width="275.5" height="15.0" fill="rgb(228,106,25)" rx="2" ry="2" />
<text  x="110.08" y="255.5" >pg_mbstrlen_with_len</text>
</g>
<g >
<title>LWLockAttemptLock (11,002,941 samples, 0.04%)</title><rect x="1140.0" y="213" width="0.5" height="15.0" fill="rgb(235,138,33)" rx="2" ry="2" />
<text  x="1143.00" y="223.5" ></text>
</g>
<g >
<title>postgres (27,486,031,280 samples, 100.00%)</title><rect x="10.0" y="485" width="1180.0" height="15.0" fill="rgb(233,131,31)" rx="2" ry="2" />
<text  x="13.00" y="495.5" >postgres</text>
</g>
<g >
<title>task_tick_fair (2,750,673 samples, 0.01%)</title><rect x="1065.6" y="85" width="0.1" height="15.0" fill="rgb(217,57,13)" rx="2" ry="2" />
<text  x="1068.62" y="95.5" ></text>
</g>
<g >
<title>sysvec_apic_timer_interrupt (11,003,129 samples, 0.04%)</title><rect x="1015.8" y="213" width="0.5" height="15.0" fill="rgb(220,69,16)" rx="2" ry="2" />
<text  x="1018.79" y="223.5" ></text>
</g>
<g >
<title>read_stream_next_buffer (2,750,849 samples, 0.01%)</title><rect x="1174.5" y="245" width="0.2" height="15.0" fill="rgb(216,50,12)" rx="2" ry="2" />
<text  x="1177.53" y="255.5" ></text>
</g>
<g >
<title>perf_event_task_tick (2,750,768 samples, 0.01%)</title><rect x="1079.3" y="117" width="0.1" height="15.0" fill="rgb(205,3,0)" rx="2" ry="2" />
<text  x="1082.31" y="127.5" ></text>
</g>
<g >
<title>LWLockAcquire (8,252,306 samples, 0.03%)</title><rect x="1163.2" y="197" width="0.4" height="15.0" fill="rgb(209,20,4)" rx="2" ry="2" />
<text  x="1166.20" y="207.5" ></text>
</g>
<g >
<title>heap_prepare_pagescan (49,507,522 samples, 0.18%)</title><rect x="1113.2" y="245" width="2.1" height="15.0" fill="rgb(222,82,19)" rx="2" ry="2" />
<text  x="1116.20" y="255.5" ></text>
</g>
<g >
<title>__hrtimer_run_queues (2,750,707 samples, 0.01%)</title><rect x="107.0" y="181" width="0.1" height="15.0" fill="rgb(237,150,35)" rx="2" ry="2" />
<text  x="109.97" y="191.5" ></text>
</g>
<g >
<title>BufferGetBlockNumber (30,253,760 samples, 0.11%)</title><rect x="1100.1" y="245" width="1.3" height="15.0" fill="rgb(206,7,1)" rx="2" ry="2" />
<text  x="1103.09" y="255.5" ></text>
</g>
<g >
<title>standard_ExecutorRun (27,486,031,280 samples, 100.00%)</title><rect x="10.0" y="309" width="1180.0" height="15.0" fill="rgb(247,196,47)" rx="2" ry="2" />
<text  x="13.00" y="319.5" >standard_ExecutorRun</text>
</g>
<g >
<title>__sysvec_apic_timer_interrupt (11,003,129 samples, 0.04%)</title><rect x="1015.8" y="197" width="0.5" height="15.0" fill="rgb(242,173,41)" rx="2" ry="2" />
<text  x="1018.79" y="207.5" ></text>
</g>
<g >
<title>scheduler_tick (2,750,768 samples, 0.01%)</title><rect x="1079.3" y="133" width="0.1" height="15.0" fill="rgb(246,190,45)" rx="2" ry="2" />
<text  x="1082.31" y="143.5" ></text>
</g>
<g >
<title>pgstat_count_io_op (16,503,094 samples, 0.06%)</title><rect x="1171.6" y="197" width="0.7" height="15.0" fill="rgb(207,10,2)" rx="2" ry="2" />
<text  x="1174.58" y="207.5" ></text>
</g>
<g >
<title>ResourceOwnerForget (2,750,367 samples, 0.01%)</title><rect x="1110.4" y="213" width="0.1" height="15.0" fill="rgb(235,142,33)" rx="2" ry="2" />
<text  x="1113.37" y="223.5" ></text>
</g>
<g >
<title>__sysvec_apic_timer_interrupt (2,750,673 samples, 0.01%)</title><rect x="1065.6" y="197" width="0.1" height="15.0" fill="rgb(242,173,41)" rx="2" ry="2" />
<text  x="1068.62" y="207.5" ></text>
</g>
<g >
<title>MemoryContextReset (44,007,719 samples, 0.16%)</title><rect x="1187.4" y="293" width="1.9" height="15.0" fill="rgb(210,26,6)" rx="2" ry="2" />
<text  x="1190.40" y="303.5" ></text>
</g>
<g >
<title>calc_global_load (2,750,707 samples, 0.01%)</title><rect x="107.0" y="133" width="0.1" height="15.0" fill="rgb(208,14,3)" rx="2" ry="2" />
<text  x="109.97" y="143.5" ></text>
</g>
<g >
<title>heap_page_prune_opt (5,501,116 samples, 0.02%)</title><rect x="1136.2" y="229" width="0.3" height="15.0" fill="rgb(211,29,7)" rx="2" ry="2" />
<text  x="1139.23" y="239.5" ></text>
</g>
<g >
<title>tick_sched_timer (8,252,126 samples, 0.03%)</title><rect x="382.2" y="149" width="0.4" height="15.0" fill="rgb(254,227,54)" rx="2" ry="2" />
<text  x="385.21" y="159.5" ></text>
</g>
<g >
<title>task_tick_fair (2,750,835 samples, 0.01%)</title><rect x="382.4" y="85" width="0.2" height="15.0" fill="rgb(217,57,13)" rx="2" ry="2" />
<text  x="385.45" y="95.5" ></text>
</g>
<g >
<title>timekeeping_update (2,750,593 samples, 0.01%)</title><rect x="382.2" y="69" width="0.1" height="15.0" fill="rgb(238,152,36)" rx="2" ry="2" />
<text  x="385.21" y="79.5" ></text>
</g>
<g >
<title>__hrtimer_run_queues (2,750,768 samples, 0.01%)</title><rect x="1079.3" y="197" width="0.1" height="15.0" fill="rgb(237,150,35)" rx="2" ry="2" />
<text  x="1082.31" y="207.5" ></text>
</g>
<g >
<title>ResourceOwnerEnlarge (2,750,342 samples, 0.01%)</title><rect x="1170.6" y="197" width="0.2" height="15.0" fill="rgb(223,86,20)" rx="2" ry="2" />
<text  x="1173.64" y="207.5" ></text>
</g>
<g >
<title>clockevents_program_event (2,751,079 samples, 0.01%)</title><rect x="1016.1" y="149" width="0.2" height="15.0" fill="rgb(244,182,43)" rx="2" ry="2" />
<text  x="1019.15" y="159.5" ></text>
</g>
<g >
<title>ServerLoop (27,486,031,280 samples, 100.00%)</title><rect x="10.0" y="421" width="1180.0" height="15.0" fill="rgb(238,155,37)" rx="2" ry="2" />
<text  x="13.00" y="431.5" >ServerLoop</text>
</g>
<g >
<title>ReleaseBuffer (24,751,936 samples, 0.09%)</title><rect x="1112.1" y="245" width="1.1" height="15.0" fill="rgb(220,71,17)" rx="2" ry="2" />
<text  x="1115.14" y="255.5" ></text>
</g>
<g >
<title>MemoryContextReset (217,274,545 samples, 0.79%)</title><rect x="1070.1" y="277" width="9.3" height="15.0" fill="rgb(210,26,6)" rx="2" ry="2" />
<text  x="1073.10" y="287.5" ></text>
</g>
<g >
<title>read_stream_next_buffer (785,031,759 samples, 2.86%)</title><rect x="1140.8" y="229" width="33.7" height="15.0" fill="rgb(216,50,12)" rx="2" ry="2" />
<text  x="1143.83" y="239.5" >re..</text>
</g>
<g >
<title>ResourceOwnerForget (11,001,378 samples, 0.04%)</title><rect x="1135.3" y="213" width="0.5" height="15.0" fill="rgb(235,142,33)" rx="2" ry="2" />
<text  x="1138.28" y="223.5" ></text>
</g>
<g >
<title>[postgres] (27,486,031,280 samples, 100.00%)</title><rect x="10.0" y="389" width="1180.0" height="15.0" fill="rgb(245,184,44)" rx="2" ry="2" />
<text  x="13.00" y="399.5" >[postgres]</text>
</g>
<g >
<title>heap_getnextslot (1,967,689,147 samples, 7.16%)</title><rect x="1090.2" y="261" width="84.5" height="15.0" fill="rgb(213,40,9)" rx="2" ry="2" />
<text  x="1093.18" y="271.5" >heap_getn..</text>
</g>
<g >
<title>hrtimer_interrupt (2,750,768 samples, 0.01%)</title><rect x="1079.3" y="213" width="0.1" height="15.0" fill="rgb(228,109,26)" rx="2" ry="2" />
<text  x="1082.31" y="223.5" ></text>
</g>
<g >
<title>perf_adjust_freq_unthr_context (2,750,768 samples, 0.01%)</title><rect x="1079.3" y="101" width="0.1" height="15.0" fill="rgb(236,146,35)" rx="2" ry="2" />
<text  x="1082.31" y="111.5" ></text>
</g>
<g >
<title>bpcharlen (41,254,830 samples, 0.15%)</title><rect x="1174.7" y="277" width="1.7" height="15.0" fill="rgb(221,77,18)" rx="2" ry="2" />
<text  x="1177.65" y="287.5" ></text>
</g>
<g >
<title>exec_simple_query (27,486,031,280 samples, 100.00%)</title><rect x="10.0" y="357" width="1180.0" height="15.0" fill="rgb(211,29,6)" rx="2" ry="2" />
<text  x="13.00" y="367.5" >exec_simple_query</text>
</g>
<g >
<title>hash_bytes (24,756,371 samples, 0.09%)</title><rect x="1172.3" y="213" width="1.1" height="15.0" fill="rgb(227,102,24)" rx="2" ry="2" />
<text  x="1175.29" y="223.5" ></text>
</g>
<g >
<title>asm_sysvec_apic_timer_interrupt (2,750,768 samples, 0.01%)</title><rect x="1079.3" y="261" width="0.1" height="15.0" fill="rgb(232,127,30)" rx="2" ry="2" />
<text  x="1082.31" y="271.5" ></text>
</g>
<g >
<title>IncrBufferRefCount (13,751,742 samples, 0.05%)</title><rect x="1109.4" y="229" width="0.6" height="15.0" fill="rgb(209,22,5)" rx="2" ry="2" />
<text  x="1112.42" y="239.5" ></text>
</g>
<g >
<title>timekeeping_advance (2,750,694 samples, 0.01%)</title><rect x="1015.9" y="85" width="0.1" height="15.0" fill="rgb(227,104,25)" rx="2" ry="2" />
<text  x="1018.91" y="95.5" ></text>
</g>
</g>
</svg>
