<?xml version="1.0" standalone="no"?>
<!DOCTYPE svg PUBLIC "-//W3C//DTD SVG 1.1//EN" "http://www.w3.org/Graphics/SVG/1.1/DTD/svg11.dtd">
<svg version="1.1" width="1200" height="582" onload="init(evt)" viewBox="0 0 1200 582" xmlns="http://www.w3.org/2000/svg" xmlns:xlink="http://www.w3.org/1999/xlink">
<!-- Flame graph stack visualization. See https://github.com/brendangregg/FlameGraph for latest version, and http://www.brendangregg.com/flamegraphs.html for examples. -->
<!-- NOTES:  -->
<defs>
	<linearGradient id="background" y1="0" y2="1" x1="0" x2="0" >
		<stop stop-color="#eeeeee" offset="5%" />
		<stop stop-color="#eeeeb0" offset="95%" />
	</linearGradient>
</defs>
<style type="text/css">
	text { font-family:Verdana; font-size:12px; fill:rgb(0,0,0); }
	#search, #ignorecase { opacity:0.1; cursor:pointer; }
	#search:hover, #search.show, #ignorecase:hover, #ignorecase.show { opacity:1; }
	#subtitle { text-anchor:middle; font-color:rgb(160,160,160); }
	#title { text-anchor:middle; font-size:17px}
	#unzoom { cursor:pointer; }
	#frames > *:hover { stroke:black; stroke-width:0.5; cursor:pointer; }
	.hide { display:none; }
	.parent { opacity:0.5; }
</style>
<script type="text/ecmascript">
<![CDATA[
	"use strict";
	var details, searchbtn, unzoombtn, matchedtxt, svg, searching, currentSearchTerm, ignorecase, ignorecaseBtn;
	function init(evt) {
		details = document.getElementById("details").firstChild;
		searchbtn = document.getElementById("search");
		ignorecaseBtn = document.getElementById("ignorecase");
		unzoombtn = document.getElementById("unzoom");
		matchedtxt = document.getElementById("matched");
		svg = document.getElementsByTagName("svg")[0];
		searching = 0;
		currentSearchTerm = null;

		// use GET parameters to restore a flamegraphs state.
		var params = get_params();
		if (params.x && params.y)
			zoom(find_group(document.querySelector('[x="' + params.x + '"][y="' + params.y + '"]')));
                if (params.s) search(params.s);
	}

	// event listeners
	window.addEventListener("click", function(e) {
		var target = find_group(e.target);
		if (target) {
			if (target.nodeName == "a") {
				if (e.ctrlKey === false) return;
				e.preventDefault();
			}
			if (target.classList.contains("parent")) unzoom(true);
			zoom(target);
			if (!document.querySelector('.parent')) {
				// we have basically done a clearzoom so clear the url
				var params = get_params();
				if (params.x) delete params.x;
				if (params.y) delete params.y;
				history.replaceState(null, null, parse_params(params));
				unzoombtn.classList.add("hide");
				return;
			}

			// set parameters for zoom state
			var el = target.querySelector("rect");
			if (el && el.attributes && el.attributes.y && el.attributes._orig_x) {
				var params = get_params()
				params.x = el.attributes._orig_x.value;
				params.y = el.attributes.y.value;
				history.replaceState(null, null, parse_params(params));
			}
		}
		else if (e.target.id == "unzoom") clearzoom();
		else if (e.target.id == "search") search_prompt();
		else if (e.target.id == "ignorecase") toggle_ignorecase();
	}, false)

	// mouse-over for info
	// show
	window.addEventListener("mouseover", function(e) {
		var target = find_group(e.target);
		if (target) details.nodeValue = "Function: " + g_to_text(target);
	}, false)

	// clear
	window.addEventListener("mouseout", function(e) {
		var target = find_group(e.target);
		if (target) details.nodeValue = ' ';
	}, false)

	// ctrl-F for search
	// ctrl-I to toggle case-sensitive search
	window.addEventListener("keydown",function (e) {
		if (e.keyCode === 114 || (e.ctrlKey && e.keyCode === 70)) {
			e.preventDefault();
			search_prompt();
		}
		else if (e.ctrlKey && e.keyCode === 73) {
			e.preventDefault();
			toggle_ignorecase();
		}
	}, false)

	// functions
	function get_params() {
		var params = {};
		var paramsarr = window.location.search.substr(1).split('&');
		for (var i = 0; i < paramsarr.length; ++i) {
			var tmp = paramsarr[i].split("=");
			if (!tmp[0] || !tmp[1]) continue;
			params[tmp[0]]  = decodeURIComponent(tmp[1]);
		}
		return params;
	}
	function parse_params(params) {
		var uri = "?";
		for (var key in params) {
			uri += key + '=' + encodeURIComponent(params[key]) + '&';
		}
		if (uri.slice(-1) == "&")
			uri = uri.substring(0, uri.length - 1);
		if (uri == '?')
			uri = window.location.href.split('?')[0];
		return uri;
	}
	function find_child(node, selector) {
		var children = node.querySelectorAll(selector);
		if (children.length) return children[0];
	}
	function find_group(node) {
		var parent = node.parentElement;
		if (!parent) return;
		if (parent.id == "frames") return node;
		return find_group(parent);
	}
	function orig_save(e, attr, val) {
		if (e.attributes["_orig_" + attr] != undefined) return;
		if (e.attributes[attr] == undefined) return;
		if (val == undefined) val = e.attributes[attr].value;
		e.setAttribute("_orig_" + attr, val);
	}
	function orig_load(e, attr) {
		if (e.attributes["_orig_"+attr] == undefined) return;
		e.attributes[attr].value = e.attributes["_orig_" + attr].value;
		e.removeAttribute("_orig_"+attr);
	}
	function g_to_text(e) {
		var text = find_child(e, "title").firstChild.nodeValue;
		return (text)
	}
	function g_to_func(e) {
		var func = g_to_text(e);
		// if there's any manipulation we want to do to the function
		// name before it's searched, do it here before returning.
		return (func);
	}
	function update_text(e) {
		var r = find_child(e, "rect");
		var t = find_child(e, "text");
		var w = parseFloat(r.attributes.width.value) -3;
		var txt = find_child(e, "title").textContent.replace(/\([^(]*\)$/,"");
		t.attributes.x.value = parseFloat(r.attributes.x.value) + 3;

		// Smaller than this size won't fit anything
		if (w < 2 * 12 * 0.59) {
			t.textContent = "";
			return;
		}

		t.textContent = txt;
		var sl = t.getSubStringLength(0, txt.length);
		// check if only whitespace or if we can fit the entire string into width w
		if (/^ *$/.test(txt) || sl < w)
			return;

		// this isn't perfect, but gives a good starting point
		// and avoids calling getSubStringLength too often
		var start = Math.floor((w/sl) * txt.length);
		for (var x = start; x > 0; x = x-2) {
			if (t.getSubStringLength(0, x + 2) <= w) {
				t.textContent = txt.substring(0, x) + "..";
				return;
			}
		}
		t.textContent = "";
	}

	// zoom
	function zoom_reset(e) {
		if (e.attributes != undefined) {
			orig_load(e, "x");
			orig_load(e, "width");
		}
		if (e.childNodes == undefined) return;
		for (var i = 0, c = e.childNodes; i < c.length; i++) {
			zoom_reset(c[i]);
		}
	}
	function zoom_child(e, x, ratio) {
		if (e.attributes != undefined) {
			if (e.attributes.x != undefined) {
				orig_save(e, "x");
				e.attributes.x.value = (parseFloat(e.attributes.x.value) - x - 10) * ratio + 10;
				if (e.tagName == "text")
					e.attributes.x.value = find_child(e.parentNode, "rect[x]").attributes.x.value + 3;
			}
			if (e.attributes.width != undefined) {
				orig_save(e, "width");
				e.attributes.width.value = parseFloat(e.attributes.width.value) * ratio;
			}
		}

		if (e.childNodes == undefined) return;
		for (var i = 0, c = e.childNodes; i < c.length; i++) {
			zoom_child(c[i], x - 10, ratio);
		}
	}
	function zoom_parent(e) {
		if (e.attributes) {
			if (e.attributes.x != undefined) {
				orig_save(e, "x");
				e.attributes.x.value = 10;
			}
			if (e.attributes.width != undefined) {
				orig_save(e, "width");
				e.attributes.width.value = parseInt(svg.width.baseVal.value) - (10 * 2);
			}
		}
		if (e.childNodes == undefined) return;
		for (var i = 0, c = e.childNodes; i < c.length; i++) {
			zoom_parent(c[i]);
		}
	}
	function zoom(node) {
		var attr = find_child(node, "rect").attributes;
		var width = parseFloat(attr.width.value);
		var xmin = parseFloat(attr.x.value);
		var xmax = parseFloat(xmin + width);
		var ymin = parseFloat(attr.y.value);
		var ratio = (svg.width.baseVal.value - 2 * 10) / width;

		// XXX: Workaround for JavaScript float issues (fix me)
		var fudge = 0.0001;

		unzoombtn.classList.remove("hide");

		var el = document.getElementById("frames").children;
		for (var i = 0; i < el.length; i++) {
			var e = el[i];
			var a = find_child(e, "rect").attributes;
			var ex = parseFloat(a.x.value);
			var ew = parseFloat(a.width.value);
			var upstack;
			// Is it an ancestor
			if (0 == 0) {
				upstack = parseFloat(a.y.value) > ymin;
			} else {
				upstack = parseFloat(a.y.value) < ymin;
			}
			if (upstack) {
				// Direct ancestor
				if (ex <= xmin && (ex+ew+fudge) >= xmax) {
					e.classList.add("parent");
					zoom_parent(e);
					update_text(e);
				}
				// not in current path
				else
					e.classList.add("hide");
			}
			// Children maybe
			else {
				// no common path
				if (ex < xmin || ex + fudge >= xmax) {
					e.classList.add("hide");
				}
				else {
					zoom_child(e, xmin, ratio);
					update_text(e);
				}
			}
		}
		search();
	}
	function unzoom(dont_update_text) {
		unzoombtn.classList.add("hide");
		var el = document.getElementById("frames").children;
		for(var i = 0; i < el.length; i++) {
			el[i].classList.remove("parent");
			el[i].classList.remove("hide");
			zoom_reset(el[i]);
			if(!dont_update_text) update_text(el[i]);
		}
		search();
	}
	function clearzoom() {
		unzoom();

		// remove zoom state
		var params = get_params();
		if (params.x) delete params.x;
		if (params.y) delete params.y;
		history.replaceState(null, null, parse_params(params));
	}

	// search
	function toggle_ignorecase() {
		ignorecase = !ignorecase;
		if (ignorecase) {
			ignorecaseBtn.classList.add("show");
		} else {
			ignorecaseBtn.classList.remove("show");
		}
		reset_search();
		search();
	}
	function reset_search() {
		var el = document.querySelectorAll("#frames rect");
		for (var i = 0; i < el.length; i++) {
			orig_load(el[i], "fill")
		}
		var params = get_params();
		delete params.s;
		history.replaceState(null, null, parse_params(params));
	}
	function search_prompt() {
		if (!searching) {
			var term = prompt("Enter a search term (regexp " +
			    "allowed, eg: ^ext4_)"
			    + (ignorecase ? ", ignoring case" : "")
			    + "\nPress Ctrl-i to toggle case sensitivity", "");
			if (term != null) search(term);
		} else {
			reset_search();
			searching = 0;
			currentSearchTerm = null;
			searchbtn.classList.remove("show");
			searchbtn.firstChild.nodeValue = "Search"
			matchedtxt.classList.add("hide");
			matchedtxt.firstChild.nodeValue = ""
		}
	}
	function search(term) {
		if (term) currentSearchTerm = term;

		var re = new RegExp(currentSearchTerm, ignorecase ? 'i' : '');
		var el = document.getElementById("frames").children;
		var matches = new Object();
		var maxwidth = 0;
		for (var i = 0; i < el.length; i++) {
			var e = el[i];
			var func = g_to_func(e);
			var rect = find_child(e, "rect");
			if (func == null || rect == null)
				continue;

			// Save max width. Only works as we have a root frame
			var w = parseFloat(rect.attributes.width.value);
			if (w > maxwidth)
				maxwidth = w;

			if (func.match(re)) {
				// highlight
				var x = parseFloat(rect.attributes.x.value);
				orig_save(rect, "fill");
				rect.attributes.fill.value = "rgb(230,0,230)";

				// remember matches
				if (matches[x] == undefined) {
					matches[x] = w;
				} else {
					if (w > matches[x]) {
						// overwrite with parent
						matches[x] = w;
					}
				}
				searching = 1;
			}
		}
		if (!searching)
			return;
		var params = get_params();
		params.s = currentSearchTerm;
		history.replaceState(null, null, parse_params(params));

		searchbtn.classList.add("show");
		searchbtn.firstChild.nodeValue = "Reset Search";

		// calculate percent matched, excluding vertical overlap
		var count = 0;
		var lastx = -1;
		var lastw = 0;
		var keys = Array();
		for (k in matches) {
			if (matches.hasOwnProperty(k))
				keys.push(k);
		}
		// sort the matched frames by their x location
		// ascending, then width descending
		keys.sort(function(a, b){
			return a - b;
		});
		// Step through frames saving only the biggest bottom-up frames
		// thanks to the sort order. This relies on the tree property
		// where children are always smaller than their parents.
		var fudge = 0.0001;	// JavaScript floating point
		for (var k in keys) {
			var x = parseFloat(keys[k]);
			var w = matches[keys[k]];
			if (x >= lastx + lastw - fudge) {
				count += w;
				lastx = x;
				lastw = w;
			}
		}
		// display matched percent
		matchedtxt.classList.remove("hide");
		var pct = 100 * count / maxwidth;
		if (pct != 100) pct = pct.toFixed(1)
		matchedtxt.firstChild.nodeValue = "Matched: " + pct + "%";
	}
]]>
</script>
<rect x="0.0" y="0" width="1200.0" height="582.0" fill="url(#background)"  />
<text id="title" x="600.00" y="24" >Flame Graph</text>
<text id="details" x="10.00" y="565" > </text>
<text id="unzoom" x="10.00" y="24" class="hide">Reset Zoom</text>
<text id="search" x="1090.00" y="24" >Search</text>
<text id="ignorecase" x="1174.00" y="24" >ic</text>
<text id="matched" x="1090.00" y="565" > </text>
<g id="frames">
<g >
<title>tick_sched_timer (5,500,812 samples, 0.02%)</title><rect x="377.9" y="181" width="0.3" height="15.0" fill="rgb(254,227,54)" rx="2" ry="2" />
<text  x="380.92" y="191.5" ></text>
</g>
<g >
<title>main (27,493,163,790 samples, 99.99%)</title><rect x="10.1" y="485" width="1179.9" height="15.0" fill="rgb(243,179,42)" rx="2" ry="2" />
<text  x="13.12" y="495.5" >main</text>
</g>
<g >
<title>heap_prepare_pagescan (763,671,336 samples, 2.78%)</title><rect x="1104.7" y="261" width="32.8" height="15.0" fill="rgb(222,82,19)" rx="2" ry="2" />
<text  x="1107.70" y="271.5" >he..</text>
</g>
<g >
<title>update_process_times (2,750,620 samples, 0.01%)</title><rect x="1006.9" y="149" width="0.2" height="15.0" fill="rgb(250,209,50)" rx="2" ry="2" />
<text  x="1009.94" y="159.5" ></text>
</g>
<g >
<title>__hrtimer_run_queues (2,749,957 samples, 0.01%)</title><rect x="1155.5" y="133" width="0.2" height="15.0" fill="rgb(237,150,35)" rx="2" ry="2" />
<text  x="1158.54" y="143.5" ></text>
</g>
<g >
<title>ReleaseBuffer (22,357,410 samples, 0.08%)</title><rect x="1082.4" y="277" width="0.9" height="15.0" fill="rgb(220,71,17)" rx="2" ry="2" />
<text  x="1085.38" y="287.5" ></text>
</g>
<g >
<title>tick_do_update_jiffies64 (2,750,136 samples, 0.01%)</title><rect x="377.9" y="149" width="0.1" height="15.0" fill="rgb(208,14,3)" rx="2" ry="2" />
<text  x="380.92" y="159.5" ></text>
</g>
<g >
<title>tick_program_event (2,748,150 samples, 0.01%)</title><rect x="1007.2" y="197" width="0.1" height="15.0" fill="rgb(241,166,39)" rx="2" ry="2" />
<text  x="1010.17" y="207.5" ></text>
</g>
<g >
<title>x86_pmu_disable_all (2,750,620 samples, 0.01%)</title><rect x="1006.9" y="53" width="0.2" height="15.0" fill="rgb(254,227,54)" rx="2" ry="2" />
<text  x="1009.94" y="63.5" ></text>
</g>
<g >
<title>run_rebalance_domains (2,745,374 samples, 0.01%)</title><rect x="1007.4" y="197" width="0.1" height="15.0" fill="rgb(232,126,30)" rx="2" ry="2" />
<text  x="1010.41" y="207.5" ></text>
</g>
<g >
<title>clockevents_program_event (2,748,150 samples, 0.01%)</title><rect x="1007.2" y="181" width="0.1" height="15.0" fill="rgb(244,182,43)" rx="2" ry="2" />
<text  x="1010.17" y="191.5" ></text>
</g>
<g >
<title>__sysvec_apic_timer_interrupt (2,749,957 samples, 0.01%)</title><rect x="1155.5" y="165" width="0.2" height="15.0" fill="rgb(242,173,41)" rx="2" ry="2" />
<text  x="1158.54" y="175.5" ></text>
</g>
<g >
<title>__update_load_avg_cfs_rq (2,745,374 samples, 0.01%)</title><rect x="1007.4" y="133" width="0.1" height="15.0" fill="rgb(228,107,25)" rx="2" ry="2" />
<text  x="1010.41" y="143.5" ></text>
</g>
<g >
<title>LWLockRelease (2,749,467 samples, 0.01%)</title><rect x="10.0" y="453" width="0.1" height="15.0" fill="rgb(217,58,13)" rx="2" ry="2" />
<text  x="13.00" y="463.5" ></text>
</g>
<g >
<title>timekeeping_update (2,749,957 samples, 0.01%)</title><rect x="1155.5" y="37" width="0.2" height="15.0" fill="rgb(238,152,36)" rx="2" ry="2" />
<text  x="1158.54" y="47.5" ></text>
</g>
<g >
<title>heap_getnextslot (167,753,937 samples, 0.61%)</title><rect x="1175.8" y="309" width="7.2" height="15.0" fill="rgb(213,40,9)" rx="2" ry="2" />
<text  x="1178.84" y="319.5" ></text>
</g>
<g >
<title>ResourceOwnerEnlarge (2,749,800 samples, 0.01%)</title><rect x="1167.9" y="229" width="0.1" height="15.0" fill="rgb(223,86,20)" rx="2" ry="2" />
<text  x="1170.93" y="239.5" ></text>
</g>
<g >
<title>asm_sysvec_apic_timer_interrupt (2,749,467 samples, 0.01%)</title><rect x="10.0" y="437" width="0.1" height="15.0" fill="rgb(232,127,30)" rx="2" ry="2" />
<text  x="13.00" y="447.5" ></text>
</g>
<g >
<title>__update_blocked_fair (2,745,374 samples, 0.01%)</title><rect x="1007.4" y="165" width="0.1" height="15.0" fill="rgb(227,105,25)" rx="2" ry="2" />
<text  x="1010.41" y="175.5" ></text>
</g>
<g >
<title>pgstat_count_backend_io_op (44,005,059 samples, 0.16%)</title><rect x="1168.2" y="229" width="1.9" height="15.0" fill="rgb(244,179,42)" rx="2" ry="2" />
<text  x="1171.17" y="239.5" ></text>
</g>
<g >
<title>PinBuffer (118,257,531 samples, 0.43%)</title><rect x="1162.9" y="229" width="5.0" height="15.0" fill="rgb(219,64,15)" rx="2" ry="2" />
<text  x="1165.85" y="239.5" ></text>
</g>
<g >
<title>GetPrivateRefCountEntry (8,250,354 samples, 0.03%)</title><rect x="1104.3" y="245" width="0.4" height="15.0" fill="rgb(250,209,50)" rx="2" ry="2" />
<text  x="1107.35" y="255.5" ></text>
</g>
<g >
<title>__sysvec_apic_timer_interrupt (16,500,275 samples, 0.06%)</title><rect x="1006.6" y="229" width="0.7" height="15.0" fill="rgb(242,173,41)" rx="2" ry="2" />
<text  x="1009.58" y="239.5" ></text>
</g>
<g >
<title>__hrtimer_run_queues (8,251,222 samples, 0.03%)</title><rect x="1006.7" y="197" width="0.4" height="15.0" fill="rgb(237,150,35)" rx="2" ry="2" />
<text  x="1009.70" y="207.5" ></text>
</g>
<g >
<title>update_wall_time (2,750,205 samples, 0.01%)</title><rect x="1006.8" y="133" width="0.1" height="15.0" fill="rgb(207,11,2)" rx="2" ry="2" />
<text  x="1009.82" y="143.5" ></text>
</g>
<g >
<title>asm_sysvec_apic_timer_interrupt (8,253,570 samples, 0.03%)</title><rect x="377.9" y="261" width="0.4" height="15.0" fill="rgb(232,127,30)" rx="2" ry="2" />
<text  x="380.92" y="271.5" ></text>
</g>
<g >
<title>slot_getsomeattrs_int (960,117,621 samples, 3.49%)</title><rect x="1010.7" y="293" width="41.2" height="15.0" fill="rgb(252,219,52)" rx="2" ry="2" />
<text  x="1013.71" y="303.5" >slo..</text>
</g>
<g >
<title>pg_database_encoding_max_length (24,750,660 samples, 0.09%)</title><rect x="1007.6" y="293" width="1.1" height="15.0" fill="rgb(243,176,42)" rx="2" ry="2" />
<text  x="1010.65" y="303.5" ></text>
</g>
<g >
<title>LWLockAcquire (8,250,178 samples, 0.03%)</title><rect x="1155.7" y="229" width="0.3" height="15.0" fill="rgb(209,20,4)" rx="2" ry="2" />
<text  x="1158.65" y="239.5" ></text>
</g>
<g >
<title>UnpinBufferNoOwner (38,504,642 samples, 0.14%)</title><rect x="1080.5" y="261" width="1.6" height="15.0" fill="rgb(253,221,53)" rx="2" ry="2" />
<text  x="1083.49" y="271.5" ></text>
</g>
<g >
<title>tick_sched_handle (2,750,676 samples, 0.01%)</title><rect x="378.0" y="165" width="0.2" height="15.0" fill="rgb(219,68,16)" rx="2" ry="2" />
<text  x="381.04" y="175.5" ></text>
</g>
<g >
<title>timekeeping_advance (2,750,136 samples, 0.01%)</title><rect x="377.9" y="117" width="0.1" height="15.0" fill="rgb(227,104,25)" rx="2" ry="2" />
<text  x="380.92" y="127.5" ></text>
</g>
<g >
<title>PostgresMain (27,493,163,790 samples, 99.99%)</title><rect x="10.1" y="405" width="1179.9" height="15.0" fill="rgb(227,103,24)" rx="2" ry="2" />
<text  x="13.12" y="415.5" >PostgresMain</text>
</g>
<g >
<title>ReleaseBuffer (5,501,042 samples, 0.02%)</title><rect x="1103.9" y="261" width="0.2" height="15.0" fill="rgb(220,71,17)" rx="2" ry="2" />
<text  x="1106.88" y="271.5" ></text>
</g>
<g >
<title>GetPrivateRefCountEntry (2,749,706 samples, 0.01%)</title><rect x="1078.1" y="261" width="0.1" height="15.0" fill="rgb(250,209,50)" rx="2" ry="2" />
<text  x="1081.13" y="271.5" ></text>
</g>
<g >
<title>x86_pmu_disable (2,750,620 samples, 0.01%)</title><rect x="1006.9" y="85" width="0.2" height="15.0" fill="rgb(239,160,38)" rx="2" ry="2" />
<text  x="1009.94" y="95.5" ></text>
</g>
<g >
<title>update_wall_time (2,749,957 samples, 0.01%)</title><rect x="1155.5" y="69" width="0.2" height="15.0" fill="rgb(207,11,2)" rx="2" ry="2" />
<text  x="1158.54" y="79.5" ></text>
</g>
<g >
<title>LWLockRelease (5,500,987 samples, 0.02%)</title><rect x="1103.4" y="261" width="0.2" height="15.0" fill="rgb(217,58,13)" rx="2" ry="2" />
<text  x="1106.41" y="271.5" ></text>
</g>
<g >
<title>StartReadBuffer (2,749,467 samples, 0.01%)</title><rect x="10.0" y="469" width="0.1" height="15.0" fill="rgb(222,78,18)" rx="2" ry="2" />
<text  x="13.00" y="479.5" ></text>
</g>
<g >
<title>update_blocked_averages (2,745,374 samples, 0.01%)</title><rect x="1007.4" y="181" width="0.1" height="15.0" fill="rgb(240,163,38)" rx="2" ry="2" />
<text  x="1010.41" y="191.5" ></text>
</g>
<g >
<title>tick_sched_do_timer (2,749,957 samples, 0.01%)</title><rect x="1155.5" y="101" width="0.2" height="15.0" fill="rgb(227,104,25)" rx="2" ry="2" />
<text  x="1158.54" y="111.5" ></text>
</g>
<g >
<title>sysvec_apic_timer_interrupt (8,253,570 samples, 0.03%)</title><rect x="377.9" y="245" width="0.4" height="15.0" fill="rgb(220,69,16)" rx="2" ry="2" />
<text  x="380.92" y="255.5" ></text>
</g>
<g >
<title>irq_exit_rcu (8,246,829 samples, 0.03%)</title><rect x="1007.3" y="229" width="0.3" height="15.0" fill="rgb(254,227,54)" rx="2" ry="2" />
<text  x="1010.29" y="239.5" ></text>
</g>
<g >
<title>IncrBufferRefCount (8,251,059 samples, 0.03%)</title><rect x="1078.2" y="261" width="0.4" height="15.0" fill="rgb(209,22,5)" rx="2" ry="2" />
<text  x="1081.25" y="271.5" ></text>
</g>
<g >
<title>bpcharlen (21,563,639,620 samples, 78.42%)</title><rect x="82.2" y="293" width="925.4" height="15.0" fill="rgb(221,77,18)" rx="2" ry="2" />
<text  x="85.23" y="303.5" >bpcharlen</text>
</g>
<g >
<title>all (27,495,913,257 samples, 100%)</title><rect x="10.0" y="533" width="1180.0" height="15.0" fill="rgb(213,39,9)" rx="2" ry="2" />
<text  x="13.00" y="543.5" ></text>
</g>
<g >
<title>run_posix_cpu_timers (2,750,676 samples, 0.01%)</title><rect x="378.0" y="149" width="0.2" height="15.0" fill="rgb(250,208,49)" rx="2" ry="2" />
<text  x="381.04" y="159.5" ></text>
</g>
<g >
<title>heapgettup_pagemode (2,100,360,869 samples, 7.64%)</title><rect x="1083.5" y="277" width="90.1" height="15.0" fill="rgb(242,170,40)" rx="2" ry="2" />
<text  x="1086.46" y="287.5" >heapgettup..</text>
</g>
<g >
<title>tick_sched_do_timer (2,750,136 samples, 0.01%)</title><rect x="377.9" y="165" width="0.1" height="15.0" fill="rgb(227,104,25)" rx="2" ry="2" />
<text  x="380.92" y="175.5" ></text>
</g>
<g >
<title>ResourceOwnerForget (30,250,698 samples, 0.11%)</title><rect x="1078.8" y="245" width="1.3" height="15.0" fill="rgb(235,142,33)" rx="2" ry="2" />
<text  x="1081.84" y="255.5" ></text>
</g>
<g >
<title>ReleaseBuffer (35,750,936 samples, 0.13%)</title><rect x="1078.6" y="261" width="1.5" height="15.0" fill="rgb(220,71,17)" rx="2" ry="2" />
<text  x="1081.60" y="271.5" ></text>
</g>
<g >
<title>MemoryContextReset (41,250,123 samples, 0.15%)</title><rect x="1187.3" y="325" width="1.8" height="15.0" fill="rgb(210,26,6)" rx="2" ry="2" />
<text  x="1190.29" y="335.5" ></text>
</g>
<g >
<title>_raw_spin_lock_irq (2,750,647 samples, 0.01%)</title><rect x="1007.1" y="197" width="0.1" height="15.0" fill="rgb(231,122,29)" rx="2" ry="2" />
<text  x="1010.06" y="207.5" ></text>
</g>
<g >
<title>GetPrivateRefCountEntry (8,249,672 samples, 0.03%)</title><rect x="1081.8" y="245" width="0.3" height="15.0" fill="rgb(250,209,50)" rx="2" ry="2" />
<text  x="1084.79" y="255.5" ></text>
</g>
<g >
<title>exec_simple_query (27,493,163,790 samples, 99.99%)</title><rect x="10.1" y="389" width="1179.9" height="15.0" fill="rgb(211,29,6)" rx="2" ry="2" />
<text  x="13.12" y="399.5" >exec_simple_query</text>
</g>
<g >
<title>SeqNext (2,692,248,895 samples, 9.79%)</title><rect x="1058.8" y="309" width="115.5" height="15.0" fill="rgb(214,41,10)" rx="2" ry="2" />
<text  x="1061.76" y="319.5" >SeqNext</text>
</g>
<g >
<title>tick_sched_do_timer (5,500,602 samples, 0.02%)</title><rect x="1006.7" y="165" width="0.2" height="15.0" fill="rgb(227,104,25)" rx="2" ry="2" />
<text  x="1009.70" y="175.5" ></text>
</g>
<g >
<title>__libc_start_call_main (27,493,163,790 samples, 99.99%)</title><rect x="10.1" y="501" width="1179.9" height="15.0" fill="rgb(210,26,6)" rx="2" ry="2" />
<text  x="13.12" y="511.5" >__libc_start_call_main</text>
</g>
<g >
<title>tick_do_update_jiffies64 (5,500,602 samples, 0.02%)</title><rect x="1006.7" y="149" width="0.2" height="15.0" fill="rgb(208,14,3)" rx="2" ry="2" />
<text  x="1009.70" y="159.5" ></text>
</g>
<g >
<title>ExecStoreBufferHeapTuple (214,747,527 samples, 0.78%)</title><rect x="1072.9" y="277" width="9.2" height="15.0" fill="rgb(230,117,28)" rx="2" ry="2" />
<text  x="1075.93" y="287.5" ></text>
</g>
<g >
<title>slot_getsomeattrs_int (16,501,954 samples, 0.06%)</title><rect x="1186.6" y="309" width="0.7" height="15.0" fill="rgb(252,219,52)" rx="2" ry="2" />
<text  x="1189.58" y="319.5" ></text>
</g>
<g >
<title>hrtimer_interrupt (16,500,275 samples, 0.06%)</title><rect x="1006.6" y="213" width="0.7" height="15.0" fill="rgb(228,109,26)" rx="2" ry="2" />
<text  x="1009.58" y="223.5" ></text>
</g>
<g >
<title>MemoryContextReset (66,006,330 samples, 0.24%)</title><rect x="1055.9" y="309" width="2.9" height="15.0" fill="rgb(210,26,6)" rx="2" ry="2" />
<text  x="1058.93" y="319.5" ></text>
</g>
<g >
<title>PortalRunSelect (27,493,163,790 samples, 99.99%)</title><rect x="10.1" y="357" width="1179.9" height="15.0" fill="rgb(245,188,45)" rx="2" ry="2" />
<text  x="13.12" y="367.5" >PortalRunSelect</text>
</g>
<g >
<title>timekeeping_advance (2,749,957 samples, 0.01%)</title><rect x="1155.5" y="53" width="0.2" height="15.0" fill="rgb(227,104,25)" rx="2" ry="2" />
<text  x="1158.54" y="63.5" ></text>
</g>
<g >
<title>call_timer_fn (2,750,377 samples, 0.01%)</title><rect x="1007.5" y="165" width="0.1" height="15.0" fill="rgb(234,135,32)" rx="2" ry="2" />
<text  x="1010.53" y="175.5" ></text>
</g>
<g >
<title>LockBuffer (5,501,560 samples, 0.02%)</title><rect x="1103.6" y="261" width="0.3" height="15.0" fill="rgb(235,142,34)" rx="2" ry="2" />
<text  x="1106.64" y="271.5" ></text>
</g>
<g >
<title>rcu_core (2,751,078 samples, 0.01%)</title><rect x="1007.3" y="181" width="0.1" height="15.0" fill="rgb(222,81,19)" rx="2" ry="2" />
<text  x="1010.29" y="191.5" ></text>
</g>
<g >
<title>LWLockAcquire (2,749,958 samples, 0.01%)</title><rect x="1137.0" y="245" width="0.1" height="15.0" fill="rgb(209,20,4)" rx="2" ry="2" />
<text  x="1140.01" y="255.5" ></text>
</g>
<g >
<title>ResourceOwnerRemember (2,749,942 samples, 0.01%)</title><rect x="1168.0" y="229" width="0.2" height="15.0" fill="rgb(243,178,42)" rx="2" ry="2" />
<text  x="1171.05" y="239.5" ></text>
</g>
<g >
<title>[postgres] (27,493,163,790 samples, 99.99%)</title><rect x="10.1" y="421" width="1179.9" height="15.0" fill="rgb(245,184,44)" rx="2" ry="2" />
<text  x="13.12" y="431.5" >[postgres]</text>
</g>
<g >
<title>[unknown] (2,749,467 samples, 0.01%)</title><rect x="10.0" y="501" width="0.1" height="15.0" fill="rgb(210,24,5)" rx="2" ry="2" />
<text  x="13.00" y="511.5" ></text>
</g>
<g >
<title>UnpinBufferNoOwner (13,750,576 samples, 0.05%)</title><rect x="1104.1" y="261" width="0.6" height="15.0" fill="rgb(253,221,53)" rx="2" ry="2" />
<text  x="1107.11" y="271.5" ></text>
</g>
<g >
<title>handle_softirqs (8,246,829 samples, 0.03%)</title><rect x="1007.3" y="213" width="0.3" height="15.0" fill="rgb(238,156,37)" rx="2" ry="2" />
<text  x="1010.29" y="223.5" ></text>
</g>
<g >
<title>tick_sched_handle (2,750,620 samples, 0.01%)</title><rect x="1006.9" y="165" width="0.2" height="15.0" fill="rgb(219,68,16)" rx="2" ry="2" />
<text  x="1009.94" y="175.5" ></text>
</g>
<g >
<title>__note_gp_changes (2,751,078 samples, 0.01%)</title><rect x="1007.3" y="165" width="0.1" height="15.0" fill="rgb(231,120,28)" rx="2" ry="2" />
<text  x="1010.29" y="175.5" ></text>
</g>
<g >
<title>postgres (27,495,913,257 samples, 100.00%)</title><rect x="10.0" y="517" width="1180.0" height="15.0" fill="rgb(233,131,31)" rx="2" ry="2" />
<text  x="13.00" y="527.5" >postgres</text>
</g>
<g >
<title>__hrtimer_run_queues (5,500,812 samples, 0.02%)</title><rect x="377.9" y="197" width="0.3" height="15.0" fill="rgb(237,150,35)" rx="2" ry="2" />
<text  x="380.92" y="207.5" ></text>
</g>
<g >
<title>hrtimer_interrupt (2,749,957 samples, 0.01%)</title><rect x="1155.5" y="149" width="0.2" height="15.0" fill="rgb(228,109,26)" rx="2" ry="2" />
<text  x="1158.54" y="159.5" ></text>
</g>
<g >
<title>__lock_text_start (2,750,547 samples, 0.01%)</title><rect x="378.2" y="197" width="0.1" height="15.0" fill="rgb(232,125,30)" rx="2" ry="2" />
<text  x="381.15" y="207.5" ></text>
</g>
<g >
<title>ExecInterpExpr (24,146,377,395 samples, 87.82%)</title><rect x="19.7" y="309" width="1036.2" height="15.0" fill="rgb(225,96,22)" rx="2" ry="2" />
<text  x="22.68" y="319.5" >ExecInterpExpr</text>
</g>
<g >
<title>native_read_msr (2,750,620 samples, 0.01%)</title><rect x="1006.9" y="37" width="0.2" height="15.0" fill="rgb(211,30,7)" rx="2" ry="2" />
<text  x="1009.94" y="47.5" ></text>
</g>
<g >
<title>read_stream_next_buffer (841,595,193 samples, 3.06%)</title><rect x="1137.5" y="261" width="36.1" height="15.0" fill="rgb(216,50,12)" rx="2" ry="2" />
<text  x="1140.48" y="271.5" >rea..</text>
</g>
<g >
<title>heap_getnextslot (2,518,984,741 samples, 9.16%)</title><rect x="1065.8" y="293" width="108.1" height="15.0" fill="rgb(213,40,9)" rx="2" ry="2" />
<text  x="1068.85" y="303.5" >heap_getnexts..</text>
</g>
<g >
<title>pgstat_count_io_op (44,005,412 samples, 0.16%)</title><rect x="1171.7" y="245" width="1.9" height="15.0" fill="rgb(207,10,2)" rx="2" ry="2" />
<text  x="1174.71" y="255.5" ></text>
</g>
<g >
<title>BufTableLookup (250,303,024 samples, 0.91%)</title><rect x="1144.9" y="229" width="10.8" height="15.0" fill="rgb(224,89,21)" rx="2" ry="2" />
<text  x="1147.91" y="239.5" ></text>
</g>
<g >
<title>PostmasterMain (27,493,163,790 samples, 99.99%)</title><rect x="10.1" y="469" width="1179.9" height="15.0" fill="rgb(212,35,8)" rx="2" ry="2" />
<text  x="13.12" y="479.5" >PostmasterMain</text>
</g>
<g >
<title>pg_utf_mblen_private (14,665,446,020 samples, 53.34%)</title><rect x="378.3" y="277" width="629.3" height="15.0" fill="rgb(242,173,41)" rx="2" ry="2" />
<text  x="381.27" y="287.5" >pg_utf_mblen_private</text>
</g>
<g >
<title>pgstat_count_io_op (11,000,287 samples, 0.04%)</title><rect x="1170.1" y="229" width="0.4" height="15.0" fill="rgb(207,10,2)" rx="2" ry="2" />
<text  x="1173.05" y="239.5" ></text>
</g>
<g >
<title>tts_buffer_heap_getsomeattrs (844,619,007 samples, 3.07%)</title><rect x="1015.7" y="277" width="36.2" height="15.0" fill="rgb(222,81,19)" rx="2" ry="2" />
<text  x="1018.67" y="287.5" >tts..</text>
</g>
<g >
<title>int4lt (82,504,174 samples, 0.30%)</title><rect x="1183.0" y="309" width="3.6" height="15.0" fill="rgb(242,172,41)" rx="2" ry="2" />
<text  x="1186.04" y="319.5" ></text>
</g>
<g >
<title>standard_ExecutorRun (27,493,163,790 samples, 99.99%)</title><rect x="10.1" y="341" width="1179.9" height="15.0" fill="rgb(247,196,47)" rx="2" ry="2" />
<text  x="13.12" y="351.5" >standard_ExecutorRun</text>
</g>
<g >
<title>hash_search_with_hash_value (250,303,024 samples, 0.91%)</title><rect x="1144.9" y="213" width="10.8" height="15.0" fill="rgb(249,205,49)" rx="2" ry="2" />
<text  x="1147.91" y="223.5" ></text>
</g>
<g >
<title>StartReadBuffer (737,087,802 samples, 2.68%)</title><rect x="1138.9" y="245" width="31.6" height="15.0" fill="rgb(222,78,18)" rx="2" ry="2" />
<text  x="1141.89" y="255.5" >St..</text>
</g>
<g >
<title>LWLockAttemptLock (8,249,812 samples, 0.03%)</title><rect x="1137.1" y="245" width="0.4" height="15.0" fill="rgb(235,138,33)" rx="2" ry="2" />
<text  x="1140.12" y="255.5" ></text>
</g>
<g >
<title>PortalRun (27,493,163,790 samples, 99.99%)</title><rect x="10.1" y="373" width="1179.9" height="15.0" fill="rgb(223,85,20)" rx="2" ry="2" />
<text  x="13.12" y="383.5" >PortalRun</text>
</g>
<g >
<title>perf_adjust_freq_unthr_context (2,750,620 samples, 0.01%)</title><rect x="1006.9" y="101" width="0.2" height="15.0" fill="rgb(236,146,35)" rx="2" ry="2" />
<text  x="1009.94" y="111.5" ></text>
</g>
<g >
<title>amd_pmu_disable_all (2,750,620 samples, 0.01%)</title><rect x="1006.9" y="69" width="0.2" height="15.0" fill="rgb(213,38,9)" rx="2" ry="2" />
<text  x="1009.94" y="79.5" ></text>
</g>
<g >
<title>pg_detoast_datum_packed (35,751,344 samples, 0.13%)</title><rect x="1008.7" y="293" width="1.5" height="15.0" fill="rgb(238,155,37)" rx="2" ry="2" />
<text  x="1011.71" y="303.5" ></text>
</g>
<g >
<title>ktime_get (2,748,150 samples, 0.01%)</title><rect x="1007.2" y="165" width="0.1" height="15.0" fill="rgb(207,10,2)" rx="2" ry="2" />
<text  x="1010.17" y="175.5" ></text>
</g>
<g >
<title>pg_mbstrlen_with_len (6,221,684,444 samples, 22.63%)</title><rect x="111.3" y="277" width="267.0" height="15.0" fill="rgb(228,106,25)" rx="2" ry="2" />
<text  x="114.26" y="287.5" >pg_mbstrlen_with_len</text>
</g>
<g >
<title>tts_buffer_heap_getsomeattrs (93,503,489 samples, 0.34%)</title><rect x="1051.9" y="293" width="4.0" height="15.0" fill="rgb(222,81,19)" rx="2" ry="2" />
<text  x="1054.92" y="303.5" ></text>
</g>
<g >
<title>asm_sysvec_apic_timer_interrupt (2,749,957 samples, 0.01%)</title><rect x="1155.5" y="197" width="0.2" height="15.0" fill="rgb(232,127,30)" rx="2" ry="2" />
<text  x="1158.54" y="207.5" ></text>
</g>
<g >
<title>BufferGetBlockNumber (11,001,716 samples, 0.04%)</title><rect x="1072.5" y="277" width="0.4" height="15.0" fill="rgb(206,7,1)" rx="2" ry="2" />
<text  x="1075.46" y="287.5" ></text>
</g>
<g >
<title>tick_do_update_jiffies64 (2,749,957 samples, 0.01%)</title><rect x="1155.5" y="85" width="0.2" height="15.0" fill="rgb(208,14,3)" rx="2" ry="2" />
<text  x="1158.54" y="95.5" ></text>
</g>
<g >
<title>__sysvec_apic_timer_interrupt (8,251,359 samples, 0.03%)</title><rect x="377.9" y="229" width="0.4" height="15.0" fill="rgb(242,173,41)" rx="2" ry="2" />
<text  x="380.92" y="239.5" ></text>
</g>
<g >
<title>update_wall_time (2,750,136 samples, 0.01%)</title><rect x="377.9" y="133" width="0.1" height="15.0" fill="rgb(207,11,2)" rx="2" ry="2" />
<text  x="380.92" y="143.5" ></text>
</g>
<g >
<title>LockBuffer (2,749,972 samples, 0.01%)</title><rect x="1082.3" y="277" width="0.1" height="15.0" fill="rgb(235,142,34)" rx="2" ry="2" />
<text  x="1085.26" y="287.5" ></text>
</g>
<g >
<title>__run_timers.part.0 (2,750,377 samples, 0.01%)</title><rect x="1007.5" y="181" width="0.1" height="15.0" fill="rgb(215,49,11)" rx="2" ry="2" />
<text  x="1010.53" y="191.5" ></text>
</g>
<g >
<title>sysvec_apic_timer_interrupt (2,749,957 samples, 0.01%)</title><rect x="1155.5" y="181" width="0.2" height="15.0" fill="rgb(220,69,16)" rx="2" ry="2" />
<text  x="1158.54" y="191.5" ></text>
</g>
<g >
<title>heapgettup_pagemode (8,251,015 samples, 0.03%)</title><rect x="1173.9" y="293" width="0.4" height="15.0" fill="rgb(242,170,40)" rx="2" ry="2" />
<text  x="1176.95" y="303.5" ></text>
</g>
<g >
<title>run_timer_softirq (2,750,377 samples, 0.01%)</title><rect x="1007.5" y="197" width="0.1" height="15.0" fill="rgb(249,206,49)" rx="2" ry="2" />
<text  x="1010.53" y="207.5" ></text>
</g>
<g >
<title>ExecStoreBufferHeapTuple (8,250,666 samples, 0.03%)</title><rect x="1065.5" y="293" width="0.3" height="15.0" fill="rgb(230,117,28)" rx="2" ry="2" />
<text  x="1068.49" y="303.5" ></text>
</g>
<g >
<title>ResourceOwnerForget (8,250,444 samples, 0.03%)</title><rect x="1080.1" y="261" width="0.4" height="15.0" fill="rgb(235,142,33)" rx="2" ry="2" />
<text  x="1083.14" y="271.5" ></text>
</g>
<g >
<title>tick_sched_timer (8,251,222 samples, 0.03%)</title><rect x="1006.7" y="181" width="0.4" height="15.0" fill="rgb(254,227,54)" rx="2" ry="2" />
<text  x="1009.70" y="191.5" ></text>
</g>
<g >
<title>ResourceOwnerEnlarge (5,501,172 samples, 0.02%)</title><rect x="1078.4" y="245" width="0.2" height="15.0" fill="rgb(223,86,20)" rx="2" ry="2" />
<text  x="1081.37" y="255.5" ></text>
</g>
<g >
<title>ExecSeqScanWithQual (27,396,909,849 samples, 99.64%)</title><rect x="11.5" y="325" width="1175.8" height="15.0" fill="rgb(254,227,54)" rx="2" ry="2" />
<text  x="14.53" y="335.5" >ExecSeqScanWithQual</text>
</g>
<g >
<title>hash_bytes (27,500,115 samples, 0.10%)</title><rect x="1170.5" y="245" width="1.2" height="15.0" fill="rgb(227,102,24)" rx="2" ry="2" />
<text  x="1173.53" y="255.5" ></text>
</g>
<g >
<title>fq_flush_timeout (2,750,377 samples, 0.01%)</title><rect x="1007.5" y="149" width="0.1" height="15.0" fill="rgb(213,40,9)" rx="2" ry="2" />
<text  x="1010.53" y="159.5" ></text>
</g>
<g >
<title>LWLockRelease (134,756,489 samples, 0.49%)</title><rect x="1157.1" y="229" width="5.8" height="15.0" fill="rgb(217,58,13)" rx="2" ry="2" />
<text  x="1160.07" y="239.5" ></text>
</g>
<g >
<title>pg_mbstrlen_with_len (11,002,145 samples, 0.04%)</title><rect x="1010.2" y="293" width="0.5" height="15.0" fill="rgb(228,106,25)" rx="2" ry="2" />
<text  x="1013.24" y="303.5" ></text>
</g>
<g >
<title>timekeeping_advance (2,750,205 samples, 0.01%)</title><rect x="1006.8" y="117" width="0.1" height="15.0" fill="rgb(227,104,25)" rx="2" ry="2" />
<text  x="1009.82" y="127.5" ></text>
</g>
<g >
<title>asm_sysvec_apic_timer_interrupt (27,497,380 samples, 0.10%)</title><rect x="1006.5" y="261" width="1.1" height="15.0" fill="rgb(232,127,30)" rx="2" ry="2" />
<text  x="1009.47" y="271.5" ></text>
</g>
<g >
<title>timekeeping_adjust.constprop.0 (2,750,205 samples, 0.01%)</title><rect x="1006.8" y="101" width="0.1" height="15.0" fill="rgb(222,78,18)" rx="2" ry="2" />
<text  x="1009.82" y="111.5" ></text>
</g>
<g >
<title>[unknown] (2,749,467 samples, 0.01%)</title><rect x="10.0" y="485" width="0.1" height="15.0" fill="rgb(210,24,5)" rx="2" ry="2" />
<text  x="13.00" y="495.5" ></text>
</g>
<g >
<title>read_stream_next_buffer (8,250,473 samples, 0.03%)</title><rect x="1173.6" y="277" width="0.3" height="15.0" fill="rgb(216,50,12)" rx="2" ry="2" />
<text  x="1176.59" y="287.5" ></text>
</g>
<g >
<title>postmaster_child_launch (27,493,163,790 samples, 99.99%)</title><rect x="10.1" y="437" width="1179.9" height="15.0" fill="rgb(206,5,1)" rx="2" ry="2" />
<text  x="13.12" y="447.5" >postmaster_child_launch</text>
</g>
<g >
<title>IncrBufferRefCount (2,750,702 samples, 0.01%)</title><rect x="1082.1" y="277" width="0.2" height="15.0" fill="rgb(209,22,5)" rx="2" ry="2" />
<text  x="1085.14" y="287.5" ></text>
</g>
<g >
<title>hrtimer_interrupt (8,251,359 samples, 0.03%)</title><rect x="377.9" y="213" width="0.4" height="15.0" fill="rgb(228,109,26)" rx="2" ry="2" />
<text  x="380.92" y="223.5" ></text>
</g>
<g >
<title>ResourceOwnerRemember (2,750,220 samples, 0.01%)</title><rect x="1083.3" y="277" width="0.2" height="15.0" fill="rgb(243,178,42)" rx="2" ry="2" />
<text  x="1086.34" y="287.5" ></text>
</g>
<g >
<title>LWLockAttemptLock (24,752,039 samples, 0.09%)</title><rect x="1156.0" y="229" width="1.1" height="15.0" fill="rgb(235,138,33)" rx="2" ry="2" />
<text  x="1159.01" y="239.5" ></text>
</g>
<g >
<title>rcu_core_si (2,751,078 samples, 0.01%)</title><rect x="1007.3" y="197" width="0.1" height="15.0" fill="rgb(237,150,36)" rx="2" ry="2" />
<text  x="1010.29" y="207.5" ></text>
</g>
<g >
<title>scheduler_tick (2,750,620 samples, 0.01%)</title><rect x="1006.9" y="133" width="0.2" height="15.0" fill="rgb(246,190,45)" rx="2" ry="2" />
<text  x="1009.94" y="143.5" ></text>
</g>
<g >
<title>GetPrivateRefCountEntry (2,749,887 samples, 0.01%)</title><rect x="1078.2" y="245" width="0.2" height="15.0" fill="rgb(250,209,50)" rx="2" ry="2" />
<text  x="1081.25" y="255.5" ></text>
</g>
<g >
<title>perf_event_task_tick (2,750,620 samples, 0.01%)</title><rect x="1006.9" y="117" width="0.2" height="15.0" fill="rgb(205,3,0)" rx="2" ry="2" />
<text  x="1009.94" y="127.5" ></text>
</g>
<g >
<title>LWLockRelease (5,500,544 samples, 0.02%)</title><rect x="1138.7" y="245" width="0.2" height="15.0" fill="rgb(217,58,13)" rx="2" ry="2" />
<text  x="1141.66" y="255.5" ></text>
</g>
<g >
<title>tick_sched_timer (2,749,957 samples, 0.01%)</title><rect x="1155.5" y="117" width="0.2" height="15.0" fill="rgb(254,227,54)" rx="2" ry="2" />
<text  x="1158.54" y="127.5" ></text>
</g>
<g >
<title>update_load_avg (2,745,374 samples, 0.01%)</title><rect x="1007.4" y="149" width="0.1" height="15.0" fill="rgb(240,165,39)" rx="2" ry="2" />
<text  x="1010.41" y="159.5" ></text>
</g>
<g >
<title>sysvec_apic_timer_interrupt (24,747,104 samples, 0.09%)</title><rect x="1006.6" y="245" width="1.0" height="15.0" fill="rgb(220,69,16)" rx="2" ry="2" />
<text  x="1009.58" y="255.5" ></text>
</g>
<g >
<title>bpcharlen (35,753,473 samples, 0.13%)</title><rect x="1174.3" y="309" width="1.5" height="15.0" fill="rgb(221,77,18)" rx="2" ry="2" />
<text  x="1177.30" y="319.5" ></text>
</g>
<g >
<title>SeqNext (22,002,405 samples, 0.08%)</title><rect x="1189.1" y="325" width="0.9" height="15.0" fill="rgb(214,41,10)" rx="2" ry="2" />
<text  x="1192.06" y="335.5" ></text>
</g>
<g >
<title>ExecInterpExpr (33,001,413 samples, 0.12%)</title><rect x="10.1" y="325" width="1.4" height="15.0" fill="rgb(225,96,22)" rx="2" ry="2" />
<text  x="13.12" y="335.5" ></text>
</g>
<g >
<title>ServerLoop (27,493,163,790 samples, 99.99%)</title><rect x="10.1" y="453" width="1179.9" height="15.0" fill="rgb(238,155,37)" rx="2" ry="2" />
<text  x="13.12" y="463.5" >ServerLoop</text>
</g>
</g>
</svg>
