<?xml version="1.0" standalone="no"?>
<!DOCTYPE svg PUBLIC "-//W3C//DTD SVG 1.1//EN" "http://www.w3.org/Graphics/SVG/1.1/DTD/svg11.dtd">
<svg version="1.1" width="1200" height="566" onload="init(evt)" viewBox="0 0 1200 566" xmlns="http://www.w3.org/2000/svg" xmlns:xlink="http://www.w3.org/1999/xlink">
<!-- Flame graph stack visualization. See https://github.com/brendangregg/FlameGraph for latest version, and http://www.brendangregg.com/flamegraphs.html for examples. -->
<!-- NOTES:  -->
<defs>
	<linearGradient id="background" y1="0" y2="1" x1="0" x2="0" >
		<stop stop-color="#eeeeee" offset="5%" />
		<stop stop-color="#eeeeb0" offset="95%" />
	</linearGradient>
</defs>
<style type="text/css">
	text { font-family:Verdana; font-size:12px; fill:rgb(0,0,0); }
	#search, #ignorecase { opacity:0.1; cursor:pointer; }
	#search:hover, #search.show, #ignorecase:hover, #ignorecase.show { opacity:1; }
	#subtitle { text-anchor:middle; font-color:rgb(160,160,160); }
	#title { text-anchor:middle; font-size:17px}
	#unzoom { cursor:pointer; }
	#frames > *:hover { stroke:black; stroke-width:0.5; cursor:pointer; }
	.hide { display:none; }
	.parent { opacity:0.5; }
</style>
<script type="text/ecmascript">
<![CDATA[
	"use strict";
	var details, searchbtn, unzoombtn, matchedtxt, svg, searching, currentSearchTerm, ignorecase, ignorecaseBtn;
	function init(evt) {
		details = document.getElementById("details").firstChild;
		searchbtn = document.getElementById("search");
		ignorecaseBtn = document.getElementById("ignorecase");
		unzoombtn = document.getElementById("unzoom");
		matchedtxt = document.getElementById("matched");
		svg = document.getElementsByTagName("svg")[0];
		searching = 0;
		currentSearchTerm = null;

		// use GET parameters to restore a flamegraphs state.
		var params = get_params();
		if (params.x && params.y)
			zoom(find_group(document.querySelector('[x="' + params.x + '"][y="' + params.y + '"]')));
                if (params.s) search(params.s);
	}

	// event listeners
	window.addEventListener("click", function(e) {
		var target = find_group(e.target);
		if (target) {
			if (target.nodeName == "a") {
				if (e.ctrlKey === false) return;
				e.preventDefault();
			}
			if (target.classList.contains("parent")) unzoom(true);
			zoom(target);
			if (!document.querySelector('.parent')) {
				// we have basically done a clearzoom so clear the url
				var params = get_params();
				if (params.x) delete params.x;
				if (params.y) delete params.y;
				history.replaceState(null, null, parse_params(params));
				unzoombtn.classList.add("hide");
				return;
			}

			// set parameters for zoom state
			var el = target.querySelector("rect");
			if (el && el.attributes && el.attributes.y && el.attributes._orig_x) {
				var params = get_params()
				params.x = el.attributes._orig_x.value;
				params.y = el.attributes.y.value;
				history.replaceState(null, null, parse_params(params));
			}
		}
		else if (e.target.id == "unzoom") clearzoom();
		else if (e.target.id == "search") search_prompt();
		else if (e.target.id == "ignorecase") toggle_ignorecase();
	}, false)

	// mouse-over for info
	// show
	window.addEventListener("mouseover", function(e) {
		var target = find_group(e.target);
		if (target) details.nodeValue = "Function: " + g_to_text(target);
	}, false)

	// clear
	window.addEventListener("mouseout", function(e) {
		var target = find_group(e.target);
		if (target) details.nodeValue = ' ';
	}, false)

	// ctrl-F for search
	// ctrl-I to toggle case-sensitive search
	window.addEventListener("keydown",function (e) {
		if (e.keyCode === 114 || (e.ctrlKey && e.keyCode === 70)) {
			e.preventDefault();
			search_prompt();
		}
		else if (e.ctrlKey && e.keyCode === 73) {
			e.preventDefault();
			toggle_ignorecase();
		}
	}, false)

	// functions
	function get_params() {
		var params = {};
		var paramsarr = window.location.search.substr(1).split('&');
		for (var i = 0; i < paramsarr.length; ++i) {
			var tmp = paramsarr[i].split("=");
			if (!tmp[0] || !tmp[1]) continue;
			params[tmp[0]]  = decodeURIComponent(tmp[1]);
		}
		return params;
	}
	function parse_params(params) {
		var uri = "?";
		for (var key in params) {
			uri += key + '=' + encodeURIComponent(params[key]) + '&';
		}
		if (uri.slice(-1) == "&")
			uri = uri.substring(0, uri.length - 1);
		if (uri == '?')
			uri = window.location.href.split('?')[0];
		return uri;
	}
	function find_child(node, selector) {
		var children = node.querySelectorAll(selector);
		if (children.length) return children[0];
	}
	function find_group(node) {
		var parent = node.parentElement;
		if (!parent) return;
		if (parent.id == "frames") return node;
		return find_group(parent);
	}
	function orig_save(e, attr, val) {
		if (e.attributes["_orig_" + attr] != undefined) return;
		if (e.attributes[attr] == undefined) return;
		if (val == undefined) val = e.attributes[attr].value;
		e.setAttribute("_orig_" + attr, val);
	}
	function orig_load(e, attr) {
		if (e.attributes["_orig_"+attr] == undefined) return;
		e.attributes[attr].value = e.attributes["_orig_" + attr].value;
		e.removeAttribute("_orig_"+attr);
	}
	function g_to_text(e) {
		var text = find_child(e, "title").firstChild.nodeValue;
		return (text)
	}
	function g_to_func(e) {
		var func = g_to_text(e);
		// if there's any manipulation we want to do to the function
		// name before it's searched, do it here before returning.
		return (func);
	}
	function update_text(e) {
		var r = find_child(e, "rect");
		var t = find_child(e, "text");
		var w = parseFloat(r.attributes.width.value) -3;
		var txt = find_child(e, "title").textContent.replace(/\([^(]*\)$/,"");
		t.attributes.x.value = parseFloat(r.attributes.x.value) + 3;

		// Smaller than this size won't fit anything
		if (w < 2 * 12 * 0.59) {
			t.textContent = "";
			return;
		}

		t.textContent = txt;
		var sl = t.getSubStringLength(0, txt.length);
		// check if only whitespace or if we can fit the entire string into width w
		if (/^ *$/.test(txt) || sl < w)
			return;

		// this isn't perfect, but gives a good starting point
		// and avoids calling getSubStringLength too often
		var start = Math.floor((w/sl) * txt.length);
		for (var x = start; x > 0; x = x-2) {
			if (t.getSubStringLength(0, x + 2) <= w) {
				t.textContent = txt.substring(0, x) + "..";
				return;
			}
		}
		t.textContent = "";
	}

	// zoom
	function zoom_reset(e) {
		if (e.attributes != undefined) {
			orig_load(e, "x");
			orig_load(e, "width");
		}
		if (e.childNodes == undefined) return;
		for (var i = 0, c = e.childNodes; i < c.length; i++) {
			zoom_reset(c[i]);
		}
	}
	function zoom_child(e, x, ratio) {
		if (e.attributes != undefined) {
			if (e.attributes.x != undefined) {
				orig_save(e, "x");
				e.attributes.x.value = (parseFloat(e.attributes.x.value) - x - 10) * ratio + 10;
				if (e.tagName == "text")
					e.attributes.x.value = find_child(e.parentNode, "rect[x]").attributes.x.value + 3;
			}
			if (e.attributes.width != undefined) {
				orig_save(e, "width");
				e.attributes.width.value = parseFloat(e.attributes.width.value) * ratio;
			}
		}

		if (e.childNodes == undefined) return;
		for (var i = 0, c = e.childNodes; i < c.length; i++) {
			zoom_child(c[i], x - 10, ratio);
		}
	}
	function zoom_parent(e) {
		if (e.attributes) {
			if (e.attributes.x != undefined) {
				orig_save(e, "x");
				e.attributes.x.value = 10;
			}
			if (e.attributes.width != undefined) {
				orig_save(e, "width");
				e.attributes.width.value = parseInt(svg.width.baseVal.value) - (10 * 2);
			}
		}
		if (e.childNodes == undefined) return;
		for (var i = 0, c = e.childNodes; i < c.length; i++) {
			zoom_parent(c[i]);
		}
	}
	function zoom(node) {
		var attr = find_child(node, "rect").attributes;
		var width = parseFloat(attr.width.value);
		var xmin = parseFloat(attr.x.value);
		var xmax = parseFloat(xmin + width);
		var ymin = parseFloat(attr.y.value);
		var ratio = (svg.width.baseVal.value - 2 * 10) / width;

		// XXX: Workaround for JavaScript float issues (fix me)
		var fudge = 0.0001;

		unzoombtn.classList.remove("hide");

		var el = document.getElementById("frames").children;
		for (var i = 0; i < el.length; i++) {
			var e = el[i];
			var a = find_child(e, "rect").attributes;
			var ex = parseFloat(a.x.value);
			var ew = parseFloat(a.width.value);
			var upstack;
			// Is it an ancestor
			if (0 == 0) {
				upstack = parseFloat(a.y.value) > ymin;
			} else {
				upstack = parseFloat(a.y.value) < ymin;
			}
			if (upstack) {
				// Direct ancestor
				if (ex <= xmin && (ex+ew+fudge) >= xmax) {
					e.classList.add("parent");
					zoom_parent(e);
					update_text(e);
				}
				// not in current path
				else
					e.classList.add("hide");
			}
			// Children maybe
			else {
				// no common path
				if (ex < xmin || ex + fudge >= xmax) {
					e.classList.add("hide");
				}
				else {
					zoom_child(e, xmin, ratio);
					update_text(e);
				}
			}
		}
		search();
	}
	function unzoom(dont_update_text) {
		unzoombtn.classList.add("hide");
		var el = document.getElementById("frames").children;
		for(var i = 0; i < el.length; i++) {
			el[i].classList.remove("parent");
			el[i].classList.remove("hide");
			zoom_reset(el[i]);
			if(!dont_update_text) update_text(el[i]);
		}
		search();
	}
	function clearzoom() {
		unzoom();

		// remove zoom state
		var params = get_params();
		if (params.x) delete params.x;
		if (params.y) delete params.y;
		history.replaceState(null, null, parse_params(params));
	}

	// search
	function toggle_ignorecase() {
		ignorecase = !ignorecase;
		if (ignorecase) {
			ignorecaseBtn.classList.add("show");
		} else {
			ignorecaseBtn.classList.remove("show");
		}
		reset_search();
		search();
	}
	function reset_search() {
		var el = document.querySelectorAll("#frames rect");
		for (var i = 0; i < el.length; i++) {
			orig_load(el[i], "fill")
		}
		var params = get_params();
		delete params.s;
		history.replaceState(null, null, parse_params(params));
	}
	function search_prompt() {
		if (!searching) {
			var term = prompt("Enter a search term (regexp " +
			    "allowed, eg: ^ext4_)"
			    + (ignorecase ? ", ignoring case" : "")
			    + "\nPress Ctrl-i to toggle case sensitivity", "");
			if (term != null) search(term);
		} else {
			reset_search();
			searching = 0;
			currentSearchTerm = null;
			searchbtn.classList.remove("show");
			searchbtn.firstChild.nodeValue = "Search"
			matchedtxt.classList.add("hide");
			matchedtxt.firstChild.nodeValue = ""
		}
	}
	function search(term) {
		if (term) currentSearchTerm = term;

		var re = new RegExp(currentSearchTerm, ignorecase ? 'i' : '');
		var el = document.getElementById("frames").children;
		var matches = new Object();
		var maxwidth = 0;
		for (var i = 0; i < el.length; i++) {
			var e = el[i];
			var func = g_to_func(e);
			var rect = find_child(e, "rect");
			if (func == null || rect == null)
				continue;

			// Save max width. Only works as we have a root frame
			var w = parseFloat(rect.attributes.width.value);
			if (w > maxwidth)
				maxwidth = w;

			if (func.match(re)) {
				// highlight
				var x = parseFloat(rect.attributes.x.value);
				orig_save(rect, "fill");
				rect.attributes.fill.value = "rgb(230,0,230)";

				// remember matches
				if (matches[x] == undefined) {
					matches[x] = w;
				} else {
					if (w > matches[x]) {
						// overwrite with parent
						matches[x] = w;
					}
				}
				searching = 1;
			}
		}
		if (!searching)
			return;
		var params = get_params();
		params.s = currentSearchTerm;
		history.replaceState(null, null, parse_params(params));

		searchbtn.classList.add("show");
		searchbtn.firstChild.nodeValue = "Reset Search";

		// calculate percent matched, excluding vertical overlap
		var count = 0;
		var lastx = -1;
		var lastw = 0;
		var keys = Array();
		for (k in matches) {
			if (matches.hasOwnProperty(k))
				keys.push(k);
		}
		// sort the matched frames by their x location
		// ascending, then width descending
		keys.sort(function(a, b){
			return a - b;
		});
		// Step through frames saving only the biggest bottom-up frames
		// thanks to the sort order. This relies on the tree property
		// where children are always smaller than their parents.
		var fudge = 0.0001;	// JavaScript floating point
		for (var k in keys) {
			var x = parseFloat(keys[k]);
			var w = matches[keys[k]];
			if (x >= lastx + lastw - fudge) {
				count += w;
				lastx = x;
				lastw = w;
			}
		}
		// display matched percent
		matchedtxt.classList.remove("hide");
		var pct = 100 * count / maxwidth;
		if (pct != 100) pct = pct.toFixed(1)
		matchedtxt.firstChild.nodeValue = "Matched: " + pct + "%";
	}
]]>
</script>
<rect x="0.0" y="0" width="1200.0" height="566.0" fill="url(#background)"  />
<text id="title" x="600.00" y="24" >Flame Graph</text>
<text id="details" x="10.00" y="549" > </text>
<text id="unzoom" x="10.00" y="24" class="hide">Reset Zoom</text>
<text id="search" x="1090.00" y="24" >Search</text>
<text id="ignorecase" x="1174.00" y="24" >ic</text>
<text id="matched" x="1090.00" y="549" > </text>
<g id="frames">
<g >
<title>tick_sched_timer (11,002,260 samples, 0.04%)</title><rect x="1029.5" y="165" width="0.5" height="15.0" fill="rgb(254,227,54)" rx="2" ry="2" />
<text  x="1032.54" y="175.5" ></text>
</g>
<g >
<title>amd_pmu_addr_offset (2,750,894 samples, 0.01%)</title><rect x="90.5" y="53" width="0.2" height="15.0" fill="rgb(227,104,25)" rx="2" ry="2" />
<text  x="93.54" y="63.5" ></text>
</g>
<g >
<title>[unknown] (2,750,845 samples, 0.01%)</title><rect x="10.0" y="469" width="0.1" height="15.0" fill="rgb(210,24,5)" rx="2" ry="2" />
<text  x="13.00" y="479.5" ></text>
</g>
<g >
<title>timekeeping_update (2,750,542 samples, 0.01%)</title><rect x="1029.7" y="85" width="0.1" height="15.0" fill="rgb(238,152,36)" rx="2" ry="2" />
<text  x="1032.66" y="95.5" ></text>
</g>
<g >
<title>asm_sysvec_apic_timer_interrupt (16,503,000 samples, 0.06%)</title><rect x="509.0" y="245" width="0.7" height="15.0" fill="rgb(232,127,30)" rx="2" ry="2" />
<text  x="512.04" y="255.5" ></text>
</g>
<g >
<title>ExecInterpExpr (76,994,306 samples, 0.28%)</title><rect x="10.1" y="309" width="3.3" height="15.0" fill="rgb(225,96,22)" rx="2" ry="2" />
<text  x="13.12" y="319.5" ></text>
</g>
<g >
<title>ReleaseBuffer (19,254,198 samples, 0.07%)</title><rect x="1129.5" y="245" width="0.9" height="15.0" fill="rgb(220,71,17)" rx="2" ry="2" />
<text  x="1132.54" y="255.5" ></text>
</g>
<g >
<title>PostmasterMain (27,482,876,444 samples, 99.99%)</title><rect x="10.1" y="453" width="1179.9" height="15.0" fill="rgb(212,35,8)" rx="2" ry="2" />
<text  x="13.12" y="463.5" >PostmasterMain</text>
</g>
<g >
<title>tick_sched_timer (2,751,005 samples, 0.01%)</title><rect x="1078.0" y="165" width="0.1" height="15.0" fill="rgb(254,227,54)" rx="2" ry="2" />
<text  x="1080.98" y="175.5" ></text>
</g>
<g >
<title>exec_simple_query (27,482,876,444 samples, 99.99%)</title><rect x="10.1" y="373" width="1179.9" height="15.0" fill="rgb(211,29,6)" rx="2" ry="2" />
<text  x="13.12" y="383.5" >exec_simple_query</text>
</g>
<g >
<title>scheduler_tick (5,501,170 samples, 0.02%)</title><rect x="1029.8" y="117" width="0.2" height="15.0" fill="rgb(246,190,45)" rx="2" ry="2" />
<text  x="1032.78" y="127.5" ></text>
</g>
<g >
<title>asm_sysvec_apic_timer_interrupt (16,502,248 samples, 0.06%)</title><rect x="1029.4" y="245" width="0.7" height="15.0" fill="rgb(232,127,30)" rx="2" ry="2" />
<text  x="1032.43" y="255.5" ></text>
</g>
<g >
<title>find_busiest_group (2,750,131 samples, 0.01%)</title><rect x="509.5" y="133" width="0.1" height="15.0" fill="rgb(239,158,37)" rx="2" ry="2" />
<text  x="512.51" y="143.5" ></text>
</g>
<g >
<title>native_write_msr (2,751,005 samples, 0.01%)</title><rect x="1078.0" y="37" width="0.1" height="15.0" fill="rgb(237,151,36)" rx="2" ry="2" />
<text  x="1080.98" y="47.5" ></text>
</g>
<g >
<title>scheduler_tick (2,751,005 samples, 0.01%)</title><rect x="1078.0" y="117" width="0.1" height="15.0" fill="rgb(246,190,45)" rx="2" ry="2" />
<text  x="1080.98" y="127.5" ></text>
</g>
<g >
<title>SeqNext (11,002,879 samples, 0.04%)</title><rect x="1189.5" y="309" width="0.5" height="15.0" fill="rgb(214,41,10)" rx="2" ry="2" />
<text  x="1192.53" y="319.5" ></text>
</g>
<g >
<title>timerqueue_add (2,750,845 samples, 0.01%)</title><rect x="1029.4" y="149" width="0.1" height="15.0" fill="rgb(214,42,10)" rx="2" ry="2" />
<text  x="1032.43" y="159.5" ></text>
</g>
<g >
<title>perf_event_task_tick (2,751,005 samples, 0.01%)</title><rect x="1078.0" y="101" width="0.1" height="15.0" fill="rgb(205,3,0)" rx="2" ry="2" />
<text  x="1080.98" y="111.5" ></text>
</g>
<g >
<title>int4lt (140,261,482 samples, 0.51%)</title><rect x="1181.0" y="293" width="6.0" height="15.0" fill="rgb(242,172,41)" rx="2" ry="2" />
<text  x="1184.03" y="303.5" ></text>
</g>
<g >
<title>asm_sysvec_apic_timer_interrupt (2,751,005 samples, 0.01%)</title><rect x="1078.0" y="245" width="0.1" height="15.0" fill="rgb(232,127,30)" rx="2" ry="2" />
<text  x="1080.98" y="255.5" ></text>
</g>
<g >
<title>hash_bytes (13,752,814 samples, 0.05%)</title><rect x="1167.9" y="229" width="0.6" height="15.0" fill="rgb(227,102,24)" rx="2" ry="2" />
<text  x="1170.92" y="239.5" ></text>
</g>
<g >
<title>rcu_sched_clock_irq (2,750,865 samples, 0.01%)</title><rect x="509.3" y="117" width="0.1" height="15.0" fill="rgb(208,15,3)" rx="2" ry="2" />
<text  x="512.28" y="127.5" ></text>
</g>
<g >
<title>run_timer_softirq (2,749,821 samples, 0.01%)</title><rect x="509.6" y="181" width="0.1" height="15.0" fill="rgb(249,206,49)" rx="2" ry="2" />
<text  x="512.63" y="191.5" ></text>
</g>
<g >
<title>update_process_times (2,750,865 samples, 0.01%)</title><rect x="509.3" y="133" width="0.1" height="15.0" fill="rgb(250,209,50)" rx="2" ry="2" />
<text  x="512.28" y="143.5" ></text>
</g>
<g >
<title>LWLockRelease (30,255,139 samples, 0.11%)</title><rect x="1127.9" y="245" width="1.3" height="15.0" fill="rgb(217,58,13)" rx="2" ry="2" />
<text  x="1130.88" y="255.5" ></text>
</g>
<g >
<title>PortalRun (27,482,876,444 samples, 99.99%)</title><rect x="10.1" y="357" width="1179.9" height="15.0" fill="rgb(223,85,20)" rx="2" ry="2" />
<text  x="13.12" y="367.5" >PortalRun</text>
</g>
<g >
<title>ResourceOwnerForget (5,501,890 samples, 0.02%)</title><rect x="1130.1" y="229" width="0.3" height="15.0" fill="rgb(235,142,33)" rx="2" ry="2" />
<text  x="1133.13" y="239.5" ></text>
</g>
<g >
<title>update_process_times (5,501,170 samples, 0.02%)</title><rect x="1029.8" y="133" width="0.2" height="15.0" fill="rgb(250,209,50)" rx="2" ry="2" />
<text  x="1032.78" y="143.5" ></text>
</g>
<g >
<title>__perf_event_task_sched_in (2,749,143 samples, 0.01%)</title><rect x="1030.0" y="101" width="0.1" height="15.0" fill="rgb(231,121,29)" rx="2" ry="2" />
<text  x="1033.02" y="111.5" ></text>
</g>
<g >
<title>tts_buffer_heap_getsomeattrs (930,179,513 samples, 3.38%)</title><rect x="1038.2" y="261" width="39.9" height="15.0" fill="rgb(222,81,19)" rx="2" ry="2" />
<text  x="1041.16" y="271.5" >tts..</text>
</g>
<g >
<title>update_process_times (2,751,005 samples, 0.01%)</title><rect x="1078.0" y="133" width="0.1" height="15.0" fill="rgb(250,209,50)" rx="2" ry="2" />
<text  x="1080.98" y="143.5" ></text>
</g>
<g >
<title>schedule (2,749,143 samples, 0.01%)</title><rect x="1030.0" y="149" width="0.1" height="15.0" fill="rgb(254,229,54)" rx="2" ry="2" />
<text  x="1033.02" y="159.5" ></text>
</g>
<g >
<title>PinBuffer (126,519,649 samples, 0.46%)</title><rect x="1160.1" y="213" width="5.5" height="15.0" fill="rgb(219,64,15)" rx="2" ry="2" />
<text  x="1163.13" y="223.5" ></text>
</g>
<g >
<title>pgstat_count_backend_io_op (33,004,355 samples, 0.12%)</title><rect x="1165.6" y="213" width="1.4" height="15.0" fill="rgb(244,179,42)" rx="2" ry="2" />
<text  x="1168.56" y="223.5" ></text>
</g>
<g >
<title>pgstat_count_io_op (110,005,450 samples, 0.40%)</title><rect x="1168.5" y="229" width="4.7" height="15.0" fill="rgb(207,10,2)" rx="2" ry="2" />
<text  x="1171.51" y="239.5" ></text>
</g>
<g >
<title>tick_sched_handle (2,750,865 samples, 0.01%)</title><rect x="509.3" y="149" width="0.1" height="15.0" fill="rgb(219,68,16)" rx="2" ry="2" />
<text  x="512.28" y="159.5" ></text>
</g>
<g >
<title>pgstat_count_io_op (22,001,985 samples, 0.08%)</title><rect x="1167.0" y="213" width="0.9" height="15.0" fill="rgb(207,10,2)" rx="2" ry="2" />
<text  x="1169.98" y="223.5" ></text>
</g>
<g >
<title>tick_sched_do_timer (5,501,090 samples, 0.02%)</title><rect x="1029.5" y="149" width="0.3" height="15.0" fill="rgb(227,104,25)" rx="2" ry="2" />
<text  x="1032.54" y="159.5" ></text>
</g>
<g >
<title>sysvec_apic_timer_interrupt (2,750,894 samples, 0.01%)</title><rect x="90.5" y="261" width="0.2" height="15.0" fill="rgb(220,69,16)" rx="2" ry="2" />
<text  x="93.54" y="271.5" ></text>
</g>
<g >
<title>ReleaseBuffer (19,253,891 samples, 0.07%)</title><rect x="1102.9" y="245" width="0.8" height="15.0" fill="rgb(220,71,17)" rx="2" ry="2" />
<text  x="1105.85" y="255.5" ></text>
</g>
<g >
<title>MemoryContextReset (19,253,367 samples, 0.07%)</title><rect x="1188.7" y="309" width="0.8" height="15.0" fill="rgb(210,26,6)" rx="2" ry="2" />
<text  x="1191.70" y="319.5" ></text>
</g>
<g >
<title>UnpinBufferNoOwner (30,254,197 samples, 0.11%)</title><rect x="1130.4" y="245" width="1.3" height="15.0" fill="rgb(253,221,53)" rx="2" ry="2" />
<text  x="1133.36" y="255.5" ></text>
</g>
<g >
<title>bpcharlen (57,749,264 samples, 0.21%)</title><rect x="1173.4" y="293" width="2.4" height="15.0" fill="rgb(221,77,18)" rx="2" ry="2" />
<text  x="1176.35" y="303.5" ></text>
</g>
<g >
<title>[unknown] (2,750,845 samples, 0.01%)</title><rect x="10.0" y="485" width="0.1" height="15.0" fill="rgb(210,24,5)" rx="2" ry="2" />
<text  x="13.00" y="495.5" ></text>
</g>
<g >
<title>sysvec_apic_timer_interrupt (16,502,248 samples, 0.06%)</title><rect x="1029.4" y="229" width="0.7" height="15.0" fill="rgb(220,69,16)" rx="2" ry="2" />
<text  x="1032.43" y="239.5" ></text>
</g>
<g >
<title>irqentry_exit (2,749,143 samples, 0.01%)</title><rect x="1030.0" y="213" width="0.1" height="15.0" fill="rgb(219,66,15)" rx="2" ry="2" />
<text  x="1033.02" y="223.5" ></text>
</g>
<g >
<title>update_group_capacity (2,750,131 samples, 0.01%)</title><rect x="509.5" y="101" width="0.1" height="15.0" fill="rgb(219,65,15)" rx="2" ry="2" />
<text  x="512.51" y="111.5" ></text>
</g>
<g >
<title>StartReadBuffer (731,809,169 samples, 2.66%)</title><rect x="1136.5" y="229" width="31.4" height="15.0" fill="rgb(222,78,18)" rx="2" ry="2" />
<text  x="1139.50" y="239.5" >St..</text>
</g>
<g >
<title>BufTableLookup (247,537,501 samples, 0.90%)</title><rect x="1148.2" y="213" width="10.6" height="15.0" fill="rgb(224,89,21)" rx="2" ry="2" />
<text  x="1151.20" y="223.5" ></text>
</g>
<g >
<title>pg_database_encoding_max_length (30,252,851 samples, 0.11%)</title><rect x="1030.1" y="277" width="1.3" height="15.0" fill="rgb(243,176,42)" rx="2" ry="2" />
<text  x="1033.14" y="287.5" ></text>
</g>
<g >
<title>_raw_spin_lock_irqsave (2,749,821 samples, 0.01%)</title><rect x="509.6" y="85" width="0.1" height="15.0" fill="rgb(247,195,46)" rx="2" ry="2" />
<text  x="512.63" y="95.5" ></text>
</g>
<g >
<title>ReleaseBuffer (2,750,201 samples, 0.01%)</title><rect x="1104.4" y="261" width="0.1" height="15.0" fill="rgb(220,71,17)" rx="2" ry="2" />
<text  x="1107.39" y="271.5" ></text>
</g>
<g >
<title>UnpinBufferNoOwner (2,750,500 samples, 0.01%)</title><rect x="1104.5" y="261" width="0.1" height="15.0" fill="rgb(253,221,53)" rx="2" ry="2" />
<text  x="1107.50" y="271.5" ></text>
</g>
<g >
<title>__hrtimer_run_queues (2,751,005 samples, 0.01%)</title><rect x="1078.0" y="181" width="0.1" height="15.0" fill="rgb(237,150,35)" rx="2" ry="2" />
<text  x="1080.98" y="191.5" ></text>
</g>
<g >
<title>tick_sched_do_timer (2,750,811 samples, 0.01%)</title><rect x="509.2" y="149" width="0.1" height="15.0" fill="rgb(227,104,25)" rx="2" ry="2" />
<text  x="512.16" y="159.5" ></text>
</g>
<g >
<title>srso_alias_safe_ret (2,750,711 samples, 0.01%)</title><rect x="1173.2" y="277" width="0.2" height="15.0" fill="rgb(242,170,40)" rx="2" ry="2" />
<text  x="1176.23" y="287.5" ></text>
</g>
<g >
<title>sysvec_apic_timer_interrupt (2,751,005 samples, 0.01%)</title><rect x="1078.0" y="229" width="0.1" height="15.0" fill="rgb(220,69,16)" rx="2" ry="2" />
<text  x="1080.98" y="239.5" ></text>
</g>
<g >
<title>LWLockAttemptLock (22,002,663 samples, 0.08%)</title><rect x="1158.9" y="213" width="1.0" height="15.0" fill="rgb(235,138,33)" rx="2" ry="2" />
<text  x="1161.95" y="223.5" ></text>
</g>
<g >
<title>read_tsc (2,750,424 samples, 0.01%)</title><rect x="509.0" y="149" width="0.2" height="15.0" fill="rgb(206,7,1)" rx="2" ry="2" />
<text  x="512.04" y="159.5" ></text>
</g>
<g >
<title>tick_do_update_jiffies64 (5,501,090 samples, 0.02%)</title><rect x="1029.5" y="133" width="0.3" height="15.0" fill="rgb(208,14,3)" rx="2" ry="2" />
<text  x="1032.54" y="143.5" ></text>
</g>
<g >
<title>__sysvec_apic_timer_interrupt (13,753,105 samples, 0.05%)</title><rect x="1029.4" y="213" width="0.6" height="15.0" fill="rgb(242,173,41)" rx="2" ry="2" />
<text  x="1032.43" y="223.5" ></text>
</g>
<g >
<title>hrtimer_update_next_event (2,750,948 samples, 0.01%)</title><rect x="509.4" y="181" width="0.1" height="15.0" fill="rgb(225,92,22)" rx="2" ry="2" />
<text  x="512.39" y="191.5" ></text>
</g>
<g >
<title>hash_search_with_hash_value (242,036,753 samples, 0.88%)</title><rect x="1148.4" y="197" width="10.4" height="15.0" fill="rgb(249,205,49)" rx="2" ry="2" />
<text  x="1151.44" y="207.5" ></text>
</g>
<g >
<title>__hrtimer_run_queues (13,753,105 samples, 0.05%)</title><rect x="1029.4" y="181" width="0.6" height="15.0" fill="rgb(237,150,35)" rx="2" ry="2" />
<text  x="1032.43" y="191.5" ></text>
</g>
<g >
<title>fq_flush_timeout (2,749,821 samples, 0.01%)</title><rect x="509.6" y="133" width="0.1" height="15.0" fill="rgb(213,40,9)" rx="2" ry="2" />
<text  x="512.63" y="143.5" ></text>
</g>
<g >
<title>GetPrivateRefCountEntry (2,750,181 samples, 0.01%)</title><rect x="1104.1" y="229" width="0.2" height="15.0" fill="rgb(250,209,50)" rx="2" ry="2" />
<text  x="1107.15" y="239.5" ></text>
</g>
<g >
<title>fq_ring_free (2,749,821 samples, 0.01%)</title><rect x="509.6" y="117" width="0.1" height="15.0" fill="rgb(206,6,1)" rx="2" ry="2" />
<text  x="512.63" y="127.5" ></text>
</g>
<g >
<title>update_sd_lb_stats.constprop.0 (2,750,131 samples, 0.01%)</title><rect x="509.5" y="117" width="0.1" height="15.0" fill="rgb(223,86,20)" rx="2" ry="2" />
<text  x="512.51" y="127.5" ></text>
</g>
<g >
<title>__libc_start_call_main (27,482,876,444 samples, 99.99%)</title><rect x="10.1" y="485" width="1179.9" height="15.0" fill="rgb(210,26,6)" rx="2" ry="2" />
<text  x="13.12" y="495.5" >__libc_start_call_main</text>
</g>
<g >
<title>__run_timers.part.0 (2,749,821 samples, 0.01%)</title><rect x="509.6" y="165" width="0.1" height="15.0" fill="rgb(215,49,11)" rx="2" ry="2" />
<text  x="512.63" y="175.5" ></text>
</g>
<g >
<title>run_rebalance_domains (2,750,131 samples, 0.01%)</title><rect x="509.5" y="181" width="0.1" height="15.0" fill="rgb(232,126,30)" rx="2" ry="2" />
<text  x="512.51" y="191.5" ></text>
</g>
<g >
<title>LWLockAcquire (11,001,835 samples, 0.04%)</title><rect x="1133.9" y="229" width="0.5" height="15.0" fill="rgb(209,20,4)" rx="2" ry="2" />
<text  x="1136.91" y="239.5" ></text>
</g>
<g >
<title>standard_ExecutorRun (27,482,876,444 samples, 99.99%)</title><rect x="10.1" y="325" width="1179.9" height="15.0" fill="rgb(247,196,47)" rx="2" ry="2" />
<text  x="13.12" y="335.5" >standard_ExecutorRun</text>
</g>
<g >
<title>finish_task_switch.isra.0 (2,749,143 samples, 0.01%)</title><rect x="1030.0" y="117" width="0.1" height="15.0" fill="rgb(246,189,45)" rx="2" ry="2" />
<text  x="1033.02" y="127.5" ></text>
</g>
<g >
<title>heapgettup_pagemode (1,595,426,267 samples, 5.80%)</title><rect x="1104.7" y="261" width="68.5" height="15.0" fill="rgb(242,170,40)" rx="2" ry="2" />
<text  x="1107.74" y="271.5" >heapget..</text>
</g>
<g >
<title>scheduler_tick (2,750,894 samples, 0.01%)</title><rect x="90.5" y="149" width="0.2" height="15.0" fill="rgb(246,190,45)" rx="2" ry="2" />
<text  x="93.54" y="159.5" ></text>
</g>
<g >
<title>hrtimer_interrupt (11,003,048 samples, 0.04%)</title><rect x="509.0" y="197" width="0.5" height="15.0" fill="rgb(228,109,26)" rx="2" ry="2" />
<text  x="512.04" y="207.5" ></text>
</g>
<g >
<title>irqentry_exit_to_user_mode (2,749,143 samples, 0.01%)</title><rect x="1030.0" y="197" width="0.1" height="15.0" fill="rgb(254,229,54)" rx="2" ry="2" />
<text  x="1033.02" y="207.5" ></text>
</g>
<g >
<title>all (27,485,627,289 samples, 100%)</title><rect x="10.0" y="517" width="1180.0" height="15.0" fill="rgb(213,39,9)" rx="2" ry="2" />
<text  x="13.00" y="527.5" ></text>
</g>
<g >
<title>__sysvec_apic_timer_interrupt (2,750,894 samples, 0.01%)</title><rect x="90.5" y="245" width="0.2" height="15.0" fill="rgb(242,173,41)" rx="2" ry="2" />
<text  x="93.54" y="255.5" ></text>
</g>
<g >
<title>hrtimer_interrupt (13,753,105 samples, 0.05%)</title><rect x="1029.4" y="197" width="0.6" height="15.0" fill="rgb(228,109,26)" rx="2" ry="2" />
<text  x="1032.43" y="207.5" ></text>
</g>
<g >
<title>update_wall_time (5,501,090 samples, 0.02%)</title><rect x="1029.5" y="117" width="0.3" height="15.0" fill="rgb(207,11,2)" rx="2" ry="2" />
<text  x="1032.54" y="127.5" ></text>
</g>
<g >
<title>PortalRunSelect (27,482,876,444 samples, 99.99%)</title><rect x="10.1" y="341" width="1179.9" height="15.0" fill="rgb(245,188,45)" rx="2" ry="2" />
<text  x="13.12" y="351.5" >PortalRunSelect</text>
</g>
<g >
<title>pg_utf_mblen_private (12,121,337,964 samples, 44.10%)</title><rect x="509.7" y="261" width="520.4" height="15.0" fill="rgb(242,173,41)" rx="2" ry="2" />
<text  x="512.75" y="271.5" >pg_utf_mblen_private</text>
</g>
<g >
<title>perf_event_task_tick (2,750,894 samples, 0.01%)</title><rect x="90.5" y="133" width="0.2" height="15.0" fill="rgb(205,3,0)" rx="2" ry="2" />
<text  x="93.54" y="143.5" ></text>
</g>
<g >
<title>pg_mbstrlen_with_len (5,500,951 samples, 0.02%)</title><rect x="1032.6" y="277" width="0.3" height="15.0" fill="rgb(228,106,25)" rx="2" ry="2" />
<text  x="1035.61" y="287.5" ></text>
</g>
<g >
<title>MemoryContextReset (30,251,590 samples, 0.11%)</title><rect x="1081.8" y="293" width="1.3" height="15.0" fill="rgb(210,26,6)" rx="2" ry="2" />
<text  x="1084.76" y="303.5" ></text>
</g>
<g >
<title>raw_notifier_call_chain (2,750,542 samples, 0.01%)</title><rect x="1029.7" y="69" width="0.1" height="15.0" fill="rgb(221,73,17)" rx="2" ry="2" />
<text  x="1032.66" y="79.5" ></text>
</g>
<g >
<title>__schedule (2,749,143 samples, 0.01%)</title><rect x="1030.0" y="133" width="0.1" height="15.0" fill="rgb(227,103,24)" rx="2" ry="2" />
<text  x="1033.02" y="143.5" ></text>
</g>
<g >
<title>GetPrivateRefCountEntry (8,251,210 samples, 0.03%)</title><rect x="1102.3" y="229" width="0.3" height="15.0" fill="rgb(250,209,50)" rx="2" ry="2" />
<text  x="1105.26" y="239.5" ></text>
</g>
<g >
<title>ExecStoreBufferHeapTuple (140,244,146 samples, 0.51%)</title><rect x="1098.2" y="261" width="6.1" height="15.0" fill="rgb(230,117,28)" rx="2" ry="2" />
<text  x="1101.25" y="271.5" ></text>
</g>
<g >
<title>call_timer_fn (2,749,821 samples, 0.01%)</title><rect x="509.6" y="149" width="0.1" height="15.0" fill="rgb(234,135,32)" rx="2" ry="2" />
<text  x="512.63" y="159.5" ></text>
</g>
<g >
<title>LWLockAttemptLock (11,001,206 samples, 0.04%)</title><rect x="1134.4" y="229" width="0.4" height="15.0" fill="rgb(235,138,33)" rx="2" ry="2" />
<text  x="1137.38" y="239.5" ></text>
</g>
<g >
<title>pg_detoast_datum_packed (27,503,657 samples, 0.10%)</title><rect x="1031.4" y="277" width="1.2" height="15.0" fill="rgb(238,155,37)" rx="2" ry="2" />
<text  x="1034.43" y="287.5" ></text>
</g>
<g >
<title>__memcmp_evex_movbe (5,500,748 samples, 0.02%)</title><rect x="1148.2" y="197" width="0.2" height="15.0" fill="rgb(219,67,16)" rx="2" ry="2" />
<text  x="1151.20" y="207.5" ></text>
</g>
<g >
<title>update_process_times (2,750,894 samples, 0.01%)</title><rect x="90.5" y="165" width="0.2" height="15.0" fill="rgb(250,209,50)" rx="2" ry="2" />
<text  x="93.54" y="175.5" ></text>
</g>
<g >
<title>PostgresMain (27,482,876,444 samples, 99.99%)</title><rect x="10.1" y="389" width="1179.9" height="15.0" fill="rgb(227,103,24)" rx="2" ry="2" />
<text  x="13.12" y="399.5" >PostgresMain</text>
</g>
<g >
<title>pgstat_count_io_op (2,750,845 samples, 0.01%)</title><rect x="10.0" y="453" width="0.1" height="15.0" fill="rgb(207,10,2)" rx="2" ry="2" />
<text  x="13.00" y="463.5" ></text>
</g>
<g >
<title>BufTableHashCode (5,501,527 samples, 0.02%)</title><rect x="1136.3" y="229" width="0.2" height="15.0" fill="rgb(215,47,11)" rx="2" ry="2" />
<text  x="1139.27" y="239.5" ></text>
</g>
<g >
<title>tick_sched_handle (2,750,894 samples, 0.01%)</title><rect x="90.5" y="181" width="0.2" height="15.0" fill="rgb(219,68,16)" rx="2" ry="2" />
<text  x="93.54" y="191.5" ></text>
</g>
<g >
<title>SeqNext (2,103,219,858 samples, 7.65%)</title><rect x="1083.1" y="293" width="90.3" height="15.0" fill="rgb(214,41,10)" rx="2" ry="2" />
<text  x="1086.06" y="303.5" >SeqNext</text>
</g>
<g >
<title>tick_sched_handle (2,751,005 samples, 0.01%)</title><rect x="1078.0" y="149" width="0.1" height="15.0" fill="rgb(219,68,16)" rx="2" ry="2" />
<text  x="1080.98" y="159.5" ></text>
</g>
<g >
<title>x86_pmu_disable (2,751,005 samples, 0.01%)</title><rect x="1078.0" y="69" width="0.1" height="15.0" fill="rgb(239,160,38)" rx="2" ry="2" />
<text  x="1080.98" y="79.5" ></text>
</g>
<g >
<title>LWLockAcquire (2,750,376 samples, 0.01%)</title><rect x="1158.8" y="213" width="0.1" height="15.0" fill="rgb(209,20,4)" rx="2" ry="2" />
<text  x="1161.83" y="223.5" ></text>
</g>
<g >
<title>pg_mbstrlen_with_len (9,184,227,988 samples, 33.41%)</title><rect x="115.5" y="261" width="394.2" height="15.0" fill="rgb(228,106,25)" rx="2" ry="2" />
<text  x="118.45" y="271.5" >pg_mbstrlen_with_len</text>
</g>
<g >
<title>amd_pmu_disable_all (2,751,005 samples, 0.01%)</title><rect x="1078.0" y="53" width="0.1" height="15.0" fill="rgb(213,38,9)" rx="2" ry="2" />
<text  x="1080.98" y="63.5" ></text>
</g>
<g >
<title>tts_buffer_heap_getsomeattrs (85,259,701 samples, 0.31%)</title><rect x="1078.1" y="277" width="3.7" height="15.0" fill="rgb(222,81,19)" rx="2" ry="2" />
<text  x="1081.10" y="287.5" ></text>
</g>
<g >
<title>__hrtimer_run_queues (2,750,894 samples, 0.01%)</title><rect x="90.5" y="213" width="0.2" height="15.0" fill="rgb(237,150,35)" rx="2" ry="2" />
<text  x="93.54" y="223.5" ></text>
</g>
<g >
<title>main (27,482,876,444 samples, 99.99%)</title><rect x="10.1" y="469" width="1179.9" height="15.0" fill="rgb(243,179,42)" rx="2" ry="2" />
<text  x="13.12" y="479.5" >main</text>
</g>
<g >
<title>ResourceOwnerEnlarge (2,750,695 samples, 0.01%)</title><rect x="1103.7" y="245" width="0.1" height="15.0" fill="rgb(223,86,20)" rx="2" ry="2" />
<text  x="1106.68" y="255.5" ></text>
</g>
<g >
<title>__sysvec_apic_timer_interrupt (11,003,048 samples, 0.04%)</title><rect x="509.0" y="213" width="0.5" height="15.0" fill="rgb(242,173,41)" rx="2" ry="2" />
<text  x="512.04" y="223.5" ></text>
</g>
<g >
<title>UnpinBufferNoOwner (11,001,689 samples, 0.04%)</title><rect x="1103.8" y="245" width="0.5" height="15.0" fill="rgb(253,221,53)" rx="2" ry="2" />
<text  x="1106.79" y="255.5" ></text>
</g>
<g >
<title>__sysvec_apic_timer_interrupt (2,751,005 samples, 0.01%)</title><rect x="1078.0" y="213" width="0.1" height="15.0" fill="rgb(242,173,41)" rx="2" ry="2" />
<text  x="1080.98" y="223.5" ></text>
</g>
<g >
<title>ResourceOwnerForget (16,503,928 samples, 0.06%)</title><rect x="1103.0" y="229" width="0.7" height="15.0" fill="rgb(235,142,33)" rx="2" ry="2" />
<text  x="1105.97" y="239.5" ></text>
</g>
<g >
<title>heap_prepare_pagescan (79,757,511 samples, 0.29%)</title><rect x="1131.7" y="245" width="3.4" height="15.0" fill="rgb(222,82,19)" rx="2" ry="2" />
<text  x="1134.66" y="255.5" ></text>
</g>
<g >
<title>LockBuffer (8,251,445 samples, 0.03%)</title><rect x="1129.2" y="245" width="0.3" height="15.0" fill="rgb(235,142,34)" rx="2" ry="2" />
<text  x="1132.18" y="255.5" ></text>
</g>
<g >
<title>bpcharlen (21,883,134,335 samples, 79.62%)</title><rect x="90.7" y="277" width="939.4" height="15.0" fill="rgb(221,77,18)" rx="2" ry="2" />
<text  x="93.66" y="287.5" >bpcharlen</text>
</g>
<g >
<title>slot_getsomeattrs_int (38,505,048 samples, 0.14%)</title><rect x="1187.0" y="293" width="1.7" height="15.0" fill="rgb(252,219,52)" rx="2" ry="2" />
<text  x="1190.05" y="303.5" ></text>
</g>
<g >
<title>rebalance_domains (2,750,131 samples, 0.01%)</title><rect x="509.5" y="165" width="0.1" height="15.0" fill="rgb(248,202,48)" rx="2" ry="2" />
<text  x="512.51" y="175.5" ></text>
</g>
<g >
<title>postmaster_child_launch (27,482,876,444 samples, 99.99%)</title><rect x="10.1" y="421" width="1179.9" height="15.0" fill="rgb(206,5,1)" rx="2" ry="2" />
<text  x="13.12" y="431.5" >postmaster_child_launch</text>
</g>
<g >
<title>free_iova_fast (2,749,821 samples, 0.01%)</title><rect x="509.6" y="101" width="0.1" height="15.0" fill="rgb(223,87,20)" rx="2" ry="2" />
<text  x="512.63" y="111.5" ></text>
</g>
<g >
<title>heap_page_prune_opt (5,497,769 samples, 0.02%)</title><rect x="1134.8" y="229" width="0.3" height="15.0" fill="rgb(211,29,7)" rx="2" ry="2" />
<text  x="1137.85" y="239.5" ></text>
</g>
<g >
<title>postgres (27,485,627,289 samples, 100.00%)</title><rect x="10.0" y="501" width="1180.0" height="15.0" fill="rgb(233,131,31)" rx="2" ry="2" />
<text  x="13.00" y="511.5" >postgres</text>
</g>
<g >
<title>ExecSeqScanWithQual (27,375,625,892 samples, 99.60%)</title><rect x="13.4" y="309" width="1175.3" height="15.0" fill="rgb(254,227,54)" rx="2" ry="2" />
<text  x="16.42" y="319.5" >ExecSeqScanWithQual</text>
</g>
<g >
<title>GetPrivateRefCountEntry (22,004,625 samples, 0.08%)</title><rect x="1130.7" y="229" width="1.0" height="15.0" fill="rgb(250,209,50)" rx="2" ry="2" />
<text  x="1133.72" y="239.5" ></text>
</g>
<g >
<title>irq_exit_rcu (5,499,952 samples, 0.02%)</title><rect x="509.5" y="213" width="0.2" height="15.0" fill="rgb(254,227,54)" rx="2" ry="2" />
<text  x="512.51" y="223.5" ></text>
</g>
<g >
<title>update_load_avg (2,750,803 samples, 0.01%)</title><rect x="1029.9" y="101" width="0.1" height="15.0" fill="rgb(240,165,39)" rx="2" ry="2" />
<text  x="1032.90" y="111.5" ></text>
</g>
<g >
<title>tick_sched_handle (5,501,170 samples, 0.02%)</title><rect x="1029.8" y="149" width="0.2" height="15.0" fill="rgb(219,68,16)" rx="2" ry="2" />
<text  x="1032.78" y="159.5" ></text>
</g>
<g >
<title>tick_sched_timer (8,252,100 samples, 0.03%)</title><rect x="509.0" y="165" width="0.4" height="15.0" fill="rgb(254,227,54)" rx="2" ry="2" />
<text  x="512.04" y="175.5" ></text>
</g>
<g >
<title>x86_pmu_disable_all (2,750,894 samples, 0.01%)</title><rect x="90.5" y="69" width="0.2" height="15.0" fill="rgb(254,227,54)" rx="2" ry="2" />
<text  x="93.54" y="79.5" ></text>
</g>
<g >
<title>LockBuffer (2,750,282 samples, 0.01%)</title><rect x="1104.3" y="261" width="0.1" height="15.0" fill="rgb(235,142,34)" rx="2" ry="2" />
<text  x="1107.27" y="271.5" ></text>
</g>
<g >
<title>heap_getnextslot (1,921,692,425 samples, 6.99%)</title><rect x="1090.7" y="277" width="82.5" height="15.0" fill="rgb(213,40,9)" rx="2" ry="2" />
<text  x="1093.73" y="287.5" >heap_getn..</text>
</g>
<g >
<title>sysvec_apic_timer_interrupt (16,503,000 samples, 0.06%)</title><rect x="509.0" y="229" width="0.7" height="15.0" fill="rgb(220,69,16)" rx="2" ry="2" />
<text  x="512.04" y="239.5" ></text>
</g>
<g >
<title>LWLockRelease (5,498,245 samples, 0.02%)</title><rect x="1159.9" y="213" width="0.2" height="15.0" fill="rgb(217,58,13)" rx="2" ry="2" />
<text  x="1162.89" y="223.5" ></text>
</g>
<g >
<title>hrtimer_interrupt (2,751,005 samples, 0.01%)</title><rect x="1078.0" y="197" width="0.1" height="15.0" fill="rgb(228,109,26)" rx="2" ry="2" />
<text  x="1080.98" y="207.5" ></text>
</g>
<g >
<title>hrtimer_interrupt (2,750,894 samples, 0.01%)</title><rect x="90.5" y="229" width="0.2" height="15.0" fill="rgb(228,109,26)" rx="2" ry="2" />
<text  x="93.54" y="239.5" ></text>
</g>
<g >
<title>ResourceOwnerEnlarge (5,500,968 samples, 0.02%)</title><rect x="1102.6" y="229" width="0.3" height="15.0" fill="rgb(223,86,20)" rx="2" ry="2" />
<text  x="1105.61" y="239.5" ></text>
</g>
<g >
<title>amd_pmu_disable_all (2,750,894 samples, 0.01%)</title><rect x="90.5" y="85" width="0.2" height="15.0" fill="rgb(213,38,9)" rx="2" ry="2" />
<text  x="93.54" y="95.5" ></text>
</g>
<g >
<title>perf_adjust_freq_unthr_context (2,751,005 samples, 0.01%)</title><rect x="1078.0" y="85" width="0.1" height="15.0" fill="rgb(236,146,35)" rx="2" ry="2" />
<text  x="1080.98" y="95.5" ></text>
</g>
<g >
<title>handle_softirqs (5,499,952 samples, 0.02%)</title><rect x="509.5" y="197" width="0.2" height="15.0" fill="rgb(238,156,37)" rx="2" ry="2" />
<text  x="512.51" y="207.5" ></text>
</g>
<g >
<title>perf_adjust_freq_unthr_context (2,750,894 samples, 0.01%)</title><rect x="90.5" y="117" width="0.2" height="15.0" fill="rgb(236,146,35)" rx="2" ry="2" />
<text  x="93.54" y="127.5" ></text>
</g>
<g >
<title>BufferGetBlockNumber (2,750,432 samples, 0.01%)</title><rect x="1098.1" y="261" width="0.1" height="15.0" fill="rgb(206,7,1)" rx="2" ry="2" />
<text  x="1101.13" y="271.5" ></text>
</g>
<g >
<title>x86_pmu_disable (2,750,894 samples, 0.01%)</title><rect x="90.5" y="101" width="0.2" height="15.0" fill="rgb(239,160,38)" rx="2" ry="2" />
<text  x="93.54" y="111.5" ></text>
</g>
<g >
<title>tick_sched_timer (2,750,894 samples, 0.01%)</title><rect x="90.5" y="197" width="0.2" height="15.0" fill="rgb(254,227,54)" rx="2" ry="2" />
<text  x="93.54" y="207.5" ></text>
</g>
<g >
<title>exit_to_user_mode_prepare (2,749,143 samples, 0.01%)</title><rect x="1030.0" y="181" width="0.1" height="15.0" fill="rgb(228,108,25)" rx="2" ry="2" />
<text  x="1033.02" y="191.5" ></text>
</g>
<g >
<title>heap_prepare_pagescan (2,750,165 samples, 0.01%)</title><rect x="1104.6" y="261" width="0.1" height="15.0" fill="rgb(222,82,19)" rx="2" ry="2" />
<text  x="1107.62" y="271.5" ></text>
</g>
<g >
<title>tick_do_update_jiffies64 (2,750,811 samples, 0.01%)</title><rect x="509.2" y="133" width="0.1" height="15.0" fill="rgb(208,14,3)" rx="2" ry="2" />
<text  x="512.16" y="143.5" ></text>
</g>
<g >
<title>exit_to_user_mode_loop (2,749,143 samples, 0.01%)</title><rect x="1030.0" y="165" width="0.1" height="15.0" fill="rgb(224,90,21)" rx="2" ry="2" />
<text  x="1033.02" y="175.5" ></text>
</g>
<g >
<title>IncrBufferRefCount (13,752,178 samples, 0.05%)</title><rect x="1102.3" y="245" width="0.6" height="15.0" fill="rgb(209,22,5)" rx="2" ry="2" />
<text  x="1105.26" y="255.5" ></text>
</g>
<g >
<title>asm_sysvec_apic_timer_interrupt (2,750,894 samples, 0.01%)</title><rect x="90.5" y="277" width="0.2" height="15.0" fill="rgb(232,127,30)" rx="2" ry="2" />
<text  x="93.54" y="287.5" ></text>
</g>
<g >
<title>[postgres] (27,482,876,444 samples, 99.99%)</title><rect x="10.1" y="405" width="1179.9" height="15.0" fill="rgb(245,184,44)" rx="2" ry="2" />
<text  x="13.12" y="415.5" >[postgres]</text>
</g>
<g >
<title>timekeeping_advance (5,501,090 samples, 0.02%)</title><rect x="1029.5" y="101" width="0.3" height="15.0" fill="rgb(227,104,25)" rx="2" ry="2" />
<text  x="1032.54" y="111.5" ></text>
</g>
<g >
<title>ExecInterpExpr (24,818,615,115 samples, 90.30%)</title><rect x="16.3" y="293" width="1065.5" height="15.0" fill="rgb(225,96,22)" rx="2" ry="2" />
<text  x="19.26" y="303.5" >ExecInterpExpr</text>
</g>
<g >
<title>enqueue_hrtimer (2,750,845 samples, 0.01%)</title><rect x="1029.4" y="165" width="0.1" height="15.0" fill="rgb(211,29,7)" rx="2" ry="2" />
<text  x="1032.43" y="175.5" ></text>
</g>
<g >
<title>update_wall_time (2,750,811 samples, 0.01%)</title><rect x="509.2" y="117" width="0.1" height="15.0" fill="rgb(207,11,2)" rx="2" ry="2" />
<text  x="512.16" y="127.5" ></text>
</g>
<g >
<title>__hrtimer_run_queues (8,252,100 samples, 0.03%)</title><rect x="509.0" y="181" width="0.4" height="15.0" fill="rgb(237,150,35)" rx="2" ry="2" />
<text  x="512.04" y="191.5" ></text>
</g>
<g >
<title>timekeeping_advance (2,750,811 samples, 0.01%)</title><rect x="509.2" y="101" width="0.1" height="15.0" fill="rgb(227,104,25)" rx="2" ry="2" />
<text  x="512.16" y="111.5" ></text>
</g>
<g >
<title>heap_getnextslot (121,017,470 samples, 0.44%)</title><rect x="1175.8" y="293" width="5.2" height="15.0" fill="rgb(213,40,9)" rx="2" ry="2" />
<text  x="1178.83" y="303.5" ></text>
</g>
<g >
<title>load_balance (2,750,131 samples, 0.01%)</title><rect x="509.5" y="149" width="0.1" height="15.0" fill="rgb(226,96,23)" rx="2" ry="2" />
<text  x="512.51" y="159.5" ></text>
</g>
<g >
<title>ServerLoop (27,482,876,444 samples, 99.99%)</title><rect x="10.1" y="437" width="1179.9" height="15.0" fill="rgb(238,155,37)" rx="2" ry="2" />
<text  x="13.12" y="447.5" >ServerLoop</text>
</g>
<g >
<title>sync_regs (2,750,845 samples, 0.01%)</title><rect x="10.0" y="437" width="0.1" height="15.0" fill="rgb(228,106,25)" rx="2" ry="2" />
<text  x="13.00" y="447.5" ></text>
</g>
<g >
<title>read_stream_next_buffer (888,572,698 samples, 3.23%)</title><rect x="1135.1" y="245" width="38.1" height="15.0" fill="rgb(216,50,12)" rx="2" ry="2" />
<text  x="1138.09" y="255.5" >rea..</text>
</g>
<g >
<title>slot_getsomeattrs_int (1,053,939,281 samples, 3.83%)</title><rect x="1032.9" y="277" width="45.2" height="15.0" fill="rgb(252,219,52)" rx="2" ry="2" />
<text  x="1035.85" y="287.5" >slot..</text>
</g>
<g >
<title>ExecStoreBufferHeapTuple (33,003,958 samples, 0.12%)</title><rect x="1089.3" y="277" width="1.4" height="15.0" fill="rgb(230,117,28)" rx="2" ry="2" />
<text  x="1092.32" y="287.5" ></text>
</g>
</g>
</svg>
