<?xml version="1.0" standalone="no"?>
<!DOCTYPE svg PUBLIC "-//W3C//DTD SVG 1.1//EN" "http://www.w3.org/Graphics/SVG/1.1/DTD/svg11.dtd">
<svg version="1.1" width="1200" height="566" onload="init(evt)" viewBox="0 0 1200 566" xmlns="http://www.w3.org/2000/svg" xmlns:xlink="http://www.w3.org/1999/xlink">
<!-- Flame graph stack visualization. See https://github.com/brendangregg/FlameGraph for latest version, and http://www.brendangregg.com/flamegraphs.html for examples. -->
<!-- NOTES:  -->
<defs>
	<linearGradient id="background" y1="0" y2="1" x1="0" x2="0" >
		<stop stop-color="#eeeeee" offset="5%" />
		<stop stop-color="#eeeeb0" offset="95%" />
	</linearGradient>
</defs>
<style type="text/css">
	text { font-family:Verdana; font-size:12px; fill:rgb(0,0,0); }
	#search, #ignorecase { opacity:0.1; cursor:pointer; }
	#search:hover, #search.show, #ignorecase:hover, #ignorecase.show { opacity:1; }
	#subtitle { text-anchor:middle; font-color:rgb(160,160,160); }
	#title { text-anchor:middle; font-size:17px}
	#unzoom { cursor:pointer; }
	#frames > *:hover { stroke:black; stroke-width:0.5; cursor:pointer; }
	.hide { display:none; }
	.parent { opacity:0.5; }
</style>
<script type="text/ecmascript">
<![CDATA[
	"use strict";
	var details, searchbtn, unzoombtn, matchedtxt, svg, searching, currentSearchTerm, ignorecase, ignorecaseBtn;
	function init(evt) {
		details = document.getElementById("details").firstChild;
		searchbtn = document.getElementById("search");
		ignorecaseBtn = document.getElementById("ignorecase");
		unzoombtn = document.getElementById("unzoom");
		matchedtxt = document.getElementById("matched");
		svg = document.getElementsByTagName("svg")[0];
		searching = 0;
		currentSearchTerm = null;

		// use GET parameters to restore a flamegraphs state.
		var params = get_params();
		if (params.x && params.y)
			zoom(find_group(document.querySelector('[x="' + params.x + '"][y="' + params.y + '"]')));
                if (params.s) search(params.s);
	}

	// event listeners
	window.addEventListener("click", function(e) {
		var target = find_group(e.target);
		if (target) {
			if (target.nodeName == "a") {
				if (e.ctrlKey === false) return;
				e.preventDefault();
			}
			if (target.classList.contains("parent")) unzoom(true);
			zoom(target);
			if (!document.querySelector('.parent')) {
				// we have basically done a clearzoom so clear the url
				var params = get_params();
				if (params.x) delete params.x;
				if (params.y) delete params.y;
				history.replaceState(null, null, parse_params(params));
				unzoombtn.classList.add("hide");
				return;
			}

			// set parameters for zoom state
			var el = target.querySelector("rect");
			if (el && el.attributes && el.attributes.y && el.attributes._orig_x) {
				var params = get_params()
				params.x = el.attributes._orig_x.value;
				params.y = el.attributes.y.value;
				history.replaceState(null, null, parse_params(params));
			}
		}
		else if (e.target.id == "unzoom") clearzoom();
		else if (e.target.id == "search") search_prompt();
		else if (e.target.id == "ignorecase") toggle_ignorecase();
	}, false)

	// mouse-over for info
	// show
	window.addEventListener("mouseover", function(e) {
		var target = find_group(e.target);
		if (target) details.nodeValue = "Function: " + g_to_text(target);
	}, false)

	// clear
	window.addEventListener("mouseout", function(e) {
		var target = find_group(e.target);
		if (target) details.nodeValue = ' ';
	}, false)

	// ctrl-F for search
	// ctrl-I to toggle case-sensitive search
	window.addEventListener("keydown",function (e) {
		if (e.keyCode === 114 || (e.ctrlKey && e.keyCode === 70)) {
			e.preventDefault();
			search_prompt();
		}
		else if (e.ctrlKey && e.keyCode === 73) {
			e.preventDefault();
			toggle_ignorecase();
		}
	}, false)

	// functions
	function get_params() {
		var params = {};
		var paramsarr = window.location.search.substr(1).split('&');
		for (var i = 0; i < paramsarr.length; ++i) {
			var tmp = paramsarr[i].split("=");
			if (!tmp[0] || !tmp[1]) continue;
			params[tmp[0]]  = decodeURIComponent(tmp[1]);
		}
		return params;
	}
	function parse_params(params) {
		var uri = "?";
		for (var key in params) {
			uri += key + '=' + encodeURIComponent(params[key]) + '&';
		}
		if (uri.slice(-1) == "&")
			uri = uri.substring(0, uri.length - 1);
		if (uri == '?')
			uri = window.location.href.split('?')[0];
		return uri;
	}
	function find_child(node, selector) {
		var children = node.querySelectorAll(selector);
		if (children.length) return children[0];
	}
	function find_group(node) {
		var parent = node.parentElement;
		if (!parent) return;
		if (parent.id == "frames") return node;
		return find_group(parent);
	}
	function orig_save(e, attr, val) {
		if (e.attributes["_orig_" + attr] != undefined) return;
		if (e.attributes[attr] == undefined) return;
		if (val == undefined) val = e.attributes[attr].value;
		e.setAttribute("_orig_" + attr, val);
	}
	function orig_load(e, attr) {
		if (e.attributes["_orig_"+attr] == undefined) return;
		e.attributes[attr].value = e.attributes["_orig_" + attr].value;
		e.removeAttribute("_orig_"+attr);
	}
	function g_to_text(e) {
		var text = find_child(e, "title").firstChild.nodeValue;
		return (text)
	}
	function g_to_func(e) {
		var func = g_to_text(e);
		// if there's any manipulation we want to do to the function
		// name before it's searched, do it here before returning.
		return (func);
	}
	function update_text(e) {
		var r = find_child(e, "rect");
		var t = find_child(e, "text");
		var w = parseFloat(r.attributes.width.value) -3;
		var txt = find_child(e, "title").textContent.replace(/\([^(]*\)$/,"");
		t.attributes.x.value = parseFloat(r.attributes.x.value) + 3;

		// Smaller than this size won't fit anything
		if (w < 2 * 12 * 0.59) {
			t.textContent = "";
			return;
		}

		t.textContent = txt;
		var sl = t.getSubStringLength(0, txt.length);
		// check if only whitespace or if we can fit the entire string into width w
		if (/^ *$/.test(txt) || sl < w)
			return;

		// this isn't perfect, but gives a good starting point
		// and avoids calling getSubStringLength too often
		var start = Math.floor((w/sl) * txt.length);
		for (var x = start; x > 0; x = x-2) {
			if (t.getSubStringLength(0, x + 2) <= w) {
				t.textContent = txt.substring(0, x) + "..";
				return;
			}
		}
		t.textContent = "";
	}

	// zoom
	function zoom_reset(e) {
		if (e.attributes != undefined) {
			orig_load(e, "x");
			orig_load(e, "width");
		}
		if (e.childNodes == undefined) return;
		for (var i = 0, c = e.childNodes; i < c.length; i++) {
			zoom_reset(c[i]);
		}
	}
	function zoom_child(e, x, ratio) {
		if (e.attributes != undefined) {
			if (e.attributes.x != undefined) {
				orig_save(e, "x");
				e.attributes.x.value = (parseFloat(e.attributes.x.value) - x - 10) * ratio + 10;
				if (e.tagName == "text")
					e.attributes.x.value = find_child(e.parentNode, "rect[x]").attributes.x.value + 3;
			}
			if (e.attributes.width != undefined) {
				orig_save(e, "width");
				e.attributes.width.value = parseFloat(e.attributes.width.value) * ratio;
			}
		}

		if (e.childNodes == undefined) return;
		for (var i = 0, c = e.childNodes; i < c.length; i++) {
			zoom_child(c[i], x - 10, ratio);
		}
	}
	function zoom_parent(e) {
		if (e.attributes) {
			if (e.attributes.x != undefined) {
				orig_save(e, "x");
				e.attributes.x.value = 10;
			}
			if (e.attributes.width != undefined) {
				orig_save(e, "width");
				e.attributes.width.value = parseInt(svg.width.baseVal.value) - (10 * 2);
			}
		}
		if (e.childNodes == undefined) return;
		for (var i = 0, c = e.childNodes; i < c.length; i++) {
			zoom_parent(c[i]);
		}
	}
	function zoom(node) {
		var attr = find_child(node, "rect").attributes;
		var width = parseFloat(attr.width.value);
		var xmin = parseFloat(attr.x.value);
		var xmax = parseFloat(xmin + width);
		var ymin = parseFloat(attr.y.value);
		var ratio = (svg.width.baseVal.value - 2 * 10) / width;

		// XXX: Workaround for JavaScript float issues (fix me)
		var fudge = 0.0001;

		unzoombtn.classList.remove("hide");

		var el = document.getElementById("frames").children;
		for (var i = 0; i < el.length; i++) {
			var e = el[i];
			var a = find_child(e, "rect").attributes;
			var ex = parseFloat(a.x.value);
			var ew = parseFloat(a.width.value);
			var upstack;
			// Is it an ancestor
			if (0 == 0) {
				upstack = parseFloat(a.y.value) > ymin;
			} else {
				upstack = parseFloat(a.y.value) < ymin;
			}
			if (upstack) {
				// Direct ancestor
				if (ex <= xmin && (ex+ew+fudge) >= xmax) {
					e.classList.add("parent");
					zoom_parent(e);
					update_text(e);
				}
				// not in current path
				else
					e.classList.add("hide");
			}
			// Children maybe
			else {
				// no common path
				if (ex < xmin || ex + fudge >= xmax) {
					e.classList.add("hide");
				}
				else {
					zoom_child(e, xmin, ratio);
					update_text(e);
				}
			}
		}
		search();
	}
	function unzoom(dont_update_text) {
		unzoombtn.classList.add("hide");
		var el = document.getElementById("frames").children;
		for(var i = 0; i < el.length; i++) {
			el[i].classList.remove("parent");
			el[i].classList.remove("hide");
			zoom_reset(el[i]);
			if(!dont_update_text) update_text(el[i]);
		}
		search();
	}
	function clearzoom() {
		unzoom();

		// remove zoom state
		var params = get_params();
		if (params.x) delete params.x;
		if (params.y) delete params.y;
		history.replaceState(null, null, parse_params(params));
	}

	// search
	function toggle_ignorecase() {
		ignorecase = !ignorecase;
		if (ignorecase) {
			ignorecaseBtn.classList.add("show");
		} else {
			ignorecaseBtn.classList.remove("show");
		}
		reset_search();
		search();
	}
	function reset_search() {
		var el = document.querySelectorAll("#frames rect");
		for (var i = 0; i < el.length; i++) {
			orig_load(el[i], "fill")
		}
		var params = get_params();
		delete params.s;
		history.replaceState(null, null, parse_params(params));
	}
	function search_prompt() {
		if (!searching) {
			var term = prompt("Enter a search term (regexp " +
			    "allowed, eg: ^ext4_)"
			    + (ignorecase ? ", ignoring case" : "")
			    + "\nPress Ctrl-i to toggle case sensitivity", "");
			if (term != null) search(term);
		} else {
			reset_search();
			searching = 0;
			currentSearchTerm = null;
			searchbtn.classList.remove("show");
			searchbtn.firstChild.nodeValue = "Search"
			matchedtxt.classList.add("hide");
			matchedtxt.firstChild.nodeValue = ""
		}
	}
	function search(term) {
		if (term) currentSearchTerm = term;

		var re = new RegExp(currentSearchTerm, ignorecase ? 'i' : '');
		var el = document.getElementById("frames").children;
		var matches = new Object();
		var maxwidth = 0;
		for (var i = 0; i < el.length; i++) {
			var e = el[i];
			var func = g_to_func(e);
			var rect = find_child(e, "rect");
			if (func == null || rect == null)
				continue;

			// Save max width. Only works as we have a root frame
			var w = parseFloat(rect.attributes.width.value);
			if (w > maxwidth)
				maxwidth = w;

			if (func.match(re)) {
				// highlight
				var x = parseFloat(rect.attributes.x.value);
				orig_save(rect, "fill");
				rect.attributes.fill.value = "rgb(230,0,230)";

				// remember matches
				if (matches[x] == undefined) {
					matches[x] = w;
				} else {
					if (w > matches[x]) {
						// overwrite with parent
						matches[x] = w;
					}
				}
				searching = 1;
			}
		}
		if (!searching)
			return;
		var params = get_params();
		params.s = currentSearchTerm;
		history.replaceState(null, null, parse_params(params));

		searchbtn.classList.add("show");
		searchbtn.firstChild.nodeValue = "Reset Search";

		// calculate percent matched, excluding vertical overlap
		var count = 0;
		var lastx = -1;
		var lastw = 0;
		var keys = Array();
		for (k in matches) {
			if (matches.hasOwnProperty(k))
				keys.push(k);
		}
		// sort the matched frames by their x location
		// ascending, then width descending
		keys.sort(function(a, b){
			return a - b;
		});
		// Step through frames saving only the biggest bottom-up frames
		// thanks to the sort order. This relies on the tree property
		// where children are always smaller than their parents.
		var fudge = 0.0001;	// JavaScript floating point
		for (var k in keys) {
			var x = parseFloat(keys[k]);
			var w = matches[keys[k]];
			if (x >= lastx + lastw - fudge) {
				count += w;
				lastx = x;
				lastw = w;
			}
		}
		// display matched percent
		matchedtxt.classList.remove("hide");
		var pct = 100 * count / maxwidth;
		if (pct != 100) pct = pct.toFixed(1)
		matchedtxt.firstChild.nodeValue = "Matched: " + pct + "%";
	}
]]>
</script>
<rect x="0.0" y="0" width="1200.0" height="566.0" fill="url(#background)"  />
<text id="title" x="600.00" y="24" >Flame Graph</text>
<text id="details" x="10.00" y="549" > </text>
<text id="unzoom" x="10.00" y="24" class="hide">Reset Zoom</text>
<text id="search" x="1090.00" y="24" >Search</text>
<text id="ignorecase" x="1174.00" y="24" >ic</text>
<text id="matched" x="1090.00" y="549" > </text>
<g id="frames">
<g >
<title>update_load_avg (2,750,630 samples, 0.01%)</title><rect x="1058.8" y="101" width="0.1" height="15.0" fill="rgb(240,165,39)" rx="2" ry="2" />
<text  x="1061.78" y="111.5" ></text>
</g>
<g >
<title>__hrtimer_run_queues (2,750,630 samples, 0.01%)</title><rect x="1058.8" y="197" width="0.1" height="15.0" fill="rgb(237,150,35)" rx="2" ry="2" />
<text  x="1061.78" y="207.5" ></text>
</g>
<g >
<title>all (27,485,980,374 samples, 100%)</title><rect x="10.0" y="517" width="1180.0" height="15.0" fill="rgb(213,39,9)" rx="2" ry="2" />
<text  x="13.00" y="527.5" ></text>
</g>
<g >
<title>tick_sched_handle (2,750,630 samples, 0.01%)</title><rect x="1058.8" y="165" width="0.1" height="15.0" fill="rgb(219,68,16)" rx="2" ry="2" />
<text  x="1061.78" y="175.5" ></text>
</g>
<g >
<title>sysvec_apic_timer_interrupt (5,501,550 samples, 0.02%)</title><rect x="1140.9" y="213" width="0.2" height="15.0" fill="rgb(220,69,16)" rx="2" ry="2" />
<text  x="1143.88" y="223.5" ></text>
</g>
<g >
<title>hash_bytes (16,502,898 samples, 0.06%)</title><rect x="1173.1" y="229" width="0.7" height="15.0" fill="rgb(227,102,24)" rx="2" ry="2" />
<text  x="1176.11" y="239.5" ></text>
</g>
<g >
<title>GetPrivateRefCountEntry (5,501,513 samples, 0.02%)</title><rect x="1080.0" y="229" width="0.2" height="15.0" fill="rgb(250,209,50)" rx="2" ry="2" />
<text  x="1082.97" y="239.5" ></text>
</g>
<g >
<title>heap_prepare_pagescan (845,730,466 samples, 3.08%)</title><rect x="1107.5" y="245" width="36.3" height="15.0" fill="rgb(222,82,19)" rx="2" ry="2" />
<text  x="1110.52" y="255.5" >hea..</text>
</g>
<g >
<title>timekeeping_advance (2,750,579 samples, 0.01%)</title><rect x="1065.9" y="133" width="0.1" height="15.0" fill="rgb(227,104,25)" rx="2" ry="2" />
<text  x="1068.91" y="143.5" ></text>
</g>
<g >
<title>LockBuffer (2,750,603 samples, 0.01%)</title><rect x="1104.6" y="245" width="0.1" height="15.0" fill="rgb(235,142,34)" rx="2" ry="2" />
<text  x="1107.55" y="255.5" ></text>
</g>
<g >
<title>LWLockRelease (16,501,648 samples, 0.06%)</title><rect x="1103.8" y="245" width="0.8" height="15.0" fill="rgb(217,58,13)" rx="2" ry="2" />
<text  x="1106.84" y="255.5" ></text>
</g>
<g >
<title>sysvec_apic_timer_interrupt (2,749,768 samples, 0.01%)</title><rect x="1163.3" y="165" width="0.1" height="15.0" fill="rgb(220,69,16)" rx="2" ry="2" />
<text  x="1166.31" y="175.5" ></text>
</g>
<g >
<title>bpcharlen (21,057,735,849 samples, 76.61%)</title><rect x="84.5" y="277" width="904.1" height="15.0" fill="rgb(221,77,18)" rx="2" ry="2" />
<text  x="87.53" y="287.5" >bpcharlen</text>
</g>
<g >
<title>LWLockAttemptLock (41,247,506 samples, 0.15%)</title><rect x="1164.0" y="213" width="1.8" height="15.0" fill="rgb(235,138,33)" rx="2" ry="2" />
<text  x="1167.02" y="223.5" ></text>
</g>
<g >
<title>ReleaseBuffer (16,502,377 samples, 0.06%)</title><rect x="1104.7" y="245" width="0.7" height="15.0" fill="rgb(220,71,17)" rx="2" ry="2" />
<text  x="1107.67" y="255.5" ></text>
</g>
<g >
<title>tick_sched_timer (8,251,634 samples, 0.03%)</title><rect x="423.6" y="165" width="0.3" height="15.0" fill="rgb(254,227,54)" rx="2" ry="2" />
<text  x="426.57" y="175.5" ></text>
</g>
<g >
<title>tick_sched_do_timer (2,750,579 samples, 0.01%)</title><rect x="1065.9" y="181" width="0.1" height="15.0" fill="rgb(227,104,25)" rx="2" ry="2" />
<text  x="1068.91" y="191.5" ></text>
</g>
<g >
<title>tick_sched_do_timer (2,750,564 samples, 0.01%)</title><rect x="988.1" y="149" width="0.1" height="15.0" fill="rgb(227,104,25)" rx="2" ry="2" />
<text  x="991.09" y="159.5" ></text>
</g>
<g >
<title>__sysvec_apic_timer_interrupt (2,749,768 samples, 0.01%)</title><rect x="1163.3" y="149" width="0.1" height="15.0" fill="rgb(242,173,41)" rx="2" ry="2" />
<text  x="1166.31" y="159.5" ></text>
</g>
<g >
<title>scheduler_tick (5,501,006 samples, 0.02%)</title><rect x="423.7" y="117" width="0.2" height="15.0" fill="rgb(246,190,45)" rx="2" ry="2" />
<text  x="426.69" y="127.5" ></text>
</g>
<g >
<title>irq_exit_rcu (2,750,798 samples, 0.01%)</title><rect x="988.3" y="213" width="0.1" height="15.0" fill="rgb(254,227,54)" rx="2" ry="2" />
<text  x="991.32" y="223.5" ></text>
</g>
<g >
<title>tick_sched_do_timer (2,750,628 samples, 0.01%)</title><rect x="423.6" y="149" width="0.1" height="15.0" fill="rgb(227,104,25)" rx="2" ry="2" />
<text  x="426.57" y="159.5" ></text>
</g>
<g >
<title>ResourceOwnerEnlarge (2,750,100 samples, 0.01%)</title><rect x="1082.0" y="245" width="0.1" height="15.0" fill="rgb(223,86,20)" rx="2" ry="2" />
<text  x="1085.00" y="255.5" ></text>
</g>
<g >
<title>ReleaseBuffer (8,250,199 samples, 0.03%)</title><rect x="1084.0" y="261" width="0.4" height="15.0" fill="rgb(220,71,17)" rx="2" ry="2" />
<text  x="1087.01" y="271.5" ></text>
</g>
<g >
<title>sysvec_apic_timer_interrupt (2,752,906 samples, 0.01%)</title><rect x="1065.9" y="261" width="0.1" height="15.0" fill="rgb(220,69,16)" rx="2" ry="2" />
<text  x="1068.91" y="271.5" ></text>
</g>
<g >
<title>LWLockAcquire (2,750,183 samples, 0.01%)</title><rect x="1103.7" y="245" width="0.1" height="15.0" fill="rgb(209,20,4)" rx="2" ry="2" />
<text  x="1106.73" y="255.5" ></text>
</g>
<g >
<title>ReleaseBuffer (22,644,573 samples, 0.08%)</title><rect x="1081.0" y="245" width="1.0" height="15.0" fill="rgb(220,71,17)" rx="2" ry="2" />
<text  x="1084.03" y="255.5" ></text>
</g>
<g >
<title>asm_sysvec_apic_timer_interrupt (11,002,820 samples, 0.04%)</title><rect x="988.0" y="245" width="0.4" height="15.0" fill="rgb(232,127,30)" rx="2" ry="2" />
<text  x="990.97" y="255.5" ></text>
</g>
<g >
<title>update_wall_time (2,750,564 samples, 0.01%)</title><rect x="988.1" y="117" width="0.1" height="15.0" fill="rgb(207,11,2)" rx="2" ry="2" />
<text  x="991.09" y="127.5" ></text>
</g>
<g >
<title>UnpinBufferNoOwner (13,752,606 samples, 0.05%)</title><rect x="1105.5" y="245" width="0.6" height="15.0" fill="rgb(253,221,53)" rx="2" ry="2" />
<text  x="1108.50" y="255.5" ></text>
</g>
<g >
<title>asm_sysvec_apic_timer_interrupt (2,750,630 samples, 0.01%)</title><rect x="1058.8" y="261" width="0.1" height="15.0" fill="rgb(232,127,30)" rx="2" ry="2" />
<text  x="1061.78" y="271.5" ></text>
</g>
<g >
<title>timekeeping_update (2,750,564 samples, 0.01%)</title><rect x="988.1" y="85" width="0.1" height="15.0" fill="rgb(238,152,36)" rx="2" ry="2" />
<text  x="991.09" y="95.5" ></text>
</g>
<g >
<title>BufTableHashCode (5,500,988 samples, 0.02%)</title><rect x="1145.4" y="229" width="0.2" height="15.0" fill="rgb(215,47,11)" rx="2" ry="2" />
<text  x="1148.37" y="239.5" ></text>
</g>
<g >
<title>hrtimer_active (2,750,633 samples, 0.01%)</title><rect x="423.7" y="85" width="0.1" height="15.0" fill="rgb(212,34,8)" rx="2" ry="2" />
<text  x="426.69" y="95.5" ></text>
</g>
<g >
<title>pg_database_encoding_max_length (52,260,419 samples, 0.19%)</title><rect x="988.6" y="277" width="2.2" height="15.0" fill="rgb(243,176,42)" rx="2" ry="2" />
<text  x="991.56" y="287.5" ></text>
</g>
<g >
<title>LWLockRelease (2,750,365 samples, 0.01%)</title><rect x="1145.6" y="229" width="0.1" height="15.0" fill="rgb(217,58,13)" rx="2" ry="2" />
<text  x="1148.60" y="239.5" ></text>
</g>
<g >
<title>update_process_times (2,750,773 samples, 0.01%)</title><rect x="988.2" y="133" width="0.1" height="15.0" fill="rgb(250,209,50)" rx="2" ry="2" />
<text  x="991.21" y="143.5" ></text>
</g>
<g >
<title>asm_sysvec_apic_timer_interrupt (5,501,550 samples, 0.02%)</title><rect x="1140.9" y="229" width="0.2" height="15.0" fill="rgb(232,127,30)" rx="2" ry="2" />
<text  x="1143.88" y="239.5" ></text>
</g>
<g >
<title>StartReadBuffer (2,750,026 samples, 0.01%)</title><rect x="1105.4" y="245" width="0.1" height="15.0" fill="rgb(222,78,18)" rx="2" ry="2" />
<text  x="1108.38" y="255.5" ></text>
</g>
<g >
<title>scheduler_tick (2,750,630 samples, 0.01%)</title><rect x="1058.8" y="133" width="0.1" height="15.0" fill="rgb(246,190,45)" rx="2" ry="2" />
<text  x="1061.78" y="143.5" ></text>
</g>
<g >
<title>hash_search_with_hash_value (305,281,663 samples, 1.11%)</title><rect x="1150.3" y="197" width="13.1" height="15.0" fill="rgb(249,205,49)" rx="2" ry="2" />
<text  x="1153.32" y="207.5" ></text>
</g>
<g >
<title>heap_getnextslot (2,538,195,456 samples, 9.23%)</title><rect x="1066.0" y="277" width="109.0" height="15.0" fill="rgb(213,40,9)" rx="2" ry="2" />
<text  x="1069.03" y="287.5" >heap_getnexts..</text>
</g>
<g >
<title>native_write_msr (2,750,773 samples, 0.01%)</title><rect x="988.2" y="37" width="0.1" height="15.0" fill="rgb(237,151,36)" rx="2" ry="2" />
<text  x="991.21" y="47.5" ></text>
</g>
<g >
<title>get_hash_value (2,749,917 samples, 0.01%)</title><rect x="1173.0" y="229" width="0.1" height="15.0" fill="rgb(211,27,6)" rx="2" ry="2" />
<text  x="1175.99" y="239.5" ></text>
</g>
<g >
<title>exec_simple_query (27,485,980,374 samples, 100.00%)</title><rect x="10.0" y="373" width="1180.0" height="15.0" fill="rgb(211,29,6)" rx="2" ry="2" />
<text  x="13.00" y="383.5" >exec_simple_query</text>
</g>
<g >
<title>CheckForSerializableConflictOutNeeded (2,750,497 samples, 0.01%)</title><rect x="1103.6" y="245" width="0.1" height="15.0" fill="rgb(213,38,9)" rx="2" ry="2" />
<text  x="1106.61" y="255.5" ></text>
</g>
<g >
<title>__sysvec_apic_timer_interrupt (5,501,550 samples, 0.02%)</title><rect x="1140.9" y="197" width="0.2" height="15.0" fill="rgb(242,173,41)" rx="2" ry="2" />
<text  x="1143.88" y="207.5" ></text>
</g>
<g >
<title>tick_do_update_jiffies64 (2,750,628 samples, 0.01%)</title><rect x="423.6" y="133" width="0.1" height="15.0" fill="rgb(208,14,3)" rx="2" ry="2" />
<text  x="426.57" y="143.5" ></text>
</g>
<g >
<title>tick_sched_timer (2,750,748 samples, 0.01%)</title><rect x="1140.9" y="149" width="0.1" height="15.0" fill="rgb(254,227,54)" rx="2" ry="2" />
<text  x="1143.88" y="159.5" ></text>
</g>
<g >
<title>asm_sysvec_apic_timer_interrupt (2,749,768 samples, 0.01%)</title><rect x="1163.3" y="181" width="0.1" height="15.0" fill="rgb(232,127,30)" rx="2" ry="2" />
<text  x="1166.31" y="191.5" ></text>
</g>
<g >
<title>ExecSeqScanWithQual (27,395,218,970 samples, 99.67%)</title><rect x="11.7" y="309" width="1176.1" height="15.0" fill="rgb(254,227,54)" rx="2" ry="2" />
<text  x="14.65" y="319.5" >ExecSeqScanWithQual</text>
</g>
<g >
<title>asm_sysvec_apic_timer_interrupt (2,752,906 samples, 0.01%)</title><rect x="1065.9" y="277" width="0.1" height="15.0" fill="rgb(232,127,30)" rx="2" ry="2" />
<text  x="1068.91" y="287.5" ></text>
</g>
<g >
<title>read_stream_next_buffer (723,291,596 samples, 2.63%)</title><rect x="1143.8" y="245" width="31.1" height="15.0" fill="rgb(216,50,12)" rx="2" ry="2" />
<text  x="1146.83" y="255.5" >re..</text>
</g>
<g >
<title>pgstat_count_io_op (22,003,746 samples, 0.08%)</title><rect x="1173.9" y="229" width="1.0" height="15.0" fill="rgb(207,10,2)" rx="2" ry="2" />
<text  x="1176.94" y="239.5" ></text>
</g>
<g >
<title>GetPrivateRefCountEntry (11,001,804 samples, 0.04%)</title><rect x="1105.6" y="229" width="0.5" height="15.0" fill="rgb(250,209,50)" rx="2" ry="2" />
<text  x="1108.62" y="239.5" ></text>
</g>
<g >
<title>x86_pmu_disable (2,750,773 samples, 0.01%)</title><rect x="988.2" y="69" width="0.1" height="15.0" fill="rgb(239,160,38)" rx="2" ry="2" />
<text  x="991.21" y="79.5" ></text>
</g>
<g >
<title>ResourceOwnerForget (11,642,546 samples, 0.04%)</title><rect x="1081.5" y="229" width="0.5" height="15.0" fill="rgb(235,142,33)" rx="2" ry="2" />
<text  x="1084.50" y="239.5" ></text>
</g>
<g >
<title>tick_sched_handle (2,750,773 samples, 0.01%)</title><rect x="988.2" y="149" width="0.1" height="15.0" fill="rgb(219,68,16)" rx="2" ry="2" />
<text  x="991.21" y="159.5" ></text>
</g>
<g >
<title>task_tick_fair (2,750,630 samples, 0.01%)</title><rect x="1058.8" y="117" width="0.1" height="15.0" fill="rgb(217,57,13)" rx="2" ry="2" />
<text  x="1061.78" y="127.5" ></text>
</g>
<g >
<title>update_process_times (5,501,006 samples, 0.02%)</title><rect x="423.7" y="133" width="0.2" height="15.0" fill="rgb(250,209,50)" rx="2" ry="2" />
<text  x="426.69" y="143.5" ></text>
</g>
<g >
<title>postmaster_child_launch (27,485,980,374 samples, 100.00%)</title><rect x="10.0" y="421" width="1180.0" height="15.0" fill="rgb(206,5,1)" rx="2" ry="2" />
<text  x="13.00" y="431.5" >postmaster_child_launch</text>
</g>
<g >
<title>PortalRun (27,485,980,374 samples, 100.00%)</title><rect x="10.0" y="357" width="1180.0" height="15.0" fill="rgb(223,85,20)" rx="2" ry="2" />
<text  x="13.00" y="367.5" >PortalRun</text>
</g>
<g >
<title>read_stream_next_buffer (2,750,964 samples, 0.01%)</title><rect x="1174.9" y="261" width="0.1" height="15.0" fill="rgb(216,50,12)" rx="2" ry="2" />
<text  x="1177.88" y="271.5" ></text>
</g>
<g >
<title>LockBuffer (2,750,093 samples, 0.01%)</title><rect x="1083.9" y="261" width="0.1" height="15.0" fill="rgb(235,142,34)" rx="2" ry="2" />
<text  x="1086.89" y="271.5" ></text>
</g>
<g >
<title>__sysvec_apic_timer_interrupt (11,002,652 samples, 0.04%)</title><rect x="423.4" y="213" width="0.5" height="15.0" fill="rgb(242,173,41)" rx="2" ry="2" />
<text  x="426.45" y="223.5" ></text>
</g>
<g >
<title>heap_page_prune_opt (63,257,167 samples, 0.23%)</title><rect x="1141.1" y="229" width="2.7" height="15.0" fill="rgb(211,29,7)" rx="2" ry="2" />
<text  x="1144.11" y="239.5" ></text>
</g>
<g >
<title>__hrtimer_run_queues (8,252,022 samples, 0.03%)</title><rect x="988.0" y="181" width="0.3" height="15.0" fill="rgb(237,150,35)" rx="2" ry="2" />
<text  x="990.97" y="191.5" ></text>
</g>
<g >
<title>sched_clock_cpu (2,750,373 samples, 0.01%)</title><rect x="423.8" y="85" width="0.1" height="15.0" fill="rgb(229,113,27)" rx="2" ry="2" />
<text  x="426.80" y="95.5" ></text>
</g>
<g >
<title>heapgettup_pagemode (2,086,496,404 samples, 7.59%)</title><rect x="1085.3" y="261" width="89.6" height="15.0" fill="rgb(242,170,40)" rx="2" ry="2" />
<text  x="1088.31" y="271.5" >heapgettup..</text>
</g>
<g >
<title>hrtimer_interrupt (8,251,634 samples, 0.03%)</title><rect x="423.6" y="197" width="0.3" height="15.0" fill="rgb(228,109,26)" rx="2" ry="2" />
<text  x="426.57" y="207.5" ></text>
</g>
<g >
<title>pg_mbstrlen_with_len (2,750,012 samples, 0.01%)</title><rect x="992.6" y="277" width="0.1" height="15.0" fill="rgb(228,106,25)" rx="2" ry="2" />
<text  x="995.58" y="287.5" ></text>
</g>
<g >
<title>tick_do_update_jiffies64 (2,750,564 samples, 0.01%)</title><rect x="988.1" y="133" width="0.1" height="15.0" fill="rgb(208,14,3)" rx="2" ry="2" />
<text  x="991.09" y="143.5" ></text>
</g>
<g >
<title>pgstat_count_backend_io_op (19,252,661 samples, 0.07%)</title><rect x="1171.9" y="213" width="0.9" height="15.0" fill="rgb(244,179,42)" rx="2" ry="2" />
<text  x="1174.93" y="223.5" ></text>
</g>
<g >
<title>scheduler_tick (2,750,748 samples, 0.01%)</title><rect x="1140.9" y="101" width="0.1" height="15.0" fill="rgb(246,190,45)" rx="2" ry="2" />
<text  x="1143.88" y="111.5" ></text>
</g>
<g >
<title>LWLockAttemptLock (5,501,175 samples, 0.02%)</title><rect x="1140.6" y="229" width="0.3" height="15.0" fill="rgb(235,138,33)" rx="2" ry="2" />
<text  x="1143.64" y="239.5" ></text>
</g>
<g >
<title>ResourceOwnerForget (13,751,821 samples, 0.05%)</title><rect x="1104.8" y="229" width="0.6" height="15.0" fill="rgb(235,142,33)" rx="2" ry="2" />
<text  x="1107.79" y="239.5" ></text>
</g>
<g >
<title>LWLockAcquire (2,750,528 samples, 0.01%)</title><rect x="1140.5" y="229" width="0.1" height="15.0" fill="rgb(209,20,4)" rx="2" ry="2" />
<text  x="1143.52" y="239.5" ></text>
</g>
<g >
<title>__hrtimer_run_queues (2,749,768 samples, 0.01%)</title><rect x="1163.3" y="117" width="0.1" height="15.0" fill="rgb(237,150,35)" rx="2" ry="2" />
<text  x="1166.31" y="127.5" ></text>
</g>
<g >
<title>task_tick_fair (2,750,633 samples, 0.01%)</title><rect x="423.7" y="101" width="0.1" height="15.0" fill="rgb(217,57,13)" rx="2" ry="2" />
<text  x="426.69" y="111.5" ></text>
</g>
<g >
<title>update_process_times (2,750,748 samples, 0.01%)</title><rect x="1140.9" y="117" width="0.1" height="15.0" fill="rgb(250,209,50)" rx="2" ry="2" />
<text  x="1143.88" y="127.5" ></text>
</g>
<g >
<title>hrtimer_interrupt (5,501,550 samples, 0.02%)</title><rect x="1140.9" y="181" width="0.2" height="15.0" fill="rgb(228,109,26)" rx="2" ry="2" />
<text  x="1143.88" y="191.5" ></text>
</g>
<g >
<title>slot_getsomeattrs_int (1,396,330,551 samples, 5.08%)</title><rect x="992.7" y="277" width="59.9" height="15.0" fill="rgb(252,219,52)" rx="2" ry="2" />
<text  x="995.69" y="287.5" >slot_g..</text>
</g>
<g >
<title>sync_regs (2,750,753 samples, 0.01%)</title><rect x="988.4" y="245" width="0.2" height="15.0" fill="rgb(228,106,25)" rx="2" ry="2" />
<text  x="991.44" y="255.5" ></text>
</g>
<g >
<title>ExecStoreBufferHeapTuple (11,001,106 samples, 0.04%)</title><rect x="1065.4" y="277" width="0.5" height="15.0" fill="rgb(230,117,28)" rx="2" ry="2" />
<text  x="1068.44" y="287.5" ></text>
</g>
<g >
<title>hrtimer_interrupt (8,252,022 samples, 0.03%)</title><rect x="988.0" y="197" width="0.3" height="15.0" fill="rgb(228,109,26)" rx="2" ry="2" />
<text  x="990.97" y="207.5" ></text>
</g>
<g >
<title>int4lt (90,864,853 samples, 0.33%)</title><rect x="1183.1" y="293" width="3.9" height="15.0" fill="rgb(242,172,41)" rx="2" ry="2" />
<text  x="1186.15" y="303.5" ></text>
</g>
<g >
<title>hrtimer_interrupt (2,749,768 samples, 0.01%)</title><rect x="1163.3" y="133" width="0.1" height="15.0" fill="rgb(228,109,26)" rx="2" ry="2" />
<text  x="1166.31" y="143.5" ></text>
</g>
<g >
<title>heap_prepare_pagescan (22,002,563 samples, 0.08%)</title><rect x="1084.4" y="261" width="0.9" height="15.0" fill="rgb(222,82,19)" rx="2" ry="2" />
<text  x="1087.36" y="271.5" ></text>
</g>
<g >
<title>MemoryContextReset (35,754,934 samples, 0.13%)</title><rect x="1187.8" y="309" width="1.5" height="15.0" fill="rgb(210,26,6)" rx="2" ry="2" />
<text  x="1190.76" y="319.5" ></text>
</g>
<g >
<title>ServerLoop (27,485,980,374 samples, 100.00%)</title><rect x="10.0" y="437" width="1180.0" height="15.0" fill="rgb(238,155,37)" rx="2" ry="2" />
<text  x="13.00" y="447.5" >ServerLoop</text>
</g>
<g >
<title>PortalRunSelect (27,485,980,374 samples, 100.00%)</title><rect x="10.0" y="341" width="1180.0" height="15.0" fill="rgb(245,188,45)" rx="2" ry="2" />
<text  x="13.00" y="351.5" >PortalRunSelect</text>
</g>
<g >
<title>tick_sched_timer (2,750,579 samples, 0.01%)</title><rect x="1065.9" y="197" width="0.1" height="15.0" fill="rgb(254,227,54)" rx="2" ry="2" />
<text  x="1068.91" y="207.5" ></text>
</g>
<g >
<title>pg_detoast_datum_packed (41,255,863 samples, 0.15%)</title><rect x="990.8" y="277" width="1.8" height="15.0" fill="rgb(238,155,37)" rx="2" ry="2" />
<text  x="993.80" y="287.5" ></text>
</g>
<g >
<title>heap_scan_stream_read_next_serial (2,750,332 samples, 0.01%)</title><rect x="1173.8" y="229" width="0.1" height="15.0" fill="rgb(205,4,0)" rx="2" ry="2" />
<text  x="1176.82" y="239.5" ></text>
</g>
<g >
<title>tts_buffer_heap_getsomeattrs (1,118,328,036 samples, 4.07%)</title><rect x="1004.6" y="261" width="48.0" height="15.0" fill="rgb(222,81,19)" rx="2" ry="2" />
<text  x="1007.63" y="271.5" >tts_..</text>
</g>
<g >
<title>MemoryContextReset (44,009,346 samples, 0.16%)</title><rect x="1058.9" y="293" width="1.9" height="15.0" fill="rgb(210,26,6)" rx="2" ry="2" />
<text  x="1061.90" y="303.5" ></text>
</g>
<g >
<title>sysvec_apic_timer_interrupt (2,750,630 samples, 0.01%)</title><rect x="1058.8" y="245" width="0.1" height="15.0" fill="rgb(220,69,16)" rx="2" ry="2" />
<text  x="1061.78" y="255.5" ></text>
</g>
<g >
<title>pg_utf_mblen_private (13,152,257,210 samples, 47.85%)</title><rect x="423.9" y="261" width="564.7" height="15.0" fill="rgb(242,173,41)" rx="2" ry="2" />
<text  x="426.92" y="271.5" >pg_utf_mblen_private</text>
</g>
<g >
<title>pgstat_count_io_op (5,501,005 samples, 0.02%)</title><rect x="1172.8" y="213" width="0.2" height="15.0" fill="rgb(207,10,2)" rx="2" ry="2" />
<text  x="1175.76" y="223.5" ></text>
</g>
<g >
<title>LWLockRelease (19,253,501 samples, 0.07%)</title><rect x="1165.8" y="213" width="0.8" height="15.0" fill="rgb(217,58,13)" rx="2" ry="2" />
<text  x="1168.79" y="223.5" ></text>
</g>
<g >
<title>tick_sched_handle (2,750,748 samples, 0.01%)</title><rect x="1140.9" y="133" width="0.1" height="15.0" fill="rgb(219,68,16)" rx="2" ry="2" />
<text  x="1143.88" y="143.5" ></text>
</g>
<g >
<title>timekeeping_advance (2,750,564 samples, 0.01%)</title><rect x="988.1" y="101" width="0.1" height="15.0" fill="rgb(227,104,25)" rx="2" ry="2" />
<text  x="991.09" y="111.5" ></text>
</g>
<g >
<title>bpcharlen (60,507,062 samples, 0.22%)</title><rect x="1175.0" y="293" width="2.6" height="15.0" fill="rgb(221,77,18)" rx="2" ry="2" />
<text  x="1178.00" y="303.5" ></text>
</g>
<g >
<title>BufferGetBlockNumber (46,755,709 samples, 0.17%)</title><rect x="1073.0" y="261" width="2.0" height="15.0" fill="rgb(206,7,1)" rx="2" ry="2" />
<text  x="1076.00" y="271.5" ></text>
</g>
<g >
<title>heap_page_prune_opt (33,417,615 samples, 0.12%)</title><rect x="1106.1" y="245" width="1.4" height="15.0" fill="rgb(211,29,7)" rx="2" ry="2" />
<text  x="1109.09" y="255.5" ></text>
</g>
<g >
<title>tick_do_update_jiffies64 (2,750,579 samples, 0.01%)</title><rect x="1065.9" y="165" width="0.1" height="15.0" fill="rgb(208,14,3)" rx="2" ry="2" />
<text  x="1068.91" y="175.5" ></text>
</g>
<g >
<title>heap_getnextslot (129,268,111 samples, 0.47%)</title><rect x="1177.6" y="293" width="5.5" height="15.0" fill="rgb(213,40,9)" rx="2" ry="2" />
<text  x="1180.60" y="303.5" ></text>
</g>
<g >
<title>tick_sched_handle (5,501,006 samples, 0.02%)</title><rect x="423.7" y="149" width="0.2" height="15.0" fill="rgb(219,68,16)" rx="2" ry="2" />
<text  x="426.69" y="159.5" ></text>
</g>
<g >
<title>slot_getsomeattrs_int (16,502,020 samples, 0.06%)</title><rect x="1187.0" y="293" width="0.8" height="15.0" fill="rgb(252,219,52)" rx="2" ry="2" />
<text  x="1190.05" y="303.5" ></text>
</g>
<g >
<title>arch_scale_freq_tick (2,750,748 samples, 0.01%)</title><rect x="1140.9" y="85" width="0.1" height="15.0" fill="rgb(252,219,52)" rx="2" ry="2" />
<text  x="1143.88" y="95.5" ></text>
</g>
<g >
<title>__sysvec_apic_timer_interrupt (8,252,022 samples, 0.03%)</title><rect x="988.0" y="213" width="0.3" height="15.0" fill="rgb(242,173,41)" rx="2" ry="2" />
<text  x="990.97" y="223.5" ></text>
</g>
<g >
<title>StartReadBuffer (635,279,344 samples, 2.31%)</title><rect x="1145.7" y="229" width="27.3" height="15.0" fill="rgb(222,78,18)" rx="2" ry="2" />
<text  x="1148.72" y="239.5" >S..</text>
</g>
<g >
<title>UnpinBufferNoOwner (33,003,736 samples, 0.12%)</title><rect x="1082.5" y="245" width="1.4" height="15.0" fill="rgb(253,221,53)" rx="2" ry="2" />
<text  x="1085.47" y="255.5" ></text>
</g>
<g >
<title>__sysvec_apic_timer_interrupt (2,750,579 samples, 0.01%)</title><rect x="1065.9" y="245" width="0.1" height="15.0" fill="rgb(242,173,41)" rx="2" ry="2" />
<text  x="1068.91" y="255.5" ></text>
</g>
<g >
<title>postgres (27,485,980,374 samples, 100.00%)</title><rect x="10.0" y="501" width="1180.0" height="15.0" fill="rgb(233,131,31)" rx="2" ry="2" />
<text  x="13.00" y="511.5" >postgres</text>
</g>
<g >
<title>__sysvec_apic_timer_interrupt (2,750,630 samples, 0.01%)</title><rect x="1058.8" y="229" width="0.1" height="15.0" fill="rgb(242,173,41)" rx="2" ry="2" />
<text  x="1061.78" y="239.5" ></text>
</g>
<g >
<title>native_sched_clock (2,750,373 samples, 0.01%)</title><rect x="423.8" y="53" width="0.1" height="15.0" fill="rgb(218,64,15)" rx="2" ry="2" />
<text  x="426.80" y="63.5" ></text>
</g>
<g >
<title>update_rq_clock (2,750,373 samples, 0.01%)</title><rect x="423.8" y="101" width="0.1" height="15.0" fill="rgb(231,119,28)" rx="2" ry="2" />
<text  x="426.80" y="111.5" ></text>
</g>
<g >
<title>ExecStoreBufferHeapTuple (206,918,167 samples, 0.75%)</title><rect x="1075.0" y="261" width="8.9" height="15.0" fill="rgb(230,117,28)" rx="2" ry="2" />
<text  x="1078.01" y="271.5" ></text>
</g>
<g >
<title>hrtimer_interrupt (2,750,630 samples, 0.01%)</title><rect x="1058.8" y="213" width="0.1" height="15.0" fill="rgb(228,109,26)" rx="2" ry="2" />
<text  x="1061.78" y="223.5" ></text>
</g>
<g >
<title>ExecInterpExpr (24,066,313,225 samples, 87.56%)</title><rect x="25.7" y="293" width="1033.2" height="15.0" fill="rgb(225,96,22)" rx="2" ry="2" />
<text  x="28.71" y="303.5" >ExecInterpExpr</text>
</g>
<g >
<title>PinBuffer (120,983,000 samples, 0.44%)</title><rect x="1166.6" y="213" width="5.2" height="15.0" fill="rgb(219,64,15)" rx="2" ry="2" />
<text  x="1169.62" y="223.5" ></text>
</g>
<g >
<title>tts_buffer_heap_getsomeattrs (145,728,540 samples, 0.53%)</title><rect x="1052.6" y="277" width="6.3" height="15.0" fill="rgb(222,81,19)" rx="2" ry="2" />
<text  x="1055.64" y="287.5" ></text>
</g>
<g >
<title>__memcmp_evex_movbe (2,750,876 samples, 0.01%)</title><rect x="1150.2" y="197" width="0.1" height="15.0" fill="rgb(219,67,16)" rx="2" ry="2" />
<text  x="1153.21" y="207.5" ></text>
</g>
<g >
<title>__hrtimer_run_queues (8,251,634 samples, 0.03%)</title><rect x="423.6" y="181" width="0.3" height="15.0" fill="rgb(237,150,35)" rx="2" ry="2" />
<text  x="426.57" y="191.5" ></text>
</g>
<g >
<title>ExecInterpExpr (38,504,298 samples, 0.14%)</title><rect x="10.0" y="309" width="1.7" height="15.0" fill="rgb(225,96,22)" rx="2" ry="2" />
<text  x="13.00" y="319.5" ></text>
</g>
<g >
<title>sysvec_apic_timer_interrupt (11,002,652 samples, 0.04%)</title><rect x="423.4" y="229" width="0.5" height="15.0" fill="rgb(220,69,16)" rx="2" ry="2" />
<text  x="426.45" y="239.5" ></text>
</g>
<g >
<title>LWLockAcquire (13,753,282 samples, 0.05%)</title><rect x="1163.4" y="213" width="0.6" height="15.0" fill="rgb(209,20,4)" rx="2" ry="2" />
<text  x="1166.43" y="223.5" ></text>
</g>
<g >
<title>BufTableLookup (308,032,539 samples, 1.12%)</title><rect x="1150.2" y="213" width="13.2" height="15.0" fill="rgb(224,89,21)" rx="2" ry="2" />
<text  x="1153.21" y="223.5" ></text>
</g>
<g >
<title>clockevents_program_event (2,750,802 samples, 0.01%)</title><rect x="1141.0" y="149" width="0.1" height="15.0" fill="rgb(244,182,43)" rx="2" ry="2" />
<text  x="1144.00" y="159.5" ></text>
</g>
<g >
<title>timekeeping_update (2,750,579 samples, 0.01%)</title><rect x="1065.9" y="117" width="0.1" height="15.0" fill="rgb(238,152,36)" rx="2" ry="2" />
<text  x="1068.91" y="127.5" ></text>
</g>
<g >
<title>perf_adjust_freq_unthr_context (2,750,773 samples, 0.01%)</title><rect x="988.2" y="85" width="0.1" height="15.0" fill="rgb(236,146,35)" rx="2" ry="2" />
<text  x="991.21" y="95.5" ></text>
</g>
<g >
<title>native_read_msr (2,750,748 samples, 0.01%)</title><rect x="1140.9" y="69" width="0.1" height="15.0" fill="rgb(211,30,7)" rx="2" ry="2" />
<text  x="1143.88" y="79.5" ></text>
</g>
<g >
<title>__libc_start_call_main (27,485,980,374 samples, 100.00%)</title><rect x="10.0" y="485" width="1180.0" height="15.0" fill="rgb(210,26,6)" rx="2" ry="2" />
<text  x="13.00" y="495.5" >__libc_start_call_main</text>
</g>
<g >
<title>asm_sysvec_apic_timer_interrupt (11,002,652 samples, 0.04%)</title><rect x="423.4" y="245" width="0.5" height="15.0" fill="rgb(232,127,30)" rx="2" ry="2" />
<text  x="426.45" y="255.5" ></text>
</g>
<g >
<title>tick_sched_timer (5,501,337 samples, 0.02%)</title><rect x="988.1" y="165" width="0.2" height="15.0" fill="rgb(254,227,54)" rx="2" ry="2" />
<text  x="991.09" y="175.5" ></text>
</g>
<g >
<title>IncrBufferRefCount (33,006,431 samples, 0.12%)</title><rect x="1079.6" y="245" width="1.4" height="15.0" fill="rgb(209,22,5)" rx="2" ry="2" />
<text  x="1082.61" y="255.5" ></text>
</g>
<g >
<title>[postgres] (27,485,980,374 samples, 100.00%)</title><rect x="10.0" y="405" width="1180.0" height="15.0" fill="rgb(245,184,44)" rx="2" ry="2" />
<text  x="13.00" y="415.5" >[postgres]</text>
</g>
<g >
<title>pg_mbstrlen_with_len (7,371,908,601 samples, 26.82%)</title><rect x="107.4" y="261" width="316.5" height="15.0" fill="rgb(228,106,25)" rx="2" ry="2" />
<text  x="110.44" y="271.5" >pg_mbstrlen_with_len</text>
</g>
<g >
<title>__hrtimer_run_queues (2,750,579 samples, 0.01%)</title><rect x="1065.9" y="213" width="0.1" height="15.0" fill="rgb(237,150,35)" rx="2" ry="2" />
<text  x="1068.91" y="223.5" ></text>
</g>
<g >
<title>tick_sched_timer (2,750,630 samples, 0.01%)</title><rect x="1058.8" y="181" width="0.1" height="15.0" fill="rgb(254,227,54)" rx="2" ry="2" />
<text  x="1061.78" y="191.5" ></text>
</g>
<g >
<title>amd_pmu_disable_all (2,750,773 samples, 0.01%)</title><rect x="988.2" y="53" width="0.1" height="15.0" fill="rgb(213,38,9)" rx="2" ry="2" />
<text  x="991.21" y="63.5" ></text>
</g>
<g >
<title>pvclock_gtod_notify (2,750,564 samples, 0.01%)</title><rect x="988.1" y="69" width="0.1" height="15.0" fill="rgb(241,169,40)" rx="2" ry="2" />
<text  x="991.09" y="79.5" ></text>
</g>
<g >
<title>__hrtimer_run_queues (2,750,748 samples, 0.01%)</title><rect x="1140.9" y="165" width="0.1" height="15.0" fill="rgb(237,150,35)" rx="2" ry="2" />
<text  x="1143.88" y="175.5" ></text>
</g>
<g >
<title>scheduler_tick (2,750,773 samples, 0.01%)</title><rect x="988.2" y="117" width="0.1" height="15.0" fill="rgb(246,190,45)" rx="2" ry="2" />
<text  x="991.21" y="127.5" ></text>
</g>
<g >
<title>perf_event_task_tick (2,750,773 samples, 0.01%)</title><rect x="988.2" y="101" width="0.1" height="15.0" fill="rgb(205,3,0)" rx="2" ry="2" />
<text  x="991.21" y="111.5" ></text>
</g>
<g >
<title>standard_ExecutorRun (27,485,980,374 samples, 100.00%)</title><rect x="10.0" y="325" width="1180.0" height="15.0" fill="rgb(247,196,47)" rx="2" ry="2" />
<text  x="13.00" y="335.5" >standard_ExecutorRun</text>
</g>
<g >
<title>update_fast_timekeeper (2,750,579 samples, 0.01%)</title><rect x="1065.9" y="101" width="0.1" height="15.0" fill="rgb(212,32,7)" rx="2" ry="2" />
<text  x="1068.91" y="111.5" ></text>
</g>
<g >
<title>update_wall_time (2,750,579 samples, 0.01%)</title><rect x="1065.9" y="149" width="0.1" height="15.0" fill="rgb(207,11,2)" rx="2" ry="2" />
<text  x="1068.91" y="159.5" ></text>
</g>
<g >
<title>sysvec_apic_timer_interrupt (11,002,820 samples, 0.04%)</title><rect x="988.0" y="229" width="0.4" height="15.0" fill="rgb(220,69,16)" rx="2" ry="2" />
<text  x="990.97" y="239.5" ></text>
</g>
<g >
<title>ResourceOwnerRemember (2,750,341 samples, 0.01%)</title><rect x="1171.8" y="213" width="0.1" height="15.0" fill="rgb(243,178,42)" rx="2" ry="2" />
<text  x="1174.81" y="223.5" ></text>
</g>
<g >
<title>ResourceOwnerEnlarge (19,253,351 samples, 0.07%)</title><rect x="1080.2" y="229" width="0.8" height="15.0" fill="rgb(223,86,20)" rx="2" ry="2" />
<text  x="1083.20" y="239.5" ></text>
</g>
<g >
<title>PostgresMain (27,485,980,374 samples, 100.00%)</title><rect x="10.0" y="389" width="1180.0" height="15.0" fill="rgb(227,103,24)" rx="2" ry="2" />
<text  x="13.00" y="399.5" >PostgresMain</text>
</g>
<g >
<title>main (27,485,980,374 samples, 100.00%)</title><rect x="10.0" y="469" width="1180.0" height="15.0" fill="rgb(243,179,42)" rx="2" ry="2" />
<text  x="13.00" y="479.5" >main</text>
</g>
<g >
<title>PostmasterMain (27,485,980,374 samples, 100.00%)</title><rect x="10.0" y="453" width="1180.0" height="15.0" fill="rgb(212,35,8)" rx="2" ry="2" />
<text  x="13.00" y="463.5" >PostmasterMain</text>
</g>
<g >
<title>ResourceOwnerForget (8,251,778 samples, 0.03%)</title><rect x="1082.1" y="245" width="0.4" height="15.0" fill="rgb(235,142,33)" rx="2" ry="2" />
<text  x="1085.12" y="255.5" ></text>
</g>
<g >
<title>SeqNext (16,502,172 samples, 0.06%)</title><rect x="1189.3" y="309" width="0.7" height="15.0" fill="rgb(214,41,10)" rx="2" ry="2" />
<text  x="1192.29" y="319.5" ></text>
</g>
<g >
<title>hrtimer_interrupt (2,750,579 samples, 0.01%)</title><rect x="1065.9" y="229" width="0.1" height="15.0" fill="rgb(228,109,26)" rx="2" ry="2" />
<text  x="1068.91" y="239.5" ></text>
</g>
<g >
<title>sched_clock (2,750,373 samples, 0.01%)</title><rect x="423.8" y="69" width="0.1" height="15.0" fill="rgb(212,33,7)" rx="2" ry="2" />
<text  x="426.80" y="79.5" ></text>
</g>
<g >
<title>update_process_times (2,750,630 samples, 0.01%)</title><rect x="1058.8" y="149" width="0.1" height="15.0" fill="rgb(250,209,50)" rx="2" ry="2" />
<text  x="1061.78" y="159.5" ></text>
</g>
<g >
<title>SeqNext (2,660,427,543 samples, 9.68%)</title><rect x="1060.8" y="293" width="114.2" height="15.0" fill="rgb(214,41,10)" rx="2" ry="2" />
<text  x="1063.79" y="303.5" >SeqNext</text>
</g>
<g >
<title>tick_program_event (2,750,802 samples, 0.01%)</title><rect x="1141.0" y="165" width="0.1" height="15.0" fill="rgb(241,166,39)" rx="2" ry="2" />
<text  x="1144.00" y="175.5" ></text>
</g>
</g>
</svg>
