<?xml version="1.0" standalone="no"?>
<!DOCTYPE svg PUBLIC "-//W3C//DTD SVG 1.1//EN" "http://www.w3.org/Graphics/SVG/1.1/DTD/svg11.dtd">
<svg version="1.1" width="1200" height="566" onload="init(evt)" viewBox="0 0 1200 566" xmlns="http://www.w3.org/2000/svg" xmlns:xlink="http://www.w3.org/1999/xlink">
<!-- Flame graph stack visualization. See https://github.com/brendangregg/FlameGraph for latest version, and http://www.brendangregg.com/flamegraphs.html for examples. -->
<!-- NOTES:  -->
<defs>
	<linearGradient id="background" y1="0" y2="1" x1="0" x2="0" >
		<stop stop-color="#eeeeee" offset="5%" />
		<stop stop-color="#eeeeb0" offset="95%" />
	</linearGradient>
</defs>
<style type="text/css">
	text { font-family:Verdana; font-size:12px; fill:rgb(0,0,0); }
	#search, #ignorecase { opacity:0.1; cursor:pointer; }
	#search:hover, #search.show, #ignorecase:hover, #ignorecase.show { opacity:1; }
	#subtitle { text-anchor:middle; font-color:rgb(160,160,160); }
	#title { text-anchor:middle; font-size:17px}
	#unzoom { cursor:pointer; }
	#frames > *:hover { stroke:black; stroke-width:0.5; cursor:pointer; }
	.hide { display:none; }
	.parent { opacity:0.5; }
</style>
<script type="text/ecmascript">
<![CDATA[
	"use strict";
	var details, searchbtn, unzoombtn, matchedtxt, svg, searching, currentSearchTerm, ignorecase, ignorecaseBtn;
	function init(evt) {
		details = document.getElementById("details").firstChild;
		searchbtn = document.getElementById("search");
		ignorecaseBtn = document.getElementById("ignorecase");
		unzoombtn = document.getElementById("unzoom");
		matchedtxt = document.getElementById("matched");
		svg = document.getElementsByTagName("svg")[0];
		searching = 0;
		currentSearchTerm = null;

		// use GET parameters to restore a flamegraphs state.
		var params = get_params();
		if (params.x && params.y)
			zoom(find_group(document.querySelector('[x="' + params.x + '"][y="' + params.y + '"]')));
                if (params.s) search(params.s);
	}

	// event listeners
	window.addEventListener("click", function(e) {
		var target = find_group(e.target);
		if (target) {
			if (target.nodeName == "a") {
				if (e.ctrlKey === false) return;
				e.preventDefault();
			}
			if (target.classList.contains("parent")) unzoom(true);
			zoom(target);
			if (!document.querySelector('.parent')) {
				// we have basically done a clearzoom so clear the url
				var params = get_params();
				if (params.x) delete params.x;
				if (params.y) delete params.y;
				history.replaceState(null, null, parse_params(params));
				unzoombtn.classList.add("hide");
				return;
			}

			// set parameters for zoom state
			var el = target.querySelector("rect");
			if (el && el.attributes && el.attributes.y && el.attributes._orig_x) {
				var params = get_params()
				params.x = el.attributes._orig_x.value;
				params.y = el.attributes.y.value;
				history.replaceState(null, null, parse_params(params));
			}
		}
		else if (e.target.id == "unzoom") clearzoom();
		else if (e.target.id == "search") search_prompt();
		else if (e.target.id == "ignorecase") toggle_ignorecase();
	}, false)

	// mouse-over for info
	// show
	window.addEventListener("mouseover", function(e) {
		var target = find_group(e.target);
		if (target) details.nodeValue = "Function: " + g_to_text(target);
	}, false)

	// clear
	window.addEventListener("mouseout", function(e) {
		var target = find_group(e.target);
		if (target) details.nodeValue = ' ';
	}, false)

	// ctrl-F for search
	// ctrl-I to toggle case-sensitive search
	window.addEventListener("keydown",function (e) {
		if (e.keyCode === 114 || (e.ctrlKey && e.keyCode === 70)) {
			e.preventDefault();
			search_prompt();
		}
		else if (e.ctrlKey && e.keyCode === 73) {
			e.preventDefault();
			toggle_ignorecase();
		}
	}, false)

	// functions
	function get_params() {
		var params = {};
		var paramsarr = window.location.search.substr(1).split('&');
		for (var i = 0; i < paramsarr.length; ++i) {
			var tmp = paramsarr[i].split("=");
			if (!tmp[0] || !tmp[1]) continue;
			params[tmp[0]]  = decodeURIComponent(tmp[1]);
		}
		return params;
	}
	function parse_params(params) {
		var uri = "?";
		for (var key in params) {
			uri += key + '=' + encodeURIComponent(params[key]) + '&';
		}
		if (uri.slice(-1) == "&")
			uri = uri.substring(0, uri.length - 1);
		if (uri == '?')
			uri = window.location.href.split('?')[0];
		return uri;
	}
	function find_child(node, selector) {
		var children = node.querySelectorAll(selector);
		if (children.length) return children[0];
	}
	function find_group(node) {
		var parent = node.parentElement;
		if (!parent) return;
		if (parent.id == "frames") return node;
		return find_group(parent);
	}
	function orig_save(e, attr, val) {
		if (e.attributes["_orig_" + attr] != undefined) return;
		if (e.attributes[attr] == undefined) return;
		if (val == undefined) val = e.attributes[attr].value;
		e.setAttribute("_orig_" + attr, val);
	}
	function orig_load(e, attr) {
		if (e.attributes["_orig_"+attr] == undefined) return;
		e.attributes[attr].value = e.attributes["_orig_" + attr].value;
		e.removeAttribute("_orig_"+attr);
	}
	function g_to_text(e) {
		var text = find_child(e, "title").firstChild.nodeValue;
		return (text)
	}
	function g_to_func(e) {
		var func = g_to_text(e);
		// if there's any manipulation we want to do to the function
		// name before it's searched, do it here before returning.
		return (func);
	}
	function update_text(e) {
		var r = find_child(e, "rect");
		var t = find_child(e, "text");
		var w = parseFloat(r.attributes.width.value) -3;
		var txt = find_child(e, "title").textContent.replace(/\([^(]*\)$/,"");
		t.attributes.x.value = parseFloat(r.attributes.x.value) + 3;

		// Smaller than this size won't fit anything
		if (w < 2 * 12 * 0.59) {
			t.textContent = "";
			return;
		}

		t.textContent = txt;
		var sl = t.getSubStringLength(0, txt.length);
		// check if only whitespace or if we can fit the entire string into width w
		if (/^ *$/.test(txt) || sl < w)
			return;

		// this isn't perfect, but gives a good starting point
		// and avoids calling getSubStringLength too often
		var start = Math.floor((w/sl) * txt.length);
		for (var x = start; x > 0; x = x-2) {
			if (t.getSubStringLength(0, x + 2) <= w) {
				t.textContent = txt.substring(0, x) + "..";
				return;
			}
		}
		t.textContent = "";
	}

	// zoom
	function zoom_reset(e) {
		if (e.attributes != undefined) {
			orig_load(e, "x");
			orig_load(e, "width");
		}
		if (e.childNodes == undefined) return;
		for (var i = 0, c = e.childNodes; i < c.length; i++) {
			zoom_reset(c[i]);
		}
	}
	function zoom_child(e, x, ratio) {
		if (e.attributes != undefined) {
			if (e.attributes.x != undefined) {
				orig_save(e, "x");
				e.attributes.x.value = (parseFloat(e.attributes.x.value) - x - 10) * ratio + 10;
				if (e.tagName == "text")
					e.attributes.x.value = find_child(e.parentNode, "rect[x]").attributes.x.value + 3;
			}
			if (e.attributes.width != undefined) {
				orig_save(e, "width");
				e.attributes.width.value = parseFloat(e.attributes.width.value) * ratio;
			}
		}

		if (e.childNodes == undefined) return;
		for (var i = 0, c = e.childNodes; i < c.length; i++) {
			zoom_child(c[i], x - 10, ratio);
		}
	}
	function zoom_parent(e) {
		if (e.attributes) {
			if (e.attributes.x != undefined) {
				orig_save(e, "x");
				e.attributes.x.value = 10;
			}
			if (e.attributes.width != undefined) {
				orig_save(e, "width");
				e.attributes.width.value = parseInt(svg.width.baseVal.value) - (10 * 2);
			}
		}
		if (e.childNodes == undefined) return;
		for (var i = 0, c = e.childNodes; i < c.length; i++) {
			zoom_parent(c[i]);
		}
	}
	function zoom(node) {
		var attr = find_child(node, "rect").attributes;
		var width = parseFloat(attr.width.value);
		var xmin = parseFloat(attr.x.value);
		var xmax = parseFloat(xmin + width);
		var ymin = parseFloat(attr.y.value);
		var ratio = (svg.width.baseVal.value - 2 * 10) / width;

		// XXX: Workaround for JavaScript float issues (fix me)
		var fudge = 0.0001;

		unzoombtn.classList.remove("hide");

		var el = document.getElementById("frames").children;
		for (var i = 0; i < el.length; i++) {
			var e = el[i];
			var a = find_child(e, "rect").attributes;
			var ex = parseFloat(a.x.value);
			var ew = parseFloat(a.width.value);
			var upstack;
			// Is it an ancestor
			if (0 == 0) {
				upstack = parseFloat(a.y.value) > ymin;
			} else {
				upstack = parseFloat(a.y.value) < ymin;
			}
			if (upstack) {
				// Direct ancestor
				if (ex <= xmin && (ex+ew+fudge) >= xmax) {
					e.classList.add("parent");
					zoom_parent(e);
					update_text(e);
				}
				// not in current path
				else
					e.classList.add("hide");
			}
			// Children maybe
			else {
				// no common path
				if (ex < xmin || ex + fudge >= xmax) {
					e.classList.add("hide");
				}
				else {
					zoom_child(e, xmin, ratio);
					update_text(e);
				}
			}
		}
		search();
	}
	function unzoom(dont_update_text) {
		unzoombtn.classList.add("hide");
		var el = document.getElementById("frames").children;
		for(var i = 0; i < el.length; i++) {
			el[i].classList.remove("parent");
			el[i].classList.remove("hide");
			zoom_reset(el[i]);
			if(!dont_update_text) update_text(el[i]);
		}
		search();
	}
	function clearzoom() {
		unzoom();

		// remove zoom state
		var params = get_params();
		if (params.x) delete params.x;
		if (params.y) delete params.y;
		history.replaceState(null, null, parse_params(params));
	}

	// search
	function toggle_ignorecase() {
		ignorecase = !ignorecase;
		if (ignorecase) {
			ignorecaseBtn.classList.add("show");
		} else {
			ignorecaseBtn.classList.remove("show");
		}
		reset_search();
		search();
	}
	function reset_search() {
		var el = document.querySelectorAll("#frames rect");
		for (var i = 0; i < el.length; i++) {
			orig_load(el[i], "fill")
		}
		var params = get_params();
		delete params.s;
		history.replaceState(null, null, parse_params(params));
	}
	function search_prompt() {
		if (!searching) {
			var term = prompt("Enter a search term (regexp " +
			    "allowed, eg: ^ext4_)"
			    + (ignorecase ? ", ignoring case" : "")
			    + "\nPress Ctrl-i to toggle case sensitivity", "");
			if (term != null) search(term);
		} else {
			reset_search();
			searching = 0;
			currentSearchTerm = null;
			searchbtn.classList.remove("show");
			searchbtn.firstChild.nodeValue = "Search"
			matchedtxt.classList.add("hide");
			matchedtxt.firstChild.nodeValue = ""
		}
	}
	function search(term) {
		if (term) currentSearchTerm = term;

		var re = new RegExp(currentSearchTerm, ignorecase ? 'i' : '');
		var el = document.getElementById("frames").children;
		var matches = new Object();
		var maxwidth = 0;
		for (var i = 0; i < el.length; i++) {
			var e = el[i];
			var func = g_to_func(e);
			var rect = find_child(e, "rect");
			if (func == null || rect == null)
				continue;

			// Save max width. Only works as we have a root frame
			var w = parseFloat(rect.attributes.width.value);
			if (w > maxwidth)
				maxwidth = w;

			if (func.match(re)) {
				// highlight
				var x = parseFloat(rect.attributes.x.value);
				orig_save(rect, "fill");
				rect.attributes.fill.value = "rgb(230,0,230)";

				// remember matches
				if (matches[x] == undefined) {
					matches[x] = w;
				} else {
					if (w > matches[x]) {
						// overwrite with parent
						matches[x] = w;
					}
				}
				searching = 1;
			}
		}
		if (!searching)
			return;
		var params = get_params();
		params.s = currentSearchTerm;
		history.replaceState(null, null, parse_params(params));

		searchbtn.classList.add("show");
		searchbtn.firstChild.nodeValue = "Reset Search";

		// calculate percent matched, excluding vertical overlap
		var count = 0;
		var lastx = -1;
		var lastw = 0;
		var keys = Array();
		for (k in matches) {
			if (matches.hasOwnProperty(k))
				keys.push(k);
		}
		// sort the matched frames by their x location
		// ascending, then width descending
		keys.sort(function(a, b){
			return a - b;
		});
		// Step through frames saving only the biggest bottom-up frames
		// thanks to the sort order. This relies on the tree property
		// where children are always smaller than their parents.
		var fudge = 0.0001;	// JavaScript floating point
		for (var k in keys) {
			var x = parseFloat(keys[k]);
			var w = matches[keys[k]];
			if (x >= lastx + lastw - fudge) {
				count += w;
				lastx = x;
				lastw = w;
			}
		}
		// display matched percent
		matchedtxt.classList.remove("hide");
		var pct = 100 * count / maxwidth;
		if (pct != 100) pct = pct.toFixed(1)
		matchedtxt.firstChild.nodeValue = "Matched: " + pct + "%";
	}
]]>
</script>
<rect x="0.0" y="0" width="1200.0" height="566.0" fill="url(#background)"  />
<text id="title" x="600.00" y="24" >Flame Graph</text>
<text id="details" x="10.00" y="549" > </text>
<text id="unzoom" x="10.00" y="24" class="hide">Reset Zoom</text>
<text id="search" x="1090.00" y="24" >Search</text>
<text id="ignorecase" x="1174.00" y="24" >ic</text>
<text id="matched" x="1090.00" y="549" > </text>
<g id="frames">
<g >
<title>update_load_avg (2,750,568 samples, 0.01%)</title><rect x="968.7" y="85" width="0.1" height="15.0" fill="rgb(240,165,39)" rx="2" ry="2" />
<text  x="971.68" y="95.5" ></text>
</g>
<g >
<title>asm_sysvec_apic_timer_interrupt (2,750,622 samples, 0.01%)</title><rect x="391.6" y="245" width="0.1" height="15.0" fill="rgb(232,127,30)" rx="2" ry="2" />
<text  x="394.62" y="255.5" ></text>
</g>
<g >
<title>PinBuffer (660,606,789 samples, 2.40%)</title><rect x="1142.0" y="213" width="28.3" height="15.0" fill="rgb(219,64,15)" rx="2" ry="2" />
<text  x="1145.05" y="223.5" >P..</text>
</g>
<g >
<title>hrtimer_interrupt (2,750,622 samples, 0.01%)</title><rect x="391.6" y="197" width="0.1" height="15.0" fill="rgb(228,109,26)" rx="2" ry="2" />
<text  x="394.62" y="207.5" ></text>
</g>
<g >
<title>heap_getnextslot (3,884,412,541 samples, 14.10%)</title><rect x="1005.9" y="277" width="166.3" height="15.0" fill="rgb(213,40,9)" rx="2" ry="2" />
<text  x="1008.89" y="287.5" >heap_getnextslot</text>
</g>
<g >
<title>hash_search_with_hash_value (71,512,405 samples, 0.26%)</title><rect x="1120.4" y="197" width="3.0" height="15.0" fill="rgb(249,205,49)" rx="2" ry="2" />
<text  x="1123.38" y="207.5" ></text>
</g>
<g >
<title>bpcharlen (11,001,049 samples, 0.04%)</title><rect x="1172.2" y="293" width="0.5" height="15.0" fill="rgb(221,77,18)" rx="2" ry="2" />
<text  x="1175.22" y="303.5" ></text>
</g>
<g >
<title>LWLockAttemptLock (71,503,471 samples, 0.26%)</title><rect x="1112.3" y="229" width="3.0" height="15.0" fill="rgb(235,138,33)" rx="2" ry="2" />
<text  x="1115.26" y="239.5" ></text>
</g>
<g >
<title>asm_sysvec_apic_timer_interrupt (2,750,513 samples, 0.01%)</title><rect x="94.4" y="277" width="0.1" height="15.0" fill="rgb(232,127,30)" rx="2" ry="2" />
<text  x="97.41" y="287.5" ></text>
</g>
<g >
<title>__sysvec_apic_timer_interrupt (2,750,622 samples, 0.01%)</title><rect x="391.6" y="213" width="0.1" height="15.0" fill="rgb(242,173,41)" rx="2" ry="2" />
<text  x="394.62" y="223.5" ></text>
</g>
<g >
<title>__sysvec_apic_timer_interrupt (16,504,012 samples, 0.06%)</title><rect x="968.4" y="213" width="0.7" height="15.0" fill="rgb(242,173,41)" rx="2" ry="2" />
<text  x="971.44" y="223.5" ></text>
</g>
<g >
<title>tts_buffer_heap_getsomeattrs (41,251,102 samples, 0.15%)</title><rect x="985.2" y="277" width="1.7" height="15.0" fill="rgb(222,81,19)" rx="2" ry="2" />
<text  x="988.16" y="287.5" ></text>
</g>
<g >
<title>scheduler_tick (2,750,568 samples, 0.01%)</title><rect x="968.7" y="117" width="0.1" height="15.0" fill="rgb(246,190,45)" rx="2" ry="2" />
<text  x="971.68" y="127.5" ></text>
</g>
<g >
<title>update_cfs_group (2,750,679 samples, 0.01%)</title><rect x="1138.3" y="37" width="0.1" height="15.0" fill="rgb(242,174,41)" rx="2" ry="2" />
<text  x="1141.28" y="47.5" ></text>
</g>
<g >
<title>BufTableLookup (74,261,889 samples, 0.27%)</title><rect x="1120.3" y="213" width="3.1" height="15.0" fill="rgb(224,89,21)" rx="2" ry="2" />
<text  x="1123.26" y="223.5" ></text>
</g>
<g >
<title>hash_bytes (35,753,860 samples, 0.13%)</title><rect x="1170.5" y="229" width="1.5" height="15.0" fill="rgb(227,102,24)" rx="2" ry="2" />
<text  x="1173.45" y="239.5" ></text>
</g>
<g >
<title>hrtimer_interrupt (16,504,012 samples, 0.06%)</title><rect x="968.4" y="197" width="0.7" height="15.0" fill="rgb(228,109,26)" rx="2" ry="2" />
<text  x="971.44" y="207.5" ></text>
</g>
<g >
<title>MemoryContextReset (112,763,110 samples, 0.41%)</title><rect x="990.7" y="293" width="4.8" height="15.0" fill="rgb(210,26,6)" rx="2" ry="2" />
<text  x="993.70" y="303.5" ></text>
</g>
<g >
<title>ReservePrivateRefCountEntry (2,750,392 samples, 0.01%)</title><rect x="1170.3" y="213" width="0.2" height="15.0" fill="rgb(232,125,30)" rx="2" ry="2" />
<text  x="1173.33" y="223.5" ></text>
</g>
<g >
<title>GetPrivateRefCountEntry (8,250,106 samples, 0.03%)</title><rect x="1170.0" y="197" width="0.3" height="15.0" fill="rgb(250,209,50)" rx="2" ry="2" />
<text  x="1172.98" y="207.5" ></text>
</g>
<g >
<title>__hrtimer_run_queues (2,750,513 samples, 0.01%)</title><rect x="94.4" y="213" width="0.1" height="15.0" fill="rgb(237,150,35)" rx="2" ry="2" />
<text  x="97.41" y="223.5" ></text>
</g>
<g >
<title>SeqNext (11,001,373 samples, 0.04%)</title><rect x="1189.5" y="309" width="0.5" height="15.0" fill="rgb(214,41,10)" rx="2" ry="2" />
<text  x="1192.53" y="319.5" ></text>
</g>
<g >
<title>GetPrivateRefCountEntry (8,251,073 samples, 0.03%)</title><rect x="1060.2" y="229" width="0.3" height="15.0" fill="rgb(250,209,50)" rx="2" ry="2" />
<text  x="1063.18" y="239.5" ></text>
</g>
<g >
<title>update_process_times (2,750,679 samples, 0.01%)</title><rect x="1138.3" y="85" width="0.1" height="15.0" fill="rgb(250,209,50)" rx="2" ry="2" />
<text  x="1141.28" y="95.5" ></text>
</g>
<g >
<title>pg_mbstrlen_with_len (2,750,393 samples, 0.01%)</title><rect x="978.5" y="277" width="0.1" height="15.0" fill="rgb(228,106,25)" rx="2" ry="2" />
<text  x="981.45" y="287.5" ></text>
</g>
<g >
<title>ExecStoreBufferHeapTuple (5,500,368 samples, 0.02%)</title><rect x="1005.7" y="277" width="0.2" height="15.0" fill="rgb(230,117,28)" rx="2" ry="2" />
<text  x="1008.66" y="287.5" ></text>
</g>
<g >
<title>pgstat_count_io_op (2,750,174 samples, 0.01%)</title><rect x="1172.0" y="229" width="0.1" height="15.0" fill="rgb(207,10,2)" rx="2" ry="2" />
<text  x="1174.98" y="239.5" ></text>
</g>
<g >
<title>__libc_start_call_main (27,558,248,434 samples, 100.00%)</title><rect x="10.0" y="485" width="1180.0" height="15.0" fill="rgb(210,26,6)" rx="2" ry="2" />
<text  x="13.00" y="495.5" >__libc_start_call_main</text>
</g>
<g >
<title>__sysvec_apic_timer_interrupt (2,750,553 samples, 0.01%)</title><rect x="1087.3" y="213" width="0.1" height="15.0" fill="rgb(242,173,41)" rx="2" ry="2" />
<text  x="1090.28" y="223.5" ></text>
</g>
<g >
<title>hrtimer_interrupt (2,750,679 samples, 0.01%)</title><rect x="1138.3" y="149" width="0.1" height="15.0" fill="rgb(228,109,26)" rx="2" ry="2" />
<text  x="1141.28" y="159.5" ></text>
</g>
<g >
<title>UnpinBufferNoOwner (2,750,345 samples, 0.01%)</title><rect x="1061.4" y="261" width="0.1" height="15.0" fill="rgb(253,221,53)" rx="2" ry="2" />
<text  x="1064.36" y="271.5" ></text>
</g>
<g >
<title>LockBuffer (16,496,080 samples, 0.06%)</title><rect x="1083.9" y="245" width="0.7" height="15.0" fill="rgb(235,142,34)" rx="2" ry="2" />
<text  x="1086.87" y="255.5" ></text>
</g>
<g >
<title>bpcharlen (20,426,384,924 samples, 74.12%)</title><rect x="94.5" y="277" width="874.6" height="15.0" fill="rgb(221,77,18)" rx="2" ry="2" />
<text  x="97.52" y="287.5" >bpcharlen</text>
</g>
<g >
<title>task_tick_fair (2,750,568 samples, 0.01%)</title><rect x="968.7" y="101" width="0.1" height="15.0" fill="rgb(217,57,13)" rx="2" ry="2" />
<text  x="971.68" y="111.5" ></text>
</g>
<g >
<title>heap_prepare_pagescan (652,020,839 samples, 2.37%)</title><rect x="1087.4" y="245" width="27.9" height="15.0" fill="rgb(222,82,19)" rx="2" ry="2" />
<text  x="1090.40" y="255.5" >h..</text>
</g>
<g >
<title>ResourceOwnerRemember (2,749,765 samples, 0.01%)</title><rect x="1061.2" y="261" width="0.2" height="15.0" fill="rgb(243,178,42)" rx="2" ry="2" />
<text  x="1064.24" y="271.5" ></text>
</g>
<g >
<title>hrtimer_interrupt (2,750,513 samples, 0.01%)</title><rect x="94.4" y="229" width="0.1" height="15.0" fill="rgb(228,109,26)" rx="2" ry="2" />
<text  x="97.41" y="239.5" ></text>
</g>
<g >
<title>tick_sched_handle (2,750,679 samples, 0.01%)</title><rect x="1138.3" y="101" width="0.1" height="15.0" fill="rgb(219,68,16)" rx="2" ry="2" />
<text  x="1141.28" y="111.5" ></text>
</g>
<g >
<title>heap_prepare_pagescan (2,750,307 samples, 0.01%)</title><rect x="1061.5" y="261" width="0.1" height="15.0" fill="rgb(222,82,19)" rx="2" ry="2" />
<text  x="1064.48" y="271.5" ></text>
</g>
<g >
<title>IncrBufferRefCount (5,500,791 samples, 0.02%)</title><rect x="1060.5" y="261" width="0.3" height="15.0" fill="rgb(209,22,5)" rx="2" ry="2" />
<text  x="1063.54" y="271.5" ></text>
</g>
<g >
<title>LWLockRelease (85,238,303 samples, 0.31%)</title><rect x="1138.4" y="213" width="3.6" height="15.0" fill="rgb(217,58,13)" rx="2" ry="2" />
<text  x="1141.40" y="223.5" ></text>
</g>
<g >
<title>read_stream_next_buffer (2,750,500 samples, 0.01%)</title><rect x="1172.1" y="261" width="0.1" height="15.0" fill="rgb(216,50,12)" rx="2" ry="2" />
<text  x="1175.10" y="271.5" ></text>
</g>
<g >
<title>asm_sysvec_apic_timer_interrupt (2,750,679 samples, 0.01%)</title><rect x="1138.3" y="197" width="0.1" height="15.0" fill="rgb(232,127,30)" rx="2" ry="2" />
<text  x="1141.28" y="207.5" ></text>
</g>
<g >
<title>PortalRunSelect (27,558,248,434 samples, 100.00%)</title><rect x="10.0" y="341" width="1180.0" height="15.0" fill="rgb(245,188,45)" rx="2" ry="2" />
<text  x="13.00" y="351.5" >PortalRunSelect</text>
</g>
<g >
<title>task_tick_fair (2,750,679 samples, 0.01%)</title><rect x="1138.3" y="53" width="0.1" height="15.0" fill="rgb(217,57,13)" rx="2" ry="2" />
<text  x="1141.28" y="63.5" ></text>
</g>
<g >
<title>heapgettup_pagemode (2,580,755,910 samples, 9.36%)</title><rect x="1061.6" y="261" width="110.5" height="15.0" fill="rgb(242,170,40)" rx="2" ry="2" />
<text  x="1064.60" y="271.5" >heapgettup_pa..</text>
</g>
<g >
<title>hrtimer_interrupt (2,750,553 samples, 0.01%)</title><rect x="1087.3" y="197" width="0.1" height="15.0" fill="rgb(228,109,26)" rx="2" ry="2" />
<text  x="1090.28" y="207.5" ></text>
</g>
<g >
<title>scheduler_tick (2,750,452 samples, 0.01%)</title><rect x="968.6" y="133" width="0.1" height="15.0" fill="rgb(246,190,45)" rx="2" ry="2" />
<text  x="971.56" y="143.5" ></text>
</g>
<g >
<title>__sysvec_apic_timer_interrupt (2,750,513 samples, 0.01%)</title><rect x="94.4" y="245" width="0.1" height="15.0" fill="rgb(242,173,41)" rx="2" ry="2" />
<text  x="97.41" y="255.5" ></text>
</g>
<g >
<title>sysvec_apic_timer_interrupt (2,750,679 samples, 0.01%)</title><rect x="1138.3" y="181" width="0.1" height="15.0" fill="rgb(220,69,16)" rx="2" ry="2" />
<text  x="1141.28" y="191.5" ></text>
</g>
<g >
<title>__memcmp_evex_movbe (2,749,484 samples, 0.01%)</title><rect x="1120.3" y="197" width="0.1" height="15.0" fill="rgb(219,67,16)" rx="2" ry="2" />
<text  x="1123.26" y="207.5" ></text>
</g>
<g >
<title>tick_program_event (2,750,883 samples, 0.01%)</title><rect x="969.0" y="181" width="0.1" height="15.0" fill="rgb(241,166,39)" rx="2" ry="2" />
<text  x="972.03" y="191.5" ></text>
</g>
<g >
<title>tick_sched_handle (5,501,020 samples, 0.02%)</title><rect x="968.6" y="149" width="0.2" height="15.0" fill="rgb(219,68,16)" rx="2" ry="2" />
<text  x="971.56" y="159.5" ></text>
</g>
<g >
<title>__hrtimer_run_queues (2,750,553 samples, 0.01%)</title><rect x="1087.3" y="181" width="0.1" height="15.0" fill="rgb(237,150,35)" rx="2" ry="2" />
<text  x="1090.28" y="191.5" ></text>
</g>
<g >
<title>tick_sched_timer (5,501,020 samples, 0.02%)</title><rect x="968.6" y="165" width="0.2" height="15.0" fill="rgb(254,227,54)" rx="2" ry="2" />
<text  x="971.56" y="175.5" ></text>
</g>
<g >
<title>ktime_get_update_offsets_now (2,750,622 samples, 0.01%)</title><rect x="391.6" y="181" width="0.1" height="15.0" fill="rgb(243,178,42)" rx="2" ry="2" />
<text  x="394.62" y="191.5" ></text>
</g>
<g >
<title>tick_sched_timer (2,750,679 samples, 0.01%)</title><rect x="1138.3" y="117" width="0.1" height="15.0" fill="rgb(254,227,54)" rx="2" ry="2" />
<text  x="1141.28" y="127.5" ></text>
</g>
<g >
<title>ExecScanFetch (88,007,628 samples, 0.32%)</title><rect x="986.9" y="293" width="3.8" height="15.0" fill="rgb(222,80,19)" rx="2" ry="2" />
<text  x="989.93" y="303.5" ></text>
</g>
<g >
<title>sysvec_apic_timer_interrupt (2,750,513 samples, 0.01%)</title><rect x="94.4" y="261" width="0.1" height="15.0" fill="rgb(220,69,16)" rx="2" ry="2" />
<text  x="97.41" y="271.5" ></text>
</g>
<g >
<title>heap_getnextslot (277,768,307 samples, 1.01%)</title><rect x="1172.7" y="293" width="11.9" height="15.0" fill="rgb(213,40,9)" rx="2" ry="2" />
<text  x="1175.69" y="303.5" ></text>
</g>
<g >
<title>pg_utf_mblen_private (2,750,613 samples, 0.01%)</title><rect x="979.3" y="261" width="0.1" height="15.0" fill="rgb(242,173,41)" rx="2" ry="2" />
<text  x="982.27" y="271.5" ></text>
</g>
<g >
<title>sysvec_apic_timer_interrupt (16,506,259 samples, 0.06%)</title><rect x="968.4" y="229" width="0.7" height="15.0" fill="rgb(220,69,16)" rx="2" ry="2" />
<text  x="971.44" y="239.5" ></text>
</g>
<g >
<title>int4lt (71,511,845 samples, 0.26%)</title><rect x="1184.6" y="293" width="3.0" height="15.0" fill="rgb(242,172,41)" rx="2" ry="2" />
<text  x="1187.58" y="303.5" ></text>
</g>
<g >
<title>BufferGetBlockNumber (49,507,075 samples, 0.18%)</title><rect x="1009.9" y="261" width="2.1" height="15.0" fill="rgb(206,7,1)" rx="2" ry="2" />
<text  x="1012.90" y="271.5" ></text>
</g>
<g >
<title>postmaster_child_launch (27,558,248,434 samples, 100.00%)</title><rect x="10.0" y="421" width="1180.0" height="15.0" fill="rgb(206,5,1)" rx="2" ry="2" />
<text  x="13.00" y="431.5" >postmaster_child_launch</text>
</g>
<g >
<title>postgres (27,558,248,434 samples, 100.00%)</title><rect x="10.0" y="501" width="1180.0" height="15.0" fill="rgb(233,131,31)" rx="2" ry="2" />
<text  x="13.00" y="511.5" >postgres</text>
</g>
<g >
<title>rb_erase (2,750,766 samples, 0.01%)</title><rect x="968.4" y="149" width="0.2" height="15.0" fill="rgb(219,66,15)" rx="2" ry="2" />
<text  x="971.44" y="159.5" ></text>
</g>
<g >
<title>all (27,558,248,434 samples, 100%)</title><rect x="10.0" y="517" width="1180.0" height="15.0" fill="rgb(213,39,9)" rx="2" ry="2" />
<text  x="13.00" y="527.5" ></text>
</g>
<g >
<title>UnpinBufferNoOwner (74,256,210 samples, 0.27%)</title><rect x="1057.4" y="245" width="3.1" height="15.0" fill="rgb(253,221,53)" rx="2" ry="2" />
<text  x="1060.36" y="255.5" ></text>
</g>
<g >
<title>__hrtimer_run_queues (2,750,679 samples, 0.01%)</title><rect x="1138.3" y="133" width="0.1" height="15.0" fill="rgb(237,150,35)" rx="2" ry="2" />
<text  x="1141.28" y="143.5" ></text>
</g>
<g >
<title>ExecScanFetch (2,750,459 samples, 0.01%)</title><rect x="1188.1" y="309" width="0.1" height="15.0" fill="rgb(222,80,19)" rx="2" ry="2" />
<text  x="1191.12" y="319.5" ></text>
</g>
<g >
<title>tick_sched_timer (2,750,553 samples, 0.01%)</title><rect x="1087.3" y="165" width="0.1" height="15.0" fill="rgb(254,227,54)" rx="2" ry="2" />
<text  x="1090.28" y="175.5" ></text>
</g>
<g >
<title>[postgres] (27,558,248,434 samples, 100.00%)</title><rect x="10.0" y="405" width="1180.0" height="15.0" fill="rgb(245,184,44)" rx="2" ry="2" />
<text  x="13.00" y="415.5" >[postgres]</text>
</g>
<g >
<title>ReleaseBuffer (77,008,561 samples, 0.28%)</title><rect x="1054.1" y="245" width="3.3" height="15.0" fill="rgb(220,71,17)" rx="2" ry="2" />
<text  x="1057.06" y="255.5" ></text>
</g>
<g >
<title>slot_getsomeattrs_int (154,008,563 samples, 0.56%)</title><rect x="978.6" y="277" width="6.6" height="15.0" fill="rgb(252,219,52)" rx="2" ry="2" />
<text  x="981.57" y="287.5" ></text>
</g>
<g >
<title>LWLockAttemptLock (346,517,602 samples, 1.26%)</title><rect x="1123.6" y="213" width="14.8" height="15.0" fill="rgb(235,138,33)" rx="2" ry="2" />
<text  x="1126.56" y="223.5" ></text>
</g>
<g >
<title>hrtimer_forward (2,750,513 samples, 0.01%)</title><rect x="94.4" y="197" width="0.1" height="15.0" fill="rgb(230,118,28)" rx="2" ry="2" />
<text  x="97.41" y="207.5" ></text>
</g>
<g >
<title>pg_detoast_datum_packed (184,252,402 samples, 0.67%)</title><rect x="970.6" y="277" width="7.9" height="15.0" fill="rgb(238,155,37)" rx="2" ry="2" />
<text  x="973.56" y="287.5" ></text>
</g>
<g >
<title>ExecInterpExpr (72,505,521 samples, 0.26%)</title><rect x="10.0" y="309" width="3.1" height="15.0" fill="rgb(225,96,22)" rx="2" ry="2" />
<text  x="13.00" y="319.5" ></text>
</g>
<g >
<title>ServerLoop (27,558,248,434 samples, 100.00%)</title><rect x="10.0" y="437" width="1180.0" height="15.0" fill="rgb(238,155,37)" rx="2" ry="2" />
<text  x="13.00" y="447.5" >ServerLoop</text>
</g>
<g >
<title>ExecStoreBufferHeapTuple (1,133,136,967 samples, 4.11%)</title><rect x="1012.0" y="261" width="48.5" height="15.0" fill="rgb(230,117,28)" rx="2" ry="2" />
<text  x="1015.02" y="271.5" >Exec..</text>
</g>
<g >
<title>LWLockRelease (90,762,642 samples, 0.33%)</title><rect x="1080.0" y="245" width="3.9" height="15.0" fill="rgb(217,58,13)" rx="2" ry="2" />
<text  x="1082.98" y="255.5" ></text>
</g>
<g >
<title>timerqueue_add (2,750,621 samples, 0.01%)</title><rect x="968.8" y="165" width="0.1" height="15.0" fill="rgb(214,42,10)" rx="2" ry="2" />
<text  x="971.79" y="175.5" ></text>
</g>
<g >
<title>__remove_hrtimer (2,750,766 samples, 0.01%)</title><rect x="968.4" y="165" width="0.2" height="15.0" fill="rgb(218,63,15)" rx="2" ry="2" />
<text  x="971.44" y="175.5" ></text>
</g>
<g >
<title>StartReadBuffer (1,243,636,556 samples, 4.51%)</title><rect x="1117.2" y="229" width="53.3" height="15.0" fill="rgb(222,78,18)" rx="2" ry="2" />
<text  x="1120.20" y="239.5" >Start..</text>
</g>
<g >
<title>UnpinBufferNoOwner (2,750,059 samples, 0.01%)</title><rect x="1087.2" y="245" width="0.1" height="15.0" fill="rgb(253,221,53)" rx="2" ry="2" />
<text  x="1090.16" y="255.5" ></text>
</g>
<g >
<title>IncrBufferRefCount (19,251,758 samples, 0.07%)</title><rect x="1053.2" y="245" width="0.9" height="15.0" fill="rgb(209,22,5)" rx="2" ry="2" />
<text  x="1056.24" y="255.5" ></text>
</g>
<g >
<title>sync_regs (2,750,613 samples, 0.01%)</title><rect x="979.3" y="245" width="0.1" height="15.0" fill="rgb(228,106,25)" rx="2" ry="2" />
<text  x="982.27" y="255.5" ></text>
</g>
<g >
<title>tick_sched_handle (2,750,553 samples, 0.01%)</title><rect x="1087.3" y="149" width="0.1" height="15.0" fill="rgb(219,68,16)" rx="2" ry="2" />
<text  x="1090.28" y="159.5" ></text>
</g>
<g >
<title>sysvec_apic_timer_interrupt (2,750,553 samples, 0.01%)</title><rect x="1087.3" y="229" width="0.1" height="15.0" fill="rgb(220,69,16)" rx="2" ry="2" />
<text  x="1090.28" y="239.5" ></text>
</g>
<g >
<title>sysvec_apic_timer_interrupt (2,750,622 samples, 0.01%)</title><rect x="391.6" y="229" width="0.1" height="15.0" fill="rgb(220,69,16)" rx="2" ry="2" />
<text  x="394.62" y="239.5" ></text>
</g>
<g >
<title>pg_database_encoding_max_length (32,993,831 samples, 0.12%)</title><rect x="969.1" y="277" width="1.5" height="15.0" fill="rgb(243,176,42)" rx="2" ry="2" />
<text  x="972.15" y="287.5" ></text>
</g>
<g >
<title>ExecScan (27,441,735,816 samples, 99.58%)</title><rect x="13.1" y="309" width="1175.0" height="15.0" fill="rgb(237,150,36)" rx="2" ry="2" />
<text  x="16.10" y="319.5" >ExecScan</text>
</g>
<g >
<title>ExecInterpExpr (22,523,107,766 samples, 81.73%)</title><rect x="22.5" y="293" width="964.4" height="15.0" fill="rgb(225,96,22)" rx="2" ry="2" />
<text  x="25.53" y="303.5" >ExecInterpExpr</text>
</g>
<g >
<title>PortalRun (27,558,248,434 samples, 100.00%)</title><rect x="10.0" y="357" width="1180.0" height="15.0" fill="rgb(223,85,20)" rx="2" ry="2" />
<text  x="13.00" y="367.5" >PortalRun</text>
</g>
<g >
<title>slot_getsomeattrs_int (11,001,152 samples, 0.04%)</title><rect x="1187.6" y="293" width="0.5" height="15.0" fill="rgb(252,219,52)" rx="2" ry="2" />
<text  x="1190.64" y="303.5" ></text>
</g>
<g >
<title>update_process_times (2,750,553 samples, 0.01%)</title><rect x="1087.3" y="133" width="0.1" height="15.0" fill="rgb(250,209,50)" rx="2" ry="2" />
<text  x="1090.28" y="143.5" ></text>
</g>
<g >
<title>pg_utf_mblen_private (13,485,039,306 samples, 48.93%)</title><rect x="391.7" y="261" width="577.4" height="15.0" fill="rgb(242,173,41)" rx="2" ry="2" />
<text  x="394.74" y="271.5" >pg_utf_mblen_private</text>
</g>
<g >
<title>PostmasterMain (27,558,248,434 samples, 100.00%)</title><rect x="10.0" y="453" width="1180.0" height="15.0" fill="rgb(212,35,8)" rx="2" ry="2" />
<text  x="13.00" y="463.5" >PostmasterMain</text>
</g>
<g >
<title>standard_ExecutorRun (27,558,248,434 samples, 100.00%)</title><rect x="10.0" y="325" width="1180.0" height="15.0" fill="rgb(247,196,47)" rx="2" ry="2" />
<text  x="13.00" y="335.5" >standard_ExecutorRun</text>
</g>
<g >
<title>scheduler_tick (2,750,679 samples, 0.01%)</title><rect x="1138.3" y="69" width="0.1" height="15.0" fill="rgb(246,190,45)" rx="2" ry="2" />
<text  x="1141.28" y="79.5" ></text>
</g>
<g >
<title>GetPrivateRefCountEntry (2,750,059 samples, 0.01%)</title><rect x="1087.2" y="229" width="0.1" height="15.0" fill="rgb(250,209,50)" rx="2" ry="2" />
<text  x="1090.16" y="239.5" ></text>
</g>
<g >
<title>ktime_get_update_offsets_now (2,750,722 samples, 0.01%)</title><rect x="968.9" y="181" width="0.1" height="15.0" fill="rgb(243,178,42)" rx="2" ry="2" />
<text  x="971.91" y="191.5" ></text>
</g>
<g >
<title>exec_simple_query (27,558,248,434 samples, 100.00%)</title><rect x="10.0" y="373" width="1180.0" height="15.0" fill="rgb(211,29,6)" rx="2" ry="2" />
<text  x="13.00" y="383.5" >exec_simple_query</text>
</g>
<g >
<title>tts_buffer_heap_getsomeattrs (134,757,355 samples, 0.49%)</title><rect x="979.4" y="261" width="5.8" height="15.0" fill="rgb(222,81,19)" rx="2" ry="2" />
<text  x="982.39" y="271.5" ></text>
</g>
<g >
<title>ReleaseBuffer (11,001,888 samples, 0.04%)</title><rect x="1060.8" y="261" width="0.4" height="15.0" fill="rgb(220,71,17)" rx="2" ry="2" />
<text  x="1063.77" y="271.5" ></text>
</g>
<g >
<title>PostgresMain (27,558,248,434 samples, 100.00%)</title><rect x="10.0" y="389" width="1180.0" height="15.0" fill="rgb(227,103,24)" rx="2" ry="2" />
<text  x="13.00" y="399.5" >PostgresMain</text>
</g>
<g >
<title>GetPrivateRefCountEntry (11,001,656 samples, 0.04%)</title><rect x="1053.6" y="229" width="0.5" height="15.0" fill="rgb(250,209,50)" rx="2" ry="2" />
<text  x="1056.59" y="239.5" ></text>
</g>
<g >
<title>__sysvec_apic_timer_interrupt (2,750,679 samples, 0.01%)</title><rect x="1138.3" y="165" width="0.1" height="15.0" fill="rgb(242,173,41)" rx="2" ry="2" />
<text  x="1141.28" y="175.5" ></text>
</g>
<g >
<title>main (27,558,248,434 samples, 100.00%)</title><rect x="10.0" y="469" width="1180.0" height="15.0" fill="rgb(243,179,42)" rx="2" ry="2" />
<text  x="13.00" y="479.5" >main</text>
</g>
<g >
<title>raw_spin_rq_lock_nested (2,750,553 samples, 0.01%)</title><rect x="1087.3" y="117" width="0.1" height="15.0" fill="rgb(206,5,1)" rx="2" ry="2" />
<text  x="1090.28" y="127.5" ></text>
</g>
<g >
<title>asm_sysvec_apic_timer_interrupt (19,256,166 samples, 0.07%)</title><rect x="968.3" y="245" width="0.8" height="15.0" fill="rgb(232,127,30)" rx="2" ry="2" />
<text  x="971.32" y="255.5" ></text>
</g>
<g >
<title>SeqNext (4,126,551,737 samples, 14.97%)</title><rect x="995.5" y="293" width="176.7" height="15.0" fill="rgb(214,41,10)" rx="2" ry="2" />
<text  x="998.53" y="303.5" >SeqNext</text>
</g>
<g >
<title>asm_sysvec_apic_timer_interrupt (2,750,553 samples, 0.01%)</title><rect x="1087.3" y="245" width="0.1" height="15.0" fill="rgb(232,127,30)" rx="2" ry="2" />
<text  x="1090.28" y="255.5" ></text>
</g>
<g >
<title>__hrtimer_run_queues (11,002,407 samples, 0.04%)</title><rect x="968.4" y="181" width="0.5" height="15.0" fill="rgb(237,150,35)" rx="2" ry="2" />
<text  x="971.44" y="191.5" ></text>
</g>
<g >
<title>update_process_times (2,750,568 samples, 0.01%)</title><rect x="968.7" y="133" width="0.1" height="15.0" fill="rgb(250,209,50)" rx="2" ry="2" />
<text  x="971.68" y="143.5" ></text>
</g>
<g >
<title>LWLockAcquire (2,750,317 samples, 0.01%)</title><rect x="1123.4" y="213" width="0.2" height="15.0" fill="rgb(209,20,4)" rx="2" ry="2" />
<text  x="1126.44" y="223.5" ></text>
</g>
<g >
<title>ReleaseBuffer (60,502,295 samples, 0.22%)</title><rect x="1084.6" y="245" width="2.6" height="15.0" fill="rgb(220,71,17)" rx="2" ry="2" />
<text  x="1087.57" y="255.5" ></text>
</g>
<g >
<title>read_stream_next_buffer (1,326,142,319 samples, 4.81%)</title><rect x="1115.3" y="245" width="56.8" height="15.0" fill="rgb(216,50,12)" rx="2" ry="2" />
<text  x="1118.32" y="255.5" >read_s..</text>
</g>
<g >
<title>pg_mbstrlen_with_len (6,217,967,298 samples, 22.56%)</title><rect x="125.5" y="261" width="266.2" height="15.0" fill="rgb(228,106,25)" rx="2" ry="2" />
<text  x="128.50" y="271.5" >pg_mbstrlen_with_len</text>
</g>
<g >
<title>MemoryContextReset (30,255,265 samples, 0.11%)</title><rect x="1188.2" y="309" width="1.3" height="15.0" fill="rgb(210,26,6)" rx="2" ry="2" />
<text  x="1191.23" y="319.5" ></text>
</g>
<g >
<title>__sysvec_apic_timer_interrupt (2,749,907 samples, 0.01%)</title><rect x="968.3" y="229" width="0.1" height="15.0" fill="rgb(242,173,41)" rx="2" ry="2" />
<text  x="971.32" y="239.5" ></text>
</g>
</g>
</svg>
