<?xml version="1.0" standalone="no"?>
<!DOCTYPE svg PUBLIC "-//W3C//DTD SVG 1.1//EN" "http://www.w3.org/Graphics/SVG/1.1/DTD/svg11.dtd">
<svg version="1.1" width="1200" height="582" onload="init(evt)" viewBox="0 0 1200 582" xmlns="http://www.w3.org/2000/svg" xmlns:xlink="http://www.w3.org/1999/xlink">
<!-- Flame graph stack visualization. See https://github.com/brendangregg/FlameGraph for latest version, and http://www.brendangregg.com/flamegraphs.html for examples. -->
<!-- NOTES:  -->
<defs>
	<linearGradient id="background" y1="0" y2="1" x1="0" x2="0" >
		<stop stop-color="#eeeeee" offset="5%" />
		<stop stop-color="#eeeeb0" offset="95%" />
	</linearGradient>
</defs>
<style type="text/css">
	text { font-family:Verdana; font-size:12px; fill:rgb(0,0,0); }
	#search, #ignorecase { opacity:0.1; cursor:pointer; }
	#search:hover, #search.show, #ignorecase:hover, #ignorecase.show { opacity:1; }
	#subtitle { text-anchor:middle; font-color:rgb(160,160,160); }
	#title { text-anchor:middle; font-size:17px}
	#unzoom { cursor:pointer; }
	#frames > *:hover { stroke:black; stroke-width:0.5; cursor:pointer; }
	.hide { display:none; }
	.parent { opacity:0.5; }
</style>
<script type="text/ecmascript">
<![CDATA[
	"use strict";
	var details, searchbtn, unzoombtn, matchedtxt, svg, searching, currentSearchTerm, ignorecase, ignorecaseBtn;
	function init(evt) {
		details = document.getElementById("details").firstChild;
		searchbtn = document.getElementById("search");
		ignorecaseBtn = document.getElementById("ignorecase");
		unzoombtn = document.getElementById("unzoom");
		matchedtxt = document.getElementById("matched");
		svg = document.getElementsByTagName("svg")[0];
		searching = 0;
		currentSearchTerm = null;

		// use GET parameters to restore a flamegraphs state.
		var params = get_params();
		if (params.x && params.y)
			zoom(find_group(document.querySelector('[x="' + params.x + '"][y="' + params.y + '"]')));
                if (params.s) search(params.s);
	}

	// event listeners
	window.addEventListener("click", function(e) {
		var target = find_group(e.target);
		if (target) {
			if (target.nodeName == "a") {
				if (e.ctrlKey === false) return;
				e.preventDefault();
			}
			if (target.classList.contains("parent")) unzoom(true);
			zoom(target);
			if (!document.querySelector('.parent')) {
				// we have basically done a clearzoom so clear the url
				var params = get_params();
				if (params.x) delete params.x;
				if (params.y) delete params.y;
				history.replaceState(null, null, parse_params(params));
				unzoombtn.classList.add("hide");
				return;
			}

			// set parameters for zoom state
			var el = target.querySelector("rect");
			if (el && el.attributes && el.attributes.y && el.attributes._orig_x) {
				var params = get_params()
				params.x = el.attributes._orig_x.value;
				params.y = el.attributes.y.value;
				history.replaceState(null, null, parse_params(params));
			}
		}
		else if (e.target.id == "unzoom") clearzoom();
		else if (e.target.id == "search") search_prompt();
		else if (e.target.id == "ignorecase") toggle_ignorecase();
	}, false)

	// mouse-over for info
	// show
	window.addEventListener("mouseover", function(e) {
		var target = find_group(e.target);
		if (target) details.nodeValue = "Function: " + g_to_text(target);
	}, false)

	// clear
	window.addEventListener("mouseout", function(e) {
		var target = find_group(e.target);
		if (target) details.nodeValue = ' ';
	}, false)

	// ctrl-F for search
	// ctrl-I to toggle case-sensitive search
	window.addEventListener("keydown",function (e) {
		if (e.keyCode === 114 || (e.ctrlKey && e.keyCode === 70)) {
			e.preventDefault();
			search_prompt();
		}
		else if (e.ctrlKey && e.keyCode === 73) {
			e.preventDefault();
			toggle_ignorecase();
		}
	}, false)

	// functions
	function get_params() {
		var params = {};
		var paramsarr = window.location.search.substr(1).split('&');
		for (var i = 0; i < paramsarr.length; ++i) {
			var tmp = paramsarr[i].split("=");
			if (!tmp[0] || !tmp[1]) continue;
			params[tmp[0]]  = decodeURIComponent(tmp[1]);
		}
		return params;
	}
	function parse_params(params) {
		var uri = "?";
		for (var key in params) {
			uri += key + '=' + encodeURIComponent(params[key]) + '&';
		}
		if (uri.slice(-1) == "&")
			uri = uri.substring(0, uri.length - 1);
		if (uri == '?')
			uri = window.location.href.split('?')[0];
		return uri;
	}
	function find_child(node, selector) {
		var children = node.querySelectorAll(selector);
		if (children.length) return children[0];
	}
	function find_group(node) {
		var parent = node.parentElement;
		if (!parent) return;
		if (parent.id == "frames") return node;
		return find_group(parent);
	}
	function orig_save(e, attr, val) {
		if (e.attributes["_orig_" + attr] != undefined) return;
		if (e.attributes[attr] == undefined) return;
		if (val == undefined) val = e.attributes[attr].value;
		e.setAttribute("_orig_" + attr, val);
	}
	function orig_load(e, attr) {
		if (e.attributes["_orig_"+attr] == undefined) return;
		e.attributes[attr].value = e.attributes["_orig_" + attr].value;
		e.removeAttribute("_orig_"+attr);
	}
	function g_to_text(e) {
		var text = find_child(e, "title").firstChild.nodeValue;
		return (text)
	}
	function g_to_func(e) {
		var func = g_to_text(e);
		// if there's any manipulation we want to do to the function
		// name before it's searched, do it here before returning.
		return (func);
	}
	function update_text(e) {
		var r = find_child(e, "rect");
		var t = find_child(e, "text");
		var w = parseFloat(r.attributes.width.value) -3;
		var txt = find_child(e, "title").textContent.replace(/\([^(]*\)$/,"");
		t.attributes.x.value = parseFloat(r.attributes.x.value) + 3;

		// Smaller than this size won't fit anything
		if (w < 2 * 12 * 0.59) {
			t.textContent = "";
			return;
		}

		t.textContent = txt;
		var sl = t.getSubStringLength(0, txt.length);
		// check if only whitespace or if we can fit the entire string into width w
		if (/^ *$/.test(txt) || sl < w)
			return;

		// this isn't perfect, but gives a good starting point
		// and avoids calling getSubStringLength too often
		var start = Math.floor((w/sl) * txt.length);
		for (var x = start; x > 0; x = x-2) {
			if (t.getSubStringLength(0, x + 2) <= w) {
				t.textContent = txt.substring(0, x) + "..";
				return;
			}
		}
		t.textContent = "";
	}

	// zoom
	function zoom_reset(e) {
		if (e.attributes != undefined) {
			orig_load(e, "x");
			orig_load(e, "width");
		}
		if (e.childNodes == undefined) return;
		for (var i = 0, c = e.childNodes; i < c.length; i++) {
			zoom_reset(c[i]);
		}
	}
	function zoom_child(e, x, ratio) {
		if (e.attributes != undefined) {
			if (e.attributes.x != undefined) {
				orig_save(e, "x");
				e.attributes.x.value = (parseFloat(e.attributes.x.value) - x - 10) * ratio + 10;
				if (e.tagName == "text")
					e.attributes.x.value = find_child(e.parentNode, "rect[x]").attributes.x.value + 3;
			}
			if (e.attributes.width != undefined) {
				orig_save(e, "width");
				e.attributes.width.value = parseFloat(e.attributes.width.value) * ratio;
			}
		}

		if (e.childNodes == undefined) return;
		for (var i = 0, c = e.childNodes; i < c.length; i++) {
			zoom_child(c[i], x - 10, ratio);
		}
	}
	function zoom_parent(e) {
		if (e.attributes) {
			if (e.attributes.x != undefined) {
				orig_save(e, "x");
				e.attributes.x.value = 10;
			}
			if (e.attributes.width != undefined) {
				orig_save(e, "width");
				e.attributes.width.value = parseInt(svg.width.baseVal.value) - (10 * 2);
			}
		}
		if (e.childNodes == undefined) return;
		for (var i = 0, c = e.childNodes; i < c.length; i++) {
			zoom_parent(c[i]);
		}
	}
	function zoom(node) {
		var attr = find_child(node, "rect").attributes;
		var width = parseFloat(attr.width.value);
		var xmin = parseFloat(attr.x.value);
		var xmax = parseFloat(xmin + width);
		var ymin = parseFloat(attr.y.value);
		var ratio = (svg.width.baseVal.value - 2 * 10) / width;

		// XXX: Workaround for JavaScript float issues (fix me)
		var fudge = 0.0001;

		unzoombtn.classList.remove("hide");

		var el = document.getElementById("frames").children;
		for (var i = 0; i < el.length; i++) {
			var e = el[i];
			var a = find_child(e, "rect").attributes;
			var ex = parseFloat(a.x.value);
			var ew = parseFloat(a.width.value);
			var upstack;
			// Is it an ancestor
			if (0 == 0) {
				upstack = parseFloat(a.y.value) > ymin;
			} else {
				upstack = parseFloat(a.y.value) < ymin;
			}
			if (upstack) {
				// Direct ancestor
				if (ex <= xmin && (ex+ew+fudge) >= xmax) {
					e.classList.add("parent");
					zoom_parent(e);
					update_text(e);
				}
				// not in current path
				else
					e.classList.add("hide");
			}
			// Children maybe
			else {
				// no common path
				if (ex < xmin || ex + fudge >= xmax) {
					e.classList.add("hide");
				}
				else {
					zoom_child(e, xmin, ratio);
					update_text(e);
				}
			}
		}
		search();
	}
	function unzoom(dont_update_text) {
		unzoombtn.classList.add("hide");
		var el = document.getElementById("frames").children;
		for(var i = 0; i < el.length; i++) {
			el[i].classList.remove("parent");
			el[i].classList.remove("hide");
			zoom_reset(el[i]);
			if(!dont_update_text) update_text(el[i]);
		}
		search();
	}
	function clearzoom() {
		unzoom();

		// remove zoom state
		var params = get_params();
		if (params.x) delete params.x;
		if (params.y) delete params.y;
		history.replaceState(null, null, parse_params(params));
	}

	// search
	function toggle_ignorecase() {
		ignorecase = !ignorecase;
		if (ignorecase) {
			ignorecaseBtn.classList.add("show");
		} else {
			ignorecaseBtn.classList.remove("show");
		}
		reset_search();
		search();
	}
	function reset_search() {
		var el = document.querySelectorAll("#frames rect");
		for (var i = 0; i < el.length; i++) {
			orig_load(el[i], "fill")
		}
		var params = get_params();
		delete params.s;
		history.replaceState(null, null, parse_params(params));
	}
	function search_prompt() {
		if (!searching) {
			var term = prompt("Enter a search term (regexp " +
			    "allowed, eg: ^ext4_)"
			    + (ignorecase ? ", ignoring case" : "")
			    + "\nPress Ctrl-i to toggle case sensitivity", "");
			if (term != null) search(term);
		} else {
			reset_search();
			searching = 0;
			currentSearchTerm = null;
			searchbtn.classList.remove("show");
			searchbtn.firstChild.nodeValue = "Search"
			matchedtxt.classList.add("hide");
			matchedtxt.firstChild.nodeValue = ""
		}
	}
	function search(term) {
		if (term) currentSearchTerm = term;

		var re = new RegExp(currentSearchTerm, ignorecase ? 'i' : '');
		var el = document.getElementById("frames").children;
		var matches = new Object();
		var maxwidth = 0;
		for (var i = 0; i < el.length; i++) {
			var e = el[i];
			var func = g_to_func(e);
			var rect = find_child(e, "rect");
			if (func == null || rect == null)
				continue;

			// Save max width. Only works as we have a root frame
			var w = parseFloat(rect.attributes.width.value);
			if (w > maxwidth)
				maxwidth = w;

			if (func.match(re)) {
				// highlight
				var x = parseFloat(rect.attributes.x.value);
				orig_save(rect, "fill");
				rect.attributes.fill.value = "rgb(230,0,230)";

				// remember matches
				if (matches[x] == undefined) {
					matches[x] = w;
				} else {
					if (w > matches[x]) {
						// overwrite with parent
						matches[x] = w;
					}
				}
				searching = 1;
			}
		}
		if (!searching)
			return;
		var params = get_params();
		params.s = currentSearchTerm;
		history.replaceState(null, null, parse_params(params));

		searchbtn.classList.add("show");
		searchbtn.firstChild.nodeValue = "Reset Search";

		// calculate percent matched, excluding vertical overlap
		var count = 0;
		var lastx = -1;
		var lastw = 0;
		var keys = Array();
		for (k in matches) {
			if (matches.hasOwnProperty(k))
				keys.push(k);
		}
		// sort the matched frames by their x location
		// ascending, then width descending
		keys.sort(function(a, b){
			return a - b;
		});
		// Step through frames saving only the biggest bottom-up frames
		// thanks to the sort order. This relies on the tree property
		// where children are always smaller than their parents.
		var fudge = 0.0001;	// JavaScript floating point
		for (var k in keys) {
			var x = parseFloat(keys[k]);
			var w = matches[keys[k]];
			if (x >= lastx + lastw - fudge) {
				count += w;
				lastx = x;
				lastw = w;
			}
		}
		// display matched percent
		matchedtxt.classList.remove("hide");
		var pct = 100 * count / maxwidth;
		if (pct != 100) pct = pct.toFixed(1)
		matchedtxt.firstChild.nodeValue = "Matched: " + pct + "%";
	}
]]>
</script>
<rect x="0.0" y="0" width="1200.0" height="582.0" fill="url(#background)"  />
<text id="title" x="600.00" y="24" >Flame Graph</text>
<text id="details" x="10.00" y="565" > </text>
<text id="unzoom" x="10.00" y="24" class="hide">Reset Zoom</text>
<text id="search" x="1090.00" y="24" >Search</text>
<text id="ignorecase" x="1174.00" y="24" >ic</text>
<text id="matched" x="1090.00" y="565" > </text>
<g id="frames">
<g >
<title>pg_plan_query (2,749,340 samples, 0.01%)</title><rect x="1189.9" y="357" width="0.1" height="15.0" fill="rgb(232,127,30)" rx="2" ry="2" />
<text  x="1192.88" y="367.5" ></text>
</g>
<g >
<title>PinBuffer (2,750,849 samples, 0.01%)</title><rect x="1126.5" y="245" width="0.1" height="15.0" fill="rgb(219,64,15)" rx="2" ry="2" />
<text  x="1129.49" y="255.5" ></text>
</g>
<g >
<title>native_sched_clock (2,750,084 samples, 0.01%)</title><rect x="985.5" y="53" width="0.1" height="15.0" fill="rgb(218,64,15)" rx="2" ry="2" />
<text  x="988.45" y="63.5" ></text>
</g>
<g >
<title>slot_getsomeattrs_int (173,271,033 samples, 0.63%)</title><rect x="992.9" y="293" width="7.4" height="15.0" fill="rgb(252,219,52)" rx="2" ry="2" />
<text  x="995.87" y="303.5" ></text>
</g>
<g >
<title>update_process_times (2,750,649 samples, 0.01%)</title><rect x="1124.2" y="133" width="0.2" height="15.0" fill="rgb(250,209,50)" rx="2" ry="2" />
<text  x="1127.25" y="143.5" ></text>
</g>
<g >
<title>subquery_planner (2,749,340 samples, 0.01%)</title><rect x="1189.9" y="325" width="0.1" height="15.0" fill="rgb(253,225,53)" rx="2" ry="2" />
<text  x="1192.88" y="335.5" ></text>
</g>
<g >
<title>__sysvec_apic_timer_interrupt (2,750,798 samples, 0.01%)</title><rect x="1171.9" y="181" width="0.1" height="15.0" fill="rgb(242,173,41)" rx="2" ry="2" />
<text  x="1174.90" y="191.5" ></text>
</g>
<g >
<title>__remove_hrtimer (2,750,712 samples, 0.01%)</title><rect x="490.1" y="181" width="0.1" height="15.0" fill="rgb(218,63,15)" rx="2" ry="2" />
<text  x="493.06" y="191.5" ></text>
</g>
<g >
<title>grouping_planner (2,749,340 samples, 0.01%)</title><rect x="1189.9" y="309" width="0.1" height="15.0" fill="rgb(239,159,38)" rx="2" ry="2" />
<text  x="1192.88" y="319.5" ></text>
</g>
<g >
<title>tick_sched_handle (5,501,420 samples, 0.02%)</title><rect x="81.1" y="197" width="0.2" height="15.0" fill="rgb(219,68,16)" rx="2" ry="2" />
<text  x="84.08" y="207.5" ></text>
</g>
<g >
<title>tick_sched_timer (2,750,690 samples, 0.01%)</title><rect x="1000.2" y="197" width="0.1" height="15.0" fill="rgb(254,227,54)" rx="2" ry="2" />
<text  x="1003.18" y="207.5" ></text>
</g>
<g >
<title>tick_sched_handle (8,250,429 samples, 0.03%)</title><rect x="985.3" y="165" width="0.4" height="15.0" fill="rgb(219,68,16)" rx="2" ry="2" />
<text  x="988.34" y="175.5" ></text>
</g>
<g >
<title>update_rq_clock (2,749,605 samples, 0.01%)</title><rect x="985.6" y="117" width="0.1" height="15.0" fill="rgb(231,119,28)" rx="2" ry="2" />
<text  x="988.57" y="127.5" ></text>
</g>
<g >
<title>PostgresMain (27,551,381,248 samples, 100.00%)</title><rect x="10.0" y="405" width="1180.0" height="15.0" fill="rgb(227,103,24)" rx="2" ry="2" />
<text  x="13.00" y="415.5" >PostgresMain</text>
</g>
<g >
<title>__update_load_avg_se (2,750,798 samples, 0.01%)</title><rect x="1171.9" y="37" width="0.1" height="15.0" fill="rgb(254,227,54)" rx="2" ry="2" />
<text  x="1174.90" y="47.5" ></text>
</g>
<g >
<title>ExecStoreBufferHeapTuple (11,001,698 samples, 0.04%)</title><rect x="1014.1" y="293" width="0.5" height="15.0" fill="rgb(230,117,28)" rx="2" ry="2" />
<text  x="1017.08" y="303.5" ></text>
</g>
<g >
<title>__wake_up_common_lock (2,750,263 samples, 0.01%)</title><rect x="985.2" y="85" width="0.1" height="15.0" fill="rgb(238,155,37)" rx="2" ry="2" />
<text  x="988.22" y="95.5" ></text>
</g>
<g >
<title>all (27,551,381,248 samples, 100%)</title><rect x="10.0" y="533" width="1180.0" height="15.0" fill="rgb(213,39,9)" rx="2" ry="2" />
<text  x="13.00" y="543.5" ></text>
</g>
<g >
<title>pg_mbstrlen_with_len (11,001,031 samples, 0.04%)</title><rect x="992.4" y="293" width="0.5" height="15.0" fill="rgb(228,106,25)" rx="2" ry="2" />
<text  x="995.40" y="303.5" ></text>
</g>
<g >
<title>tick_sched_timer (2,750,649 samples, 0.01%)</title><rect x="1124.2" y="165" width="0.2" height="15.0" fill="rgb(254,227,54)" rx="2" ry="2" />
<text  x="1127.25" y="175.5" ></text>
</g>
<g >
<title>hrtimer_interrupt (2,750,712 samples, 0.01%)</title><rect x="490.1" y="213" width="0.1" height="15.0" fill="rgb(228,109,26)" rx="2" ry="2" />
<text  x="493.06" y="223.5" ></text>
</g>
<g >
<title>LWLockAttemptLock (334,281,641 samples, 1.21%)</title><rect x="1130.1" y="229" width="14.4" height="15.0" fill="rgb(235,138,33)" rx="2" ry="2" />
<text  x="1133.14" y="239.5" ></text>
</g>
<g >
<title>trigger_load_balance (2,750,649 samples, 0.01%)</title><rect x="1124.2" y="101" width="0.2" height="15.0" fill="rgb(228,108,26)" rx="2" ry="2" />
<text  x="1127.25" y="111.5" ></text>
</g>
<g >
<title>bpcharlen (66,250,458 samples, 0.24%)</title><rect x="1173.2" y="309" width="2.8" height="15.0" fill="rgb(221,77,18)" rx="2" ry="2" />
<text  x="1176.19" y="319.5" ></text>
</g>
<g >
<title>__wake_up (2,750,263 samples, 0.01%)</title><rect x="985.2" y="101" width="0.1" height="15.0" fill="rgb(254,226,54)" rx="2" ry="2" />
<text  x="988.22" y="111.5" ></text>
</g>
<g >
<title>__sysvec_apic_timer_interrupt (2,750,249 samples, 0.01%)</title><rect x="489.8" y="245" width="0.1" height="15.0" fill="rgb(242,173,41)" rx="2" ry="2" />
<text  x="492.83" y="255.5" ></text>
</g>
<g >
<title>kill_pid_info (2,750,263 samples, 0.01%)</title><rect x="985.2" y="165" width="0.1" height="15.0" fill="rgb(208,17,4)" rx="2" ry="2" />
<text  x="988.22" y="175.5" ></text>
</g>
<g >
<title>_raw_spin_lock_irq (2,750,978 samples, 0.01%)</title><rect x="985.7" y="197" width="0.1" height="15.0" fill="rgb(231,122,29)" rx="2" ry="2" />
<text  x="988.69" y="207.5" ></text>
</g>
<g >
<title>standard_planner (2,749,340 samples, 0.01%)</title><rect x="1189.9" y="341" width="0.1" height="15.0" fill="rgb(207,11,2)" rx="2" ry="2" />
<text  x="1192.88" y="351.5" ></text>
</g>
<g >
<title>__wake_up_common (2,750,263 samples, 0.01%)</title><rect x="985.2" y="69" width="0.1" height="15.0" fill="rgb(248,197,47)" rx="2" ry="2" />
<text  x="988.22" y="79.5" ></text>
</g>
<g >
<title>tts_buffer_heap_getsomeattrs (173,271,033 samples, 0.63%)</title><rect x="992.9" y="277" width="7.4" height="15.0" fill="rgb(222,81,19)" rx="2" ry="2" />
<text  x="995.87" y="287.5" ></text>
</g>
<g >
<title>standard_ExecutorRun (27,548,631,908 samples, 99.99%)</title><rect x="10.0" y="341" width="1179.9" height="15.0" fill="rgb(247,196,47)" rx="2" ry="2" />
<text  x="13.00" y="351.5" >standard_ExecutorRun</text>
</g>
<g >
<title>ExecStoreBufferHeapTuple (1,650,226,774 samples, 5.99%)</title><rect x="1019.7" y="277" width="70.7" height="15.0" fill="rgb(230,117,28)" rx="2" ry="2" />
<text  x="1022.74" y="287.5" >ExecSto..</text>
</g>
<g >
<title>UnpinBufferNoOwner (44,007,361 samples, 0.16%)</title><rect x="1088.5" y="261" width="1.9" height="15.0" fill="rgb(253,221,53)" rx="2" ry="2" />
<text  x="1091.53" y="271.5" ></text>
</g>
<g >
<title>scheduler_tick (2,750,784 samples, 0.01%)</title><rect x="81.1" y="165" width="0.1" height="15.0" fill="rgb(246,190,45)" rx="2" ry="2" />
<text  x="84.08" y="175.5" ></text>
</g>
<g >
<title>hash_search_with_hash_value (49,483,804 samples, 0.18%)</title><rect x="1127.9" y="213" width="2.1" height="15.0" fill="rgb(249,205,49)" rx="2" ry="2" />
<text  x="1130.90" y="223.5" ></text>
</g>
<g >
<title>ExecScanFetch (38,506,407 samples, 0.14%)</title><rect x="1000.3" y="309" width="1.6" height="15.0" fill="rgb(222,80,19)" rx="2" ry="2" />
<text  x="1003.30" y="319.5" ></text>
</g>
<g >
<title>__hrtimer_run_queues (2,750,649 samples, 0.01%)</title><rect x="1124.2" y="181" width="0.2" height="15.0" fill="rgb(237,150,35)" rx="2" ry="2" />
<text  x="1127.25" y="191.5" ></text>
</g>
<g >
<title>bpcharlen (21,121,346,136 samples, 76.66%)</title><rect x="81.3" y="293" width="904.6" height="15.0" fill="rgb(221,77,18)" rx="2" ry="2" />
<text  x="84.32" y="303.5" >bpcharlen</text>
</g>
<g >
<title>heapgettup_pagemode (1,919,084,808 samples, 6.97%)</title><rect x="1090.9" y="277" width="82.2" height="15.0" fill="rgb(242,170,40)" rx="2" ry="2" />
<text  x="1093.88" y="287.5" >heapgettu..</text>
</g>
<g >
<title>amd_pmu_addr_offset (2,750,740 samples, 0.01%)</title><rect x="985.3" y="37" width="0.2" height="15.0" fill="rgb(227,104,25)" rx="2" ry="2" />
<text  x="988.34" y="47.5" ></text>
</g>
<g >
<title>sched_clock (2,749,605 samples, 0.01%)</title><rect x="985.6" y="85" width="0.1" height="15.0" fill="rgb(212,33,7)" rx="2" ry="2" />
<text  x="988.57" y="95.5" ></text>
</g>
<g >
<title>PortalRun (27,548,631,908 samples, 99.99%)</title><rect x="10.0" y="373" width="1179.9" height="15.0" fill="rgb(223,85,20)" rx="2" ry="2" />
<text  x="13.00" y="383.5" >PortalRun</text>
</g>
<g >
<title>tick_sched_timer (8,250,429 samples, 0.03%)</title><rect x="985.3" y="181" width="0.4" height="15.0" fill="rgb(254,227,54)" rx="2" ry="2" />
<text  x="988.34" y="191.5" ></text>
</g>
<g >
<title>GetPrivateRefCountEntry (66,008,766 samples, 0.24%)</title><rect x="1169.1" y="213" width="2.8" height="15.0" fill="rgb(250,209,50)" rx="2" ry="2" />
<text  x="1172.07" y="223.5" ></text>
</g>
<g >
<title>sysvec_apic_timer_interrupt (8,251,863 samples, 0.03%)</title><rect x="81.0" y="277" width="0.3" height="15.0" fill="rgb(220,69,16)" rx="2" ry="2" />
<text  x="83.96" y="287.5" ></text>
</g>
<g >
<title>update_process_times (2,750,798 samples, 0.01%)</title><rect x="1171.9" y="101" width="0.1" height="15.0" fill="rgb(250,209,50)" rx="2" ry="2" />
<text  x="1174.90" y="111.5" ></text>
</g>
<g >
<title>scheduler_tick (8,250,429 samples, 0.03%)</title><rect x="985.3" y="133" width="0.4" height="15.0" fill="rgb(246,190,45)" rx="2" ry="2" />
<text  x="988.34" y="143.5" ></text>
</g>
<g >
<title>equal.part.0 (2,749,340 samples, 0.01%)</title><rect x="1189.9" y="293" width="0.1" height="15.0" fill="rgb(210,26,6)" rx="2" ry="2" />
<text  x="1192.88" y="303.5" ></text>
</g>
<g >
<title>update_process_times (5,501,420 samples, 0.02%)</title><rect x="81.1" y="181" width="0.2" height="15.0" fill="rgb(250,209,50)" rx="2" ry="2" />
<text  x="84.08" y="191.5" ></text>
</g>
<g >
<title>UnpinBufferNoOwner (8,297,531 samples, 0.03%)</title><rect x="1118.5" y="261" width="0.3" height="15.0" fill="rgb(253,221,53)" rx="2" ry="2" />
<text  x="1121.45" y="271.5" ></text>
</g>
<g >
<title>x86_pmu_disable (2,750,740 samples, 0.01%)</title><rect x="985.3" y="85" width="0.2" height="15.0" fill="rgb(239,160,38)" rx="2" ry="2" />
<text  x="988.34" y="95.5" ></text>
</g>
<g >
<title>GetPrivateRefCountEntry (2,750,482 samples, 0.01%)</title><rect x="1118.7" y="245" width="0.1" height="15.0" fill="rgb(250,209,50)" rx="2" ry="2" />
<text  x="1121.69" y="255.5" ></text>
</g>
<g >
<title>tick_sched_handle (2,750,798 samples, 0.01%)</title><rect x="1171.9" y="117" width="0.1" height="15.0" fill="rgb(219,68,16)" rx="2" ry="2" />
<text  x="1174.90" y="127.5" ></text>
</g>
<g >
<title>IncrBufferRefCount (2,750,707 samples, 0.01%)</title><rect x="1090.4" y="277" width="0.1" height="15.0" fill="rgb(209,22,5)" rx="2" ry="2" />
<text  x="1093.41" y="287.5" ></text>
</g>
<g >
<title>read_stream_next_buffer (2,749,691 samples, 0.01%)</title><rect x="1173.1" y="277" width="0.1" height="15.0" fill="rgb(216,50,12)" rx="2" ry="2" />
<text  x="1176.08" y="287.5" ></text>
</g>
<g >
<title>ExecInterpExpr (16,504,259 samples, 0.06%)</title><rect x="10.0" y="325" width="0.7" height="15.0" fill="rgb(225,96,22)" rx="2" ry="2" />
<text  x="13.00" y="335.5" ></text>
</g>
<g >
<title>IncrBufferRefCount (10,982,719 samples, 0.04%)</title><rect x="1086.1" y="261" width="0.4" height="15.0" fill="rgb(209,22,5)" rx="2" ry="2" />
<text  x="1089.06" y="271.5" ></text>
</g>
<g >
<title>LWLockAttemptLock (60,507,481 samples, 0.22%)</title><rect x="1121.7" y="245" width="2.5" height="15.0" fill="rgb(235,138,33)" rx="2" ry="2" />
<text  x="1124.66" y="255.5" ></text>
</g>
<g >
<title>PortalRunSelect (27,548,631,908 samples, 99.99%)</title><rect x="10.0" y="357" width="1179.9" height="15.0" fill="rgb(245,188,45)" rx="2" ry="2" />
<text  x="13.00" y="367.5" >PortalRunSelect</text>
</g>
<g >
<title>ReleaseBuffer (46,758,475 samples, 0.17%)</title><rect x="1086.5" y="261" width="2.0" height="15.0" fill="rgb(220,71,17)" rx="2" ry="2" />
<text  x="1089.53" y="271.5" ></text>
</g>
<g >
<title>__sysvec_apic_timer_interrupt (2,750,690 samples, 0.01%)</title><rect x="1000.2" y="229" width="0.1" height="15.0" fill="rgb(242,173,41)" rx="2" ry="2" />
<text  x="1003.18" y="239.5" ></text>
</g>
<g >
<title>asm_sysvec_apic_timer_interrupt (8,251,863 samples, 0.03%)</title><rect x="81.0" y="293" width="0.3" height="15.0" fill="rgb(232,127,30)" rx="2" ry="2" />
<text  x="83.96" y="303.5" ></text>
</g>
<g >
<title>asm_sysvec_apic_timer_interrupt (8,251,675 samples, 0.03%)</title><rect x="489.8" y="261" width="0.4" height="15.0" fill="rgb(232,127,30)" rx="2" ry="2" />
<text  x="492.83" y="271.5" ></text>
</g>
<g >
<title>LWLockRelease (2,750,402 samples, 0.01%)</title><rect x="1126.4" y="245" width="0.1" height="15.0" fill="rgb(217,58,13)" rx="2" ry="2" />
<text  x="1129.37" y="255.5" ></text>
</g>
<g >
<title>SeqNext (2,750,933 samples, 0.01%)</title><rect x="1189.8" y="325" width="0.1" height="15.0" fill="rgb(214,41,10)" rx="2" ry="2" />
<text  x="1192.76" y="335.5" ></text>
</g>
<g >
<title>tick_sched_timer (2,750,798 samples, 0.01%)</title><rect x="1171.9" y="133" width="0.1" height="15.0" fill="rgb(254,227,54)" rx="2" ry="2" />
<text  x="1174.90" y="143.5" ></text>
</g>
<g >
<title>LockBuffer (13,751,393 samples, 0.05%)</title><rect x="1115.0" y="261" width="0.6" height="15.0" fill="rgb(235,142,34)" rx="2" ry="2" />
<text  x="1118.03" y="271.5" ></text>
</g>
<g >
<title>read_stream_next_buffer (1,137,349,230 samples, 4.13%)</title><rect x="1124.4" y="261" width="48.7" height="15.0" fill="rgb(216,50,12)" rx="2" ry="2" />
<text  x="1127.37" y="271.5" >read..</text>
</g>
<g >
<title>__sysvec_apic_timer_interrupt (2,750,712 samples, 0.01%)</title><rect x="490.1" y="229" width="0.1" height="15.0" fill="rgb(242,173,41)" rx="2" ry="2" />
<text  x="493.06" y="239.5" ></text>
</g>
<g >
<title>hash_bytes (16,504,026 samples, 0.06%)</title><rect x="1172.0" y="245" width="0.7" height="15.0" fill="rgb(227,102,24)" rx="2" ry="2" />
<text  x="1175.02" y="255.5" ></text>
</g>
<g >
<title>asm_sysvec_apic_timer_interrupt (16,497,102 samples, 0.06%)</title><rect x="985.1" y="261" width="0.7" height="15.0" fill="rgb(232,127,30)" rx="2" ry="2" />
<text  x="988.10" y="271.5" ></text>
</g>
<g >
<title>__sysvec_apic_timer_interrupt (13,751,670 samples, 0.05%)</title><rect x="985.2" y="229" width="0.6" height="15.0" fill="rgb(242,173,41)" rx="2" ry="2" />
<text  x="988.22" y="239.5" ></text>
</g>
<g >
<title>postmaster_child_launch (27,551,381,248 samples, 100.00%)</title><rect x="10.0" y="437" width="1180.0" height="15.0" fill="rgb(206,5,1)" rx="2" ry="2" />
<text  x="13.00" y="447.5" >postmaster_child_launch</text>
</g>
<g >
<title>pgstat_count_io_op (8,251,635 samples, 0.03%)</title><rect x="1172.7" y="245" width="0.4" height="15.0" fill="rgb(207,10,2)" rx="2" ry="2" />
<text  x="1175.72" y="255.5" ></text>
</g>
<g >
<title>ExecScan (27,512,875,870 samples, 99.86%)</title><rect x="10.7" y="325" width="1178.4" height="15.0" fill="rgb(237,150,36)" rx="2" ry="2" />
<text  x="13.71" y="335.5" >ExecScan</text>
</g>
<g >
<title>ExecScanFetch (2,750,050 samples, 0.01%)</title><rect x="1189.1" y="325" width="0.1" height="15.0" fill="rgb(222,80,19)" rx="2" ry="2" />
<text  x="1192.06" y="335.5" ></text>
</g>
<g >
<title>update_process_times (8,250,429 samples, 0.03%)</title><rect x="985.3" y="149" width="0.4" height="15.0" fill="rgb(250,209,50)" rx="2" ry="2" />
<text  x="988.34" y="159.5" ></text>
</g>
<g >
<title>__hrtimer_run_queues (2,750,798 samples, 0.01%)</title><rect x="1171.9" y="149" width="0.1" height="15.0" fill="rgb(237,150,35)" rx="2" ry="2" />
<text  x="1174.90" y="159.5" ></text>
</g>
<g >
<title>LWLockRelease (99,013,851 samples, 0.36%)</title><rect x="1110.8" y="261" width="4.2" height="15.0" fill="rgb(217,58,13)" rx="2" ry="2" />
<text  x="1113.79" y="271.5" ></text>
</g>
<g >
<title>tick_sched_handle (2,750,649 samples, 0.01%)</title><rect x="1124.2" y="149" width="0.2" height="15.0" fill="rgb(219,68,16)" rx="2" ry="2" />
<text  x="1127.25" y="159.5" ></text>
</g>
<g >
<title>sysvec_apic_timer_interrupt (5,501,426 samples, 0.02%)</title><rect x="489.9" y="245" width="0.3" height="15.0" fill="rgb(220,69,16)" rx="2" ry="2" />
<text  x="492.95" y="255.5" ></text>
</g>
<g >
<title>MemoryContextReset (99,016,047 samples, 0.36%)</title><rect x="1001.9" y="309" width="4.3" height="15.0" fill="rgb(210,26,6)" rx="2" ry="2" />
<text  x="1004.94" y="319.5" ></text>
</g>
<g >
<title>task_tick_fair (2,750,084 samples, 0.01%)</title><rect x="985.5" y="117" width="0.1" height="15.0" fill="rgb(217,57,13)" rx="2" ry="2" />
<text  x="988.45" y="127.5" ></text>
</g>
<g >
<title>sync_regs (2,750,063 samples, 0.01%)</title><rect x="985.8" y="261" width="0.1" height="15.0" fill="rgb(228,106,25)" rx="2" ry="2" />
<text  x="988.81" y="271.5" ></text>
</g>
<g >
<title>int4lt (66,011,590 samples, 0.24%)</title><rect x="1186.2" y="309" width="2.9" height="15.0" fill="rgb(242,172,41)" rx="2" ry="2" />
<text  x="1189.23" y="319.5" ></text>
</g>
<g >
<title>__sysvec_apic_timer_interrupt (8,251,863 samples, 0.03%)</title><rect x="81.0" y="261" width="0.3" height="15.0" fill="rgb(242,173,41)" rx="2" ry="2" />
<text  x="83.96" y="271.5" ></text>
</g>
<g >
<title>amd_pmu_disable_all (2,750,740 samples, 0.01%)</title><rect x="985.3" y="69" width="0.2" height="15.0" fill="rgb(213,38,9)" rx="2" ry="2" />
<text  x="988.34" y="79.5" ></text>
</g>
<g >
<title>ServerLoop (27,551,381,248 samples, 100.00%)</title><rect x="10.0" y="453" width="1180.0" height="15.0" fill="rgb(238,155,37)" rx="2" ry="2" />
<text  x="13.00" y="463.5" >ServerLoop</text>
</g>
<g >
<title>it_real_fn (2,750,263 samples, 0.01%)</title><rect x="985.2" y="181" width="0.1" height="15.0" fill="rgb(225,96,22)" rx="2" ry="2" />
<text  x="988.22" y="191.5" ></text>
</g>
<g >
<title>pg_plan_queries (2,749,340 samples, 0.01%)</title><rect x="1189.9" y="373" width="0.1" height="15.0" fill="rgb(240,163,39)" rx="2" ry="2" />
<text  x="1192.88" y="383.5" ></text>
</g>
<g >
<title>LWLockRelease (101,751,082 samples, 0.37%)</title><rect x="1144.5" y="229" width="4.3" height="15.0" fill="rgb(217,58,13)" rx="2" ry="2" />
<text  x="1147.45" y="239.5" ></text>
</g>
<g >
<title>PinBuffer (541,813,388 samples, 1.97%)</title><rect x="1148.8" y="229" width="23.2" height="15.0" fill="rgb(219,64,15)" rx="2" ry="2" />
<text  x="1151.81" y="239.5" >P..</text>
</g>
<g >
<title>x86_pmu_disable_all (2,750,740 samples, 0.01%)</title><rect x="985.3" y="53" width="0.2" height="15.0" fill="rgb(254,227,54)" rx="2" ry="2" />
<text  x="988.34" y="63.5" ></text>
</g>
<g >
<title>perf_adjust_freq_unthr_context (2,750,740 samples, 0.01%)</title><rect x="985.3" y="101" width="0.2" height="15.0" fill="rgb(236,146,35)" rx="2" ry="2" />
<text  x="988.34" y="111.5" ></text>
</g>
<g >
<title>LWLockAcquire (2,750,337 samples, 0.01%)</title><rect x="1130.0" y="229" width="0.1" height="15.0" fill="rgb(209,20,4)" rx="2" ry="2" />
<text  x="1133.02" y="239.5" ></text>
</g>
<g >
<title>main (27,551,381,248 samples, 100.00%)</title><rect x="10.0" y="485" width="1180.0" height="15.0" fill="rgb(243,179,42)" rx="2" ry="2" />
<text  x="13.00" y="495.5" >main</text>
</g>
<g >
<title>pg_utf_mblen_private (11,574,918,183 samples, 42.01%)</title><rect x="490.2" y="277" width="495.7" height="15.0" fill="rgb(242,173,41)" rx="2" ry="2" />
<text  x="493.18" y="287.5" >pg_utf_mblen_private</text>
</g>
<g >
<title>heap_prepare_pagescan (129,790,777 samples, 0.47%)</title><rect x="1118.8" y="261" width="5.6" height="15.0" fill="rgb(222,82,19)" rx="2" ry="2" />
<text  x="1121.81" y="271.5" ></text>
</g>
<g >
<title>exec_simple_query (27,551,381,248 samples, 100.00%)</title><rect x="10.0" y="389" width="1180.0" height="15.0" fill="rgb(211,29,6)" rx="2" ry="2" />
<text  x="13.00" y="399.5" >exec_simple_query</text>
</g>
<g >
<title>postgres (27,551,381,248 samples, 100.00%)</title><rect x="10.0" y="517" width="1180.0" height="15.0" fill="rgb(233,131,31)" rx="2" ry="2" />
<text  x="13.00" y="527.5" >postgres</text>
</g>
<g >
<title>hrtimer_interrupt (2,750,690 samples, 0.01%)</title><rect x="1000.2" y="213" width="0.1" height="15.0" fill="rgb(228,109,26)" rx="2" ry="2" />
<text  x="1003.18" y="223.5" ></text>
</g>
<g >
<title>hrtimer_interrupt (2,750,649 samples, 0.01%)</title><rect x="1124.2" y="197" width="0.2" height="15.0" fill="rgb(228,109,26)" rx="2" ry="2" />
<text  x="1127.25" y="207.5" ></text>
</g>
<g >
<title>ResourceOwnerRemember (8,250,116 samples, 0.03%)</title><rect x="1090.5" y="277" width="0.4" height="15.0" fill="rgb(243,178,42)" rx="2" ry="2" />
<text  x="1093.53" y="287.5" ></text>
</g>
<g >
<title>ResourceOwnerEnlarge (2,750,813 samples, 0.01%)</title><rect x="1086.4" y="245" width="0.1" height="15.0" fill="rgb(223,86,20)" rx="2" ry="2" />
<text  x="1089.41" y="255.5" ></text>
</g>
<g >
<title>perf_event_task_tick (2,750,740 samples, 0.01%)</title><rect x="985.3" y="117" width="0.2" height="15.0" fill="rgb(205,3,0)" rx="2" ry="2" />
<text  x="988.34" y="127.5" ></text>
</g>
<g >
<title>PostmasterMain (27,551,381,248 samples, 100.00%)</title><rect x="10.0" y="469" width="1180.0" height="15.0" fill="rgb(212,35,8)" rx="2" ry="2" />
<text  x="13.00" y="479.5" >PostmasterMain</text>
</g>
<g >
<title>send_signal (2,750,263 samples, 0.01%)</title><rect x="985.2" y="133" width="0.1" height="15.0" fill="rgb(226,99,23)" rx="2" ry="2" />
<text  x="988.22" y="143.5" ></text>
</g>
<g >
<title>tick_sched_timer (5,501,420 samples, 0.02%)</title><rect x="81.1" y="213" width="0.2" height="15.0" fill="rgb(254,227,54)" rx="2" ry="2" />
<text  x="84.08" y="223.5" ></text>
</g>
<g >
<title>task_tick_fair (2,750,784 samples, 0.01%)</title><rect x="81.1" y="149" width="0.1" height="15.0" fill="rgb(217,57,13)" rx="2" ry="2" />
<text  x="84.08" y="159.5" ></text>
</g>
<g >
<title>BufTableLookup (49,483,804 samples, 0.18%)</title><rect x="1127.9" y="229" width="2.1" height="15.0" fill="rgb(224,89,21)" rx="2" ry="2" />
<text  x="1130.90" y="239.5" ></text>
</g>
<g >
<title>__libc_start_call_main (27,551,381,248 samples, 100.00%)</title><rect x="10.0" y="501" width="1180.0" height="15.0" fill="rgb(210,26,6)" rx="2" ry="2" />
<text  x="13.00" y="511.5" >__libc_start_call_main</text>
</g>
<g >
<title>__hrtimer_run_queues (8,251,863 samples, 0.03%)</title><rect x="81.0" y="229" width="0.3" height="15.0" fill="rgb(237,150,35)" rx="2" ry="2" />
<text  x="83.96" y="239.5" ></text>
</g>
<g >
<title>__sysvec_apic_timer_interrupt (2,750,649 samples, 0.01%)</title><rect x="1124.2" y="213" width="0.2" height="15.0" fill="rgb(242,173,41)" rx="2" ry="2" />
<text  x="1127.25" y="223.5" ></text>
</g>
<g >
<title>sched_clock (2,750,084 samples, 0.01%)</title><rect x="985.5" y="69" width="0.1" height="15.0" fill="rgb(212,33,7)" rx="2" ry="2" />
<text  x="988.45" y="79.5" ></text>
</g>
<g >
<title>asm_sysvec_apic_timer_interrupt (2,750,798 samples, 0.01%)</title><rect x="1171.9" y="213" width="0.1" height="15.0" fill="rgb(232,127,30)" rx="2" ry="2" />
<text  x="1174.90" y="223.5" ></text>
</g>
<g >
<title>LWLockAcquire (2,750,475 samples, 0.01%)</title><rect x="1121.5" y="245" width="0.2" height="15.0" fill="rgb(209,20,4)" rx="2" ry="2" />
<text  x="1124.54" y="255.5" ></text>
</g>
<g >
<title>__hrtimer_run_queues (2,750,712 samples, 0.01%)</title><rect x="490.1" y="197" width="0.1" height="15.0" fill="rgb(237,150,35)" rx="2" ry="2" />
<text  x="493.06" y="207.5" ></text>
</g>
<g >
<title>heap_getnextslot (238,119,326 samples, 0.86%)</title><rect x="1176.0" y="309" width="10.2" height="15.0" fill="rgb(213,40,9)" rx="2" ry="2" />
<text  x="1179.03" y="319.5" ></text>
</g>
<g >
<title>sysvec_apic_timer_interrupt (2,750,690 samples, 0.01%)</title><rect x="1000.2" y="245" width="0.1" height="15.0" fill="rgb(220,69,16)" rx="2" ry="2" />
<text  x="1003.18" y="255.5" ></text>
</g>
<g >
<title>do_send_sig_info (2,750,263 samples, 0.01%)</title><rect x="985.2" y="149" width="0.1" height="15.0" fill="rgb(206,5,1)" rx="2" ry="2" />
<text  x="988.22" y="159.5" ></text>
</g>
<g >
<title>scheduler_tick (2,750,649 samples, 0.01%)</title><rect x="1124.2" y="117" width="0.2" height="15.0" fill="rgb(246,190,45)" rx="2" ry="2" />
<text  x="1127.25" y="127.5" ></text>
</g>
<g >
<title>asm_sysvec_apic_timer_interrupt (2,750,690 samples, 0.01%)</title><rect x="1000.2" y="261" width="0.1" height="15.0" fill="rgb(232,127,30)" rx="2" ry="2" />
<text  x="1003.18" y="271.5" ></text>
</g>
<g >
<title>sysvec_apic_timer_interrupt (2,750,798 samples, 0.01%)</title><rect x="1171.9" y="197" width="0.1" height="15.0" fill="rgb(220,69,16)" rx="2" ry="2" />
<text  x="1174.90" y="207.5" ></text>
</g>
<g >
<title>hrtimer_interrupt (13,751,670 samples, 0.05%)</title><rect x="985.2" y="213" width="0.6" height="15.0" fill="rgb(228,109,26)" rx="2" ry="2" />
<text  x="988.22" y="223.5" ></text>
</g>
<g >
<title>ExecInterpExpr (22,822,233,820 samples, 82.84%)</title><rect x="22.8" y="309" width="977.5" height="15.0" fill="rgb(225,96,22)" rx="2" ry="2" />
<text  x="25.84" y="319.5" >ExecInterpExpr</text>
</g>
<g >
<title>hrtimer_interrupt (8,251,863 samples, 0.03%)</title><rect x="81.0" y="245" width="0.3" height="15.0" fill="rgb(228,109,26)" rx="2" ry="2" />
<text  x="83.96" y="255.5" ></text>
</g>
<g >
<title>[postgres] (27,551,381,248 samples, 100.00%)</title><rect x="10.0" y="421" width="1180.0" height="15.0" fill="rgb(245,184,44)" rx="2" ry="2" />
<text  x="13.00" y="431.5" >[postgres]</text>
</g>
<g >
<title>heap_getnextslot (3,704,071,115 samples, 13.44%)</title><rect x="1014.6" y="293" width="158.6" height="15.0" fill="rgb(213,40,9)" rx="2" ry="2" />
<text  x="1017.55" y="303.5" >heap_getnextslot</text>
</g>
<g >
<title>ReleaseBuffer (66,009,632 samples, 0.24%)</title><rect x="1115.6" y="261" width="2.9" height="15.0" fill="rgb(220,71,17)" rx="2" ry="2" />
<text  x="1118.62" y="271.5" ></text>
</g>
<g >
<title>asm_sysvec_apic_timer_interrupt (2,750,649 samples, 0.01%)</title><rect x="1124.2" y="245" width="0.2" height="15.0" fill="rgb(232,127,30)" rx="2" ry="2" />
<text  x="1127.25" y="255.5" ></text>
</g>
<g >
<title>__hrtimer_run_queues (11,000,692 samples, 0.04%)</title><rect x="985.2" y="197" width="0.5" height="15.0" fill="rgb(237,150,35)" rx="2" ry="2" />
<text  x="988.22" y="207.5" ></text>
</g>
<g >
<title>BufferGetBlockNumber (46,746,366 samples, 0.17%)</title><rect x="1017.7" y="277" width="2.0" height="15.0" fill="rgb(206,7,1)" rx="2" ry="2" />
<text  x="1020.73" y="287.5" ></text>
</g>
<g >
<title>task_tick_fair (2,750,636 samples, 0.01%)</title><rect x="81.2" y="165" width="0.1" height="15.0" fill="rgb(217,57,13)" rx="2" ry="2" />
<text  x="84.20" y="175.5" ></text>
</g>
<g >
<title>rb_erase (2,750,712 samples, 0.01%)</title><rect x="490.1" y="165" width="0.1" height="15.0" fill="rgb(219,66,15)" rx="2" ry="2" />
<text  x="493.06" y="175.5" ></text>
</g>
<g >
<title>task_tick_fair (2,750,798 samples, 0.01%)</title><rect x="1171.9" y="69" width="0.1" height="15.0" fill="rgb(217,57,13)" rx="2" ry="2" />
<text  x="1174.90" y="79.5" ></text>
</g>
<g >
<title>__send_signal (2,750,263 samples, 0.01%)</title><rect x="985.2" y="117" width="0.1" height="15.0" fill="rgb(249,203,48)" rx="2" ry="2" />
<text  x="988.22" y="127.5" ></text>
</g>
<g >
<title>scheduler_tick (2,750,798 samples, 0.01%)</title><rect x="1171.9" y="85" width="0.1" height="15.0" fill="rgb(246,190,45)" rx="2" ry="2" />
<text  x="1174.90" y="95.5" ></text>
</g>
<g >
<title>StartReadBuffer (1,060,334,504 samples, 3.85%)</title><rect x="1126.6" y="245" width="45.4" height="15.0" fill="rgb(222,78,18)" rx="2" ry="2" />
<text  x="1129.60" y="255.5" >Star..</text>
</g>
<g >
<title>pg_mbstrlen_with_len (8,891,836,011 samples, 32.27%)</title><rect x="109.4" y="277" width="380.8" height="15.0" fill="rgb(228,106,25)" rx="2" ry="2" />
<text  x="112.35" y="287.5" >pg_mbstrlen_with_len</text>
</g>
<g >
<title>native_sched_clock (2,749,605 samples, 0.01%)</title><rect x="985.6" y="69" width="0.1" height="15.0" fill="rgb(218,64,15)" rx="2" ry="2" />
<text  x="988.57" y="79.5" ></text>
</g>
<g >
<title>update_load_avg (2,750,798 samples, 0.01%)</title><rect x="1171.9" y="53" width="0.1" height="15.0" fill="rgb(240,165,39)" rx="2" ry="2" />
<text  x="1174.90" y="63.5" ></text>
</g>
<g >
<title>hrtimer_interrupt (2,750,798 samples, 0.01%)</title><rect x="1171.9" y="165" width="0.1" height="15.0" fill="rgb(228,109,26)" rx="2" ry="2" />
<text  x="1174.90" y="175.5" ></text>
</g>
<g >
<title>update_load_avg (2,750,084 samples, 0.01%)</title><rect x="985.5" y="101" width="0.1" height="15.0" fill="rgb(240,165,39)" rx="2" ry="2" />
<text  x="988.45" y="111.5" ></text>
</g>
<g >
<title>sysvec_apic_timer_interrupt (2,750,649 samples, 0.01%)</title><rect x="1124.2" y="229" width="0.2" height="15.0" fill="rgb(220,69,16)" rx="2" ry="2" />
<text  x="1127.25" y="239.5" ></text>
</g>
<g >
<title>sched_clock_cpu (2,750,084 samples, 0.01%)</title><rect x="985.5" y="85" width="0.1" height="15.0" fill="rgb(229,113,27)" rx="2" ry="2" />
<text  x="988.45" y="95.5" ></text>
</g>
<g >
<title>SeqNext (3,899,442,044 samples, 14.15%)</title><rect x="1006.2" y="309" width="167.0" height="15.0" fill="rgb(214,41,10)" rx="2" ry="2" />
<text  x="1009.19" y="319.5" >SeqNext</text>
</g>
<g >
<title>MemoryContextReset (13,750,796 samples, 0.05%)</title><rect x="1189.2" y="325" width="0.6" height="15.0" fill="rgb(210,26,6)" rx="2" ry="2" />
<text  x="1192.18" y="335.5" ></text>
</g>
<g >
<title>sysvec_apic_timer_interrupt (13,751,670 samples, 0.05%)</title><rect x="985.2" y="245" width="0.6" height="15.0" fill="rgb(220,69,16)" rx="2" ry="2" />
<text  x="988.22" y="255.5" ></text>
</g>
<g >
<title>sched_clock_cpu (2,749,605 samples, 0.01%)</title><rect x="985.6" y="101" width="0.1" height="15.0" fill="rgb(229,113,27)" rx="2" ry="2" />
<text  x="988.57" y="111.5" ></text>
</g>
<g >
<title>pg_database_encoding_max_length (35,749,209 samples, 0.13%)</title><rect x="985.9" y="293" width="1.6" height="15.0" fill="rgb(243,176,42)" rx="2" ry="2" />
<text  x="988.92" y="303.5" ></text>
</g>
<g >
<title>pg_detoast_datum_packed (115,514,202 samples, 0.42%)</title><rect x="987.5" y="293" width="4.9" height="15.0" fill="rgb(238,155,37)" rx="2" ry="2" />
<text  x="990.46" y="303.5" ></text>
</g>
</g>
</svg>
