<?xml version="1.0" standalone="no"?>
<!DOCTYPE svg PUBLIC "-//W3C//DTD SVG 1.1//EN" "http://www.w3.org/Graphics/SVG/1.1/DTD/svg11.dtd">
<svg version="1.1" width="1200" height="534" onload="init(evt)" viewBox="0 0 1200 534" xmlns="http://www.w3.org/2000/svg" xmlns:xlink="http://www.w3.org/1999/xlink">
<!-- Flame graph stack visualization. See https://github.com/brendangregg/FlameGraph for latest version, and http://www.brendangregg.com/flamegraphs.html for examples. -->
<!-- NOTES:  -->
<defs>
	<linearGradient id="background" y1="0" y2="1" x1="0" x2="0" >
		<stop stop-color="#eeeeee" offset="5%" />
		<stop stop-color="#eeeeb0" offset="95%" />
	</linearGradient>
</defs>
<style type="text/css">
	text { font-family:Verdana; font-size:12px; fill:rgb(0,0,0); }
	#search, #ignorecase { opacity:0.1; cursor:pointer; }
	#search:hover, #search.show, #ignorecase:hover, #ignorecase.show { opacity:1; }
	#subtitle { text-anchor:middle; font-color:rgb(160,160,160); }
	#title { text-anchor:middle; font-size:17px}
	#unzoom { cursor:pointer; }
	#frames > *:hover { stroke:black; stroke-width:0.5; cursor:pointer; }
	.hide { display:none; }
	.parent { opacity:0.5; }
</style>
<script type="text/ecmascript">
<![CDATA[
	"use strict";
	var details, searchbtn, unzoombtn, matchedtxt, svg, searching, currentSearchTerm, ignorecase, ignorecaseBtn;
	function init(evt) {
		details = document.getElementById("details").firstChild;
		searchbtn = document.getElementById("search");
		ignorecaseBtn = document.getElementById("ignorecase");
		unzoombtn = document.getElementById("unzoom");
		matchedtxt = document.getElementById("matched");
		svg = document.getElementsByTagName("svg")[0];
		searching = 0;
		currentSearchTerm = null;

		// use GET parameters to restore a flamegraphs state.
		var params = get_params();
		if (params.x && params.y)
			zoom(find_group(document.querySelector('[x="' + params.x + '"][y="' + params.y + '"]')));
                if (params.s) search(params.s);
	}

	// event listeners
	window.addEventListener("click", function(e) {
		var target = find_group(e.target);
		if (target) {
			if (target.nodeName == "a") {
				if (e.ctrlKey === false) return;
				e.preventDefault();
			}
			if (target.classList.contains("parent")) unzoom(true);
			zoom(target);
			if (!document.querySelector('.parent')) {
				// we have basically done a clearzoom so clear the url
				var params = get_params();
				if (params.x) delete params.x;
				if (params.y) delete params.y;
				history.replaceState(null, null, parse_params(params));
				unzoombtn.classList.add("hide");
				return;
			}

			// set parameters for zoom state
			var el = target.querySelector("rect");
			if (el && el.attributes && el.attributes.y && el.attributes._orig_x) {
				var params = get_params()
				params.x = el.attributes._orig_x.value;
				params.y = el.attributes.y.value;
				history.replaceState(null, null, parse_params(params));
			}
		}
		else if (e.target.id == "unzoom") clearzoom();
		else if (e.target.id == "search") search_prompt();
		else if (e.target.id == "ignorecase") toggle_ignorecase();
	}, false)

	// mouse-over for info
	// show
	window.addEventListener("mouseover", function(e) {
		var target = find_group(e.target);
		if (target) details.nodeValue = "Function: " + g_to_text(target);
	}, false)

	// clear
	window.addEventListener("mouseout", function(e) {
		var target = find_group(e.target);
		if (target) details.nodeValue = ' ';
	}, false)

	// ctrl-F for search
	// ctrl-I to toggle case-sensitive search
	window.addEventListener("keydown",function (e) {
		if (e.keyCode === 114 || (e.ctrlKey && e.keyCode === 70)) {
			e.preventDefault();
			search_prompt();
		}
		else if (e.ctrlKey && e.keyCode === 73) {
			e.preventDefault();
			toggle_ignorecase();
		}
	}, false)

	// functions
	function get_params() {
		var params = {};
		var paramsarr = window.location.search.substr(1).split('&');
		for (var i = 0; i < paramsarr.length; ++i) {
			var tmp = paramsarr[i].split("=");
			if (!tmp[0] || !tmp[1]) continue;
			params[tmp[0]]  = decodeURIComponent(tmp[1]);
		}
		return params;
	}
	function parse_params(params) {
		var uri = "?";
		for (var key in params) {
			uri += key + '=' + encodeURIComponent(params[key]) + '&';
		}
		if (uri.slice(-1) == "&")
			uri = uri.substring(0, uri.length - 1);
		if (uri == '?')
			uri = window.location.href.split('?')[0];
		return uri;
	}
	function find_child(node, selector) {
		var children = node.querySelectorAll(selector);
		if (children.length) return children[0];
	}
	function find_group(node) {
		var parent = node.parentElement;
		if (!parent) return;
		if (parent.id == "frames") return node;
		return find_group(parent);
	}
	function orig_save(e, attr, val) {
		if (e.attributes["_orig_" + attr] != undefined) return;
		if (e.attributes[attr] == undefined) return;
		if (val == undefined) val = e.attributes[attr].value;
		e.setAttribute("_orig_" + attr, val);
	}
	function orig_load(e, attr) {
		if (e.attributes["_orig_"+attr] == undefined) return;
		e.attributes[attr].value = e.attributes["_orig_" + attr].value;
		e.removeAttribute("_orig_"+attr);
	}
	function g_to_text(e) {
		var text = find_child(e, "title").firstChild.nodeValue;
		return (text)
	}
	function g_to_func(e) {
		var func = g_to_text(e);
		// if there's any manipulation we want to do to the function
		// name before it's searched, do it here before returning.
		return (func);
	}
	function update_text(e) {
		var r = find_child(e, "rect");
		var t = find_child(e, "text");
		var w = parseFloat(r.attributes.width.value) -3;
		var txt = find_child(e, "title").textContent.replace(/\([^(]*\)$/,"");
		t.attributes.x.value = parseFloat(r.attributes.x.value) + 3;

		// Smaller than this size won't fit anything
		if (w < 2 * 12 * 0.59) {
			t.textContent = "";
			return;
		}

		t.textContent = txt;
		var sl = t.getSubStringLength(0, txt.length);
		// check if only whitespace or if we can fit the entire string into width w
		if (/^ *$/.test(txt) || sl < w)
			return;

		// this isn't perfect, but gives a good starting point
		// and avoids calling getSubStringLength too often
		var start = Math.floor((w/sl) * txt.length);
		for (var x = start; x > 0; x = x-2) {
			if (t.getSubStringLength(0, x + 2) <= w) {
				t.textContent = txt.substring(0, x) + "..";
				return;
			}
		}
		t.textContent = "";
	}

	// zoom
	function zoom_reset(e) {
		if (e.attributes != undefined) {
			orig_load(e, "x");
			orig_load(e, "width");
		}
		if (e.childNodes == undefined) return;
		for (var i = 0, c = e.childNodes; i < c.length; i++) {
			zoom_reset(c[i]);
		}
	}
	function zoom_child(e, x, ratio) {
		if (e.attributes != undefined) {
			if (e.attributes.x != undefined) {
				orig_save(e, "x");
				e.attributes.x.value = (parseFloat(e.attributes.x.value) - x - 10) * ratio + 10;
				if (e.tagName == "text")
					e.attributes.x.value = find_child(e.parentNode, "rect[x]").attributes.x.value + 3;
			}
			if (e.attributes.width != undefined) {
				orig_save(e, "width");
				e.attributes.width.value = parseFloat(e.attributes.width.value) * ratio;
			}
		}

		if (e.childNodes == undefined) return;
		for (var i = 0, c = e.childNodes; i < c.length; i++) {
			zoom_child(c[i], x - 10, ratio);
		}
	}
	function zoom_parent(e) {
		if (e.attributes) {
			if (e.attributes.x != undefined) {
				orig_save(e, "x");
				e.attributes.x.value = 10;
			}
			if (e.attributes.width != undefined) {
				orig_save(e, "width");
				e.attributes.width.value = parseInt(svg.width.baseVal.value) - (10 * 2);
			}
		}
		if (e.childNodes == undefined) return;
		for (var i = 0, c = e.childNodes; i < c.length; i++) {
			zoom_parent(c[i]);
		}
	}
	function zoom(node) {
		var attr = find_child(node, "rect").attributes;
		var width = parseFloat(attr.width.value);
		var xmin = parseFloat(attr.x.value);
		var xmax = parseFloat(xmin + width);
		var ymin = parseFloat(attr.y.value);
		var ratio = (svg.width.baseVal.value - 2 * 10) / width;

		// XXX: Workaround for JavaScript float issues (fix me)
		var fudge = 0.0001;

		unzoombtn.classList.remove("hide");

		var el = document.getElementById("frames").children;
		for (var i = 0; i < el.length; i++) {
			var e = el[i];
			var a = find_child(e, "rect").attributes;
			var ex = parseFloat(a.x.value);
			var ew = parseFloat(a.width.value);
			var upstack;
			// Is it an ancestor
			if (0 == 0) {
				upstack = parseFloat(a.y.value) > ymin;
			} else {
				upstack = parseFloat(a.y.value) < ymin;
			}
			if (upstack) {
				// Direct ancestor
				if (ex <= xmin && (ex+ew+fudge) >= xmax) {
					e.classList.add("parent");
					zoom_parent(e);
					update_text(e);
				}
				// not in current path
				else
					e.classList.add("hide");
			}
			// Children maybe
			else {
				// no common path
				if (ex < xmin || ex + fudge >= xmax) {
					e.classList.add("hide");
				}
				else {
					zoom_child(e, xmin, ratio);
					update_text(e);
				}
			}
		}
		search();
	}
	function unzoom(dont_update_text) {
		unzoombtn.classList.add("hide");
		var el = document.getElementById("frames").children;
		for(var i = 0; i < el.length; i++) {
			el[i].classList.remove("parent");
			el[i].classList.remove("hide");
			zoom_reset(el[i]);
			if(!dont_update_text) update_text(el[i]);
		}
		search();
	}
	function clearzoom() {
		unzoom();

		// remove zoom state
		var params = get_params();
		if (params.x) delete params.x;
		if (params.y) delete params.y;
		history.replaceState(null, null, parse_params(params));
	}

	// search
	function toggle_ignorecase() {
		ignorecase = !ignorecase;
		if (ignorecase) {
			ignorecaseBtn.classList.add("show");
		} else {
			ignorecaseBtn.classList.remove("show");
		}
		reset_search();
		search();
	}
	function reset_search() {
		var el = document.querySelectorAll("#frames rect");
		for (var i = 0; i < el.length; i++) {
			orig_load(el[i], "fill")
		}
		var params = get_params();
		delete params.s;
		history.replaceState(null, null, parse_params(params));
	}
	function search_prompt() {
		if (!searching) {
			var term = prompt("Enter a search term (regexp " +
			    "allowed, eg: ^ext4_)"
			    + (ignorecase ? ", ignoring case" : "")
			    + "\nPress Ctrl-i to toggle case sensitivity", "");
			if (term != null) search(term);
		} else {
			reset_search();
			searching = 0;
			currentSearchTerm = null;
			searchbtn.classList.remove("show");
			searchbtn.firstChild.nodeValue = "Search"
			matchedtxt.classList.add("hide");
			matchedtxt.firstChild.nodeValue = ""
		}
	}
	function search(term) {
		if (term) currentSearchTerm = term;

		var re = new RegExp(currentSearchTerm, ignorecase ? 'i' : '');
		var el = document.getElementById("frames").children;
		var matches = new Object();
		var maxwidth = 0;
		for (var i = 0; i < el.length; i++) {
			var e = el[i];
			var func = g_to_func(e);
			var rect = find_child(e, "rect");
			if (func == null || rect == null)
				continue;

			// Save max width. Only works as we have a root frame
			var w = parseFloat(rect.attributes.width.value);
			if (w > maxwidth)
				maxwidth = w;

			if (func.match(re)) {
				// highlight
				var x = parseFloat(rect.attributes.x.value);
				orig_save(rect, "fill");
				rect.attributes.fill.value = "rgb(230,0,230)";

				// remember matches
				if (matches[x] == undefined) {
					matches[x] = w;
				} else {
					if (w > matches[x]) {
						// overwrite with parent
						matches[x] = w;
					}
				}
				searching = 1;
			}
		}
		if (!searching)
			return;
		var params = get_params();
		params.s = currentSearchTerm;
		history.replaceState(null, null, parse_params(params));

		searchbtn.classList.add("show");
		searchbtn.firstChild.nodeValue = "Reset Search";

		// calculate percent matched, excluding vertical overlap
		var count = 0;
		var lastx = -1;
		var lastw = 0;
		var keys = Array();
		for (k in matches) {
			if (matches.hasOwnProperty(k))
				keys.push(k);
		}
		// sort the matched frames by their x location
		// ascending, then width descending
		keys.sort(function(a, b){
			return a - b;
		});
		// Step through frames saving only the biggest bottom-up frames
		// thanks to the sort order. This relies on the tree property
		// where children are always smaller than their parents.
		var fudge = 0.0001;	// JavaScript floating point
		for (var k in keys) {
			var x = parseFloat(keys[k]);
			var w = matches[keys[k]];
			if (x >= lastx + lastw - fudge) {
				count += w;
				lastx = x;
				lastw = w;
			}
		}
		// display matched percent
		matchedtxt.classList.remove("hide");
		var pct = 100 * count / maxwidth;
		if (pct != 100) pct = pct.toFixed(1)
		matchedtxt.firstChild.nodeValue = "Matched: " + pct + "%";
	}
]]>
</script>
<rect x="0.0" y="0" width="1200.0" height="534.0" fill="url(#background)"  />
<text id="title" x="600.00" y="24" >Flame Graph</text>
<text id="details" x="10.00" y="517" > </text>
<text id="unzoom" x="10.00" y="24" class="hide">Reset Zoom</text>
<text id="search" x="1090.00" y="24" >Search</text>
<text id="ignorecase" x="1174.00" y="24" >ic</text>
<text id="matched" x="1090.00" y="517" > </text>
<g id="frames">
<g >
<title>LWLockAttemptLock (41,256,400 samples, 0.15%)</title><rect x="1148.7" y="181" width="1.7" height="15.0" fill="rgb(235,138,33)" rx="2" ry="2" />
<text  x="1151.65" y="191.5" ></text>
</g>
<g >
<title>SeqNext (5,501,371 samples, 0.02%)</title><rect x="1189.6" y="277" width="0.3" height="15.0" fill="rgb(214,41,10)" rx="2" ry="2" />
<text  x="1192.65" y="287.5" ></text>
</g>
<g >
<title>pg_detoast_datum_packed (239,285,364 samples, 0.87%)</title><rect x="979.8" y="245" width="10.3" height="15.0" fill="rgb(238,155,37)" rx="2" ry="2" />
<text  x="982.84" y="255.5" ></text>
</g>
<g >
<title>PinBuffer (8,250,995 samples, 0.03%)</title><rect x="1130.7" y="197" width="0.4" height="15.0" fill="rgb(219,64,15)" rx="2" ry="2" />
<text  x="1133.71" y="207.5" ></text>
</g>
<g >
<title>tick_sched_timer (11,003,254 samples, 0.04%)</title><rect x="419.9" y="133" width="0.5" height="15.0" fill="rgb(254,227,54)" rx="2" ry="2" />
<text  x="422.93" y="143.5" ></text>
</g>
<g >
<title>task_tick_fair (8,252,429 samples, 0.03%)</title><rect x="420.0" y="69" width="0.4" height="15.0" fill="rgb(217,57,13)" rx="2" ry="2" />
<text  x="423.05" y="79.5" ></text>
</g>
<g >
<title>PostgresMain (27,495,857,097 samples, 100.00%)</title><rect x="10.0" y="357" width="1180.0" height="15.0" fill="rgb(227,103,24)" rx="2" ry="2" />
<text  x="13.00" y="367.5" >PostgresMain</text>
</g>
<g >
<title>GetPrivateRefCountEntry (8,250,924 samples, 0.03%)</title><rect x="1098.6" y="197" width="0.4" height="15.0" fill="rgb(250,209,50)" rx="2" ry="2" />
<text  x="1101.60" y="207.5" ></text>
</g>
<g >
<title>LWLockAcquire (13,752,889 samples, 0.05%)</title><rect x="1127.5" y="197" width="0.6" height="15.0" fill="rgb(209,20,4)" rx="2" ry="2" />
<text  x="1130.52" y="207.5" ></text>
</g>
<g >
<title>SeqNext (3,581,558,583 samples, 13.03%)</title><rect x="1015.0" y="261" width="153.7" height="15.0" fill="rgb(214,41,10)" rx="2" ry="2" />
<text  x="1018.01" y="271.5" >SeqNext</text>
</g>
<g >
<title>x64_sys_call (2,750,432 samples, 0.01%)</title><rect x="1189.9" y="261" width="0.1" height="15.0" fill="rgb(247,194,46)" rx="2" ry="2" />
<text  x="1192.88" y="271.5" ></text>
</g>
<g >
<title>GetPrivateRefCountEntry (5,500,832 samples, 0.02%)</title><rect x="1073.0" y="197" width="0.2" height="15.0" fill="rgb(250,209,50)" rx="2" ry="2" />
<text  x="1075.99" y="207.5" ></text>
</g>
<g >
<title>LWLockRelease (82,511,481 samples, 0.30%)</title><rect x="1150.4" y="181" width="3.6" height="15.0" fill="rgb(217,58,13)" rx="2" ry="2" />
<text  x="1153.42" y="191.5" ></text>
</g>
<g >
<title>int4lt (154,025,262 samples, 0.56%)</title><rect x="1181.5" y="261" width="6.6" height="15.0" fill="rgb(242,172,41)" rx="2" ry="2" />
<text  x="1184.50" y="271.5" ></text>
</g>
<g >
<title>MemoryContextReset (5,500,712 samples, 0.02%)</title><rect x="1189.4" y="277" width="0.2" height="15.0" fill="rgb(210,26,6)" rx="2" ry="2" />
<text  x="1192.41" y="287.5" ></text>
</g>
<g >
<title>internal_flush_buffer (2,750,432 samples, 0.01%)</title><rect x="1189.9" y="325" width="0.1" height="15.0" fill="rgb(251,214,51)" rx="2" ry="2" />
<text  x="1192.88" y="335.5" ></text>
</g>
<g >
<title>__send (2,750,432 samples, 0.01%)</title><rect x="1189.9" y="309" width="0.1" height="15.0" fill="rgb(234,134,32)" rx="2" ry="2" />
<text  x="1192.88" y="319.5" ></text>
</g>
<g >
<title>ReleaseBuffer (24,754,990 samples, 0.09%)</title><rect x="1096.5" y="213" width="1.0" height="15.0" fill="rgb(220,71,17)" rx="2" ry="2" />
<text  x="1099.48" y="223.5" ></text>
</g>
<g >
<title>scheduler_tick (2,750,885 samples, 0.01%)</title><rect x="977.7" y="85" width="0.1" height="15.0" fill="rgb(246,190,45)" rx="2" ry="2" />
<text  x="980.72" y="95.5" ></text>
</g>
<g >
<title>irqentry_exit (2,750,975 samples, 0.01%)</title><rect x="977.8" y="181" width="0.2" height="15.0" fill="rgb(219,66,15)" rx="2" ry="2" />
<text  x="980.83" y="191.5" ></text>
</g>
<g >
<title>heap_scan_stream_read_next_serial (2,750,841 samples, 0.01%)</title><rect x="1128.6" y="213" width="0.1" height="15.0" fill="rgb(205,4,0)" rx="2" ry="2" />
<text  x="1131.58" y="223.5" ></text>
</g>
<g >
<title>slot_getsomeattrs_int (437,273,102 samples, 1.59%)</title><rect x="990.1" y="245" width="18.8" height="15.0" fill="rgb(252,219,52)" rx="2" ry="2" />
<text  x="993.11" y="255.5" ></text>
</g>
<g >
<title>GetPrivateRefCountEntry (8,252,855 samples, 0.03%)</title><rect x="1071.9" y="197" width="0.4" height="15.0" fill="rgb(250,209,50)" rx="2" ry="2" />
<text  x="1074.93" y="207.5" ></text>
</g>
<g >
<title>UnpinBufferNoOwner (33,004,075 samples, 0.12%)</title><rect x="1097.5" y="213" width="1.5" height="15.0" fill="rgb(253,221,53)" rx="2" ry="2" />
<text  x="1100.54" y="223.5" ></text>
</g>
<g >
<title>hrtimer_active (2,750,797 samples, 0.01%)</title><rect x="420.0" y="53" width="0.2" height="15.0" fill="rgb(212,34,8)" rx="2" ry="2" />
<text  x="423.05" y="63.5" ></text>
</g>
<g >
<title>__sys_sendto (2,750,432 samples, 0.01%)</title><rect x="1189.9" y="229" width="0.1" height="15.0" fill="rgb(236,146,34)" rx="2" ry="2" />
<text  x="1192.88" y="239.5" ></text>
</g>
<g >
<title>perf_event_task_tick (2,750,885 samples, 0.01%)</title><rect x="977.7" y="69" width="0.1" height="15.0" fill="rgb(205,3,0)" rx="2" ry="2" />
<text  x="980.72" y="79.5" ></text>
</g>
<g >
<title>UnpinBufferNoOwner (22,003,573 samples, 0.08%)</title><rect x="1072.3" y="213" width="0.9" height="15.0" fill="rgb(253,221,53)" rx="2" ry="2" />
<text  x="1075.28" y="223.5" ></text>
</g>
<g >
<title>tts_buffer_heap_getsomeattrs (294,291,013 samples, 1.07%)</title><rect x="996.2" y="229" width="12.7" height="15.0" fill="rgb(222,81,19)" rx="2" ry="2" />
<text  x="999.25" y="239.5" ></text>
</g>
<g >
<title>sysvec_apic_timer_interrupt (11,050,289 samples, 0.04%)</title><rect x="419.9" y="197" width="0.5" height="15.0" fill="rgb(220,69,16)" rx="2" ry="2" />
<text  x="422.93" y="207.5" ></text>
</g>
<g >
<title>standard_ExecutorRun (27,493,106,665 samples, 99.99%)</title><rect x="10.0" y="293" width="1179.9" height="15.0" fill="rgb(247,196,47)" rx="2" ry="2" />
<text  x="13.00" y="303.5" >standard_ExecutorRun</text>
</g>
<g >
<title>tick_program_event (2,750,939 samples, 0.01%)</title><rect x="1148.4" y="85" width="0.1" height="15.0" fill="rgb(241,166,39)" rx="2" ry="2" />
<text  x="1151.42" y="95.5" ></text>
</g>
<g >
<title>__irqentry_text_end (2,750,881 samples, 0.01%)</title><rect x="419.7" y="213" width="0.1" height="15.0" fill="rgb(248,199,47)" rx="2" ry="2" />
<text  x="422.69" y="223.5" ></text>
</g>
<g >
<title>ExecStoreBufferHeapTuple (996,136,680 samples, 3.62%)</title><rect x="1030.5" y="229" width="42.7" height="15.0" fill="rgb(230,117,28)" rx="2" ry="2" />
<text  x="1033.48" y="239.5" >Exec..</text>
</g>
<g >
<title>apparmor_socket_sendmsg (2,750,432 samples, 0.01%)</title><rect x="1189.9" y="197" width="0.1" height="15.0" fill="rgb(235,138,33)" rx="2" ry="2" />
<text  x="1192.88" y="207.5" ></text>
</g>
<g >
<title>heap_prepare_pagescan (690,314,212 samples, 2.51%)</title><rect x="1099.0" y="213" width="29.6" height="15.0" fill="rgb(222,82,19)" rx="2" ry="2" />
<text  x="1101.96" y="223.5" >he..</text>
</g>
<g >
<title>tick_sched_handle (11,003,254 samples, 0.04%)</title><rect x="419.9" y="117" width="0.5" height="15.0" fill="rgb(219,68,16)" rx="2" ry="2" />
<text  x="422.93" y="127.5" ></text>
</g>
<g >
<title>MemoryContextReset (66,008,084 samples, 0.24%)</title><rect x="1012.2" y="261" width="2.8" height="15.0" fill="rgb(210,26,6)" rx="2" ry="2" />
<text  x="1015.18" y="271.5" ></text>
</g>
<g >
<title>update_vsyscall (2,750,660 samples, 0.01%)</title><rect x="977.5" y="53" width="0.1" height="15.0" fill="rgb(254,229,54)" rx="2" ry="2" />
<text  x="980.48" y="63.5" ></text>
</g>
<g >
<title>update_process_times (11,003,254 samples, 0.04%)</title><rect x="419.9" y="101" width="0.5" height="15.0" fill="rgb(250,209,50)" rx="2" ry="2" />
<text  x="422.93" y="111.5" ></text>
</g>
<g >
<title>hrtimer_interrupt (11,003,254 samples, 0.04%)</title><rect x="419.9" y="165" width="0.5" height="15.0" fill="rgb(228,109,26)" rx="2" ry="2" />
<text  x="422.93" y="175.5" ></text>
</g>
<g >
<title>ExecStoreBufferHeapTuple (30,254,500 samples, 0.11%)</title><rect x="1022.6" y="245" width="1.3" height="15.0" fill="rgb(230,117,28)" rx="2" ry="2" />
<text  x="1025.57" y="255.5" ></text>
</g>
<g >
<title>heap_scan_stream_read_next_serial (5,500,310 samples, 0.02%)</title><rect x="1167.5" y="197" width="0.3" height="15.0" fill="rgb(205,4,0)" rx="2" ry="2" />
<text  x="1170.54" y="207.5" ></text>
</g>
<g >
<title>bpcharlen (20,725,317,422 samples, 75.38%)</title><rect x="88.6" y="245" width="889.5" height="15.0" fill="rgb(221,77,18)" rx="2" ry="2" />
<text  x="91.63" y="255.5" >bpcharlen</text>
</g>
<g >
<title>PortalRunSelect (27,493,106,665 samples, 99.99%)</title><rect x="10.0" y="309" width="1179.9" height="15.0" fill="rgb(245,188,45)" rx="2" ry="2" />
<text  x="13.00" y="319.5" >PortalRunSelect</text>
</g>
<g >
<title>heap_getnextslot (3,375,275,830 samples, 12.28%)</title><rect x="1023.9" y="245" width="144.8" height="15.0" fill="rgb(213,40,9)" rx="2" ry="2" />
<text  x="1026.87" y="255.5" >heap_getnextslot</text>
</g>
<g >
<title>__sock_sendmsg (2,750,432 samples, 0.01%)</title><rect x="1189.9" y="213" width="0.1" height="15.0" fill="rgb(217,57,13)" rx="2" ry="2" />
<text  x="1192.88" y="223.5" ></text>
</g>
<g >
<title>clockevents_program_event (2,750,939 samples, 0.01%)</title><rect x="1148.4" y="69" width="0.1" height="15.0" fill="rgb(244,182,43)" rx="2" ry="2" />
<text  x="1151.42" y="79.5" ></text>
</g>
<g >
<title>main (27,495,857,097 samples, 100.00%)</title><rect x="10.0" y="437" width="1180.0" height="15.0" fill="rgb(243,179,42)" rx="2" ry="2" />
<text  x="13.00" y="447.5" >main</text>
</g>
<g >
<title>LWLockRelease (5,501,168 samples, 0.02%)</title><rect x="1095.8" y="213" width="0.2" height="15.0" fill="rgb(217,58,13)" rx="2" ry="2" />
<text  x="1098.77" y="223.5" ></text>
</g>
<g >
<title>all (27,495,857,097 samples, 100%)</title><rect x="10.0" y="485" width="1180.0" height="15.0" fill="rgb(213,39,9)" rx="2" ry="2" />
<text  x="13.00" y="495.5" ></text>
</g>
<g >
<title>tick_sched_handle (5,501,811 samples, 0.02%)</title><rect x="977.6" y="117" width="0.2" height="15.0" fill="rgb(219,68,16)" rx="2" ry="2" />
<text  x="980.60" y="127.5" ></text>
</g>
<g >
<title>BufTableLookup (2,750,308 samples, 0.01%)</title><rect x="1129.2" y="197" width="0.1" height="15.0" fill="rgb(224,89,21)" rx="2" ry="2" />
<text  x="1132.17" y="207.5" ></text>
</g>
<g >
<title>tick_do_update_jiffies64 (2,750,660 samples, 0.01%)</title><rect x="977.5" y="101" width="0.1" height="15.0" fill="rgb(208,14,3)" rx="2" ry="2" />
<text  x="980.48" y="111.5" ></text>
</g>
<g >
<title>tick_sched_timer (8,252,471 samples, 0.03%)</title><rect x="977.5" y="133" width="0.3" height="15.0" fill="rgb(254,227,54)" rx="2" ry="2" />
<text  x="980.48" y="143.5" ></text>
</g>
<g >
<title>__sysvec_apic_timer_interrupt (11,002,979 samples, 0.04%)</title><rect x="977.4" y="181" width="0.4" height="15.0" fill="rgb(242,173,41)" rx="2" ry="2" />
<text  x="980.36" y="191.5" ></text>
</g>
<g >
<title>entry_SYSCALL_64_after_hwframe (2,750,432 samples, 0.01%)</title><rect x="1189.9" y="293" width="0.1" height="15.0" fill="rgb(218,63,15)" rx="2" ry="2" />
<text  x="1192.88" y="303.5" ></text>
</g>
<g >
<title>__sysvec_apic_timer_interrupt (2,750,693 samples, 0.01%)</title><rect x="419.8" y="197" width="0.1" height="15.0" fill="rgb(242,173,41)" rx="2" ry="2" />
<text  x="422.81" y="207.5" ></text>
</g>
<g >
<title>__libc_start_call_main (27,495,857,097 samples, 100.00%)</title><rect x="10.0" y="453" width="1180.0" height="15.0" fill="rgb(210,26,6)" rx="2" ry="2" />
<text  x="13.00" y="463.5" >__libc_start_call_main</text>
</g>
<g >
<title>IncrBufferRefCount (11,003,435 samples, 0.04%)</title><rect x="1071.8" y="213" width="0.5" height="15.0" fill="rgb(209,22,5)" rx="2" ry="2" />
<text  x="1074.81" y="223.5" ></text>
</g>
<g >
<title>heapgettup_pagemode (2,214,115,991 samples, 8.05%)</title><rect x="1073.7" y="229" width="95.0" height="15.0" fill="rgb(242,170,40)" rx="2" ry="2" />
<text  x="1076.70" y="239.5" >heapgettup_..</text>
</g>
<g >
<title>asm_sysvec_apic_timer_interrupt (16,504,588 samples, 0.06%)</title><rect x="977.4" y="213" width="0.7" height="15.0" fill="rgb(232,127,30)" rx="2" ry="2" />
<text  x="980.36" y="223.5" ></text>
</g>
<g >
<title>scheduler_tick (11,003,254 samples, 0.04%)</title><rect x="419.9" y="85" width="0.5" height="15.0" fill="rgb(246,190,45)" rx="2" ry="2" />
<text  x="422.93" y="95.5" ></text>
</g>
<g >
<title>socket_flush (2,750,432 samples, 0.01%)</title><rect x="1189.9" y="341" width="0.1" height="15.0" fill="rgb(230,116,27)" rx="2" ry="2" />
<text  x="1192.88" y="351.5" ></text>
</g>
<g >
<title>scheduler_tick (2,750,926 samples, 0.01%)</title><rect x="977.6" y="101" width="0.1" height="15.0" fill="rgb(246,190,45)" rx="2" ry="2" />
<text  x="980.60" y="111.5" ></text>
</g>
<g >
<title>ResourceOwnerRemember (2,750,085 samples, 0.01%)</title><rect x="1073.5" y="229" width="0.1" height="15.0" fill="rgb(243,178,42)" rx="2" ry="2" />
<text  x="1076.46" y="239.5" ></text>
</g>
<g >
<title>LWLockAttemptLock (11,002,539 samples, 0.04%)</title><rect x="1128.1" y="197" width="0.5" height="15.0" fill="rgb(235,138,33)" rx="2" ry="2" />
<text  x="1131.11" y="207.5" ></text>
</g>
<g >
<title>pg_database_encoding_max_length (41,255,238 samples, 0.15%)</title><rect x="978.1" y="245" width="1.7" height="15.0" fill="rgb(243,176,42)" rx="2" ry="2" />
<text  x="981.07" y="255.5" ></text>
</g>
<g >
<title>PostmasterMain (27,495,857,097 samples, 100.00%)</title><rect x="10.0" y="421" width="1180.0" height="15.0" fill="rgb(212,35,8)" rx="2" ry="2" />
<text  x="13.00" y="431.5" >PostmasterMain</text>
</g>
<g >
<title>do_syscall_64 (2,750,432 samples, 0.01%)</title><rect x="1189.9" y="277" width="0.1" height="15.0" fill="rgb(209,20,4)" rx="2" ry="2" />
<text  x="1192.88" y="287.5" ></text>
</g>
<g >
<title>amd_clear_divider (2,750,975 samples, 0.01%)</title><rect x="977.8" y="165" width="0.2" height="15.0" fill="rgb(207,9,2)" rx="2" ry="2" />
<text  x="980.83" y="175.5" ></text>
</g>
<g >
<title>read_stream_next_buffer (932,468,310 samples, 3.39%)</title><rect x="1128.7" y="213" width="40.0" height="15.0" fill="rgb(216,50,12)" rx="2" ry="2" />
<text  x="1131.70" y="223.5" >rea..</text>
</g>
<g >
<title>bpcharlen (79,764,070 samples, 0.29%)</title><rect x="1168.7" y="261" width="3.4" height="15.0" fill="rgb(221,77,18)" rx="2" ry="2" />
<text  x="1171.72" y="271.5" ></text>
</g>
<g >
<title>sysvec_apic_timer_interrupt (16,504,588 samples, 0.06%)</title><rect x="977.4" y="197" width="0.7" height="15.0" fill="rgb(220,69,16)" rx="2" ry="2" />
<text  x="980.36" y="207.5" ></text>
</g>
<g >
<title>arch_scale_freq_tick (2,750,825 samples, 0.01%)</title><rect x="419.9" y="69" width="0.1" height="15.0" fill="rgb(252,219,52)" rx="2" ry="2" />
<text  x="422.93" y="79.5" ></text>
</g>
<g >
<title>native_apic_msr_eoi_write (2,750,634 samples, 0.01%)</title><rect x="978.0" y="181" width="0.1" height="15.0" fill="rgb(244,183,43)" rx="2" ry="2" />
<text  x="980.95" y="191.5" ></text>
</g>
<g >
<title>BufTableLookup (294,297,435 samples, 1.07%)</title><rect x="1135.9" y="181" width="12.6" height="15.0" fill="rgb(224,89,21)" rx="2" ry="2" />
<text  x="1138.90" y="191.5" ></text>
</g>
<g >
<title>postgres (27,495,857,097 samples, 100.00%)</title><rect x="10.0" y="469" width="1180.0" height="15.0" fill="rgb(233,131,31)" rx="2" ry="2" />
<text  x="13.00" y="479.5" >postgres</text>
</g>
<g >
<title>ResourceOwnerForget (13,752,929 samples, 0.05%)</title><rect x="1097.0" y="197" width="0.5" height="15.0" fill="rgb(235,142,33)" rx="2" ry="2" />
<text  x="1099.95" y="207.5" ></text>
</g>
<g >
<title>slot_getsomeattrs_int (16,503,086 samples, 0.06%)</title><rect x="1188.1" y="261" width="0.7" height="15.0" fill="rgb(252,219,52)" rx="2" ry="2" />
<text  x="1191.11" y="271.5" ></text>
</g>
<g >
<title>asm_sysvec_apic_timer_interrupt (13,800,982 samples, 0.05%)</title><rect x="419.8" y="213" width="0.6" height="15.0" fill="rgb(232,127,30)" rx="2" ry="2" />
<text  x="422.81" y="223.5" ></text>
</g>
<g >
<title>LWLockAcquire (2,750,902 samples, 0.01%)</title><rect x="1148.5" y="181" width="0.2" height="15.0" fill="rgb(209,20,4)" rx="2" ry="2" />
<text  x="1151.53" y="191.5" ></text>
</g>
<g >
<title>LockBuffer (5,499,954 samples, 0.02%)</title><rect x="1073.2" y="229" width="0.3" height="15.0" fill="rgb(235,142,34)" rx="2" ry="2" />
<text  x="1076.23" y="239.5" ></text>
</g>
<g >
<title>ExecScanFetch (55,005,454 samples, 0.20%)</title><rect x="1009.8" y="261" width="2.4" height="15.0" fill="rgb(222,80,19)" rx="2" ry="2" />
<text  x="1012.82" y="271.5" ></text>
</g>
<g >
<title>sysvec_apic_timer_interrupt (2,749,758 samples, 0.01%)</title><rect x="88.5" y="229" width="0.1" height="15.0" fill="rgb(220,69,16)" rx="2" ry="2" />
<text  x="91.51" y="239.5" ></text>
</g>
<g >
<title>timekeeping_advance (2,750,660 samples, 0.01%)</title><rect x="977.5" y="69" width="0.1" height="15.0" fill="rgb(227,104,25)" rx="2" ry="2" />
<text  x="980.48" y="79.5" ></text>
</g>
<g >
<title>ResourceOwnerRemember (82,514,407 samples, 0.30%)</title><rect x="1163.1" y="181" width="3.5" height="15.0" fill="rgb(243,178,42)" rx="2" ry="2" />
<text  x="1166.05" y="191.5" ></text>
</g>
<g >
<title>ExecScanFetch (13,752,516 samples, 0.05%)</title><rect x="1188.8" y="277" width="0.6" height="15.0" fill="rgb(222,80,19)" rx="2" ry="2" />
<text  x="1191.82" y="287.5" ></text>
</g>
<g >
<title>heap_getnextslot (218,096,172 samples, 0.79%)</title><rect x="1172.1" y="261" width="9.4" height="15.0" fill="rgb(213,40,9)" rx="2" ry="2" />
<text  x="1175.14" y="271.5" ></text>
</g>
<g >
<title>postmaster_child_launch (27,495,857,097 samples, 100.00%)</title><rect x="10.0" y="389" width="1180.0" height="15.0" fill="rgb(206,5,1)" rx="2" ry="2" />
<text  x="13.00" y="399.5" >postmaster_child_launch</text>
</g>
<g >
<title>StartReadBuffer (827,955,938 samples, 3.01%)</title><rect x="1131.1" y="197" width="35.5" height="15.0" fill="rgb(222,78,18)" rx="2" ry="2" />
<text  x="1134.06" y="207.5" >Sta..</text>
</g>
<g >
<title>__hrtimer_run_queues (11,003,254 samples, 0.04%)</title><rect x="419.9" y="149" width="0.5" height="15.0" fill="rgb(237,150,35)" rx="2" ry="2" />
<text  x="422.93" y="159.5" ></text>
</g>
<g >
<title>tts_buffer_heap_getsomeattrs (22,005,437 samples, 0.08%)</title><rect x="1008.9" y="245" width="0.9" height="15.0" fill="rgb(222,81,19)" rx="2" ry="2" />
<text  x="1011.88" y="255.5" ></text>
</g>
<g >
<title>hrtimer_interrupt (2,750,939 samples, 0.01%)</title><rect x="1148.4" y="101" width="0.1" height="15.0" fill="rgb(228,109,26)" rx="2" ry="2" />
<text  x="1151.42" y="111.5" ></text>
</g>
<g >
<title>pg_mbstrlen_with_len (6,458,247,888 samples, 23.49%)</title><rect x="143.4" y="229" width="277.1" height="15.0" fill="rgb(228,106,25)" rx="2" ry="2" />
<text  x="146.36" y="239.5" >pg_mbstrlen_with_len</text>
</g>
<g >
<title>__memcmp_evex_movbe (5,500,668 samples, 0.02%)</title><rect x="1135.9" y="165" width="0.2" height="15.0" fill="rgb(219,67,16)" rx="2" ry="2" />
<text  x="1138.90" y="175.5" ></text>
</g>
<g >
<title>pg_utf_mblen_private (12,991,822,092 samples, 47.25%)</title><rect x="420.5" y="229" width="557.6" height="15.0" fill="rgb(242,173,41)" rx="2" ry="2" />
<text  x="423.52" y="239.5" >pg_utf_mblen_private</text>
</g>
<g >
<title>LockBuffer (11,000,927 samples, 0.04%)</title><rect x="1096.0" y="213" width="0.5" height="15.0" fill="rgb(235,142,34)" rx="2" ry="2" />
<text  x="1099.01" y="223.5" ></text>
</g>
<g >
<title>__sysvec_apic_timer_interrupt (2,749,758 samples, 0.01%)</title><rect x="88.5" y="213" width="0.1" height="15.0" fill="rgb(242,173,41)" rx="2" ry="2" />
<text  x="91.51" y="223.5" ></text>
</g>
<g >
<title>__x64_sys_sendto (2,750,432 samples, 0.01%)</title><rect x="1189.9" y="245" width="0.1" height="15.0" fill="rgb(213,37,8)" rx="2" ry="2" />
<text  x="1192.88" y="255.5" ></text>
</g>
<g >
<title>CheckForSerializableConflictOutNeeded (8,251,943 samples, 0.03%)</title><rect x="1095.4" y="213" width="0.4" height="15.0" fill="rgb(213,38,9)" rx="2" ry="2" />
<text  x="1098.42" y="223.5" ></text>
</g>
<g >
<title>sysvec_apic_timer_interrupt (2,750,939 samples, 0.01%)</title><rect x="1148.4" y="133" width="0.1" height="15.0" fill="rgb(220,69,16)" rx="2" ry="2" />
<text  x="1151.42" y="143.5" ></text>
</g>
<g >
<title>tick_sched_do_timer (2,750,660 samples, 0.01%)</title><rect x="977.5" y="117" width="0.1" height="15.0" fill="rgb(227,104,25)" rx="2" ry="2" />
<text  x="980.48" y="127.5" ></text>
</g>
<g >
<title>hrtimer_interrupt (8,252,471 samples, 0.03%)</title><rect x="977.5" y="165" width="0.3" height="15.0" fill="rgb(228,109,26)" rx="2" ry="2" />
<text  x="980.48" y="175.5" ></text>
</g>
<g >
<title>pgstat_count_io_op (22,003,849 samples, 0.08%)</title><rect x="1167.8" y="197" width="0.9" height="15.0" fill="rgb(207,10,2)" rx="2" ry="2" />
<text  x="1170.77" y="207.5" ></text>
</g>
<g >
<title>__sysvec_apic_timer_interrupt (11,003,254 samples, 0.04%)</title><rect x="419.9" y="181" width="0.5" height="15.0" fill="rgb(242,173,41)" rx="2" ry="2" />
<text  x="422.93" y="191.5" ></text>
</g>
<g >
<title>[postgres] (27,495,857,097 samples, 100.00%)</title><rect x="10.0" y="373" width="1180.0" height="15.0" fill="rgb(245,184,44)" rx="2" ry="2" />
<text  x="13.00" y="383.5" >[postgres]</text>
</g>
<g >
<title>LWLockRelease (33,002,844 samples, 0.12%)</title><rect x="1129.3" y="197" width="1.4" height="15.0" fill="rgb(217,58,13)" rx="2" ry="2" />
<text  x="1132.29" y="207.5" ></text>
</g>
<g >
<title>__sysvec_apic_timer_interrupt (2,750,939 samples, 0.01%)</title><rect x="1148.4" y="117" width="0.1" height="15.0" fill="rgb(242,173,41)" rx="2" ry="2" />
<text  x="1151.42" y="127.5" ></text>
</g>
<g >
<title>sync_regs (2,750,389 samples, 0.01%)</title><rect x="420.4" y="213" width="0.1" height="15.0" fill="rgb(228,106,25)" rx="2" ry="2" />
<text  x="423.40" y="223.5" ></text>
</g>
<g >
<title>hash_bytes (22,003,856 samples, 0.08%)</title><rect x="1166.6" y="197" width="0.9" height="15.0" fill="rgb(227,102,24)" rx="2" ry="2" />
<text  x="1169.59" y="207.5" ></text>
</g>
<g >
<title>PinBuffer (211,780,819 samples, 0.77%)</title><rect x="1154.0" y="181" width="9.1" height="15.0" fill="rgb(219,64,15)" rx="2" ry="2" />
<text  x="1156.96" y="191.5" ></text>
</g>
<g >
<title>PortalRun (27,493,106,665 samples, 99.99%)</title><rect x="10.0" y="325" width="1179.9" height="15.0" fill="rgb(223,85,20)" rx="2" ry="2" />
<text  x="13.00" y="335.5" >PortalRun</text>
</g>
<g >
<title>__hrtimer_run_queues (8,252,471 samples, 0.03%)</title><rect x="977.5" y="149" width="0.3" height="15.0" fill="rgb(237,150,35)" rx="2" ry="2" />
<text  x="980.48" y="159.5" ></text>
</g>
<g >
<title>ExecInterpExpr (23,148,880,241 samples, 84.19%)</title><rect x="16.4" y="261" width="993.4" height="15.0" fill="rgb(225,96,22)" rx="2" ry="2" />
<text  x="19.37" y="271.5" >ExecInterpExpr</text>
</g>
<g >
<title>asm_sysvec_apic_timer_interrupt (2,750,939 samples, 0.01%)</title><rect x="1148.4" y="149" width="0.1" height="15.0" fill="rgb(232,127,30)" rx="2" ry="2" />
<text  x="1151.42" y="159.5" ></text>
</g>
<g >
<title>ExecInterpExpr (30,253,524 samples, 0.11%)</title><rect x="10.0" y="277" width="1.3" height="15.0" fill="rgb(225,96,22)" rx="2" ry="2" />
<text  x="13.00" y="287.5" ></text>
</g>
<g >
<title>update_wall_time (2,750,660 samples, 0.01%)</title><rect x="977.5" y="85" width="0.1" height="15.0" fill="rgb(207,11,2)" rx="2" ry="2" />
<text  x="980.48" y="95.5" ></text>
</g>
<g >
<title>ServerLoop (27,495,857,097 samples, 100.00%)</title><rect x="10.0" y="405" width="1180.0" height="15.0" fill="rgb(238,155,37)" rx="2" ry="2" />
<text  x="13.00" y="415.5" >ServerLoop</text>
</g>
<g >
<title>heap_prepare_pagescan (2,750,844 samples, 0.01%)</title><rect x="1073.6" y="229" width="0.1" height="15.0" fill="rgb(222,82,19)" rx="2" ry="2" />
<text  x="1076.58" y="239.5" ></text>
</g>
<g >
<title>GetPrivateRefCountEntry (8,249,607 samples, 0.03%)</title><rect x="1162.7" y="165" width="0.4" height="15.0" fill="rgb(250,209,50)" rx="2" ry="2" />
<text  x="1165.70" y="175.5" ></text>
</g>
<g >
<title>update_process_times (2,750,885 samples, 0.01%)</title><rect x="977.7" y="101" width="0.1" height="15.0" fill="rgb(250,209,50)" rx="2" ry="2" />
<text  x="980.72" y="111.5" ></text>
</g>
<g >
<title>update_load_avg (5,501,632 samples, 0.02%)</title><rect x="420.2" y="53" width="0.2" height="15.0" fill="rgb(240,165,39)" rx="2" ry="2" />
<text  x="423.16" y="63.5" ></text>
</g>
<g >
<title>__update_load_avg_se (2,750,704 samples, 0.01%)</title><rect x="420.3" y="37" width="0.1" height="15.0" fill="rgb(254,227,54)" rx="2" ry="2" />
<text  x="423.28" y="47.5" ></text>
</g>
<g >
<title>exec_simple_query (27,493,106,665 samples, 99.99%)</title><rect x="10.0" y="341" width="1179.9" height="15.0" fill="rgb(211,29,6)" rx="2" ry="2" />
<text  x="13.00" y="351.5" >exec_simple_query</text>
</g>
<g >
<title>asm_sysvec_apic_timer_interrupt (2,749,758 samples, 0.01%)</title><rect x="88.5" y="245" width="0.1" height="15.0" fill="rgb(232,127,30)" rx="2" ry="2" />
<text  x="91.51" y="255.5" ></text>
</g>
<g >
<title>ExecScan (27,438,098,542 samples, 99.79%)</title><rect x="11.3" y="277" width="1177.5" height="15.0" fill="rgb(237,150,36)" rx="2" ry="2" />
<text  x="14.30" y="287.5" >ExecScan</text>
</g>
<g >
<title>hash_search_with_hash_value (288,796,767 samples, 1.05%)</title><rect x="1136.1" y="165" width="12.4" height="15.0" fill="rgb(249,205,49)" rx="2" ry="2" />
<text  x="1139.14" y="175.5" ></text>
</g>
</g>
</svg>
