<?xml version="1.0" standalone="no"?>
<!DOCTYPE svg PUBLIC "-//W3C//DTD SVG 1.1//EN" "http://www.w3.org/Graphics/SVG/1.1/DTD/svg11.dtd">
<svg version="1.1" width="1200" height="534" onload="init(evt)" viewBox="0 0 1200 534" xmlns="http://www.w3.org/2000/svg" xmlns:xlink="http://www.w3.org/1999/xlink">
<!-- Flame graph stack visualization. See https://github.com/brendangregg/FlameGraph for latest version, and http://www.brendangregg.com/flamegraphs.html for examples. -->
<!-- NOTES:  -->
<defs>
	<linearGradient id="background" y1="0" y2="1" x1="0" x2="0" >
		<stop stop-color="#eeeeee" offset="5%" />
		<stop stop-color="#eeeeb0" offset="95%" />
	</linearGradient>
</defs>
<style type="text/css">
	text { font-family:Verdana; font-size:12px; fill:rgb(0,0,0); }
	#search, #ignorecase { opacity:0.1; cursor:pointer; }
	#search:hover, #search.show, #ignorecase:hover, #ignorecase.show { opacity:1; }
	#subtitle { text-anchor:middle; font-color:rgb(160,160,160); }
	#title { text-anchor:middle; font-size:17px}
	#unzoom { cursor:pointer; }
	#frames > *:hover { stroke:black; stroke-width:0.5; cursor:pointer; }
	.hide { display:none; }
	.parent { opacity:0.5; }
</style>
<script type="text/ecmascript">
<![CDATA[
	"use strict";
	var details, searchbtn, unzoombtn, matchedtxt, svg, searching, currentSearchTerm, ignorecase, ignorecaseBtn;
	function init(evt) {
		details = document.getElementById("details").firstChild;
		searchbtn = document.getElementById("search");
		ignorecaseBtn = document.getElementById("ignorecase");
		unzoombtn = document.getElementById("unzoom");
		matchedtxt = document.getElementById("matched");
		svg = document.getElementsByTagName("svg")[0];
		searching = 0;
		currentSearchTerm = null;

		// use GET parameters to restore a flamegraphs state.
		var params = get_params();
		if (params.x && params.y)
			zoom(find_group(document.querySelector('[x="' + params.x + '"][y="' + params.y + '"]')));
                if (params.s) search(params.s);
	}

	// event listeners
	window.addEventListener("click", function(e) {
		var target = find_group(e.target);
		if (target) {
			if (target.nodeName == "a") {
				if (e.ctrlKey === false) return;
				e.preventDefault();
			}
			if (target.classList.contains("parent")) unzoom(true);
			zoom(target);
			if (!document.querySelector('.parent')) {
				// we have basically done a clearzoom so clear the url
				var params = get_params();
				if (params.x) delete params.x;
				if (params.y) delete params.y;
				history.replaceState(null, null, parse_params(params));
				unzoombtn.classList.add("hide");
				return;
			}

			// set parameters for zoom state
			var el = target.querySelector("rect");
			if (el && el.attributes && el.attributes.y && el.attributes._orig_x) {
				var params = get_params()
				params.x = el.attributes._orig_x.value;
				params.y = el.attributes.y.value;
				history.replaceState(null, null, parse_params(params));
			}
		}
		else if (e.target.id == "unzoom") clearzoom();
		else if (e.target.id == "search") search_prompt();
		else if (e.target.id == "ignorecase") toggle_ignorecase();
	}, false)

	// mouse-over for info
	// show
	window.addEventListener("mouseover", function(e) {
		var target = find_group(e.target);
		if (target) details.nodeValue = "Function: " + g_to_text(target);
	}, false)

	// clear
	window.addEventListener("mouseout", function(e) {
		var target = find_group(e.target);
		if (target) details.nodeValue = ' ';
	}, false)

	// ctrl-F for search
	// ctrl-I to toggle case-sensitive search
	window.addEventListener("keydown",function (e) {
		if (e.keyCode === 114 || (e.ctrlKey && e.keyCode === 70)) {
			e.preventDefault();
			search_prompt();
		}
		else if (e.ctrlKey && e.keyCode === 73) {
			e.preventDefault();
			toggle_ignorecase();
		}
	}, false)

	// functions
	function get_params() {
		var params = {};
		var paramsarr = window.location.search.substr(1).split('&');
		for (var i = 0; i < paramsarr.length; ++i) {
			var tmp = paramsarr[i].split("=");
			if (!tmp[0] || !tmp[1]) continue;
			params[tmp[0]]  = decodeURIComponent(tmp[1]);
		}
		return params;
	}
	function parse_params(params) {
		var uri = "?";
		for (var key in params) {
			uri += key + '=' + encodeURIComponent(params[key]) + '&';
		}
		if (uri.slice(-1) == "&")
			uri = uri.substring(0, uri.length - 1);
		if (uri == '?')
			uri = window.location.href.split('?')[0];
		return uri;
	}
	function find_child(node, selector) {
		var children = node.querySelectorAll(selector);
		if (children.length) return children[0];
	}
	function find_group(node) {
		var parent = node.parentElement;
		if (!parent) return;
		if (parent.id == "frames") return node;
		return find_group(parent);
	}
	function orig_save(e, attr, val) {
		if (e.attributes["_orig_" + attr] != undefined) return;
		if (e.attributes[attr] == undefined) return;
		if (val == undefined) val = e.attributes[attr].value;
		e.setAttribute("_orig_" + attr, val);
	}
	function orig_load(e, attr) {
		if (e.attributes["_orig_"+attr] == undefined) return;
		e.attributes[attr].value = e.attributes["_orig_" + attr].value;
		e.removeAttribute("_orig_"+attr);
	}
	function g_to_text(e) {
		var text = find_child(e, "title").firstChild.nodeValue;
		return (text)
	}
	function g_to_func(e) {
		var func = g_to_text(e);
		// if there's any manipulation we want to do to the function
		// name before it's searched, do it here before returning.
		return (func);
	}
	function update_text(e) {
		var r = find_child(e, "rect");
		var t = find_child(e, "text");
		var w = parseFloat(r.attributes.width.value) -3;
		var txt = find_child(e, "title").textContent.replace(/\([^(]*\)$/,"");
		t.attributes.x.value = parseFloat(r.attributes.x.value) + 3;

		// Smaller than this size won't fit anything
		if (w < 2 * 12 * 0.59) {
			t.textContent = "";
			return;
		}

		t.textContent = txt;
		var sl = t.getSubStringLength(0, txt.length);
		// check if only whitespace or if we can fit the entire string into width w
		if (/^ *$/.test(txt) || sl < w)
			return;

		// this isn't perfect, but gives a good starting point
		// and avoids calling getSubStringLength too often
		var start = Math.floor((w/sl) * txt.length);
		for (var x = start; x > 0; x = x-2) {
			if (t.getSubStringLength(0, x + 2) <= w) {
				t.textContent = txt.substring(0, x) + "..";
				return;
			}
		}
		t.textContent = "";
	}

	// zoom
	function zoom_reset(e) {
		if (e.attributes != undefined) {
			orig_load(e, "x");
			orig_load(e, "width");
		}
		if (e.childNodes == undefined) return;
		for (var i = 0, c = e.childNodes; i < c.length; i++) {
			zoom_reset(c[i]);
		}
	}
	function zoom_child(e, x, ratio) {
		if (e.attributes != undefined) {
			if (e.attributes.x != undefined) {
				orig_save(e, "x");
				e.attributes.x.value = (parseFloat(e.attributes.x.value) - x - 10) * ratio + 10;
				if (e.tagName == "text")
					e.attributes.x.value = find_child(e.parentNode, "rect[x]").attributes.x.value + 3;
			}
			if (e.attributes.width != undefined) {
				orig_save(e, "width");
				e.attributes.width.value = parseFloat(e.attributes.width.value) * ratio;
			}
		}

		if (e.childNodes == undefined) return;
		for (var i = 0, c = e.childNodes; i < c.length; i++) {
			zoom_child(c[i], x - 10, ratio);
		}
	}
	function zoom_parent(e) {
		if (e.attributes) {
			if (e.attributes.x != undefined) {
				orig_save(e, "x");
				e.attributes.x.value = 10;
			}
			if (e.attributes.width != undefined) {
				orig_save(e, "width");
				e.attributes.width.value = parseInt(svg.width.baseVal.value) - (10 * 2);
			}
		}
		if (e.childNodes == undefined) return;
		for (var i = 0, c = e.childNodes; i < c.length; i++) {
			zoom_parent(c[i]);
		}
	}
	function zoom(node) {
		var attr = find_child(node, "rect").attributes;
		var width = parseFloat(attr.width.value);
		var xmin = parseFloat(attr.x.value);
		var xmax = parseFloat(xmin + width);
		var ymin = parseFloat(attr.y.value);
		var ratio = (svg.width.baseVal.value - 2 * 10) / width;

		// XXX: Workaround for JavaScript float issues (fix me)
		var fudge = 0.0001;

		unzoombtn.classList.remove("hide");

		var el = document.getElementById("frames").children;
		for (var i = 0; i < el.length; i++) {
			var e = el[i];
			var a = find_child(e, "rect").attributes;
			var ex = parseFloat(a.x.value);
			var ew = parseFloat(a.width.value);
			var upstack;
			// Is it an ancestor
			if (0 == 0) {
				upstack = parseFloat(a.y.value) > ymin;
			} else {
				upstack = parseFloat(a.y.value) < ymin;
			}
			if (upstack) {
				// Direct ancestor
				if (ex <= xmin && (ex+ew+fudge) >= xmax) {
					e.classList.add("parent");
					zoom_parent(e);
					update_text(e);
				}
				// not in current path
				else
					e.classList.add("hide");
			}
			// Children maybe
			else {
				// no common path
				if (ex < xmin || ex + fudge >= xmax) {
					e.classList.add("hide");
				}
				else {
					zoom_child(e, xmin, ratio);
					update_text(e);
				}
			}
		}
		search();
	}
	function unzoom(dont_update_text) {
		unzoombtn.classList.add("hide");
		var el = document.getElementById("frames").children;
		for(var i = 0; i < el.length; i++) {
			el[i].classList.remove("parent");
			el[i].classList.remove("hide");
			zoom_reset(el[i]);
			if(!dont_update_text) update_text(el[i]);
		}
		search();
	}
	function clearzoom() {
		unzoom();

		// remove zoom state
		var params = get_params();
		if (params.x) delete params.x;
		if (params.y) delete params.y;
		history.replaceState(null, null, parse_params(params));
	}

	// search
	function toggle_ignorecase() {
		ignorecase = !ignorecase;
		if (ignorecase) {
			ignorecaseBtn.classList.add("show");
		} else {
			ignorecaseBtn.classList.remove("show");
		}
		reset_search();
		search();
	}
	function reset_search() {
		var el = document.querySelectorAll("#frames rect");
		for (var i = 0; i < el.length; i++) {
			orig_load(el[i], "fill")
		}
		var params = get_params();
		delete params.s;
		history.replaceState(null, null, parse_params(params));
	}
	function search_prompt() {
		if (!searching) {
			var term = prompt("Enter a search term (regexp " +
			    "allowed, eg: ^ext4_)"
			    + (ignorecase ? ", ignoring case" : "")
			    + "\nPress Ctrl-i to toggle case sensitivity", "");
			if (term != null) search(term);
		} else {
			reset_search();
			searching = 0;
			currentSearchTerm = null;
			searchbtn.classList.remove("show");
			searchbtn.firstChild.nodeValue = "Search"
			matchedtxt.classList.add("hide");
			matchedtxt.firstChild.nodeValue = ""
		}
	}
	function search(term) {
		if (term) currentSearchTerm = term;

		var re = new RegExp(currentSearchTerm, ignorecase ? 'i' : '');
		var el = document.getElementById("frames").children;
		var matches = new Object();
		var maxwidth = 0;
		for (var i = 0; i < el.length; i++) {
			var e = el[i];
			var func = g_to_func(e);
			var rect = find_child(e, "rect");
			if (func == null || rect == null)
				continue;

			// Save max width. Only works as we have a root frame
			var w = parseFloat(rect.attributes.width.value);
			if (w > maxwidth)
				maxwidth = w;

			if (func.match(re)) {
				// highlight
				var x = parseFloat(rect.attributes.x.value);
				orig_save(rect, "fill");
				rect.attributes.fill.value = "rgb(230,0,230)";

				// remember matches
				if (matches[x] == undefined) {
					matches[x] = w;
				} else {
					if (w > matches[x]) {
						// overwrite with parent
						matches[x] = w;
					}
				}
				searching = 1;
			}
		}
		if (!searching)
			return;
		var params = get_params();
		params.s = currentSearchTerm;
		history.replaceState(null, null, parse_params(params));

		searchbtn.classList.add("show");
		searchbtn.firstChild.nodeValue = "Reset Search";

		// calculate percent matched, excluding vertical overlap
		var count = 0;
		var lastx = -1;
		var lastw = 0;
		var keys = Array();
		for (k in matches) {
			if (matches.hasOwnProperty(k))
				keys.push(k);
		}
		// sort the matched frames by their x location
		// ascending, then width descending
		keys.sort(function(a, b){
			return a - b;
		});
		// Step through frames saving only the biggest bottom-up frames
		// thanks to the sort order. This relies on the tree property
		// where children are always smaller than their parents.
		var fudge = 0.0001;	// JavaScript floating point
		for (var k in keys) {
			var x = parseFloat(keys[k]);
			var w = matches[keys[k]];
			if (x >= lastx + lastw - fudge) {
				count += w;
				lastx = x;
				lastw = w;
			}
		}
		// display matched percent
		matchedtxt.classList.remove("hide");
		var pct = 100 * count / maxwidth;
		if (pct != 100) pct = pct.toFixed(1)
		matchedtxt.firstChild.nodeValue = "Matched: " + pct + "%";
	}
]]>
</script>
<rect x="0.0" y="0" width="1200.0" height="534.0" fill="url(#background)"  />
<text id="title" x="600.00" y="24" >Flame Graph</text>
<text id="details" x="10.00" y="517" > </text>
<text id="unzoom" x="10.00" y="24" class="hide">Reset Zoom</text>
<text id="search" x="1090.00" y="24" >Search</text>
<text id="ignorecase" x="1174.00" y="24" >ic</text>
<text id="matched" x="1090.00" y="517" > </text>
<g id="frames">
<g >
<title>pg_mbstrlen_with_len (5,495,751 samples, 0.02%)</title><rect x="1003.4" y="245" width="0.2" height="15.0" fill="rgb(228,106,25)" rx="2" ry="2" />
<text  x="1006.39" y="255.5" ></text>
</g>
<g >
<title>heap_getnextslot (167,761,301 samples, 0.61%)</title><rect x="1175.1" y="261" width="7.2" height="15.0" fill="rgb(213,40,9)" rx="2" ry="2" />
<text  x="1178.12" y="271.5" ></text>
</g>
<g >
<title>heap_getnextslot (3,310,293,318 samples, 12.04%)</title><rect x="1032.0" y="245" width="142.1" height="15.0" fill="rgb(213,40,9)" rx="2" ry="2" />
<text  x="1034.96" y="255.5" >heap_getnextslot</text>
</g>
<g >
<title>standard_ExecutorRun (27,487,906,258 samples, 100.00%)</title><rect x="10.0" y="293" width="1180.0" height="15.0" fill="rgb(247,196,47)" rx="2" ry="2" />
<text  x="13.00" y="303.5" >standard_ExecutorRun</text>
</g>
<g >
<title>postgres (27,487,906,258 samples, 100.00%)</title><rect x="10.0" y="469" width="1180.0" height="15.0" fill="rgb(233,131,31)" rx="2" ry="2" />
<text  x="13.00" y="479.5" >postgres</text>
</g>
<g >
<title>sysvec_apic_timer_interrupt (19,254,658 samples, 0.07%)</title><rect x="444.1" y="197" width="0.8" height="15.0" fill="rgb(220,69,16)" rx="2" ry="2" />
<text  x="447.12" y="207.5" ></text>
</g>
<g >
<title>heap_prepare_pagescan (85,258,329 samples, 0.31%)</title><rect x="1132.1" y="213" width="3.7" height="15.0" fill="rgb(222,82,19)" rx="2" ry="2" />
<text  x="1135.15" y="223.5" ></text>
</g>
<g >
<title>scheduler_tick (2,750,816 samples, 0.01%)</title><rect x="996.4" y="85" width="0.1" height="15.0" fill="rgb(246,190,45)" rx="2" ry="2" />
<text  x="999.42" y="95.5" ></text>
</g>
<g >
<title>ResourceOwnerEnlarge (5,500,919 samples, 0.02%)</title><rect x="1093.7" y="197" width="0.2" height="15.0" fill="rgb(223,86,20)" rx="2" ry="2" />
<text  x="1096.71" y="207.5" ></text>
</g>
<g >
<title>[postgres] (27,487,906,258 samples, 100.00%)</title><rect x="10.0" y="373" width="1180.0" height="15.0" fill="rgb(245,184,44)" rx="2" ry="2" />
<text  x="13.00" y="383.5" >[postgres]</text>
</g>
<g >
<title>UnpinBufferNoOwner (27,505,355 samples, 0.10%)</title><rect x="1131.0" y="213" width="1.1" height="15.0" fill="rgb(253,221,53)" rx="2" ry="2" />
<text  x="1133.97" y="223.5" ></text>
</g>
<g >
<title>asm_sysvec_apic_timer_interrupt (2,750,618 samples, 0.01%)</title><rect x="1175.0" y="245" width="0.1" height="15.0" fill="rgb(232,127,30)" rx="2" ry="2" />
<text  x="1178.01" y="255.5" ></text>
</g>
<g >
<title>PinBuffer (121,053,391 samples, 0.44%)</title><rect x="1162.3" y="181" width="5.2" height="15.0" fill="rgb(219,64,15)" rx="2" ry="2" />
<text  x="1165.25" y="191.5" ></text>
</g>
<g >
<title>heap_prepare_pagescan (13,752,368 samples, 0.05%)</title><rect x="1096.0" y="229" width="0.5" height="15.0" fill="rgb(222,82,19)" rx="2" ry="2" />
<text  x="1098.95" y="239.5" ></text>
</g>
<g >
<title>__update_load_avg_cfs_rq (2,750,699 samples, 0.01%)</title><rect x="97.6" y="69" width="0.1" height="15.0" fill="rgb(228,107,25)" rx="2" ry="2" />
<text  x="100.61" y="79.5" ></text>
</g>
<g >
<title>GetPrivateRefCountEntry (5,500,774 samples, 0.02%)</title><rect x="1167.2" y="165" width="0.3" height="15.0" fill="rgb(250,209,50)" rx="2" ry="2" />
<text  x="1170.21" y="175.5" ></text>
</g>
<g >
<title>__sysvec_apic_timer_interrupt (2,750,699 samples, 0.01%)</title><rect x="97.6" y="213" width="0.1" height="15.0" fill="rgb(242,173,41)" rx="2" ry="2" />
<text  x="100.61" y="223.5" ></text>
</g>
<g >
<title>slot_getsomeattrs_int (343,792,511 samples, 1.25%)</title><rect x="1003.6" y="245" width="14.8" height="15.0" fill="rgb(252,219,52)" rx="2" ry="2" />
<text  x="1006.62" y="255.5" ></text>
</g>
<g >
<title>hrtimer_interrupt (5,501,483 samples, 0.02%)</title><rect x="996.3" y="165" width="0.2" height="15.0" fill="rgb(228,109,26)" rx="2" ry="2" />
<text  x="999.30" y="175.5" ></text>
</g>
<g >
<title>tick_sched_handle (5,501,499 samples, 0.02%)</title><rect x="444.4" y="117" width="0.2" height="15.0" fill="rgb(219,68,16)" rx="2" ry="2" />
<text  x="447.36" y="127.5" ></text>
</g>
<g >
<title>MemoryContextReset (66,009,252 samples, 0.24%)</title><rect x="1021.1" y="261" width="2.8" height="15.0" fill="rgb(210,26,6)" rx="2" ry="2" />
<text  x="1024.10" y="271.5" ></text>
</g>
<g >
<title>scheduler_tick (2,750,920 samples, 0.01%)</title><rect x="444.5" y="85" width="0.1" height="15.0" fill="rgb(246,190,45)" rx="2" ry="2" />
<text  x="447.48" y="95.5" ></text>
</g>
<g >
<title>tick_sched_timer (2,750,618 samples, 0.01%)</title><rect x="1175.0" y="165" width="0.1" height="15.0" fill="rgb(254,227,54)" rx="2" ry="2" />
<text  x="1178.01" y="175.5" ></text>
</g>
<g >
<title>update_curr (2,750,816 samples, 0.01%)</title><rect x="996.4" y="53" width="0.1" height="15.0" fill="rgb(227,105,25)" rx="2" ry="2" />
<text  x="999.42" y="63.5" ></text>
</g>
<g >
<title>ReservePrivateRefCountEntry (2,750,434 samples, 0.01%)</title><rect x="1167.5" y="181" width="0.1" height="15.0" fill="rgb(232,125,30)" rx="2" ry="2" />
<text  x="1170.45" y="191.5" ></text>
</g>
<g >
<title>sysvec_apic_timer_interrupt (5,547,996 samples, 0.02%)</title><rect x="996.3" y="197" width="0.2" height="15.0" fill="rgb(220,69,16)" rx="2" ry="2" />
<text  x="999.30" y="207.5" ></text>
</g>
<g >
<title>scheduler_tick (2,750,699 samples, 0.01%)</title><rect x="97.6" y="117" width="0.1" height="15.0" fill="rgb(246,190,45)" rx="2" ry="2" />
<text  x="100.61" y="127.5" ></text>
</g>
<g >
<title>PostgresMain (27,487,906,258 samples, 100.00%)</title><rect x="10.0" y="357" width="1180.0" height="15.0" fill="rgb(227,103,24)" rx="2" ry="2" />
<text  x="13.00" y="367.5" >PostgresMain</text>
</g>
<g >
<title>tick_sched_timer (5,501,483 samples, 0.02%)</title><rect x="996.3" y="133" width="0.2" height="15.0" fill="rgb(254,227,54)" rx="2" ry="2" />
<text  x="999.30" y="143.5" ></text>
</g>
<g >
<title>PortalRunSelect (27,487,906,258 samples, 100.00%)</title><rect x="10.0" y="309" width="1180.0" height="15.0" fill="rgb(245,188,45)" rx="2" ry="2" />
<text  x="13.00" y="319.5" >PortalRunSelect</text>
</g>
<g >
<title>hrtimer_interrupt (13,753,162 samples, 0.05%)</title><rect x="444.1" y="165" width="0.6" height="15.0" fill="rgb(228,109,26)" rx="2" ry="2" />
<text  x="447.12" y="175.5" ></text>
</g>
<g >
<title>tts_buffer_heap_getsomeattrs (244,779,021 samples, 0.89%)</title><rect x="1007.9" y="229" width="10.5" height="15.0" fill="rgb(222,81,19)" rx="2" ry="2" />
<text  x="1010.87" y="239.5" ></text>
</g>
<g >
<title>exec_simple_query (27,487,906,258 samples, 100.00%)</title><rect x="10.0" y="341" width="1180.0" height="15.0" fill="rgb(211,29,6)" rx="2" ry="2" />
<text  x="13.00" y="351.5" >exec_simple_query</text>
</g>
<g >
<title>__hrtimer_run_queues (2,750,618 samples, 0.01%)</title><rect x="1175.0" y="181" width="0.1" height="15.0" fill="rgb(237,150,35)" rx="2" ry="2" />
<text  x="1178.01" y="191.5" ></text>
</g>
<g >
<title>update_process_times (5,501,499 samples, 0.02%)</title><rect x="444.4" y="101" width="0.2" height="15.0" fill="rgb(250,209,50)" rx="2" ry="2" />
<text  x="447.36" y="111.5" ></text>
</g>
<g >
<title>asm_sysvec_apic_timer_interrupt (5,547,996 samples, 0.02%)</title><rect x="996.3" y="213" width="0.2" height="15.0" fill="rgb(232,127,30)" rx="2" ry="2" />
<text  x="999.30" y="223.5" ></text>
</g>
<g >
<title>ResourceOwnerRemember (8,251,552 samples, 0.03%)</title><rect x="1095.6" y="229" width="0.4" height="15.0" fill="rgb(243,178,42)" rx="2" ry="2" />
<text  x="1098.60" y="239.5" ></text>
</g>
<g >
<title>timekeeping_advance (2,750,667 samples, 0.01%)</title><rect x="996.3" y="69" width="0.1" height="15.0" fill="rgb(227,104,25)" rx="2" ry="2" />
<text  x="999.30" y="79.5" ></text>
</g>
<g >
<title>LWLockAcquire (5,500,657 samples, 0.02%)</title><rect x="1157.9" y="181" width="0.2" height="15.0" fill="rgb(209,20,4)" rx="2" ry="2" />
<text  x="1160.89" y="191.5" ></text>
</g>
<g >
<title>timekeeping_advance (2,750,779 samples, 0.01%)</title><rect x="444.2" y="69" width="0.2" height="15.0" fill="rgb(227,104,25)" rx="2" ry="2" />
<text  x="447.24" y="79.5" ></text>
</g>
<g >
<title>ResourceOwnerForget (2,750,681 samples, 0.01%)</title><rect x="1130.7" y="213" width="0.1" height="15.0" fill="rgb(235,142,33)" rx="2" ry="2" />
<text  x="1133.73" y="223.5" ></text>
</g>
<g >
<title>heapgettup_pagemode (1,778,338,936 samples, 6.47%)</title><rect x="1096.5" y="229" width="76.4" height="15.0" fill="rgb(242,170,40)" rx="2" ry="2" />
<text  x="1099.54" y="239.5" >heapgett..</text>
</g>
<g >
<title>tick_sched_handle (2,750,699 samples, 0.01%)</title><rect x="97.6" y="149" width="0.1" height="15.0" fill="rgb(219,68,16)" rx="2" ry="2" />
<text  x="100.61" y="159.5" ></text>
</g>
<g >
<title>tick_sched_timer (11,002,387 samples, 0.04%)</title><rect x="444.1" y="133" width="0.5" height="15.0" fill="rgb(254,227,54)" rx="2" ry="2" />
<text  x="447.12" y="143.5" ></text>
</g>
<g >
<title>ExecStoreBufferHeapTuple (13,752,136 samples, 0.05%)</title><rect x="1031.4" y="245" width="0.6" height="15.0" fill="rgb(230,117,28)" rx="2" ry="2" />
<text  x="1034.37" y="255.5" ></text>
</g>
<g >
<title>LWLockAttemptLock (5,494,094 samples, 0.02%)</title><rect x="1135.6" y="197" width="0.2" height="15.0" fill="rgb(235,138,33)" rx="2" ry="2" />
<text  x="1138.57" y="207.5" ></text>
</g>
<g >
<title>update_wall_time (2,750,667 samples, 0.01%)</title><rect x="996.3" y="85" width="0.1" height="15.0" fill="rgb(207,11,2)" rx="2" ry="2" />
<text  x="999.30" y="95.5" ></text>
</g>
<g >
<title>UnpinBufferNoOwner (27,512,977 samples, 0.10%)</title><rect x="1094.1" y="213" width="1.1" height="15.0" fill="rgb(253,221,53)" rx="2" ry="2" />
<text  x="1097.06" y="223.5" ></text>
</g>
<g >
<title>PostmasterMain (27,487,906,258 samples, 100.00%)</title><rect x="10.0" y="421" width="1180.0" height="15.0" fill="rgb(212,35,8)" rx="2" ry="2" />
<text  x="13.00" y="431.5" >PostmasterMain</text>
</g>
<g >
<title>tick_sched_timer (2,750,699 samples, 0.01%)</title><rect x="97.6" y="165" width="0.1" height="15.0" fill="rgb(254,227,54)" rx="2" ry="2" />
<text  x="100.61" y="175.5" ></text>
</g>
<g >
<title>get_hash_value (2,750,345 samples, 0.01%)</title><rect x="1169.5" y="197" width="0.1" height="15.0" fill="rgb(211,27,6)" rx="2" ry="2" />
<text  x="1172.46" y="207.5" ></text>
</g>
<g >
<title>__sysvec_apic_timer_interrupt (2,750,633 samples, 0.01%)</title><rect x="151.7" y="197" width="0.1" height="15.0" fill="rgb(242,173,41)" rx="2" ry="2" />
<text  x="154.72" y="207.5" ></text>
</g>
<g >
<title>run_rebalance_domains (2,750,787 samples, 0.01%)</title><rect x="444.8" y="165" width="0.1" height="15.0" fill="rgb(232,126,30)" rx="2" ry="2" />
<text  x="447.83" y="175.5" ></text>
</g>
<g >
<title>__sysvec_apic_timer_interrupt (16,503,871 samples, 0.06%)</title><rect x="444.1" y="181" width="0.7" height="15.0" fill="rgb(242,173,41)" rx="2" ry="2" />
<text  x="447.12" y="191.5" ></text>
</g>
<g >
<title>__hrtimer_run_queues (5,501,483 samples, 0.02%)</title><rect x="996.3" y="149" width="0.2" height="15.0" fill="rgb(237,150,35)" rx="2" ry="2" />
<text  x="999.30" y="159.5" ></text>
</g>
<g >
<title>pg_database_encoding_max_length (46,757,322 samples, 0.17%)</title><rect x="996.5" y="245" width="2.0" height="15.0" fill="rgb(243,176,42)" rx="2" ry="2" />
<text  x="999.54" y="255.5" ></text>
</g>
<g >
<title>pg_utf_mblen_private (2,750,775 samples, 0.01%)</title><rect x="1135.9" y="213" width="0.1" height="15.0" fill="rgb(242,173,41)" rx="2" ry="2" />
<text  x="1138.93" y="223.5" ></text>
</g>
<g >
<title>rcu_sched_clock_irq (2,750,618 samples, 0.01%)</title><rect x="1175.0" y="117" width="0.1" height="15.0" fill="rgb(208,15,3)" rx="2" ry="2" />
<text  x="1178.01" y="127.5" ></text>
</g>
<g >
<title>update_process_times (2,750,699 samples, 0.01%)</title><rect x="97.6" y="133" width="0.1" height="15.0" fill="rgb(250,209,50)" rx="2" ry="2" />
<text  x="100.61" y="143.5" ></text>
</g>
<g >
<title>pg_detoast_datum_packed (112,762,092 samples, 0.41%)</title><rect x="998.5" y="245" width="4.9" height="15.0" fill="rgb(238,155,37)" rx="2" ry="2" />
<text  x="1001.54" y="255.5" ></text>
</g>
<g >
<title>irq_exit_rcu (2,750,787 samples, 0.01%)</title><rect x="444.8" y="181" width="0.1" height="15.0" fill="rgb(254,227,54)" rx="2" ry="2" />
<text  x="447.83" y="191.5" ></text>
</g>
<g >
<title>pg_utf_mblen_private (12,849,174,401 samples, 46.74%)</title><rect x="444.9" y="229" width="551.6" height="15.0" fill="rgb(242,173,41)" rx="2" ry="2" />
<text  x="447.95" y="239.5" >pg_utf_mblen_private</text>
</g>
<g >
<title>tick_sched_do_timer (2,750,779 samples, 0.01%)</title><rect x="444.2" y="117" width="0.2" height="15.0" fill="rgb(227,104,25)" rx="2" ry="2" />
<text  x="447.24" y="127.5" ></text>
</g>
<g >
<title>hrtimer_update_next_event (2,750,709 samples, 0.01%)</title><rect x="444.7" y="165" width="0.1" height="15.0" fill="rgb(225,92,22)" rx="2" ry="2" />
<text  x="447.71" y="175.5" ></text>
</g>
<g >
<title>raw_notifier_call_chain (2,750,667 samples, 0.01%)</title><rect x="996.3" y="53" width="0.1" height="15.0" fill="rgb(221,73,17)" rx="2" ry="2" />
<text  x="999.30" y="63.5" ></text>
</g>
<g >
<title>IncrBufferRefCount (8,251,406 samples, 0.03%)</title><rect x="1093.6" y="213" width="0.3" height="15.0" fill="rgb(209,22,5)" rx="2" ry="2" />
<text  x="1096.59" y="223.5" ></text>
</g>
<g >
<title>StartReadBuffer (706,871,562 samples, 2.57%)</title><rect x="1139.1" y="197" width="30.4" height="15.0" fill="rgb(222,78,18)" rx="2" ry="2" />
<text  x="1142.11" y="207.5" >St..</text>
</g>
<g >
<title>__hrtimer_next_event_base (2,750,775 samples, 0.01%)</title><rect x="444.6" y="133" width="0.1" height="15.0" fill="rgb(246,191,45)" rx="2" ry="2" />
<text  x="447.59" y="143.5" ></text>
</g>
<g >
<title>__sysvec_apic_timer_interrupt (2,750,618 samples, 0.01%)</title><rect x="1175.0" y="213" width="0.1" height="15.0" fill="rgb(242,173,41)" rx="2" ry="2" />
<text  x="1178.01" y="223.5" ></text>
</g>
<g >
<title>read_stream_next_buffer (27,502,241 samples, 0.10%)</title><rect x="1172.9" y="229" width="1.2" height="15.0" fill="rgb(216,50,12)" rx="2" ry="2" />
<text  x="1175.88" y="239.5" ></text>
</g>
<g >
<title>LWLockRelease (44,006,376 samples, 0.16%)</title><rect x="1127.9" y="213" width="1.9" height="15.0" fill="rgb(217,58,13)" rx="2" ry="2" />
<text  x="1130.90" y="223.5" ></text>
</g>
<g >
<title>bpcharlen (20,937,629,970 samples, 76.17%)</title><rect x="97.7" y="245" width="898.8" height="15.0" fill="rgb(221,77,18)" rx="2" ry="2" />
<text  x="100.73" y="255.5" >bpcharlen</text>
</g>
<g >
<title>slot_getsomeattrs_int (5,501,067 samples, 0.02%)</title><rect x="1187.9" y="261" width="0.2" height="15.0" fill="rgb(252,219,52)" rx="2" ry="2" />
<text  x="1190.87" y="271.5" ></text>
</g>
<g >
<title>ReleaseBuffer (5,501,077 samples, 0.02%)</title><rect x="1095.4" y="229" width="0.2" height="15.0" fill="rgb(220,71,17)" rx="2" ry="2" />
<text  x="1098.36" y="239.5" ></text>
</g>
<g >
<title>tick_sched_do_timer (2,750,667 samples, 0.01%)</title><rect x="996.3" y="117" width="0.1" height="15.0" fill="rgb(227,104,25)" rx="2" ry="2" />
<text  x="999.30" y="127.5" ></text>
</g>
<g >
<title>ExecInterpExpr (23,319,515,799 samples, 84.84%)</title><rect x="18.7" y="261" width="1001.1" height="15.0" fill="rgb(225,96,22)" rx="2" ry="2" />
<text  x="21.74" y="271.5" >ExecInterpExpr</text>
</g>
<g >
<title>ResourceOwnerEnlarge (2,750,499 samples, 0.01%)</title><rect x="1093.9" y="213" width="0.2" height="15.0" fill="rgb(223,86,20)" rx="2" ry="2" />
<text  x="1096.94" y="223.5" ></text>
</g>
<g >
<title>tick_do_update_jiffies64 (2,750,779 samples, 0.01%)</title><rect x="444.2" y="101" width="0.2" height="15.0" fill="rgb(208,14,3)" rx="2" ry="2" />
<text  x="447.24" y="111.5" ></text>
</g>
<g >
<title>update_process_times (2,750,618 samples, 0.01%)</title><rect x="1175.0" y="133" width="0.1" height="15.0" fill="rgb(250,209,50)" rx="2" ry="2" />
<text  x="1178.01" y="143.5" ></text>
</g>
<g >
<title>ExecScan (27,443,898,767 samples, 99.84%)</title><rect x="10.0" y="277" width="1178.1" height="15.0" fill="rgb(237,150,36)" rx="2" ry="2" />
<text  x="13.00" y="287.5" >ExecScan</text>
</g>
<g >
<title>timekeeping_update (2,750,779 samples, 0.01%)</title><rect x="444.2" y="53" width="0.2" height="15.0" fill="rgb(238,152,36)" rx="2" ry="2" />
<text  x="447.24" y="63.5" ></text>
</g>
<g >
<title>pgstat_count_io_op (52,245,845 samples, 0.19%)</title><rect x="1170.6" y="197" width="2.3" height="15.0" fill="rgb(207,10,2)" rx="2" ry="2" />
<text  x="1173.64" y="207.5" ></text>
</g>
<g >
<title>ServerLoop (27,487,906,258 samples, 100.00%)</title><rect x="10.0" y="405" width="1180.0" height="15.0" fill="rgb(238,155,37)" rx="2" ry="2" />
<text  x="13.00" y="415.5" >ServerLoop</text>
</g>
<g >
<title>all (27,487,906,258 samples, 100%)</title><rect x="10.0" y="485" width="1180.0" height="15.0" fill="rgb(213,39,9)" rx="2" ry="2" />
<text  x="13.00" y="495.5" ></text>
</g>
<g >
<title>ExecScanFetch (2,750,963 samples, 0.01%)</title><rect x="1188.1" y="277" width="0.1" height="15.0" fill="rgb(222,80,19)" rx="2" ry="2" />
<text  x="1191.11" y="287.5" ></text>
</g>
<g >
<title>MemoryContextReset (27,504,271 samples, 0.10%)</title><rect x="1188.2" y="277" width="1.2" height="15.0" fill="rgb(210,26,6)" rx="2" ry="2" />
<text  x="1191.23" y="287.5" ></text>
</g>
<g >
<title>__hrtimer_run_queues (11,002,387 samples, 0.04%)</title><rect x="444.1" y="149" width="0.5" height="15.0" fill="rgb(237,150,35)" rx="2" ry="2" />
<text  x="447.12" y="159.5" ></text>
</g>
<g >
<title>task_tick_fair (2,750,816 samples, 0.01%)</title><rect x="996.4" y="69" width="0.1" height="15.0" fill="rgb(217,57,13)" rx="2" ry="2" />
<text  x="999.42" y="79.5" ></text>
</g>
<g >
<title>int4lt (129,261,650 samples, 0.47%)</title><rect x="1182.3" y="261" width="5.6" height="15.0" fill="rgb(242,172,41)" rx="2" ry="2" />
<text  x="1185.33" y="271.5" ></text>
</g>
<g >
<title>PinBuffer (19,253,161 samples, 0.07%)</title><rect x="1138.3" y="197" width="0.8" height="15.0" fill="rgb(219,64,15)" rx="2" ry="2" />
<text  x="1141.29" y="207.5" ></text>
</g>
<g >
<title>tick_do_update_jiffies64 (2,750,667 samples, 0.01%)</title><rect x="996.3" y="101" width="0.1" height="15.0" fill="rgb(208,14,3)" rx="2" ry="2" />
<text  x="999.30" y="111.5" ></text>
</g>
<g >
<title>heap_scan_stream_read_next_serial (5,499,938 samples, 0.02%)</title><rect x="1170.4" y="197" width="0.2" height="15.0" fill="rgb(205,4,0)" rx="2" ry="2" />
<text  x="1173.40" y="207.5" ></text>
</g>
<g >
<title>tick_sched_handle (2,750,816 samples, 0.01%)</title><rect x="996.4" y="117" width="0.1" height="15.0" fill="rgb(219,68,16)" rx="2" ry="2" />
<text  x="999.42" y="127.5" ></text>
</g>
<g >
<title>LockBuffer (5,500,930 samples, 0.02%)</title><rect x="1129.8" y="213" width="0.2" height="15.0" fill="rgb(235,142,34)" rx="2" ry="2" />
<text  x="1132.79" y="223.5" ></text>
</g>
<g >
<title>GetPrivateRefCountEntry (22,004,332 samples, 0.08%)</title><rect x="1131.2" y="197" width="0.9" height="15.0" fill="rgb(250,209,50)" rx="2" ry="2" />
<text  x="1134.20" y="207.5" ></text>
</g>
<g >
<title>update_process_times (2,750,816 samples, 0.01%)</title><rect x="996.4" y="101" width="0.1" height="15.0" fill="rgb(250,209,50)" rx="2" ry="2" />
<text  x="999.42" y="111.5" ></text>
</g>
<g >
<title>asm_sysvec_apic_timer_interrupt (19,254,658 samples, 0.07%)</title><rect x="444.1" y="213" width="0.8" height="15.0" fill="rgb(232,127,30)" rx="2" ry="2" />
<text  x="447.12" y="223.5" ></text>
</g>
<g >
<title>LWLockRelease (33,003,917 samples, 0.12%)</title><rect x="1136.9" y="197" width="1.4" height="15.0" fill="rgb(217,58,13)" rx="2" ry="2" />
<text  x="1139.87" y="207.5" ></text>
</g>
<g >
<title>StartReadBuffer (2,750,293 samples, 0.01%)</title><rect x="1130.8" y="213" width="0.2" height="15.0" fill="rgb(222,78,18)" rx="2" ry="2" />
<text  x="1133.85" y="223.5" ></text>
</g>
<g >
<title>update_fast_timekeeper (2,750,779 samples, 0.01%)</title><rect x="444.2" y="37" width="0.2" height="15.0" fill="rgb(212,32,7)" rx="2" ry="2" />
<text  x="447.24" y="47.5" ></text>
</g>
<g >
<title>hrtimer_interrupt (2,750,699 samples, 0.01%)</title><rect x="97.6" y="197" width="0.1" height="15.0" fill="rgb(228,109,26)" rx="2" ry="2" />
<text  x="100.61" y="207.5" ></text>
</g>
<g >
<title>LWLockAttemptLock (44,006,154 samples, 0.16%)</title><rect x="1158.1" y="181" width="1.9" height="15.0" fill="rgb(235,138,33)" rx="2" ry="2" />
<text  x="1161.12" y="191.5" ></text>
</g>
<g >
<title>tick_sched_handle (2,750,633 samples, 0.01%)</title><rect x="151.7" y="149" width="0.1" height="15.0" fill="rgb(219,68,16)" rx="2" ry="2" />
<text  x="154.72" y="159.5" ></text>
</g>
<g >
<title>tick_do_update_jiffies64 (2,750,109 samples, 0.01%)</title><rect x="444.1" y="117" width="0.1" height="15.0" fill="rgb(208,14,3)" rx="2" ry="2" />
<text  x="447.12" y="127.5" ></text>
</g>
<g >
<title>asm_sysvec_apic_timer_interrupt (2,750,699 samples, 0.01%)</title><rect x="97.6" y="245" width="0.1" height="15.0" fill="rgb(232,127,30)" rx="2" ry="2" />
<text  x="100.61" y="255.5" ></text>
</g>
<g >
<title>pg_mbstrlen_with_len (6,828,002,121 samples, 24.84%)</title><rect x="151.8" y="229" width="293.1" height="15.0" fill="rgb(228,106,25)" rx="2" ry="2" />
<text  x="154.84" y="239.5" >pg_mbstrlen_with_len</text>
</g>
<g >
<title>hrtimer_update_next_event (2,750,775 samples, 0.01%)</title><rect x="444.6" y="149" width="0.1" height="15.0" fill="rgb(225,92,22)" rx="2" ry="2" />
<text  x="447.59" y="159.5" ></text>
</g>
<g >
<title>update_load_avg (2,750,699 samples, 0.01%)</title><rect x="97.6" y="85" width="0.1" height="15.0" fill="rgb(240,165,39)" rx="2" ry="2" />
<text  x="100.61" y="95.5" ></text>
</g>
<g >
<title>ExecScanFetch (30,255,486 samples, 0.11%)</title><rect x="1019.8" y="261" width="1.3" height="15.0" fill="rgb(222,80,19)" rx="2" ry="2" />
<text  x="1022.80" y="271.5" ></text>
</g>
<g >
<title>ReleaseBuffer (16,503,126 samples, 0.06%)</title><rect x="1130.0" y="213" width="0.7" height="15.0" fill="rgb(220,71,17)" rx="2" ry="2" />
<text  x="1133.02" y="223.5" ></text>
</g>
<g >
<title>__libc_start_call_main (27,487,906,258 samples, 100.00%)</title><rect x="10.0" y="453" width="1180.0" height="15.0" fill="rgb(210,26,6)" rx="2" ry="2" />
<text  x="13.00" y="463.5" >__libc_start_call_main</text>
</g>
<g >
<title>BufTableLookup (277,778,026 samples, 1.01%)</title><rect x="1146.0" y="181" width="11.9" height="15.0" fill="rgb(224,89,21)" rx="2" ry="2" />
<text  x="1148.96" y="191.5" ></text>
</g>
<g >
<title>read_stream_next_buffer (858,121,482 samples, 3.12%)</title><rect x="1136.0" y="213" width="36.9" height="15.0" fill="rgb(216,50,12)" rx="2" ry="2" />
<text  x="1139.04" y="223.5" >rea..</text>
</g>
<g >
<title>GetPrivateRefCountEntry (2,750,487 samples, 0.01%)</title><rect x="1093.6" y="197" width="0.1" height="15.0" fill="rgb(250,209,50)" rx="2" ry="2" />
<text  x="1096.59" y="207.5" ></text>
</g>
<g >
<title>asm_sysvec_apic_timer_interrupt (2,750,633 samples, 0.01%)</title><rect x="151.7" y="229" width="0.1" height="15.0" fill="rgb(232,127,30)" rx="2" ry="2" />
<text  x="154.72" y="239.5" ></text>
</g>
<g >
<title>__sysvec_apic_timer_interrupt (5,501,483 samples, 0.02%)</title><rect x="996.3" y="181" width="0.2" height="15.0" fill="rgb(242,173,41)" rx="2" ry="2" />
<text  x="999.30" y="191.5" ></text>
</g>
<g >
<title>SeqNext (3,497,314,950 samples, 12.72%)</title><rect x="1023.9" y="261" width="150.2" height="15.0" fill="rgb(214,41,10)" rx="2" ry="2" />
<text  x="1026.93" y="271.5" >SeqNext</text>
</g>
<g >
<title>hash_search_with_hash_value (277,778,026 samples, 1.01%)</title><rect x="1146.0" y="165" width="11.9" height="15.0" fill="rgb(249,205,49)" rx="2" ry="2" />
<text  x="1148.96" y="175.5" ></text>
</g>
<g >
<title>BufferGetBlockNumber (24,754,315 samples, 0.09%)</title><rect x="1036.2" y="229" width="1.1" height="15.0" fill="rgb(206,7,1)" rx="2" ry="2" />
<text  x="1039.21" y="239.5" ></text>
</g>
<g >
<title>bpcharlen (24,752,822 samples, 0.09%)</title><rect x="1174.1" y="261" width="1.0" height="15.0" fill="rgb(221,77,18)" rx="2" ry="2" />
<text  x="1177.06" y="271.5" ></text>
</g>
<g >
<title>LWLockRelease (52,259,534 samples, 0.19%)</title><rect x="1160.0" y="181" width="2.3" height="15.0" fill="rgb(217,58,13)" rx="2" ry="2" />
<text  x="1163.01" y="191.5" ></text>
</g>
<g >
<title>sync_regs (2,750,775 samples, 0.01%)</title><rect x="1135.9" y="197" width="0.1" height="15.0" fill="rgb(228,106,25)" rx="2" ry="2" />
<text  x="1138.93" y="207.5" ></text>
</g>
<g >
<title>tick_sched_handle (2,750,618 samples, 0.01%)</title><rect x="1175.0" y="149" width="0.1" height="15.0" fill="rgb(219,68,16)" rx="2" ry="2" />
<text  x="1178.01" y="159.5" ></text>
</g>
<g >
<title>__hrtimer_run_queues (2,750,699 samples, 0.01%)</title><rect x="97.6" y="181" width="0.1" height="15.0" fill="rgb(237,150,35)" rx="2" ry="2" />
<text  x="100.61" y="191.5" ></text>
</g>
<g >
<title>update_wall_time (2,750,779 samples, 0.01%)</title><rect x="444.2" y="85" width="0.2" height="15.0" fill="rgb(207,11,2)" rx="2" ry="2" />
<text  x="447.24" y="95.5" ></text>
</g>
<g >
<title>sysvec_apic_timer_interrupt (2,750,633 samples, 0.01%)</title><rect x="151.7" y="213" width="0.1" height="15.0" fill="rgb(220,69,16)" rx="2" ry="2" />
<text  x="154.72" y="223.5" ></text>
</g>
<g >
<title>ExecStoreBufferHeapTuple (1,350,435,967 samples, 4.91%)</title><rect x="1037.3" y="229" width="57.9" height="15.0" fill="rgb(230,117,28)" rx="2" ry="2" />
<text  x="1040.27" y="239.5" >ExecSt..</text>
</g>
<g >
<title>main (27,487,906,258 samples, 100.00%)</title><rect x="10.0" y="437" width="1180.0" height="15.0" fill="rgb(243,179,42)" rx="2" ry="2" />
<text  x="13.00" y="447.5" >main</text>
</g>
<g >
<title>postmaster_child_launch (27,487,906,258 samples, 100.00%)</title><rect x="10.0" y="389" width="1180.0" height="15.0" fill="rgb(206,5,1)" rx="2" ry="2" />
<text  x="13.00" y="399.5" >postmaster_child_launch</text>
</g>
<g >
<title>tts_buffer_heap_getsomeattrs (32,998,506 samples, 0.12%)</title><rect x="1018.4" y="245" width="1.4" height="15.0" fill="rgb(222,81,19)" rx="2" ry="2" />
<text  x="1021.38" y="255.5" ></text>
</g>
<g >
<title>hrtimer_interrupt (2,750,633 samples, 0.01%)</title><rect x="151.7" y="181" width="0.1" height="15.0" fill="rgb(228,109,26)" rx="2" ry="2" />
<text  x="154.72" y="191.5" ></text>
</g>
<g >
<title>ResourceOwnerForget (13,752,292 samples, 0.05%)</title><rect x="1130.1" y="197" width="0.6" height="15.0" fill="rgb(235,142,33)" rx="2" ry="2" />
<text  x="1133.14" y="207.5" ></text>
</g>
<g >
<title>hrtimer_interrupt (2,750,618 samples, 0.01%)</title><rect x="1175.0" y="197" width="0.1" height="15.0" fill="rgb(228,109,26)" rx="2" ry="2" />
<text  x="1178.01" y="207.5" ></text>
</g>
<g >
<title>__hrtimer_run_queues (2,750,633 samples, 0.01%)</title><rect x="151.7" y="165" width="0.1" height="15.0" fill="rgb(237,150,35)" rx="2" ry="2" />
<text  x="154.72" y="175.5" ></text>
</g>
<g >
<title>__calc_delta (2,750,816 samples, 0.01%)</title><rect x="996.4" y="37" width="0.1" height="15.0" fill="rgb(247,193,46)" rx="2" ry="2" />
<text  x="999.42" y="47.5" ></text>
</g>
<g >
<title>SeqNext (13,752,257 samples, 0.05%)</title><rect x="1189.4" y="277" width="0.6" height="15.0" fill="rgb(214,41,10)" rx="2" ry="2" />
<text  x="1192.41" y="287.5" ></text>
</g>
<g >
<title>LockBuffer (2,749,869 samples, 0.01%)</title><rect x="1095.2" y="229" width="0.2" height="15.0" fill="rgb(235,142,34)" rx="2" ry="2" />
<text  x="1098.24" y="239.5" ></text>
</g>
<g >
<title>task_tick_fair (2,750,699 samples, 0.01%)</title><rect x="97.6" y="101" width="0.1" height="15.0" fill="rgb(217,57,13)" rx="2" ry="2" />
<text  x="100.61" y="111.5" ></text>
</g>
<g >
<title>hash_bytes (19,251,549 samples, 0.07%)</title><rect x="1169.6" y="197" width="0.8" height="15.0" fill="rgb(227,102,24)" rx="2" ry="2" />
<text  x="1172.58" y="207.5" ></text>
</g>
<g >
<title>PortalRun (27,487,906,258 samples, 100.00%)</title><rect x="10.0" y="325" width="1180.0" height="15.0" fill="rgb(223,85,20)" rx="2" ry="2" />
<text  x="13.00" y="335.5" >PortalRun</text>
</g>
<g >
<title>sysvec_apic_timer_interrupt (2,750,618 samples, 0.01%)</title><rect x="1175.0" y="229" width="0.1" height="15.0" fill="rgb(220,69,16)" rx="2" ry="2" />
<text  x="1178.01" y="239.5" ></text>
</g>
<g >
<title>sysvec_apic_timer_interrupt (2,750,699 samples, 0.01%)</title><rect x="97.6" y="229" width="0.1" height="15.0" fill="rgb(220,69,16)" rx="2" ry="2" />
<text  x="100.61" y="239.5" ></text>
</g>
<g >
<title>heap_scan_stream_read_next_serial (2,750,905 samples, 0.01%)</title><rect x="1135.8" y="213" width="0.1" height="15.0" fill="rgb(205,4,0)" rx="2" ry="2" />
<text  x="1138.81" y="223.5" ></text>
</g>
<g >
<title>ResourceOwnerRemember (43,999,386 samples, 0.16%)</title><rect x="1167.6" y="181" width="1.9" height="15.0" fill="rgb(243,178,42)" rx="2" ry="2" />
<text  x="1170.57" y="191.5" ></text>
</g>
</g>
</svg>
