<?xml version="1.0" standalone="no"?>
<!DOCTYPE svg PUBLIC "-//W3C//DTD SVG 1.1//EN" "http://www.w3.org/Graphics/SVG/1.1/DTD/svg11.dtd">
<svg version="1.1" width="1200" height="598" onload="init(evt)" viewBox="0 0 1200 598" xmlns="http://www.w3.org/2000/svg" xmlns:xlink="http://www.w3.org/1999/xlink">
<!-- Flame graph stack visualization. See https://github.com/brendangregg/FlameGraph for latest version, and http://www.brendangregg.com/flamegraphs.html for examples. -->
<!-- NOTES:  -->
<defs>
	<linearGradient id="background" y1="0" y2="1" x1="0" x2="0" >
		<stop stop-color="#eeeeee" offset="5%" />
		<stop stop-color="#eeeeb0" offset="95%" />
	</linearGradient>
</defs>
<style type="text/css">
	text { font-family:Verdana; font-size:12px; fill:rgb(0,0,0); }
	#search, #ignorecase { opacity:0.1; cursor:pointer; }
	#search:hover, #search.show, #ignorecase:hover, #ignorecase.show { opacity:1; }
	#subtitle { text-anchor:middle; font-color:rgb(160,160,160); }
	#title { text-anchor:middle; font-size:17px}
	#unzoom { cursor:pointer; }
	#frames > *:hover { stroke:black; stroke-width:0.5; cursor:pointer; }
	.hide { display:none; }
	.parent { opacity:0.5; }
</style>
<script type="text/ecmascript">
<![CDATA[
	"use strict";
	var details, searchbtn, unzoombtn, matchedtxt, svg, searching, currentSearchTerm, ignorecase, ignorecaseBtn;
	function init(evt) {
		details = document.getElementById("details").firstChild;
		searchbtn = document.getElementById("search");
		ignorecaseBtn = document.getElementById("ignorecase");
		unzoombtn = document.getElementById("unzoom");
		matchedtxt = document.getElementById("matched");
		svg = document.getElementsByTagName("svg")[0];
		searching = 0;
		currentSearchTerm = null;

		// use GET parameters to restore a flamegraphs state.
		var params = get_params();
		if (params.x && params.y)
			zoom(find_group(document.querySelector('[x="' + params.x + '"][y="' + params.y + '"]')));
                if (params.s) search(params.s);
	}

	// event listeners
	window.addEventListener("click", function(e) {
		var target = find_group(e.target);
		if (target) {
			if (target.nodeName == "a") {
				if (e.ctrlKey === false) return;
				e.preventDefault();
			}
			if (target.classList.contains("parent")) unzoom(true);
			zoom(target);
			if (!document.querySelector('.parent')) {
				// we have basically done a clearzoom so clear the url
				var params = get_params();
				if (params.x) delete params.x;
				if (params.y) delete params.y;
				history.replaceState(null, null, parse_params(params));
				unzoombtn.classList.add("hide");
				return;
			}

			// set parameters for zoom state
			var el = target.querySelector("rect");
			if (el && el.attributes && el.attributes.y && el.attributes._orig_x) {
				var params = get_params()
				params.x = el.attributes._orig_x.value;
				params.y = el.attributes.y.value;
				history.replaceState(null, null, parse_params(params));
			}
		}
		else if (e.target.id == "unzoom") clearzoom();
		else if (e.target.id == "search") search_prompt();
		else if (e.target.id == "ignorecase") toggle_ignorecase();
	}, false)

	// mouse-over for info
	// show
	window.addEventListener("mouseover", function(e) {
		var target = find_group(e.target);
		if (target) details.nodeValue = "Function: " + g_to_text(target);
	}, false)

	// clear
	window.addEventListener("mouseout", function(e) {
		var target = find_group(e.target);
		if (target) details.nodeValue = ' ';
	}, false)

	// ctrl-F for search
	// ctrl-I to toggle case-sensitive search
	window.addEventListener("keydown",function (e) {
		if (e.keyCode === 114 || (e.ctrlKey && e.keyCode === 70)) {
			e.preventDefault();
			search_prompt();
		}
		else if (e.ctrlKey && e.keyCode === 73) {
			e.preventDefault();
			toggle_ignorecase();
		}
	}, false)

	// functions
	function get_params() {
		var params = {};
		var paramsarr = window.location.search.substr(1).split('&');
		for (var i = 0; i < paramsarr.length; ++i) {
			var tmp = paramsarr[i].split("=");
			if (!tmp[0] || !tmp[1]) continue;
			params[tmp[0]]  = decodeURIComponent(tmp[1]);
		}
		return params;
	}
	function parse_params(params) {
		var uri = "?";
		for (var key in params) {
			uri += key + '=' + encodeURIComponent(params[key]) + '&';
		}
		if (uri.slice(-1) == "&")
			uri = uri.substring(0, uri.length - 1);
		if (uri == '?')
			uri = window.location.href.split('?')[0];
		return uri;
	}
	function find_child(node, selector) {
		var children = node.querySelectorAll(selector);
		if (children.length) return children[0];
	}
	function find_group(node) {
		var parent = node.parentElement;
		if (!parent) return;
		if (parent.id == "frames") return node;
		return find_group(parent);
	}
	function orig_save(e, attr, val) {
		if (e.attributes["_orig_" + attr] != undefined) return;
		if (e.attributes[attr] == undefined) return;
		if (val == undefined) val = e.attributes[attr].value;
		e.setAttribute("_orig_" + attr, val);
	}
	function orig_load(e, attr) {
		if (e.attributes["_orig_"+attr] == undefined) return;
		e.attributes[attr].value = e.attributes["_orig_" + attr].value;
		e.removeAttribute("_orig_"+attr);
	}
	function g_to_text(e) {
		var text = find_child(e, "title").firstChild.nodeValue;
		return (text)
	}
	function g_to_func(e) {
		var func = g_to_text(e);
		// if there's any manipulation we want to do to the function
		// name before it's searched, do it here before returning.
		return (func);
	}
	function update_text(e) {
		var r = find_child(e, "rect");
		var t = find_child(e, "text");
		var w = parseFloat(r.attributes.width.value) -3;
		var txt = find_child(e, "title").textContent.replace(/\([^(]*\)$/,"");
		t.attributes.x.value = parseFloat(r.attributes.x.value) + 3;

		// Smaller than this size won't fit anything
		if (w < 2 * 12 * 0.59) {
			t.textContent = "";
			return;
		}

		t.textContent = txt;
		var sl = t.getSubStringLength(0, txt.length);
		// check if only whitespace or if we can fit the entire string into width w
		if (/^ *$/.test(txt) || sl < w)
			return;

		// this isn't perfect, but gives a good starting point
		// and avoids calling getSubStringLength too often
		var start = Math.floor((w/sl) * txt.length);
		for (var x = start; x > 0; x = x-2) {
			if (t.getSubStringLength(0, x + 2) <= w) {
				t.textContent = txt.substring(0, x) + "..";
				return;
			}
		}
		t.textContent = "";
	}

	// zoom
	function zoom_reset(e) {
		if (e.attributes != undefined) {
			orig_load(e, "x");
			orig_load(e, "width");
		}
		if (e.childNodes == undefined) return;
		for (var i = 0, c = e.childNodes; i < c.length; i++) {
			zoom_reset(c[i]);
		}
	}
	function zoom_child(e, x, ratio) {
		if (e.attributes != undefined) {
			if (e.attributes.x != undefined) {
				orig_save(e, "x");
				e.attributes.x.value = (parseFloat(e.attributes.x.value) - x - 10) * ratio + 10;
				if (e.tagName == "text")
					e.attributes.x.value = find_child(e.parentNode, "rect[x]").attributes.x.value + 3;
			}
			if (e.attributes.width != undefined) {
				orig_save(e, "width");
				e.attributes.width.value = parseFloat(e.attributes.width.value) * ratio;
			}
		}

		if (e.childNodes == undefined) return;
		for (var i = 0, c = e.childNodes; i < c.length; i++) {
			zoom_child(c[i], x - 10, ratio);
		}
	}
	function zoom_parent(e) {
		if (e.attributes) {
			if (e.attributes.x != undefined) {
				orig_save(e, "x");
				e.attributes.x.value = 10;
			}
			if (e.attributes.width != undefined) {
				orig_save(e, "width");
				e.attributes.width.value = parseInt(svg.width.baseVal.value) - (10 * 2);
			}
		}
		if (e.childNodes == undefined) return;
		for (var i = 0, c = e.childNodes; i < c.length; i++) {
			zoom_parent(c[i]);
		}
	}
	function zoom(node) {
		var attr = find_child(node, "rect").attributes;
		var width = parseFloat(attr.width.value);
		var xmin = parseFloat(attr.x.value);
		var xmax = parseFloat(xmin + width);
		var ymin = parseFloat(attr.y.value);
		var ratio = (svg.width.baseVal.value - 2 * 10) / width;

		// XXX: Workaround for JavaScript float issues (fix me)
		var fudge = 0.0001;

		unzoombtn.classList.remove("hide");

		var el = document.getElementById("frames").children;
		for (var i = 0; i < el.length; i++) {
			var e = el[i];
			var a = find_child(e, "rect").attributes;
			var ex = parseFloat(a.x.value);
			var ew = parseFloat(a.width.value);
			var upstack;
			// Is it an ancestor
			if (0 == 0) {
				upstack = parseFloat(a.y.value) > ymin;
			} else {
				upstack = parseFloat(a.y.value) < ymin;
			}
			if (upstack) {
				// Direct ancestor
				if (ex <= xmin && (ex+ew+fudge) >= xmax) {
					e.classList.add("parent");
					zoom_parent(e);
					update_text(e);
				}
				// not in current path
				else
					e.classList.add("hide");
			}
			// Children maybe
			else {
				// no common path
				if (ex < xmin || ex + fudge >= xmax) {
					e.classList.add("hide");
				}
				else {
					zoom_child(e, xmin, ratio);
					update_text(e);
				}
			}
		}
		search();
	}
	function unzoom(dont_update_text) {
		unzoombtn.classList.add("hide");
		var el = document.getElementById("frames").children;
		for(var i = 0; i < el.length; i++) {
			el[i].classList.remove("parent");
			el[i].classList.remove("hide");
			zoom_reset(el[i]);
			if(!dont_update_text) update_text(el[i]);
		}
		search();
	}
	function clearzoom() {
		unzoom();

		// remove zoom state
		var params = get_params();
		if (params.x) delete params.x;
		if (params.y) delete params.y;
		history.replaceState(null, null, parse_params(params));
	}

	// search
	function toggle_ignorecase() {
		ignorecase = !ignorecase;
		if (ignorecase) {
			ignorecaseBtn.classList.add("show");
		} else {
			ignorecaseBtn.classList.remove("show");
		}
		reset_search();
		search();
	}
	function reset_search() {
		var el = document.querySelectorAll("#frames rect");
		for (var i = 0; i < el.length; i++) {
			orig_load(el[i], "fill")
		}
		var params = get_params();
		delete params.s;
		history.replaceState(null, null, parse_params(params));
	}
	function search_prompt() {
		if (!searching) {
			var term = prompt("Enter a search term (regexp " +
			    "allowed, eg: ^ext4_)"
			    + (ignorecase ? ", ignoring case" : "")
			    + "\nPress Ctrl-i to toggle case sensitivity", "");
			if (term != null) search(term);
		} else {
			reset_search();
			searching = 0;
			currentSearchTerm = null;
			searchbtn.classList.remove("show");
			searchbtn.firstChild.nodeValue = "Search"
			matchedtxt.classList.add("hide");
			matchedtxt.firstChild.nodeValue = ""
		}
	}
	function search(term) {
		if (term) currentSearchTerm = term;

		var re = new RegExp(currentSearchTerm, ignorecase ? 'i' : '');
		var el = document.getElementById("frames").children;
		var matches = new Object();
		var maxwidth = 0;
		for (var i = 0; i < el.length; i++) {
			var e = el[i];
			var func = g_to_func(e);
			var rect = find_child(e, "rect");
			if (func == null || rect == null)
				continue;

			// Save max width. Only works as we have a root frame
			var w = parseFloat(rect.attributes.width.value);
			if (w > maxwidth)
				maxwidth = w;

			if (func.match(re)) {
				// highlight
				var x = parseFloat(rect.attributes.x.value);
				orig_save(rect, "fill");
				rect.attributes.fill.value = "rgb(230,0,230)";

				// remember matches
				if (matches[x] == undefined) {
					matches[x] = w;
				} else {
					if (w > matches[x]) {
						// overwrite with parent
						matches[x] = w;
					}
				}
				searching = 1;
			}
		}
		if (!searching)
			return;
		var params = get_params();
		params.s = currentSearchTerm;
		history.replaceState(null, null, parse_params(params));

		searchbtn.classList.add("show");
		searchbtn.firstChild.nodeValue = "Reset Search";

		// calculate percent matched, excluding vertical overlap
		var count = 0;
		var lastx = -1;
		var lastw = 0;
		var keys = Array();
		for (k in matches) {
			if (matches.hasOwnProperty(k))
				keys.push(k);
		}
		// sort the matched frames by their x location
		// ascending, then width descending
		keys.sort(function(a, b){
			return a - b;
		});
		// Step through frames saving only the biggest bottom-up frames
		// thanks to the sort order. This relies on the tree property
		// where children are always smaller than their parents.
		var fudge = 0.0001;	// JavaScript floating point
		for (var k in keys) {
			var x = parseFloat(keys[k]);
			var w = matches[keys[k]];
			if (x >= lastx + lastw - fudge) {
				count += w;
				lastx = x;
				lastw = w;
			}
		}
		// display matched percent
		matchedtxt.classList.remove("hide");
		var pct = 100 * count / maxwidth;
		if (pct != 100) pct = pct.toFixed(1)
		matchedtxt.firstChild.nodeValue = "Matched: " + pct + "%";
	}
]]>
</script>
<rect x="0.0" y="0" width="1200.0" height="598.0" fill="url(#background)"  />
<text id="title" x="600.00" y="24" >Flame Graph</text>
<text id="details" x="10.00" y="581" > </text>
<text id="unzoom" x="10.00" y="24" class="hide">Reset Zoom</text>
<text id="search" x="1090.00" y="24" >Search</text>
<text id="ignorecase" x="1174.00" y="24" >ic</text>
<text id="matched" x="1090.00" y="581" > </text>
<g id="frames">
<g >
<title>ExecScanFetch (78,500,000 samples, 0.25%)</title><rect x="996.4" y="325" width="2.9" height="15.0" fill="rgb(222,80,19)" rx="2" ry="2" />
<text  x="999.36" y="335.5" ></text>
</g>
<g >
<title>postgres (31,383,000,000 samples, 100.00%)</title><rect x="10.0" y="533" width="1180.0" height="15.0" fill="rgb(233,131,31)" rx="2" ry="2" />
<text  x="13.00" y="543.5" >postgres</text>
</g>
<g >
<title>__handle_mm_fault (787,500,000 samples, 2.51%)</title><rect x="1105.4" y="181" width="29.6" height="15.0" fill="rgb(207,9,2)" rx="2" ry="2" />
<text  x="1108.38" y="191.5" >__..</text>
</g>
<g >
<title>hash_bytes (29,500,000 samples, 0.09%)</title><rect x="1172.5" y="261" width="1.1" height="15.0" fill="rgb(227,102,24)" rx="2" ry="2" />
<text  x="1175.48" y="271.5" ></text>
</g>
<g >
<title>ss_report_location (4,000,000 samples, 0.01%)</title><rect x="1173.9" y="245" width="0.2" height="15.0" fill="rgb(249,202,48)" rx="2" ry="2" />
<text  x="1176.94" y="255.5" ></text>
</g>
<g >
<title>LWLockRelease (7,500,000 samples, 0.02%)</title><rect x="1170.5" y="245" width="0.3" height="15.0" fill="rgb(217,58,13)" rx="2" ry="2" />
<text  x="1173.54" y="255.5" ></text>
</g>
<g >
<title>LWLockRelease (11,000,000 samples, 0.04%)</title><rect x="1073.5" y="277" width="0.4" height="15.0" fill="rgb(217,58,13)" rx="2" ry="2" />
<text  x="1076.52" y="287.5" ></text>
</g>
<g >
<title>__pte_offset_map_lock (4,500,000 samples, 0.01%)</title><rect x="1113.6" y="101" width="0.2" height="15.0" fill="rgb(240,163,39)" rx="2" ry="2" />
<text  x="1116.62" y="111.5" ></text>
</g>
<g >
<title>ReleaseBuffer (5,000,000 samples, 0.02%)</title><rect x="1041.4" y="293" width="0.2" height="15.0" fill="rgb(220,71,17)" rx="2" ry="2" />
<text  x="1044.37" y="303.5" ></text>
</g>
<g >
<title>read_stream_next_buffer (930,500,000 samples, 2.96%)</title><rect x="1139.1" y="277" width="35.0" height="15.0" fill="rgb(216,50,12)" rx="2" ry="2" />
<text  x="1142.15" y="287.5" >re..</text>
</g>
<g >
<title>update_process_times (7,000,000 samples, 0.02%)</title><rect x="937.4" y="165" width="0.3" height="15.0" fill="rgb(250,209,50)" rx="2" ry="2" />
<text  x="940.42" y="175.5" ></text>
</g>
<g >
<title>pte_alloc_one (9,000,000 samples, 0.03%)</title><rect x="1133.8" y="117" width="0.3" height="15.0" fill="rgb(252,217,51)" rx="2" ry="2" />
<text  x="1136.77" y="127.5" ></text>
</g>
<g >
<title>irqentry_exit (16,000,000 samples, 0.05%)</title><rect x="1137.4" y="213" width="0.6" height="15.0" fill="rgb(219,66,15)" rx="2" ry="2" />
<text  x="1140.44" y="223.5" ></text>
</g>
<g >
<title>hash_search_with_hash_value (728,500,000 samples, 2.32%)</title><rect x="1141.5" y="229" width="27.4" height="15.0" fill="rgb(249,205,49)" rx="2" ry="2" />
<text  x="1144.48" y="239.5" >h..</text>
</g>
<g >
<title>filemap_map_pages (8,000,000 samples, 0.03%)</title><rect x="1171.7" y="101" width="0.3" height="15.0" fill="rgb(229,112,27)" rx="2" ry="2" />
<text  x="1174.75" y="111.5" ></text>
</g>
<g >
<title>hrtimer_interrupt (9,500,000 samples, 0.03%)</title><rect x="937.3" y="229" width="0.4" height="15.0" fill="rgb(228,109,26)" rx="2" ry="2" />
<text  x="940.35" y="239.5" ></text>
</g>
<g >
<title>sysvec_apic_timer_interrupt (8,000,000 samples, 0.03%)</title><rect x="441.3" y="261" width="0.3" height="15.0" fill="rgb(220,69,16)" rx="2" ry="2" />
<text  x="444.25" y="271.5" ></text>
</g>
<g >
<title>pte_offset_map_nolock (7,000,000 samples, 0.02%)</title><rect x="1134.7" y="149" width="0.3" height="15.0" fill="rgb(240,162,38)" rx="2" ry="2" />
<text  x="1137.71" y="159.5" ></text>
</g>
<g >
<title>get_page_from_freelist (6,000,000 samples, 0.02%)</title><rect x="1133.8" y="53" width="0.3" height="15.0" fill="rgb(252,218,52)" rx="2" ry="2" />
<text  x="1136.83" y="63.5" ></text>
</g>
<g >
<title>do_fault (4,000,000 samples, 0.01%)</title><rect x="1168.6" y="117" width="0.1" height="15.0" fill="rgb(248,200,47)" rx="2" ry="2" />
<text  x="1171.57" y="127.5" ></text>
</g>
<g >
<title>mas_walk (12,000,000 samples, 0.04%)</title><rect x="1136.8" y="181" width="0.4" height="15.0" fill="rgb(242,170,40)" rx="2" ry="2" />
<text  x="1139.78" y="191.5" ></text>
</g>
<g >
<title>PinBuffer (34,500,000 samples, 0.11%)</title><rect x="1170.8" y="245" width="1.3" height="15.0" fill="rgb(219,64,15)" rx="2" ry="2" />
<text  x="1173.82" y="255.5" ></text>
</g>
<g >
<title>__irqentry_text_end (6,500,000 samples, 0.02%)</title><rect x="1100.3" y="245" width="0.2" height="15.0" fill="rgb(248,199,47)" rx="2" ry="2" />
<text  x="1103.27" y="255.5" ></text>
</g>
<g >
<title>scheduler_tick (4,500,000 samples, 0.01%)</title><rect x="937.5" y="149" width="0.2" height="15.0" fill="rgb(246,190,45)" rx="2" ry="2" />
<text  x="940.50" y="159.5" ></text>
</g>
<g >
<title>do_user_addr_fault (6,000,000 samples, 0.02%)</title><rect x="1168.5" y="181" width="0.3" height="15.0" fill="rgb(228,108,25)" rx="2" ry="2" />
<text  x="1171.55" y="191.5" ></text>
</g>
<g >
<title>ResourceOwnerEnlarge (6,500,000 samples, 0.02%)</title><rect x="1038.9" y="261" width="0.2" height="15.0" fill="rgb(223,86,20)" rx="2" ry="2" />
<text  x="1041.87" y="271.5" ></text>
</g>
<g >
<title>sysvec_apic_timer_interrupt (12,000,000 samples, 0.04%)</title><rect x="937.3" y="261" width="0.5" height="15.0" fill="rgb(220,69,16)" rx="2" ry="2" />
<text  x="940.31" y="271.5" ></text>
</g>
<g >
<title>bpcharlen (22,720,000,000 samples, 72.40%)</title><rect x="83.5" y="309" width="854.3" height="15.0" fill="rgb(221,77,18)" rx="2" ry="2" />
<text  x="86.49" y="319.5" >bpcharlen</text>
</g>
<g >
<title>lock_mm_and_find_vma (21,000,000 samples, 0.07%)</title><rect x="1135.7" y="197" width="0.8" height="15.0" fill="rgb(235,138,33)" rx="2" ry="2" />
<text  x="1138.69" y="207.5" ></text>
</g>
<g >
<title>PortalRunSelect (31,381,000,000 samples, 99.99%)</title><rect x="10.1" y="373" width="1179.9" height="15.0" fill="rgb(245,188,45)" rx="2" ry="2" />
<text  x="13.08" y="383.5" >PortalRunSelect</text>
</g>
<g >
<title>[postgres] (31,381,000,000 samples, 99.99%)</title><rect x="10.1" y="453" width="1179.9" height="15.0" fill="rgb(245,184,44)" rx="2" ry="2" />
<text  x="13.08" y="463.5" >[postgres]</text>
</g>
<g >
<title>exec_simple_query (31,381,000,000 samples, 99.99%)</title><rect x="10.1" y="405" width="1179.9" height="15.0" fill="rgb(211,29,6)" rx="2" ry="2" />
<text  x="13.08" y="415.5" >exec_simple_query</text>
</g>
<g >
<title>ResourceOwnerForget (9,500,000 samples, 0.03%)</title><rect x="1074.5" y="261" width="0.3" height="15.0" fill="rgb(235,142,33)" rx="2" ry="2" />
<text  x="1077.46" y="271.5" ></text>
</g>
<g >
<title>handle_mm_fault (11,000,000 samples, 0.04%)</title><rect x="1171.7" y="181" width="0.4" height="15.0" fill="rgb(234,135,32)" rx="2" ry="2" />
<text  x="1174.65" y="191.5" ></text>
</g>
<g >
<title>mt_find (13,500,000 samples, 0.04%)</title><rect x="1136.0" y="165" width="0.5" height="15.0" fill="rgb(252,218,52)" rx="2" ry="2" />
<text  x="1138.97" y="175.5" ></text>
</g>
<g >
<title>irqentry_exit (3,000,000 samples, 0.01%)</title><rect x="1138.1" y="229" width="0.2" height="15.0" fill="rgb(219,66,15)" rx="2" ry="2" />
<text  x="1141.15" y="239.5" ></text>
</g>
<g >
<title>__handle_mm_fault (11,000,000 samples, 0.04%)</title><rect x="1171.7" y="165" width="0.4" height="15.0" fill="rgb(207,9,2)" rx="2" ry="2" />
<text  x="1174.65" y="175.5" ></text>
</g>
<g >
<title>mtree_range_walk (8,500,000 samples, 0.03%)</title><rect x="1136.9" y="165" width="0.3" height="15.0" fill="rgb(215,49,11)" rx="2" ry="2" />
<text  x="1139.91" y="175.5" ></text>
</g>
<g >
<title>srso_alias_safe_ret (9,500,000 samples, 0.03%)</title><rect x="1134.1" y="117" width="0.4" height="15.0" fill="rgb(242,170,40)" rx="2" ry="2" />
<text  x="1137.11" y="127.5" ></text>
</g>
<g >
<title>handle_pte_fault (759,500,000 samples, 2.42%)</title><rect x="1106.4" y="165" width="28.6" height="15.0" fill="rgb(217,57,13)" rx="2" ry="2" />
<text  x="1109.42" y="175.5" >ha..</text>
</g>
<g >
<title>irqentry_exit_to_user_mode (13,000,000 samples, 0.04%)</title><rect x="1137.5" y="197" width="0.5" height="15.0" fill="rgb(254,229,54)" rx="2" ry="2" />
<text  x="1140.53" y="207.5" ></text>
</g>
<g >
<title>__handle_mm_fault (5,000,000 samples, 0.02%)</title><rect x="1168.5" y="149" width="0.2" height="15.0" fill="rgb(207,9,2)" rx="2" ry="2" />
<text  x="1171.55" y="159.5" ></text>
</g>
<g >
<title>mtree_range_walk (6,000,000 samples, 0.02%)</title><rect x="1136.3" y="149" width="0.2" height="15.0" fill="rgb(215,49,11)" rx="2" ry="2" />
<text  x="1139.25" y="159.5" ></text>
</g>
<g >
<title>__hrtimer_run_queues (8,500,000 samples, 0.03%)</title><rect x="937.4" y="213" width="0.3" height="15.0" fill="rgb(237,150,35)" rx="2" ry="2" />
<text  x="940.37" y="223.5" ></text>
</g>
<g >
<title>do_set_pte (195,000,000 samples, 0.62%)</title><rect x="1114.0" y="101" width="7.3" height="15.0" fill="rgb(253,221,52)" rx="2" ry="2" />
<text  x="1116.99" y="111.5" ></text>
</g>
<g >
<title>int4lt (104,000,000 samples, 0.33%)</title><rect x="1184.7" y="325" width="3.9" height="15.0" fill="rgb(242,172,41)" rx="2" ry="2" />
<text  x="1187.66" y="335.5" ></text>
</g>
<g >
<title>handle_mm_fault (5,500,000 samples, 0.02%)</title><rect x="1168.5" y="165" width="0.3" height="15.0" fill="rgb(234,135,32)" rx="2" ry="2" />
<text  x="1171.55" y="175.5" ></text>
</g>
<g >
<title>ExecInterpExpr (93,500,000 samples, 0.30%)</title><rect x="10.1" y="341" width="3.5" height="15.0" fill="rgb(225,96,22)" rx="2" ry="2" />
<text  x="13.08" y="351.5" ></text>
</g>
<g >
<title>heap_page_prune_opt (1,239,000,000 samples, 3.95%)</title><rect x="1092.4" y="261" width="46.5" height="15.0" fill="rgb(211,29,7)" rx="2" ry="2" />
<text  x="1095.35" y="271.5" >heap..</text>
</g>
<g >
<title>__libc_start_call_main (31,381,000,000 samples, 99.99%)</title><rect x="10.1" y="517" width="1179.9" height="15.0" fill="rgb(210,26,6)" rx="2" ry="2" />
<text  x="13.08" y="527.5" >__libc_start_call_main</text>
</g>
<g >
<title>[postgres] (31,381,000,000 samples, 99.99%)</title><rect x="10.1" y="437" width="1179.9" height="15.0" fill="rgb(245,184,44)" rx="2" ry="2" />
<text  x="13.08" y="447.5" >[postgres]</text>
</g>
<g >
<title>xas_descend (9,000,000 samples, 0.03%)</title><rect x="1132.6" y="69" width="0.3" height="15.0" fill="rgb(215,47,11)" rx="2" ry="2" />
<text  x="1135.57" y="79.5" ></text>
</g>
<g >
<title>UnpinBufferNoOwner (34,500,000 samples, 0.11%)</title><rect x="1039.8" y="277" width="1.3" height="15.0" fill="rgb(253,221,53)" rx="2" ry="2" />
<text  x="1042.83" y="287.5" ></text>
</g>
<g >
<title>ServerLoop (31,381,000,000 samples, 99.99%)</title><rect x="10.1" y="469" width="1179.9" height="15.0" fill="rgb(238,155,37)" rx="2" ry="2" />
<text  x="13.08" y="479.5" >ServerLoop</text>
</g>
<g >
<title>asm_exc_page_fault (6,500,000 samples, 0.02%)</title><rect x="1168.5" y="213" width="0.3" height="15.0" fill="rgb(225,93,22)" rx="2" ry="2" />
<text  x="1171.55" y="223.5" ></text>
</g>
<g >
<title>fpregs_assert_state_consistent (4,000,000 samples, 0.01%)</title><rect x="1137.9" y="181" width="0.1" height="15.0" fill="rgb(228,109,26)" rx="2" ry="2" />
<text  x="1140.87" y="191.5" ></text>
</g>
<g >
<title>standard_ExecutorRun (31,381,000,000 samples, 99.99%)</title><rect x="10.1" y="357" width="1179.9" height="15.0" fill="rgb(247,196,47)" rx="2" ry="2" />
<text  x="13.08" y="367.5" >standard_ExecutorRun</text>
</g>
<g >
<title>next_uptodate_page (4,000,000 samples, 0.01%)</title><rect x="1171.9" y="85" width="0.1" height="15.0" fill="rgb(210,25,6)" rx="2" ry="2" />
<text  x="1174.86" y="95.5" ></text>
</g>
<g >
<title>IncrBufferRefCount (11,000,000 samples, 0.04%)</title><rect x="1038.7" y="277" width="0.4" height="15.0" fill="rgb(209,22,5)" rx="2" ry="2" />
<text  x="1041.70" y="287.5" ></text>
</g>
<g >
<title>update_process_times (3,500,000 samples, 0.01%)</title><rect x="441.3" y="165" width="0.2" height="15.0" fill="rgb(250,209,50)" rx="2" ry="2" />
<text  x="444.35" y="175.5" ></text>
</g>
<g >
<title>hrtimer_interrupt (7,500,000 samples, 0.02%)</title><rect x="441.3" y="229" width="0.3" height="15.0" fill="rgb(228,109,26)" rx="2" ry="2" />
<text  x="444.27" y="239.5" ></text>
</g>
<g >
<title>lock_vma_under_rcu (20,000,000 samples, 0.06%)</title><rect x="1136.5" y="197" width="0.7" height="15.0" fill="rgb(251,211,50)" rx="2" ry="2" />
<text  x="1139.48" y="207.5" ></text>
</g>
<g >
<title>heapgettup_pagemode (4,500,000 samples, 0.01%)</title><rect x="1174.1" y="309" width="0.2" height="15.0" fill="rgb(242,170,40)" rx="2" ry="2" />
<text  x="1177.13" y="319.5" ></text>
</g>
<g >
<title>ResourceOwnerRemember (4,000,000 samples, 0.01%)</title><rect x="1172.2" y="245" width="0.2" height="15.0" fill="rgb(243,178,42)" rx="2" ry="2" />
<text  x="1175.23" y="255.5" ></text>
</g>
<g >
<title>asm_sysvec_apic_timer_interrupt (9,000,000 samples, 0.03%)</title><rect x="441.2" y="277" width="0.4" height="15.0" fill="rgb(232,127,30)" rx="2" ry="2" />
<text  x="444.22" y="287.5" ></text>
</g>
<g >
<title>IOContextForStrategy (3,000,000 samples, 0.01%)</title><rect x="1168.9" y="245" width="0.1" height="15.0" fill="rgb(241,169,40)" rx="2" ry="2" />
<text  x="1171.91" y="255.5" ></text>
</g>
<g >
<title>filemap_map_pages (681,500,000 samples, 2.17%)</title><rect x="1107.5" y="117" width="25.6" height="15.0" fill="rgb(229,112,27)" rx="2" ry="2" />
<text  x="1110.51" y="127.5" >f..</text>
</g>
<g >
<title>do_set_pte (3,000,000 samples, 0.01%)</title><rect x="1107.4" y="117" width="0.1" height="15.0" fill="rgb(253,221,52)" rx="2" ry="2" />
<text  x="1110.39" y="127.5" ></text>
</g>
<g >
<title>do_read_fault (4,000,000 samples, 0.01%)</title><rect x="1168.6" y="101" width="0.1" height="15.0" fill="rgb(223,84,20)" rx="2" ry="2" />
<text  x="1171.57" y="111.5" ></text>
</g>
<g >
<title>folio_test_hugetlb (15,000,000 samples, 0.05%)</title><rect x="1133.1" y="117" width="0.6" height="15.0" fill="rgb(247,196,46)" rx="2" ry="2" />
<text  x="1136.13" y="127.5" ></text>
</g>
<g >
<title>do_user_addr_fault (11,500,000 samples, 0.04%)</title><rect x="1171.7" y="197" width="0.4" height="15.0" fill="rgb(228,108,25)" rx="2" ry="2" />
<text  x="1174.65" y="207.5" ></text>
</g>
<g >
<title>count_memcg_events.constprop.0 (8,500,000 samples, 0.03%)</title><rect x="1135.0" y="181" width="0.3" height="15.0" fill="rgb(213,41,9)" rx="2" ry="2" />
<text  x="1137.99" y="191.5" ></text>
</g>
<g >
<title>page_add_file_rmap (3,500,000 samples, 0.01%)</title><rect x="1131.1" y="101" width="0.2" height="15.0" fill="rgb(207,13,3)" rx="2" ry="2" />
<text  x="1134.12" y="111.5" ></text>
</g>
<g >
<title>tick_sched_timer (7,500,000 samples, 0.02%)</title><rect x="937.4" y="197" width="0.3" height="15.0" fill="rgb(254,227,54)" rx="2" ry="2" />
<text  x="940.40" y="207.5" ></text>
</g>
<g >
<title>tts_buffer_heap_getsomeattrs (1,268,000,000 samples, 4.04%)</title><rect x="946.6" y="293" width="47.7" height="15.0" fill="rgb(222,81,19)" rx="2" ry="2" />
<text  x="949.63" y="303.5" >tts_..</text>
</g>
<g >
<title>ReleaseBuffer (17,000,000 samples, 0.05%)</title><rect x="1039.1" y="277" width="0.7" height="15.0" fill="rgb(220,71,17)" rx="2" ry="2" />
<text  x="1042.11" y="287.5" ></text>
</g>
<g >
<title>BufferGetBlockNumber (3,500,000 samples, 0.01%)</title><rect x="1024.1" y="293" width="0.2" height="15.0" fill="rgb(206,7,1)" rx="2" ry="2" />
<text  x="1027.15" y="303.5" ></text>
</g>
<g >
<title>find_vma (17,000,000 samples, 0.05%)</title><rect x="1135.8" y="181" width="0.7" height="15.0" fill="rgb(213,37,8)" rx="2" ry="2" />
<text  x="1138.84" y="191.5" ></text>
</g>
<g >
<title>__rcu_read_unlock (4,000,000 samples, 0.01%)</title><rect x="1107.2" y="117" width="0.2" height="15.0" fill="rgb(253,224,53)" rx="2" ry="2" />
<text  x="1110.24" y="127.5" ></text>
</g>
<g >
<title>LWLockAcquire (4,000,000 samples, 0.01%)</title><rect x="1169.0" y="245" width="0.2" height="15.0" fill="rgb(209,20,4)" rx="2" ry="2" />
<text  x="1172.02" y="255.5" ></text>
</g>
<g >
<title>LWLockAcquire (10,000,000 samples, 0.03%)</title><rect x="1091.6" y="261" width="0.4" height="15.0" fill="rgb(209,20,4)" rx="2" ry="2" />
<text  x="1094.62" y="271.5" ></text>
</g>
<g >
<title>UnpinBufferNoOwner (4,500,000 samples, 0.01%)</title><rect x="1041.7" y="293" width="0.2" height="15.0" fill="rgb(253,221,53)" rx="2" ry="2" />
<text  x="1044.69" y="303.5" ></text>
</g>
<g >
<title>ExecStoreBufferHeapTuple (449,500,000 samples, 1.43%)</title><rect x="1024.3" y="293" width="16.9" height="15.0" fill="rgb(230,117,28)" rx="2" ry="2" />
<text  x="1027.28" y="303.5" ></text>
</g>
<g >
<title>heap_prepare_pagescan (1,684,000,000 samples, 5.37%)</title><rect x="1075.6" y="277" width="63.4" height="15.0" fill="rgb(222,82,19)" rx="2" ry="2" />
<text  x="1078.64" y="287.5" >heap_p..</text>
</g>
<g >
<title>exit_to_user_mode_prepare (8,500,000 samples, 0.03%)</title><rect x="1137.5" y="181" width="0.4" height="15.0" fill="rgb(228,108,25)" rx="2" ry="2" />
<text  x="1140.55" y="191.5" ></text>
</g>
<g >
<title>heap_getnextslot (210,500,000 samples, 0.67%)</title><rect x="1176.7" y="325" width="8.0" height="15.0" fill="rgb(213,40,9)" rx="2" ry="2" />
<text  x="1179.75" y="335.5" ></text>
</g>
<g >
<title>ResourceOwnerForget (11,500,000 samples, 0.04%)</title><rect x="1039.3" y="261" width="0.5" height="15.0" fill="rgb(235,142,33)" rx="2" ry="2" />
<text  x="1042.32" y="271.5" ></text>
</g>
<g >
<title>pg_mbstrlen_with_len (10,000,000 samples, 0.03%)</title><rect x="943.3" y="309" width="0.3" height="15.0" fill="rgb(228,106,25)" rx="2" ry="2" />
<text  x="946.27" y="319.5" ></text>
</g>
<g >
<title>LockBuffer (6,000,000 samples, 0.02%)</title><rect x="1073.9" y="277" width="0.3" height="15.0" fill="rgb(235,142,34)" rx="2" ry="2" />
<text  x="1076.93" y="287.5" ></text>
</g>
<g >
<title>sync_regs (8,000,000 samples, 0.03%)</title><rect x="1138.6" y="245" width="0.3" height="15.0" fill="rgb(228,106,25)" rx="2" ry="2" />
<text  x="1141.64" y="255.5" ></text>
</g>
<g >
<title>pg_detoast_datum_packed (88,500,000 samples, 0.28%)</title><rect x="939.9" y="309" width="3.4" height="15.0" fill="rgb(238,155,37)" rx="2" ry="2" />
<text  x="942.94" y="319.5" ></text>
</g>
<g >
<title>SeqNext (4,553,500,000 samples, 14.51%)</title><rect x="1003.1" y="325" width="171.2" height="15.0" fill="rgb(214,41,10)" rx="2" ry="2" />
<text  x="1006.09" y="335.5" >SeqNext</text>
</g>
<g >
<title>pg_utf_mblen_private (13,197,000,000 samples, 42.05%)</title><rect x="441.6" y="293" width="496.2" height="15.0" fill="rgb(242,173,41)" rx="2" ry="2" />
<text  x="444.55" y="303.5" >pg_utf_mblen_private</text>
</g>
<g >
<title>__memcmp_avx2_movbe (11,000,000 samples, 0.04%)</title><rect x="1141.1" y="229" width="0.4" height="15.0" fill="rgb(224,91,21)" rx="2" ry="2" />
<text  x="1144.06" y="239.5" ></text>
</g>
<g >
<title>__hrtimer_run_queues (5,500,000 samples, 0.02%)</title><rect x="441.3" y="213" width="0.2" height="15.0" fill="rgb(237,150,35)" rx="2" ry="2" />
<text  x="444.27" y="223.5" ></text>
</g>
<g >
<title>heap_scan_stream_read_next_serial (13,500,000 samples, 0.04%)</title><rect x="1173.6" y="261" width="0.5" height="15.0" fill="rgb(205,4,0)" rx="2" ry="2" />
<text  x="1176.59" y="271.5" ></text>
</g>
<g >
<title>asm_exc_page_fault (1,004,500,000 samples, 3.20%)</title><rect x="1100.5" y="245" width="37.8" height="15.0" fill="rgb(225,93,22)" rx="2" ry="2" />
<text  x="1103.51" y="255.5" >asm..</text>
</g>
<g >
<title>do_read_fault (9,000,000 samples, 0.03%)</title><rect x="1171.7" y="117" width="0.4" height="15.0" fill="rgb(223,84,20)" rx="2" ry="2" />
<text  x="1174.73" y="127.5" ></text>
</g>
<g >
<title>exc_page_fault (12,000,000 samples, 0.04%)</title><rect x="1171.7" y="213" width="0.4" height="15.0" fill="rgb(212,35,8)" rx="2" ry="2" />
<text  x="1174.65" y="223.5" ></text>
</g>
<g >
<title>main (31,381,000,000 samples, 99.99%)</title><rect x="10.1" y="501" width="1179.9" height="15.0" fill="rgb(243,179,42)" rx="2" ry="2" />
<text  x="13.08" y="511.5" >main</text>
</g>
<g >
<title>LWLockAttemptLock (6,500,000 samples, 0.02%)</title><rect x="1092.0" y="261" width="0.2" height="15.0" fill="rgb(235,138,33)" rx="2" ry="2" />
<text  x="1095.00" y="271.5" ></text>
</g>
<g >
<title>pg_mbstrlen_with_len (3,000,000 samples, 0.01%)</title><rect x="1139.0" y="277" width="0.1" height="15.0" fill="rgb(228,106,25)" rx="2" ry="2" />
<text  x="1142.03" y="287.5" ></text>
</g>
<g >
<title>mem_cgroup_from_task (4,000,000 samples, 0.01%)</title><rect x="1135.3" y="181" width="0.2" height="15.0" fill="rgb(247,195,46)" rx="2" ry="2" />
<text  x="1138.35" y="191.5" ></text>
</g>
<g >
<title>tts_buffer_heap_getsomeattrs (54,500,000 samples, 0.17%)</title><rect x="994.3" y="309" width="2.1" height="15.0" fill="rgb(222,81,19)" rx="2" ry="2" />
<text  x="997.31" y="319.5" ></text>
</g>
<g >
<title>clear_page_erms (3,000,000 samples, 0.01%)</title><rect x="1133.8" y="37" width="0.2" height="15.0" fill="rgb(229,113,27)" rx="2" ry="2" />
<text  x="1136.84" y="47.5" ></text>
</g>
<g >
<title>PostgresMain (31,381,000,000 samples, 99.99%)</title><rect x="10.1" y="421" width="1179.9" height="15.0" fill="rgb(227,103,24)" rx="2" ry="2" />
<text  x="13.08" y="431.5" >PostgresMain</text>
</g>
<g >
<title>xas_find (3,500,000 samples, 0.01%)</title><rect x="1134.5" y="117" width="0.1" height="15.0" fill="rgb(211,29,7)" rx="2" ry="2" />
<text  x="1137.46" y="127.5" ></text>
</g>
<g >
<title>tick_sched_handle (7,000,000 samples, 0.02%)</title><rect x="937.4" y="181" width="0.3" height="15.0" fill="rgb(219,68,16)" rx="2" ry="2" />
<text  x="940.42" y="191.5" ></text>
</g>
<g >
<title>do_fault (9,000,000 samples, 0.03%)</title><rect x="1171.7" y="133" width="0.4" height="15.0" fill="rgb(248,200,47)" rx="2" ry="2" />
<text  x="1174.73" y="143.5" ></text>
</g>
<g >
<title>heap_getnextslot (4,195,000,000 samples, 13.37%)</title><rect x="1016.4" y="309" width="157.7" height="15.0" fill="rgb(213,40,9)" rx="2" ry="2" />
<text  x="1019.40" y="319.5" >heap_getnextslot</text>
</g>
<g >
<title>asm_sysvec_apic_timer_interrupt (13,000,000 samples, 0.04%)</title><rect x="937.3" y="277" width="0.5" height="15.0" fill="rgb(232,127,30)" rx="2" ry="2" />
<text  x="940.27" y="287.5" ></text>
</g>
<g >
<title>next_uptodate_page (250,000,000 samples, 0.80%)</title><rect x="1121.7" y="101" width="9.4" height="15.0" fill="rgb(210,25,6)" rx="2" ry="2" />
<text  x="1124.72" y="111.5" ></text>
</g>
<g >
<title>pg_database_encoding_max_length (58,000,000 samples, 0.18%)</title><rect x="937.8" y="309" width="2.1" height="15.0" fill="rgb(243,176,42)" rx="2" ry="2" />
<text  x="940.76" y="319.5" ></text>
</g>
<g >
<title>page_add_file_rmap (18,500,000 samples, 0.06%)</title><rect x="1118.8" y="85" width="0.7" height="15.0" fill="rgb(207,13,3)" rx="2" ry="2" />
<text  x="1121.84" y="95.5" ></text>
</g>
<g >
<title>PortalRun (31,381,000,000 samples, 99.99%)</title><rect x="10.1" y="389" width="1179.9" height="15.0" fill="rgb(223,85,20)" rx="2" ry="2" />
<text  x="13.08" y="399.5" >PortalRun</text>
</g>
<g >
<title>filemap_map_pages (3,500,000 samples, 0.01%)</title><rect x="1168.6" y="85" width="0.1" height="15.0" fill="rgb(229,112,27)" rx="2" ry="2" />
<text  x="1171.59" y="95.5" ></text>
</g>
<g >
<title>LWLockAttemptLock (36,500,000 samples, 0.12%)</title><rect x="1169.2" y="245" width="1.3" height="15.0" fill="rgb(235,138,33)" rx="2" ry="2" />
<text  x="1172.17" y="255.5" ></text>
</g>
<g >
<title>pg_mbstrlen_with_len (8,770,000,000 samples, 27.95%)</title><rect x="111.8" y="293" width="329.8" height="15.0" fill="rgb(228,106,25)" rx="2" ry="2" />
<text  x="114.80" y="303.5" >pg_mbstrlen_with_len</text>
</g>
<g >
<title>xas_find (40,000,000 samples, 0.13%)</title><rect x="1131.6" y="101" width="1.5" height="15.0" fill="rgb(211,29,7)" rx="2" ry="2" />
<text  x="1134.55" y="111.5" ></text>
</g>
<g >
<title>srso_alias_safe_ret (5,500,000 samples, 0.02%)</title><rect x="1131.3" y="101" width="0.3" height="15.0" fill="rgb(242,170,40)" rx="2" ry="2" />
<text  x="1134.34" y="111.5" ></text>
</g>
<g >
<title>MemoryContextReset (7,500,000 samples, 0.02%)</title><rect x="1188.9" y="341" width="0.3" height="15.0" fill="rgb(210,26,6)" rx="2" ry="2" />
<text  x="1191.93" y="351.5" ></text>
</g>
<g >
<title>exc_page_fault (930,000,000 samples, 2.96%)</title><rect x="1103.2" y="229" width="34.9" height="15.0" fill="rgb(212,35,8)" rx="2" ry="2" />
<text  x="1106.18" y="239.5" >ex..</text>
</g>
<g >
<title>bpcharlen (65,000,000 samples, 0.21%)</title><rect x="1174.3" y="325" width="2.4" height="15.0" fill="rgb(221,77,18)" rx="2" ry="2" />
<text  x="1177.30" y="335.5" ></text>
</g>
<g >
<title>BufTableLookup (740,000,000 samples, 2.36%)</title><rect x="1141.0" y="245" width="27.9" height="15.0" fill="rgb(224,89,21)" rx="2" ry="2" />
<text  x="1144.04" y="255.5" >B..</text>
</g>
<g >
<title>StartReadBuffer (864,500,000 samples, 2.75%)</title><rect x="1139.9" y="261" width="32.5" height="15.0" fill="rgb(222,78,18)" rx="2" ry="2" />
<text  x="1142.90" y="271.5" >St..</text>
</g>
<g >
<title>GetPrivateRefCountEntry (7,500,000 samples, 0.02%)</title><rect x="1171.4" y="229" width="0.3" height="15.0" fill="rgb(250,209,50)" rx="2" ry="2" />
<text  x="1174.37" y="239.5" ></text>
</g>
<g >
<title>native_set_pte (8,500,000 samples, 0.03%)</title><rect x="1121.4" y="101" width="0.3" height="15.0" fill="rgb(236,145,34)" rx="2" ry="2" />
<text  x="1124.40" y="111.5" ></text>
</g>
<g >
<title>__sysvec_apic_timer_interrupt (8,000,000 samples, 0.03%)</title><rect x="441.3" y="245" width="0.3" height="15.0" fill="rgb(242,173,41)" rx="2" ry="2" />
<text  x="444.25" y="255.5" ></text>
</g>
<g >
<title>handle_pte_fault (5,000,000 samples, 0.02%)</title><rect x="1168.5" y="133" width="0.2" height="15.0" fill="rgb(217,57,13)" rx="2" ry="2" />
<text  x="1171.55" y="143.5" ></text>
</g>
<g >
<title>ExecScan (31,251,500,000 samples, 99.58%)</title><rect x="13.6" y="341" width="1175.0" height="15.0" fill="rgb(237,150,36)" rx="2" ry="2" />
<text  x="16.59" y="351.5" >ExecScan</text>
</g>
<g >
<title>GetPrivateRefCountEntry (14,000,000 samples, 0.04%)</title><rect x="1040.6" y="261" width="0.5" height="15.0" fill="rgb(250,209,50)" rx="2" ry="2" />
<text  x="1043.60" y="271.5" ></text>
</g>
<g >
<title>SeqNext (21,000,000 samples, 0.07%)</title><rect x="1189.2" y="341" width="0.8" height="15.0" fill="rgb(214,41,10)" rx="2" ry="2" />
<text  x="1192.21" y="351.5" ></text>
</g>
<g >
<title>do_fault (743,000,000 samples, 2.37%)</title><rect x="1106.8" y="149" width="27.9" height="15.0" fill="rgb(248,200,47)" rx="2" ry="2" />
<text  x="1109.77" y="159.5" >d..</text>
</g>
<g >
<title>__count_memcg_events (5,500,000 samples, 0.02%)</title><rect x="1135.1" y="165" width="0.2" height="15.0" fill="rgb(250,211,50)" rx="2" ry="2" />
<text  x="1138.09" y="175.5" ></text>
</g>
<g >
<title>handle_mm_fault (826,500,000 samples, 2.63%)</title><rect x="1104.6" y="197" width="31.1" height="15.0" fill="rgb(234,135,32)" rx="2" ry="2" />
<text  x="1107.61" y="207.5" >ha..</text>
</g>
<g >
<title>MemoryContextReset (100,500,000 samples, 0.32%)</title><rect x="999.3" y="325" width="3.8" height="15.0" fill="rgb(210,26,6)" rx="2" ry="2" />
<text  x="1002.31" y="335.5" ></text>
</g>
<g >
<title>do_user_addr_fault (896,000,000 samples, 2.86%)</title><rect x="1103.7" y="213" width="33.7" height="15.0" fill="rgb(228,108,25)" rx="2" ry="2" />
<text  x="1106.71" y="223.5" >do..</text>
</g>
<g >
<title>ExecScanFetch (7,500,000 samples, 0.02%)</title><rect x="1188.6" y="341" width="0.3" height="15.0" fill="rgb(222,80,19)" rx="2" ry="2" />
<text  x="1191.65" y="351.5" ></text>
</g>
<g >
<title>GetPrivateRefCountEntry (15,000,000 samples, 0.05%)</title><rect x="1075.0" y="261" width="0.6" height="15.0" fill="rgb(250,209,50)" rx="2" ry="2" />
<text  x="1078.00" y="271.5" ></text>
</g>
<g >
<title>tick_sched_timer (5,000,000 samples, 0.02%)</title><rect x="441.3" y="197" width="0.2" height="15.0" fill="rgb(254,227,54)" rx="2" ry="2" />
<text  x="444.29" y="207.5" ></text>
</g>
<g >
<title>handle_pte_fault (9,500,000 samples, 0.03%)</title><rect x="1171.7" y="149" width="0.4" height="15.0" fill="rgb(217,57,13)" rx="2" ry="2" />
<text  x="1174.71" y="159.5" ></text>
</g>
<g >
<title>do_read_fault (734,000,000 samples, 2.34%)</title><rect x="1107.0" y="133" width="27.6" height="15.0" fill="rgb(223,84,20)" rx="2" ry="2" />
<text  x="1110.00" y="143.5" >d..</text>
</g>
<g >
<title>xas_load (28,000,000 samples, 0.09%)</title><rect x="1131.9" y="85" width="1.1" height="15.0" fill="rgb(217,59,14)" rx="2" ry="2" />
<text  x="1134.95" y="95.5" ></text>
</g>
<g >
<title>LockBuffer (3,500,000 samples, 0.01%)</title><rect x="1041.2" y="293" width="0.2" height="15.0" fill="rgb(235,142,34)" rx="2" ry="2" />
<text  x="1044.24" y="303.5" ></text>
</g>
<g >
<title>alloc_pages (7,500,000 samples, 0.02%)</title><rect x="1133.8" y="101" width="0.3" height="15.0" fill="rgb(210,25,6)" rx="2" ry="2" />
<text  x="1136.77" y="111.5" ></text>
</g>
<g >
<title>all (31,383,000,000 samples, 100%)</title><rect x="10.0" y="549" width="1180.0" height="15.0" fill="rgb(213,39,9)" rx="2" ry="2" />
<text  x="13.00" y="559.5" ></text>
</g>
<g >
<title>__sysvec_apic_timer_interrupt (10,000,000 samples, 0.03%)</title><rect x="937.3" y="245" width="0.4" height="15.0" fill="rgb(242,173,41)" rx="2" ry="2" />
<text  x="940.33" y="255.5" ></text>
</g>
<g >
<title>UnpinBufferNoOwner (19,500,000 samples, 0.06%)</title><rect x="1074.8" y="277" width="0.8" height="15.0" fill="rgb(253,221,53)" rx="2" ry="2" />
<text  x="1077.83" y="287.5" ></text>
</g>
<g >
<title>percpu_counter_add_batch (47,500,000 samples, 0.15%)</title><rect x="1119.5" y="85" width="1.8" height="15.0" fill="rgb(241,166,39)" rx="2" ry="2" />
<text  x="1122.54" y="95.5" ></text>
</g>
<g >
<title>ExecInterpExpr (25,991,000,000 samples, 82.82%)</title><rect x="19.1" y="325" width="977.3" height="15.0" fill="rgb(225,96,22)" rx="2" ry="2" />
<text  x="22.10" y="335.5" >ExecInterpExpr</text>
</g>
<g >
<title>slot_getsomeattrs_int (1,347,500,000 samples, 4.29%)</title><rect x="943.6" y="309" width="50.7" height="15.0" fill="rgb(252,219,52)" rx="2" ry="2" />
<text  x="946.64" y="319.5" >slot_..</text>
</g>
<g >
<title>PostmasterMain (31,381,000,000 samples, 99.99%)</title><rect x="10.1" y="485" width="1179.9" height="15.0" fill="rgb(212,35,8)" rx="2" ry="2" />
<text  x="13.08" y="495.5" >PostmasterMain</text>
</g>
<g >
<title>ReleaseBuffer (17,500,000 samples, 0.06%)</title><rect x="1074.2" y="277" width="0.6" height="15.0" fill="rgb(220,71,17)" rx="2" ry="2" />
<text  x="1077.15" y="287.5" ></text>
</g>
<g >
<title>heapgettup_pagemode (3,517,000,000 samples, 11.21%)</title><rect x="1041.9" y="293" width="132.2" height="15.0" fill="rgb(242,170,40)" rx="2" ry="2" />
<text  x="1044.89" y="303.5" >heapgettup_pagem..</text>
</g>
<g >
<title>ResourceOwnerRemember (3,500,000 samples, 0.01%)</title><rect x="1041.6" y="293" width="0.1" height="15.0" fill="rgb(243,178,42)" rx="2" ry="2" />
<text  x="1044.56" y="303.5" ></text>
</g>
<g >
<title>__alloc_pages (7,000,000 samples, 0.02%)</title><rect x="1133.8" y="69" width="0.3" height="15.0" fill="rgb(233,129,30)" rx="2" ry="2" />
<text  x="1136.79" y="79.5" ></text>
</g>
<g >
<title>error_entry (3,500,000 samples, 0.01%)</title><rect x="1138.3" y="245" width="0.2" height="15.0" fill="rgb(240,163,39)" rx="2" ry="2" />
<text  x="1141.32" y="255.5" ></text>
</g>
<g >
<title>exc_page_fault (6,500,000 samples, 0.02%)</title><rect x="1168.5" y="197" width="0.3" height="15.0" fill="rgb(212,35,8)" rx="2" ry="2" />
<text  x="1171.55" y="207.5" ></text>
</g>
<g >
<title>tick_sched_handle (3,500,000 samples, 0.01%)</title><rect x="441.3" y="181" width="0.2" height="15.0" fill="rgb(219,68,16)" rx="2" ry="2" />
<text  x="444.35" y="191.5" ></text>
</g>
<g >
<title>scheduler_tick (3,000,000 samples, 0.01%)</title><rect x="441.4" y="149" width="0.1" height="15.0" fill="rgb(246,190,45)" rx="2" ry="2" />
<text  x="444.37" y="159.5" ></text>
</g>
<g >
<title>ExecStoreBufferHeapTuple (29,500,000 samples, 0.09%)</title><rect x="1015.3" y="309" width="1.1" height="15.0" fill="rgb(230,117,28)" rx="2" ry="2" />
<text  x="1018.27" y="319.5" ></text>
</g>
<g >
<title>alloc_page_interleave (7,000,000 samples, 0.02%)</title><rect x="1133.8" y="85" width="0.3" height="15.0" fill="rgb(221,74,17)" rx="2" ry="2" />
<text  x="1136.79" y="95.5" ></text>
</g>
<g >
<title>asm_exc_page_fault (12,500,000 samples, 0.04%)</title><rect x="1171.7" y="229" width="0.4" height="15.0" fill="rgb(225,93,22)" rx="2" ry="2" />
<text  x="1174.65" y="239.5" ></text>
</g>
</g>
</svg>
