<?xml version="1.0" standalone="no"?>
<!DOCTYPE svg PUBLIC "-//W3C//DTD SVG 1.1//EN" "http://www.w3.org/Graphics/SVG/1.1/DTD/svg11.dtd">
<svg version="1.1" width="1200" height="566" onload="init(evt)" viewBox="0 0 1200 566" xmlns="http://www.w3.org/2000/svg" xmlns:xlink="http://www.w3.org/1999/xlink">
<!-- Flame graph stack visualization. See https://github.com/brendangregg/FlameGraph for latest version, and http://www.brendangregg.com/flamegraphs.html for examples. -->
<!-- NOTES:  -->
<defs>
	<linearGradient id="background" y1="0" y2="1" x1="0" x2="0" >
		<stop stop-color="#eeeeee" offset="5%" />
		<stop stop-color="#eeeeb0" offset="95%" />
	</linearGradient>
</defs>
<style type="text/css">
	text { font-family:Verdana; font-size:12px; fill:rgb(0,0,0); }
	#search, #ignorecase { opacity:0.1; cursor:pointer; }
	#search:hover, #search.show, #ignorecase:hover, #ignorecase.show { opacity:1; }
	#subtitle { text-anchor:middle; font-color:rgb(160,160,160); }
	#title { text-anchor:middle; font-size:17px}
	#unzoom { cursor:pointer; }
	#frames > *:hover { stroke:black; stroke-width:0.5; cursor:pointer; }
	.hide { display:none; }
	.parent { opacity:0.5; }
</style>
<script type="text/ecmascript">
<![CDATA[
	"use strict";
	var details, searchbtn, unzoombtn, matchedtxt, svg, searching, currentSearchTerm, ignorecase, ignorecaseBtn;
	function init(evt) {
		details = document.getElementById("details").firstChild;
		searchbtn = document.getElementById("search");
		ignorecaseBtn = document.getElementById("ignorecase");
		unzoombtn = document.getElementById("unzoom");
		matchedtxt = document.getElementById("matched");
		svg = document.getElementsByTagName("svg")[0];
		searching = 0;
		currentSearchTerm = null;

		// use GET parameters to restore a flamegraphs state.
		var params = get_params();
		if (params.x && params.y)
			zoom(find_group(document.querySelector('[x="' + params.x + '"][y="' + params.y + '"]')));
                if (params.s) search(params.s);
	}

	// event listeners
	window.addEventListener("click", function(e) {
		var target = find_group(e.target);
		if (target) {
			if (target.nodeName == "a") {
				if (e.ctrlKey === false) return;
				e.preventDefault();
			}
			if (target.classList.contains("parent")) unzoom(true);
			zoom(target);
			if (!document.querySelector('.parent')) {
				// we have basically done a clearzoom so clear the url
				var params = get_params();
				if (params.x) delete params.x;
				if (params.y) delete params.y;
				history.replaceState(null, null, parse_params(params));
				unzoombtn.classList.add("hide");
				return;
			}

			// set parameters for zoom state
			var el = target.querySelector("rect");
			if (el && el.attributes && el.attributes.y && el.attributes._orig_x) {
				var params = get_params()
				params.x = el.attributes._orig_x.value;
				params.y = el.attributes.y.value;
				history.replaceState(null, null, parse_params(params));
			}
		}
		else if (e.target.id == "unzoom") clearzoom();
		else if (e.target.id == "search") search_prompt();
		else if (e.target.id == "ignorecase") toggle_ignorecase();
	}, false)

	// mouse-over for info
	// show
	window.addEventListener("mouseover", function(e) {
		var target = find_group(e.target);
		if (target) details.nodeValue = "Function: " + g_to_text(target);
	}, false)

	// clear
	window.addEventListener("mouseout", function(e) {
		var target = find_group(e.target);
		if (target) details.nodeValue = ' ';
	}, false)

	// ctrl-F for search
	// ctrl-I to toggle case-sensitive search
	window.addEventListener("keydown",function (e) {
		if (e.keyCode === 114 || (e.ctrlKey && e.keyCode === 70)) {
			e.preventDefault();
			search_prompt();
		}
		else if (e.ctrlKey && e.keyCode === 73) {
			e.preventDefault();
			toggle_ignorecase();
		}
	}, false)

	// functions
	function get_params() {
		var params = {};
		var paramsarr = window.location.search.substr(1).split('&');
		for (var i = 0; i < paramsarr.length; ++i) {
			var tmp = paramsarr[i].split("=");
			if (!tmp[0] || !tmp[1]) continue;
			params[tmp[0]]  = decodeURIComponent(tmp[1]);
		}
		return params;
	}
	function parse_params(params) {
		var uri = "?";
		for (var key in params) {
			uri += key + '=' + encodeURIComponent(params[key]) + '&';
		}
		if (uri.slice(-1) == "&")
			uri = uri.substring(0, uri.length - 1);
		if (uri == '?')
			uri = window.location.href.split('?')[0];
		return uri;
	}
	function find_child(node, selector) {
		var children = node.querySelectorAll(selector);
		if (children.length) return children[0];
	}
	function find_group(node) {
		var parent = node.parentElement;
		if (!parent) return;
		if (parent.id == "frames") return node;
		return find_group(parent);
	}
	function orig_save(e, attr, val) {
		if (e.attributes["_orig_" + attr] != undefined) return;
		if (e.attributes[attr] == undefined) return;
		if (val == undefined) val = e.attributes[attr].value;
		e.setAttribute("_orig_" + attr, val);
	}
	function orig_load(e, attr) {
		if (e.attributes["_orig_"+attr] == undefined) return;
		e.attributes[attr].value = e.attributes["_orig_" + attr].value;
		e.removeAttribute("_orig_"+attr);
	}
	function g_to_text(e) {
		var text = find_child(e, "title").firstChild.nodeValue;
		return (text)
	}
	function g_to_func(e) {
		var func = g_to_text(e);
		// if there's any manipulation we want to do to the function
		// name before it's searched, do it here before returning.
		return (func);
	}
	function update_text(e) {
		var r = find_child(e, "rect");
		var t = find_child(e, "text");
		var w = parseFloat(r.attributes.width.value) -3;
		var txt = find_child(e, "title").textContent.replace(/\([^(]*\)$/,"");
		t.attributes.x.value = parseFloat(r.attributes.x.value) + 3;

		// Smaller than this size won't fit anything
		if (w < 2 * 12 * 0.59) {
			t.textContent = "";
			return;
		}

		t.textContent = txt;
		var sl = t.getSubStringLength(0, txt.length);
		// check if only whitespace or if we can fit the entire string into width w
		if (/^ *$/.test(txt) || sl < w)
			return;

		// this isn't perfect, but gives a good starting point
		// and avoids calling getSubStringLength too often
		var start = Math.floor((w/sl) * txt.length);
		for (var x = start; x > 0; x = x-2) {
			if (t.getSubStringLength(0, x + 2) <= w) {
				t.textContent = txt.substring(0, x) + "..";
				return;
			}
		}
		t.textContent = "";
	}

	// zoom
	function zoom_reset(e) {
		if (e.attributes != undefined) {
			orig_load(e, "x");
			orig_load(e, "width");
		}
		if (e.childNodes == undefined) return;
		for (var i = 0, c = e.childNodes; i < c.length; i++) {
			zoom_reset(c[i]);
		}
	}
	function zoom_child(e, x, ratio) {
		if (e.attributes != undefined) {
			if (e.attributes.x != undefined) {
				orig_save(e, "x");
				e.attributes.x.value = (parseFloat(e.attributes.x.value) - x - 10) * ratio + 10;
				if (e.tagName == "text")
					e.attributes.x.value = find_child(e.parentNode, "rect[x]").attributes.x.value + 3;
			}
			if (e.attributes.width != undefined) {
				orig_save(e, "width");
				e.attributes.width.value = parseFloat(e.attributes.width.value) * ratio;
			}
		}

		if (e.childNodes == undefined) return;
		for (var i = 0, c = e.childNodes; i < c.length; i++) {
			zoom_child(c[i], x - 10, ratio);
		}
	}
	function zoom_parent(e) {
		if (e.attributes) {
			if (e.attributes.x != undefined) {
				orig_save(e, "x");
				e.attributes.x.value = 10;
			}
			if (e.attributes.width != undefined) {
				orig_save(e, "width");
				e.attributes.width.value = parseInt(svg.width.baseVal.value) - (10 * 2);
			}
		}
		if (e.childNodes == undefined) return;
		for (var i = 0, c = e.childNodes; i < c.length; i++) {
			zoom_parent(c[i]);
		}
	}
	function zoom(node) {
		var attr = find_child(node, "rect").attributes;
		var width = parseFloat(attr.width.value);
		var xmin = parseFloat(attr.x.value);
		var xmax = parseFloat(xmin + width);
		var ymin = parseFloat(attr.y.value);
		var ratio = (svg.width.baseVal.value - 2 * 10) / width;

		// XXX: Workaround for JavaScript float issues (fix me)
		var fudge = 0.0001;

		unzoombtn.classList.remove("hide");

		var el = document.getElementById("frames").children;
		for (var i = 0; i < el.length; i++) {
			var e = el[i];
			var a = find_child(e, "rect").attributes;
			var ex = parseFloat(a.x.value);
			var ew = parseFloat(a.width.value);
			var upstack;
			// Is it an ancestor
			if (0 == 0) {
				upstack = parseFloat(a.y.value) > ymin;
			} else {
				upstack = parseFloat(a.y.value) < ymin;
			}
			if (upstack) {
				// Direct ancestor
				if (ex <= xmin && (ex+ew+fudge) >= xmax) {
					e.classList.add("parent");
					zoom_parent(e);
					update_text(e);
				}
				// not in current path
				else
					e.classList.add("hide");
			}
			// Children maybe
			else {
				// no common path
				if (ex < xmin || ex + fudge >= xmax) {
					e.classList.add("hide");
				}
				else {
					zoom_child(e, xmin, ratio);
					update_text(e);
				}
			}
		}
		search();
	}
	function unzoom(dont_update_text) {
		unzoombtn.classList.add("hide");
		var el = document.getElementById("frames").children;
		for(var i = 0; i < el.length; i++) {
			el[i].classList.remove("parent");
			el[i].classList.remove("hide");
			zoom_reset(el[i]);
			if(!dont_update_text) update_text(el[i]);
		}
		search();
	}
	function clearzoom() {
		unzoom();

		// remove zoom state
		var params = get_params();
		if (params.x) delete params.x;
		if (params.y) delete params.y;
		history.replaceState(null, null, parse_params(params));
	}

	// search
	function toggle_ignorecase() {
		ignorecase = !ignorecase;
		if (ignorecase) {
			ignorecaseBtn.classList.add("show");
		} else {
			ignorecaseBtn.classList.remove("show");
		}
		reset_search();
		search();
	}
	function reset_search() {
		var el = document.querySelectorAll("#frames rect");
		for (var i = 0; i < el.length; i++) {
			orig_load(el[i], "fill")
		}
		var params = get_params();
		delete params.s;
		history.replaceState(null, null, parse_params(params));
	}
	function search_prompt() {
		if (!searching) {
			var term = prompt("Enter a search term (regexp " +
			    "allowed, eg: ^ext4_)"
			    + (ignorecase ? ", ignoring case" : "")
			    + "\nPress Ctrl-i to toggle case sensitivity", "");
			if (term != null) search(term);
		} else {
			reset_search();
			searching = 0;
			currentSearchTerm = null;
			searchbtn.classList.remove("show");
			searchbtn.firstChild.nodeValue = "Search"
			matchedtxt.classList.add("hide");
			matchedtxt.firstChild.nodeValue = ""
		}
	}
	function search(term) {
		if (term) currentSearchTerm = term;

		var re = new RegExp(currentSearchTerm, ignorecase ? 'i' : '');
		var el = document.getElementById("frames").children;
		var matches = new Object();
		var maxwidth = 0;
		for (var i = 0; i < el.length; i++) {
			var e = el[i];
			var func = g_to_func(e);
			var rect = find_child(e, "rect");
			if (func == null || rect == null)
				continue;

			// Save max width. Only works as we have a root frame
			var w = parseFloat(rect.attributes.width.value);
			if (w > maxwidth)
				maxwidth = w;

			if (func.match(re)) {
				// highlight
				var x = parseFloat(rect.attributes.x.value);
				orig_save(rect, "fill");
				rect.attributes.fill.value = "rgb(230,0,230)";

				// remember matches
				if (matches[x] == undefined) {
					matches[x] = w;
				} else {
					if (w > matches[x]) {
						// overwrite with parent
						matches[x] = w;
					}
				}
				searching = 1;
			}
		}
		if (!searching)
			return;
		var params = get_params();
		params.s = currentSearchTerm;
		history.replaceState(null, null, parse_params(params));

		searchbtn.classList.add("show");
		searchbtn.firstChild.nodeValue = "Reset Search";

		// calculate percent matched, excluding vertical overlap
		var count = 0;
		var lastx = -1;
		var lastw = 0;
		var keys = Array();
		for (k in matches) {
			if (matches.hasOwnProperty(k))
				keys.push(k);
		}
		// sort the matched frames by their x location
		// ascending, then width descending
		keys.sort(function(a, b){
			return a - b;
		});
		// Step through frames saving only the biggest bottom-up frames
		// thanks to the sort order. This relies on the tree property
		// where children are always smaller than their parents.
		var fudge = 0.0001;	// JavaScript floating point
		for (var k in keys) {
			var x = parseFloat(keys[k]);
			var w = matches[keys[k]];
			if (x >= lastx + lastw - fudge) {
				count += w;
				lastx = x;
				lastw = w;
			}
		}
		// display matched percent
		matchedtxt.classList.remove("hide");
		var pct = 100 * count / maxwidth;
		if (pct != 100) pct = pct.toFixed(1)
		matchedtxt.firstChild.nodeValue = "Matched: " + pct + "%";
	}
]]>
</script>
<rect x="0.0" y="0" width="1200.0" height="566.0" fill="url(#background)"  />
<text id="title" x="600.00" y="24" >Flame Graph</text>
<text id="details" x="10.00" y="549" > </text>
<text id="unzoom" x="10.00" y="24" class="hide">Reset Zoom</text>
<text id="search" x="1090.00" y="24" >Search</text>
<text id="ignorecase" x="1174.00" y="24" >ic</text>
<text id="matched" x="1090.00" y="549" > </text>
<g id="frames">
<g >
<title>asm_sysvec_apic_timer_interrupt (11,004,041 samples, 0.04%)</title><rect x="1015.8" y="245" width="0.4" height="15.0" fill="rgb(232,127,30)" rx="2" ry="2" />
<text  x="1018.75" y="255.5" ></text>
</g>
<g >
<title>SeqNext (2,775,248,642 samples, 10.05%)</title><rect x="1057.0" y="293" width="118.5" height="15.0" fill="rgb(214,41,10)" rx="2" ry="2" />
<text  x="1059.96" y="303.5" >SeqNext</text>
</g>
<g >
<title>sysvec_apic_timer_interrupt (11,004,041 samples, 0.04%)</title><rect x="1015.8" y="229" width="0.4" height="15.0" fill="rgb(220,69,16)" rx="2" ry="2" />
<text  x="1018.75" y="239.5" ></text>
</g>
<g >
<title>update_load_avg (2,750,872 samples, 0.01%)</title><rect x="1016.1" y="85" width="0.1" height="15.0" fill="rgb(240,165,39)" rx="2" ry="2" />
<text  x="1019.10" y="95.5" ></text>
</g>
<g >
<title>ServerLoop (27,615,352,692 samples, 100.00%)</title><rect x="10.0" y="437" width="1180.0" height="15.0" fill="rgb(238,155,37)" rx="2" ry="2" />
<text  x="13.00" y="447.5" >ServerLoop</text>
</g>
<g >
<title>LWLockRelease (5,501,137 samples, 0.02%)</title><rect x="1091.5" y="245" width="0.2" height="15.0" fill="rgb(217,58,13)" rx="2" ry="2" />
<text  x="1094.51" y="255.5" ></text>
</g>
<g >
<title>[postgres] (27,615,352,692 samples, 100.00%)</title><rect x="10.0" y="405" width="1180.0" height="15.0" fill="rgb(245,184,44)" rx="2" ry="2" />
<text  x="13.00" y="415.5" >[postgres]</text>
</g>
<g >
<title>tick_sched_timer (8,251,840 samples, 0.03%)</title><rect x="1015.9" y="165" width="0.3" height="15.0" fill="rgb(254,227,54)" rx="2" ry="2" />
<text  x="1018.87" y="175.5" ></text>
</g>
<g >
<title>PostgresMain (27,615,352,692 samples, 100.00%)</title><rect x="10.0" y="389" width="1180.0" height="15.0" fill="rgb(227,103,24)" rx="2" ry="2" />
<text  x="13.00" y="399.5" >PostgresMain</text>
</g>
<g >
<title>tick_sched_handle (2,750,716 samples, 0.01%)</title><rect x="1126.8" y="133" width="0.1" height="15.0" fill="rgb(219,68,16)" rx="2" ry="2" />
<text  x="1129.77" y="143.5" ></text>
</g>
<g >
<title>update_process_times (2,750,840 samples, 0.01%)</title><rect x="1188.9" y="181" width="0.2" height="15.0" fill="rgb(250,209,50)" rx="2" ry="2" />
<text  x="1191.94" y="191.5" ></text>
</g>
<g >
<title>ExecInterpExpr (192,533,657 samples, 0.70%)</title><rect x="10.0" y="309" width="8.2" height="15.0" fill="rgb(225,96,22)" rx="2" ry="2" />
<text  x="13.00" y="319.5" ></text>
</g>
<g >
<title>ExecInterpExpr (23,962,791,301 samples, 86.77%)</title><rect x="30.8" y="293" width="1023.9" height="15.0" fill="rgb(225,96,22)" rx="2" ry="2" />
<text  x="33.80" y="303.5" >ExecInterpExpr</text>
</g>
<g >
<title>asm_sysvec_apic_timer_interrupt (2,750,803 samples, 0.01%)</title><rect x="1182.7" y="277" width="0.1" height="15.0" fill="rgb(232,127,30)" rx="2" ry="2" />
<text  x="1185.72" y="287.5" ></text>
</g>
<g >
<title>GetPrivateRefCountEntry (16,502,397 samples, 0.06%)</title><rect x="1093.2" y="229" width="0.7" height="15.0" fill="rgb(250,209,50)" rx="2" ry="2" />
<text  x="1096.16" y="239.5" ></text>
</g>
<g >
<title>GetPrivateRefCountEntry (5,500,264 samples, 0.02%)</title><rect x="1173.3" y="197" width="0.2" height="15.0" fill="rgb(250,209,50)" rx="2" ry="2" />
<text  x="1176.31" y="207.5" ></text>
</g>
<g >
<title>ReleaseBuffer (11,002,201 samples, 0.04%)</title><rect x="1092.6" y="245" width="0.4" height="15.0" fill="rgb(220,71,17)" rx="2" ry="2" />
<text  x="1095.57" y="255.5" ></text>
</g>
<g >
<title>ResourceOwnerRemember (5,501,386 samples, 0.02%)</title><rect x="1075.9" y="261" width="0.2" height="15.0" fill="rgb(243,178,42)" rx="2" ry="2" />
<text  x="1078.88" y="271.5" ></text>
</g>
<g >
<title>scheduler_tick (5,501,228 samples, 0.02%)</title><rect x="1016.0" y="117" width="0.2" height="15.0" fill="rgb(246,190,45)" rx="2" ry="2" />
<text  x="1018.99" y="127.5" ></text>
</g>
<g >
<title>pg_utf_mblen_private (14,065,643,505 samples, 50.93%)</title><rect x="415.2" y="261" width="601.0" height="15.0" fill="rgb(242,173,41)" rx="2" ry="2" />
<text  x="418.20" y="271.5" >pg_utf_mblen_private</text>
</g>
<g >
<title>read_stream_next_buffer (1,135,994,368 samples, 4.11%)</title><rect x="1127.0" y="245" width="48.5" height="15.0" fill="rgb(216,50,12)" rx="2" ry="2" />
<text  x="1130.01" y="255.5" >read..</text>
</g>
<g >
<title>__sysvec_apic_timer_interrupt (2,750,780 samples, 0.01%)</title><rect x="1093.9" y="213" width="0.1" height="15.0" fill="rgb(242,173,41)" rx="2" ry="2" />
<text  x="1096.86" y="223.5" ></text>
</g>
<g >
<title>__hrtimer_run_queues (2,750,780 samples, 0.01%)</title><rect x="1093.9" y="181" width="0.1" height="15.0" fill="rgb(237,150,35)" rx="2" ry="2" />
<text  x="1096.86" y="191.5" ></text>
</g>
<g >
<title>enqueue_hrtimer (2,750,551 samples, 0.01%)</title><rect x="415.0" y="181" width="0.1" height="15.0" fill="rgb(211,29,7)" rx="2" ry="2" />
<text  x="417.96" y="191.5" ></text>
</g>
<g >
<title>GetPrivateRefCountEntry (11,000,588 samples, 0.04%)</title><rect x="1074.5" y="229" width="0.4" height="15.0" fill="rgb(250,209,50)" rx="2" ry="2" />
<text  x="1077.47" y="239.5" ></text>
</g>
<g >
<title>hrtimer_interrupt (2,750,388 samples, 0.01%)</title><rect x="1030.6" y="213" width="0.2" height="15.0" fill="rgb(228,109,26)" rx="2" ry="2" />
<text  x="1033.64" y="223.5" ></text>
</g>
<g >
<title>pg_mbstrlen_with_len (11,000,832 samples, 0.04%)</title><rect x="1019.9" y="277" width="0.4" height="15.0" fill="rgb(228,106,25)" rx="2" ry="2" />
<text  x="1022.86" y="287.5" ></text>
</g>
<g >
<title>tts_buffer_heap_getsomeattrs (109,990,539 samples, 0.40%)</title><rect x="1050.0" y="277" width="4.7" height="15.0" fill="rgb(222,81,19)" rx="2" ry="2" />
<text  x="1053.03" y="287.5" ></text>
</g>
<g >
<title>GetPrivateRefCountEntry (11,002,189 samples, 0.04%)</title><rect x="1071.1" y="229" width="0.4" height="15.0" fill="rgb(250,209,50)" rx="2" ry="2" />
<text  x="1074.06" y="239.5" ></text>
</g>
<g >
<title>update_cfs_group (2,750,356 samples, 0.01%)</title><rect x="1016.0" y="85" width="0.1" height="15.0" fill="rgb(242,174,41)" rx="2" ry="2" />
<text  x="1018.99" y="95.5" ></text>
</g>
<g >
<title>main (27,615,352,692 samples, 100.00%)</title><rect x="10.0" y="469" width="1180.0" height="15.0" fill="rgb(243,179,42)" rx="2" ry="2" />
<text  x="13.00" y="479.5" >main</text>
</g>
<g >
<title>heap_prepare_pagescan (2,750,555 samples, 0.01%)</title><rect x="1076.2" y="261" width="0.2" height="15.0" fill="rgb(222,82,19)" rx="2" ry="2" />
<text  x="1079.23" y="271.5" ></text>
</g>
<g >
<title>LWLockRelease (2,750,905 samples, 0.01%)</title><rect x="1074.9" y="261" width="0.2" height="15.0" fill="rgb(217,58,13)" rx="2" ry="2" />
<text  x="1077.94" y="271.5" ></text>
</g>
<g >
<title>UnpinBufferNoOwner (57,754,834 samples, 0.21%)</title><rect x="1072.5" y="245" width="2.4" height="15.0" fill="rgb(253,221,53)" rx="2" ry="2" />
<text  x="1075.47" y="255.5" ></text>
</g>
<g >
<title>asm_sysvec_apic_timer_interrupt (2,750,716 samples, 0.01%)</title><rect x="1126.8" y="229" width="0.1" height="15.0" fill="rgb(232,127,30)" rx="2" ry="2" />
<text  x="1129.77" y="239.5" ></text>
</g>
<g >
<title>sysvec_apic_timer_interrupt (2,750,803 samples, 0.01%)</title><rect x="1182.7" y="261" width="0.1" height="15.0" fill="rgb(220,69,16)" rx="2" ry="2" />
<text  x="1185.72" y="271.5" ></text>
</g>
<g >
<title>_raw_spin_lock_irqsave (2,750,388 samples, 0.01%)</title><rect x="1030.6" y="197" width="0.2" height="15.0" fill="rgb(247,195,46)" rx="2" ry="2" />
<text  x="1033.64" y="207.5" ></text>
</g>
<g >
<title>PortalRun (27,615,352,692 samples, 100.00%)</title><rect x="10.0" y="357" width="1180.0" height="15.0" fill="rgb(223,85,20)" rx="2" ry="2" />
<text  x="13.00" y="367.5" >PortalRun</text>
</g>
<g >
<title>tick_program_event (2,751,172 samples, 0.01%)</title><rect x="415.1" y="181" width="0.1" height="15.0" fill="rgb(241,166,39)" rx="2" ry="2" />
<text  x="418.08" y="191.5" ></text>
</g>
<g >
<title>pgstat_count_backend_io_op (2,750,092 samples, 0.01%)</title><rect x="1174.1" y="213" width="0.2" height="15.0" fill="rgb(244,179,42)" rx="2" ry="2" />
<text  x="1177.14" y="223.5" ></text>
</g>
<g >
<title>all (27,615,352,692 samples, 100%)</title><rect x="10.0" y="517" width="1180.0" height="15.0" fill="rgb(213,39,9)" rx="2" ry="2" />
<text  x="13.00" y="527.5" ></text>
</g>
<g >
<title>PostmasterMain (27,615,352,692 samples, 100.00%)</title><rect x="10.0" y="453" width="1180.0" height="15.0" fill="rgb(212,35,8)" rx="2" ry="2" />
<text  x="13.00" y="463.5" >PostmasterMain</text>
</g>
<g >
<title>__hrtimer_run_queues (2,750,716 samples, 0.01%)</title><rect x="1126.8" y="165" width="0.1" height="15.0" fill="rgb(237,150,35)" rx="2" ry="2" />
<text  x="1129.77" y="175.5" ></text>
</g>
<g >
<title>__memcmp_evex_movbe (11,001,669 samples, 0.04%)</title><rect x="1129.8" y="197" width="0.5" height="15.0" fill="rgb(219,67,16)" rx="2" ry="2" />
<text  x="1132.83" y="207.5" ></text>
</g>
<g >
<title>heap_prepare_pagescan (770,121,437 samples, 2.79%)</title><rect x="1094.0" y="245" width="32.9" height="15.0" fill="rgb(222,82,19)" rx="2" ry="2" />
<text  x="1096.98" y="255.5" >he..</text>
</g>
<g >
<title>hrtimer_interrupt (2,750,840 samples, 0.01%)</title><rect x="1188.9" y="245" width="0.2" height="15.0" fill="rgb(228,109,26)" rx="2" ry="2" />
<text  x="1191.94" y="255.5" ></text>
</g>
<g >
<title>postgres (27,615,352,692 samples, 100.00%)</title><rect x="10.0" y="501" width="1180.0" height="15.0" fill="rgb(233,131,31)" rx="2" ry="2" />
<text  x="13.00" y="511.5" >postgres</text>
</g>
<g >
<title>__sysvec_apic_timer_interrupt (2,750,611 samples, 0.01%)</title><rect x="101.7" y="245" width="0.2" height="15.0" fill="rgb(242,173,41)" rx="2" ry="2" />
<text  x="104.73" y="255.5" ></text>
</g>
<g >
<title>sched_clock (2,750,872 samples, 0.01%)</title><rect x="1016.1" y="53" width="0.1" height="15.0" fill="rgb(212,33,7)" rx="2" ry="2" />
<text  x="1019.10" y="63.5" ></text>
</g>
<g >
<title>__hrtimer_run_queues (8,251,840 samples, 0.03%)</title><rect x="1015.9" y="181" width="0.3" height="15.0" fill="rgb(237,150,35)" rx="2" ry="2" />
<text  x="1018.87" y="191.5" ></text>
</g>
<g >
<title>ResourceOwnerForget (8,251,757 samples, 0.03%)</title><rect x="1072.1" y="229" width="0.4" height="15.0" fill="rgb(235,142,33)" rx="2" ry="2" />
<text  x="1075.12" y="239.5" ></text>
</g>
<g >
<title>asm_sysvec_apic_timer_interrupt (2,750,840 samples, 0.01%)</title><rect x="1188.9" y="293" width="0.2" height="15.0" fill="rgb(232,127,30)" rx="2" ry="2" />
<text  x="1191.94" y="303.5" ></text>
</g>
<g >
<title>LWLockRelease (19,253,367 samples, 0.07%)</title><rect x="1149.2" y="213" width="0.8" height="15.0" fill="rgb(217,58,13)" rx="2" ry="2" />
<text  x="1152.22" y="223.5" ></text>
</g>
<g >
<title>sysvec_apic_timer_interrupt (2,750,716 samples, 0.01%)</title><rect x="1126.8" y="213" width="0.1" height="15.0" fill="rgb(220,69,16)" rx="2" ry="2" />
<text  x="1129.77" y="223.5" ></text>
</g>
<g >
<title>MemoryContextReset (52,258,119 samples, 0.19%)</title><rect x="1054.7" y="293" width="2.3" height="15.0" fill="rgb(210,26,6)" rx="2" ry="2" />
<text  x="1057.73" y="303.5" ></text>
</g>
<g >
<title>LWLockAttemptLock (88,015,089 samples, 0.32%)</title><rect x="1145.5" y="213" width="3.7" height="15.0" fill="rgb(235,138,33)" rx="2" ry="2" />
<text  x="1148.46" y="223.5" ></text>
</g>
<g >
<title>asm_sysvec_apic_timer_interrupt (2,750,611 samples, 0.01%)</title><rect x="101.7" y="277" width="0.2" height="15.0" fill="rgb(232,127,30)" rx="2" ry="2" />
<text  x="104.73" y="287.5" ></text>
</g>
<g >
<title>__update_load_avg_se (2,750,716 samples, 0.01%)</title><rect x="1126.8" y="53" width="0.1" height="15.0" fill="rgb(254,227,54)" rx="2" ry="2" />
<text  x="1129.77" y="63.5" ></text>
</g>
<g >
<title>tick_sched_timer (2,750,716 samples, 0.01%)</title><rect x="1126.8" y="149" width="0.1" height="15.0" fill="rgb(254,227,54)" rx="2" ry="2" />
<text  x="1129.77" y="159.5" ></text>
</g>
<g >
<title>clockevents_program_event (2,751,172 samples, 0.01%)</title><rect x="415.1" y="165" width="0.1" height="15.0" fill="rgb(244,182,43)" rx="2" ry="2" />
<text  x="418.08" y="175.5" ></text>
</g>
<g >
<title>bpcharlen (21,398,856,953 samples, 77.49%)</title><rect x="101.9" y="277" width="914.3" height="15.0" fill="rgb(221,77,18)" rx="2" ry="2" />
<text  x="104.85" y="287.5" >bpcharlen</text>
</g>
<g >
<title>__sysvec_apic_timer_interrupt (5,501,723 samples, 0.02%)</title><rect x="415.0" y="213" width="0.2" height="15.0" fill="rgb(242,173,41)" rx="2" ry="2" />
<text  x="417.96" y="223.5" ></text>
</g>
<g >
<title>hrtimer_interrupt (2,750,803 samples, 0.01%)</title><rect x="1182.7" y="229" width="0.1" height="15.0" fill="rgb(228,109,26)" rx="2" ry="2" />
<text  x="1185.72" y="239.5" ></text>
</g>
<g >
<title>hrtimer_interrupt (8,251,840 samples, 0.03%)</title><rect x="1015.9" y="197" width="0.3" height="15.0" fill="rgb(228,109,26)" rx="2" ry="2" />
<text  x="1018.87" y="207.5" ></text>
</g>
<g >
<title>UnpinBufferNoOwner (19,252,590 samples, 0.07%)</title><rect x="1093.0" y="245" width="0.9" height="15.0" fill="rgb(253,221,53)" rx="2" ry="2" />
<text  x="1096.04" y="255.5" ></text>
</g>
<g >
<title>tick_sched_do_timer (2,750,611 samples, 0.01%)</title><rect x="101.7" y="181" width="0.2" height="15.0" fill="rgb(227,104,25)" rx="2" ry="2" />
<text  x="104.73" y="191.5" ></text>
</g>
<g >
<title>ResourceOwnerForget (11,002,201 samples, 0.04%)</title><rect x="1092.6" y="229" width="0.4" height="15.0" fill="rgb(235,142,33)" rx="2" ry="2" />
<text  x="1095.57" y="239.5" ></text>
</g>
<g >
<title>LWLockAttemptLock (16,502,927 samples, 0.06%)</title><rect x="1126.1" y="229" width="0.7" height="15.0" fill="rgb(235,138,33)" rx="2" ry="2" />
<text  x="1129.07" y="239.5" ></text>
</g>
<g >
<title>tts_buffer_heap_getsomeattrs (451,042,535 samples, 1.63%)</title><rect x="1030.8" y="261" width="19.2" height="15.0" fill="rgb(222,81,19)" rx="2" ry="2" />
<text  x="1033.75" y="271.5" ></text>
</g>
<g >
<title>hrtimer_interrupt (2,750,716 samples, 0.01%)</title><rect x="1126.8" y="181" width="0.1" height="15.0" fill="rgb(228,109,26)" rx="2" ry="2" />
<text  x="1129.77" y="191.5" ></text>
</g>
<g >
<title>update_process_times (2,750,716 samples, 0.01%)</title><rect x="1126.8" y="117" width="0.1" height="15.0" fill="rgb(250,209,50)" rx="2" ry="2" />
<text  x="1129.77" y="127.5" ></text>
</g>
<g >
<title>tick_sched_timer (2,750,611 samples, 0.01%)</title><rect x="101.7" y="197" width="0.2" height="15.0" fill="rgb(254,227,54)" rx="2" ry="2" />
<text  x="104.73" y="207.5" ></text>
</g>
<g >
<title>asm_sysvec_apic_timer_interrupt (2,750,388 samples, 0.01%)</title><rect x="1030.6" y="261" width="0.2" height="15.0" fill="rgb(232,127,30)" rx="2" ry="2" />
<text  x="1033.64" y="271.5" ></text>
</g>
<g >
<title>ReservePrivateRefCountEntry (13,742,663 samples, 0.05%)</title><rect x="1173.5" y="213" width="0.6" height="15.0" fill="rgb(232,125,30)" rx="2" ry="2" />
<text  x="1176.55" y="223.5" ></text>
</g>
<g >
<title>exec_simple_query (27,615,352,692 samples, 100.00%)</title><rect x="10.0" y="373" width="1180.0" height="15.0" fill="rgb(211,29,6)" rx="2" ry="2" />
<text  x="13.00" y="383.5" >exec_simple_query</text>
</g>
<g >
<title>CheckForSerializableConflictOutNeeded (5,499,206 samples, 0.02%)</title><rect x="1091.3" y="245" width="0.2" height="15.0" fill="rgb(213,38,9)" rx="2" ry="2" />
<text  x="1094.28" y="255.5" ></text>
</g>
<g >
<title>heap_scan_stream_read_next_serial (2,750,469 samples, 0.01%)</title><rect x="1175.3" y="229" width="0.1" height="15.0" fill="rgb(205,4,0)" rx="2" ry="2" />
<text  x="1178.31" y="239.5" ></text>
</g>
<g >
<title>bpcharlen (30,254,116 samples, 0.11%)</title><rect x="1175.5" y="293" width="1.3" height="15.0" fill="rgb(221,77,18)" rx="2" ry="2" />
<text  x="1178.55" y="303.5" ></text>
</g>
<g >
<title>pg_detoast_datum_packed (44,007,988 samples, 0.16%)</title><rect x="1018.0" y="277" width="1.9" height="15.0" fill="rgb(238,155,37)" rx="2" ry="2" />
<text  x="1020.98" y="287.5" ></text>
</g>
<g >
<title>native_read_msr (2,750,840 samples, 0.01%)</title><rect x="1188.9" y="133" width="0.2" height="15.0" fill="rgb(211,30,7)" rx="2" ry="2" />
<text  x="1191.94" y="143.5" ></text>
</g>
<g >
<title>reweight_entity (2,750,356 samples, 0.01%)</title><rect x="1016.0" y="69" width="0.1" height="15.0" fill="rgb(253,222,53)" rx="2" ry="2" />
<text  x="1018.99" y="79.5" ></text>
</g>
<g >
<title>SeqNext (22,005,553 samples, 0.08%)</title><rect x="1189.1" y="309" width="0.9" height="15.0" fill="rgb(214,41,10)" rx="2" ry="2" />
<text  x="1192.06" y="319.5" ></text>
</g>
<g >
<title>LockBuffer (2,750,691 samples, 0.01%)</title><rect x="1075.1" y="261" width="0.1" height="15.0" fill="rgb(235,142,34)" rx="2" ry="2" />
<text  x="1078.06" y="271.5" ></text>
</g>
<g >
<title>tick_sched_timer (2,750,803 samples, 0.01%)</title><rect x="1182.7" y="197" width="0.1" height="15.0" fill="rgb(254,227,54)" rx="2" ry="2" />
<text  x="1185.72" y="207.5" ></text>
</g>
<g >
<title>sysvec_apic_timer_interrupt (2,750,388 samples, 0.01%)</title><rect x="1030.6" y="245" width="0.2" height="15.0" fill="rgb(220,69,16)" rx="2" ry="2" />
<text  x="1033.64" y="255.5" ></text>
</g>
<g >
<title>IncrBufferRefCount (16,503,473 samples, 0.06%)</title><rect x="1070.8" y="245" width="0.7" height="15.0" fill="rgb(209,22,5)" rx="2" ry="2" />
<text  x="1073.83" y="255.5" ></text>
</g>
<g >
<title>int4lt (104,487,210 samples, 0.38%)</title><rect x="1182.8" y="293" width="4.5" height="15.0" fill="rgb(242,172,41)" rx="2" ry="2" />
<text  x="1185.83" y="303.5" ></text>
</g>
<g >
<title>postmaster_child_launch (27,615,352,692 samples, 100.00%)</title><rect x="10.0" y="421" width="1180.0" height="15.0" fill="rgb(206,5,1)" rx="2" ry="2" />
<text  x="13.00" y="431.5" >postmaster_child_launch</text>
</g>
<g >
<title>ReleaseBuffer (22,004,055 samples, 0.08%)</title><rect x="1071.5" y="245" width="1.0" height="15.0" fill="rgb(220,71,17)" rx="2" ry="2" />
<text  x="1074.53" y="255.5" ></text>
</g>
<g >
<title>arch_scale_freq_tick (2,750,840 samples, 0.01%)</title><rect x="1188.9" y="149" width="0.2" height="15.0" fill="rgb(252,219,52)" rx="2" ry="2" />
<text  x="1191.94" y="159.5" ></text>
</g>
<g >
<title>hrtimer_interrupt (2,750,780 samples, 0.01%)</title><rect x="1093.9" y="197" width="0.1" height="15.0" fill="rgb(228,109,26)" rx="2" ry="2" />
<text  x="1096.86" y="207.5" ></text>
</g>
<g >
<title>LockBuffer (19,253,442 samples, 0.07%)</title><rect x="1091.7" y="245" width="0.9" height="15.0" fill="rgb(235,142,34)" rx="2" ry="2" />
<text  x="1094.75" y="255.5" ></text>
</g>
<g >
<title>native_sched_clock (2,750,872 samples, 0.01%)</title><rect x="1016.1" y="37" width="0.1" height="15.0" fill="rgb(218,64,15)" rx="2" ry="2" />
<text  x="1019.10" y="47.5" ></text>
</g>
<g >
<title>update_load_avg (2,750,716 samples, 0.01%)</title><rect x="1126.8" y="69" width="0.1" height="15.0" fill="rgb(240,165,39)" rx="2" ry="2" />
<text  x="1129.77" y="79.5" ></text>
</g>
<g >
<title>sysvec_apic_timer_interrupt (2,750,840 samples, 0.01%)</title><rect x="1188.9" y="277" width="0.2" height="15.0" fill="rgb(220,69,16)" rx="2" ry="2" />
<text  x="1191.94" y="287.5" ></text>
</g>
<g >
<title>__sysvec_apic_timer_interrupt (2,750,388 samples, 0.01%)</title><rect x="1030.6" y="229" width="0.2" height="15.0" fill="rgb(242,173,41)" rx="2" ry="2" />
<text  x="1033.64" y="239.5" ></text>
</g>
<g >
<title>MemoryContextReset (24,741,005 samples, 0.09%)</title><rect x="1188.0" y="309" width="1.1" height="15.0" fill="rgb(210,26,6)" rx="2" ry="2" />
<text  x="1191.00" y="319.5" ></text>
</g>
<g >
<title>pg_database_encoding_max_length (41,254,061 samples, 0.15%)</title><rect x="1016.2" y="277" width="1.8" height="15.0" fill="rgb(243,176,42)" rx="2" ry="2" />
<text  x="1019.22" y="287.5" ></text>
</g>
<g >
<title>standard_ExecutorRun (27,615,352,692 samples, 100.00%)</title><rect x="10.0" y="325" width="1180.0" height="15.0" fill="rgb(247,196,47)" rx="2" ry="2" />
<text  x="13.00" y="335.5" >standard_ExecutorRun</text>
</g>
<g >
<title>ExecStoreBufferHeapTuple (181,519,376 samples, 0.66%)</title><rect x="1067.2" y="261" width="7.7" height="15.0" fill="rgb(230,117,28)" rx="2" ry="2" />
<text  x="1070.18" y="271.5" ></text>
</g>
<g >
<title>asm_sysvec_apic_timer_interrupt (2,750,780 samples, 0.01%)</title><rect x="1093.9" y="245" width="0.1" height="15.0" fill="rgb(232,127,30)" rx="2" ry="2" />
<text  x="1096.86" y="255.5" ></text>
</g>
<g >
<title>PortalRunSelect (27,615,352,692 samples, 100.00%)</title><rect x="10.0" y="341" width="1180.0" height="15.0" fill="rgb(245,188,45)" rx="2" ry="2" />
<text  x="13.00" y="351.5" >PortalRunSelect</text>
</g>
<g >
<title>LWLockAcquire (8,251,904 samples, 0.03%)</title><rect x="1125.7" y="229" width="0.4" height="15.0" fill="rgb(209,20,4)" rx="2" ry="2" />
<text  x="1128.71" y="239.5" ></text>
</g>
<g >
<title>hrtimer_interrupt (2,750,611 samples, 0.01%)</title><rect x="101.7" y="229" width="0.2" height="15.0" fill="rgb(228,109,26)" rx="2" ry="2" />
<text  x="104.73" y="239.5" ></text>
</g>
<g >
<title>ExecStoreBufferHeapTuple (11,002,458 samples, 0.04%)</title><rect x="1061.4" y="277" width="0.5" height="15.0" fill="rgb(230,117,28)" rx="2" ry="2" />
<text  x="1064.43" y="287.5" ></text>
</g>
<g >
<title>LWLockAcquire (5,500,920 samples, 0.02%)</title><rect x="1145.2" y="213" width="0.3" height="15.0" fill="rgb(209,20,4)" rx="2" ry="2" />
<text  x="1148.22" y="223.5" ></text>
</g>
<g >
<title>tick_sched_handle (8,251,840 samples, 0.03%)</title><rect x="1015.9" y="149" width="0.3" height="15.0" fill="rgb(219,68,16)" rx="2" ry="2" />
<text  x="1018.87" y="159.5" ></text>
</g>
<g >
<title>hash_bytes (24,752,360 samples, 0.09%)</title><rect x="1174.3" y="229" width="1.0" height="15.0" fill="rgb(227,102,24)" rx="2" ry="2" />
<text  x="1177.25" y="239.5" ></text>
</g>
<g >
<title>PinBuffer (550,091,220 samples, 1.99%)</title><rect x="1150.0" y="213" width="23.5" height="15.0" fill="rgb(219,64,15)" rx="2" ry="2" />
<text  x="1153.04" y="223.5" >P..</text>
</g>
<g >
<title>heapgettup_pagemode (2,321,445,927 samples, 8.41%)</title><rect x="1076.4" y="261" width="99.1" height="15.0" fill="rgb(242,170,40)" rx="2" ry="2" />
<text  x="1079.35" y="271.5" >heapgettup_p..</text>
</g>
<g >
<title>sysvec_apic_timer_interrupt (2,750,780 samples, 0.01%)</title><rect x="1093.9" y="229" width="0.1" height="15.0" fill="rgb(220,69,16)" rx="2" ry="2" />
<text  x="1096.86" y="239.5" ></text>
</g>
<g >
<title>pg_mbstrlen_with_len (6,659,140,436 samples, 24.11%)</title><rect x="130.7" y="261" width="284.5" height="15.0" fill="rgb(228,106,25)" rx="2" ry="2" />
<text  x="133.65" y="271.5" >pg_mbstrlen_with_len</text>
</g>
<g >
<title>BufTableHashCode (8,251,868 samples, 0.03%)</title><rect x="1127.9" y="229" width="0.4" height="15.0" fill="rgb(215,47,11)" rx="2" ry="2" />
<text  x="1130.95" y="239.5" ></text>
</g>
<g >
<title>hrtimer_interrupt (5,501,723 samples, 0.02%)</title><rect x="415.0" y="197" width="0.2" height="15.0" fill="rgb(228,109,26)" rx="2" ry="2" />
<text  x="417.96" y="207.5" ></text>
</g>
<g >
<title>update_process_times (8,251,840 samples, 0.03%)</title><rect x="1015.9" y="133" width="0.3" height="15.0" fill="rgb(250,209,50)" rx="2" ry="2" />
<text  x="1018.87" y="143.5" ></text>
</g>
<g >
<title>ExecSeqScanWithQual (27,376,072,477 samples, 99.13%)</title><rect x="18.2" y="309" width="1169.8" height="15.0" fill="rgb(254,227,54)" rx="2" ry="2" />
<text  x="21.23" y="319.5" >ExecSeqScanWithQual</text>
</g>
<g >
<title>UnpinBufferNoOwner (2,749,905 samples, 0.01%)</title><rect x="1076.1" y="261" width="0.1" height="15.0" fill="rgb(253,221,53)" rx="2" ry="2" />
<text  x="1079.12" y="271.5" ></text>
</g>
<g >
<title>tag_hash (2,750,193 samples, 0.01%)</title><rect x="1175.4" y="229" width="0.1" height="15.0" fill="rgb(245,185,44)" rx="2" ry="2" />
<text  x="1178.43" y="239.5" ></text>
</g>
<g >
<title>heap_scan_stream_read_next_serial (2,750,169 samples, 0.01%)</title><rect x="1126.9" y="245" width="0.1" height="15.0" fill="rgb(205,4,0)" rx="2" ry="2" />
<text  x="1129.89" y="255.5" ></text>
</g>
<g >
<title>__sysvec_apic_timer_interrupt (2,750,840 samples, 0.01%)</title><rect x="1188.9" y="261" width="0.2" height="15.0" fill="rgb(242,173,41)" rx="2" ry="2" />
<text  x="1191.94" y="271.5" ></text>
</g>
<g >
<title>__hrtimer_run_queues (2,750,803 samples, 0.01%)</title><rect x="1182.7" y="213" width="0.1" height="15.0" fill="rgb(237,150,35)" rx="2" ry="2" />
<text  x="1185.72" y="223.5" ></text>
</g>
<g >
<title>tick_sched_handle (2,750,840 samples, 0.01%)</title><rect x="1188.9" y="197" width="0.2" height="15.0" fill="rgb(219,68,16)" rx="2" ry="2" />
<text  x="1191.94" y="207.5" ></text>
</g>
<g >
<title>GetPrivateRefCountEntry (2,750,130 samples, 0.01%)</title><rect x="1145.1" y="213" width="0.1" height="15.0" fill="rgb(250,209,50)" rx="2" ry="2" />
<text  x="1148.11" y="223.5" ></text>
</g>
<g >
<title>scheduler_tick (2,750,840 samples, 0.01%)</title><rect x="1188.9" y="165" width="0.2" height="15.0" fill="rgb(246,190,45)" rx="2" ry="2" />
<text  x="1191.94" y="175.5" ></text>
</g>
<g >
<title>__hrtimer_run_queues (2,750,840 samples, 0.01%)</title><rect x="1188.9" y="229" width="0.2" height="15.0" fill="rgb(237,150,35)" rx="2" ry="2" />
<text  x="1191.94" y="239.5" ></text>
</g>
<g >
<title>__hrtimer_run_queues (2,750,611 samples, 0.01%)</title><rect x="101.7" y="213" width="0.2" height="15.0" fill="rgb(237,150,35)" rx="2" ry="2" />
<text  x="104.73" y="223.5" ></text>
</g>
<g >
<title>__sysvec_apic_timer_interrupt (11,001,767 samples, 0.04%)</title><rect x="1015.8" y="213" width="0.4" height="15.0" fill="rgb(242,173,41)" rx="2" ry="2" />
<text  x="1018.75" y="223.5" ></text>
</g>
<g >
<title>__sysvec_apic_timer_interrupt (2,750,716 samples, 0.01%)</title><rect x="1126.8" y="197" width="0.1" height="15.0" fill="rgb(242,173,41)" rx="2" ry="2" />
<text  x="1129.77" y="207.5" ></text>
</g>
<g >
<title>task_tick_fair (2,750,716 samples, 0.01%)</title><rect x="1126.8" y="85" width="0.1" height="15.0" fill="rgb(217,57,13)" rx="2" ry="2" />
<text  x="1129.77" y="95.5" ></text>
</g>
<g >
<title>hash_search_with_hash_value (346,554,871 samples, 1.25%)</title><rect x="1130.3" y="197" width="14.8" height="15.0" fill="rgb(249,205,49)" rx="2" ry="2" />
<text  x="1133.30" y="207.5" ></text>
</g>
<g >
<title>sysvec_apic_timer_interrupt (5,501,723 samples, 0.02%)</title><rect x="415.0" y="229" width="0.2" height="15.0" fill="rgb(220,69,16)" rx="2" ry="2" />
<text  x="417.96" y="239.5" ></text>
</g>
<g >
<title>sched_clock_cpu (2,750,872 samples, 0.01%)</title><rect x="1016.1" y="69" width="0.1" height="15.0" fill="rgb(229,113,27)" rx="2" ry="2" />
<text  x="1019.10" y="79.5" ></text>
</g>
<g >
<title>asm_sysvec_apic_timer_interrupt (5,501,723 samples, 0.02%)</title><rect x="415.0" y="245" width="0.2" height="15.0" fill="rgb(232,127,30)" rx="2" ry="2" />
<text  x="417.96" y="255.5" ></text>
</g>
<g >
<title>heap_getnextslot (140,269,392 samples, 0.51%)</title><rect x="1176.8" y="293" width="6.0" height="15.0" fill="rgb(213,40,9)" rx="2" ry="2" />
<text  x="1179.84" y="303.5" ></text>
</g>
<g >
<title>ReleaseBuffer (16,503,479 samples, 0.06%)</title><rect x="1075.2" y="261" width="0.7" height="15.0" fill="rgb(220,71,17)" rx="2" ry="2" />
<text  x="1078.18" y="271.5" ></text>
</g>
<g >
<title>slot_getsomeattrs_int (694,886,116 samples, 2.52%)</title><rect x="1020.3" y="277" width="29.7" height="15.0" fill="rgb(252,219,52)" rx="2" ry="2" />
<text  x="1023.33" y="287.5" >sl..</text>
</g>
<g >
<title>StartReadBuffer (1,075,388,977 samples, 3.89%)</title><rect x="1128.3" y="229" width="46.0" height="15.0" fill="rgb(222,78,18)" rx="2" ry="2" />
<text  x="1131.30" y="239.5" >Star..</text>
</g>
<g >
<title>tick_sched_timer (2,750,840 samples, 0.01%)</title><rect x="1188.9" y="213" width="0.2" height="15.0" fill="rgb(254,227,54)" rx="2" ry="2" />
<text  x="1191.94" y="223.5" ></text>
</g>
<g >
<title>heap_getnextslot (2,659,729,735 samples, 9.63%)</title><rect x="1061.9" y="277" width="113.6" height="15.0" fill="rgb(213,40,9)" rx="2" ry="2" />
<text  x="1064.90" y="287.5" >heap_getnextslot</text>
</g>
<g >
<title>task_tick_fair (5,501,228 samples, 0.02%)</title><rect x="1016.0" y="101" width="0.2" height="15.0" fill="rgb(217,57,13)" rx="2" ry="2" />
<text  x="1018.99" y="111.5" ></text>
</g>
<g >
<title>__libc_start_call_main (27,615,352,692 samples, 100.00%)</title><rect x="10.0" y="485" width="1180.0" height="15.0" fill="rgb(210,26,6)" rx="2" ry="2" />
<text  x="13.00" y="495.5" >__libc_start_call_main</text>
</g>
<g >
<title>slot_getsomeattrs_int (16,503,910 samples, 0.06%)</title><rect x="1187.3" y="293" width="0.7" height="15.0" fill="rgb(252,219,52)" rx="2" ry="2" />
<text  x="1190.30" y="303.5" ></text>
</g>
<g >
<title>BufTableLookup (357,556,540 samples, 1.29%)</title><rect x="1129.8" y="213" width="15.3" height="15.0" fill="rgb(224,89,21)" rx="2" ry="2" />
<text  x="1132.83" y="223.5" ></text>
</g>
<g >
<title>tick_sched_handle (2,750,803 samples, 0.01%)</title><rect x="1182.7" y="181" width="0.1" height="15.0" fill="rgb(219,68,16)" rx="2" ry="2" />
<text  x="1185.72" y="191.5" ></text>
</g>
<g >
<title>scheduler_tick (2,750,716 samples, 0.01%)</title><rect x="1126.8" y="101" width="0.1" height="15.0" fill="rgb(246,190,45)" rx="2" ry="2" />
<text  x="1129.77" y="111.5" ></text>
</g>
<g >
<title>__sysvec_apic_timer_interrupt (2,750,803 samples, 0.01%)</title><rect x="1182.7" y="245" width="0.1" height="15.0" fill="rgb(242,173,41)" rx="2" ry="2" />
<text  x="1185.72" y="255.5" ></text>
</g>
<g >
<title>sysvec_apic_timer_interrupt (2,750,611 samples, 0.01%)</title><rect x="101.7" y="261" width="0.2" height="15.0" fill="rgb(220,69,16)" rx="2" ry="2" />
<text  x="104.73" y="271.5" ></text>
</g>
</g>
</svg>
