<?xml version="1.0" standalone="no"?>
<!DOCTYPE svg PUBLIC "-//W3C//DTD SVG 1.1//EN" "http://www.w3.org/Graphics/SVG/1.1/DTD/svg11.dtd">
<svg version="1.1" width="1200" height="982" onload="init(evt)" viewBox="0 0 1200 982" xmlns="http://www.w3.org/2000/svg" xmlns:xlink="http://www.w3.org/1999/xlink">
<!-- Flame graph stack visualization. See https://github.com/brendangregg/FlameGraph for latest version, and http://www.brendangregg.com/flamegraphs.html for examples. -->
<!-- NOTES:  -->
<defs>
	<linearGradient id="background" y1="0" y2="1" x1="0" x2="0" >
		<stop stop-color="#eeeeee" offset="5%" />
		<stop stop-color="#eeeeb0" offset="95%" />
	</linearGradient>
</defs>
<style type="text/css">
	text { font-family:Verdana; font-size:12px; fill:rgb(0,0,0); }
	#search, #ignorecase { opacity:0.1; cursor:pointer; }
	#search:hover, #search.show, #ignorecase:hover, #ignorecase.show { opacity:1; }
	#subtitle { text-anchor:middle; font-color:rgb(160,160,160); }
	#title { text-anchor:middle; font-size:17px}
	#unzoom { cursor:pointer; }
	#frames > *:hover { stroke:black; stroke-width:0.5; cursor:pointer; }
	.hide { display:none; }
	.parent { opacity:0.5; }
</style>
<script type="text/ecmascript">
<![CDATA[
	"use strict";
	var details, searchbtn, unzoombtn, matchedtxt, svg, searching, currentSearchTerm, ignorecase, ignorecaseBtn;
	function init(evt) {
		details = document.getElementById("details").firstChild;
		searchbtn = document.getElementById("search");
		ignorecaseBtn = document.getElementById("ignorecase");
		unzoombtn = document.getElementById("unzoom");
		matchedtxt = document.getElementById("matched");
		svg = document.getElementsByTagName("svg")[0];
		searching = 0;
		currentSearchTerm = null;

		// use GET parameters to restore a flamegraphs state.
		var params = get_params();
		if (params.x && params.y)
			zoom(find_group(document.querySelector('[x="' + params.x + '"][y="' + params.y + '"]')));
                if (params.s) search(params.s);
	}

	// event listeners
	window.addEventListener("click", function(e) {
		var target = find_group(e.target);
		if (target) {
			if (target.nodeName == "a") {
				if (e.ctrlKey === false) return;
				e.preventDefault();
			}
			if (target.classList.contains("parent")) unzoom(true);
			zoom(target);
			if (!document.querySelector('.parent')) {
				// we have basically done a clearzoom so clear the url
				var params = get_params();
				if (params.x) delete params.x;
				if (params.y) delete params.y;
				history.replaceState(null, null, parse_params(params));
				unzoombtn.classList.add("hide");
				return;
			}

			// set parameters for zoom state
			var el = target.querySelector("rect");
			if (el && el.attributes && el.attributes.y && el.attributes._orig_x) {
				var params = get_params()
				params.x = el.attributes._orig_x.value;
				params.y = el.attributes.y.value;
				history.replaceState(null, null, parse_params(params));
			}
		}
		else if (e.target.id == "unzoom") clearzoom();
		else if (e.target.id == "search") search_prompt();
		else if (e.target.id == "ignorecase") toggle_ignorecase();
	}, false)

	// mouse-over for info
	// show
	window.addEventListener("mouseover", function(e) {
		var target = find_group(e.target);
		if (target) details.nodeValue = "Function: " + g_to_text(target);
	}, false)

	// clear
	window.addEventListener("mouseout", function(e) {
		var target = find_group(e.target);
		if (target) details.nodeValue = ' ';
	}, false)

	// ctrl-F for search
	// ctrl-I to toggle case-sensitive search
	window.addEventListener("keydown",function (e) {
		if (e.keyCode === 114 || (e.ctrlKey && e.keyCode === 70)) {
			e.preventDefault();
			search_prompt();
		}
		else if (e.ctrlKey && e.keyCode === 73) {
			e.preventDefault();
			toggle_ignorecase();
		}
	}, false)

	// functions
	function get_params() {
		var params = {};
		var paramsarr = window.location.search.substr(1).split('&');
		for (var i = 0; i < paramsarr.length; ++i) {
			var tmp = paramsarr[i].split("=");
			if (!tmp[0] || !tmp[1]) continue;
			params[tmp[0]]  = decodeURIComponent(tmp[1]);
		}
		return params;
	}
	function parse_params(params) {
		var uri = "?";
		for (var key in params) {
			uri += key + '=' + encodeURIComponent(params[key]) + '&';
		}
		if (uri.slice(-1) == "&")
			uri = uri.substring(0, uri.length - 1);
		if (uri == '?')
			uri = window.location.href.split('?')[0];
		return uri;
	}
	function find_child(node, selector) {
		var children = node.querySelectorAll(selector);
		if (children.length) return children[0];
	}
	function find_group(node) {
		var parent = node.parentElement;
		if (!parent) return;
		if (parent.id == "frames") return node;
		return find_group(parent);
	}
	function orig_save(e, attr, val) {
		if (e.attributes["_orig_" + attr] != undefined) return;
		if (e.attributes[attr] == undefined) return;
		if (val == undefined) val = e.attributes[attr].value;
		e.setAttribute("_orig_" + attr, val);
	}
	function orig_load(e, attr) {
		if (e.attributes["_orig_"+attr] == undefined) return;
		e.attributes[attr].value = e.attributes["_orig_" + attr].value;
		e.removeAttribute("_orig_"+attr);
	}
	function g_to_text(e) {
		var text = find_child(e, "title").firstChild.nodeValue;
		return (text)
	}
	function g_to_func(e) {
		var func = g_to_text(e);
		// if there's any manipulation we want to do to the function
		// name before it's searched, do it here before returning.
		return (func);
	}
	function update_text(e) {
		var r = find_child(e, "rect");
		var t = find_child(e, "text");
		var w = parseFloat(r.attributes.width.value) -3;
		var txt = find_child(e, "title").textContent.replace(/\([^(]*\)$/,"");
		t.attributes.x.value = parseFloat(r.attributes.x.value) + 3;

		// Smaller than this size won't fit anything
		if (w < 2 * 12 * 0.59) {
			t.textContent = "";
			return;
		}

		t.textContent = txt;
		var sl = t.getSubStringLength(0, txt.length);
		// check if only whitespace or if we can fit the entire string into width w
		if (/^ *$/.test(txt) || sl < w)
			return;

		// this isn't perfect, but gives a good starting point
		// and avoids calling getSubStringLength too often
		var start = Math.floor((w/sl) * txt.length);
		for (var x = start; x > 0; x = x-2) {
			if (t.getSubStringLength(0, x + 2) <= w) {
				t.textContent = txt.substring(0, x) + "..";
				return;
			}
		}
		t.textContent = "";
	}

	// zoom
	function zoom_reset(e) {
		if (e.attributes != undefined) {
			orig_load(e, "x");
			orig_load(e, "width");
		}
		if (e.childNodes == undefined) return;
		for (var i = 0, c = e.childNodes; i < c.length; i++) {
			zoom_reset(c[i]);
		}
	}
	function zoom_child(e, x, ratio) {
		if (e.attributes != undefined) {
			if (e.attributes.x != undefined) {
				orig_save(e, "x");
				e.attributes.x.value = (parseFloat(e.attributes.x.value) - x - 10) * ratio + 10;
				if (e.tagName == "text")
					e.attributes.x.value = find_child(e.parentNode, "rect[x]").attributes.x.value + 3;
			}
			if (e.attributes.width != undefined) {
				orig_save(e, "width");
				e.attributes.width.value = parseFloat(e.attributes.width.value) * ratio;
			}
		}

		if (e.childNodes == undefined) return;
		for (var i = 0, c = e.childNodes; i < c.length; i++) {
			zoom_child(c[i], x - 10, ratio);
		}
	}
	function zoom_parent(e) {
		if (e.attributes) {
			if (e.attributes.x != undefined) {
				orig_save(e, "x");
				e.attributes.x.value = 10;
			}
			if (e.attributes.width != undefined) {
				orig_save(e, "width");
				e.attributes.width.value = parseInt(svg.width.baseVal.value) - (10 * 2);
			}
		}
		if (e.childNodes == undefined) return;
		for (var i = 0, c = e.childNodes; i < c.length; i++) {
			zoom_parent(c[i]);
		}
	}
	function zoom(node) {
		var attr = find_child(node, "rect").attributes;
		var width = parseFloat(attr.width.value);
		var xmin = parseFloat(attr.x.value);
		var xmax = parseFloat(xmin + width);
		var ymin = parseFloat(attr.y.value);
		var ratio = (svg.width.baseVal.value - 2 * 10) / width;

		// XXX: Workaround for JavaScript float issues (fix me)
		var fudge = 0.0001;

		unzoombtn.classList.remove("hide");

		var el = document.getElementById("frames").children;
		for (var i = 0; i < el.length; i++) {
			var e = el[i];
			var a = find_child(e, "rect").attributes;
			var ex = parseFloat(a.x.value);
			var ew = parseFloat(a.width.value);
			var upstack;
			// Is it an ancestor
			if (0 == 0) {
				upstack = parseFloat(a.y.value) > ymin;
			} else {
				upstack = parseFloat(a.y.value) < ymin;
			}
			if (upstack) {
				// Direct ancestor
				if (ex <= xmin && (ex+ew+fudge) >= xmax) {
					e.classList.add("parent");
					zoom_parent(e);
					update_text(e);
				}
				// not in current path
				else
					e.classList.add("hide");
			}
			// Children maybe
			else {
				// no common path
				if (ex < xmin || ex + fudge >= xmax) {
					e.classList.add("hide");
				}
				else {
					zoom_child(e, xmin, ratio);
					update_text(e);
				}
			}
		}
		search();
	}
	function unzoom(dont_update_text) {
		unzoombtn.classList.add("hide");
		var el = document.getElementById("frames").children;
		for(var i = 0; i < el.length; i++) {
			el[i].classList.remove("parent");
			el[i].classList.remove("hide");
			zoom_reset(el[i]);
			if(!dont_update_text) update_text(el[i]);
		}
		search();
	}
	function clearzoom() {
		unzoom();

		// remove zoom state
		var params = get_params();
		if (params.x) delete params.x;
		if (params.y) delete params.y;
		history.replaceState(null, null, parse_params(params));
	}

	// search
	function toggle_ignorecase() {
		ignorecase = !ignorecase;
		if (ignorecase) {
			ignorecaseBtn.classList.add("show");
		} else {
			ignorecaseBtn.classList.remove("show");
		}
		reset_search();
		search();
	}
	function reset_search() {
		var el = document.querySelectorAll("#frames rect");
		for (var i = 0; i < el.length; i++) {
			orig_load(el[i], "fill")
		}
		var params = get_params();
		delete params.s;
		history.replaceState(null, null, parse_params(params));
	}
	function search_prompt() {
		if (!searching) {
			var term = prompt("Enter a search term (regexp " +
			    "allowed, eg: ^ext4_)"
			    + (ignorecase ? ", ignoring case" : "")
			    + "\nPress Ctrl-i to toggle case sensitivity", "");
			if (term != null) search(term);
		} else {
			reset_search();
			searching = 0;
			currentSearchTerm = null;
			searchbtn.classList.remove("show");
			searchbtn.firstChild.nodeValue = "Search"
			matchedtxt.classList.add("hide");
			matchedtxt.firstChild.nodeValue = ""
		}
	}
	function search(term) {
		if (term) currentSearchTerm = term;

		var re = new RegExp(currentSearchTerm, ignorecase ? 'i' : '');
		var el = document.getElementById("frames").children;
		var matches = new Object();
		var maxwidth = 0;
		for (var i = 0; i < el.length; i++) {
			var e = el[i];
			var func = g_to_func(e);
			var rect = find_child(e, "rect");
			if (func == null || rect == null)
				continue;

			// Save max width. Only works as we have a root frame
			var w = parseFloat(rect.attributes.width.value);
			if (w > maxwidth)
				maxwidth = w;

			if (func.match(re)) {
				// highlight
				var x = parseFloat(rect.attributes.x.value);
				orig_save(rect, "fill");
				rect.attributes.fill.value = "rgb(230,0,230)";

				// remember matches
				if (matches[x] == undefined) {
					matches[x] = w;
				} else {
					if (w > matches[x]) {
						// overwrite with parent
						matches[x] = w;
					}
				}
				searching = 1;
			}
		}
		if (!searching)
			return;
		var params = get_params();
		params.s = currentSearchTerm;
		history.replaceState(null, null, parse_params(params));

		searchbtn.classList.add("show");
		searchbtn.firstChild.nodeValue = "Reset Search";

		// calculate percent matched, excluding vertical overlap
		var count = 0;
		var lastx = -1;
		var lastw = 0;
		var keys = Array();
		for (k in matches) {
			if (matches.hasOwnProperty(k))
				keys.push(k);
		}
		// sort the matched frames by their x location
		// ascending, then width descending
		keys.sort(function(a, b){
			return a - b;
		});
		// Step through frames saving only the biggest bottom-up frames
		// thanks to the sort order. This relies on the tree property
		// where children are always smaller than their parents.
		var fudge = 0.0001;	// JavaScript floating point
		for (var k in keys) {
			var x = parseFloat(keys[k]);
			var w = matches[keys[k]];
			if (x >= lastx + lastw - fudge) {
				count += w;
				lastx = x;
				lastw = w;
			}
		}
		// display matched percent
		matchedtxt.classList.remove("hide");
		var pct = 100 * count / maxwidth;
		if (pct != 100) pct = pct.toFixed(1)
		matchedtxt.firstChild.nodeValue = "Matched: " + pct + "%";
	}
]]>
</script>
<rect x="0.0" y="0" width="1200.0" height="982.0" fill="url(#background)"  />
<text id="title" x="600.00" y="24" >Flame Graph</text>
<text id="details" x="10.00" y="965" > </text>
<text id="unzoom" x="10.00" y="24" class="hide">Reset Zoom</text>
<text id="search" x="1090.00" y="24" >Search</text>
<text id="ignorecase" x="1174.00" y="24" >ic</text>
<text id="matched" x="1090.00" y="965" > </text>
<g id="frames">
<g >
<title>__sys_sendto (2,750,377 samples, 0.01%)</title><rect x="1189.9" y="677" width="0.1" height="15.0" fill="rgb(236,146,34)" rx="2" ry="2" />
<text  x="1192.88" y="687.5" ></text>
</g>
<g >
<title>scheduler_tick (2,750,823 samples, 0.01%)</title><rect x="1071.0" y="565" width="0.1" height="15.0" fill="rgb(246,190,45)" rx="2" ry="2" />
<text  x="1073.95" y="575.5" ></text>
</g>
<g >
<title>x86_pmu_enable (2,751,231 samples, 0.01%)</title><rect x="526.9" y="485" width="0.1" height="15.0" fill="rgb(244,179,43)" rx="2" ry="2" />
<text  x="529.90" y="495.5" ></text>
</g>
<g >
<title>rcu_core_si (2,750,312 samples, 0.01%)</title><rect x="527.0" y="597" width="0.1" height="15.0" fill="rgb(237,150,36)" rx="2" ry="2" />
<text  x="530.01" y="607.5" ></text>
</g>
<g >
<title>PortalRunSelect (27,514,149,634 samples, 99.98%)</title><rect x="10.1" y="757" width="1179.8" height="15.0" fill="rgb(245,188,45)" rx="2" ry="2" />
<text  x="13.12" y="767.5" >PortalRunSelect</text>
</g>
<g >
<title>hash_search_with_hash_value (60,509,479 samples, 0.22%)</title><rect x="1133.3" y="613" width="2.6" height="15.0" fill="rgb(249,205,49)" rx="2" ry="2" />
<text  x="1136.27" y="623.5" ></text>
</g>
<g >
<title>all (27,519,650,394 samples, 100%)</title><rect x="10.0" y="933" width="1180.0" height="15.0" fill="rgb(213,39,9)" rx="2" ry="2" />
<text  x="13.00" y="943.5" ></text>
</g>
<g >
<title>[postgres] (27,516,900,011 samples, 99.99%)</title><rect x="10.1" y="821" width="1179.9" height="15.0" fill="rgb(245,184,44)" rx="2" ry="2" />
<text  x="13.12" y="831.5" >[postgres]</text>
</g>
<g >
<title>entry_SYSCALL_64_after_hwframe (2,750,377 samples, 0.01%)</title><rect x="1189.9" y="741" width="0.1" height="15.0" fill="rgb(218,63,15)" rx="2" ry="2" />
<text  x="1192.88" y="751.5" ></text>
</g>
<g >
<title>scheduler_tick (5,501,845 samples, 0.02%)</title><rect x="114.3" y="565" width="0.2" height="15.0" fill="rgb(246,190,45)" rx="2" ry="2" />
<text  x="117.25" y="575.5" ></text>
</g>
<g >
<title>do_softirq (2,750,377 samples, 0.01%)</title><rect x="1189.9" y="405" width="0.1" height="15.0" fill="rgb(223,87,20)" rx="2" ry="2" />
<text  x="1192.88" y="415.5" ></text>
</g>
<g >
<title>__sysvec_apic_timer_interrupt (8,252,463 samples, 0.03%)</title><rect x="1028.6" y="629" width="0.4" height="15.0" fill="rgb(242,173,41)" rx="2" ry="2" />
<text  x="1031.61" y="639.5" ></text>
</g>
<g >
<title>sysvec_apic_timer_interrupt (5,503,841 samples, 0.02%)</title><rect x="1071.0" y="677" width="0.2" height="15.0" fill="rgb(220,69,16)" rx="2" ry="2" />
<text  x="1073.95" y="687.5" ></text>
</g>
<g >
<title>ResourceOwnerRemember (5,501,079 samples, 0.02%)</title><rect x="1094.6" y="677" width="0.2" height="15.0" fill="rgb(243,178,42)" rx="2" ry="2" />
<text  x="1097.55" y="687.5" ></text>
</g>
<g >
<title>postgres (27,519,650,394 samples, 100.00%)</title><rect x="10.0" y="917" width="1180.0" height="15.0" fill="rgb(233,131,31)" rx="2" ry="2" />
<text  x="13.00" y="927.5" >postgres</text>
</g>
<g >
<title>bpcharlen (71,513,197 samples, 0.26%)</title><rect x="1176.2" y="709" width="3.1" height="15.0" fill="rgb(221,77,18)" rx="2" ry="2" />
<text  x="1179.20" y="719.5" ></text>
</g>
<g >
<title>read_stream_next_buffer (1,116,751,715 samples, 4.06%)</title><rect x="1128.2" y="661" width="47.9" height="15.0" fill="rgb(216,50,12)" rx="2" ry="2" />
<text  x="1131.20" y="671.5" >read..</text>
</g>
<g >
<title>__hrtimer_run_queues (2,751,231 samples, 0.01%)</title><rect x="526.9" y="597" width="0.1" height="15.0" fill="rgb(237,150,35)" rx="2" ry="2" />
<text  x="529.90" y="607.5" ></text>
</g>
<g >
<title>raw_spin_rq_lock_nested (2,750,377 samples, 0.01%)</title><rect x="1189.9" y="37" width="0.1" height="15.0" fill="rgb(206,5,1)" rx="2" ry="2" />
<text  x="1192.88" y="47.5" ></text>
</g>
<g >
<title>native_sched_clock (2,750,469 samples, 0.01%)</title><rect x="1028.8" y="469" width="0.2" height="15.0" fill="rgb(218,64,15)" rx="2" ry="2" />
<text  x="1031.84" y="479.5" ></text>
</g>
<g >
<title>update_process_times (2,750,823 samples, 0.01%)</title><rect x="1071.0" y="581" width="0.1" height="15.0" fill="rgb(250,209,50)" rx="2" ry="2" />
<text  x="1073.95" y="591.5" ></text>
</g>
<g >
<title>sched_clock_cpu (2,750,867 samples, 0.01%)</title><rect x="1028.7" y="485" width="0.1" height="15.0" fill="rgb(229,113,27)" rx="2" ry="2" />
<text  x="1031.72" y="495.5" ></text>
</g>
<g >
<title>tcp_push (2,750,377 samples, 0.01%)</title><rect x="1189.9" y="597" width="0.1" height="15.0" fill="rgb(243,176,42)" rx="2" ry="2" />
<text  x="1192.88" y="607.5" ></text>
</g>
<g >
<title>ReleaseBuffer (162,255,152 samples, 0.59%)</title><rect x="1085.8" y="661" width="7.0" height="15.0" fill="rgb(220,71,17)" rx="2" ry="2" />
<text  x="1088.81" y="671.5" ></text>
</g>
<g >
<title>LWLockAttemptLock (93,517,666 samples, 0.34%)</title><rect x="1124.2" y="645" width="4.0" height="15.0" fill="rgb(235,138,33)" rx="2" ry="2" />
<text  x="1127.19" y="655.5" ></text>
</g>
<g >
<title>net_rx_action (2,750,377 samples, 0.01%)</title><rect x="1189.9" y="357" width="0.1" height="15.0" fill="rgb(240,164,39)" rx="2" ry="2" />
<text  x="1192.88" y="367.5" ></text>
</g>
<g >
<title>handle_softirqs (2,750,377 samples, 0.01%)</title><rect x="1189.9" y="373" width="0.1" height="15.0" fill="rgb(238,156,37)" rx="2" ry="2" />
<text  x="1192.88" y="383.5" ></text>
</g>
<g >
<title>ExecStoreBufferHeapTuple (35,757,478 samples, 0.13%)</title><rect x="1069.4" y="693" width="1.6" height="15.0" fill="rgb(230,117,28)" rx="2" ry="2" />
<text  x="1072.42" y="703.5" ></text>
</g>
<g >
<title>process_backlog (2,750,377 samples, 0.01%)</title><rect x="1189.9" y="325" width="0.1" height="15.0" fill="rgb(224,90,21)" rx="2" ry="2" />
<text  x="1192.88" y="335.5" ></text>
</g>
<g >
<title>perf_adjust_freq_unthr_context (2,751,127 samples, 0.01%)</title><rect x="1028.6" y="501" width="0.1" height="15.0" fill="rgb(236,146,35)" rx="2" ry="2" />
<text  x="1031.61" y="511.5" ></text>
</g>
<g >
<title>tcp_sendmsg (2,750,377 samples, 0.01%)</title><rect x="1189.9" y="629" width="0.1" height="15.0" fill="rgb(223,83,19)" rx="2" ry="2" />
<text  x="1192.88" y="639.5" ></text>
</g>
<g >
<title>ip_protocol_deliver_rcu (2,750,377 samples, 0.01%)</title><rect x="1189.9" y="229" width="0.1" height="15.0" fill="rgb(215,49,11)" rx="2" ry="2" />
<text  x="1192.88" y="239.5" ></text>
</g>
<g >
<title>update_process_times (2,751,231 samples, 0.01%)</title><rect x="526.9" y="549" width="0.1" height="15.0" fill="rgb(250,209,50)" rx="2" ry="2" />
<text  x="529.90" y="559.5" ></text>
</g>
<g >
<title>sysvec_apic_timer_interrupt (11,003,339 samples, 0.04%)</title><rect x="1028.6" y="645" width="0.5" height="15.0" fill="rgb(220,69,16)" rx="2" ry="2" />
<text  x="1031.61" y="655.5" ></text>
</g>
<g >
<title>BufTableLookup (60,509,479 samples, 0.22%)</title><rect x="1133.3" y="629" width="2.6" height="15.0" fill="rgb(224,89,21)" rx="2" ry="2" />
<text  x="1136.27" y="639.5" ></text>
</g>
<g >
<title>x86_pmu_disable (2,750,823 samples, 0.01%)</title><rect x="1071.0" y="517" width="0.1" height="15.0" fill="rgb(239,160,38)" rx="2" ry="2" />
<text  x="1073.95" y="527.5" ></text>
</g>
<g >
<title>asm_sysvec_apic_timer_interrupt (13,754,105 samples, 0.05%)</title><rect x="1028.5" y="661" width="0.6" height="15.0" fill="rgb(232,127,30)" rx="2" ry="2" />
<text  x="1031.49" y="671.5" ></text>
</g>
<g >
<title>native_write_msr (2,750,823 samples, 0.01%)</title><rect x="1071.0" y="485" width="0.1" height="15.0" fill="rgb(237,151,36)" rx="2" ry="2" />
<text  x="1073.95" y="495.5" ></text>
</g>
<g >
<title>ip_output (2,750,377 samples, 0.01%)</title><rect x="1189.9" y="485" width="0.1" height="15.0" fill="rgb(247,194,46)" rx="2" ry="2" />
<text  x="1192.88" y="495.5" ></text>
</g>
<g >
<title>hrtimer_interrupt (5,501,845 samples, 0.02%)</title><rect x="114.3" y="645" width="0.2" height="15.0" fill="rgb(228,109,26)" rx="2" ry="2" />
<text  x="117.25" y="655.5" ></text>
</g>
<g >
<title>tcp_v4_rcv (2,750,377 samples, 0.01%)</title><rect x="1189.9" y="213" width="0.1" height="15.0" fill="rgb(237,148,35)" rx="2" ry="2" />
<text  x="1192.88" y="223.5" ></text>
</g>
<g >
<title>read_tsc (2,750,693 samples, 0.01%)</title><rect x="1071.1" y="629" width="0.1" height="15.0" fill="rgb(206,7,1)" rx="2" ry="2" />
<text  x="1074.07" y="639.5" ></text>
</g>
<g >
<title>heap_prepare_pagescan (2,750,383 samples, 0.01%)</title><rect x="10.0" y="869" width="0.1" height="15.0" fill="rgb(222,82,19)" rx="2" ry="2" />
<text  x="13.00" y="879.5" ></text>
</g>
<g >
<title>LWLockAcquire (2,750,240 samples, 0.01%)</title><rect x="1124.1" y="645" width="0.1" height="15.0" fill="rgb(209,20,4)" rx="2" ry="2" />
<text  x="1127.07" y="655.5" ></text>
</g>
<g >
<title>tcp_data_queue (2,750,377 samples, 0.01%)</title><rect x="1189.9" y="165" width="0.1" height="15.0" fill="rgb(228,109,26)" rx="2" ry="2" />
<text  x="1192.88" y="175.5" ></text>
</g>
<g >
<title>inet_sendmsg (2,750,377 samples, 0.01%)</title><rect x="1189.9" y="645" width="0.1" height="15.0" fill="rgb(244,183,43)" rx="2" ry="2" />
<text  x="1192.88" y="655.5" ></text>
</g>
<g >
<title>ip_local_out (2,750,377 samples, 0.01%)</title><rect x="1189.9" y="501" width="0.1" height="15.0" fill="rgb(233,131,31)" rx="2" ry="2" />
<text  x="1192.88" y="511.5" ></text>
</g>
<g >
<title>update_rq_clock (2,750,469 samples, 0.01%)</title><rect x="1028.8" y="517" width="0.2" height="15.0" fill="rgb(231,119,28)" rx="2" ry="2" />
<text  x="1031.84" y="527.5" ></text>
</g>
<g >
<title>pg_utf_mblen_private (11,706,232,879 samples, 42.54%)</title><rect x="527.1" y="677" width="502.0" height="15.0" fill="rgb(242,173,41)" rx="2" ry="2" />
<text  x="530.13" y="687.5" >pg_utf_mblen_private</text>
</g>
<g >
<title>tick_sched_handle (8,252,463 samples, 0.03%)</title><rect x="1028.6" y="565" width="0.4" height="15.0" fill="rgb(219,68,16)" rx="2" ry="2" />
<text  x="1031.61" y="575.5" ></text>
</g>
<g >
<title>bpcharlen (21,329,805,498 samples, 77.51%)</title><rect x="114.5" y="693" width="914.6" height="15.0" fill="rgb(221,77,18)" rx="2" ry="2" />
<text  x="117.49" y="703.5" >bpcharlen</text>
</g>
<g >
<title>update_process_times (8,252,463 samples, 0.03%)</title><rect x="1028.6" y="549" width="0.4" height="15.0" fill="rgb(250,209,50)" rx="2" ry="2" />
<text  x="1031.61" y="559.5" ></text>
</g>
<g >
<title>tick_sched_timer (2,750,823 samples, 0.01%)</title><rect x="1071.0" y="613" width="0.1" height="15.0" fill="rgb(254,227,54)" rx="2" ry="2" />
<text  x="1073.95" y="623.5" ></text>
</g>
<g >
<title>arch_scale_freq_tick (2,750,892 samples, 0.01%)</title><rect x="114.3" y="549" width="0.1" height="15.0" fill="rgb(252,219,52)" rx="2" ry="2" />
<text  x="117.25" y="559.5" ></text>
</g>
<g >
<title>read_stream_next_buffer (2,750,091 samples, 0.01%)</title><rect x="1176.1" y="677" width="0.1" height="15.0" fill="rgb(216,50,12)" rx="2" ry="2" />
<text  x="1179.08" y="687.5" ></text>
</g>
<g >
<title>__local_bh_enable_ip (2,750,377 samples, 0.01%)</title><rect x="1189.9" y="421" width="0.1" height="15.0" fill="rgb(237,147,35)" rx="2" ry="2" />
<text  x="1192.88" y="431.5" ></text>
</g>
<g >
<title>ReleaseBuffer (2,750,362 samples, 0.01%)</title><rect x="1094.4" y="677" width="0.2" height="15.0" fill="rgb(220,71,17)" rx="2" ry="2" />
<text  x="1097.44" y="687.5" ></text>
</g>
<g >
<title>ip_rcv (2,750,377 samples, 0.01%)</title><rect x="1189.9" y="277" width="0.1" height="15.0" fill="rgb(209,22,5)" rx="2" ry="2" />
<text  x="1192.88" y="287.5" ></text>
</g>
<g >
<title>task_tick_fair (2,750,867 samples, 0.01%)</title><rect x="1028.7" y="517" width="0.1" height="15.0" fill="rgb(217,57,13)" rx="2" ry="2" />
<text  x="1031.72" y="527.5" ></text>
</g>
<g >
<title>MemoryContextReset (8,251,665 samples, 0.03%)</title><rect x="1188.9" y="725" width="0.4" height="15.0" fill="rgb(210,26,6)" rx="2" ry="2" />
<text  x="1191.94" y="735.5" ></text>
</g>
<g >
<title>hrtimer_interrupt (5,501,516 samples, 0.02%)</title><rect x="1071.0" y="645" width="0.2" height="15.0" fill="rgb(228,109,26)" rx="2" ry="2" />
<text  x="1073.95" y="655.5" ></text>
</g>
<g >
<title>perf_adjust_freq_unthr_context (2,751,231 samples, 0.01%)</title><rect x="526.9" y="501" width="0.1" height="15.0" fill="rgb(236,146,35)" rx="2" ry="2" />
<text  x="529.90" y="511.5" ></text>
</g>
<g >
<title>heap_getnextslot (2,449,021,247 samples, 8.90%)</title><rect x="1071.2" y="693" width="105.0" height="15.0" fill="rgb(213,40,9)" rx="2" ry="2" />
<text  x="1074.19" y="703.5" >heap_getnext..</text>
</g>
<g >
<title>slot_getsomeattrs_int (38,508,194 samples, 0.14%)</title><rect x="1187.3" y="709" width="1.6" height="15.0" fill="rgb(252,219,52)" rx="2" ry="2" />
<text  x="1190.29" y="719.5" ></text>
</g>
<g >
<title>perf_adjust_freq_unthr_context (2,750,953 samples, 0.01%)</title><rect x="114.4" y="533" width="0.1" height="15.0" fill="rgb(236,146,35)" rx="2" ry="2" />
<text  x="117.37" y="543.5" ></text>
</g>
<g >
<title>heapgettup_pagemode (1,895,856,776 samples, 6.89%)</title><rect x="1094.8" y="677" width="81.3" height="15.0" fill="rgb(242,170,40)" rx="2" ry="2" />
<text  x="1097.79" y="687.5" >heapgettu..</text>
</g>
<g >
<title>__libc_start_call_main (27,516,900,011 samples, 99.99%)</title><rect x="10.1" y="901" width="1179.9" height="15.0" fill="rgb(210,26,6)" rx="2" ry="2" />
<text  x="13.12" y="911.5" >__libc_start_call_main</text>
</g>
<g >
<title>__ip_finish_output (2,750,377 samples, 0.01%)</title><rect x="1189.9" y="453" width="0.1" height="15.0" fill="rgb(215,47,11)" rx="2" ry="2" />
<text  x="1192.88" y="463.5" ></text>
</g>
<g >
<title>srso_alias_safe_ret (2,750,876 samples, 0.01%)</title><rect x="1029.0" y="629" width="0.1" height="15.0" fill="rgb(242,170,40)" rx="2" ry="2" />
<text  x="1031.96" y="639.5" ></text>
</g>
<g >
<title>slot_getsomeattrs_int (539,097,351 samples, 1.96%)</title><rect x="1032.1" y="693" width="23.2" height="15.0" fill="rgb(252,219,52)" rx="2" ry="2" />
<text  x="1035.14" y="703.5" >s..</text>
</g>
<g >
<title>tcp_v4_do_rcv (2,750,377 samples, 0.01%)</title><rect x="1189.9" y="197" width="0.1" height="15.0" fill="rgb(210,26,6)" rx="2" ry="2" />
<text  x="1192.88" y="207.5" ></text>
</g>
<g >
<title>srso_alias_safe_ret (2,750,383 samples, 0.01%)</title><rect x="10.0" y="853" width="0.1" height="15.0" fill="rgb(242,170,40)" rx="2" ry="2" />
<text  x="13.00" y="863.5" ></text>
</g>
<g >
<title>LWLockRelease (60,508,225 samples, 0.22%)</title><rect x="1113.9" y="661" width="2.6" height="15.0" fill="rgb(217,58,13)" rx="2" ry="2" />
<text  x="1116.93" y="671.5" ></text>
</g>
<g >
<title>tick_sched_handle (2,750,823 samples, 0.01%)</title><rect x="1071.0" y="597" width="0.1" height="15.0" fill="rgb(219,68,16)" rx="2" ry="2" />
<text  x="1073.95" y="607.5" ></text>
</g>
<g >
<title>perf_event_task_tick (2,751,127 samples, 0.01%)</title><rect x="1028.6" y="517" width="0.1" height="15.0" fill="rgb(205,3,0)" rx="2" ry="2" />
<text  x="1031.61" y="527.5" ></text>
</g>
<g >
<title>__sysvec_apic_timer_interrupt (5,501,516 samples, 0.02%)</title><rect x="1071.0" y="661" width="0.2" height="15.0" fill="rgb(242,173,41)" rx="2" ry="2" />
<text  x="1073.95" y="671.5" ></text>
</g>
<g >
<title>asm_sysvec_apic_timer_interrupt (5,503,841 samples, 0.02%)</title><rect x="1071.0" y="693" width="0.2" height="15.0" fill="rgb(232,127,30)" rx="2" ry="2" />
<text  x="1073.95" y="703.5" ></text>
</g>
<g >
<title>tick_sched_timer (5,501,845 samples, 0.02%)</title><rect x="114.3" y="613" width="0.2" height="15.0" fill="rgb(254,227,54)" rx="2" ry="2" />
<text  x="117.25" y="623.5" ></text>
</g>
<g >
<title>amd_pmu_disable_all (2,750,823 samples, 0.01%)</title><rect x="1071.0" y="501" width="0.1" height="15.0" fill="rgb(213,38,9)" rx="2" ry="2" />
<text  x="1073.95" y="511.5" ></text>
</g>
<g >
<title>__hrtimer_run_queues (8,252,463 samples, 0.03%)</title><rect x="1028.6" y="597" width="0.4" height="15.0" fill="rgb(237,150,35)" rx="2" ry="2" />
<text  x="1031.61" y="607.5" ></text>
</g>
<g >
<title>socket_flush (2,750,377 samples, 0.01%)</title><rect x="1189.9" y="789" width="0.1" height="15.0" fill="rgb(230,116,27)" rx="2" ry="2" />
<text  x="1192.88" y="799.5" ></text>
</g>
<g >
<title>pg_detoast_datum_packed (35,757,284 samples, 0.13%)</title><rect x="1030.6" y="693" width="1.5" height="15.0" fill="rgb(238,155,37)" rx="2" ry="2" />
<text  x="1033.61" y="703.5" ></text>
</g>
<g >
<title>internal_flush_buffer (2,750,377 samples, 0.01%)</title><rect x="1189.9" y="773" width="0.1" height="15.0" fill="rgb(251,214,51)" rx="2" ry="2" />
<text  x="1192.88" y="783.5" ></text>
</g>
<g >
<title>asm_sysvec_apic_timer_interrupt (8,252,233 samples, 0.03%)</title><rect x="526.8" y="661" width="0.3" height="15.0" fill="rgb(232,127,30)" rx="2" ry="2" />
<text  x="529.78" y="671.5" ></text>
</g>
<g >
<title>[unknown] (2,750,383 samples, 0.01%)</title><rect x="10.0" y="901" width="0.1" height="15.0" fill="rgb(210,24,5)" rx="2" ry="2" />
<text  x="13.00" y="911.5" ></text>
</g>
<g >
<title>__hrtimer_run_queues (5,501,845 samples, 0.02%)</title><rect x="114.3" y="629" width="0.2" height="15.0" fill="rgb(237,150,35)" rx="2" ry="2" />
<text  x="117.25" y="639.5" ></text>
</g>
<g >
<title>__softirqentry_text_start (2,750,377 samples, 0.01%)</title><rect x="1189.9" y="389" width="0.1" height="15.0" fill="rgb(234,135,32)" rx="2" ry="2" />
<text  x="1192.88" y="399.5" ></text>
</g>
<g >
<title>ip_finish_output2 (2,750,377 samples, 0.01%)</title><rect x="1189.9" y="437" width="0.1" height="15.0" fill="rgb(219,67,16)" rx="2" ry="2" />
<text  x="1192.88" y="447.5" ></text>
</g>
<g >
<title>native_read_msr (2,750,892 samples, 0.01%)</title><rect x="114.3" y="533" width="0.1" height="15.0" fill="rgb(211,30,7)" rx="2" ry="2" />
<text  x="117.25" y="543.5" ></text>
</g>
<g >
<title>__sysvec_apic_timer_interrupt (5,501,845 samples, 0.02%)</title><rect x="114.3" y="661" width="0.2" height="15.0" fill="rgb(242,173,41)" rx="2" ry="2" />
<text  x="117.25" y="671.5" ></text>
</g>
<g >
<title>heap_getnextslot (134,770,117 samples, 0.49%)</title><rect x="1179.3" y="709" width="5.7" height="15.0" fill="rgb(213,40,9)" rx="2" ry="2" />
<text  x="1182.27" y="719.5" ></text>
</g>
<g >
<title>irq_exit_rcu (2,750,312 samples, 0.01%)</title><rect x="527.0" y="629" width="0.1" height="15.0" fill="rgb(254,227,54)" rx="2" ry="2" />
<text  x="530.01" y="639.5" ></text>
</g>
<g >
<title>handle_softirqs (2,750,312 samples, 0.01%)</title><rect x="527.0" y="613" width="0.1" height="15.0" fill="rgb(238,156,37)" rx="2" ry="2" />
<text  x="530.01" y="623.5" ></text>
</g>
<g >
<title>tcp_data_ready (2,750,377 samples, 0.01%)</title><rect x="1189.9" y="149" width="0.1" height="15.0" fill="rgb(232,124,29)" rx="2" ry="2" />
<text  x="1192.88" y="159.5" ></text>
</g>
<g >
<title>GetPrivateRefCountEntry (5,500,228 samples, 0.02%)</title><rect x="1085.6" y="645" width="0.2" height="15.0" fill="rgb(250,209,50)" rx="2" ry="2" />
<text  x="1088.58" y="655.5" ></text>
</g>
<g >
<title>tcp_write_xmit (2,750,377 samples, 0.01%)</title><rect x="1189.9" y="565" width="0.1" height="15.0" fill="rgb(231,122,29)" rx="2" ry="2" />
<text  x="1192.88" y="575.5" ></text>
</g>
<g >
<title>tick_sched_timer (8,252,463 samples, 0.03%)</title><rect x="1028.6" y="581" width="0.4" height="15.0" fill="rgb(254,227,54)" rx="2" ry="2" />
<text  x="1031.61" y="591.5" ></text>
</g>
<g >
<title>SeqNext (2,647,102,375 samples, 9.62%)</title><rect x="1062.7" y="709" width="113.5" height="15.0" fill="rgb(214,41,10)" rx="2" ry="2" />
<text  x="1065.70" y="719.5" >SeqNext</text>
</g>
<g >
<title>sched_clock_cpu (2,750,469 samples, 0.01%)</title><rect x="1028.8" y="501" width="0.2" height="15.0" fill="rgb(229,113,27)" rx="2" ry="2" />
<text  x="1031.84" y="511.5" ></text>
</g>
<g >
<title>LWLockAttemptLock (239,289,602 samples, 0.87%)</title><rect x="1135.9" y="629" width="10.2" height="15.0" fill="rgb(235,138,33)" rx="2" ry="2" />
<text  x="1138.86" y="639.5" ></text>
</g>
<g >
<title>PostgresMain (27,516,900,011 samples, 99.99%)</title><rect x="10.1" y="805" width="1179.9" height="15.0" fill="rgb(227,103,24)" rx="2" ry="2" />
<text  x="13.12" y="815.5" >PostgresMain</text>
</g>
<g >
<title>__send (2,750,377 samples, 0.01%)</title><rect x="1189.9" y="757" width="0.1" height="15.0" fill="rgb(234,134,32)" rx="2" ry="2" />
<text  x="1192.88" y="767.5" ></text>
</g>
<g >
<title>__x64_sys_sendto (2,750,377 samples, 0.01%)</title><rect x="1189.9" y="693" width="0.1" height="15.0" fill="rgb(213,37,8)" rx="2" ry="2" />
<text  x="1192.88" y="703.5" ></text>
</g>
<g >
<title>tick_sched_handle (2,751,231 samples, 0.01%)</title><rect x="526.9" y="565" width="0.1" height="15.0" fill="rgb(219,68,16)" rx="2" ry="2" />
<text  x="529.90" y="575.5" ></text>
</g>
<g >
<title>pollwake (2,750,377 samples, 0.01%)</title><rect x="1189.9" y="69" width="0.1" height="15.0" fill="rgb(238,154,37)" rx="2" ry="2" />
<text  x="1192.88" y="79.5" ></text>
</g>
<g >
<title>[unknown] (2,750,383 samples, 0.01%)</title><rect x="10.0" y="885" width="0.1" height="15.0" fill="rgb(210,24,5)" rx="2" ry="2" />
<text  x="13.00" y="895.5" ></text>
</g>
<g >
<title>postmaster_child_launch (27,516,900,011 samples, 99.99%)</title><rect x="10.1" y="837" width="1179.9" height="15.0" fill="rgb(206,5,1)" rx="2" ry="2" />
<text  x="13.12" y="847.5" >postmaster_child_launch</text>
</g>
<g >
<title>PortalRun (27,514,149,634 samples, 99.98%)</title><rect x="10.1" y="773" width="1179.8" height="15.0" fill="rgb(223,85,20)" rx="2" ry="2" />
<text  x="13.12" y="783.5" >PortalRun</text>
</g>
<g >
<title>__wake_up_sync_key (2,750,377 samples, 0.01%)</title><rect x="1189.9" y="117" width="0.1" height="15.0" fill="rgb(226,100,24)" rx="2" ry="2" />
<text  x="1192.88" y="127.5" ></text>
</g>
<g >
<title>__tcp_push_pending_frames (2,750,377 samples, 0.01%)</title><rect x="1189.9" y="581" width="0.1" height="15.0" fill="rgb(230,117,28)" rx="2" ry="2" />
<text  x="1192.88" y="591.5" ></text>
</g>
<g >
<title>standard_ExecutorRun (27,514,149,634 samples, 99.98%)</title><rect x="10.1" y="741" width="1179.8" height="15.0" fill="rgb(247,196,47)" rx="2" ry="2" />
<text  x="13.12" y="751.5" >standard_ExecutorRun</text>
</g>
<g >
<title>irq_enter_rcu (2,750,690 samples, 0.01%)</title><rect x="526.8" y="645" width="0.1" height="15.0" fill="rgb(208,15,3)" rx="2" ry="2" />
<text  x="529.78" y="655.5" ></text>
</g>
<g >
<title>ResourceOwnerForget (24,755,356 samples, 0.09%)</title><rect x="1091.7" y="645" width="1.1" height="15.0" fill="rgb(235,142,33)" rx="2" ry="2" />
<text  x="1094.71" y="655.5" ></text>
</g>
<g >
<title>__sysvec_apic_timer_interrupt (2,751,231 samples, 0.01%)</title><rect x="526.9" y="629" width="0.1" height="15.0" fill="rgb(242,173,41)" rx="2" ry="2" />
<text  x="529.90" y="639.5" ></text>
</g>
<g >
<title>ip_finish_output (2,750,377 samples, 0.01%)</title><rect x="1189.9" y="469" width="0.1" height="15.0" fill="rgb(242,173,41)" rx="2" ry="2" />
<text  x="1192.88" y="479.5" ></text>
</g>
<g >
<title>tcp_sendmsg_locked (2,750,377 samples, 0.01%)</title><rect x="1189.9" y="613" width="0.1" height="15.0" fill="rgb(215,48,11)" rx="2" ry="2" />
<text  x="1192.88" y="623.5" ></text>
</g>
<g >
<title>exec_simple_query (27,514,149,634 samples, 99.98%)</title><rect x="10.1" y="789" width="1179.8" height="15.0" fill="rgb(211,29,6)" rx="2" ry="2" />
<text  x="13.12" y="799.5" >exec_simple_query</text>
</g>
<g >
<title>do_syscall_64 (2,750,377 samples, 0.01%)</title><rect x="1189.9" y="725" width="0.1" height="15.0" fill="rgb(209,20,4)" rx="2" ry="2" />
<text  x="1192.88" y="735.5" ></text>
</g>
<g >
<title>tts_buffer_heap_getsomeattrs (363,060,914 samples, 1.32%)</title><rect x="1039.7" y="677" width="15.6" height="15.0" fill="rgb(222,81,19)" rx="2" ry="2" />
<text  x="1042.69" y="687.5" ></text>
</g>
<g >
<title>hash_bytes (30,255,837 samples, 0.11%)</title><rect x="1174.7" y="645" width="1.3" height="15.0" fill="rgb(227,102,24)" rx="2" ry="2" />
<text  x="1177.67" y="655.5" ></text>
</g>
<g >
<title>x86_pmu_disable_all (2,750,953 samples, 0.01%)</title><rect x="114.4" y="485" width="0.1" height="15.0" fill="rgb(254,227,54)" rx="2" ry="2" />
<text  x="117.37" y="495.5" ></text>
</g>
<g >
<title>BufferGetBlockNumber (49,510,517 samples, 0.18%)</title><rect x="1078.7" y="677" width="2.2" height="15.0" fill="rgb(206,7,1)" rx="2" ry="2" />
<text  x="1081.74" y="687.5" ></text>
</g>
<g >
<title>PinBuffer (585,912,495 samples, 2.13%)</title><rect x="1149.3" y="629" width="25.1" height="15.0" fill="rgb(219,64,15)" rx="2" ry="2" />
<text  x="1152.31" y="639.5" >P..</text>
</g>
<g >
<title>scheduler_tick (8,252,463 samples, 0.03%)</title><rect x="1028.6" y="533" width="0.4" height="15.0" fill="rgb(246,190,45)" rx="2" ry="2" />
<text  x="1031.61" y="543.5" ></text>
</g>
<g >
<title>main (27,516,900,011 samples, 99.99%)</title><rect x="10.1" y="885" width="1179.9" height="15.0" fill="rgb(243,179,42)" rx="2" ry="2" />
<text  x="13.12" y="895.5" >main</text>
</g>
<g >
<title>PostmasterMain (27,516,900,011 samples, 99.99%)</title><rect x="10.1" y="869" width="1179.9" height="15.0" fill="rgb(212,35,8)" rx="2" ry="2" />
<text  x="13.12" y="879.5" >PostmasterMain</text>
</g>
<g >
<title>__hrtimer_run_queues (2,750,823 samples, 0.01%)</title><rect x="1071.0" y="629" width="0.1" height="15.0" fill="rgb(237,150,35)" rx="2" ry="2" />
<text  x="1073.95" y="639.5" ></text>
</g>
<g >
<title>sysvec_apic_timer_interrupt (5,501,543 samples, 0.02%)</title><rect x="526.9" y="645" width="0.2" height="15.0" fill="rgb(220,69,16)" rx="2" ry="2" />
<text  x="529.90" y="655.5" ></text>
</g>
<g >
<title>IncrBufferRefCount (8,250,893 samples, 0.03%)</title><rect x="1085.5" y="661" width="0.3" height="15.0" fill="rgb(209,22,5)" rx="2" ry="2" />
<text  x="1088.46" y="671.5" ></text>
</g>
<g >
<title>amd_pmu_disable_all (2,750,953 samples, 0.01%)</title><rect x="114.4" y="501" width="0.1" height="15.0" fill="rgb(213,38,9)" rx="2" ry="2" />
<text  x="117.37" y="511.5" ></text>
</g>
<g >
<title>asm_sysvec_apic_timer_interrupt (5,501,845 samples, 0.02%)</title><rect x="114.3" y="693" width="0.2" height="15.0" fill="rgb(232,127,30)" rx="2" ry="2" />
<text  x="117.25" y="703.5" ></text>
</g>
<g >
<title>pgstat_count_io_op (2,751,019 samples, 0.01%)</title><rect x="1174.5" y="629" width="0.2" height="15.0" fill="rgb(207,10,2)" rx="2" ry="2" />
<text  x="1177.55" y="639.5" ></text>
</g>
<g >
<title>GetPrivateRefCountEntry (5,501,093 samples, 0.02%)</title><rect x="1174.2" y="613" width="0.2" height="15.0" fill="rgb(250,209,50)" rx="2" ry="2" />
<text  x="1177.20" y="623.5" ></text>
</g>
<g >
<title>tag_hash (2,750,671 samples, 0.01%)</title><rect x="1176.0" y="645" width="0.1" height="15.0" fill="rgb(245,185,44)" rx="2" ry="2" />
<text  x="1178.96" y="655.5" ></text>
</g>
<g >
<title>__ip_queue_xmit (2,750,377 samples, 0.01%)</title><rect x="1189.9" y="517" width="0.1" height="15.0" fill="rgb(253,223,53)" rx="2" ry="2" />
<text  x="1192.88" y="527.5" ></text>
</g>
<g >
<title>__wake_up_common (2,750,377 samples, 0.01%)</title><rect x="1189.9" y="85" width="0.1" height="15.0" fill="rgb(248,197,47)" rx="2" ry="2" />
<text  x="1192.88" y="95.5" ></text>
</g>
<g >
<title>tts_buffer_heap_getsomeattrs (115,533,300 samples, 0.42%)</title><rect x="1055.3" y="693" width="4.9" height="15.0" fill="rgb(222,81,19)" rx="2" ry="2" />
<text  x="1058.26" y="703.5" ></text>
</g>
<g >
<title>ExecInterpExpr (24,214,990,273 samples, 87.99%)</title><rect x="21.9" y="709" width="1038.3" height="15.0" fill="rgb(225,96,22)" rx="2" ry="2" />
<text  x="24.91" y="719.5" >ExecInterpExpr</text>
</g>
<g >
<title>SeqNext (13,752,080 samples, 0.05%)</title><rect x="1189.3" y="725" width="0.6" height="15.0" fill="rgb(214,41,10)" rx="2" ry="2" />
<text  x="1192.29" y="735.5" ></text>
</g>
<g >
<title>sysvec_apic_timer_interrupt (5,501,845 samples, 0.02%)</title><rect x="114.3" y="677" width="0.2" height="15.0" fill="rgb(220,69,16)" rx="2" ry="2" />
<text  x="117.25" y="687.5" ></text>
</g>
<g >
<title>__netif_receive_skb_one_core (2,750,377 samples, 0.01%)</title><rect x="1189.9" y="293" width="0.1" height="15.0" fill="rgb(215,47,11)" rx="2" ry="2" />
<text  x="1192.88" y="303.5" ></text>
</g>
<g >
<title>tick_sched_handle (5,501,845 samples, 0.02%)</title><rect x="114.3" y="597" width="0.2" height="15.0" fill="rgb(219,68,16)" rx="2" ry="2" />
<text  x="117.25" y="607.5" ></text>
</g>
<g >
<title>update_load_avg (2,750,867 samples, 0.01%)</title><rect x="1028.7" y="501" width="0.1" height="15.0" fill="rgb(240,165,39)" rx="2" ry="2" />
<text  x="1031.72" y="511.5" ></text>
</g>
<g >
<title>pg_database_encoding_max_length (35,754,826 samples, 0.13%)</title><rect x="1029.1" y="693" width="1.5" height="15.0" fill="rgb(243,176,42)" rx="2" ry="2" />
<text  x="1032.08" y="703.5" ></text>
</g>
<g >
<title>hrtimer_interrupt (8,252,463 samples, 0.03%)</title><rect x="1028.6" y="613" width="0.4" height="15.0" fill="rgb(228,109,26)" rx="2" ry="2" />
<text  x="1031.61" y="623.5" ></text>
</g>
<g >
<title>scheduler_tick (2,751,231 samples, 0.01%)</title><rect x="526.9" y="533" width="0.1" height="15.0" fill="rgb(246,190,45)" rx="2" ry="2" />
<text  x="529.90" y="543.5" ></text>
</g>
<g >
<title>update_process_times (5,501,845 samples, 0.02%)</title><rect x="114.3" y="581" width="0.2" height="15.0" fill="rgb(250,209,50)" rx="2" ry="2" />
<text  x="117.25" y="591.5" ></text>
</g>
<g >
<title>heap_prepare_pagescan (211,786,797 samples, 0.77%)</title><rect x="1119.1" y="661" width="9.1" height="15.0" fill="rgb(222,82,19)" rx="2" ry="2" />
<text  x="1122.12" y="671.5" ></text>
</g>
<g >
<title>rcu_core (2,750,312 samples, 0.01%)</title><rect x="527.0" y="581" width="0.1" height="15.0" fill="rgb(222,81,19)" rx="2" ry="2" />
<text  x="530.01" y="591.5" ></text>
</g>
<g >
<title>x86_pmu_disable (2,750,953 samples, 0.01%)</title><rect x="114.4" y="517" width="0.1" height="15.0" fill="rgb(239,160,38)" rx="2" ry="2" />
<text  x="117.37" y="527.5" ></text>
</g>
<g >
<title>__napi_poll (2,750,377 samples, 0.01%)</title><rect x="1189.9" y="341" width="0.1" height="15.0" fill="rgb(247,195,46)" rx="2" ry="2" />
<text  x="1192.88" y="351.5" ></text>
</g>
<g >
<title>ExecSeqScanWithQual (27,349,115,964 samples, 99.38%)</title><rect x="16.3" y="725" width="1172.6" height="15.0" fill="rgb(254,227,54)" rx="2" ry="2" />
<text  x="19.25" y="735.5" >ExecSeqScanWithQual</text>
</g>
<g >
<title>MemoryContextReset (57,918,378 samples, 0.21%)</title><rect x="1060.2" y="709" width="2.5" height="15.0" fill="rgb(210,26,6)" rx="2" ry="2" />
<text  x="1063.21" y="719.5" ></text>
</g>
<g >
<title>__sock_sendmsg (2,750,377 samples, 0.01%)</title><rect x="1189.9" y="661" width="0.1" height="15.0" fill="rgb(217,57,13)" rx="2" ry="2" />
<text  x="1192.88" y="671.5" ></text>
</g>
<g >
<title>sched_clock (2,750,469 samples, 0.01%)</title><rect x="1028.8" y="485" width="0.2" height="15.0" fill="rgb(212,33,7)" rx="2" ry="2" />
<text  x="1031.84" y="495.5" ></text>
</g>
<g >
<title>ServerLoop (27,516,900,011 samples, 99.99%)</title><rect x="10.1" y="853" width="1179.9" height="15.0" fill="rgb(238,155,37)" rx="2" ry="2" />
<text  x="13.12" y="863.5" >ServerLoop</text>
</g>
<g >
<title>x64_sys_call (2,750,377 samples, 0.01%)</title><rect x="1189.9" y="709" width="0.1" height="15.0" fill="rgb(247,194,46)" rx="2" ry="2" />
<text  x="1192.88" y="719.5" ></text>
</g>
<g >
<title>__tcp_transmit_skb (2,750,377 samples, 0.01%)</title><rect x="1189.9" y="549" width="0.1" height="15.0" fill="rgb(231,122,29)" rx="2" ry="2" />
<text  x="1192.88" y="559.5" ></text>
</g>
<g >
<title>__netif_receive_skb (2,750,377 samples, 0.01%)</title><rect x="1189.9" y="309" width="0.1" height="15.0" fill="rgb(218,60,14)" rx="2" ry="2" />
<text  x="1192.88" y="319.5" ></text>
</g>
<g >
<title>int4lt (52,292,976 samples, 0.19%)</title><rect x="1185.0" y="709" width="2.3" height="15.0" fill="rgb(242,172,41)" rx="2" ry="2" />
<text  x="1188.05" y="719.5" ></text>
</g>
<g >
<title>__wake_up_common_lock (2,750,377 samples, 0.01%)</title><rect x="1189.9" y="101" width="0.1" height="15.0" fill="rgb(238,155,37)" rx="2" ry="2" />
<text  x="1192.88" y="111.5" ></text>
</g>
<g >
<title>tick_sched_timer (2,751,231 samples, 0.01%)</title><rect x="526.9" y="581" width="0.1" height="15.0" fill="rgb(254,227,54)" rx="2" ry="2" />
<text  x="529.90" y="591.5" ></text>
</g>
<g >
<title>perf_event_task_tick (2,750,953 samples, 0.01%)</title><rect x="114.4" y="549" width="0.1" height="15.0" fill="rgb(205,3,0)" rx="2" ry="2" />
<text  x="117.37" y="559.5" ></text>
</g>
<g >
<title>ip_local_deliver (2,750,377 samples, 0.01%)</title><rect x="1189.9" y="261" width="0.1" height="15.0" fill="rgb(230,116,27)" rx="2" ry="2" />
<text  x="1192.88" y="271.5" ></text>
</g>
<g >
<title>UnpinBufferNoOwner (36,100,866 samples, 0.13%)</title><rect x="1092.9" y="661" width="1.5" height="15.0" fill="rgb(253,221,53)" rx="2" ry="2" />
<text  x="1095.89" y="671.5" ></text>
</g>
<g >
<title>LWLockRelease (74,264,030 samples, 0.27%)</title><rect x="1146.1" y="629" width="3.2" height="15.0" fill="rgb(217,58,13)" rx="2" ry="2" />
<text  x="1149.12" y="639.5" ></text>
</g>
<g >
<title>tcp_rcv_established (2,750,377 samples, 0.01%)</title><rect x="1189.9" y="181" width="0.1" height="15.0" fill="rgb(242,170,40)" rx="2" ry="2" />
<text  x="1192.88" y="191.5" ></text>
</g>
<g >
<title>ExecInterpExpr (143,029,925 samples, 0.52%)</title><rect x="10.1" y="725" width="6.2" height="15.0" fill="rgb(225,96,22)" rx="2" ry="2" />
<text  x="13.12" y="735.5" ></text>
</g>
<g >
<title>perf_adjust_freq_unthr_context (2,750,823 samples, 0.01%)</title><rect x="1071.0" y="533" width="0.1" height="15.0" fill="rgb(236,146,35)" rx="2" ry="2" />
<text  x="1073.95" y="543.5" ></text>
</g>
<g >
<title>ResourceOwnerRemember (2,750,296 samples, 0.01%)</title><rect x="1174.4" y="629" width="0.1" height="15.0" fill="rgb(243,178,42)" rx="2" ry="2" />
<text  x="1177.43" y="639.5" ></text>
</g>
<g >
<title>ReleaseBuffer (60,481,132 samples, 0.22%)</title><rect x="1116.5" y="661" width="2.6" height="15.0" fill="rgb(220,71,17)" rx="2" ry="2" />
<text  x="1119.52" y="671.5" ></text>
</g>
<g >
<title>ResourceOwnerEnlarge (2,750,576 samples, 0.01%)</title><rect x="1092.8" y="661" width="0.1" height="15.0" fill="rgb(223,86,20)" rx="2" ry="2" />
<text  x="1095.77" y="671.5" ></text>
</g>
<g >
<title>hrtimer_interrupt (2,751,231 samples, 0.01%)</title><rect x="526.9" y="613" width="0.1" height="15.0" fill="rgb(228,109,26)" rx="2" ry="2" />
<text  x="529.90" y="623.5" ></text>
</g>
<g >
<title>perf_event_task_tick (2,751,231 samples, 0.01%)</title><rect x="526.9" y="517" width="0.1" height="15.0" fill="rgb(205,3,0)" rx="2" ry="2" />
<text  x="529.90" y="527.5" ></text>
</g>
<g >
<title>default_wake_function (2,750,377 samples, 0.01%)</title><rect x="1189.9" y="53" width="0.1" height="15.0" fill="rgb(240,162,38)" rx="2" ry="2" />
<text  x="1192.88" y="63.5" ></text>
</g>
<g >
<title>ip_queue_xmit (2,750,377 samples, 0.01%)</title><rect x="1189.9" y="533" width="0.1" height="15.0" fill="rgb(230,119,28)" rx="2" ry="2" />
<text  x="1192.88" y="543.5" ></text>
</g>
<g >
<title>perf_event_task_tick (2,750,823 samples, 0.01%)</title><rect x="1071.0" y="549" width="0.1" height="15.0" fill="rgb(205,3,0)" rx="2" ry="2" />
<text  x="1073.95" y="559.5" ></text>
</g>
<g >
<title>pg_mbstrlen_with_len (8,993,427,004 samples, 32.68%)</title><rect x="141.5" y="677" width="385.6" height="15.0" fill="rgb(228,106,25)" rx="2" ry="2" />
<text  x="144.51" y="687.5" >pg_mbstrlen_with_len</text>
</g>
<g >
<title>sock_def_readable (2,750,377 samples, 0.01%)</title><rect x="1189.9" y="133" width="0.1" height="15.0" fill="rgb(216,54,13)" rx="2" ry="2" />
<text  x="1192.88" y="143.5" ></text>
</g>
<g >
<title>StartReadBuffer (1,042,488,749 samples, 3.79%)</title><rect x="1130.0" y="645" width="44.7" height="15.0" fill="rgb(222,78,18)" rx="2" ry="2" />
<text  x="1132.97" y="655.5" >Star..</text>
</g>
<g >
<title>ip_local_deliver_finish (2,750,377 samples, 0.01%)</title><rect x="1189.9" y="245" width="0.1" height="15.0" fill="rgb(225,95,22)" rx="2" ry="2" />
<text  x="1192.88" y="255.5" ></text>
</g>
<g >
<title>ExecStoreBufferHeapTuple (316,620,156 samples, 1.15%)</title><rect x="1080.9" y="677" width="13.5" height="15.0" fill="rgb(230,117,28)" rx="2" ry="2" />
<text  x="1083.86" y="687.5" ></text>
</g>
</g>
</svg>
