<?xml version="1.0" standalone="no"?>
<!DOCTYPE svg PUBLIC "-//W3C//DTD SVG 1.1//EN" "http://www.w3.org/Graphics/SVG/1.1/DTD/svg11.dtd">
<svg version="1.1" width="1200" height="566" onload="init(evt)" viewBox="0 0 1200 566" xmlns="http://www.w3.org/2000/svg" xmlns:xlink="http://www.w3.org/1999/xlink">
<!-- Flame graph stack visualization. See https://github.com/brendangregg/FlameGraph for latest version, and http://www.brendangregg.com/flamegraphs.html for examples. -->
<!-- NOTES:  -->
<defs>
	<linearGradient id="background" y1="0" y2="1" x1="0" x2="0" >
		<stop stop-color="#eeeeee" offset="5%" />
		<stop stop-color="#eeeeb0" offset="95%" />
	</linearGradient>
</defs>
<style type="text/css">
	text { font-family:Verdana; font-size:12px; fill:rgb(0,0,0); }
	#search, #ignorecase { opacity:0.1; cursor:pointer; }
	#search:hover, #search.show, #ignorecase:hover, #ignorecase.show { opacity:1; }
	#subtitle { text-anchor:middle; font-color:rgb(160,160,160); }
	#title { text-anchor:middle; font-size:17px}
	#unzoom { cursor:pointer; }
	#frames > *:hover { stroke:black; stroke-width:0.5; cursor:pointer; }
	.hide { display:none; }
	.parent { opacity:0.5; }
</style>
<script type="text/ecmascript">
<![CDATA[
	"use strict";
	var details, searchbtn, unzoombtn, matchedtxt, svg, searching, currentSearchTerm, ignorecase, ignorecaseBtn;
	function init(evt) {
		details = document.getElementById("details").firstChild;
		searchbtn = document.getElementById("search");
		ignorecaseBtn = document.getElementById("ignorecase");
		unzoombtn = document.getElementById("unzoom");
		matchedtxt = document.getElementById("matched");
		svg = document.getElementsByTagName("svg")[0];
		searching = 0;
		currentSearchTerm = null;

		// use GET parameters to restore a flamegraphs state.
		var params = get_params();
		if (params.x && params.y)
			zoom(find_group(document.querySelector('[x="' + params.x + '"][y="' + params.y + '"]')));
                if (params.s) search(params.s);
	}

	// event listeners
	window.addEventListener("click", function(e) {
		var target = find_group(e.target);
		if (target) {
			if (target.nodeName == "a") {
				if (e.ctrlKey === false) return;
				e.preventDefault();
			}
			if (target.classList.contains("parent")) unzoom(true);
			zoom(target);
			if (!document.querySelector('.parent')) {
				// we have basically done a clearzoom so clear the url
				var params = get_params();
				if (params.x) delete params.x;
				if (params.y) delete params.y;
				history.replaceState(null, null, parse_params(params));
				unzoombtn.classList.add("hide");
				return;
			}

			// set parameters for zoom state
			var el = target.querySelector("rect");
			if (el && el.attributes && el.attributes.y && el.attributes._orig_x) {
				var params = get_params()
				params.x = el.attributes._orig_x.value;
				params.y = el.attributes.y.value;
				history.replaceState(null, null, parse_params(params));
			}
		}
		else if (e.target.id == "unzoom") clearzoom();
		else if (e.target.id == "search") search_prompt();
		else if (e.target.id == "ignorecase") toggle_ignorecase();
	}, false)

	// mouse-over for info
	// show
	window.addEventListener("mouseover", function(e) {
		var target = find_group(e.target);
		if (target) details.nodeValue = "Function: " + g_to_text(target);
	}, false)

	// clear
	window.addEventListener("mouseout", function(e) {
		var target = find_group(e.target);
		if (target) details.nodeValue = ' ';
	}, false)

	// ctrl-F for search
	// ctrl-I to toggle case-sensitive search
	window.addEventListener("keydown",function (e) {
		if (e.keyCode === 114 || (e.ctrlKey && e.keyCode === 70)) {
			e.preventDefault();
			search_prompt();
		}
		else if (e.ctrlKey && e.keyCode === 73) {
			e.preventDefault();
			toggle_ignorecase();
		}
	}, false)

	// functions
	function get_params() {
		var params = {};
		var paramsarr = window.location.search.substr(1).split('&');
		for (var i = 0; i < paramsarr.length; ++i) {
			var tmp = paramsarr[i].split("=");
			if (!tmp[0] || !tmp[1]) continue;
			params[tmp[0]]  = decodeURIComponent(tmp[1]);
		}
		return params;
	}
	function parse_params(params) {
		var uri = "?";
		for (var key in params) {
			uri += key + '=' + encodeURIComponent(params[key]) + '&';
		}
		if (uri.slice(-1) == "&")
			uri = uri.substring(0, uri.length - 1);
		if (uri == '?')
			uri = window.location.href.split('?')[0];
		return uri;
	}
	function find_child(node, selector) {
		var children = node.querySelectorAll(selector);
		if (children.length) return children[0];
	}
	function find_group(node) {
		var parent = node.parentElement;
		if (!parent) return;
		if (parent.id == "frames") return node;
		return find_group(parent);
	}
	function orig_save(e, attr, val) {
		if (e.attributes["_orig_" + attr] != undefined) return;
		if (e.attributes[attr] == undefined) return;
		if (val == undefined) val = e.attributes[attr].value;
		e.setAttribute("_orig_" + attr, val);
	}
	function orig_load(e, attr) {
		if (e.attributes["_orig_"+attr] == undefined) return;
		e.attributes[attr].value = e.attributes["_orig_" + attr].value;
		e.removeAttribute("_orig_"+attr);
	}
	function g_to_text(e) {
		var text = find_child(e, "title").firstChild.nodeValue;
		return (text)
	}
	function g_to_func(e) {
		var func = g_to_text(e);
		// if there's any manipulation we want to do to the function
		// name before it's searched, do it here before returning.
		return (func);
	}
	function update_text(e) {
		var r = find_child(e, "rect");
		var t = find_child(e, "text");
		var w = parseFloat(r.attributes.width.value) -3;
		var txt = find_child(e, "title").textContent.replace(/\([^(]*\)$/,"");
		t.attributes.x.value = parseFloat(r.attributes.x.value) + 3;

		// Smaller than this size won't fit anything
		if (w < 2 * 12 * 0.59) {
			t.textContent = "";
			return;
		}

		t.textContent = txt;
		var sl = t.getSubStringLength(0, txt.length);
		// check if only whitespace or if we can fit the entire string into width w
		if (/^ *$/.test(txt) || sl < w)
			return;

		// this isn't perfect, but gives a good starting point
		// and avoids calling getSubStringLength too often
		var start = Math.floor((w/sl) * txt.length);
		for (var x = start; x > 0; x = x-2) {
			if (t.getSubStringLength(0, x + 2) <= w) {
				t.textContent = txt.substring(0, x) + "..";
				return;
			}
		}
		t.textContent = "";
	}

	// zoom
	function zoom_reset(e) {
		if (e.attributes != undefined) {
			orig_load(e, "x");
			orig_load(e, "width");
		}
		if (e.childNodes == undefined) return;
		for (var i = 0, c = e.childNodes; i < c.length; i++) {
			zoom_reset(c[i]);
		}
	}
	function zoom_child(e, x, ratio) {
		if (e.attributes != undefined) {
			if (e.attributes.x != undefined) {
				orig_save(e, "x");
				e.attributes.x.value = (parseFloat(e.attributes.x.value) - x - 10) * ratio + 10;
				if (e.tagName == "text")
					e.attributes.x.value = find_child(e.parentNode, "rect[x]").attributes.x.value + 3;
			}
			if (e.attributes.width != undefined) {
				orig_save(e, "width");
				e.attributes.width.value = parseFloat(e.attributes.width.value) * ratio;
			}
		}

		if (e.childNodes == undefined) return;
		for (var i = 0, c = e.childNodes; i < c.length; i++) {
			zoom_child(c[i], x - 10, ratio);
		}
	}
	function zoom_parent(e) {
		if (e.attributes) {
			if (e.attributes.x != undefined) {
				orig_save(e, "x");
				e.attributes.x.value = 10;
			}
			if (e.attributes.width != undefined) {
				orig_save(e, "width");
				e.attributes.width.value = parseInt(svg.width.baseVal.value) - (10 * 2);
			}
		}
		if (e.childNodes == undefined) return;
		for (var i = 0, c = e.childNodes; i < c.length; i++) {
			zoom_parent(c[i]);
		}
	}
	function zoom(node) {
		var attr = find_child(node, "rect").attributes;
		var width = parseFloat(attr.width.value);
		var xmin = parseFloat(attr.x.value);
		var xmax = parseFloat(xmin + width);
		var ymin = parseFloat(attr.y.value);
		var ratio = (svg.width.baseVal.value - 2 * 10) / width;

		// XXX: Workaround for JavaScript float issues (fix me)
		var fudge = 0.0001;

		unzoombtn.classList.remove("hide");

		var el = document.getElementById("frames").children;
		for (var i = 0; i < el.length; i++) {
			var e = el[i];
			var a = find_child(e, "rect").attributes;
			var ex = parseFloat(a.x.value);
			var ew = parseFloat(a.width.value);
			var upstack;
			// Is it an ancestor
			if (0 == 0) {
				upstack = parseFloat(a.y.value) > ymin;
			} else {
				upstack = parseFloat(a.y.value) < ymin;
			}
			if (upstack) {
				// Direct ancestor
				if (ex <= xmin && (ex+ew+fudge) >= xmax) {
					e.classList.add("parent");
					zoom_parent(e);
					update_text(e);
				}
				// not in current path
				else
					e.classList.add("hide");
			}
			// Children maybe
			else {
				// no common path
				if (ex < xmin || ex + fudge >= xmax) {
					e.classList.add("hide");
				}
				else {
					zoom_child(e, xmin, ratio);
					update_text(e);
				}
			}
		}
		search();
	}
	function unzoom(dont_update_text) {
		unzoombtn.classList.add("hide");
		var el = document.getElementById("frames").children;
		for(var i = 0; i < el.length; i++) {
			el[i].classList.remove("parent");
			el[i].classList.remove("hide");
			zoom_reset(el[i]);
			if(!dont_update_text) update_text(el[i]);
		}
		search();
	}
	function clearzoom() {
		unzoom();

		// remove zoom state
		var params = get_params();
		if (params.x) delete params.x;
		if (params.y) delete params.y;
		history.replaceState(null, null, parse_params(params));
	}

	// search
	function toggle_ignorecase() {
		ignorecase = !ignorecase;
		if (ignorecase) {
			ignorecaseBtn.classList.add("show");
		} else {
			ignorecaseBtn.classList.remove("show");
		}
		reset_search();
		search();
	}
	function reset_search() {
		var el = document.querySelectorAll("#frames rect");
		for (var i = 0; i < el.length; i++) {
			orig_load(el[i], "fill")
		}
		var params = get_params();
		delete params.s;
		history.replaceState(null, null, parse_params(params));
	}
	function search_prompt() {
		if (!searching) {
			var term = prompt("Enter a search term (regexp " +
			    "allowed, eg: ^ext4_)"
			    + (ignorecase ? ", ignoring case" : "")
			    + "\nPress Ctrl-i to toggle case sensitivity", "");
			if (term != null) search(term);
		} else {
			reset_search();
			searching = 0;
			currentSearchTerm = null;
			searchbtn.classList.remove("show");
			searchbtn.firstChild.nodeValue = "Search"
			matchedtxt.classList.add("hide");
			matchedtxt.firstChild.nodeValue = ""
		}
	}
	function search(term) {
		if (term) currentSearchTerm = term;

		var re = new RegExp(currentSearchTerm, ignorecase ? 'i' : '');
		var el = document.getElementById("frames").children;
		var matches = new Object();
		var maxwidth = 0;
		for (var i = 0; i < el.length; i++) {
			var e = el[i];
			var func = g_to_func(e);
			var rect = find_child(e, "rect");
			if (func == null || rect == null)
				continue;

			// Save max width. Only works as we have a root frame
			var w = parseFloat(rect.attributes.width.value);
			if (w > maxwidth)
				maxwidth = w;

			if (func.match(re)) {
				// highlight
				var x = parseFloat(rect.attributes.x.value);
				orig_save(rect, "fill");
				rect.attributes.fill.value = "rgb(230,0,230)";

				// remember matches
				if (matches[x] == undefined) {
					matches[x] = w;
				} else {
					if (w > matches[x]) {
						// overwrite with parent
						matches[x] = w;
					}
				}
				searching = 1;
			}
		}
		if (!searching)
			return;
		var params = get_params();
		params.s = currentSearchTerm;
		history.replaceState(null, null, parse_params(params));

		searchbtn.classList.add("show");
		searchbtn.firstChild.nodeValue = "Reset Search";

		// calculate percent matched, excluding vertical overlap
		var count = 0;
		var lastx = -1;
		var lastw = 0;
		var keys = Array();
		for (k in matches) {
			if (matches.hasOwnProperty(k))
				keys.push(k);
		}
		// sort the matched frames by their x location
		// ascending, then width descending
		keys.sort(function(a, b){
			return a - b;
		});
		// Step through frames saving only the biggest bottom-up frames
		// thanks to the sort order. This relies on the tree property
		// where children are always smaller than their parents.
		var fudge = 0.0001;	// JavaScript floating point
		for (var k in keys) {
			var x = parseFloat(keys[k]);
			var w = matches[keys[k]];
			if (x >= lastx + lastw - fudge) {
				count += w;
				lastx = x;
				lastw = w;
			}
		}
		// display matched percent
		matchedtxt.classList.remove("hide");
		var pct = 100 * count / maxwidth;
		if (pct != 100) pct = pct.toFixed(1)
		matchedtxt.firstChild.nodeValue = "Matched: " + pct + "%";
	}
]]>
</script>
<rect x="0.0" y="0" width="1200.0" height="566.0" fill="url(#background)"  />
<text id="title" x="600.00" y="24" >Flame Graph</text>
<text id="details" x="10.00" y="549" > </text>
<text id="unzoom" x="10.00" y="24" class="hide">Reset Zoom</text>
<text id="search" x="1090.00" y="24" >Search</text>
<text id="ignorecase" x="1174.00" y="24" >ic</text>
<text id="matched" x="1090.00" y="549" > </text>
<g id="frames">
<g >
<title>pgstat_count_io_op (15,160,278 samples, 0.05%)</title><rect x="1174.9" y="229" width="0.6" height="15.0" fill="rgb(207,10,2)" rx="2" ry="2" />
<text  x="1177.90" y="239.5" ></text>
</g>
<g >
<title>LWLockRelease (5,500,971 samples, 0.02%)</title><rect x="1142.0" y="229" width="0.2" height="15.0" fill="rgb(217,58,13)" rx="2" ry="2" />
<text  x="1144.96" y="239.5" ></text>
</g>
<g >
<title>__update_load_avg_se (2,750,627 samples, 0.01%)</title><rect x="588.4" y="85" width="0.1" height="15.0" fill="rgb(254,227,54)" rx="2" ry="2" />
<text  x="591.43" y="95.5" ></text>
</g>
<g >
<title>LWLockAcquire (27,505,418 samples, 0.10%)</title><rect x="1134.0" y="229" width="1.2" height="15.0" fill="rgb(209,20,4)" rx="2" ry="2" />
<text  x="1137.04" y="239.5" ></text>
</g>
<g >
<title>sysvec_apic_timer_interrupt (2,750,643 samples, 0.01%)</title><rect x="80.4" y="261" width="0.1" height="15.0" fill="rgb(220,69,16)" rx="2" ry="2" />
<text  x="83.38" y="271.5" ></text>
</g>
<g >
<title>ReleaseBuffer (13,751,671 samples, 0.05%)</title><rect x="1062.3" y="261" width="0.6" height="15.0" fill="rgb(220,71,17)" rx="2" ry="2" />
<text  x="1065.35" y="271.5" ></text>
</g>
<g >
<title>tick_sched_timer (13,749,012 samples, 0.05%)</title><rect x="588.1" y="165" width="0.6" height="15.0" fill="rgb(254,227,54)" rx="2" ry="2" />
<text  x="591.08" y="175.5" ></text>
</g>
<g >
<title>GetPrivateRefCountEntry (13,751,626 samples, 0.05%)</title><rect x="1059.7" y="229" width="0.6" height="15.0" fill="rgb(250,209,50)" rx="2" ry="2" />
<text  x="1062.67" y="239.5" ></text>
</g>
<g >
<title>native_write_msr (2,750,551 samples, 0.01%)</title><rect x="970.2" y="133" width="0.1" height="15.0" fill="rgb(237,151,36)" rx="2" ry="2" />
<text  x="973.19" y="143.5" ></text>
</g>
<g >
<title>tts_buffer_heap_getsomeattrs (2,750,834 samples, 0.01%)</title><rect x="983.7" y="277" width="0.1" height="15.0" fill="rgb(222,81,19)" rx="2" ry="2" />
<text  x="986.65" y="287.5" ></text>
</g>
<g >
<title>heap_getnextslot (118,248,930 samples, 0.42%)</title><rect x="1178.2" y="293" width="5.0" height="15.0" fill="rgb(213,40,9)" rx="2" ry="2" />
<text  x="1181.23" y="303.5" ></text>
</g>
<g >
<title>int4lt (123,770,888 samples, 0.44%)</title><rect x="1183.2" y="293" width="5.3" height="15.0" fill="rgb(242,172,41)" rx="2" ry="2" />
<text  x="1186.24" y="303.5" ></text>
</g>
<g >
<title>sysvec_apic_timer_interrupt (2,750,834 samples, 0.01%)</title><rect x="983.7" y="245" width="0.1" height="15.0" fill="rgb(220,69,16)" rx="2" ry="2" />
<text  x="986.65" y="255.5" ></text>
</g>
<g >
<title>SeqNext (4,392,450,541 samples, 15.78%)</title><rect x="989.6" y="293" width="186.2" height="15.0" fill="rgb(214,41,10)" rx="2" ry="2" />
<text  x="992.61" y="303.5" >SeqNext</text>
</g>
<g >
<title>update_process_times (5,499,244 samples, 0.02%)</title><rect x="970.0" y="133" width="0.2" height="15.0" fill="rgb(250,209,50)" rx="2" ry="2" />
<text  x="972.95" y="143.5" ></text>
</g>
<g >
<title>hrtimer_interrupt (2,750,643 samples, 0.01%)</title><rect x="80.4" y="229" width="0.1" height="15.0" fill="rgb(228,109,26)" rx="2" ry="2" />
<text  x="83.38" y="239.5" ></text>
</g>
<g >
<title>ResourceOwnerForget (5,501,887 samples, 0.02%)</title><rect x="1098.6" y="229" width="0.2" height="15.0" fill="rgb(235,142,33)" rx="2" ry="2" />
<text  x="1101.61" y="239.5" ></text>
</g>
<g >
<title>read_stream_next_buffer (811,580,489 samples, 2.92%)</title><rect x="1141.1" y="245" width="34.4" height="15.0" fill="rgb(216,50,12)" rx="2" ry="2" />
<text  x="1144.15" y="255.5" >re..</text>
</g>
<g >
<title>main (27,840,493,656 samples, 100.00%)</title><rect x="10.0" y="469" width="1180.0" height="15.0" fill="rgb(243,179,42)" rx="2" ry="2" />
<text  x="13.00" y="479.5" >main</text>
</g>
<g >
<title>pg_mbstrlen_with_len (2,749,886 samples, 0.01%)</title><rect x="976.1" y="277" width="0.1" height="15.0" fill="rgb(228,106,25)" rx="2" ry="2" />
<text  x="979.13" y="287.5" ></text>
</g>
<g >
<title>sysvec_apic_timer_interrupt (11,045,507 samples, 0.04%)</title><rect x="969.8" y="229" width="0.5" height="15.0" fill="rgb(220,69,16)" rx="2" ry="2" />
<text  x="972.84" y="239.5" ></text>
</g>
<g >
<title>enqueue_hrtimer (2,750,974 samples, 0.01%)</title><rect x="117.0" y="181" width="0.1" height="15.0" fill="rgb(211,29,7)" rx="2" ry="2" />
<text  x="119.99" y="191.5" ></text>
</g>
<g >
<title>GetPrivateRefCountEntry (2,750,395 samples, 0.01%)</title><rect x="1159.9" y="213" width="0.2" height="15.0" fill="rgb(250,209,50)" rx="2" ry="2" />
<text  x="1162.94" y="223.5" ></text>
</g>
<g >
<title>account_user_time (2,750,788 samples, 0.01%)</title><rect x="588.1" y="101" width="0.1" height="15.0" fill="rgb(225,96,23)" rx="2" ry="2" />
<text  x="591.08" y="111.5" ></text>
</g>
<g >
<title>__hrtimer_run_queues (2,750,643 samples, 0.01%)</title><rect x="80.4" y="213" width="0.1" height="15.0" fill="rgb(237,150,35)" rx="2" ry="2" />
<text  x="83.38" y="223.5" ></text>
</g>
<g >
<title>sysvec_apic_timer_interrupt (16,499,420 samples, 0.06%)</title><rect x="588.0" y="229" width="0.7" height="15.0" fill="rgb(220,69,16)" rx="2" ry="2" />
<text  x="590.96" y="239.5" ></text>
</g>
<g >
<title>GetPrivateRefCountEntry (2,750,864 samples, 0.01%)</title><rect x="1097.4" y="245" width="0.2" height="15.0" fill="rgb(250,209,50)" rx="2" ry="2" />
<text  x="1100.45" y="255.5" ></text>
</g>
<g >
<title>perf_event_task_tick (2,750,834 samples, 0.01%)</title><rect x="983.7" y="117" width="0.1" height="15.0" fill="rgb(205,3,0)" rx="2" ry="2" />
<text  x="986.65" y="127.5" ></text>
</g>
<g >
<title>MemoryContextReset (22,003,734 samples, 0.08%)</title><rect x="1188.7" y="309" width="1.0" height="15.0" fill="rgb(210,26,6)" rx="2" ry="2" />
<text  x="1191.72" y="319.5" ></text>
</g>
<g >
<title>exec_simple_query (27,840,493,656 samples, 100.00%)</title><rect x="10.0" y="373" width="1180.0" height="15.0" fill="rgb(211,29,6)" rx="2" ry="2" />
<text  x="13.00" y="383.5" >exec_simple_query</text>
</g>
<g >
<title>asm_sysvec_apic_timer_interrupt (11,045,507 samples, 0.04%)</title><rect x="969.8" y="245" width="0.5" height="15.0" fill="rgb(232,127,30)" rx="2" ry="2" />
<text  x="972.84" y="255.5" ></text>
</g>
<g >
<title>slot_getsomeattrs_int (174,719,337 samples, 0.63%)</title><rect x="976.2" y="277" width="7.5" height="15.0" fill="rgb(252,219,52)" rx="2" ry="2" />
<text  x="979.25" y="287.5" ></text>
</g>
<g >
<title>amd_pmu_disable_all (2,750,168 samples, 0.01%)</title><rect x="588.3" y="53" width="0.1" height="15.0" fill="rgb(213,38,9)" rx="2" ry="2" />
<text  x="591.31" y="63.5" ></text>
</g>
<g >
<title>scheduler_tick (8,251,343 samples, 0.03%)</title><rect x="588.3" y="117" width="0.4" height="15.0" fill="rgb(246,190,45)" rx="2" ry="2" />
<text  x="591.31" y="127.5" ></text>
</g>
<g >
<title>perf_adjust_freq_unthr_context (2,750,643 samples, 0.01%)</title><rect x="80.4" y="117" width="0.1" height="15.0" fill="rgb(236,146,35)" rx="2" ry="2" />
<text  x="83.38" y="127.5" ></text>
</g>
<g >
<title>PostgresMain (27,840,493,656 samples, 100.00%)</title><rect x="10.0" y="389" width="1180.0" height="15.0" fill="rgb(227,103,24)" rx="2" ry="2" />
<text  x="13.00" y="399.5" >PostgresMain</text>
</g>
<g >
<title>ExecInterpExpr (22,644,618,498 samples, 81.34%)</title><rect x="24.0" y="293" width="959.8" height="15.0" fill="rgb(225,96,22)" rx="2" ry="2" />
<text  x="26.99" y="303.5" >ExecInterpExpr</text>
</g>
<g >
<title>hash_search_with_hash_value (338,301,937 samples, 1.22%)</title><rect x="1145.6" y="197" width="14.3" height="15.0" fill="rgb(249,205,49)" rx="2" ry="2" />
<text  x="1148.60" y="207.5" ></text>
</g>
<g >
<title>hash_bytes (16,501,478 samples, 0.06%)</title><rect x="1174.1" y="229" width="0.7" height="15.0" fill="rgb(227,102,24)" rx="2" ry="2" />
<text  x="1177.09" y="239.5" ></text>
</g>
<g >
<title>hrtimer_interrupt (13,749,012 samples, 0.05%)</title><rect x="588.1" y="197" width="0.6" height="15.0" fill="rgb(228,109,26)" rx="2" ry="2" />
<text  x="591.08" y="207.5" ></text>
</g>
<g >
<title>heap_getnextslot (4,227,418,731 samples, 15.18%)</title><rect x="996.6" y="277" width="179.2" height="15.0" fill="rgb(213,40,9)" rx="2" ry="2" />
<text  x="999.60" y="287.5" >heap_getnextslot</text>
</g>
<g >
<title>hrtimer_interrupt (2,750,974 samples, 0.01%)</title><rect x="117.0" y="213" width="0.1" height="15.0" fill="rgb(228,109,26)" rx="2" ry="2" />
<text  x="119.99" y="223.5" ></text>
</g>
<g >
<title>ResourceOwnerRemember (8,246,661 samples, 0.03%)</title><rect x="1173.6" y="213" width="0.4" height="15.0" fill="rgb(243,178,42)" rx="2" ry="2" />
<text  x="1176.62" y="223.5" ></text>
</g>
<g >
<title>ReleaseBuffer (8,252,019 samples, 0.03%)</title><rect x="1098.5" y="245" width="0.3" height="15.0" fill="rgb(220,71,17)" rx="2" ry="2" />
<text  x="1101.50" y="255.5" ></text>
</g>
<g >
<title>tts_buffer_heap_getsomeattrs (169,218,451 samples, 0.61%)</title><rect x="976.5" y="261" width="7.2" height="15.0" fill="rgb(222,81,19)" rx="2" ry="2" />
<text  x="979.48" y="271.5" ></text>
</g>
<g >
<title>perf_event_task_tick (2,750,168 samples, 0.01%)</title><rect x="588.3" y="101" width="0.1" height="15.0" fill="rgb(205,3,0)" rx="2" ry="2" />
<text  x="591.31" y="111.5" ></text>
</g>
<g >
<title>ktime_get_update_offsets_now (2,750,639 samples, 0.01%)</title><rect x="117.1" y="213" width="0.1" height="15.0" fill="rgb(243,178,42)" rx="2" ry="2" />
<text  x="120.10" y="223.5" ></text>
</g>
<g >
<title>GetPrivateRefCountEntry (13,752,145 samples, 0.05%)</title><rect x="1173.0" y="197" width="0.6" height="15.0" fill="rgb(250,209,50)" rx="2" ry="2" />
<text  x="1176.04" y="207.5" ></text>
</g>
<g >
<title>read_stream_next_buffer (5,500,304 samples, 0.02%)</title><rect x="1175.5" y="261" width="0.3" height="15.0" fill="rgb(216,50,12)" rx="2" ry="2" />
<text  x="1178.55" y="271.5" ></text>
</g>
<g >
<title>UnpinBufferNoOwner (22,003,368 samples, 0.08%)</title><rect x="1099.0" y="245" width="0.9" height="15.0" fill="rgb(253,221,53)" rx="2" ry="2" />
<text  x="1101.96" y="255.5" ></text>
</g>
<g >
<title>x86_pmu_disable (2,750,168 samples, 0.01%)</title><rect x="588.3" y="69" width="0.1" height="15.0" fill="rgb(239,160,38)" rx="2" ry="2" />
<text  x="591.31" y="79.5" ></text>
</g>
<g >
<title>heap_prepare_pagescan (8,249,102 samples, 0.03%)</title><rect x="1063.4" y="261" width="0.3" height="15.0" fill="rgb(222,82,19)" rx="2" ry="2" />
<text  x="1066.40" y="271.5" ></text>
</g>
<g >
<title>ExecScan (27,793,734,644 samples, 99.83%)</title><rect x="10.5" y="309" width="1178.0" height="15.0" fill="rgb(237,150,36)" rx="2" ry="2" />
<text  x="13.47" y="319.5" >ExecScan</text>
</g>
<g >
<title>account_process_tick (2,750,788 samples, 0.01%)</title><rect x="588.1" y="117" width="0.1" height="15.0" fill="rgb(234,136,32)" rx="2" ry="2" />
<text  x="591.08" y="127.5" ></text>
</g>
<g >
<title>lapic_next_event (2,750,551 samples, 0.01%)</title><rect x="970.2" y="149" width="0.1" height="15.0" fill="rgb(205,4,0)" rx="2" ry="2" />
<text  x="973.19" y="159.5" ></text>
</g>
<g >
<title>SeqNext (8,252,108 samples, 0.03%)</title><rect x="1189.7" y="309" width="0.3" height="15.0" fill="rgb(214,41,10)" rx="2" ry="2" />
<text  x="1192.65" y="319.5" ></text>
</g>
<g >
<title>reweight_entity (2,750,548 samples, 0.01%)</title><rect x="588.5" y="69" width="0.2" height="15.0" fill="rgb(253,222,53)" rx="2" ry="2" />
<text  x="591.54" y="79.5" ></text>
</g>
<g >
<title>task_tick_fair (5,501,175 samples, 0.02%)</title><rect x="588.4" y="101" width="0.3" height="15.0" fill="rgb(217,57,13)" rx="2" ry="2" />
<text  x="591.43" y="111.5" ></text>
</g>
<g >
<title>__cgroup_account_cputime_field (2,750,788 samples, 0.01%)</title><rect x="588.1" y="85" width="0.1" height="15.0" fill="rgb(232,126,30)" rx="2" ry="2" />
<text  x="591.08" y="95.5" ></text>
</g>
<g >
<title>scheduler_tick (2,750,643 samples, 0.01%)</title><rect x="80.4" y="149" width="0.1" height="15.0" fill="rgb(246,190,45)" rx="2" ry="2" />
<text  x="83.38" y="159.5" ></text>
</g>
<g >
<title>asm_sysvec_apic_timer_interrupt (16,499,420 samples, 0.06%)</title><rect x="588.0" y="245" width="0.7" height="15.0" fill="rgb(232,127,30)" rx="2" ry="2" />
<text  x="590.96" y="255.5" ></text>
</g>
<g >
<title>PinBuffer (189,765,639 samples, 0.68%)</title><rect x="1165.6" y="213" width="8.0" height="15.0" fill="rgb(219,64,15)" rx="2" ry="2" />
<text  x="1168.58" y="223.5" ></text>
</g>
<g >
<title>ExecScanFetch (55,207,289 samples, 0.20%)</title><rect x="983.8" y="293" width="2.3" height="15.0" fill="rgb(222,80,19)" rx="2" ry="2" />
<text  x="986.77" y="303.5" ></text>
</g>
<g >
<title>__hrtimer_run_queues (2,750,974 samples, 0.01%)</title><rect x="117.0" y="197" width="0.1" height="15.0" fill="rgb(237,150,35)" rx="2" ry="2" />
<text  x="119.99" y="207.5" ></text>
</g>
<g >
<title>BufTableLookup (346,553,247 samples, 1.24%)</title><rect x="1145.3" y="213" width="14.6" height="15.0" fill="rgb(224,89,21)" rx="2" ry="2" />
<text  x="1148.25" y="223.5" ></text>
</g>
<g >
<title>UnpinBufferNoOwner (30,253,160 samples, 0.11%)</title><rect x="1060.9" y="245" width="1.3" height="15.0" fill="rgb(253,221,53)" rx="2" ry="2" />
<text  x="1063.95" y="255.5" ></text>
</g>
<g >
<title>MemoryContextReset (82,504,859 samples, 0.30%)</title><rect x="986.1" y="293" width="3.5" height="15.0" fill="rgb(210,26,6)" rx="2" ry="2" />
<text  x="989.11" y="303.5" ></text>
</g>
<g >
<title>check_cpu_stall (2,746,881 samples, 0.01%)</title><rect x="588.2" y="117" width="0.1" height="15.0" fill="rgb(208,16,3)" rx="2" ry="2" />
<text  x="591.20" y="127.5" ></text>
</g>
<g >
<title>ExecScanFetch (5,501,469 samples, 0.02%)</title><rect x="1188.5" y="309" width="0.2" height="15.0" fill="rgb(222,80,19)" rx="2" ry="2" />
<text  x="1191.48" y="319.5" ></text>
</g>
<g >
<title>asm_sysvec_apic_timer_interrupt (5,501,613 samples, 0.02%)</title><rect x="117.0" y="261" width="0.2" height="15.0" fill="rgb(232,127,30)" rx="2" ry="2" />
<text  x="119.99" y="271.5" ></text>
</g>
<g >
<title>pg_detoast_datum_packed (68,758,972 samples, 0.25%)</title><rect x="973.2" y="277" width="2.9" height="15.0" fill="rgb(238,155,37)" rx="2" ry="2" />
<text  x="976.22" y="287.5" ></text>
</g>
<g >
<title>LWLockAttemptLock (46,756,666 samples, 0.17%)</title><rect x="1135.2" y="229" width="2.0" height="15.0" fill="rgb(235,138,33)" rx="2" ry="2" />
<text  x="1138.20" y="239.5" ></text>
</g>
<g >
<title>[postgres] (27,840,493,656 samples, 100.00%)</title><rect x="10.0" y="405" width="1180.0" height="15.0" fill="rgb(245,184,44)" rx="2" ry="2" />
<text  x="13.00" y="415.5" >[postgres]</text>
</g>
<g >
<title>heap_page_prune_opt (16,502,525 samples, 0.06%)</title><rect x="1099.9" y="245" width="0.7" height="15.0" fill="rgb(211,29,7)" rx="2" ry="2" />
<text  x="1102.89" y="255.5" ></text>
</g>
<g >
<title>asm_sysvec_apic_timer_interrupt (2,750,643 samples, 0.01%)</title><rect x="80.4" y="277" width="0.1" height="15.0" fill="rgb(232,127,30)" rx="2" ry="2" />
<text  x="83.38" y="287.5" ></text>
</g>
<g >
<title>__sysvec_apic_timer_interrupt (5,501,613 samples, 0.02%)</title><rect x="117.0" y="229" width="0.2" height="15.0" fill="rgb(242,173,41)" rx="2" ry="2" />
<text  x="119.99" y="239.5" ></text>
</g>
<g >
<title>__libc_start_call_main (27,840,493,656 samples, 100.00%)</title><rect x="10.0" y="485" width="1180.0" height="15.0" fill="rgb(210,26,6)" rx="2" ry="2" />
<text  x="13.00" y="495.5" >__libc_start_call_main</text>
</g>
<g >
<title>__memcmp_evex_movbe (2,749,942 samples, 0.01%)</title><rect x="1145.5" y="197" width="0.1" height="15.0" fill="rgb(219,67,16)" rx="2" ry="2" />
<text  x="1148.49" y="207.5" ></text>
</g>
<g >
<title>profile_tick (2,749,738 samples, 0.01%)</title><rect x="969.8" y="149" width="0.2" height="15.0" fill="rgb(227,102,24)" rx="2" ry="2" />
<text  x="972.84" y="159.5" ></text>
</g>
<g >
<title>tick_sched_handle (2,750,834 samples, 0.01%)</title><rect x="983.7" y="165" width="0.1" height="15.0" fill="rgb(219,68,16)" rx="2" ry="2" />
<text  x="986.65" y="175.5" ></text>
</g>
<g >
<title>__sysvec_apic_timer_interrupt (10,999,533 samples, 0.04%)</title><rect x="969.8" y="213" width="0.5" height="15.0" fill="rgb(242,173,41)" rx="2" ry="2" />
<text  x="972.84" y="223.5" ></text>
</g>
<g >
<title>ResourceOwnerRemember (2,750,448 samples, 0.01%)</title><rect x="1062.9" y="261" width="0.1" height="15.0" fill="rgb(243,178,42)" rx="2" ry="2" />
<text  x="1065.93" y="271.5" ></text>
</g>
<g >
<title>clockevents_program_event (2,750,551 samples, 0.01%)</title><rect x="970.2" y="165" width="0.1" height="15.0" fill="rgb(244,182,43)" rx="2" ry="2" />
<text  x="973.19" y="175.5" ></text>
</g>
<g >
<title>tick_program_event (2,750,551 samples, 0.01%)</title><rect x="970.2" y="181" width="0.1" height="15.0" fill="rgb(241,166,39)" rx="2" ry="2" />
<text  x="973.19" y="191.5" ></text>
</g>
<g >
<title>StartReadBuffer (2,750,507 samples, 0.01%)</title><rect x="1098.8" y="245" width="0.2" height="15.0" fill="rgb(222,78,18)" rx="2" ry="2" />
<text  x="1101.84" y="255.5" ></text>
</g>
<g >
<title>__hrtimer_run_queues (13,749,012 samples, 0.05%)</title><rect x="588.1" y="181" width="0.6" height="15.0" fill="rgb(237,150,35)" rx="2" ry="2" />
<text  x="591.08" y="191.5" ></text>
</g>
<g >
<title>amd_pmu_disable_all (2,750,643 samples, 0.01%)</title><rect x="80.4" y="85" width="0.1" height="15.0" fill="rgb(213,38,9)" rx="2" ry="2" />
<text  x="83.38" y="95.5" ></text>
</g>
<g >
<title>LockBuffer (2,750,975 samples, 0.01%)</title><rect x="1137.2" y="229" width="0.1" height="15.0" fill="rgb(235,142,34)" rx="2" ry="2" />
<text  x="1140.18" y="239.5" ></text>
</g>
<g >
<title>tick_sched_handle (5,499,244 samples, 0.02%)</title><rect x="970.0" y="149" width="0.2" height="15.0" fill="rgb(219,68,16)" rx="2" ry="2" />
<text  x="972.95" y="159.5" ></text>
</g>
<g >
<title>update_process_times (13,749,012 samples, 0.05%)</title><rect x="588.1" y="133" width="0.6" height="15.0" fill="rgb(250,209,50)" rx="2" ry="2" />
<text  x="591.08" y="143.5" ></text>
</g>
<g >
<title>tick_sched_handle (2,750,643 samples, 0.01%)</title><rect x="80.4" y="181" width="0.1" height="15.0" fill="rgb(219,68,16)" rx="2" ry="2" />
<text  x="83.38" y="191.5" ></text>
</g>
<g >
<title>perf_event_task_tick (2,750,701 samples, 0.01%)</title><rect x="970.0" y="101" width="0.1" height="15.0" fill="rgb(205,3,0)" rx="2" ry="2" />
<text  x="972.95" y="111.5" ></text>
</g>
<g >
<title>ExecInterpExpr (11,001,701 samples, 0.04%)</title><rect x="10.0" y="309" width="0.5" height="15.0" fill="rgb(225,96,22)" rx="2" ry="2" />
<text  x="13.00" y="319.5" ></text>
</g>
<g >
<title>__hrtimer_run_queues (8,248,982 samples, 0.03%)</title><rect x="969.8" y="181" width="0.4" height="15.0" fill="rgb(237,150,35)" rx="2" ry="2" />
<text  x="972.84" y="191.5" ></text>
</g>
<g >
<title>standard_ExecutorRun (27,840,493,656 samples, 100.00%)</title><rect x="10.0" y="325" width="1180.0" height="15.0" fill="rgb(247,196,47)" rx="2" ry="2" />
<text  x="13.00" y="335.5" >standard_ExecutorRun</text>
</g>
<g >
<title>__hrtimer_run_queues (2,750,834 samples, 0.01%)</title><rect x="983.7" y="197" width="0.1" height="15.0" fill="rgb(237,150,35)" rx="2" ry="2" />
<text  x="986.65" y="207.5" ></text>
</g>
<g >
<title>heap_scan_stream_read_next_serial (2,749,030 samples, 0.01%)</title><rect x="1174.8" y="229" width="0.1" height="15.0" fill="rgb(205,4,0)" rx="2" ry="2" />
<text  x="1177.79" y="239.5" ></text>
</g>
<g >
<title>LWLockRelease (19,253,759 samples, 0.07%)</title><rect x="1097.6" y="245" width="0.8" height="15.0" fill="rgb(217,58,13)" rx="2" ry="2" />
<text  x="1100.56" y="255.5" ></text>
</g>
<g >
<title>GetPrivateRefCountEntry (8,250,210 samples, 0.03%)</title><rect x="1061.9" y="229" width="0.3" height="15.0" fill="rgb(250,209,50)" rx="2" ry="2" />
<text  x="1064.88" y="239.5" ></text>
</g>
<g >
<title>scheduler_tick (2,750,834 samples, 0.01%)</title><rect x="983.7" y="133" width="0.1" height="15.0" fill="rgb(246,190,45)" rx="2" ry="2" />
<text  x="986.65" y="143.5" ></text>
</g>
<g >
<title>update_process_times (2,750,834 samples, 0.01%)</title><rect x="983.7" y="149" width="0.1" height="15.0" fill="rgb(250,209,50)" rx="2" ry="2" />
<text  x="986.65" y="159.5" ></text>
</g>
<g >
<title>tick_sched_handle (13,749,012 samples, 0.05%)</title><rect x="588.1" y="149" width="0.6" height="15.0" fill="rgb(219,68,16)" rx="2" ry="2" />
<text  x="591.08" y="159.5" ></text>
</g>
<g >
<title>LWLockAttemptLock (83,450,817 samples, 0.30%)</title><rect x="1160.1" y="213" width="3.5" height="15.0" fill="rgb(235,138,33)" rx="2" ry="2" />
<text  x="1163.06" y="223.5" ></text>
</g>
<g >
<title>__sysvec_apic_timer_interrupt (16,499,420 samples, 0.06%)</title><rect x="588.0" y="213" width="0.7" height="15.0" fill="rgb(242,173,41)" rx="2" ry="2" />
<text  x="590.96" y="223.5" ></text>
</g>
<g >
<title>pg_database_encoding_max_length (68,759,915 samples, 0.25%)</title><rect x="970.3" y="277" width="2.9" height="15.0" fill="rgb(243,176,42)" rx="2" ry="2" />
<text  x="973.30" y="287.5" ></text>
</g>
<g >
<title>UnpinBufferNoOwner (8,251,640 samples, 0.03%)</title><rect x="1063.0" y="261" width="0.4" height="15.0" fill="rgb(253,221,53)" rx="2" ry="2" />
<text  x="1066.05" y="271.5" ></text>
</g>
<g >
<title>hrtimer_interrupt (10,999,533 samples, 0.04%)</title><rect x="969.8" y="197" width="0.5" height="15.0" fill="rgb(228,109,26)" rx="2" ry="2" />
<text  x="972.84" y="207.5" ></text>
</g>
<g >
<title>_raw_spin_lock (2,750,701 samples, 0.01%)</title><rect x="970.0" y="85" width="0.1" height="15.0" fill="rgb(239,160,38)" rx="2" ry="2" />
<text  x="972.95" y="95.5" ></text>
</g>
<g >
<title>PortalRunSelect (27,840,493,656 samples, 100.00%)</title><rect x="10.0" y="341" width="1180.0" height="15.0" fill="rgb(245,188,45)" rx="2" ry="2" />
<text  x="13.00" y="351.5" >PortalRunSelect</text>
</g>
<g >
<title>tick_sched_timer (2,750,643 samples, 0.01%)</title><rect x="80.4" y="197" width="0.1" height="15.0" fill="rgb(254,227,54)" rx="2" ry="2" />
<text  x="83.38" y="207.5" ></text>
</g>
<g >
<title>ReleaseBuffer (5,500,809 samples, 0.02%)</title><rect x="1060.5" y="245" width="0.2" height="15.0" fill="rgb(220,71,17)" rx="2" ry="2" />
<text  x="1063.48" y="255.5" ></text>
</g>
<g >
<title>tick_sched_timer (2,750,834 samples, 0.01%)</title><rect x="983.7" y="181" width="0.1" height="15.0" fill="rgb(254,227,54)" rx="2" ry="2" />
<text  x="986.65" y="191.5" ></text>
</g>
<g >
<title>BufferGetBlockNumber (30,256,255 samples, 0.11%)</title><rect x="1000.4" y="261" width="1.3" height="15.0" fill="rgb(206,7,1)" rx="2" ry="2" />
<text  x="1003.45" y="271.5" ></text>
</g>
<g >
<title>get_hash_value (2,750,732 samples, 0.01%)</title><rect x="1174.0" y="229" width="0.1" height="15.0" fill="rgb(211,27,6)" rx="2" ry="2" />
<text  x="1176.97" y="239.5" ></text>
</g>
<g >
<title>perf_adjust_freq_unthr_context (2,750,168 samples, 0.01%)</title><rect x="588.3" y="85" width="0.1" height="15.0" fill="rgb(236,146,35)" rx="2" ry="2" />
<text  x="591.31" y="95.5" ></text>
</g>
<g >
<title>native_write_msr (2,750,168 samples, 0.01%)</title><rect x="588.3" y="37" width="0.1" height="15.0" fill="rgb(237,151,36)" rx="2" ry="2" />
<text  x="591.31" y="47.5" ></text>
</g>
<g >
<title>LockBuffer (2,750,343 samples, 0.01%)</title><rect x="1098.4" y="245" width="0.1" height="15.0" fill="rgb(235,142,34)" rx="2" ry="2" />
<text  x="1101.38" y="255.5" ></text>
</g>
<g >
<title>pg_utf_mblen_private (9,004,335,413 samples, 32.34%)</title><rect x="588.7" y="261" width="381.6" height="15.0" fill="rgb(242,173,41)" rx="2" ry="2" />
<text  x="591.66" y="271.5" >pg_utf_mblen_private</text>
</g>
<g >
<title>heapgettup_pagemode (2,637,721,811 samples, 9.47%)</title><rect x="1063.7" y="261" width="111.8" height="15.0" fill="rgb(242,170,40)" rx="2" ry="2" />
<text  x="1066.75" y="271.5" >heapgettup_pa..</text>
</g>
<g >
<title>__sysvec_apic_timer_interrupt (2,750,834 samples, 0.01%)</title><rect x="983.7" y="229" width="0.1" height="15.0" fill="rgb(242,173,41)" rx="2" ry="2" />
<text  x="986.65" y="239.5" ></text>
</g>
<g >
<title>all (27,840,493,656 samples, 100%)</title><rect x="10.0" y="517" width="1180.0" height="15.0" fill="rgb(213,39,9)" rx="2" ry="2" />
<text  x="13.00" y="527.5" ></text>
</g>
<g >
<title>ExecStoreBufferHeapTuple (1,427,426,906 samples, 5.13%)</title><rect x="1001.7" y="261" width="60.5" height="15.0" fill="rgb(230,117,28)" rx="2" ry="2" />
<text  x="1004.73" y="271.5" >ExecSt..</text>
</g>
<g >
<title>PortalRun (27,840,493,656 samples, 100.00%)</title><rect x="10.0" y="357" width="1180.0" height="15.0" fill="rgb(223,85,20)" rx="2" ry="2" />
<text  x="13.00" y="367.5" >PortalRun</text>
</g>
<g >
<title>tick_sched_timer (8,248,982 samples, 0.03%)</title><rect x="969.8" y="165" width="0.4" height="15.0" fill="rgb(254,227,54)" rx="2" ry="2" />
<text  x="972.84" y="175.5" ></text>
</g>
<g >
<title>LockBuffer (2,750,249 samples, 0.01%)</title><rect x="1062.2" y="261" width="0.1" height="15.0" fill="rgb(235,142,34)" rx="2" ry="2" />
<text  x="1065.23" y="271.5" ></text>
</g>
<g >
<title>x86_pmu_disable (2,750,643 samples, 0.01%)</title><rect x="80.4" y="101" width="0.1" height="15.0" fill="rgb(239,160,38)" rx="2" ry="2" />
<text  x="83.38" y="111.5" ></text>
</g>
<g >
<title>postmaster_child_launch (27,840,493,656 samples, 100.00%)</title><rect x="10.0" y="421" width="1180.0" height="15.0" fill="rgb(206,5,1)" rx="2" ry="2" />
<text  x="13.00" y="431.5" >postmaster_child_launch</text>
</g>
<g >
<title>ExecStoreBufferHeapTuple (22,002,349 samples, 0.08%)</title><rect x="995.7" y="277" width="0.9" height="15.0" fill="rgb(230,117,28)" rx="2" ry="2" />
<text  x="998.67" y="287.5" ></text>
</g>
<g >
<title>__sysvec_apic_timer_interrupt (2,750,643 samples, 0.01%)</title><rect x="80.4" y="245" width="0.1" height="15.0" fill="rgb(242,173,41)" rx="2" ry="2" />
<text  x="83.38" y="255.5" ></text>
</g>
<g >
<title>task_tick_fair (2,748,543 samples, 0.01%)</title><rect x="970.1" y="101" width="0.1" height="15.0" fill="rgb(217,57,13)" rx="2" ry="2" />
<text  x="973.07" y="111.5" ></text>
</g>
<g >
<title>ResourceOwnerForget (2,750,099 samples, 0.01%)</title><rect x="1060.8" y="245" width="0.1" height="15.0" fill="rgb(235,142,33)" rx="2" ry="2" />
<text  x="1063.83" y="255.5" ></text>
</g>
<g >
<title>ResourceOwnerEnlarge (5,500,191 samples, 0.02%)</title><rect x="1060.3" y="229" width="0.2" height="15.0" fill="rgb(223,86,20)" rx="2" ry="2" />
<text  x="1063.25" y="239.5" ></text>
</g>
<g >
<title>GetPrivateRefCountEntry (19,253,340 samples, 0.07%)</title><rect x="1099.1" y="229" width="0.8" height="15.0" fill="rgb(250,209,50)" rx="2" ry="2" />
<text  x="1102.08" y="239.5" ></text>
</g>
<g >
<title>update_cfs_group (2,750,548 samples, 0.01%)</title><rect x="588.5" y="85" width="0.2" height="15.0" fill="rgb(242,174,41)" rx="2" ry="2" />
<text  x="591.54" y="95.5" ></text>
</g>
<g >
<title>ResourceOwnerEnlarge (2,750,318 samples, 0.01%)</title><rect x="1060.7" y="245" width="0.1" height="15.0" fill="rgb(223,86,20)" rx="2" ry="2" />
<text  x="1063.72" y="255.5" ></text>
</g>
<g >
<title>sysvec_apic_timer_interrupt (5,501,613 samples, 0.02%)</title><rect x="117.0" y="245" width="0.2" height="15.0" fill="rgb(220,69,16)" rx="2" ry="2" />
<text  x="119.99" y="255.5" ></text>
</g>
<g >
<title>heap_scan_stream_read_next_serial (2,750,253 samples, 0.01%)</title><rect x="1141.0" y="245" width="0.1" height="15.0" fill="rgb(205,4,0)" rx="2" ry="2" />
<text  x="1144.03" y="255.5" ></text>
</g>
<g >
<title>bpcharlen (57,756,505 samples, 0.21%)</title><rect x="1175.8" y="293" width="2.4" height="15.0" fill="rgb(221,77,18)" rx="2" ry="2" />
<text  x="1178.78" y="303.5" ></text>
</g>
<g >
<title>postgres (27,840,493,656 samples, 100.00%)</title><rect x="10.0" y="501" width="1180.0" height="15.0" fill="rgb(233,131,31)" rx="2" ry="2" />
<text  x="13.00" y="511.5" >postgres</text>
</g>
<g >
<title>IncrBufferRefCount (22,002,606 samples, 0.08%)</title><rect x="1059.6" y="245" width="0.9" height="15.0" fill="rgb(209,22,5)" rx="2" ry="2" />
<text  x="1062.55" y="255.5" ></text>
</g>
<g >
<title>update_process_times (2,750,643 samples, 0.01%)</title><rect x="80.4" y="165" width="0.1" height="15.0" fill="rgb(250,209,50)" rx="2" ry="2" />
<text  x="83.38" y="175.5" ></text>
</g>
<g >
<title>pg_mbstrlen_with_len (11,122,996,277 samples, 39.95%)</title><rect x="117.2" y="261" width="471.5" height="15.0" fill="rgb(228,106,25)" rx="2" ry="2" />
<text  x="120.22" y="271.5" >pg_mbstrlen_with_len</text>
</g>
<g >
<title>PostmasterMain (27,840,493,656 samples, 100.00%)</title><rect x="10.0" y="453" width="1180.0" height="15.0" fill="rgb(212,35,8)" rx="2" ry="2" />
<text  x="13.00" y="463.5" >PostmasterMain</text>
</g>
<g >
<title>bpcharlen (20,993,704,864 samples, 75.41%)</title><rect x="80.5" y="277" width="889.8" height="15.0" fill="rgb(221,77,18)" rx="2" ry="2" />
<text  x="83.50" y="287.5" >bpcharlen</text>
</g>
<g >
<title>ServerLoop (27,840,493,656 samples, 100.00%)</title><rect x="10.0" y="437" width="1180.0" height="15.0" fill="rgb(238,155,37)" rx="2" ry="2" />
<text  x="13.00" y="447.5" >ServerLoop</text>
</g>
<g >
<title>hrtimer_interrupt (2,750,834 samples, 0.01%)</title><rect x="983.7" y="213" width="0.1" height="15.0" fill="rgb(228,109,26)" rx="2" ry="2" />
<text  x="986.65" y="223.5" ></text>
</g>
<g >
<title>StartReadBuffer (749,672,263 samples, 2.69%)</title><rect x="1142.2" y="229" width="31.8" height="15.0" fill="rgb(222,78,18)" rx="2" ry="2" />
<text  x="1145.20" y="239.5" >St..</text>
</g>
<g >
<title>heap_prepare_pagescan (954,061,990 samples, 3.43%)</title><rect x="1100.6" y="245" width="40.4" height="15.0" fill="rgb(222,82,19)" rx="2" ry="2" />
<text  x="1103.59" y="255.5" >hea..</text>
</g>
<g >
<title>heap_page_prune_opt (88,011,969 samples, 0.32%)</title><rect x="1137.3" y="229" width="3.7" height="15.0" fill="rgb(211,29,7)" rx="2" ry="2" />
<text  x="1140.30" y="239.5" ></text>
</g>
<g >
<title>perf_event_task_tick (2,750,643 samples, 0.01%)</title><rect x="80.4" y="133" width="0.1" height="15.0" fill="rgb(205,3,0)" rx="2" ry="2" />
<text  x="83.38" y="143.5" ></text>
</g>
<g >
<title>LWLockRelease (46,755,400 samples, 0.17%)</title><rect x="1163.6" y="213" width="2.0" height="15.0" fill="rgb(217,58,13)" rx="2" ry="2" />
<text  x="1166.60" y="223.5" ></text>
</g>
<g >
<title>asm_sysvec_apic_timer_interrupt (2,750,834 samples, 0.01%)</title><rect x="983.7" y="261" width="0.1" height="15.0" fill="rgb(232,127,30)" rx="2" ry="2" />
<text  x="986.65" y="271.5" ></text>
</g>
<g >
<title>scheduler_tick (5,499,244 samples, 0.02%)</title><rect x="970.0" y="117" width="0.2" height="15.0" fill="rgb(246,190,45)" rx="2" ry="2" />
<text  x="972.95" y="127.5" ></text>
</g>
</g>
</svg>
