<?xml version="1.0" standalone="no"?>
<!DOCTYPE svg PUBLIC "-//W3C//DTD SVG 1.1//EN" "http://www.w3.org/Graphics/SVG/1.1/DTD/svg11.dtd">
<svg version="1.1" width="1200" height="566" onload="init(evt)" viewBox="0 0 1200 566" xmlns="http://www.w3.org/2000/svg" xmlns:xlink="http://www.w3.org/1999/xlink">
<!-- Flame graph stack visualization. See https://github.com/brendangregg/FlameGraph for latest version, and http://www.brendangregg.com/flamegraphs.html for examples. -->
<!-- NOTES:  -->
<defs>
	<linearGradient id="background" y1="0" y2="1" x1="0" x2="0" >
		<stop stop-color="#eeeeee" offset="5%" />
		<stop stop-color="#eeeeb0" offset="95%" />
	</linearGradient>
</defs>
<style type="text/css">
	text { font-family:Verdana; font-size:12px; fill:rgb(0,0,0); }
	#search, #ignorecase { opacity:0.1; cursor:pointer; }
	#search:hover, #search.show, #ignorecase:hover, #ignorecase.show { opacity:1; }
	#subtitle { text-anchor:middle; font-color:rgb(160,160,160); }
	#title { text-anchor:middle; font-size:17px}
	#unzoom { cursor:pointer; }
	#frames > *:hover { stroke:black; stroke-width:0.5; cursor:pointer; }
	.hide { display:none; }
	.parent { opacity:0.5; }
</style>
<script type="text/ecmascript">
<![CDATA[
	"use strict";
	var details, searchbtn, unzoombtn, matchedtxt, svg, searching, currentSearchTerm, ignorecase, ignorecaseBtn;
	function init(evt) {
		details = document.getElementById("details").firstChild;
		searchbtn = document.getElementById("search");
		ignorecaseBtn = document.getElementById("ignorecase");
		unzoombtn = document.getElementById("unzoom");
		matchedtxt = document.getElementById("matched");
		svg = document.getElementsByTagName("svg")[0];
		searching = 0;
		currentSearchTerm = null;

		// use GET parameters to restore a flamegraphs state.
		var params = get_params();
		if (params.x && params.y)
			zoom(find_group(document.querySelector('[x="' + params.x + '"][y="' + params.y + '"]')));
                if (params.s) search(params.s);
	}

	// event listeners
	window.addEventListener("click", function(e) {
		var target = find_group(e.target);
		if (target) {
			if (target.nodeName == "a") {
				if (e.ctrlKey === false) return;
				e.preventDefault();
			}
			if (target.classList.contains("parent")) unzoom(true);
			zoom(target);
			if (!document.querySelector('.parent')) {
				// we have basically done a clearzoom so clear the url
				var params = get_params();
				if (params.x) delete params.x;
				if (params.y) delete params.y;
				history.replaceState(null, null, parse_params(params));
				unzoombtn.classList.add("hide");
				return;
			}

			// set parameters for zoom state
			var el = target.querySelector("rect");
			if (el && el.attributes && el.attributes.y && el.attributes._orig_x) {
				var params = get_params()
				params.x = el.attributes._orig_x.value;
				params.y = el.attributes.y.value;
				history.replaceState(null, null, parse_params(params));
			}
		}
		else if (e.target.id == "unzoom") clearzoom();
		else if (e.target.id == "search") search_prompt();
		else if (e.target.id == "ignorecase") toggle_ignorecase();
	}, false)

	// mouse-over for info
	// show
	window.addEventListener("mouseover", function(e) {
		var target = find_group(e.target);
		if (target) details.nodeValue = "Function: " + g_to_text(target);
	}, false)

	// clear
	window.addEventListener("mouseout", function(e) {
		var target = find_group(e.target);
		if (target) details.nodeValue = ' ';
	}, false)

	// ctrl-F for search
	// ctrl-I to toggle case-sensitive search
	window.addEventListener("keydown",function (e) {
		if (e.keyCode === 114 || (e.ctrlKey && e.keyCode === 70)) {
			e.preventDefault();
			search_prompt();
		}
		else if (e.ctrlKey && e.keyCode === 73) {
			e.preventDefault();
			toggle_ignorecase();
		}
	}, false)

	// functions
	function get_params() {
		var params = {};
		var paramsarr = window.location.search.substr(1).split('&');
		for (var i = 0; i < paramsarr.length; ++i) {
			var tmp = paramsarr[i].split("=");
			if (!tmp[0] || !tmp[1]) continue;
			params[tmp[0]]  = decodeURIComponent(tmp[1]);
		}
		return params;
	}
	function parse_params(params) {
		var uri = "?";
		for (var key in params) {
			uri += key + '=' + encodeURIComponent(params[key]) + '&';
		}
		if (uri.slice(-1) == "&")
			uri = uri.substring(0, uri.length - 1);
		if (uri == '?')
			uri = window.location.href.split('?')[0];
		return uri;
	}
	function find_child(node, selector) {
		var children = node.querySelectorAll(selector);
		if (children.length) return children[0];
	}
	function find_group(node) {
		var parent = node.parentElement;
		if (!parent) return;
		if (parent.id == "frames") return node;
		return find_group(parent);
	}
	function orig_save(e, attr, val) {
		if (e.attributes["_orig_" + attr] != undefined) return;
		if (e.attributes[attr] == undefined) return;
		if (val == undefined) val = e.attributes[attr].value;
		e.setAttribute("_orig_" + attr, val);
	}
	function orig_load(e, attr) {
		if (e.attributes["_orig_"+attr] == undefined) return;
		e.attributes[attr].value = e.attributes["_orig_" + attr].value;
		e.removeAttribute("_orig_"+attr);
	}
	function g_to_text(e) {
		var text = find_child(e, "title").firstChild.nodeValue;
		return (text)
	}
	function g_to_func(e) {
		var func = g_to_text(e);
		// if there's any manipulation we want to do to the function
		// name before it's searched, do it here before returning.
		return (func);
	}
	function update_text(e) {
		var r = find_child(e, "rect");
		var t = find_child(e, "text");
		var w = parseFloat(r.attributes.width.value) -3;
		var txt = find_child(e, "title").textContent.replace(/\([^(]*\)$/,"");
		t.attributes.x.value = parseFloat(r.attributes.x.value) + 3;

		// Smaller than this size won't fit anything
		if (w < 2 * 12 * 0.59) {
			t.textContent = "";
			return;
		}

		t.textContent = txt;
		var sl = t.getSubStringLength(0, txt.length);
		// check if only whitespace or if we can fit the entire string into width w
		if (/^ *$/.test(txt) || sl < w)
			return;

		// this isn't perfect, but gives a good starting point
		// and avoids calling getSubStringLength too often
		var start = Math.floor((w/sl) * txt.length);
		for (var x = start; x > 0; x = x-2) {
			if (t.getSubStringLength(0, x + 2) <= w) {
				t.textContent = txt.substring(0, x) + "..";
				return;
			}
		}
		t.textContent = "";
	}

	// zoom
	function zoom_reset(e) {
		if (e.attributes != undefined) {
			orig_load(e, "x");
			orig_load(e, "width");
		}
		if (e.childNodes == undefined) return;
		for (var i = 0, c = e.childNodes; i < c.length; i++) {
			zoom_reset(c[i]);
		}
	}
	function zoom_child(e, x, ratio) {
		if (e.attributes != undefined) {
			if (e.attributes.x != undefined) {
				orig_save(e, "x");
				e.attributes.x.value = (parseFloat(e.attributes.x.value) - x - 10) * ratio + 10;
				if (e.tagName == "text")
					e.attributes.x.value = find_child(e.parentNode, "rect[x]").attributes.x.value + 3;
			}
			if (e.attributes.width != undefined) {
				orig_save(e, "width");
				e.attributes.width.value = parseFloat(e.attributes.width.value) * ratio;
			}
		}

		if (e.childNodes == undefined) return;
		for (var i = 0, c = e.childNodes; i < c.length; i++) {
			zoom_child(c[i], x - 10, ratio);
		}
	}
	function zoom_parent(e) {
		if (e.attributes) {
			if (e.attributes.x != undefined) {
				orig_save(e, "x");
				e.attributes.x.value = 10;
			}
			if (e.attributes.width != undefined) {
				orig_save(e, "width");
				e.attributes.width.value = parseInt(svg.width.baseVal.value) - (10 * 2);
			}
		}
		if (e.childNodes == undefined) return;
		for (var i = 0, c = e.childNodes; i < c.length; i++) {
			zoom_parent(c[i]);
		}
	}
	function zoom(node) {
		var attr = find_child(node, "rect").attributes;
		var width = parseFloat(attr.width.value);
		var xmin = parseFloat(attr.x.value);
		var xmax = parseFloat(xmin + width);
		var ymin = parseFloat(attr.y.value);
		var ratio = (svg.width.baseVal.value - 2 * 10) / width;

		// XXX: Workaround for JavaScript float issues (fix me)
		var fudge = 0.0001;

		unzoombtn.classList.remove("hide");

		var el = document.getElementById("frames").children;
		for (var i = 0; i < el.length; i++) {
			var e = el[i];
			var a = find_child(e, "rect").attributes;
			var ex = parseFloat(a.x.value);
			var ew = parseFloat(a.width.value);
			var upstack;
			// Is it an ancestor
			if (0 == 0) {
				upstack = parseFloat(a.y.value) > ymin;
			} else {
				upstack = parseFloat(a.y.value) < ymin;
			}
			if (upstack) {
				// Direct ancestor
				if (ex <= xmin && (ex+ew+fudge) >= xmax) {
					e.classList.add("parent");
					zoom_parent(e);
					update_text(e);
				}
				// not in current path
				else
					e.classList.add("hide");
			}
			// Children maybe
			else {
				// no common path
				if (ex < xmin || ex + fudge >= xmax) {
					e.classList.add("hide");
				}
				else {
					zoom_child(e, xmin, ratio);
					update_text(e);
				}
			}
		}
		search();
	}
	function unzoom(dont_update_text) {
		unzoombtn.classList.add("hide");
		var el = document.getElementById("frames").children;
		for(var i = 0; i < el.length; i++) {
			el[i].classList.remove("parent");
			el[i].classList.remove("hide");
			zoom_reset(el[i]);
			if(!dont_update_text) update_text(el[i]);
		}
		search();
	}
	function clearzoom() {
		unzoom();

		// remove zoom state
		var params = get_params();
		if (params.x) delete params.x;
		if (params.y) delete params.y;
		history.replaceState(null, null, parse_params(params));
	}

	// search
	function toggle_ignorecase() {
		ignorecase = !ignorecase;
		if (ignorecase) {
			ignorecaseBtn.classList.add("show");
		} else {
			ignorecaseBtn.classList.remove("show");
		}
		reset_search();
		search();
	}
	function reset_search() {
		var el = document.querySelectorAll("#frames rect");
		for (var i = 0; i < el.length; i++) {
			orig_load(el[i], "fill")
		}
		var params = get_params();
		delete params.s;
		history.replaceState(null, null, parse_params(params));
	}
	function search_prompt() {
		if (!searching) {
			var term = prompt("Enter a search term (regexp " +
			    "allowed, eg: ^ext4_)"
			    + (ignorecase ? ", ignoring case" : "")
			    + "\nPress Ctrl-i to toggle case sensitivity", "");
			if (term != null) search(term);
		} else {
			reset_search();
			searching = 0;
			currentSearchTerm = null;
			searchbtn.classList.remove("show");
			searchbtn.firstChild.nodeValue = "Search"
			matchedtxt.classList.add("hide");
			matchedtxt.firstChild.nodeValue = ""
		}
	}
	function search(term) {
		if (term) currentSearchTerm = term;

		var re = new RegExp(currentSearchTerm, ignorecase ? 'i' : '');
		var el = document.getElementById("frames").children;
		var matches = new Object();
		var maxwidth = 0;
		for (var i = 0; i < el.length; i++) {
			var e = el[i];
			var func = g_to_func(e);
			var rect = find_child(e, "rect");
			if (func == null || rect == null)
				continue;

			// Save max width. Only works as we have a root frame
			var w = parseFloat(rect.attributes.width.value);
			if (w > maxwidth)
				maxwidth = w;

			if (func.match(re)) {
				// highlight
				var x = parseFloat(rect.attributes.x.value);
				orig_save(rect, "fill");
				rect.attributes.fill.value = "rgb(230,0,230)";

				// remember matches
				if (matches[x] == undefined) {
					matches[x] = w;
				} else {
					if (w > matches[x]) {
						// overwrite with parent
						matches[x] = w;
					}
				}
				searching = 1;
			}
		}
		if (!searching)
			return;
		var params = get_params();
		params.s = currentSearchTerm;
		history.replaceState(null, null, parse_params(params));

		searchbtn.classList.add("show");
		searchbtn.firstChild.nodeValue = "Reset Search";

		// calculate percent matched, excluding vertical overlap
		var count = 0;
		var lastx = -1;
		var lastw = 0;
		var keys = Array();
		for (k in matches) {
			if (matches.hasOwnProperty(k))
				keys.push(k);
		}
		// sort the matched frames by their x location
		// ascending, then width descending
		keys.sort(function(a, b){
			return a - b;
		});
		// Step through frames saving only the biggest bottom-up frames
		// thanks to the sort order. This relies on the tree property
		// where children are always smaller than their parents.
		var fudge = 0.0001;	// JavaScript floating point
		for (var k in keys) {
			var x = parseFloat(keys[k]);
			var w = matches[keys[k]];
			if (x >= lastx + lastw - fudge) {
				count += w;
				lastx = x;
				lastw = w;
			}
		}
		// display matched percent
		matchedtxt.classList.remove("hide");
		var pct = 100 * count / maxwidth;
		if (pct != 100) pct = pct.toFixed(1)
		matchedtxt.firstChild.nodeValue = "Matched: " + pct + "%";
	}
]]>
</script>
<rect x="0.0" y="0" width="1200.0" height="566.0" fill="url(#background)"  />
<text id="title" x="600.00" y="24" >Flame Graph</text>
<text id="details" x="10.00" y="549" > </text>
<text id="unzoom" x="10.00" y="24" class="hide">Reset Zoom</text>
<text id="search" x="1090.00" y="24" >Search</text>
<text id="ignorecase" x="1174.00" y="24" >ic</text>
<text id="matched" x="1090.00" y="549" > </text>
<g id="frames">
<g >
<title>hrtimer_interrupt (2,750,824 samples, 0.01%)</title><rect x="1091.1" y="197" width="0.2" height="15.0" fill="rgb(228,109,26)" rx="2" ry="2" />
<text  x="1094.15" y="207.5" ></text>
</g>
<g >
<title>heapgettup_pagemode (1,654,913,013 samples, 5.92%)</title><rect x="1093.5" y="261" width="69.8" height="15.0" fill="rgb(242,170,40)" rx="2" ry="2" />
<text  x="1096.47" y="271.5" >heapget..</text>
</g>
<g >
<title>update_load_avg (2,750,824 samples, 0.01%)</title><rect x="1091.1" y="85" width="0.2" height="15.0" fill="rgb(240,165,39)" rx="2" ry="2" />
<text  x="1094.15" y="95.5" ></text>
</g>
<g >
<title>bpcharlen (21,010,916,758 samples, 75.18%)</title><rect x="73.2" y="277" width="887.1" height="15.0" fill="rgb(221,77,18)" rx="2" ry="2" />
<text  x="76.20" y="287.5" >bpcharlen</text>
</g>
<g >
<title>heap_prepare_pagescan (211,782,716 samples, 0.76%)</title><rect x="1124.4" y="245" width="8.9" height="15.0" fill="rgb(222,82,19)" rx="2" ry="2" />
<text  x="1127.37" y="255.5" ></text>
</g>
<g >
<title>PostmasterMain (27,947,770,808 samples, 100.00%)</title><rect x="10.0" y="453" width="1180.0" height="15.0" fill="rgb(212,35,8)" rx="2" ry="2" />
<text  x="13.00" y="463.5" >PostmasterMain</text>
</g>
<g >
<title>all (27,947,770,808 samples, 100%)</title><rect x="10.0" y="517" width="1180.0" height="15.0" fill="rgb(213,39,9)" rx="2" ry="2" />
<text  x="13.00" y="527.5" ></text>
</g>
<g >
<title>ReleaseBuffer (5,500,415 samples, 0.02%)</title><rect x="1091.3" y="261" width="0.2" height="15.0" fill="rgb(220,71,17)" rx="2" ry="2" />
<text  x="1094.26" y="271.5" ></text>
</g>
<g >
<title>ExecScan (27,829,509,693 samples, 99.58%)</title><rect x="10.8" y="309" width="1175.0" height="15.0" fill="rgb(237,150,36)" rx="2" ry="2" />
<text  x="13.81" y="319.5" >ExecScan</text>
</g>
<g >
<title>asm_sysvec_apic_timer_interrupt (16,506,398 samples, 0.06%)</title><rect x="959.6" y="245" width="0.7" height="15.0" fill="rgb(232,127,30)" rx="2" ry="2" />
<text  x="962.62" y="255.5" ></text>
</g>
<g >
<title>PinBuffer (134,764,954 samples, 0.48%)</title><rect x="1156.6" y="213" width="5.7" height="15.0" fill="rgb(219,64,15)" rx="2" ry="2" />
<text  x="1159.61" y="223.5" ></text>
</g>
<g >
<title>GetPrivateRefCountEntry (5,500,424 samples, 0.02%)</title><rect x="1122.7" y="229" width="0.3" height="15.0" fill="rgb(250,209,50)" rx="2" ry="2" />
<text  x="1125.74" y="239.5" ></text>
</g>
<g >
<title>__libc_start_call_main (27,947,770,808 samples, 100.00%)</title><rect x="10.0" y="485" width="1180.0" height="15.0" fill="rgb(210,26,6)" rx="2" ry="2" />
<text  x="13.00" y="495.5" >__libc_start_call_main</text>
</g>
<g >
<title>ExecStoreBufferHeapTuple (5,501,373 samples, 0.02%)</title><rect x="1042.4" y="277" width="0.2" height="15.0" fill="rgb(230,117,28)" rx="2" ry="2" />
<text  x="1045.35" y="287.5" ></text>
</g>
<g >
<title>asm_sysvec_apic_timer_interrupt (5,501,712 samples, 0.02%)</title><rect x="1042.6" y="277" width="0.2" height="15.0" fill="rgb(232,127,30)" rx="2" ry="2" />
<text  x="1045.59" y="287.5" ></text>
</g>
<g >
<title>tick_sched_timer (5,501,616 samples, 0.02%)</title><rect x="262.7" y="165" width="0.2" height="15.0" fill="rgb(254,227,54)" rx="2" ry="2" />
<text  x="265.69" y="175.5" ></text>
</g>
<g >
<title>SeqNext (27,504,830 samples, 0.10%)</title><rect x="1188.8" y="309" width="1.2" height="15.0" fill="rgb(214,41,10)" rx="2" ry="2" />
<text  x="1191.84" y="319.5" ></text>
</g>
<g >
<title>__hrtimer_run_queues (2,750,824 samples, 0.01%)</title><rect x="1091.1" y="181" width="0.2" height="15.0" fill="rgb(237,150,35)" rx="2" ry="2" />
<text  x="1094.15" y="191.5" ></text>
</g>
<g >
<title>sysvec_apic_timer_interrupt (2,750,824 samples, 0.01%)</title><rect x="1091.1" y="229" width="0.2" height="15.0" fill="rgb(220,69,16)" rx="2" ry="2" />
<text  x="1094.15" y="239.5" ></text>
</g>
<g >
<title>arch_scale_freq_tick (2,750,664 samples, 0.01%)</title><rect x="959.7" y="101" width="0.2" height="15.0" fill="rgb(252,219,52)" rx="2" ry="2" />
<text  x="962.74" y="111.5" ></text>
</g>
<g >
<title>__sysvec_apic_timer_interrupt (2,750,705 samples, 0.01%)</title><rect x="96.5" y="229" width="0.2" height="15.0" fill="rgb(242,173,41)" rx="2" ry="2" />
<text  x="99.55" y="239.5" ></text>
</g>
<g >
<title>bpcharlen (8,251,876 samples, 0.03%)</title><rect x="1163.6" y="293" width="0.3" height="15.0" fill="rgb(221,77,18)" rx="2" ry="2" />
<text  x="1166.58" y="303.5" ></text>
</g>
<g >
<title>pg_database_encoding_max_length (30,252,798 samples, 0.11%)</title><rect x="960.3" y="277" width="1.3" height="15.0" fill="rgb(243,176,42)" rx="2" ry="2" />
<text  x="963.32" y="287.5" ></text>
</g>
<g >
<title>scheduler_tick (5,501,091 samples, 0.02%)</title><rect x="959.7" y="117" width="0.3" height="15.0" fill="rgb(246,190,45)" rx="2" ry="2" />
<text  x="962.74" y="127.5" ></text>
</g>
<g >
<title>ResourceOwnerForget (5,500,903 samples, 0.02%)</title><rect x="1122.3" y="229" width="0.2" height="15.0" fill="rgb(235,142,33)" rx="2" ry="2" />
<text  x="1125.27" y="239.5" ></text>
</g>
<g >
<title>asm_sysvec_apic_timer_interrupt (2,750,705 samples, 0.01%)</title><rect x="96.5" y="261" width="0.2" height="15.0" fill="rgb(232,127,30)" rx="2" ry="2" />
<text  x="99.55" y="271.5" ></text>
</g>
<g >
<title>ReservePrivateRefCountEntry (2,750,356 samples, 0.01%)</title><rect x="1162.3" y="213" width="0.1" height="15.0" fill="rgb(232,125,30)" rx="2" ry="2" />
<text  x="1165.30" y="223.5" ></text>
</g>
<g >
<title>LWLockRelease (57,759,251 samples, 0.21%)</title><rect x="1119.8" y="245" width="2.5" height="15.0" fill="rgb(217,58,13)" rx="2" ry="2" />
<text  x="1122.84" y="255.5" ></text>
</g>
<g >
<title>scheduler_tick (5,501,616 samples, 0.02%)</title><rect x="262.7" y="117" width="0.2" height="15.0" fill="rgb(246,190,45)" rx="2" ry="2" />
<text  x="265.69" y="127.5" ></text>
</g>
<g >
<title>update_process_times (5,501,616 samples, 0.02%)</title><rect x="262.7" y="133" width="0.2" height="15.0" fill="rgb(250,209,50)" rx="2" ry="2" />
<text  x="265.69" y="143.5" ></text>
</g>
<g >
<title>hrtimer_interrupt (2,750,619 samples, 0.01%)</title><rect x="1042.6" y="229" width="0.1" height="15.0" fill="rgb(228,109,26)" rx="2" ry="2" />
<text  x="1045.59" y="239.5" ></text>
</g>
<g >
<title>PinBuffer (2,749,997 samples, 0.01%)</title><rect x="1134.2" y="229" width="0.2" height="15.0" fill="rgb(219,64,15)" rx="2" ry="2" />
<text  x="1137.24" y="239.5" ></text>
</g>
<g >
<title>standard_ExecutorRun (27,947,770,808 samples, 100.00%)</title><rect x="10.0" y="325" width="1180.0" height="15.0" fill="rgb(247,196,47)" rx="2" ry="2" />
<text  x="13.00" y="335.5" >standard_ExecutorRun</text>
</g>
<g >
<title>tick_sched_timer (2,750,619 samples, 0.01%)</title><rect x="1042.6" y="197" width="0.1" height="15.0" fill="rgb(254,227,54)" rx="2" ry="2" />
<text  x="1045.59" y="207.5" ></text>
</g>
<g >
<title>CheckForSerializableConflictOutNeeded (2,750,823 samples, 0.01%)</title><rect x="1119.7" y="245" width="0.1" height="15.0" fill="rgb(213,38,9)" rx="2" ry="2" />
<text  x="1122.72" y="255.5" ></text>
</g>
<g >
<title>exit_to_user_mode_prepare (2,751,101 samples, 0.01%)</title><rect x="960.1" y="197" width="0.1" height="15.0" fill="rgb(228,108,25)" rx="2" ry="2" />
<text  x="963.09" y="207.5" ></text>
</g>
<g >
<title>pg_mbstrlen_with_len (8,251,063 samples, 0.03%)</title><rect x="962.8" y="277" width="0.3" height="15.0" fill="rgb(228,106,25)" rx="2" ry="2" />
<text  x="965.76" y="287.5" ></text>
</g>
<g >
<title>__sysvec_apic_timer_interrupt (8,251,796 samples, 0.03%)</title><rect x="959.6" y="213" width="0.4" height="15.0" fill="rgb(242,173,41)" rx="2" ry="2" />
<text  x="962.62" y="223.5" ></text>
</g>
<g >
<title>asm_sysvec_apic_timer_interrupt (2,750,824 samples, 0.01%)</title><rect x="1091.1" y="245" width="0.2" height="15.0" fill="rgb(232,127,30)" rx="2" ry="2" />
<text  x="1094.15" y="255.5" ></text>
</g>
<g >
<title>update_curr (2,750,427 samples, 0.01%)</title><rect x="959.9" y="53" width="0.1" height="15.0" fill="rgb(227,105,25)" rx="2" ry="2" />
<text  x="962.85" y="63.5" ></text>
</g>
<g >
<title>read_stream_next_buffer (708,639,825 samples, 2.54%)</title><rect x="1133.4" y="245" width="29.9" height="15.0" fill="rgb(216,50,12)" rx="2" ry="2" />
<text  x="1136.42" y="255.5" >re..</text>
</g>
<g >
<title>[postgres] (27,947,770,808 samples, 100.00%)</title><rect x="10.0" y="405" width="1180.0" height="15.0" fill="rgb(245,184,44)" rx="2" ry="2" />
<text  x="13.00" y="415.5" >[postgres]</text>
</g>
<g >
<title>ServerLoop (27,947,770,808 samples, 100.00%)</title><rect x="10.0" y="437" width="1180.0" height="15.0" fill="rgb(238,155,37)" rx="2" ry="2" />
<text  x="13.00" y="447.5" >ServerLoop</text>
</g>
<g >
<title>sysvec_apic_timer_interrupt (16,506,398 samples, 0.06%)</title><rect x="959.6" y="229" width="0.7" height="15.0" fill="rgb(220,69,16)" rx="2" ry="2" />
<text  x="962.62" y="239.5" ></text>
</g>
<g >
<title>BufTableLookup (326,335,216 samples, 1.17%)</title><rect x="1138.2" y="213" width="13.8" height="15.0" fill="rgb(224,89,21)" rx="2" ry="2" />
<text  x="1141.18" y="223.5" ></text>
</g>
<g >
<title>tick_sched_handle (2,750,824 samples, 0.01%)</title><rect x="1091.1" y="149" width="0.2" height="15.0" fill="rgb(219,68,16)" rx="2" ry="2" />
<text  x="1094.15" y="159.5" ></text>
</g>
<g >
<title>__sysvec_apic_timer_interrupt (2,750,824 samples, 0.01%)</title><rect x="1091.1" y="213" width="0.2" height="15.0" fill="rgb(242,173,41)" rx="2" ry="2" />
<text  x="1094.15" y="223.5" ></text>
</g>
<g >
<title>asm_sysvec_apic_timer_interrupt (5,501,616 samples, 0.02%)</title><rect x="262.7" y="245" width="0.2" height="15.0" fill="rgb(232,127,30)" rx="2" ry="2" />
<text  x="265.69" y="255.5" ></text>
</g>
<g >
<title>heap_getnextslot (397,498,575 samples, 1.42%)</title><rect x="1163.9" y="293" width="16.8" height="15.0" fill="rgb(213,40,9)" rx="2" ry="2" />
<text  x="1166.92" y="303.5" ></text>
</g>
<g >
<title>sysvec_apic_timer_interrupt (5,501,712 samples, 0.02%)</title><rect x="1042.6" y="261" width="0.2" height="15.0" fill="rgb(220,69,16)" rx="2" ry="2" />
<text  x="1045.59" y="271.5" ></text>
</g>
<g >
<title>SeqNext (3,490,094,929 samples, 12.49%)</title><rect x="1016.2" y="293" width="147.4" height="15.0" fill="rgb(214,41,10)" rx="2" ry="2" />
<text  x="1019.22" y="303.5" >SeqNext</text>
</g>
<g >
<title>tick_sched_handle (2,750,619 samples, 0.01%)</title><rect x="1042.6" y="181" width="0.1" height="15.0" fill="rgb(219,68,16)" rx="2" ry="2" />
<text  x="1045.59" y="191.5" ></text>
</g>
<g >
<title>PostgresMain (27,947,770,808 samples, 100.00%)</title><rect x="10.0" y="389" width="1180.0" height="15.0" fill="rgb(227,103,24)" rx="2" ry="2" />
<text  x="13.00" y="399.5" >PostgresMain</text>
</g>
<g >
<title>__hrtimer_run_queues (2,750,619 samples, 0.01%)</title><rect x="1042.6" y="213" width="0.1" height="15.0" fill="rgb(237,150,35)" rx="2" ry="2" />
<text  x="1045.59" y="223.5" ></text>
</g>
<g >
<title>pgstat_count_io_op (13,752,859 samples, 0.05%)</title><rect x="1162.8" y="229" width="0.5" height="15.0" fill="rgb(207,10,2)" rx="2" ry="2" />
<text  x="1165.76" y="239.5" ></text>
</g>
<g >
<title>__update_load_avg_se (2,750,824 samples, 0.01%)</title><rect x="1091.1" y="69" width="0.2" height="15.0" fill="rgb(254,227,54)" rx="2" ry="2" />
<text  x="1094.15" y="79.5" ></text>
</g>
<g >
<title>irqentry_enter_from_user_mode (2,750,654 samples, 0.01%)</title><rect x="960.0" y="213" width="0.1" height="15.0" fill="rgb(208,17,4)" rx="2" ry="2" />
<text  x="962.97" y="223.5" ></text>
</g>
<g >
<title>_raw_spin_lock (2,750,447 samples, 0.01%)</title><rect x="262.7" y="85" width="0.1" height="15.0" fill="rgb(239,160,38)" rx="2" ry="2" />
<text  x="265.69" y="95.5" ></text>
</g>
<g >
<title>ExecInterpExpr (23,111,204,049 samples, 82.69%)</title><rect x="22.4" y="293" width="975.8" height="15.0" fill="rgb(225,96,22)" rx="2" ry="2" />
<text  x="25.43" y="303.5" >ExecInterpExpr</text>
</g>
<g >
<title>pg_detoast_datum_packed (27,503,372 samples, 0.10%)</title><rect x="961.6" y="277" width="1.2" height="15.0" fill="rgb(238,155,37)" rx="2" ry="2" />
<text  x="964.60" y="287.5" ></text>
</g>
<g >
<title>tick_sched_handle (2,750,705 samples, 0.01%)</title><rect x="959.6" y="165" width="0.1" height="15.0" fill="rgb(219,68,16)" rx="2" ry="2" />
<text  x="962.62" y="175.5" ></text>
</g>
<g >
<title>exec_simple_query (27,947,770,808 samples, 100.00%)</title><rect x="10.0" y="373" width="1180.0" height="15.0" fill="rgb(211,29,6)" rx="2" ry="2" />
<text  x="13.00" y="383.5" >exec_simple_query</text>
</g>
<g >
<title>heap_page_prune_opt (85,263,929 samples, 0.31%)</title><rect x="1129.7" y="229" width="3.6" height="15.0" fill="rgb(211,29,7)" rx="2" ry="2" />
<text  x="1132.71" y="239.5" ></text>
</g>
<g >
<title>irq_exit_rcu (2,751,093 samples, 0.01%)</title><rect x="1042.7" y="245" width="0.1" height="15.0" fill="rgb(254,227,54)" rx="2" ry="2" />
<text  x="1045.70" y="255.5" ></text>
</g>
<g >
<title>update_process_times (2,750,824 samples, 0.01%)</title><rect x="1091.1" y="133" width="0.2" height="15.0" fill="rgb(250,209,50)" rx="2" ry="2" />
<text  x="1094.15" y="143.5" ></text>
</g>
<g >
<title>irqentry_exit (2,753,363 samples, 0.01%)</title><rect x="960.1" y="213" width="0.1" height="15.0" fill="rgb(219,66,15)" rx="2" ry="2" />
<text  x="963.09" y="223.5" ></text>
</g>
<g >
<title>account_process_tick (2,750,619 samples, 0.01%)</title><rect x="1042.6" y="149" width="0.1" height="15.0" fill="rgb(234,136,32)" rx="2" ry="2" />
<text  x="1045.59" y="159.5" ></text>
</g>
<g >
<title>read_stream_next_buffer (5,500,009 samples, 0.02%)</title><rect x="1163.3" y="261" width="0.3" height="15.0" fill="rgb(216,50,12)" rx="2" ry="2" />
<text  x="1166.34" y="271.5" ></text>
</g>
<g >
<title>ResourceOwnerEnlarge (2,750,877 samples, 0.01%)</title><rect x="1090.5" y="229" width="0.1" height="15.0" fill="rgb(223,86,20)" rx="2" ry="2" />
<text  x="1093.45" y="239.5" ></text>
</g>
<g >
<title>LWLockAttemptLock (85,261,505 samples, 0.31%)</title><rect x="1152.0" y="213" width="3.6" height="15.0" fill="rgb(235,138,33)" rx="2" ry="2" />
<text  x="1154.96" y="223.5" ></text>
</g>
<g >
<title>heap_scan_stream_read_next_serial (2,750,515 samples, 0.01%)</title><rect x="1133.3" y="245" width="0.1" height="15.0" fill="rgb(205,4,0)" rx="2" ry="2" />
<text  x="1136.31" y="255.5" ></text>
</g>
<g >
<title>hash_search_with_hash_value (318,083,827 samples, 1.14%)</title><rect x="1138.5" y="197" width="13.5" height="15.0" fill="rgb(249,205,49)" rx="2" ry="2" />
<text  x="1141.53" y="207.5" ></text>
</g>
<g >
<title>heap_prepare_pagescan (41,257,758 samples, 0.15%)</title><rect x="1091.7" y="261" width="1.8" height="15.0" fill="rgb(222,82,19)" rx="2" ry="2" />
<text  x="1094.73" y="271.5" ></text>
</g>
<g >
<title>ReleaseBuffer (5,500,903 samples, 0.02%)</title><rect x="1122.3" y="245" width="0.2" height="15.0" fill="rgb(220,71,17)" rx="2" ry="2" />
<text  x="1125.27" y="255.5" ></text>
</g>
<g >
<title>update_process_times (5,501,091 samples, 0.02%)</title><rect x="959.7" y="133" width="0.3" height="15.0" fill="rgb(250,209,50)" rx="2" ry="2" />
<text  x="962.74" y="143.5" ></text>
</g>
<g >
<title>UnpinBufferNoOwner (13,751,014 samples, 0.05%)</title><rect x="1090.6" y="245" width="0.5" height="15.0" fill="rgb(253,221,53)" rx="2" ry="2" />
<text  x="1093.57" y="255.5" ></text>
</g>
<g >
<title>hash_bytes (5,501,160 samples, 0.02%)</title><rect x="1162.5" y="229" width="0.3" height="15.0" fill="rgb(227,102,24)" rx="2" ry="2" />
<text  x="1165.53" y="239.5" ></text>
</g>
<g >
<title>postgres (27,947,770,808 samples, 100.00%)</title><rect x="10.0" y="501" width="1180.0" height="15.0" fill="rgb(233,131,31)" rx="2" ry="2" />
<text  x="13.00" y="511.5" >postgres</text>
</g>
<g >
<title>ResourceOwnerRemember (2,750,263 samples, 0.01%)</title><rect x="1162.4" y="213" width="0.1" height="15.0" fill="rgb(243,178,42)" rx="2" ry="2" />
<text  x="1165.41" y="223.5" ></text>
</g>
<g >
<title>__hrtimer_run_queues (5,501,616 samples, 0.02%)</title><rect x="262.7" y="181" width="0.2" height="15.0" fill="rgb(237,150,35)" rx="2" ry="2" />
<text  x="265.69" y="191.5" ></text>
</g>
<g >
<title>srso_alias_safe_ret (2,750,705 samples, 0.01%)</title><rect x="96.5" y="165" width="0.2" height="15.0" fill="rgb(242,170,40)" rx="2" ry="2" />
<text  x="99.55" y="175.5" ></text>
</g>
<g >
<title>rcu_core_si (2,751,093 samples, 0.01%)</title><rect x="1042.7" y="229" width="0.1" height="15.0" fill="rgb(237,150,36)" rx="2" ry="2" />
<text  x="1045.70" y="239.5" ></text>
</g>
<g >
<title>tick_sched_handle (5,501,091 samples, 0.02%)</title><rect x="959.7" y="149" width="0.3" height="15.0" fill="rgb(219,68,16)" rx="2" ry="2" />
<text  x="962.74" y="159.5" ></text>
</g>
<g >
<title>hrtimer_interrupt (8,251,796 samples, 0.03%)</title><rect x="959.6" y="197" width="0.4" height="15.0" fill="rgb(228,109,26)" rx="2" ry="2" />
<text  x="962.62" y="207.5" ></text>
</g>
<g >
<title>int4lt (121,102,502 samples, 0.43%)</title><rect x="1180.7" y="293" width="5.1" height="15.0" fill="rgb(242,172,41)" rx="2" ry="2" />
<text  x="1183.71" y="303.5" ></text>
</g>
<g >
<title>heap_page_prune_opt (33,007,355 samples, 0.12%)</title><rect x="1123.0" y="245" width="1.4" height="15.0" fill="rgb(211,29,7)" rx="2" ry="2" />
<text  x="1125.97" y="255.5" ></text>
</g>
<g >
<title>ExecStoreBufferHeapTuple (1,006,653,275 samples, 3.60%)</title><rect x="1048.8" y="261" width="42.5" height="15.0" fill="rgb(230,117,28)" rx="2" ry="2" />
<text  x="1051.76" y="271.5" >Exec..</text>
</g>
<g >
<title>task_tick_fair (2,750,824 samples, 0.01%)</title><rect x="1091.1" y="101" width="0.2" height="15.0" fill="rgb(217,57,13)" rx="2" ry="2" />
<text  x="1094.15" y="111.5" ></text>
</g>
<g >
<title>LWLockRelease (24,754,814 samples, 0.09%)</title><rect x="1155.6" y="213" width="1.0" height="15.0" fill="rgb(217,58,13)" rx="2" ry="2" />
<text  x="1158.56" y="223.5" ></text>
</g>
<g >
<title>task_tick_fair (2,750,427 samples, 0.01%)</title><rect x="959.9" y="101" width="0.1" height="15.0" fill="rgb(217,57,13)" rx="2" ry="2" />
<text  x="962.85" y="111.5" ></text>
</g>
<g >
<title>LWLockRelease (8,250,800 samples, 0.03%)</title><rect x="1133.9" y="229" width="0.3" height="15.0" fill="rgb(217,58,13)" rx="2" ry="2" />
<text  x="1136.89" y="239.5" ></text>
</g>
<g >
<title>scheduler_tick (2,750,824 samples, 0.01%)</title><rect x="1091.1" y="117" width="0.2" height="15.0" fill="rgb(246,190,45)" rx="2" ry="2" />
<text  x="1094.15" y="127.5" ></text>
</g>
<g >
<title>MemoryContextReset (71,503,904 samples, 0.26%)</title><rect x="1185.8" y="309" width="3.0" height="15.0" fill="rgb(210,26,6)" rx="2" ry="2" />
<text  x="1188.82" y="319.5" ></text>
</g>
<g >
<title>LWLockAttemptLock (19,252,976 samples, 0.07%)</title><rect x="1128.9" y="229" width="0.8" height="15.0" fill="rgb(235,138,33)" rx="2" ry="2" />
<text  x="1131.89" y="239.5" ></text>
</g>
<g >
<title>x86_pmu_disable (2,751,169 samples, 0.01%)</title><rect x="262.8" y="69" width="0.1" height="15.0" fill="rgb(239,160,38)" rx="2" ry="2" />
<text  x="265.80" y="79.5" ></text>
</g>
<g >
<title>GetPrivateRefCountEntry (13,751,433 samples, 0.05%)</title><rect x="1161.7" y="197" width="0.6" height="15.0" fill="rgb(250,209,50)" rx="2" ry="2" />
<text  x="1164.72" y="207.5" ></text>
</g>
<g >
<title>update_process_times (2,750,619 samples, 0.01%)</title><rect x="1042.6" y="165" width="0.1" height="15.0" fill="rgb(250,209,50)" rx="2" ry="2" />
<text  x="1045.59" y="175.5" ></text>
</g>
<g >
<title>heap_getnextslot (2,860,091,959 samples, 10.23%)</title><rect x="1042.8" y="277" width="120.8" height="15.0" fill="rgb(213,40,9)" rx="2" ry="2" />
<text  x="1045.82" y="287.5" >heap_getnextslot</text>
</g>
<g >
<title>native_apic_msr_eoi_write (2,750,585 samples, 0.01%)</title><rect x="960.2" y="213" width="0.1" height="15.0" fill="rgb(244,183,43)" rx="2" ry="2" />
<text  x="963.20" y="223.5" ></text>
</g>
<g >
<title>GetPrivateRefCountEntry (2,750,635 samples, 0.01%)</title><rect x="1090.3" y="229" width="0.2" height="15.0" fill="rgb(250,209,50)" rx="2" ry="2" />
<text  x="1093.33" y="239.5" ></text>
</g>
<g >
<title>account_user_time (2,750,619 samples, 0.01%)</title><rect x="1042.6" y="133" width="0.1" height="15.0" fill="rgb(225,96,23)" rx="2" ry="2" />
<text  x="1045.59" y="143.5" ></text>
</g>
<g >
<title>BufferGetBlockNumber (35,755,432 samples, 0.13%)</title><rect x="1047.3" y="261" width="1.5" height="15.0" fill="rgb(206,7,1)" rx="2" ry="2" />
<text  x="1050.25" y="271.5" ></text>
</g>
<g >
<title>__hrtimer_run_queues (2,750,705 samples, 0.01%)</title><rect x="96.5" y="197" width="0.2" height="15.0" fill="rgb(237,150,35)" rx="2" ry="2" />
<text  x="99.55" y="207.5" ></text>
</g>
<g >
<title>tts_buffer_heap_getsomeattrs (804,109,636 samples, 2.88%)</title><rect x="964.3" y="261" width="33.9" height="15.0" fill="rgb(222,81,19)" rx="2" ry="2" />
<text  x="967.27" y="271.5" >tt..</text>
</g>
<g >
<title>perf_event_task_tick (5,501,616 samples, 0.02%)</title><rect x="262.7" y="101" width="0.2" height="15.0" fill="rgb(205,3,0)" rx="2" ry="2" />
<text  x="265.69" y="111.5" ></text>
</g>
<g >
<title>main (27,947,770,808 samples, 100.00%)</title><rect x="10.0" y="469" width="1180.0" height="15.0" fill="rgb(243,179,42)" rx="2" ry="2" />
<text  x="13.00" y="479.5" >main</text>
</g>
<g >
<title>ExecInterpExpr (19,252,381 samples, 0.07%)</title><rect x="10.0" y="309" width="0.8" height="15.0" fill="rgb(225,96,22)" rx="2" ry="2" />
<text  x="13.00" y="319.5" ></text>
</g>
<g >
<title>UnpinBufferNoOwner (11,001,567 samples, 0.04%)</title><rect x="1122.5" y="245" width="0.5" height="15.0" fill="rgb(253,221,53)" rx="2" ry="2" />
<text  x="1125.51" y="255.5" ></text>
</g>
<g >
<title>__hrtimer_run_queues (8,251,796 samples, 0.03%)</title><rect x="959.6" y="181" width="0.4" height="15.0" fill="rgb(237,150,35)" rx="2" ry="2" />
<text  x="962.62" y="191.5" ></text>
</g>
<g >
<title>native_read_msr (2,750,664 samples, 0.01%)</title><rect x="959.7" y="85" width="0.2" height="15.0" fill="rgb(211,30,7)" rx="2" ry="2" />
<text  x="962.74" y="95.5" ></text>
</g>
<g >
<title>ResourceOwnerRemember (5,501,222 samples, 0.02%)</title><rect x="1091.5" y="261" width="0.2" height="15.0" fill="rgb(243,178,42)" rx="2" ry="2" />
<text  x="1094.50" y="271.5" ></text>
</g>
<g >
<title>enqueue_hrtimer (2,750,705 samples, 0.01%)</title><rect x="96.5" y="181" width="0.2" height="15.0" fill="rgb(211,29,7)" rx="2" ry="2" />
<text  x="99.55" y="191.5" ></text>
</g>
<g >
<title>PortalRun (27,947,770,808 samples, 100.00%)</title><rect x="10.0" y="357" width="1180.0" height="15.0" fill="rgb(223,85,20)" rx="2" ry="2" />
<text  x="13.00" y="367.5" >PortalRun</text>
</g>
<g >
<title>StartReadBuffer (667,382,824 samples, 2.39%)</title><rect x="1134.4" y="229" width="28.1" height="15.0" fill="rgb(222,78,18)" rx="2" ry="2" />
<text  x="1137.35" y="239.5" >S..</text>
</g>
<g >
<title>pg_mbstrlen_with_len (3,937,760,984 samples, 14.09%)</title><rect x="96.7" y="261" width="166.2" height="15.0" fill="rgb(228,106,25)" rx="2" ry="2" />
<text  x="99.66" y="271.5" >pg_mbstrlen_with_len</text>
</g>
<g >
<title>perf_adjust_freq_unthr_context (2,751,169 samples, 0.01%)</title><rect x="262.8" y="85" width="0.1" height="15.0" fill="rgb(236,146,35)" rx="2" ry="2" />
<text  x="265.80" y="95.5" ></text>
</g>
<g >
<title>ExecScanFetch (261,292,177 samples, 0.93%)</title><rect x="998.2" y="293" width="11.1" height="15.0" fill="rgb(222,80,19)" rx="2" ry="2" />
<text  x="1001.22" y="303.5" ></text>
</g>
<g >
<title>reweight_entity (2,750,427 samples, 0.01%)</title><rect x="959.9" y="69" width="0.1" height="15.0" fill="rgb(253,222,53)" rx="2" ry="2" />
<text  x="962.85" y="79.5" ></text>
</g>
<g >
<title>hrtimer_interrupt (2,750,705 samples, 0.01%)</title><rect x="96.5" y="213" width="0.2" height="15.0" fill="rgb(228,109,26)" rx="2" ry="2" />
<text  x="99.55" y="223.5" ></text>
</g>
<g >
<title>__sysvec_apic_timer_interrupt (2,750,619 samples, 0.01%)</title><rect x="1042.6" y="245" width="0.1" height="15.0" fill="rgb(242,173,41)" rx="2" ry="2" />
<text  x="1045.59" y="255.5" ></text>
</g>
<g >
<title>pg_utf_mblen_private (16,517,581,864 samples, 59.10%)</title><rect x="262.9" y="261" width="697.4" height="15.0" fill="rgb(242,173,41)" rx="2" ry="2" />
<text  x="265.92" y="271.5" >pg_utf_mblen_private</text>
</g>
<g >
<title>hrtimer_interrupt (5,501,616 samples, 0.02%)</title><rect x="262.7" y="197" width="0.2" height="15.0" fill="rgb(228,109,26)" rx="2" ry="2" />
<text  x="265.69" y="207.5" ></text>
</g>
<g >
<title>amd_pmu_disable_all (2,751,169 samples, 0.01%)</title><rect x="262.8" y="53" width="0.1" height="15.0" fill="rgb(213,38,9)" rx="2" ry="2" />
<text  x="265.80" y="63.5" ></text>
</g>
<g >
<title>postmaster_child_launch (27,947,770,808 samples, 100.00%)</title><rect x="10.0" y="421" width="1180.0" height="15.0" fill="rgb(206,5,1)" rx="2" ry="2" />
<text  x="13.00" y="431.5" >postmaster_child_launch</text>
</g>
<g >
<title>sysvec_apic_timer_interrupt (2,750,705 samples, 0.01%)</title><rect x="96.5" y="245" width="0.2" height="15.0" fill="rgb(220,69,16)" rx="2" ry="2" />
<text  x="99.55" y="255.5" ></text>
</g>
<g >
<title>native_write_msr (2,751,169 samples, 0.01%)</title><rect x="262.8" y="37" width="0.1" height="15.0" fill="rgb(237,151,36)" rx="2" ry="2" />
<text  x="265.80" y="47.5" ></text>
</g>
<g >
<title>slot_getsomeattrs_int (831,613,977 samples, 2.98%)</title><rect x="963.1" y="277" width="35.1" height="15.0" fill="rgb(252,219,52)" rx="2" ry="2" />
<text  x="966.11" y="287.5" >sl..</text>
</g>
<g >
<title>tick_sched_timer (5,501,091 samples, 0.02%)</title><rect x="959.7" y="165" width="0.3" height="15.0" fill="rgb(254,227,54)" rx="2" ry="2" />
<text  x="962.74" y="175.5" ></text>
</g>
<g >
<title>tick_sched_handle (5,501,616 samples, 0.02%)</title><rect x="262.7" y="149" width="0.2" height="15.0" fill="rgb(219,68,16)" rx="2" ry="2" />
<text  x="265.69" y="159.5" ></text>
</g>
<g >
<title>MemoryContextReset (165,025,758 samples, 0.59%)</title><rect x="1009.3" y="293" width="6.9" height="15.0" fill="rgb(210,26,6)" rx="2" ry="2" />
<text  x="1012.25" y="303.5" ></text>
</g>
<g >
<title>sysvec_apic_timer_interrupt (5,501,616 samples, 0.02%)</title><rect x="262.7" y="229" width="0.2" height="15.0" fill="rgb(220,69,16)" rx="2" ry="2" />
<text  x="265.69" y="239.5" ></text>
</g>
<g >
<title>IncrBufferRefCount (11,002,189 samples, 0.04%)</title><rect x="1090.1" y="245" width="0.5" height="15.0" fill="rgb(209,22,5)" rx="2" ry="2" />
<text  x="1093.10" y="255.5" ></text>
</g>
<g >
<title>PortalRunSelect (27,947,770,808 samples, 100.00%)</title><rect x="10.0" y="341" width="1180.0" height="15.0" fill="rgb(245,188,45)" rx="2" ry="2" />
<text  x="13.00" y="351.5" >PortalRunSelect</text>
</g>
<g >
<title>__sysvec_apic_timer_interrupt (5,501,616 samples, 0.02%)</title><rect x="262.7" y="213" width="0.2" height="15.0" fill="rgb(242,173,41)" rx="2" ry="2" />
<text  x="265.69" y="223.5" ></text>
</g>
<g >
<title>update_cfs_group (2,750,427 samples, 0.01%)</title><rect x="959.9" y="85" width="0.1" height="15.0" fill="rgb(242,174,41)" rx="2" ry="2" />
<text  x="962.85" y="95.5" ></text>
</g>
<g >
<title>tick_sched_timer (2,750,824 samples, 0.01%)</title><rect x="1091.1" y="165" width="0.2" height="15.0" fill="rgb(254,227,54)" rx="2" ry="2" />
<text  x="1094.15" y="175.5" ></text>
</g>
</g>
</svg>
