<?xml version="1.0" standalone="no"?>
<!DOCTYPE svg PUBLIC "-//W3C//DTD SVG 1.1//EN" "http://www.w3.org/Graphics/SVG/1.1/DTD/svg11.dtd">
<svg version="1.1" width="1200" height="582" onload="init(evt)" viewBox="0 0 1200 582" xmlns="http://www.w3.org/2000/svg" xmlns:xlink="http://www.w3.org/1999/xlink">
<!-- Flame graph stack visualization. See https://github.com/brendangregg/FlameGraph for latest version, and http://www.brendangregg.com/flamegraphs.html for examples. -->
<!-- NOTES:  -->
<defs>
	<linearGradient id="background" y1="0" y2="1" x1="0" x2="0" >
		<stop stop-color="#eeeeee" offset="5%" />
		<stop stop-color="#eeeeb0" offset="95%" />
	</linearGradient>
</defs>
<style type="text/css">
	text { font-family:Verdana; font-size:12px; fill:rgb(0,0,0); }
	#search, #ignorecase { opacity:0.1; cursor:pointer; }
	#search:hover, #search.show, #ignorecase:hover, #ignorecase.show { opacity:1; }
	#subtitle { text-anchor:middle; font-color:rgb(160,160,160); }
	#title { text-anchor:middle; font-size:17px}
	#unzoom { cursor:pointer; }
	#frames > *:hover { stroke:black; stroke-width:0.5; cursor:pointer; }
	.hide { display:none; }
	.parent { opacity:0.5; }
</style>
<script type="text/ecmascript">
<![CDATA[
	"use strict";
	var details, searchbtn, unzoombtn, matchedtxt, svg, searching, currentSearchTerm, ignorecase, ignorecaseBtn;
	function init(evt) {
		details = document.getElementById("details").firstChild;
		searchbtn = document.getElementById("search");
		ignorecaseBtn = document.getElementById("ignorecase");
		unzoombtn = document.getElementById("unzoom");
		matchedtxt = document.getElementById("matched");
		svg = document.getElementsByTagName("svg")[0];
		searching = 0;
		currentSearchTerm = null;

		// use GET parameters to restore a flamegraphs state.
		var params = get_params();
		if (params.x && params.y)
			zoom(find_group(document.querySelector('[x="' + params.x + '"][y="' + params.y + '"]')));
                if (params.s) search(params.s);
	}

	// event listeners
	window.addEventListener("click", function(e) {
		var target = find_group(e.target);
		if (target) {
			if (target.nodeName == "a") {
				if (e.ctrlKey === false) return;
				e.preventDefault();
			}
			if (target.classList.contains("parent")) unzoom(true);
			zoom(target);
			if (!document.querySelector('.parent')) {
				// we have basically done a clearzoom so clear the url
				var params = get_params();
				if (params.x) delete params.x;
				if (params.y) delete params.y;
				history.replaceState(null, null, parse_params(params));
				unzoombtn.classList.add("hide");
				return;
			}

			// set parameters for zoom state
			var el = target.querySelector("rect");
			if (el && el.attributes && el.attributes.y && el.attributes._orig_x) {
				var params = get_params()
				params.x = el.attributes._orig_x.value;
				params.y = el.attributes.y.value;
				history.replaceState(null, null, parse_params(params));
			}
		}
		else if (e.target.id == "unzoom") clearzoom();
		else if (e.target.id == "search") search_prompt();
		else if (e.target.id == "ignorecase") toggle_ignorecase();
	}, false)

	// mouse-over for info
	// show
	window.addEventListener("mouseover", function(e) {
		var target = find_group(e.target);
		if (target) details.nodeValue = "Function: " + g_to_text(target);
	}, false)

	// clear
	window.addEventListener("mouseout", function(e) {
		var target = find_group(e.target);
		if (target) details.nodeValue = ' ';
	}, false)

	// ctrl-F for search
	// ctrl-I to toggle case-sensitive search
	window.addEventListener("keydown",function (e) {
		if (e.keyCode === 114 || (e.ctrlKey && e.keyCode === 70)) {
			e.preventDefault();
			search_prompt();
		}
		else if (e.ctrlKey && e.keyCode === 73) {
			e.preventDefault();
			toggle_ignorecase();
		}
	}, false)

	// functions
	function get_params() {
		var params = {};
		var paramsarr = window.location.search.substr(1).split('&');
		for (var i = 0; i < paramsarr.length; ++i) {
			var tmp = paramsarr[i].split("=");
			if (!tmp[0] || !tmp[1]) continue;
			params[tmp[0]]  = decodeURIComponent(tmp[1]);
		}
		return params;
	}
	function parse_params(params) {
		var uri = "?";
		for (var key in params) {
			uri += key + '=' + encodeURIComponent(params[key]) + '&';
		}
		if (uri.slice(-1) == "&")
			uri = uri.substring(0, uri.length - 1);
		if (uri == '?')
			uri = window.location.href.split('?')[0];
		return uri;
	}
	function find_child(node, selector) {
		var children = node.querySelectorAll(selector);
		if (children.length) return children[0];
	}
	function find_group(node) {
		var parent = node.parentElement;
		if (!parent) return;
		if (parent.id == "frames") return node;
		return find_group(parent);
	}
	function orig_save(e, attr, val) {
		if (e.attributes["_orig_" + attr] != undefined) return;
		if (e.attributes[attr] == undefined) return;
		if (val == undefined) val = e.attributes[attr].value;
		e.setAttribute("_orig_" + attr, val);
	}
	function orig_load(e, attr) {
		if (e.attributes["_orig_"+attr] == undefined) return;
		e.attributes[attr].value = e.attributes["_orig_" + attr].value;
		e.removeAttribute("_orig_"+attr);
	}
	function g_to_text(e) {
		var text = find_child(e, "title").firstChild.nodeValue;
		return (text)
	}
	function g_to_func(e) {
		var func = g_to_text(e);
		// if there's any manipulation we want to do to the function
		// name before it's searched, do it here before returning.
		return (func);
	}
	function update_text(e) {
		var r = find_child(e, "rect");
		var t = find_child(e, "text");
		var w = parseFloat(r.attributes.width.value) -3;
		var txt = find_child(e, "title").textContent.replace(/\([^(]*\)$/,"");
		t.attributes.x.value = parseFloat(r.attributes.x.value) + 3;

		// Smaller than this size won't fit anything
		if (w < 2 * 12 * 0.59) {
			t.textContent = "";
			return;
		}

		t.textContent = txt;
		var sl = t.getSubStringLength(0, txt.length);
		// check if only whitespace or if we can fit the entire string into width w
		if (/^ *$/.test(txt) || sl < w)
			return;

		// this isn't perfect, but gives a good starting point
		// and avoids calling getSubStringLength too often
		var start = Math.floor((w/sl) * txt.length);
		for (var x = start; x > 0; x = x-2) {
			if (t.getSubStringLength(0, x + 2) <= w) {
				t.textContent = txt.substring(0, x) + "..";
				return;
			}
		}
		t.textContent = "";
	}

	// zoom
	function zoom_reset(e) {
		if (e.attributes != undefined) {
			orig_load(e, "x");
			orig_load(e, "width");
		}
		if (e.childNodes == undefined) return;
		for (var i = 0, c = e.childNodes; i < c.length; i++) {
			zoom_reset(c[i]);
		}
	}
	function zoom_child(e, x, ratio) {
		if (e.attributes != undefined) {
			if (e.attributes.x != undefined) {
				orig_save(e, "x");
				e.attributes.x.value = (parseFloat(e.attributes.x.value) - x - 10) * ratio + 10;
				if (e.tagName == "text")
					e.attributes.x.value = find_child(e.parentNode, "rect[x]").attributes.x.value + 3;
			}
			if (e.attributes.width != undefined) {
				orig_save(e, "width");
				e.attributes.width.value = parseFloat(e.attributes.width.value) * ratio;
			}
		}

		if (e.childNodes == undefined) return;
		for (var i = 0, c = e.childNodes; i < c.length; i++) {
			zoom_child(c[i], x - 10, ratio);
		}
	}
	function zoom_parent(e) {
		if (e.attributes) {
			if (e.attributes.x != undefined) {
				orig_save(e, "x");
				e.attributes.x.value = 10;
			}
			if (e.attributes.width != undefined) {
				orig_save(e, "width");
				e.attributes.width.value = parseInt(svg.width.baseVal.value) - (10 * 2);
			}
		}
		if (e.childNodes == undefined) return;
		for (var i = 0, c = e.childNodes; i < c.length; i++) {
			zoom_parent(c[i]);
		}
	}
	function zoom(node) {
		var attr = find_child(node, "rect").attributes;
		var width = parseFloat(attr.width.value);
		var xmin = parseFloat(attr.x.value);
		var xmax = parseFloat(xmin + width);
		var ymin = parseFloat(attr.y.value);
		var ratio = (svg.width.baseVal.value - 2 * 10) / width;

		// XXX: Workaround for JavaScript float issues (fix me)
		var fudge = 0.0001;

		unzoombtn.classList.remove("hide");

		var el = document.getElementById("frames").children;
		for (var i = 0; i < el.length; i++) {
			var e = el[i];
			var a = find_child(e, "rect").attributes;
			var ex = parseFloat(a.x.value);
			var ew = parseFloat(a.width.value);
			var upstack;
			// Is it an ancestor
			if (0 == 0) {
				upstack = parseFloat(a.y.value) > ymin;
			} else {
				upstack = parseFloat(a.y.value) < ymin;
			}
			if (upstack) {
				// Direct ancestor
				if (ex <= xmin && (ex+ew+fudge) >= xmax) {
					e.classList.add("parent");
					zoom_parent(e);
					update_text(e);
				}
				// not in current path
				else
					e.classList.add("hide");
			}
			// Children maybe
			else {
				// no common path
				if (ex < xmin || ex + fudge >= xmax) {
					e.classList.add("hide");
				}
				else {
					zoom_child(e, xmin, ratio);
					update_text(e);
				}
			}
		}
		search();
	}
	function unzoom(dont_update_text) {
		unzoombtn.classList.add("hide");
		var el = document.getElementById("frames").children;
		for(var i = 0; i < el.length; i++) {
			el[i].classList.remove("parent");
			el[i].classList.remove("hide");
			zoom_reset(el[i]);
			if(!dont_update_text) update_text(el[i]);
		}
		search();
	}
	function clearzoom() {
		unzoom();

		// remove zoom state
		var params = get_params();
		if (params.x) delete params.x;
		if (params.y) delete params.y;
		history.replaceState(null, null, parse_params(params));
	}

	// search
	function toggle_ignorecase() {
		ignorecase = !ignorecase;
		if (ignorecase) {
			ignorecaseBtn.classList.add("show");
		} else {
			ignorecaseBtn.classList.remove("show");
		}
		reset_search();
		search();
	}
	function reset_search() {
		var el = document.querySelectorAll("#frames rect");
		for (var i = 0; i < el.length; i++) {
			orig_load(el[i], "fill")
		}
		var params = get_params();
		delete params.s;
		history.replaceState(null, null, parse_params(params));
	}
	function search_prompt() {
		if (!searching) {
			var term = prompt("Enter a search term (regexp " +
			    "allowed, eg: ^ext4_)"
			    + (ignorecase ? ", ignoring case" : "")
			    + "\nPress Ctrl-i to toggle case sensitivity", "");
			if (term != null) search(term);
		} else {
			reset_search();
			searching = 0;
			currentSearchTerm = null;
			searchbtn.classList.remove("show");
			searchbtn.firstChild.nodeValue = "Search"
			matchedtxt.classList.add("hide");
			matchedtxt.firstChild.nodeValue = ""
		}
	}
	function search(term) {
		if (term) currentSearchTerm = term;

		var re = new RegExp(currentSearchTerm, ignorecase ? 'i' : '');
		var el = document.getElementById("frames").children;
		var matches = new Object();
		var maxwidth = 0;
		for (var i = 0; i < el.length; i++) {
			var e = el[i];
			var func = g_to_func(e);
			var rect = find_child(e, "rect");
			if (func == null || rect == null)
				continue;

			// Save max width. Only works as we have a root frame
			var w = parseFloat(rect.attributes.width.value);
			if (w > maxwidth)
				maxwidth = w;

			if (func.match(re)) {
				// highlight
				var x = parseFloat(rect.attributes.x.value);
				orig_save(rect, "fill");
				rect.attributes.fill.value = "rgb(230,0,230)";

				// remember matches
				if (matches[x] == undefined) {
					matches[x] = w;
				} else {
					if (w > matches[x]) {
						// overwrite with parent
						matches[x] = w;
					}
				}
				searching = 1;
			}
		}
		if (!searching)
			return;
		var params = get_params();
		params.s = currentSearchTerm;
		history.replaceState(null, null, parse_params(params));

		searchbtn.classList.add("show");
		searchbtn.firstChild.nodeValue = "Reset Search";

		// calculate percent matched, excluding vertical overlap
		var count = 0;
		var lastx = -1;
		var lastw = 0;
		var keys = Array();
		for (k in matches) {
			if (matches.hasOwnProperty(k))
				keys.push(k);
		}
		// sort the matched frames by their x location
		// ascending, then width descending
		keys.sort(function(a, b){
			return a - b;
		});
		// Step through frames saving only the biggest bottom-up frames
		// thanks to the sort order. This relies on the tree property
		// where children are always smaller than their parents.
		var fudge = 0.0001;	// JavaScript floating point
		for (var k in keys) {
			var x = parseFloat(keys[k]);
			var w = matches[keys[k]];
			if (x >= lastx + lastw - fudge) {
				count += w;
				lastx = x;
				lastw = w;
			}
		}
		// display matched percent
		matchedtxt.classList.remove("hide");
		var pct = 100 * count / maxwidth;
		if (pct != 100) pct = pct.toFixed(1)
		matchedtxt.firstChild.nodeValue = "Matched: " + pct + "%";
	}
]]>
</script>
<rect x="0.0" y="0" width="1200.0" height="582.0" fill="url(#background)"  />
<text id="title" x="600.00" y="24" >Flame Graph</text>
<text id="details" x="10.00" y="565" > </text>
<text id="unzoom" x="10.00" y="24" class="hide">Reset Zoom</text>
<text id="search" x="1090.00" y="24" >Search</text>
<text id="ignorecase" x="1174.00" y="24" >ic</text>
<text id="matched" x="1090.00" y="565" > </text>
<g id="frames">
<g >
<title>LWLockAcquire (5,501,573 samples, 0.02%)</title><rect x="1151.2" y="229" width="0.3" height="15.0" fill="rgb(209,20,4)" rx="2" ry="2" />
<text  x="1154.23" y="239.5" ></text>
</g>
<g >
<title>postgres (27,485,788,699 samples, 100.00%)</title><rect x="10.0" y="517" width="1180.0" height="15.0" fill="rgb(233,131,31)" rx="2" ry="2" />
<text  x="13.00" y="527.5" >postgres</text>
</g>
<g >
<title>update_process_times (2,750,665 samples, 0.01%)</title><rect x="81.0" y="181" width="0.1" height="15.0" fill="rgb(250,209,50)" rx="2" ry="2" />
<text  x="84.00" y="191.5" ></text>
</g>
<g >
<title>__hrtimer_run_queues (2,750,665 samples, 0.01%)</title><rect x="81.0" y="229" width="0.1" height="15.0" fill="rgb(237,150,35)" rx="2" ry="2" />
<text  x="84.00" y="239.5" ></text>
</g>
<g >
<title>LWLockRelease (57,172,106 samples, 0.21%)</title><rect x="1125.2" y="261" width="2.4" height="15.0" fill="rgb(217,58,13)" rx="2" ry="2" />
<text  x="1128.15" y="271.5" ></text>
</g>
<g >
<title>tick_do_update_jiffies64 (5,501,339 samples, 0.02%)</title><rect x="995.2" y="149" width="0.3" height="15.0" fill="rgb(208,14,3)" rx="2" ry="2" />
<text  x="998.24" y="159.5" ></text>
</g>
<g >
<title>heapgettup_pagemode (1,854,446,225 samples, 6.75%)</title><rect x="1090.1" y="277" width="79.6" height="15.0" fill="rgb(242,170,40)" rx="2" ry="2" />
<text  x="1093.08" y="287.5" >heapgettu..</text>
</g>
<g >
<title>LWLockRelease (138,416,168 samples, 0.50%)</title><rect x="1153.4" y="229" width="5.9" height="15.0" fill="rgb(217,58,13)" rx="2" ry="2" />
<text  x="1156.36" y="239.5" ></text>
</g>
<g >
<title>StartReadBuffer (13,753,194 samples, 0.05%)</title><rect x="1128.4" y="261" width="0.6" height="15.0" fill="rgb(222,78,18)" rx="2" ry="2" />
<text  x="1131.44" y="271.5" ></text>
</g>
<g >
<title>ExecInterpExpr (23,441,621,257 samples, 85.29%)</title><rect x="14.5" y="309" width="1006.4" height="15.0" fill="rgb(225,96,22)" rx="2" ry="2" />
<text  x="17.49" y="319.5" >ExecInterpExpr</text>
</g>
<g >
<title>hrtimer_interrupt (2,750,665 samples, 0.01%)</title><rect x="81.0" y="245" width="0.1" height="15.0" fill="rgb(228,109,26)" rx="2" ry="2" />
<text  x="84.00" y="255.5" ></text>
</g>
<g >
<title>tick_sched_timer (2,750,665 samples, 0.01%)</title><rect x="81.0" y="213" width="0.1" height="15.0" fill="rgb(254,227,54)" rx="2" ry="2" />
<text  x="84.00" y="223.5" ></text>
</g>
<g >
<title>ResourceOwnerEnlarge (2,749,865 samples, 0.01%)</title><rect x="1088.0" y="261" width="0.1" height="15.0" fill="rgb(223,86,20)" rx="2" ry="2" />
<text  x="1090.95" y="271.5" ></text>
</g>
<g >
<title>tick_sched_handle (5,502,182 samples, 0.02%)</title><rect x="355.8" y="165" width="0.3" height="15.0" fill="rgb(219,68,16)" rx="2" ry="2" />
<text  x="358.85" y="175.5" ></text>
</g>
<g >
<title>GetPrivateRefCountEntry (5,500,769 samples, 0.02%)</title><rect x="1087.7" y="245" width="0.3" height="15.0" fill="rgb(250,209,50)" rx="2" ry="2" />
<text  x="1090.72" y="255.5" ></text>
</g>
<g >
<title>_raw_spin_lock_irq (2,750,964 samples, 0.01%)</title><rect x="356.1" y="165" width="0.1" height="15.0" fill="rgb(231,122,29)" rx="2" ry="2" />
<text  x="359.09" y="175.5" ></text>
</g>
<g >
<title>__sysvec_apic_timer_interrupt (2,750,800 samples, 0.01%)</title><rect x="1186.5" y="261" width="0.1" height="15.0" fill="rgb(242,173,41)" rx="2" ry="2" />
<text  x="1189.46" y="271.5" ></text>
</g>
<g >
<title>GetPrivateRefCountEntry (24,979,250 samples, 0.09%)</title><rect x="1129.5" y="245" width="1.1" height="15.0" fill="rgb(250,209,50)" rx="2" ry="2" />
<text  x="1132.50" y="255.5" ></text>
</g>
<g >
<title>sysvec_apic_timer_interrupt (13,753,499 samples, 0.05%)</title><rect x="995.1" y="245" width="0.6" height="15.0" fill="rgb(220,69,16)" rx="2" ry="2" />
<text  x="998.13" y="255.5" ></text>
</g>
<g >
<title>scheduler_tick (2,750,665 samples, 0.01%)</title><rect x="81.0" y="165" width="0.1" height="15.0" fill="rgb(246,190,45)" rx="2" ry="2" />
<text  x="84.00" y="175.5" ></text>
</g>
<g >
<title>CommitTransactionCommand (2,750,610 samples, 0.01%)</title><rect x="10.0" y="373" width="0.1" height="15.0" fill="rgb(205,4,1)" rx="2" ry="2" />
<text  x="13.00" y="383.5" ></text>
</g>
<g >
<title>sync_regs (2,750,007 samples, 0.01%)</title><rect x="1020.5" y="293" width="0.1" height="15.0" fill="rgb(228,106,25)" rx="2" ry="2" />
<text  x="1023.51" y="303.5" ></text>
</g>
<g >
<title>ExecScanFetch (57,753,282 samples, 0.21%)</title><rect x="1020.9" y="309" width="2.4" height="15.0" fill="rgb(222,80,19)" rx="2" ry="2" />
<text  x="1023.87" y="319.5" ></text>
</g>
<g >
<title>sysvec_apic_timer_interrupt (2,750,800 samples, 0.01%)</title><rect x="1186.5" y="277" width="0.1" height="15.0" fill="rgb(220,69,16)" rx="2" ry="2" />
<text  x="1189.46" y="287.5" ></text>
</g>
<g >
<title>GetPrivateRefCountEntry (2,750,746 samples, 0.01%)</title><rect x="1125.0" y="261" width="0.2" height="15.0" fill="rgb(250,209,50)" rx="2" ry="2" />
<text  x="1128.04" y="271.5" ></text>
</g>
<g >
<title>hrtimer_interrupt (13,753,499 samples, 0.05%)</title><rect x="995.1" y="213" width="0.6" height="15.0" fill="rgb(228,109,26)" rx="2" ry="2" />
<text  x="998.13" y="223.5" ></text>
</g>
<g >
<title>heap_prepare_pagescan (57,748,839 samples, 0.21%)</title><rect x="1130.6" y="261" width="2.4" height="15.0" fill="rgb(222,82,19)" rx="2" ry="2" />
<text  x="1133.57" y="271.5" ></text>
</g>
<g >
<title>tick_sched_timer (2,750,800 samples, 0.01%)</title><rect x="1186.5" y="213" width="0.1" height="15.0" fill="rgb(254,227,54)" rx="2" ry="2" />
<text  x="1189.46" y="223.5" ></text>
</g>
<g >
<title>task_tick_fair (2,750,814 samples, 0.01%)</title><rect x="995.6" y="117" width="0.1" height="15.0" fill="rgb(217,57,13)" rx="2" ry="2" />
<text  x="998.60" y="127.5" ></text>
</g>
<g >
<title>PortalRun (27,483,038,089 samples, 99.99%)</title><rect x="10.1" y="373" width="1179.9" height="15.0" fill="rgb(223,85,20)" rx="2" ry="2" />
<text  x="13.12" y="383.5" >PortalRun</text>
</g>
<g >
<title>asm_sysvec_apic_timer_interrupt (2,750,800 samples, 0.01%)</title><rect x="1186.5" y="293" width="0.1" height="15.0" fill="rgb(232,127,30)" rx="2" ry="2" />
<text  x="1189.46" y="303.5" ></text>
</g>
<g >
<title>update_process_times (2,750,814 samples, 0.01%)</title><rect x="995.6" y="149" width="0.1" height="15.0" fill="rgb(250,209,50)" rx="2" ry="2" />
<text  x="998.60" y="159.5" ></text>
</g>
<g >
<title>tick_sched_timer (5,502,182 samples, 0.02%)</title><rect x="355.8" y="181" width="0.3" height="15.0" fill="rgb(254,227,54)" rx="2" ry="2" />
<text  x="358.85" y="191.5" ></text>
</g>
<g >
<title>run_timer_softirq (2,750,964 samples, 0.01%)</title><rect x="356.1" y="197" width="0.1" height="15.0" fill="rgb(249,206,49)" rx="2" ry="2" />
<text  x="359.09" y="207.5" ></text>
</g>
<g >
<title>LWLockAttemptLock (27,504,609 samples, 0.10%)</title><rect x="1131.8" y="245" width="1.1" height="15.0" fill="rgb(235,138,33)" rx="2" ry="2" />
<text  x="1134.75" y="255.5" ></text>
</g>
<g >
<title>x86_pmu_disable_all (2,751,321 samples, 0.01%)</title><rect x="356.0" y="53" width="0.1" height="15.0" fill="rgb(254,227,54)" rx="2" ry="2" />
<text  x="358.97" y="63.5" ></text>
</g>
<g >
<title>pg_utf_mblen_private (14,896,214,466 samples, 54.20%)</title><rect x="356.2" y="277" width="639.5" height="15.0" fill="rgb(242,173,41)" rx="2" ry="2" />
<text  x="359.20" y="287.5" >pg_utf_mblen_private</text>
</g>
<g >
<title>__memcmp_evex_movbe (2,750,929 samples, 0.01%)</title><rect x="1140.5" y="213" width="0.1" height="15.0" fill="rgb(219,67,16)" rx="2" ry="2" />
<text  x="1143.49" y="223.5" ></text>
</g>
<g >
<title>ResourceOwnerReleaseInternal (2,750,610 samples, 0.01%)</title><rect x="10.0" y="325" width="0.1" height="15.0" fill="rgb(249,203,48)" rx="2" ry="2" />
<text  x="13.00" y="335.5" ></text>
</g>
<g >
<title>ExecStoreBufferHeapTuple (8,251,084 samples, 0.03%)</title><rect x="1034.7" y="293" width="0.3" height="15.0" fill="rgb(230,117,28)" rx="2" ry="2" />
<text  x="1037.68" y="303.5" ></text>
</g>
<g >
<title>[postgres] (27,485,788,699 samples, 100.00%)</title><rect x="10.0" y="421" width="1180.0" height="15.0" fill="rgb(245,184,44)" rx="2" ry="2" />
<text  x="13.00" y="431.5" >[postgres]</text>
</g>
<g >
<title>slot_getsomeattrs_int (27,504,176 samples, 0.10%)</title><rect x="1186.6" y="309" width="1.2" height="15.0" fill="rgb(252,219,52)" rx="2" ry="2" />
<text  x="1189.58" y="319.5" ></text>
</g>
<g >
<title>MemoryContextReset (33,005,966 samples, 0.12%)</title><rect x="1187.9" y="325" width="1.4" height="15.0" fill="rgb(210,26,6)" rx="2" ry="2" />
<text  x="1190.87" y="335.5" ></text>
</g>
<g >
<title>ResourceOwnerRemember (33,004,993 samples, 0.12%)</title><rect x="1166.6" y="229" width="1.4" height="15.0" fill="rgb(243,178,42)" rx="2" ry="2" />
<text  x="1169.62" y="239.5" ></text>
</g>
<g >
<title>sysvec_apic_timer_interrupt (2,750,665 samples, 0.01%)</title><rect x="81.0" y="277" width="0.1" height="15.0" fill="rgb(220,69,16)" rx="2" ry="2" />
<text  x="84.00" y="287.5" ></text>
</g>
<g >
<title>standard_ExecutorRun (27,483,038,089 samples, 99.99%)</title><rect x="10.1" y="341" width="1179.9" height="15.0" fill="rgb(247,196,47)" rx="2" ry="2" />
<text  x="13.12" y="351.5" >standard_ExecutorRun</text>
</g>
<g >
<title>update_wall_time (5,501,339 samples, 0.02%)</title><rect x="995.2" y="133" width="0.3" height="15.0" fill="rgb(207,11,2)" rx="2" ry="2" />
<text  x="998.24" y="143.5" ></text>
</g>
<g >
<title>scheduler_tick (2,750,800 samples, 0.01%)</title><rect x="1186.5" y="165" width="0.1" height="15.0" fill="rgb(246,190,45)" rx="2" ry="2" />
<text  x="1189.46" y="175.5" ></text>
</g>
<g >
<title>LWLockAttemptLock (44,006,735 samples, 0.16%)</title><rect x="1151.5" y="229" width="1.9" height="15.0" fill="rgb(235,138,33)" rx="2" ry="2" />
<text  x="1154.47" y="239.5" ></text>
</g>
<g >
<title>tick_sched_handle (2,750,800 samples, 0.01%)</title><rect x="1186.5" y="197" width="0.1" height="15.0" fill="rgb(219,68,16)" rx="2" ry="2" />
<text  x="1189.46" y="207.5" ></text>
</g>
<g >
<title>read_stream_next_buffer (2,750,147 samples, 0.01%)</title><rect x="1169.7" y="277" width="0.1" height="15.0" fill="rgb(216,50,12)" rx="2" ry="2" />
<text  x="1172.69" y="287.5" ></text>
</g>
<g >
<title>update_load_avg (2,750,814 samples, 0.01%)</title><rect x="995.6" y="101" width="0.1" height="15.0" fill="rgb(240,165,39)" rx="2" ry="2" />
<text  x="998.60" y="111.5" ></text>
</g>
<g >
<title>hrtimer_interrupt (2,750,738 samples, 0.01%)</title><rect x="10.7" y="261" width="0.1" height="15.0" fill="rgb(228,109,26)" rx="2" ry="2" />
<text  x="13.71" y="271.5" ></text>
</g>
<g >
<title>pg_database_encoding_max_length (49,498,568 samples, 0.18%)</title><rect x="995.7" y="293" width="2.1" height="15.0" fill="rgb(243,176,42)" rx="2" ry="2" />
<text  x="998.72" y="303.5" ></text>
</g>
<g >
<title>ResourceOwnerForget (5,501,174 samples, 0.02%)</title><rect x="1128.2" y="245" width="0.2" height="15.0" fill="rgb(235,142,33)" rx="2" ry="2" />
<text  x="1131.20" y="255.5" ></text>
</g>
<g >
<title>read_stream_next_buffer (853,494,000 samples, 3.11%)</title><rect x="1133.0" y="261" width="36.7" height="15.0" fill="rgb(216,50,12)" rx="2" ry="2" />
<text  x="1136.05" y="271.5" >rea..</text>
</g>
<g >
<title>__sysvec_apic_timer_interrupt (2,750,665 samples, 0.01%)</title><rect x="81.0" y="261" width="0.1" height="15.0" fill="rgb(242,173,41)" rx="2" ry="2" />
<text  x="84.00" y="271.5" ></text>
</g>
<g >
<title>perf_event_task_tick (2,751,321 samples, 0.01%)</title><rect x="356.0" y="117" width="0.1" height="15.0" fill="rgb(205,3,0)" rx="2" ry="2" />
<text  x="358.97" y="127.5" ></text>
</g>
<g >
<title>bpcharlen (21,303,756,663 samples, 77.51%)</title><rect x="81.1" y="293" width="914.6" height="15.0" fill="rgb(221,77,18)" rx="2" ry="2" />
<text  x="84.12" y="303.5" >bpcharlen</text>
</g>
<g >
<title>all (27,485,788,699 samples, 100%)</title><rect x="10.0" y="533" width="1180.0" height="15.0" fill="rgb(213,39,9)" rx="2" ry="2" />
<text  x="13.00" y="543.5" ></text>
</g>
<g >
<title>hash_search_with_hash_value (247,528,058 samples, 0.90%)</title><rect x="1140.6" y="213" width="10.6" height="15.0" fill="rgb(249,205,49)" rx="2" ry="2" />
<text  x="1143.61" y="223.5" ></text>
</g>
<g >
<title>UnpinBufferNoOwner (2,750,669 samples, 0.01%)</title><rect x="1089.8" y="277" width="0.2" height="15.0" fill="rgb(253,221,53)" rx="2" ry="2" />
<text  x="1092.84" y="287.5" ></text>
</g>
<g >
<title>ExecInterpExpr (16,502,953 samples, 0.06%)</title><rect x="10.1" y="325" width="0.7" height="15.0" fill="rgb(225,96,22)" rx="2" ry="2" />
<text  x="13.12" y="335.5" ></text>
</g>
<g >
<title>ProcReleaseLocks (2,750,610 samples, 0.01%)</title><rect x="10.0" y="309" width="0.1" height="15.0" fill="rgb(217,59,14)" rx="2" ry="2" />
<text  x="13.00" y="319.5" ></text>
</g>
<g >
<title>perf_adjust_freq_unthr_context (2,751,321 samples, 0.01%)</title><rect x="356.0" y="101" width="0.1" height="15.0" fill="rgb(236,146,35)" rx="2" ry="2" />
<text  x="358.97" y="111.5" ></text>
</g>
<g >
<title>AbortStrongLockAcquire (2,750,610 samples, 0.01%)</title><rect x="10.0" y="293" width="0.1" height="15.0" fill="rgb(241,168,40)" rx="2" ry="2" />
<text  x="13.00" y="303.5" ></text>
</g>
<g >
<title>irq_exit_rcu (2,750,964 samples, 0.01%)</title><rect x="356.1" y="229" width="0.1" height="15.0" fill="rgb(254,227,54)" rx="2" ry="2" />
<text  x="359.09" y="239.5" ></text>
</g>
<g >
<title>PinBuffer (5,500,299 samples, 0.02%)</title><rect x="1137.2" y="245" width="0.2" height="15.0" fill="rgb(219,64,15)" rx="2" ry="2" />
<text  x="1140.18" y="255.5" ></text>
</g>
<g >
<title>__sysvec_apic_timer_interrupt (2,750,738 samples, 0.01%)</title><rect x="10.7" y="277" width="0.1" height="15.0" fill="rgb(242,173,41)" rx="2" ry="2" />
<text  x="13.71" y="287.5" ></text>
</g>
<g >
<title>perf_event_task_tick (2,750,665 samples, 0.01%)</title><rect x="81.0" y="149" width="0.1" height="15.0" fill="rgb(205,3,0)" rx="2" ry="2" />
<text  x="84.00" y="159.5" ></text>
</g>
<g >
<title>update_process_times (2,750,800 samples, 0.01%)</title><rect x="1186.5" y="181" width="0.1" height="15.0" fill="rgb(250,209,50)" rx="2" ry="2" />
<text  x="1189.46" y="191.5" ></text>
</g>
<g >
<title>perf_adjust_freq_unthr_context (2,750,665 samples, 0.01%)</title><rect x="81.0" y="133" width="0.1" height="15.0" fill="rgb(236,146,35)" rx="2" ry="2" />
<text  x="84.00" y="143.5" ></text>
</g>
<g >
<title>ServerLoop (27,485,788,699 samples, 100.00%)</title><rect x="10.0" y="453" width="1180.0" height="15.0" fill="rgb(238,155,37)" rx="2" ry="2" />
<text  x="13.00" y="463.5" >ServerLoop</text>
</g>
<g >
<title>tick_sched_handle (2,750,665 samples, 0.01%)</title><rect x="81.0" y="197" width="0.1" height="15.0" fill="rgb(219,68,16)" rx="2" ry="2" />
<text  x="84.00" y="207.5" ></text>
</g>
<g >
<title>heap_prepare_pagescan (2,750,587 samples, 0.01%)</title><rect x="1090.0" y="277" width="0.1" height="15.0" fill="rgb(222,82,19)" rx="2" ry="2" />
<text  x="1092.96" y="287.5" ></text>
</g>
<g >
<title>exec_simple_query (27,485,788,699 samples, 100.00%)</title><rect x="10.0" y="389" width="1180.0" height="15.0" fill="rgb(211,29,6)" rx="2" ry="2" />
<text  x="13.00" y="399.5" >exec_simple_query</text>
</g>
<g >
<title>sysvec_apic_timer_interrupt (8,255,417 samples, 0.03%)</title><rect x="355.8" y="245" width="0.4" height="15.0" fill="rgb(220,69,16)" rx="2" ry="2" />
<text  x="358.85" y="255.5" ></text>
</g>
<g >
<title>timekeeping_advance (5,501,339 samples, 0.02%)</title><rect x="995.2" y="117" width="0.3" height="15.0" fill="rgb(227,104,25)" rx="2" ry="2" />
<text  x="998.24" y="127.5" ></text>
</g>
<g >
<title>GetPrivateRefCountEntry (13,752,860 samples, 0.05%)</title><rect x="1089.0" y="245" width="0.6" height="15.0" fill="rgb(250,209,50)" rx="2" ry="2" />
<text  x="1092.01" y="255.5" ></text>
</g>
<g >
<title>CommitTransactionCommandInternal (2,750,610 samples, 0.01%)</title><rect x="10.0" y="357" width="0.1" height="15.0" fill="rgb(250,210,50)" rx="2" ry="2" />
<text  x="13.00" y="367.5" ></text>
</g>
<g >
<title>LWLockRelease (71,503,675 samples, 0.26%)</title><rect x="1134.1" y="245" width="3.1" height="15.0" fill="rgb(217,58,13)" rx="2" ry="2" />
<text  x="1137.11" y="255.5" ></text>
</g>
<g >
<title>__hrtimer_run_queues (2,750,738 samples, 0.01%)</title><rect x="10.7" y="245" width="0.1" height="15.0" fill="rgb(237,150,35)" rx="2" ry="2" />
<text  x="13.71" y="255.5" ></text>
</g>
<g >
<title>CommitTransaction (2,750,610 samples, 0.01%)</title><rect x="10.0" y="341" width="0.1" height="15.0" fill="rgb(247,194,46)" rx="2" ry="2" />
<text  x="13.00" y="351.5" ></text>
</g>
<g >
<title>__run_timers.part.0 (2,750,964 samples, 0.01%)</title><rect x="356.1" y="181" width="0.1" height="15.0" fill="rgb(215,49,11)" rx="2" ry="2" />
<text  x="359.09" y="191.5" ></text>
</g>
<g >
<title>StartReadBuffer (710,478,668 samples, 2.58%)</title><rect x="1137.5" y="245" width="30.5" height="15.0" fill="rgb(222,78,18)" rx="2" ry="2" />
<text  x="1140.54" y="255.5" >St..</text>
</g>
<g >
<title>asm_sysvec_apic_timer_interrupt (2,750,738 samples, 0.01%)</title><rect x="10.7" y="309" width="0.1" height="15.0" fill="rgb(232,127,30)" rx="2" ry="2" />
<text  x="13.71" y="319.5" ></text>
</g>
<g >
<title>BufTableLookup (250,278,987 samples, 0.91%)</title><rect x="1140.5" y="229" width="10.7" height="15.0" fill="rgb(224,89,21)" rx="2" ry="2" />
<text  x="1143.49" y="239.5" ></text>
</g>
<g >
<title>PostmasterMain (27,485,788,699 samples, 100.00%)</title><rect x="10.0" y="469" width="1180.0" height="15.0" fill="rgb(212,35,8)" rx="2" ry="2" />
<text  x="13.00" y="479.5" >PostmasterMain</text>
</g>
<g >
<title>postmaster_child_launch (27,485,788,699 samples, 100.00%)</title><rect x="10.0" y="437" width="1180.0" height="15.0" fill="rgb(206,5,1)" rx="2" ry="2" />
<text  x="13.00" y="447.5" >postmaster_child_launch</text>
</g>
<g >
<title>ExecStoreBufferHeapTuple (1,128,111,687 samples, 4.10%)</title><rect x="1041.2" y="277" width="48.4" height="15.0" fill="rgb(230,117,28)" rx="2" ry="2" />
<text  x="1044.17" y="287.5" >Exec..</text>
</g>
<g >
<title>__sysvec_apic_timer_interrupt (5,502,182 samples, 0.02%)</title><rect x="355.8" y="229" width="0.3" height="15.0" fill="rgb(242,173,41)" rx="2" ry="2" />
<text  x="358.85" y="239.5" ></text>
</g>
<g >
<title>update_process_times (5,502,182 samples, 0.02%)</title><rect x="355.8" y="149" width="0.3" height="15.0" fill="rgb(250,209,50)" rx="2" ry="2" />
<text  x="358.85" y="159.5" ></text>
</g>
<g >
<title>SeqNext (3,307,081,505 samples, 12.03%)</title><rect x="1027.8" y="309" width="142.0" height="15.0" fill="rgb(214,41,10)" rx="2" ry="2" />
<text  x="1030.83" y="319.5" >SeqNext</text>
</g>
<g >
<title>tts_buffer_heap_getsomeattrs (5,499,987 samples, 0.02%)</title><rect x="1020.6" y="293" width="0.3" height="15.0" fill="rgb(222,81,19)" rx="2" ry="2" />
<text  x="1023.63" y="303.5" ></text>
</g>
<g >
<title>MemoryContextReset (104,512,491 samples, 0.38%)</title><rect x="1023.3" y="309" width="4.5" height="15.0" fill="rgb(210,26,6)" rx="2" ry="2" />
<text  x="1026.35" y="319.5" ></text>
</g>
<g >
<title>UnpinBufferNoOwner (35,982,211 samples, 0.13%)</title><rect x="1129.0" y="261" width="1.6" height="15.0" fill="rgb(253,221,53)" rx="2" ry="2" />
<text  x="1132.03" y="271.5" ></text>
</g>
<g >
<title>amd_pmu_addr_offset (2,750,665 samples, 0.01%)</title><rect x="81.0" y="69" width="0.1" height="15.0" fill="rgb(227,104,25)" rx="2" ry="2" />
<text  x="84.00" y="79.5" ></text>
</g>
<g >
<title>__hrtimer_run_queues (2,750,800 samples, 0.01%)</title><rect x="1186.5" y="229" width="0.1" height="15.0" fill="rgb(237,150,35)" rx="2" ry="2" />
<text  x="1189.46" y="239.5" ></text>
</g>
<g >
<title>__hrtimer_run_queues (5,502,182 samples, 0.02%)</title><rect x="355.8" y="197" width="0.3" height="15.0" fill="rgb(237,150,35)" rx="2" ry="2" />
<text  x="358.85" y="207.5" ></text>
</g>
<g >
<title>hrtimer_interrupt (2,750,800 samples, 0.01%)</title><rect x="1186.5" y="245" width="0.1" height="15.0" fill="rgb(228,109,26)" rx="2" ry="2" />
<text  x="1189.46" y="255.5" ></text>
</g>
<g >
<title>int4lt (132,020,382 samples, 0.48%)</title><rect x="1180.9" y="309" width="5.7" height="15.0" fill="rgb(242,172,41)" rx="2" ry="2" />
<text  x="1183.91" y="319.5" ></text>
</g>
<g >
<title>heap_getnextslot (200,768,712 samples, 0.73%)</title><rect x="1172.3" y="309" width="8.6" height="15.0" fill="rgb(213,40,9)" rx="2" ry="2" />
<text  x="1175.29" y="319.5" ></text>
</g>
<g >
<title>hrtimer_interrupt (5,502,182 samples, 0.02%)</title><rect x="355.8" y="213" width="0.3" height="15.0" fill="rgb(228,109,26)" rx="2" ry="2" />
<text  x="358.85" y="223.5" ></text>
</g>
<g >
<title>amd_pmu_disable_all (2,750,665 samples, 0.01%)</title><rect x="81.0" y="101" width="0.1" height="15.0" fill="rgb(213,38,9)" rx="2" ry="2" />
<text  x="84.00" y="111.5" ></text>
</g>
<g >
<title>scheduler_tick (2,750,814 samples, 0.01%)</title><rect x="995.6" y="133" width="0.1" height="15.0" fill="rgb(246,190,45)" rx="2" ry="2" />
<text  x="998.60" y="143.5" ></text>
</g>
<g >
<title>update_wall_time (2,750,704 samples, 0.01%)</title><rect x="995.5" y="149" width="0.1" height="15.0" fill="rgb(207,11,2)" rx="2" ry="2" />
<text  x="998.48" y="159.5" ></text>
</g>
<g >
<title>pg_detoast_datum_packed (258,530,311 samples, 0.94%)</title><rect x="997.8" y="293" width="11.1" height="15.0" fill="rgb(238,155,37)" rx="2" ry="2" />
<text  x="1000.84" y="303.5" ></text>
</g>
<g >
<title>tick_sched_handle (2,750,814 samples, 0.01%)</title><rect x="995.6" y="165" width="0.1" height="15.0" fill="rgb(219,68,16)" rx="2" ry="2" />
<text  x="998.60" y="175.5" ></text>
</g>
<g >
<title>amd_pmu_disable_all (2,751,321 samples, 0.01%)</title><rect x="356.0" y="69" width="0.1" height="15.0" fill="rgb(213,38,9)" rx="2" ry="2" />
<text  x="358.97" y="79.5" ></text>
</g>
<g >
<title>hash_bytes (16,503,455 samples, 0.06%)</title><rect x="1168.0" y="245" width="0.7" height="15.0" fill="rgb(227,102,24)" rx="2" ry="2" />
<text  x="1171.04" y="255.5" ></text>
</g>
<g >
<title>update_process_times (2,750,738 samples, 0.01%)</title><rect x="10.7" y="197" width="0.1" height="15.0" fill="rgb(250,209,50)" rx="2" ry="2" />
<text  x="13.71" y="207.5" ></text>
</g>
<g >
<title>asm_sysvec_apic_timer_interrupt (13,753,499 samples, 0.05%)</title><rect x="995.1" y="261" width="0.6" height="15.0" fill="rgb(232,127,30)" rx="2" ry="2" />
<text  x="998.13" y="271.5" ></text>
</g>
<g >
<title>sysvec_apic_timer_interrupt (2,750,738 samples, 0.01%)</title><rect x="10.7" y="293" width="0.1" height="15.0" fill="rgb(220,69,16)" rx="2" ry="2" />
<text  x="13.71" y="303.5" ></text>
</g>
<g >
<title>pg_mbstrlen_with_len (4,776,430,654 samples, 17.38%)</title><rect x="151.1" y="277" width="205.1" height="15.0" fill="rgb(228,106,25)" rx="2" ry="2" />
<text  x="154.15" y="287.5" >pg_mbstrlen_with_len</text>
</g>
<g >
<title>ExecScanFetch (2,750,513 samples, 0.01%)</title><rect x="1187.8" y="325" width="0.1" height="15.0" fill="rgb(222,80,19)" rx="2" ry="2" />
<text  x="1190.76" y="335.5" ></text>
</g>
<g >
<title>scheduler_tick (5,502,182 samples, 0.02%)</title><rect x="355.8" y="133" width="0.3" height="15.0" fill="rgb(246,190,45)" rx="2" ry="2" />
<text  x="358.85" y="143.5" ></text>
</g>
<g >
<title>slot_getsomeattrs_int (266,753,984 samples, 0.97%)</title><rect x="1009.1" y="293" width="11.4" height="15.0" fill="rgb(252,219,52)" rx="2" ry="2" />
<text  x="1012.06" y="303.5" ></text>
</g>
<g >
<title>BufTableHashCode (5,500,931 samples, 0.02%)</title><rect x="1133.9" y="245" width="0.2" height="15.0" fill="rgb(215,47,11)" rx="2" ry="2" />
<text  x="1136.88" y="255.5" ></text>
</g>
<g >
<title>ReleaseBuffer (16,503,069 samples, 0.06%)</title><rect x="1127.7" y="261" width="0.7" height="15.0" fill="rgb(220,71,17)" rx="2" ry="2" />
<text  x="1130.73" y="271.5" ></text>
</g>
<g >
<title>heap_getnextslot (3,139,329,569 samples, 11.42%)</title><rect x="1035.0" y="293" width="134.8" height="15.0" fill="rgb(213,40,9)" rx="2" ry="2" />
<text  x="1038.03" y="303.5" >heap_getnextslot</text>
</g>
<g >
<title>x86_pmu_disable_all (2,750,665 samples, 0.01%)</title><rect x="81.0" y="85" width="0.1" height="15.0" fill="rgb(254,227,54)" rx="2" ry="2" />
<text  x="84.00" y="95.5" ></text>
</g>
<g >
<title>tick_sched_do_timer (8,252,043 samples, 0.03%)</title><rect x="995.2" y="165" width="0.4" height="15.0" fill="rgb(227,104,25)" rx="2" ry="2" />
<text  x="998.24" y="175.5" ></text>
</g>
<g >
<title>asm_sysvec_apic_timer_interrupt (2,750,665 samples, 0.01%)</title><rect x="81.0" y="293" width="0.1" height="15.0" fill="rgb(232,127,30)" rx="2" ry="2" />
<text  x="84.00" y="303.5" ></text>
</g>
<g >
<title>LockBuffer (2,750,339 samples, 0.01%)</title><rect x="1127.6" y="261" width="0.1" height="15.0" fill="rgb(235,142,34)" rx="2" ry="2" />
<text  x="1130.61" y="271.5" ></text>
</g>
<g >
<title>PostgresMain (27,485,788,699 samples, 100.00%)</title><rect x="10.0" y="405" width="1180.0" height="15.0" fill="rgb(227,103,24)" rx="2" ry="2" />
<text  x="13.00" y="415.5" >PostgresMain</text>
</g>
<g >
<title>pg_mbstrlen_with_len (2,750,801 samples, 0.01%)</title><rect x="1008.9" y="293" width="0.2" height="15.0" fill="rgb(228,106,25)" rx="2" ry="2" />
<text  x="1011.94" y="303.5" ></text>
</g>
<g >
<title>PinBuffer (170,510,115 samples, 0.62%)</title><rect x="1159.3" y="229" width="7.3" height="15.0" fill="rgb(219,64,15)" rx="2" ry="2" />
<text  x="1162.30" y="239.5" ></text>
</g>
<g >
<title>bpcharlen (57,753,213 samples, 0.21%)</title><rect x="1169.8" y="309" width="2.5" height="15.0" fill="rgb(221,77,18)" rx="2" ry="2" />
<text  x="1172.81" y="319.5" ></text>
</g>
<g >
<title>ktime_get (2,750,642 samples, 0.01%)</title><rect x="995.1" y="165" width="0.1" height="15.0" fill="rgb(207,10,2)" rx="2" ry="2" />
<text  x="998.13" y="175.5" ></text>
</g>
<g >
<title>heap_page_prune_opt (2,750,940 samples, 0.01%)</title><rect x="1132.9" y="245" width="0.1" height="15.0" fill="rgb(211,29,7)" rx="2" ry="2" />
<text  x="1135.93" y="255.5" ></text>
</g>
<g >
<title>pgstat_count_io_op (22,002,902 samples, 0.08%)</title><rect x="1168.7" y="245" width="1.0" height="15.0" fill="rgb(207,10,2)" rx="2" ry="2" />
<text  x="1171.75" y="255.5" ></text>
</g>
<g >
<title>x86_pmu_disable (2,751,321 samples, 0.01%)</title><rect x="356.0" y="85" width="0.1" height="15.0" fill="rgb(239,160,38)" rx="2" ry="2" />
<text  x="358.97" y="95.5" ></text>
</g>
<g >
<title>tts_buffer_heap_getsomeattrs (219,998,361 samples, 0.80%)</title><rect x="1011.1" y="277" width="9.4" height="15.0" fill="rgb(222,81,19)" rx="2" ry="2" />
<text  x="1014.07" y="287.5" ></text>
</g>
<g >
<title>tick_sched_timer (13,753,499 samples, 0.05%)</title><rect x="995.1" y="181" width="0.6" height="15.0" fill="rgb(254,227,54)" rx="2" ry="2" />
<text  x="998.13" y="191.5" ></text>
</g>
<g >
<title>x86_pmu_disable (2,750,665 samples, 0.01%)</title><rect x="81.0" y="117" width="0.1" height="15.0" fill="rgb(239,160,38)" rx="2" ry="2" />
<text  x="84.00" y="127.5" ></text>
</g>
<g >
<title>asm_sysvec_apic_timer_interrupt (8,255,417 samples, 0.03%)</title><rect x="355.8" y="261" width="0.4" height="15.0" fill="rgb(232,127,30)" rx="2" ry="2" />
<text  x="358.85" y="271.5" ></text>
</g>
<g >
<title>ReservePrivateRefCountEntry (2,750,081 samples, 0.01%)</title><rect x="1137.4" y="245" width="0.1" height="15.0" fill="rgb(232,125,30)" rx="2" ry="2" />
<text  x="1140.42" y="255.5" ></text>
</g>
<g >
<title>__sysvec_apic_timer_interrupt (13,753,499 samples, 0.05%)</title><rect x="995.1" y="229" width="0.6" height="15.0" fill="rgb(242,173,41)" rx="2" ry="2" />
<text  x="998.13" y="239.5" ></text>
</g>
<g >
<title>BufferGetBlockNumber (16,501,710 samples, 0.06%)</title><rect x="1040.5" y="277" width="0.7" height="15.0" fill="rgb(206,7,1)" rx="2" ry="2" />
<text  x="1043.47" y="287.5" ></text>
</g>
<g >
<title>handle_softirqs (2,750,964 samples, 0.01%)</title><rect x="356.1" y="213" width="0.1" height="15.0" fill="rgb(238,156,37)" rx="2" ry="2" />
<text  x="359.09" y="223.5" ></text>
</g>
<g >
<title>amd_pmu_addr_offset (2,751,321 samples, 0.01%)</title><rect x="356.0" y="37" width="0.1" height="15.0" fill="rgb(227,104,25)" rx="2" ry="2" />
<text  x="358.97" y="47.5" ></text>
</g>
<g >
<title>SeqNext (16,501,056 samples, 0.06%)</title><rect x="1189.3" y="325" width="0.7" height="15.0" fill="rgb(214,41,10)" rx="2" ry="2" />
<text  x="1192.29" y="335.5" ></text>
</g>
<g >
<title>main (27,485,788,699 samples, 100.00%)</title><rect x="10.0" y="485" width="1180.0" height="15.0" fill="rgb(243,179,42)" rx="2" ry="2" />
<text  x="13.00" y="495.5" >main</text>
</g>
<g >
<title>tick_sched_timer (2,750,738 samples, 0.01%)</title><rect x="10.7" y="229" width="0.1" height="15.0" fill="rgb(254,227,54)" rx="2" ry="2" />
<text  x="13.71" y="239.5" ></text>
</g>
<g >
<title>ReleaseBuffer (5,500,854 samples, 0.02%)</title><rect x="1089.6" y="277" width="0.2" height="15.0" fill="rgb(220,71,17)" rx="2" ry="2" />
<text  x="1092.61" y="287.5" ></text>
</g>
<g >
<title>ExecScan (27,414,277,601 samples, 99.74%)</title><rect x="10.8" y="325" width="1177.0" height="15.0" fill="rgb(237,150,36)" rx="2" ry="2" />
<text  x="13.83" y="335.5" >ExecScan</text>
</g>
<g >
<title>UnpinBufferNoOwner (35,744,451 samples, 0.13%)</title><rect x="1088.1" y="261" width="1.5" height="15.0" fill="rgb(253,221,53)" rx="2" ry="2" />
<text  x="1091.07" y="271.5" ></text>
</g>
<g >
<title>__hrtimer_run_queues (13,753,499 samples, 0.05%)</title><rect x="995.1" y="197" width="0.6" height="15.0" fill="rgb(237,150,35)" rx="2" ry="2" />
<text  x="998.13" y="207.5" ></text>
</g>
<g >
<title>tick_sched_handle (2,750,738 samples, 0.01%)</title><rect x="10.7" y="213" width="0.1" height="15.0" fill="rgb(219,68,16)" rx="2" ry="2" />
<text  x="13.71" y="223.5" ></text>
</g>
<g >
<title>__libc_start_call_main (27,485,788,699 samples, 100.00%)</title><rect x="10.0" y="501" width="1180.0" height="15.0" fill="rgb(210,26,6)" rx="2" ry="2" />
<text  x="13.00" y="511.5" >__libc_start_call_main</text>
</g>
<g >
<title>PortalRunSelect (27,483,038,089 samples, 99.99%)</title><rect x="10.1" y="357" width="1179.9" height="15.0" fill="rgb(245,188,45)" rx="2" ry="2" />
<text  x="13.12" y="367.5" >PortalRunSelect</text>
</g>
<g >
<title>IncrBufferRefCount (8,604,849 samples, 0.03%)</title><rect x="1087.6" y="261" width="0.4" height="15.0" fill="rgb(209,22,5)" rx="2" ry="2" />
<text  x="1090.58" y="271.5" ></text>
</g>
</g>
</svg>
