<?xml version="1.0" standalone="no"?>
<!DOCTYPE svg PUBLIC "-//W3C//DTD SVG 1.1//EN" "http://www.w3.org/Graphics/SVG/1.1/DTD/svg11.dtd">
<svg version="1.1" width="1200" height="534" onload="init(evt)" viewBox="0 0 1200 534" xmlns="http://www.w3.org/2000/svg" xmlns:xlink="http://www.w3.org/1999/xlink">
<!-- Flame graph stack visualization. See https://github.com/brendangregg/FlameGraph for latest version, and http://www.brendangregg.com/flamegraphs.html for examples. -->
<!-- NOTES:  -->
<defs>
	<linearGradient id="background" y1="0" y2="1" x1="0" x2="0" >
		<stop stop-color="#eeeeee" offset="5%" />
		<stop stop-color="#eeeeb0" offset="95%" />
	</linearGradient>
</defs>
<style type="text/css">
	text { font-family:Verdana; font-size:12px; fill:rgb(0,0,0); }
	#search, #ignorecase { opacity:0.1; cursor:pointer; }
	#search:hover, #search.show, #ignorecase:hover, #ignorecase.show { opacity:1; }
	#subtitle { text-anchor:middle; font-color:rgb(160,160,160); }
	#title { text-anchor:middle; font-size:17px}
	#unzoom { cursor:pointer; }
	#frames > *:hover { stroke:black; stroke-width:0.5; cursor:pointer; }
	.hide { display:none; }
	.parent { opacity:0.5; }
</style>
<script type="text/ecmascript">
<![CDATA[
	"use strict";
	var details, searchbtn, unzoombtn, matchedtxt, svg, searching, currentSearchTerm, ignorecase, ignorecaseBtn;
	function init(evt) {
		details = document.getElementById("details").firstChild;
		searchbtn = document.getElementById("search");
		ignorecaseBtn = document.getElementById("ignorecase");
		unzoombtn = document.getElementById("unzoom");
		matchedtxt = document.getElementById("matched");
		svg = document.getElementsByTagName("svg")[0];
		searching = 0;
		currentSearchTerm = null;

		// use GET parameters to restore a flamegraphs state.
		var params = get_params();
		if (params.x && params.y)
			zoom(find_group(document.querySelector('[x="' + params.x + '"][y="' + params.y + '"]')));
                if (params.s) search(params.s);
	}

	// event listeners
	window.addEventListener("click", function(e) {
		var target = find_group(e.target);
		if (target) {
			if (target.nodeName == "a") {
				if (e.ctrlKey === false) return;
				e.preventDefault();
			}
			if (target.classList.contains("parent")) unzoom(true);
			zoom(target);
			if (!document.querySelector('.parent')) {
				// we have basically done a clearzoom so clear the url
				var params = get_params();
				if (params.x) delete params.x;
				if (params.y) delete params.y;
				history.replaceState(null, null, parse_params(params));
				unzoombtn.classList.add("hide");
				return;
			}

			// set parameters for zoom state
			var el = target.querySelector("rect");
			if (el && el.attributes && el.attributes.y && el.attributes._orig_x) {
				var params = get_params()
				params.x = el.attributes._orig_x.value;
				params.y = el.attributes.y.value;
				history.replaceState(null, null, parse_params(params));
			}
		}
		else if (e.target.id == "unzoom") clearzoom();
		else if (e.target.id == "search") search_prompt();
		else if (e.target.id == "ignorecase") toggle_ignorecase();
	}, false)

	// mouse-over for info
	// show
	window.addEventListener("mouseover", function(e) {
		var target = find_group(e.target);
		if (target) details.nodeValue = "Function: " + g_to_text(target);
	}, false)

	// clear
	window.addEventListener("mouseout", function(e) {
		var target = find_group(e.target);
		if (target) details.nodeValue = ' ';
	}, false)

	// ctrl-F for search
	// ctrl-I to toggle case-sensitive search
	window.addEventListener("keydown",function (e) {
		if (e.keyCode === 114 || (e.ctrlKey && e.keyCode === 70)) {
			e.preventDefault();
			search_prompt();
		}
		else if (e.ctrlKey && e.keyCode === 73) {
			e.preventDefault();
			toggle_ignorecase();
		}
	}, false)

	// functions
	function get_params() {
		var params = {};
		var paramsarr = window.location.search.substr(1).split('&');
		for (var i = 0; i < paramsarr.length; ++i) {
			var tmp = paramsarr[i].split("=");
			if (!tmp[0] || !tmp[1]) continue;
			params[tmp[0]]  = decodeURIComponent(tmp[1]);
		}
		return params;
	}
	function parse_params(params) {
		var uri = "?";
		for (var key in params) {
			uri += key + '=' + encodeURIComponent(params[key]) + '&';
		}
		if (uri.slice(-1) == "&")
			uri = uri.substring(0, uri.length - 1);
		if (uri == '?')
			uri = window.location.href.split('?')[0];
		return uri;
	}
	function find_child(node, selector) {
		var children = node.querySelectorAll(selector);
		if (children.length) return children[0];
	}
	function find_group(node) {
		var parent = node.parentElement;
		if (!parent) return;
		if (parent.id == "frames") return node;
		return find_group(parent);
	}
	function orig_save(e, attr, val) {
		if (e.attributes["_orig_" + attr] != undefined) return;
		if (e.attributes[attr] == undefined) return;
		if (val == undefined) val = e.attributes[attr].value;
		e.setAttribute("_orig_" + attr, val);
	}
	function orig_load(e, attr) {
		if (e.attributes["_orig_"+attr] == undefined) return;
		e.attributes[attr].value = e.attributes["_orig_" + attr].value;
		e.removeAttribute("_orig_"+attr);
	}
	function g_to_text(e) {
		var text = find_child(e, "title").firstChild.nodeValue;
		return (text)
	}
	function g_to_func(e) {
		var func = g_to_text(e);
		// if there's any manipulation we want to do to the function
		// name before it's searched, do it here before returning.
		return (func);
	}
	function update_text(e) {
		var r = find_child(e, "rect");
		var t = find_child(e, "text");
		var w = parseFloat(r.attributes.width.value) -3;
		var txt = find_child(e, "title").textContent.replace(/\([^(]*\)$/,"");
		t.attributes.x.value = parseFloat(r.attributes.x.value) + 3;

		// Smaller than this size won't fit anything
		if (w < 2 * 12 * 0.59) {
			t.textContent = "";
			return;
		}

		t.textContent = txt;
		var sl = t.getSubStringLength(0, txt.length);
		// check if only whitespace or if we can fit the entire string into width w
		if (/^ *$/.test(txt) || sl < w)
			return;

		// this isn't perfect, but gives a good starting point
		// and avoids calling getSubStringLength too often
		var start = Math.floor((w/sl) * txt.length);
		for (var x = start; x > 0; x = x-2) {
			if (t.getSubStringLength(0, x + 2) <= w) {
				t.textContent = txt.substring(0, x) + "..";
				return;
			}
		}
		t.textContent = "";
	}

	// zoom
	function zoom_reset(e) {
		if (e.attributes != undefined) {
			orig_load(e, "x");
			orig_load(e, "width");
		}
		if (e.childNodes == undefined) return;
		for (var i = 0, c = e.childNodes; i < c.length; i++) {
			zoom_reset(c[i]);
		}
	}
	function zoom_child(e, x, ratio) {
		if (e.attributes != undefined) {
			if (e.attributes.x != undefined) {
				orig_save(e, "x");
				e.attributes.x.value = (parseFloat(e.attributes.x.value) - x - 10) * ratio + 10;
				if (e.tagName == "text")
					e.attributes.x.value = find_child(e.parentNode, "rect[x]").attributes.x.value + 3;
			}
			if (e.attributes.width != undefined) {
				orig_save(e, "width");
				e.attributes.width.value = parseFloat(e.attributes.width.value) * ratio;
			}
		}

		if (e.childNodes == undefined) return;
		for (var i = 0, c = e.childNodes; i < c.length; i++) {
			zoom_child(c[i], x - 10, ratio);
		}
	}
	function zoom_parent(e) {
		if (e.attributes) {
			if (e.attributes.x != undefined) {
				orig_save(e, "x");
				e.attributes.x.value = 10;
			}
			if (e.attributes.width != undefined) {
				orig_save(e, "width");
				e.attributes.width.value = parseInt(svg.width.baseVal.value) - (10 * 2);
			}
		}
		if (e.childNodes == undefined) return;
		for (var i = 0, c = e.childNodes; i < c.length; i++) {
			zoom_parent(c[i]);
		}
	}
	function zoom(node) {
		var attr = find_child(node, "rect").attributes;
		var width = parseFloat(attr.width.value);
		var xmin = parseFloat(attr.x.value);
		var xmax = parseFloat(xmin + width);
		var ymin = parseFloat(attr.y.value);
		var ratio = (svg.width.baseVal.value - 2 * 10) / width;

		// XXX: Workaround for JavaScript float issues (fix me)
		var fudge = 0.0001;

		unzoombtn.classList.remove("hide");

		var el = document.getElementById("frames").children;
		for (var i = 0; i < el.length; i++) {
			var e = el[i];
			var a = find_child(e, "rect").attributes;
			var ex = parseFloat(a.x.value);
			var ew = parseFloat(a.width.value);
			var upstack;
			// Is it an ancestor
			if (0 == 0) {
				upstack = parseFloat(a.y.value) > ymin;
			} else {
				upstack = parseFloat(a.y.value) < ymin;
			}
			if (upstack) {
				// Direct ancestor
				if (ex <= xmin && (ex+ew+fudge) >= xmax) {
					e.classList.add("parent");
					zoom_parent(e);
					update_text(e);
				}
				// not in current path
				else
					e.classList.add("hide");
			}
			// Children maybe
			else {
				// no common path
				if (ex < xmin || ex + fudge >= xmax) {
					e.classList.add("hide");
				}
				else {
					zoom_child(e, xmin, ratio);
					update_text(e);
				}
			}
		}
		search();
	}
	function unzoom(dont_update_text) {
		unzoombtn.classList.add("hide");
		var el = document.getElementById("frames").children;
		for(var i = 0; i < el.length; i++) {
			el[i].classList.remove("parent");
			el[i].classList.remove("hide");
			zoom_reset(el[i]);
			if(!dont_update_text) update_text(el[i]);
		}
		search();
	}
	function clearzoom() {
		unzoom();

		// remove zoom state
		var params = get_params();
		if (params.x) delete params.x;
		if (params.y) delete params.y;
		history.replaceState(null, null, parse_params(params));
	}

	// search
	function toggle_ignorecase() {
		ignorecase = !ignorecase;
		if (ignorecase) {
			ignorecaseBtn.classList.add("show");
		} else {
			ignorecaseBtn.classList.remove("show");
		}
		reset_search();
		search();
	}
	function reset_search() {
		var el = document.querySelectorAll("#frames rect");
		for (var i = 0; i < el.length; i++) {
			orig_load(el[i], "fill")
		}
		var params = get_params();
		delete params.s;
		history.replaceState(null, null, parse_params(params));
	}
	function search_prompt() {
		if (!searching) {
			var term = prompt("Enter a search term (regexp " +
			    "allowed, eg: ^ext4_)"
			    + (ignorecase ? ", ignoring case" : "")
			    + "\nPress Ctrl-i to toggle case sensitivity", "");
			if (term != null) search(term);
		} else {
			reset_search();
			searching = 0;
			currentSearchTerm = null;
			searchbtn.classList.remove("show");
			searchbtn.firstChild.nodeValue = "Search"
			matchedtxt.classList.add("hide");
			matchedtxt.firstChild.nodeValue = ""
		}
	}
	function search(term) {
		if (term) currentSearchTerm = term;

		var re = new RegExp(currentSearchTerm, ignorecase ? 'i' : '');
		var el = document.getElementById("frames").children;
		var matches = new Object();
		var maxwidth = 0;
		for (var i = 0; i < el.length; i++) {
			var e = el[i];
			var func = g_to_func(e);
			var rect = find_child(e, "rect");
			if (func == null || rect == null)
				continue;

			// Save max width. Only works as we have a root frame
			var w = parseFloat(rect.attributes.width.value);
			if (w > maxwidth)
				maxwidth = w;

			if (func.match(re)) {
				// highlight
				var x = parseFloat(rect.attributes.x.value);
				orig_save(rect, "fill");
				rect.attributes.fill.value = "rgb(230,0,230)";

				// remember matches
				if (matches[x] == undefined) {
					matches[x] = w;
				} else {
					if (w > matches[x]) {
						// overwrite with parent
						matches[x] = w;
					}
				}
				searching = 1;
			}
		}
		if (!searching)
			return;
		var params = get_params();
		params.s = currentSearchTerm;
		history.replaceState(null, null, parse_params(params));

		searchbtn.classList.add("show");
		searchbtn.firstChild.nodeValue = "Reset Search";

		// calculate percent matched, excluding vertical overlap
		var count = 0;
		var lastx = -1;
		var lastw = 0;
		var keys = Array();
		for (k in matches) {
			if (matches.hasOwnProperty(k))
				keys.push(k);
		}
		// sort the matched frames by their x location
		// ascending, then width descending
		keys.sort(function(a, b){
			return a - b;
		});
		// Step through frames saving only the biggest bottom-up frames
		// thanks to the sort order. This relies on the tree property
		// where children are always smaller than their parents.
		var fudge = 0.0001;	// JavaScript floating point
		for (var k in keys) {
			var x = parseFloat(keys[k]);
			var w = matches[keys[k]];
			if (x >= lastx + lastw - fudge) {
				count += w;
				lastx = x;
				lastw = w;
			}
		}
		// display matched percent
		matchedtxt.classList.remove("hide");
		var pct = 100 * count / maxwidth;
		if (pct != 100) pct = pct.toFixed(1)
		matchedtxt.firstChild.nodeValue = "Matched: " + pct + "%";
	}
]]>
</script>
<rect x="0.0" y="0" width="1200.0" height="534.0" fill="url(#background)"  />
<text id="title" x="600.00" y="24" >Flame Graph</text>
<text id="details" x="10.00" y="517" > </text>
<text id="unzoom" x="10.00" y="24" class="hide">Reset Zoom</text>
<text id="search" x="1090.00" y="24" >Search</text>
<text id="ignorecase" x="1174.00" y="24" >ic</text>
<text id="matched" x="1090.00" y="517" > </text>
<g id="frames">
<g >
<title>scheduler_tick (5,501,393 samples, 0.02%)</title><rect x="986.2" y="85" width="0.3" height="15.0" fill="rgb(246,190,45)" rx="2" ry="2" />
<text  x="989.24" y="95.5" ></text>
</g>
<g >
<title>PostmasterMain (27,497,350,164 samples, 100.00%)</title><rect x="10.0" y="421" width="1180.0" height="15.0" fill="rgb(212,35,8)" rx="2" ry="2" />
<text  x="13.00" y="431.5" >PostmasterMain</text>
</g>
<g >
<title>slot_getsomeattrs_int (236,722,095 samples, 0.86%)</title><rect x="1000.9" y="245" width="10.1" height="15.0" fill="rgb(252,219,52)" rx="2" ry="2" />
<text  x="1003.88" y="255.5" ></text>
</g>
<g >
<title>MemoryContextReset (85,261,146 samples, 0.31%)</title><rect x="1013.0" y="261" width="3.7" height="15.0" fill="rgb(210,26,6)" rx="2" ry="2" />
<text  x="1016.04" y="271.5" ></text>
</g>
<g >
<title>perf_adjust_freq_unthr_context (2,750,627 samples, 0.01%)</title><rect x="88.1" y="101" width="0.1" height="15.0" fill="rgb(236,146,35)" rx="2" ry="2" />
<text  x="91.11" y="111.5" ></text>
</g>
<g >
<title>__sysvec_apic_timer_interrupt (2,750,627 samples, 0.01%)</title><rect x="88.1" y="213" width="0.1" height="15.0" fill="rgb(242,173,41)" rx="2" ry="2" />
<text  x="91.11" y="223.5" ></text>
</g>
<g >
<title>native_read_msr (2,750,584 samples, 0.01%)</title><rect x="1080.9" y="37" width="0.2" height="15.0" fill="rgb(211,30,7)" rx="2" ry="2" />
<text  x="1083.94" y="47.5" ></text>
</g>
<g >
<title>[postgres] (27,497,350,164 samples, 100.00%)</title><rect x="10.0" y="373" width="1180.0" height="15.0" fill="rgb(245,184,44)" rx="2" ry="2" />
<text  x="13.00" y="383.5" >[postgres]</text>
</g>
<g >
<title>__sysvec_apic_timer_interrupt (2,750,732 samples, 0.01%)</title><rect x="1081.1" y="181" width="0.1" height="15.0" fill="rgb(242,173,41)" rx="2" ry="2" />
<text  x="1084.05" y="191.5" ></text>
</g>
<g >
<title>postgres (27,497,350,164 samples, 100.00%)</title><rect x="10.0" y="469" width="1180.0" height="15.0" fill="rgb(233,131,31)" rx="2" ry="2" />
<text  x="13.00" y="479.5" >postgres</text>
</g>
<g >
<title>LWLockRelease (77,006,622 samples, 0.28%)</title><rect x="1156.6" y="181" width="3.3" height="15.0" fill="rgb(217,58,13)" rx="2" ry="2" />
<text  x="1159.60" y="191.5" ></text>
</g>
<g >
<title>pg_utf_mblen_private (13,309,014,027 samples, 48.40%)</title><rect x="415.3" y="229" width="571.2" height="15.0" fill="rgb(242,173,41)" rx="2" ry="2" />
<text  x="418.35" y="239.5" >pg_utf_mblen_private</text>
</g>
<g >
<title>account_process_tick (2,750,544 samples, 0.01%)</title><rect x="986.1" y="85" width="0.1" height="15.0" fill="rgb(234,136,32)" rx="2" ry="2" />
<text  x="989.12" y="95.5" ></text>
</g>
<g >
<title>int4lt (96,257,090 samples, 0.35%)</title><rect x="1183.5" y="261" width="4.1" height="15.0" fill="rgb(242,172,41)" rx="2" ry="2" />
<text  x="1186.51" y="271.5" ></text>
</g>
<g >
<title>read_stream_next_buffer (814,104,824 samples, 2.96%)</title><rect x="1138.3" y="213" width="34.9" height="15.0" fill="rgb(216,50,12)" rx="2" ry="2" />
<text  x="1141.31" y="223.5" >re..</text>
</g>
<g >
<title>tts_buffer_heap_getsomeattrs (2,750,358 samples, 0.01%)</title><rect x="1011.0" y="245" width="0.2" height="15.0" fill="rgb(222,81,19)" rx="2" ry="2" />
<text  x="1014.04" y="255.5" ></text>
</g>
<g >
<title>ServerLoop (27,497,350,164 samples, 100.00%)</title><rect x="10.0" y="405" width="1180.0" height="15.0" fill="rgb(238,155,37)" rx="2" ry="2" />
<text  x="13.00" y="415.5" >ServerLoop</text>
</g>
<g >
<title>tick_sched_timer (2,750,584 samples, 0.01%)</title><rect x="1080.9" y="117" width="0.2" height="15.0" fill="rgb(254,227,54)" rx="2" ry="2" />
<text  x="1083.94" y="127.5" ></text>
</g>
<g >
<title>standard_ExecutorRun (27,494,599,443 samples, 99.99%)</title><rect x="10.0" y="293" width="1179.9" height="15.0" fill="rgb(247,196,47)" rx="2" ry="2" />
<text  x="13.00" y="303.5" >standard_ExecutorRun</text>
</g>
<g >
<title>scheduler_tick (2,750,893 samples, 0.01%)</title><rect x="1138.0" y="69" width="0.1" height="15.0" fill="rgb(246,190,45)" rx="2" ry="2" />
<text  x="1140.95" y="79.5" ></text>
</g>
<g >
<title>GetPrivateRefCountEntry (2,750,042 samples, 0.01%)</title><rect x="1105.4" y="213" width="0.1" height="15.0" fill="rgb(250,209,50)" rx="2" ry="2" />
<text  x="1108.37" y="223.5" ></text>
</g>
<g >
<title>__sysvec_apic_timer_interrupt (11,002,785 samples, 0.04%)</title><rect x="986.0" y="181" width="0.5" height="15.0" fill="rgb(242,173,41)" rx="2" ry="2" />
<text  x="989.01" y="191.5" ></text>
</g>
<g >
<title>slot_getsomeattrs_int (2,750,833 samples, 0.01%)</title><rect x="1187.6" y="261" width="0.2" height="15.0" fill="rgb(252,219,52)" rx="2" ry="2" />
<text  x="1190.64" y="271.5" ></text>
</g>
<g >
<title>ResourceOwnerForget (5,500,890 samples, 0.02%)</title><rect x="1079.2" y="213" width="0.2" height="15.0" fill="rgb(235,142,33)" rx="2" ry="2" />
<text  x="1082.16" y="223.5" ></text>
</g>
<g >
<title>bpcharlen (20,931,764,543 samples, 76.12%)</title><rect x="88.2" y="245" width="898.3" height="15.0" fill="rgb(221,77,18)" rx="2" ry="2" />
<text  x="91.23" y="255.5" >bpcharlen</text>
</g>
<g >
<title>SeqNext (11,002,175 samples, 0.04%)</title><rect x="1189.4" y="277" width="0.5" height="15.0" fill="rgb(214,41,10)" rx="2" ry="2" />
<text  x="1192.41" y="287.5" ></text>
</g>
<g >
<title>UnpinBufferNoOwner (27,504,875 samples, 0.10%)</title><rect x="1106.8" y="213" width="1.2" height="15.0" fill="rgb(253,221,53)" rx="2" ry="2" />
<text  x="1109.78" y="223.5" ></text>
</g>
<g >
<title>ScanKeywordLookup (2,750,721 samples, 0.01%)</title><rect x="1189.9" y="245" width="0.1" height="15.0" fill="rgb(218,61,14)" rx="2" ry="2" />
<text  x="1192.88" y="255.5" ></text>
</g>
<g >
<title>tts_buffer_heap_getsomeattrs (209,221,201 samples, 0.76%)</title><rect x="1002.1" y="229" width="8.9" height="15.0" fill="rgb(222,81,19)" rx="2" ry="2" />
<text  x="1005.06" y="239.5" ></text>
</g>
<g >
<title>tick_sched_handle (2,750,584 samples, 0.01%)</title><rect x="1080.9" y="101" width="0.2" height="15.0" fill="rgb(219,68,16)" rx="2" ry="2" />
<text  x="1083.94" y="111.5" ></text>
</g>
<g >
<title>__hrtimer_run_queues (2,750,893 samples, 0.01%)</title><rect x="1138.0" y="133" width="0.1" height="15.0" fill="rgb(237,150,35)" rx="2" ry="2" />
<text  x="1140.95" y="143.5" ></text>
</g>
<g >
<title>hrtimer_interrupt (2,750,893 samples, 0.01%)</title><rect x="1138.0" y="149" width="0.1" height="15.0" fill="rgb(228,109,26)" rx="2" ry="2" />
<text  x="1140.95" y="159.5" ></text>
</g>
<g >
<title>StartReadBuffer (726,092,923 samples, 2.64%)</title><rect x="1140.0" y="197" width="31.1" height="15.0" fill="rgb(222,78,18)" rx="2" ry="2" />
<text  x="1142.96" y="207.5" >St..</text>
</g>
<g >
<title>sysvec_apic_timer_interrupt (2,750,732 samples, 0.01%)</title><rect x="1081.1" y="197" width="0.1" height="15.0" fill="rgb(220,69,16)" rx="2" ry="2" />
<text  x="1084.05" y="207.5" ></text>
</g>
<g >
<title>heap_scan_stream_read_next_serial (5,500,769 samples, 0.02%)</title><rect x="1138.1" y="213" width="0.2" height="15.0" fill="rgb(205,4,0)" rx="2" ry="2" />
<text  x="1141.07" y="223.5" ></text>
</g>
<g >
<title>arch_scale_freq_tick (2,750,584 samples, 0.01%)</title><rect x="1080.9" y="53" width="0.2" height="15.0" fill="rgb(252,219,52)" rx="2" ry="2" />
<text  x="1083.94" y="63.5" ></text>
</g>
<g >
<title>scheduler_tick (2,750,732 samples, 0.01%)</title><rect x="1081.1" y="85" width="0.1" height="15.0" fill="rgb(246,190,45)" rx="2" ry="2" />
<text  x="1084.05" y="95.5" ></text>
</g>
<g >
<title>task_tick_fair (2,750,893 samples, 0.01%)</title><rect x="1138.0" y="53" width="0.1" height="15.0" fill="rgb(217,57,13)" rx="2" ry="2" />
<text  x="1140.95" y="63.5" ></text>
</g>
<g >
<title>bpcharlen (101,756,315 samples, 0.37%)</title><rect x="1173.2" y="261" width="4.4" height="15.0" fill="rgb(221,77,18)" rx="2" ry="2" />
<text  x="1176.24" y="271.5" ></text>
</g>
<g >
<title>asm_sysvec_apic_timer_interrupt (2,750,584 samples, 0.01%)</title><rect x="1080.9" y="197" width="0.2" height="15.0" fill="rgb(232,127,30)" rx="2" ry="2" />
<text  x="1083.94" y="207.5" ></text>
</g>
<g >
<title>ResourceOwnerRemember (96,264,902 samples, 0.35%)</title><rect x="1167.0" y="181" width="4.1" height="15.0" fill="rgb(243,178,42)" rx="2" ry="2" />
<text  x="1169.99" y="191.5" ></text>
</g>
<g >
<title>hrtimer_interrupt (2,750,584 samples, 0.01%)</title><rect x="1080.9" y="149" width="0.2" height="15.0" fill="rgb(228,109,26)" rx="2" ry="2" />
<text  x="1083.94" y="159.5" ></text>
</g>
<g >
<title>update_process_times (2,750,627 samples, 0.01%)</title><rect x="88.1" y="133" width="0.1" height="15.0" fill="rgb(250,209,50)" rx="2" ry="2" />
<text  x="91.11" y="143.5" ></text>
</g>
<g >
<title>pg_mbstrlen_with_len (6,116,900,480 samples, 22.25%)</title><rect x="152.8" y="229" width="262.5" height="15.0" fill="rgb(228,106,25)" rx="2" ry="2" />
<text  x="155.85" y="239.5" >pg_mbstrlen_with_len</text>
</g>
<g >
<title>ExecInterpExpr (30,251,537 samples, 0.11%)</title><rect x="10.0" y="277" width="1.3" height="15.0" fill="rgb(225,96,22)" rx="2" ry="2" />
<text  x="13.00" y="287.5" ></text>
</g>
<g >
<title>IncrBufferRefCount (13,751,090 samples, 0.05%)</title><rect x="1078.1" y="213" width="0.6" height="15.0" fill="rgb(209,22,5)" rx="2" ry="2" />
<text  x="1081.10" y="223.5" ></text>
</g>
<g >
<title>ReleaseBuffer (19,253,857 samples, 0.07%)</title><rect x="1081.3" y="229" width="0.8" height="15.0" fill="rgb(220,71,17)" rx="2" ry="2" />
<text  x="1084.29" y="239.5" ></text>
</g>
<g >
<title>LWLockRelease (19,247,367 samples, 0.07%)</title><rect x="1105.5" y="213" width="0.8" height="15.0" fill="rgb(217,58,13)" rx="2" ry="2" />
<text  x="1108.48" y="223.5" ></text>
</g>
<g >
<title>base_yylex (2,750,721 samples, 0.01%)</title><rect x="1189.9" y="277" width="0.1" height="15.0" fill="rgb(206,5,1)" rx="2" ry="2" />
<text  x="1192.88" y="287.5" ></text>
</g>
<g >
<title>ExecStoreBufferHeapTuple (2,750,652 samples, 0.01%)</title><rect x="1020.4" y="245" width="0.1" height="15.0" fill="rgb(230,117,28)" rx="2" ry="2" />
<text  x="1023.39" y="255.5" ></text>
</g>
<g >
<title>heap_getnextslot (137,511,895 samples, 0.50%)</title><rect x="1177.6" y="261" width="5.9" height="15.0" fill="rgb(213,40,9)" rx="2" ry="2" />
<text  x="1180.61" y="271.5" ></text>
</g>
<g >
<title>PortalRunSelect (27,494,599,443 samples, 99.99%)</title><rect x="10.0" y="309" width="1179.9" height="15.0" fill="rgb(245,188,45)" rx="2" ry="2" />
<text  x="13.00" y="319.5" >PortalRunSelect</text>
</g>
<g >
<title>ResourceOwnerForget (5,500,782 samples, 0.02%)</title><rect x="1106.5" y="197" width="0.3" height="15.0" fill="rgb(235,142,33)" rx="2" ry="2" />
<text  x="1109.55" y="207.5" ></text>
</g>
<g >
<title>heapgettup_pagemode (2,109,723,158 samples, 7.67%)</title><rect x="1082.7" y="229" width="90.5" height="15.0" fill="rgb(242,170,40)" rx="2" ry="2" />
<text  x="1085.71" y="239.5" >heapgettup..</text>
</g>
<g >
<title>ResourceOwnerEnlarge (2,750,714 samples, 0.01%)</title><rect x="1166.9" y="181" width="0.1" height="15.0" fill="rgb(223,86,20)" rx="2" ry="2" />
<text  x="1169.87" y="191.5" ></text>
</g>
<g >
<title>sysvec_apic_timer_interrupt (2,750,695 samples, 0.01%)</title><rect x="415.1" y="197" width="0.1" height="15.0" fill="rgb(220,69,16)" rx="2" ry="2" />
<text  x="418.11" y="207.5" ></text>
</g>
<g >
<title>heap_getnextslot (3,559,173,606 samples, 12.94%)</title><rect x="1020.5" y="245" width="152.7" height="15.0" fill="rgb(213,40,9)" rx="2" ry="2" />
<text  x="1023.51" y="255.5" >heap_getnextslot</text>
</g>
<g >
<title>irq_work_tick (2,750,848 samples, 0.01%)</title><rect x="986.0" y="101" width="0.1" height="15.0" fill="rgb(219,67,16)" rx="2" ry="2" />
<text  x="989.01" y="111.5" ></text>
</g>
<g >
<title>ExecStoreBufferHeapTuple (1,259,706,391 samples, 4.58%)</title><rect x="1027.1" y="229" width="54.1" height="15.0" fill="rgb(230,117,28)" rx="2" ry="2" />
<text  x="1030.11" y="239.5" >ExecS..</text>
</g>
<g >
<title>update_process_times (2,750,732 samples, 0.01%)</title><rect x="1081.1" y="101" width="0.1" height="15.0" fill="rgb(250,209,50)" rx="2" ry="2" />
<text  x="1084.05" y="111.5" ></text>
</g>
<g >
<title>PortalRun (27,494,599,443 samples, 99.99%)</title><rect x="10.0" y="325" width="1179.9" height="15.0" fill="rgb(223,85,20)" rx="2" ry="2" />
<text  x="13.00" y="335.5" >PortalRun</text>
</g>
<g >
<title>GetPrivateRefCountEntry (5,500,618 samples, 0.02%)</title><rect x="1078.2" y="197" width="0.3" height="15.0" fill="rgb(250,209,50)" rx="2" ry="2" />
<text  x="1081.22" y="207.5" ></text>
</g>
<g >
<title>sysvec_apic_timer_interrupt (2,750,893 samples, 0.01%)</title><rect x="1138.0" y="181" width="0.1" height="15.0" fill="rgb(220,69,16)" rx="2" ry="2" />
<text  x="1140.95" y="191.5" ></text>
</g>
<g >
<title>postmaster_child_launch (27,497,350,164 samples, 100.00%)</title><rect x="10.0" y="389" width="1180.0" height="15.0" fill="rgb(206,5,1)" rx="2" ry="2" />
<text  x="13.00" y="399.5" >postmaster_child_launch</text>
</g>
<g >
<title>UnpinBufferNoOwner (38,505,755 samples, 0.14%)</title><rect x="1079.4" y="213" width="1.7" height="15.0" fill="rgb(253,221,53)" rx="2" ry="2" />
<text  x="1082.40" y="223.5" ></text>
</g>
<g >
<title>LWLockAcquire (5,500,609 samples, 0.02%)</title><rect x="1154.6" y="181" width="0.2" height="15.0" fill="rgb(209,20,4)" rx="2" ry="2" />
<text  x="1157.59" y="191.5" ></text>
</g>
<g >
<title>tick_sched_timer (11,002,785 samples, 0.04%)</title><rect x="986.0" y="133" width="0.5" height="15.0" fill="rgb(254,227,54)" rx="2" ry="2" />
<text  x="989.01" y="143.5" ></text>
</g>
<g >
<title>hrtimer_interrupt (2,750,732 samples, 0.01%)</title><rect x="1081.1" y="165" width="0.1" height="15.0" fill="rgb(228,109,26)" rx="2" ry="2" />
<text  x="1084.05" y="175.5" ></text>
</g>
<g >
<title>exec_simple_query (27,497,350,164 samples, 100.00%)</title><rect x="10.0" y="341" width="1180.0" height="15.0" fill="rgb(211,29,6)" rx="2" ry="2" />
<text  x="13.00" y="351.5" >exec_simple_query</text>
</g>
<g >
<title>__hrtimer_run_queues (11,002,785 samples, 0.04%)</title><rect x="986.0" y="149" width="0.5" height="15.0" fill="rgb(237,150,35)" rx="2" ry="2" />
<text  x="989.01" y="159.5" ></text>
</g>
<g >
<title>update_process_times (8,251,937 samples, 0.03%)</title><rect x="986.1" y="101" width="0.4" height="15.0" fill="rgb(250,209,50)" rx="2" ry="2" />
<text  x="989.12" y="111.5" ></text>
</g>
<g >
<title>ResourceOwnerForget (5,501,336 samples, 0.02%)</title><rect x="1078.9" y="197" width="0.3" height="15.0" fill="rgb(235,142,33)" rx="2" ry="2" />
<text  x="1081.93" y="207.5" ></text>
</g>
<g >
<title>ReleaseBuffer (8,251,311 samples, 0.03%)</title><rect x="1106.4" y="213" width="0.4" height="15.0" fill="rgb(220,71,17)" rx="2" ry="2" />
<text  x="1109.43" y="223.5" ></text>
</g>
<g >
<title>LWLockAttemptLock (5,501,006 samples, 0.02%)</title><rect x="1137.7" y="197" width="0.3" height="15.0" fill="rgb(235,138,33)" rx="2" ry="2" />
<text  x="1140.71" y="207.5" ></text>
</g>
<g >
<title>ExecScan (27,414,839,469 samples, 99.70%)</title><rect x="11.3" y="277" width="1176.5" height="15.0" fill="rgb(237,150,36)" rx="2" ry="2" />
<text  x="14.30" y="287.5" >ExecScan</text>
</g>
<g >
<title>IncrBufferRefCount (2,750,207 samples, 0.01%)</title><rect x="1081.2" y="229" width="0.1" height="15.0" fill="rgb(209,22,5)" rx="2" ry="2" />
<text  x="1084.17" y="239.5" ></text>
</g>
<g >
<title>__sysvec_apic_timer_interrupt (2,750,893 samples, 0.01%)</title><rect x="1138.0" y="165" width="0.1" height="15.0" fill="rgb(242,173,41)" rx="2" ry="2" />
<text  x="1140.95" y="175.5" ></text>
</g>
<g >
<title>heap_prepare_pagescan (701,551,311 samples, 2.55%)</title><rect x="1108.0" y="213" width="30.1" height="15.0" fill="rgb(222,82,19)" rx="2" ry="2" />
<text  x="1110.96" y="223.5" >he..</text>
</g>
<g >
<title>tick_sched_timer (2,750,732 samples, 0.01%)</title><rect x="1081.1" y="133" width="0.1" height="15.0" fill="rgb(254,227,54)" rx="2" ry="2" />
<text  x="1084.05" y="143.5" ></text>
</g>
<g >
<title>hrtimer_active (2,750,893 samples, 0.01%)</title><rect x="1138.0" y="37" width="0.1" height="15.0" fill="rgb(212,34,8)" rx="2" ry="2" />
<text  x="1140.95" y="47.5" ></text>
</g>
<g >
<title>ExecScanFetch (44,004,154 samples, 0.16%)</title><rect x="1011.2" y="261" width="1.8" height="15.0" fill="rgb(222,80,19)" rx="2" ry="2" />
<text  x="1014.15" y="271.5" ></text>
</g>
<g >
<title>asm_sysvec_apic_timer_interrupt (2,750,732 samples, 0.01%)</title><rect x="1081.1" y="213" width="0.1" height="15.0" fill="rgb(232,127,30)" rx="2" ry="2" />
<text  x="1084.05" y="223.5" ></text>
</g>
<g >
<title>sysvec_apic_timer_interrupt (2,750,627 samples, 0.01%)</title><rect x="88.1" y="229" width="0.1" height="15.0" fill="rgb(220,69,16)" rx="2" ry="2" />
<text  x="91.11" y="239.5" ></text>
</g>
<g >
<title>hash_search_with_hash_value (228,277,085 samples, 0.83%)</title><rect x="1144.8" y="165" width="9.8" height="15.0" fill="rgb(249,205,49)" rx="2" ry="2" />
<text  x="1147.80" y="175.5" ></text>
</g>
<g >
<title>ReleaseBuffer (11,002,741 samples, 0.04%)</title><rect x="1078.7" y="213" width="0.5" height="15.0" fill="rgb(220,71,17)" rx="2" ry="2" />
<text  x="1081.69" y="223.5" ></text>
</g>
<g >
<title>get_hash_value (2,750,659 samples, 0.01%)</title><rect x="1171.1" y="197" width="0.1" height="15.0" fill="rgb(211,27,6)" rx="2" ry="2" />
<text  x="1174.12" y="207.5" ></text>
</g>
<g >
<title>main (27,497,350,164 samples, 100.00%)</title><rect x="10.0" y="437" width="1180.0" height="15.0" fill="rgb(243,179,42)" rx="2" ry="2" />
<text  x="13.00" y="447.5" >main</text>
</g>
<g >
<title>LockBuffer (2,750,668 samples, 0.01%)</title><rect x="1106.3" y="213" width="0.1" height="15.0" fill="rgb(235,142,34)" rx="2" ry="2" />
<text  x="1109.31" y="223.5" ></text>
</g>
<g >
<title>asm_sysvec_apic_timer_interrupt (2,750,893 samples, 0.01%)</title><rect x="1138.0" y="197" width="0.1" height="15.0" fill="rgb(232,127,30)" rx="2" ry="2" />
<text  x="1140.95" y="207.5" ></text>
</g>
<g >
<title>asm_sysvec_apic_timer_interrupt (13,753,518 samples, 0.05%)</title><rect x="985.9" y="213" width="0.6" height="15.0" fill="rgb(232,127,30)" rx="2" ry="2" />
<text  x="988.89" y="223.5" ></text>
</g>
<g >
<title>arch_scale_freq_tick (2,750,732 samples, 0.01%)</title><rect x="1081.1" y="69" width="0.1" height="15.0" fill="rgb(252,219,52)" rx="2" ry="2" />
<text  x="1084.05" y="79.5" ></text>
</g>
<g >
<title>raw_parser (2,750,721 samples, 0.01%)</title><rect x="1189.9" y="309" width="0.1" height="15.0" fill="rgb(249,206,49)" rx="2" ry="2" />
<text  x="1192.88" y="319.5" ></text>
</g>
<g >
<title>LWLockAttemptLock (41,255,961 samples, 0.15%)</title><rect x="1154.8" y="181" width="1.8" height="15.0" fill="rgb(235,138,33)" rx="2" ry="2" />
<text  x="1157.83" y="191.5" ></text>
</g>
<g >
<title>core_yylex (2,750,721 samples, 0.01%)</title><rect x="1189.9" y="261" width="0.1" height="15.0" fill="rgb(215,49,11)" rx="2" ry="2" />
<text  x="1192.88" y="271.5" ></text>
</g>
<g >
<title>scheduler_tick (2,750,584 samples, 0.01%)</title><rect x="1080.9" y="69" width="0.2" height="15.0" fill="rgb(246,190,45)" rx="2" ry="2" />
<text  x="1083.94" y="79.5" ></text>
</g>
<g >
<title>all (27,497,350,164 samples, 100%)</title><rect x="10.0" y="485" width="1180.0" height="15.0" fill="rgb(213,39,9)" rx="2" ry="2" />
<text  x="13.00" y="495.5" ></text>
</g>
<g >
<title>tick_sched_handle (11,002,785 samples, 0.04%)</title><rect x="986.0" y="117" width="0.5" height="15.0" fill="rgb(219,68,16)" rx="2" ry="2" />
<text  x="989.01" y="127.5" ></text>
</g>
<g >
<title>tick_sched_handle (2,750,732 samples, 0.01%)</title><rect x="1081.1" y="117" width="0.1" height="15.0" fill="rgb(219,68,16)" rx="2" ry="2" />
<text  x="1084.05" y="127.5" ></text>
</g>
<g >
<title>asm_sysvec_apic_timer_interrupt (2,750,627 samples, 0.01%)</title><rect x="88.1" y="245" width="0.1" height="15.0" fill="rgb(232,127,30)" rx="2" ry="2" />
<text  x="91.11" y="255.5" ></text>
</g>
<g >
<title>pg_detoast_datum_packed (294,272,513 samples, 1.07%)</title><rect x="988.0" y="245" width="12.6" height="15.0" fill="rgb(238,155,37)" rx="2" ry="2" />
<text  x="991.01" y="255.5" ></text>
</g>
<g >
<title>update_process_times (2,750,584 samples, 0.01%)</title><rect x="1080.9" y="85" width="0.2" height="15.0" fill="rgb(250,209,50)" rx="2" ry="2" />
<text  x="1083.94" y="95.5" ></text>
</g>
<g >
<title>hrtimer_interrupt (11,002,785 samples, 0.04%)</title><rect x="986.0" y="165" width="0.5" height="15.0" fill="rgb(228,109,26)" rx="2" ry="2" />
<text  x="989.01" y="175.5" ></text>
</g>
<g >
<title>pg_parse_query (2,750,721 samples, 0.01%)</title><rect x="1189.9" y="325" width="0.1" height="15.0" fill="rgb(209,18,4)" rx="2" ry="2" />
<text  x="1192.88" y="335.5" ></text>
</g>
<g >
<title>pg_database_encoding_max_length (35,754,691 samples, 0.13%)</title><rect x="986.5" y="245" width="1.5" height="15.0" fill="rgb(243,176,42)" rx="2" ry="2" />
<text  x="989.48" y="255.5" ></text>
</g>
<g >
<title>ResourceOwnerRemember (11,002,361 samples, 0.04%)</title><rect x="1082.1" y="229" width="0.5" height="15.0" fill="rgb(243,178,42)" rx="2" ry="2" />
<text  x="1085.12" y="239.5" ></text>
</g>
<g >
<title>sync_regs (2,750,496 samples, 0.01%)</title><rect x="415.2" y="213" width="0.1" height="15.0" fill="rgb(228,106,25)" rx="2" ry="2" />
<text  x="418.23" y="223.5" ></text>
</g>
<g >
<title>base_yyparse (2,750,721 samples, 0.01%)</title><rect x="1189.9" y="293" width="0.1" height="15.0" fill="rgb(249,205,49)" rx="2" ry="2" />
<text  x="1192.88" y="303.5" ></text>
</g>
<g >
<title>LWLockRelease (24,751,398 samples, 0.09%)</title><rect x="1138.9" y="197" width="1.1" height="15.0" fill="rgb(217,58,13)" rx="2" ry="2" />
<text  x="1141.90" y="207.5" ></text>
</g>
<g >
<title>asm_sysvec_apic_timer_interrupt (2,750,695 samples, 0.01%)</title><rect x="415.1" y="213" width="0.1" height="15.0" fill="rgb(232,127,30)" rx="2" ry="2" />
<text  x="418.11" y="223.5" ></text>
</g>
<g >
<title>update_process_times (2,750,893 samples, 0.01%)</title><rect x="1138.0" y="85" width="0.1" height="15.0" fill="rgb(250,209,50)" rx="2" ry="2" />
<text  x="1140.95" y="95.5" ></text>
</g>
<g >
<title>GetPrivateRefCountEntry (11,002,097 samples, 0.04%)</title><rect x="1080.5" y="197" width="0.4" height="15.0" fill="rgb(250,209,50)" rx="2" ry="2" />
<text  x="1083.46" y="207.5" ></text>
</g>
<g >
<title>hrtimer_interrupt (2,750,627 samples, 0.01%)</title><rect x="88.1" y="197" width="0.1" height="15.0" fill="rgb(228,109,26)" rx="2" ry="2" />
<text  x="91.11" y="207.5" ></text>
</g>
<g >
<title>sysvec_apic_timer_interrupt (2,750,584 samples, 0.01%)</title><rect x="1080.9" y="181" width="0.2" height="15.0" fill="rgb(220,69,16)" rx="2" ry="2" />
<text  x="1083.94" y="191.5" ></text>
</g>
<g >
<title>__hrtimer_run_queues (2,750,584 samples, 0.01%)</title><rect x="1080.9" y="133" width="0.2" height="15.0" fill="rgb(237,150,35)" rx="2" ry="2" />
<text  x="1083.94" y="143.5" ></text>
</g>
<g >
<title>__hrtimer_run_queues (2,750,627 samples, 0.01%)</title><rect x="88.1" y="181" width="0.1" height="15.0" fill="rgb(237,150,35)" rx="2" ry="2" />
<text  x="91.11" y="191.5" ></text>
</g>
<g >
<title>__hrtimer_run_queues (2,750,732 samples, 0.01%)</title><rect x="1081.1" y="149" width="0.1" height="15.0" fill="rgb(237,150,35)" rx="2" ry="2" />
<text  x="1084.05" y="159.5" ></text>
</g>
<g >
<title>tick_sched_timer (2,750,893 samples, 0.01%)</title><rect x="1138.0" y="117" width="0.1" height="15.0" fill="rgb(254,227,54)" rx="2" ry="2" />
<text  x="1140.95" y="127.5" ></text>
</g>
<g >
<title>ExecInterpExpr (23,205,948,649 samples, 84.39%)</title><rect x="15.3" y="261" width="995.9" height="15.0" fill="rgb(225,96,22)" rx="2" ry="2" />
<text  x="18.31" y="271.5" >ExecInterpExpr</text>
</g>
<g >
<title>srso_alias_safe_ret (2,750,544 samples, 0.01%)</title><rect x="986.1" y="69" width="0.1" height="15.0" fill="rgb(242,170,40)" rx="2" ry="2" />
<text  x="989.12" y="79.5" ></text>
</g>
<g >
<title>tick_sched_handle (2,750,893 samples, 0.01%)</title><rect x="1138.0" y="101" width="0.1" height="15.0" fill="rgb(219,68,16)" rx="2" ry="2" />
<text  x="1140.95" y="111.5" ></text>
</g>
<g >
<title>tick_sched_timer (2,750,627 samples, 0.01%)</title><rect x="88.1" y="165" width="0.1" height="15.0" fill="rgb(254,227,54)" rx="2" ry="2" />
<text  x="91.11" y="175.5" ></text>
</g>
<g >
<title>__libc_start_call_main (27,497,350,164 samples, 100.00%)</title><rect x="10.0" y="453" width="1180.0" height="15.0" fill="rgb(210,26,6)" rx="2" ry="2" />
<text  x="13.00" y="463.5" >__libc_start_call_main</text>
</g>
<g >
<title>UnpinBufferNoOwner (2,750,047 samples, 0.01%)</title><rect x="1082.6" y="229" width="0.1" height="15.0" fill="rgb(253,221,53)" rx="2" ry="2" />
<text  x="1085.59" y="239.5" ></text>
</g>
<g >
<title>pgstat_count_io_op (24,753,605 samples, 0.09%)</title><rect x="1172.2" y="197" width="1.0" height="15.0" fill="rgb(207,10,2)" rx="2" ry="2" />
<text  x="1175.18" y="207.5" ></text>
</g>
<g >
<title>ResourceOwnerEnlarge (5,500,196 samples, 0.02%)</title><rect x="1078.5" y="197" width="0.2" height="15.0" fill="rgb(223,86,20)" rx="2" ry="2" />
<text  x="1081.46" y="207.5" ></text>
</g>
<g >
<title>sysvec_apic_timer_interrupt (11,002,785 samples, 0.04%)</title><rect x="986.0" y="197" width="0.5" height="15.0" fill="rgb(220,69,16)" rx="2" ry="2" />
<text  x="989.01" y="207.5" ></text>
</g>
<g >
<title>ExecScanFetch (2,750,744 samples, 0.01%)</title><rect x="1187.8" y="277" width="0.1" height="15.0" fill="rgb(222,80,19)" rx="2" ry="2" />
<text  x="1190.76" y="287.5" ></text>
</g>
<g >
<title>SeqNext (3,647,838,695 samples, 13.27%)</title><rect x="1016.7" y="261" width="156.5" height="15.0" fill="rgb(214,41,10)" rx="2" ry="2" />
<text  x="1019.70" y="271.5" >SeqNext</text>
</g>
<g >
<title>task_tick_fair (5,501,393 samples, 0.02%)</title><rect x="986.2" y="69" width="0.3" height="15.0" fill="rgb(217,57,13)" rx="2" ry="2" />
<text  x="989.24" y="79.5" ></text>
</g>
<g >
<title>MemoryContextReset (35,755,518 samples, 0.13%)</title><rect x="1187.9" y="277" width="1.5" height="15.0" fill="rgb(210,26,6)" rx="2" ry="2" />
<text  x="1190.88" y="287.5" ></text>
</g>
<g >
<title>tick_sched_handle (2,750,627 samples, 0.01%)</title><rect x="88.1" y="149" width="0.1" height="15.0" fill="rgb(219,68,16)" rx="2" ry="2" />
<text  x="91.11" y="159.5" ></text>
</g>
<g >
<title>PinBuffer (162,273,214 samples, 0.59%)</title><rect x="1159.9" y="181" width="7.0" height="15.0" fill="rgb(219,64,15)" rx="2" ry="2" />
<text  x="1162.90" y="191.5" ></text>
</g>
<g >
<title>update_load_avg (2,750,480 samples, 0.01%)</title><rect x="986.4" y="53" width="0.1" height="15.0" fill="rgb(240,165,39)" rx="2" ry="2" />
<text  x="989.36" y="63.5" ></text>
</g>
<g >
<title>native_read_msr (2,750,732 samples, 0.01%)</title><rect x="1081.1" y="53" width="0.1" height="15.0" fill="rgb(211,30,7)" rx="2" ry="2" />
<text  x="1084.05" y="63.5" ></text>
</g>
<g >
<title>__sysvec_apic_timer_interrupt (2,750,584 samples, 0.01%)</title><rect x="1080.9" y="165" width="0.2" height="15.0" fill="rgb(242,173,41)" rx="2" ry="2" />
<text  x="1083.94" y="175.5" ></text>
</g>
<g >
<title>hash_bytes (22,002,869 samples, 0.08%)</title><rect x="1171.2" y="197" width="1.0" height="15.0" fill="rgb(227,102,24)" rx="2" ry="2" />
<text  x="1174.23" y="207.5" ></text>
</g>
<g >
<title>scheduler_tick (2,750,627 samples, 0.01%)</title><rect x="88.1" y="117" width="0.1" height="15.0" fill="rgb(246,190,45)" rx="2" ry="2" />
<text  x="91.11" y="127.5" ></text>
</g>
<g >
<title>PostgresMain (27,497,350,164 samples, 100.00%)</title><rect x="10.0" y="357" width="1180.0" height="15.0" fill="rgb(227,103,24)" rx="2" ry="2" />
<text  x="13.00" y="367.5" >PostgresMain</text>
</g>
<g >
<title>pg_mbstrlen_with_len (5,501,497 samples, 0.02%)</title><rect x="1000.6" y="245" width="0.3" height="15.0" fill="rgb(228,106,25)" rx="2" ry="2" />
<text  x="1003.64" y="255.5" ></text>
</g>
<g >
<title>__sysvec_apic_timer_interrupt (2,750,695 samples, 0.01%)</title><rect x="415.1" y="181" width="0.1" height="15.0" fill="rgb(242,173,41)" rx="2" ry="2" />
<text  x="418.11" y="191.5" ></text>
</g>
<g >
<title>GetPrivateRefCountEntry (22,004,023 samples, 0.08%)</title><rect x="1107.0" y="197" width="1.0" height="15.0" fill="rgb(250,209,50)" rx="2" ry="2" />
<text  x="1110.02" y="207.5" ></text>
</g>
<g >
<title>BufTableLookup (228,277,085 samples, 0.83%)</title><rect x="1144.8" y="181" width="9.8" height="15.0" fill="rgb(224,89,21)" rx="2" ry="2" />
<text  x="1147.80" y="191.5" ></text>
</g>
</g>
</svg>
