<?xml version="1.0" standalone="no"?>
<!DOCTYPE svg PUBLIC "-//W3C//DTD SVG 1.1//EN" "http://www.w3.org/Graphics/SVG/1.1/DTD/svg11.dtd">
<svg version="1.1" width="1200" height="582" onload="init(evt)" viewBox="0 0 1200 582" xmlns="http://www.w3.org/2000/svg" xmlns:xlink="http://www.w3.org/1999/xlink">
<!-- Flame graph stack visualization. See https://github.com/brendangregg/FlameGraph for latest version, and http://www.brendangregg.com/flamegraphs.html for examples. -->
<!-- NOTES:  -->
<defs>
	<linearGradient id="background" y1="0" y2="1" x1="0" x2="0" >
		<stop stop-color="#eeeeee" offset="5%" />
		<stop stop-color="#eeeeb0" offset="95%" />
	</linearGradient>
</defs>
<style type="text/css">
	text { font-family:Verdana; font-size:12px; fill:rgb(0,0,0); }
	#search, #ignorecase { opacity:0.1; cursor:pointer; }
	#search:hover, #search.show, #ignorecase:hover, #ignorecase.show { opacity:1; }
	#subtitle { text-anchor:middle; font-color:rgb(160,160,160); }
	#title { text-anchor:middle; font-size:17px}
	#unzoom { cursor:pointer; }
	#frames > *:hover { stroke:black; stroke-width:0.5; cursor:pointer; }
	.hide { display:none; }
	.parent { opacity:0.5; }
</style>
<script type="text/ecmascript">
<![CDATA[
	"use strict";
	var details, searchbtn, unzoombtn, matchedtxt, svg, searching, currentSearchTerm, ignorecase, ignorecaseBtn;
	function init(evt) {
		details = document.getElementById("details").firstChild;
		searchbtn = document.getElementById("search");
		ignorecaseBtn = document.getElementById("ignorecase");
		unzoombtn = document.getElementById("unzoom");
		matchedtxt = document.getElementById("matched");
		svg = document.getElementsByTagName("svg")[0];
		searching = 0;
		currentSearchTerm = null;

		// use GET parameters to restore a flamegraphs state.
		var params = get_params();
		if (params.x && params.y)
			zoom(find_group(document.querySelector('[x="' + params.x + '"][y="' + params.y + '"]')));
                if (params.s) search(params.s);
	}

	// event listeners
	window.addEventListener("click", function(e) {
		var target = find_group(e.target);
		if (target) {
			if (target.nodeName == "a") {
				if (e.ctrlKey === false) return;
				e.preventDefault();
			}
			if (target.classList.contains("parent")) unzoom(true);
			zoom(target);
			if (!document.querySelector('.parent')) {
				// we have basically done a clearzoom so clear the url
				var params = get_params();
				if (params.x) delete params.x;
				if (params.y) delete params.y;
				history.replaceState(null, null, parse_params(params));
				unzoombtn.classList.add("hide");
				return;
			}

			// set parameters for zoom state
			var el = target.querySelector("rect");
			if (el && el.attributes && el.attributes.y && el.attributes._orig_x) {
				var params = get_params()
				params.x = el.attributes._orig_x.value;
				params.y = el.attributes.y.value;
				history.replaceState(null, null, parse_params(params));
			}
		}
		else if (e.target.id == "unzoom") clearzoom();
		else if (e.target.id == "search") search_prompt();
		else if (e.target.id == "ignorecase") toggle_ignorecase();
	}, false)

	// mouse-over for info
	// show
	window.addEventListener("mouseover", function(e) {
		var target = find_group(e.target);
		if (target) details.nodeValue = "Function: " + g_to_text(target);
	}, false)

	// clear
	window.addEventListener("mouseout", function(e) {
		var target = find_group(e.target);
		if (target) details.nodeValue = ' ';
	}, false)

	// ctrl-F for search
	// ctrl-I to toggle case-sensitive search
	window.addEventListener("keydown",function (e) {
		if (e.keyCode === 114 || (e.ctrlKey && e.keyCode === 70)) {
			e.preventDefault();
			search_prompt();
		}
		else if (e.ctrlKey && e.keyCode === 73) {
			e.preventDefault();
			toggle_ignorecase();
		}
	}, false)

	// functions
	function get_params() {
		var params = {};
		var paramsarr = window.location.search.substr(1).split('&');
		for (var i = 0; i < paramsarr.length; ++i) {
			var tmp = paramsarr[i].split("=");
			if (!tmp[0] || !tmp[1]) continue;
			params[tmp[0]]  = decodeURIComponent(tmp[1]);
		}
		return params;
	}
	function parse_params(params) {
		var uri = "?";
		for (var key in params) {
			uri += key + '=' + encodeURIComponent(params[key]) + '&';
		}
		if (uri.slice(-1) == "&")
			uri = uri.substring(0, uri.length - 1);
		if (uri == '?')
			uri = window.location.href.split('?')[0];
		return uri;
	}
	function find_child(node, selector) {
		var children = node.querySelectorAll(selector);
		if (children.length) return children[0];
	}
	function find_group(node) {
		var parent = node.parentElement;
		if (!parent) return;
		if (parent.id == "frames") return node;
		return find_group(parent);
	}
	function orig_save(e, attr, val) {
		if (e.attributes["_orig_" + attr] != undefined) return;
		if (e.attributes[attr] == undefined) return;
		if (val == undefined) val = e.attributes[attr].value;
		e.setAttribute("_orig_" + attr, val);
	}
	function orig_load(e, attr) {
		if (e.attributes["_orig_"+attr] == undefined) return;
		e.attributes[attr].value = e.attributes["_orig_" + attr].value;
		e.removeAttribute("_orig_"+attr);
	}
	function g_to_text(e) {
		var text = find_child(e, "title").firstChild.nodeValue;
		return (text)
	}
	function g_to_func(e) {
		var func = g_to_text(e);
		// if there's any manipulation we want to do to the function
		// name before it's searched, do it here before returning.
		return (func);
	}
	function update_text(e) {
		var r = find_child(e, "rect");
		var t = find_child(e, "text");
		var w = parseFloat(r.attributes.width.value) -3;
		var txt = find_child(e, "title").textContent.replace(/\([^(]*\)$/,"");
		t.attributes.x.value = parseFloat(r.attributes.x.value) + 3;

		// Smaller than this size won't fit anything
		if (w < 2 * 12 * 0.59) {
			t.textContent = "";
			return;
		}

		t.textContent = txt;
		var sl = t.getSubStringLength(0, txt.length);
		// check if only whitespace or if we can fit the entire string into width w
		if (/^ *$/.test(txt) || sl < w)
			return;

		// this isn't perfect, but gives a good starting point
		// and avoids calling getSubStringLength too often
		var start = Math.floor((w/sl) * txt.length);
		for (var x = start; x > 0; x = x-2) {
			if (t.getSubStringLength(0, x + 2) <= w) {
				t.textContent = txt.substring(0, x) + "..";
				return;
			}
		}
		t.textContent = "";
	}

	// zoom
	function zoom_reset(e) {
		if (e.attributes != undefined) {
			orig_load(e, "x");
			orig_load(e, "width");
		}
		if (e.childNodes == undefined) return;
		for (var i = 0, c = e.childNodes; i < c.length; i++) {
			zoom_reset(c[i]);
		}
	}
	function zoom_child(e, x, ratio) {
		if (e.attributes != undefined) {
			if (e.attributes.x != undefined) {
				orig_save(e, "x");
				e.attributes.x.value = (parseFloat(e.attributes.x.value) - x - 10) * ratio + 10;
				if (e.tagName == "text")
					e.attributes.x.value = find_child(e.parentNode, "rect[x]").attributes.x.value + 3;
			}
			if (e.attributes.width != undefined) {
				orig_save(e, "width");
				e.attributes.width.value = parseFloat(e.attributes.width.value) * ratio;
			}
		}

		if (e.childNodes == undefined) return;
		for (var i = 0, c = e.childNodes; i < c.length; i++) {
			zoom_child(c[i], x - 10, ratio);
		}
	}
	function zoom_parent(e) {
		if (e.attributes) {
			if (e.attributes.x != undefined) {
				orig_save(e, "x");
				e.attributes.x.value = 10;
			}
			if (e.attributes.width != undefined) {
				orig_save(e, "width");
				e.attributes.width.value = parseInt(svg.width.baseVal.value) - (10 * 2);
			}
		}
		if (e.childNodes == undefined) return;
		for (var i = 0, c = e.childNodes; i < c.length; i++) {
			zoom_parent(c[i]);
		}
	}
	function zoom(node) {
		var attr = find_child(node, "rect").attributes;
		var width = parseFloat(attr.width.value);
		var xmin = parseFloat(attr.x.value);
		var xmax = parseFloat(xmin + width);
		var ymin = parseFloat(attr.y.value);
		var ratio = (svg.width.baseVal.value - 2 * 10) / width;

		// XXX: Workaround for JavaScript float issues (fix me)
		var fudge = 0.0001;

		unzoombtn.classList.remove("hide");

		var el = document.getElementById("frames").children;
		for (var i = 0; i < el.length; i++) {
			var e = el[i];
			var a = find_child(e, "rect").attributes;
			var ex = parseFloat(a.x.value);
			var ew = parseFloat(a.width.value);
			var upstack;
			// Is it an ancestor
			if (0 == 0) {
				upstack = parseFloat(a.y.value) > ymin;
			} else {
				upstack = parseFloat(a.y.value) < ymin;
			}
			if (upstack) {
				// Direct ancestor
				if (ex <= xmin && (ex+ew+fudge) >= xmax) {
					e.classList.add("parent");
					zoom_parent(e);
					update_text(e);
				}
				// not in current path
				else
					e.classList.add("hide");
			}
			// Children maybe
			else {
				// no common path
				if (ex < xmin || ex + fudge >= xmax) {
					e.classList.add("hide");
				}
				else {
					zoom_child(e, xmin, ratio);
					update_text(e);
				}
			}
		}
		search();
	}
	function unzoom(dont_update_text) {
		unzoombtn.classList.add("hide");
		var el = document.getElementById("frames").children;
		for(var i = 0; i < el.length; i++) {
			el[i].classList.remove("parent");
			el[i].classList.remove("hide");
			zoom_reset(el[i]);
			if(!dont_update_text) update_text(el[i]);
		}
		search();
	}
	function clearzoom() {
		unzoom();

		// remove zoom state
		var params = get_params();
		if (params.x) delete params.x;
		if (params.y) delete params.y;
		history.replaceState(null, null, parse_params(params));
	}

	// search
	function toggle_ignorecase() {
		ignorecase = !ignorecase;
		if (ignorecase) {
			ignorecaseBtn.classList.add("show");
		} else {
			ignorecaseBtn.classList.remove("show");
		}
		reset_search();
		search();
	}
	function reset_search() {
		var el = document.querySelectorAll("#frames rect");
		for (var i = 0; i < el.length; i++) {
			orig_load(el[i], "fill")
		}
		var params = get_params();
		delete params.s;
		history.replaceState(null, null, parse_params(params));
	}
	function search_prompt() {
		if (!searching) {
			var term = prompt("Enter a search term (regexp " +
			    "allowed, eg: ^ext4_)"
			    + (ignorecase ? ", ignoring case" : "")
			    + "\nPress Ctrl-i to toggle case sensitivity", "");
			if (term != null) search(term);
		} else {
			reset_search();
			searching = 0;
			currentSearchTerm = null;
			searchbtn.classList.remove("show");
			searchbtn.firstChild.nodeValue = "Search"
			matchedtxt.classList.add("hide");
			matchedtxt.firstChild.nodeValue = ""
		}
	}
	function search(term) {
		if (term) currentSearchTerm = term;

		var re = new RegExp(currentSearchTerm, ignorecase ? 'i' : '');
		var el = document.getElementById("frames").children;
		var matches = new Object();
		var maxwidth = 0;
		for (var i = 0; i < el.length; i++) {
			var e = el[i];
			var func = g_to_func(e);
			var rect = find_child(e, "rect");
			if (func == null || rect == null)
				continue;

			// Save max width. Only works as we have a root frame
			var w = parseFloat(rect.attributes.width.value);
			if (w > maxwidth)
				maxwidth = w;

			if (func.match(re)) {
				// highlight
				var x = parseFloat(rect.attributes.x.value);
				orig_save(rect, "fill");
				rect.attributes.fill.value = "rgb(230,0,230)";

				// remember matches
				if (matches[x] == undefined) {
					matches[x] = w;
				} else {
					if (w > matches[x]) {
						// overwrite with parent
						matches[x] = w;
					}
				}
				searching = 1;
			}
		}
		if (!searching)
			return;
		var params = get_params();
		params.s = currentSearchTerm;
		history.replaceState(null, null, parse_params(params));

		searchbtn.classList.add("show");
		searchbtn.firstChild.nodeValue = "Reset Search";

		// calculate percent matched, excluding vertical overlap
		var count = 0;
		var lastx = -1;
		var lastw = 0;
		var keys = Array();
		for (k in matches) {
			if (matches.hasOwnProperty(k))
				keys.push(k);
		}
		// sort the matched frames by their x location
		// ascending, then width descending
		keys.sort(function(a, b){
			return a - b;
		});
		// Step through frames saving only the biggest bottom-up frames
		// thanks to the sort order. This relies on the tree property
		// where children are always smaller than their parents.
		var fudge = 0.0001;	// JavaScript floating point
		for (var k in keys) {
			var x = parseFloat(keys[k]);
			var w = matches[keys[k]];
			if (x >= lastx + lastw - fudge) {
				count += w;
				lastx = x;
				lastw = w;
			}
		}
		// display matched percent
		matchedtxt.classList.remove("hide");
		var pct = 100 * count / maxwidth;
		if (pct != 100) pct = pct.toFixed(1)
		matchedtxt.firstChild.nodeValue = "Matched: " + pct + "%";
	}
]]>
</script>
<rect x="0.0" y="0" width="1200.0" height="582.0" fill="url(#background)"  />
<text id="title" x="600.00" y="24" >Flame Graph</text>
<text id="details" x="10.00" y="565" > </text>
<text id="unzoom" x="10.00" y="24" class="hide">Reset Zoom</text>
<text id="search" x="1090.00" y="24" >Search</text>
<text id="ignorecase" x="1174.00" y="24" >ic</text>
<text id="matched" x="1090.00" y="565" > </text>
<g id="frames">
<g >
<title>bpcharlen (38,504,829 samples, 0.14%)</title><rect x="1175.0" y="309" width="1.7" height="15.0" fill="rgb(221,77,18)" rx="2" ry="2" />
<text  x="1178.01" y="319.5" ></text>
</g>
<g >
<title>__sysvec_apic_timer_interrupt (11,001,863 samples, 0.04%)</title><rect x="994.1" y="229" width="0.5" height="15.0" fill="rgb(242,173,41)" rx="2" ry="2" />
<text  x="997.10" y="239.5" ></text>
</g>
<g >
<title>trigger_load_balance (2,751,087 samples, 0.01%)</title><rect x="1158.2" y="53" width="0.2" height="15.0" fill="rgb(228,108,26)" rx="2" ry="2" />
<text  x="1161.25" y="63.5" ></text>
</g>
<g >
<title>PostgresMain (27,494,324,000 samples, 100.00%)</title><rect x="10.0" y="405" width="1180.0" height="15.0" fill="rgb(227,103,24)" rx="2" ry="2" />
<text  x="13.00" y="415.5" >PostgresMain</text>
</g>
<g >
<title>srso_alias_safe_ret (2,750,476 samples, 0.01%)</title><rect x="482.1" y="261" width="0.1" height="15.0" fill="rgb(242,170,40)" rx="2" ry="2" />
<text  x="485.06" y="271.5" ></text>
</g>
<g >
<title>ExecStoreBufferHeapTuple (11,001,545 samples, 0.04%)</title><rect x="1058.0" y="293" width="0.4" height="15.0" fill="rgb(230,117,28)" rx="2" ry="2" />
<text  x="1060.96" y="303.5" ></text>
</g>
<g >
<title>LWLockRelease (19,245,484 samples, 0.07%)</title><rect x="1131.7" y="245" width="0.8" height="15.0" fill="rgb(217,58,13)" rx="2" ry="2" />
<text  x="1134.66" y="255.5" ></text>
</g>
<g >
<title>LWLockAttemptLock (19,245,661 samples, 0.07%)</title><rect x="1128.8" y="245" width="0.9" height="15.0" fill="rgb(235,138,33)" rx="2" ry="2" />
<text  x="1131.83" y="255.5" ></text>
</g>
<g >
<title>__libc_start_call_main (27,494,324,000 samples, 100.00%)</title><rect x="10.0" y="501" width="1180.0" height="15.0" fill="rgb(210,26,6)" rx="2" ry="2" />
<text  x="13.00" y="511.5" >__libc_start_call_main</text>
</g>
<g >
<title>LWLockRelease (49,502,183 samples, 0.18%)</title><rect x="1160.0" y="229" width="2.1" height="15.0" fill="rgb(217,58,13)" rx="2" ry="2" />
<text  x="1163.02" y="239.5" ></text>
</g>
<g >
<title>main (27,494,324,000 samples, 100.00%)</title><rect x="10.0" y="485" width="1180.0" height="15.0" fill="rgb(243,179,42)" rx="2" ry="2" />
<text  x="13.00" y="495.5" >main</text>
</g>
<g >
<title>pg_detoast_datum_packed (24,746,798 samples, 0.09%)</title><rect x="995.2" y="293" width="1.0" height="15.0" fill="rgb(238,155,37)" rx="2" ry="2" />
<text  x="998.16" y="303.5" ></text>
</g>
<g >
<title>tick_sched_handle (8,251,140 samples, 0.03%)</title><rect x="994.2" y="165" width="0.4" height="15.0" fill="rgb(219,68,16)" rx="2" ry="2" />
<text  x="997.22" y="175.5" ></text>
</g>
<g >
<title>update_wall_time (2,750,723 samples, 0.01%)</title><rect x="994.1" y="133" width="0.1" height="15.0" fill="rgb(207,11,2)" rx="2" ry="2" />
<text  x="997.10" y="143.5" ></text>
</g>
<g >
<title>hrtimer_interrupt (2,750,665 samples, 0.01%)</title><rect x="1051.8" y="245" width="0.1" height="15.0" fill="rgb(228,109,26)" rx="2" ry="2" />
<text  x="1054.82" y="255.5" ></text>
</g>
<g >
<title>tick_sched_do_timer (2,750,723 samples, 0.01%)</title><rect x="994.1" y="165" width="0.1" height="15.0" fill="rgb(227,104,25)" rx="2" ry="2" />
<text  x="997.10" y="175.5" ></text>
</g>
<g >
<title>asm_sysvec_apic_timer_interrupt (2,749,400 samples, 0.01%)</title><rect x="1129.8" y="245" width="0.1" height="15.0" fill="rgb(232,127,30)" rx="2" ry="2" />
<text  x="1132.78" y="255.5" ></text>
</g>
<g >
<title>all (27,494,324,000 samples, 100%)</title><rect x="10.0" y="533" width="1180.0" height="15.0" fill="rgb(213,39,9)" rx="2" ry="2" />
<text  x="13.00" y="543.5" ></text>
</g>
<g >
<title>sysvec_apic_timer_interrupt (2,751,087 samples, 0.01%)</title><rect x="1158.2" y="181" width="0.2" height="15.0" fill="rgb(220,69,16)" rx="2" ry="2" />
<text  x="1161.25" y="191.5" ></text>
</g>
<g >
<title>bpcharlen (21,338,551,381 samples, 77.61%)</title><rect x="78.8" y="293" width="915.8" height="15.0" fill="rgb(221,77,18)" rx="2" ry="2" />
<text  x="81.77" y="303.5" >bpcharlen</text>
</g>
<g >
<title>ReleaseBuffer (16,699,674 samples, 0.06%)</title><rect x="1076.2" y="261" width="0.7" height="15.0" fill="rgb(220,71,17)" rx="2" ry="2" />
<text  x="1079.16" y="271.5" ></text>
</g>
<g >
<title>__sysvec_apic_timer_interrupt (2,750,624 samples, 0.01%)</title><rect x="105.7" y="245" width="0.1" height="15.0" fill="rgb(242,173,41)" rx="2" ry="2" />
<text  x="108.71" y="255.5" ></text>
</g>
<g >
<title>hrtimer_interrupt (2,750,402 samples, 0.01%)</title><rect x="1044.9" y="213" width="0.1" height="15.0" fill="rgb(228,109,26)" rx="2" ry="2" />
<text  x="1047.86" y="223.5" ></text>
</g>
<g >
<title>account_user_time (2,750,402 samples, 0.01%)</title><rect x="1044.9" y="117" width="0.1" height="15.0" fill="rgb(225,96,23)" rx="2" ry="2" />
<text  x="1047.86" y="127.5" ></text>
</g>
<g >
<title>pg_utf_mblen_private (11,938,930,891 samples, 43.42%)</title><rect x="482.2" y="277" width="512.4" height="15.0" fill="rgb(242,173,41)" rx="2" ry="2" />
<text  x="485.18" y="287.5" >pg_utf_mblen_private</text>
</g>
<g >
<title>hrtimer_interrupt (11,001,863 samples, 0.04%)</title><rect x="994.1" y="213" width="0.5" height="15.0" fill="rgb(228,109,26)" rx="2" ry="2" />
<text  x="997.10" y="223.5" ></text>
</g>
<g >
<title>BufferGetBlockNumber (8,251,079 samples, 0.03%)</title><rect x="1070.4" y="277" width="0.3" height="15.0" fill="rgb(206,7,1)" rx="2" ry="2" />
<text  x="1073.38" y="287.5" ></text>
</g>
<g >
<title>exec_simple_query (27,494,324,000 samples, 100.00%)</title><rect x="10.0" y="389" width="1180.0" height="15.0" fill="rgb(211,29,6)" rx="2" ry="2" />
<text  x="13.00" y="399.5" >exec_simple_query</text>
</g>
<g >
<title>ResourceOwnerRemember (5,500,287 samples, 0.02%)</title><rect x="1078.8" y="277" width="0.2" height="15.0" fill="rgb(243,178,42)" rx="2" ry="2" />
<text  x="1081.77" y="287.5" ></text>
</g>
<g >
<title>tick_sched_timer (5,500,438 samples, 0.02%)</title><rect x="481.8" y="181" width="0.3" height="15.0" fill="rgb(254,227,54)" rx="2" ry="2" />
<text  x="484.82" y="191.5" ></text>
</g>
<g >
<title>UnpinBufferNoOwner (27,501,590 samples, 0.10%)</title><rect x="1077.4" y="261" width="1.1" height="15.0" fill="rgb(253,221,53)" rx="2" ry="2" />
<text  x="1080.35" y="271.5" ></text>
</g>
<g >
<title>update_process_times (2,749,400 samples, 0.01%)</title><rect x="1129.8" y="133" width="0.1" height="15.0" fill="rgb(250,209,50)" rx="2" ry="2" />
<text  x="1132.78" y="143.5" ></text>
</g>
<g >
<title>get_hash_value (2,750,314 samples, 0.01%)</title><rect x="1172.9" y="245" width="0.1" height="15.0" fill="rgb(211,27,6)" rx="2" ry="2" />
<text  x="1175.88" y="255.5" ></text>
</g>
<g >
<title>irqentry_enter (2,750,554 samples, 0.01%)</title><rect x="78.6" y="277" width="0.2" height="15.0" fill="rgb(223,84,20)" rx="2" ry="2" />
<text  x="81.65" y="287.5" ></text>
</g>
<g >
<title>sysvec_apic_timer_interrupt (2,749,400 samples, 0.01%)</title><rect x="1129.8" y="229" width="0.1" height="15.0" fill="rgb(220,69,16)" rx="2" ry="2" />
<text  x="1132.78" y="239.5" ></text>
</g>
<g >
<title>__hrtimer_run_queues (2,750,624 samples, 0.01%)</title><rect x="105.7" y="213" width="0.1" height="15.0" fill="rgb(237,150,35)" rx="2" ry="2" />
<text  x="108.71" y="223.5" ></text>
</g>
<g >
<title>sysvec_apic_timer_interrupt (2,750,665 samples, 0.01%)</title><rect x="1051.8" y="277" width="0.1" height="15.0" fill="rgb(220,69,16)" rx="2" ry="2" />
<text  x="1054.82" y="287.5" ></text>
</g>
<g >
<title>ReleaseBuffer (5,500,553 samples, 0.02%)</title><rect x="1078.5" y="277" width="0.3" height="15.0" fill="rgb(220,71,17)" rx="2" ry="2" />
<text  x="1081.53" y="287.5" ></text>
</g>
<g >
<title>perf_event_task_tick (2,750,372 samples, 0.01%)</title><rect x="481.8" y="117" width="0.1" height="15.0" fill="rgb(205,3,0)" rx="2" ry="2" />
<text  x="484.82" y="127.5" ></text>
</g>
<g >
<title>tick_do_update_jiffies64 (2,750,624 samples, 0.01%)</title><rect x="105.7" y="165" width="0.1" height="15.0" fill="rgb(208,14,3)" rx="2" ry="2" />
<text  x="108.71" y="175.5" ></text>
</g>
<g >
<title>BufTableLookup (310,999,586 samples, 1.13%)</title><rect x="1145.0" y="229" width="13.4" height="15.0" fill="rgb(224,89,21)" rx="2" ry="2" />
<text  x="1148.02" y="239.5" ></text>
</g>
<g >
<title>hash_search_with_hash_value (2,750,783 samples, 0.01%)</title><rect x="1171.8" y="229" width="0.1" height="15.0" fill="rgb(249,205,49)" rx="2" ry="2" />
<text  x="1174.82" y="239.5" ></text>
</g>
<g >
<title>tick_do_update_jiffies64 (2,750,723 samples, 0.01%)</title><rect x="994.1" y="149" width="0.1" height="15.0" fill="rgb(208,14,3)" rx="2" ry="2" />
<text  x="997.10" y="159.5" ></text>
</g>
<g >
<title>StartReadBuffer (941,216,420 samples, 3.42%)</title><rect x="1132.5" y="245" width="40.4" height="15.0" fill="rgb(222,78,18)" rx="2" ry="2" />
<text  x="1135.49" y="255.5" >Sta..</text>
</g>
<g >
<title>ResourceOwnerEnlarge (5,500,490 samples, 0.02%)</title><rect x="1076.9" y="261" width="0.2" height="15.0" fill="rgb(223,86,20)" rx="2" ry="2" />
<text  x="1079.88" y="271.5" ></text>
</g>
<g >
<title>hash_search_with_hash_value (2,750,063 samples, 0.01%)</title><rect x="1174.8" y="181" width="0.1" height="15.0" fill="rgb(249,205,49)" rx="2" ry="2" />
<text  x="1177.77" y="191.5" ></text>
</g>
<g >
<title>pg_database_encoding_max_length (13,751,524 samples, 0.05%)</title><rect x="994.6" y="293" width="0.6" height="15.0" fill="rgb(243,176,42)" rx="2" ry="2" />
<text  x="997.57" y="303.5" ></text>
</g>
<g >
<title>ExecInterpExpr (54,989,509 samples, 0.20%)</title><rect x="10.0" y="325" width="2.4" height="15.0" fill="rgb(225,96,22)" rx="2" ry="2" />
<text  x="13.00" y="335.5" ></text>
</g>
<g >
<title>account_process_tick (2,749,981 samples, 0.01%)</title><rect x="994.2" y="133" width="0.1" height="15.0" fill="rgb(234,136,32)" rx="2" ry="2" />
<text  x="997.22" y="143.5" ></text>
</g>
<g >
<title>LWLockAcquire (5,501,212 samples, 0.02%)</title><rect x="1158.4" y="229" width="0.2" height="15.0" fill="rgb(209,20,4)" rx="2" ry="2" />
<text  x="1161.37" y="239.5" ></text>
</g>
<g >
<title>timekeeping_advance (2,750,723 samples, 0.01%)</title><rect x="994.1" y="117" width="0.1" height="15.0" fill="rgb(227,104,25)" rx="2" ry="2" />
<text  x="997.10" y="127.5" ></text>
</g>
<g >
<title>StartReadBuffers (2,750,063 samples, 0.01%)</title><rect x="1174.8" y="213" width="0.1" height="15.0" fill="rgb(229,111,26)" rx="2" ry="2" />
<text  x="1177.77" y="223.5" ></text>
</g>
<g >
<title>__hrtimer_run_queues (11,001,863 samples, 0.04%)</title><rect x="994.1" y="197" width="0.5" height="15.0" fill="rgb(237,150,35)" rx="2" ry="2" />
<text  x="997.10" y="207.5" ></text>
</g>
<g >
<title>LockBuffer (2,750,463 samples, 0.01%)</title><rect x="1129.7" y="245" width="0.1" height="15.0" fill="rgb(235,142,34)" rx="2" ry="2" />
<text  x="1132.66" y="255.5" ></text>
</g>
<g >
<title>hash_bytes (27,505,135 samples, 0.10%)</title><rect x="1173.0" y="245" width="1.2" height="15.0" fill="rgb(227,102,24)" rx="2" ry="2" />
<text  x="1176.00" y="255.5" ></text>
</g>
<g >
<title>postmaster_child_launch (27,494,324,000 samples, 100.00%)</title><rect x="10.0" y="437" width="1180.0" height="15.0" fill="rgb(206,5,1)" rx="2" ry="2" />
<text  x="13.00" y="447.5" >postmaster_child_launch</text>
</g>
<g >
<title>heap_prepare_pagescan (679,656,138 samples, 2.47%)</title><rect x="1100.7" y="261" width="29.2" height="15.0" fill="rgb(222,82,19)" rx="2" ry="2" />
<text  x="1103.72" y="271.5" >he..</text>
</g>
<g >
<title>trigger_load_balance (2,750,963 samples, 0.01%)</title><rect x="994.5" y="117" width="0.1" height="15.0" fill="rgb(228,108,26)" rx="2" ry="2" />
<text  x="997.45" y="127.5" ></text>
</g>
<g >
<title>ExecSeqScanWithQual (27,395,329,803 samples, 99.64%)</title><rect x="12.4" y="325" width="1175.7" height="15.0" fill="rgb(254,227,54)" rx="2" ry="2" />
<text  x="15.36" y="335.5" >ExecSeqScanWithQual</text>
</g>
<g >
<title>tick_sched_handle (2,751,087 samples, 0.01%)</title><rect x="1158.2" y="101" width="0.2" height="15.0" fill="rgb(219,68,16)" rx="2" ry="2" />
<text  x="1161.25" y="111.5" ></text>
</g>
<g >
<title>asm_sysvec_apic_timer_interrupt (2,750,624 samples, 0.01%)</title><rect x="105.7" y="277" width="0.1" height="15.0" fill="rgb(232,127,30)" rx="2" ry="2" />
<text  x="108.71" y="287.5" ></text>
</g>
<g >
<title>tick_sched_do_timer (2,750,624 samples, 0.01%)</title><rect x="105.7" y="181" width="0.1" height="15.0" fill="rgb(227,104,25)" rx="2" ry="2" />
<text  x="108.71" y="191.5" ></text>
</g>
<g >
<title>PortalRunSelect (27,494,324,000 samples, 100.00%)</title><rect x="10.0" y="357" width="1180.0" height="15.0" fill="rgb(245,188,45)" rx="2" ry="2" />
<text  x="13.00" y="367.5" >PortalRunSelect</text>
</g>
<g >
<title>hrtimer_interrupt (5,500,438 samples, 0.02%)</title><rect x="481.8" y="213" width="0.3" height="15.0" fill="rgb(228,109,26)" rx="2" ry="2" />
<text  x="484.82" y="223.5" ></text>
</g>
<g >
<title>tick_sched_handle (5,500,438 samples, 0.02%)</title><rect x="481.8" y="165" width="0.3" height="15.0" fill="rgb(219,68,16)" rx="2" ry="2" />
<text  x="484.82" y="175.5" ></text>
</g>
<g >
<title>update_load_avg (2,749,400 samples, 0.01%)</title><rect x="1129.8" y="85" width="0.1" height="15.0" fill="rgb(240,165,39)" rx="2" ry="2" />
<text  x="1132.78" y="95.5" ></text>
</g>
<g >
<title>tick_sched_timer (2,750,402 samples, 0.01%)</title><rect x="1044.9" y="181" width="0.1" height="15.0" fill="rgb(254,227,54)" rx="2" ry="2" />
<text  x="1047.86" y="191.5" ></text>
</g>
<g >
<title>ResourceOwnerForget (5,500,643 samples, 0.02%)</title><rect x="1077.1" y="261" width="0.3" height="15.0" fill="rgb(235,142,33)" rx="2" ry="2" />
<text  x="1080.12" y="271.5" ></text>
</g>
<g >
<title>trigger_load_balance (2,750,066 samples, 0.01%)</title><rect x="481.9" y="117" width="0.2" height="15.0" fill="rgb(228,108,26)" rx="2" ry="2" />
<text  x="484.94" y="127.5" ></text>
</g>
<g >
<title>GetPrivateRefCountEntry (8,251,653 samples, 0.03%)</title><rect x="1100.3" y="245" width="0.3" height="15.0" fill="rgb(250,209,50)" rx="2" ry="2" />
<text  x="1103.25" y="255.5" ></text>
</g>
<g >
<title>sysvec_apic_timer_interrupt (2,750,402 samples, 0.01%)</title><rect x="1044.9" y="245" width="0.1" height="15.0" fill="rgb(220,69,16)" rx="2" ry="2" />
<text  x="1047.86" y="255.5" ></text>
</g>
<g >
<title>pgstat_count_backend_io_op (16,502,858 samples, 0.06%)</title><rect x="1171.9" y="229" width="0.7" height="15.0" fill="rgb(244,179,42)" rx="2" ry="2" />
<text  x="1174.94" y="239.5" ></text>
</g>
<g >
<title>update_process_times (5,500,438 samples, 0.02%)</title><rect x="481.8" y="149" width="0.3" height="15.0" fill="rgb(250,209,50)" rx="2" ry="2" />
<text  x="484.82" y="159.5" ></text>
</g>
<g >
<title>LWLockAttemptLock (32,998,021 samples, 0.12%)</title><rect x="1158.6" y="229" width="1.4" height="15.0" fill="rgb(235,138,33)" rx="2" ry="2" />
<text  x="1161.60" y="239.5" ></text>
</g>
<g >
<title>account_process_tick (2,750,402 samples, 0.01%)</title><rect x="1044.9" y="133" width="0.1" height="15.0" fill="rgb(234,136,32)" rx="2" ry="2" />
<text  x="1047.86" y="143.5" ></text>
</g>
<g >
<title>scheduler_tick (2,751,087 samples, 0.01%)</title><rect x="1158.2" y="69" width="0.2" height="15.0" fill="rgb(246,190,45)" rx="2" ry="2" />
<text  x="1161.25" y="79.5" ></text>
</g>
<g >
<title>hash_search_with_hash_value (305,498,418 samples, 1.11%)</title><rect x="1145.3" y="213" width="13.1" height="15.0" fill="rgb(249,205,49)" rx="2" ry="2" />
<text  x="1148.26" y="223.5" ></text>
</g>
<g >
<title>ExecInterpExpr (23,947,429,470 samples, 87.10%)</title><rect x="20.6" y="309" width="1027.8" height="15.0" fill="rgb(225,96,22)" rx="2" ry="2" />
<text  x="23.62" y="319.5" >ExecInterpExpr</text>
</g>
<g >
<title>account_user_time (2,749,981 samples, 0.01%)</title><rect x="994.2" y="117" width="0.1" height="15.0" fill="rgb(225,96,23)" rx="2" ry="2" />
<text  x="997.22" y="127.5" ></text>
</g>
<g >
<title>PortalRun (27,494,324,000 samples, 100.00%)</title><rect x="10.0" y="373" width="1180.0" height="15.0" fill="rgb(223,85,20)" rx="2" ry="2" />
<text  x="13.00" y="383.5" >PortalRun</text>
</g>
<g >
<title>IncrBufferRefCount (8,251,570 samples, 0.03%)</title><rect x="1075.8" y="261" width="0.4" height="15.0" fill="rgb(209,22,5)" rx="2" ry="2" />
<text  x="1078.81" y="271.5" ></text>
</g>
<g >
<title>pgstat_count_io_op (5,500,780 samples, 0.02%)</title><rect x="1172.6" y="229" width="0.3" height="15.0" fill="rgb(207,10,2)" rx="2" ry="2" />
<text  x="1175.65" y="239.5" ></text>
</g>
<g >
<title>BufTableLookup (2,750,063 samples, 0.01%)</title><rect x="1174.8" y="197" width="0.1" height="15.0" fill="rgb(224,89,21)" rx="2" ry="2" />
<text  x="1177.77" y="207.5" ></text>
</g>
<g >
<title>__hrtimer_run_queues (2,749,400 samples, 0.01%)</title><rect x="1129.8" y="181" width="0.1" height="15.0" fill="rgb(237,150,35)" rx="2" ry="2" />
<text  x="1132.78" y="191.5" ></text>
</g>
<g >
<title>slot_getsomeattrs_int (13,751,647 samples, 0.05%)</title><rect x="1187.5" y="309" width="0.6" height="15.0" fill="rgb(252,219,52)" rx="2" ry="2" />
<text  x="1190.52" y="319.5" ></text>
</g>
<g >
<title>tick_sched_timer (2,749,400 samples, 0.01%)</title><rect x="1129.8" y="165" width="0.1" height="15.0" fill="rgb(254,227,54)" rx="2" ry="2" />
<text  x="1132.78" y="175.5" ></text>
</g>
<g >
<title>perf_event_task_tick (2,750,196 samples, 0.01%)</title><rect x="994.3" y="117" width="0.2" height="15.0" fill="rgb(205,3,0)" rx="2" ry="2" />
<text  x="997.33" y="127.5" ></text>
</g>
<g >
<title>_raw_spin_lock_irqsave (2,750,624 samples, 0.01%)</title><rect x="105.7" y="117" width="0.1" height="15.0" fill="rgb(247,195,46)" rx="2" ry="2" />
<text  x="108.71" y="127.5" ></text>
</g>
<g >
<title>asm_sysvec_apic_timer_interrupt (2,750,554 samples, 0.01%)</title><rect x="78.6" y="293" width="0.2" height="15.0" fill="rgb(232,127,30)" rx="2" ry="2" />
<text  x="81.65" y="303.5" ></text>
</g>
<g >
<title>postgres (27,494,324,000 samples, 100.00%)</title><rect x="10.0" y="517" width="1180.0" height="15.0" fill="rgb(233,131,31)" rx="2" ry="2" />
<text  x="13.00" y="527.5" >postgres</text>
</g>
<g >
<title>scheduler_tick (2,749,400 samples, 0.01%)</title><rect x="1129.8" y="117" width="0.1" height="15.0" fill="rgb(246,190,45)" rx="2" ry="2" />
<text  x="1132.78" y="127.5" ></text>
</g>
<g >
<title>MemoryContextReset (35,754,148 samples, 0.13%)</title><rect x="1188.1" y="325" width="1.5" height="15.0" fill="rgb(210,26,6)" rx="2" ry="2" />
<text  x="1191.11" y="335.5" ></text>
</g>
<g >
<title>LWLockAcquire (5,500,189 samples, 0.02%)</title><rect x="1128.6" y="245" width="0.2" height="15.0" fill="rgb(209,20,4)" rx="2" ry="2" />
<text  x="1131.60" y="255.5" ></text>
</g>
<g >
<title>ExecStoreBufferHeapTuple (181,714,072 samples, 0.66%)</title><rect x="1070.7" y="277" width="7.8" height="15.0" fill="rgb(230,117,28)" rx="2" ry="2" />
<text  x="1073.74" y="287.5" ></text>
</g>
<g >
<title>update_process_times (2,751,087 samples, 0.01%)</title><rect x="1158.2" y="85" width="0.2" height="15.0" fill="rgb(250,209,50)" rx="2" ry="2" />
<text  x="1161.25" y="95.5" ></text>
</g>
<g >
<title>PostmasterMain (27,494,324,000 samples, 100.00%)</title><rect x="10.0" y="469" width="1180.0" height="15.0" fill="rgb(212,35,8)" rx="2" ry="2" />
<text  x="13.00" y="479.5" >PostmasterMain</text>
</g>
<g >
<title>__sysvec_apic_timer_interrupt (5,500,438 samples, 0.02%)</title><rect x="481.8" y="229" width="0.3" height="15.0" fill="rgb(242,173,41)" rx="2" ry="2" />
<text  x="484.82" y="239.5" ></text>
</g>
<g >
<title>tick_sched_handle (2,750,665 samples, 0.01%)</title><rect x="1051.8" y="197" width="0.1" height="15.0" fill="rgb(219,68,16)" rx="2" ry="2" />
<text  x="1054.82" y="207.5" ></text>
</g>
<g >
<title>arch_scale_freq_tick (2,750,665 samples, 0.01%)</title><rect x="1051.8" y="149" width="0.1" height="15.0" fill="rgb(252,219,52)" rx="2" ry="2" />
<text  x="1054.82" y="159.5" ></text>
</g>
<g >
<title>pg_mbstrlen_with_len (8,769,025,589 samples, 31.89%)</title><rect x="105.8" y="277" width="376.4" height="15.0" fill="rgb(228,106,25)" rx="2" ry="2" />
<text  x="108.83" y="287.5" >pg_mbstrlen_with_len</text>
</g>
<g >
<title>tts_buffer_heap_getsomeattrs (899,329,727 samples, 3.27%)</title><rect x="1006.4" y="277" width="38.6" height="15.0" fill="rgb(222,81,19)" rx="2" ry="2" />
<text  x="1009.38" y="287.5" >tts..</text>
</g>
<g >
<title>standard_ExecutorRun (27,494,324,000 samples, 100.00%)</title><rect x="10.0" y="341" width="1180.0" height="15.0" fill="rgb(247,196,47)" rx="2" ry="2" />
<text  x="13.00" y="351.5" >standard_ExecutorRun</text>
</g>
<g >
<title>PinBuffer (156,758,949 samples, 0.57%)</title><rect x="1162.1" y="229" width="6.8" height="15.0" fill="rgb(219,64,15)" rx="2" ry="2" />
<text  x="1165.14" y="239.5" ></text>
</g>
<g >
<title>MemoryContextReset (82,508,816 samples, 0.30%)</title><rect x="1048.4" y="309" width="3.5" height="15.0" fill="rgb(210,26,6)" rx="2" ry="2" />
<text  x="1051.40" y="319.5" ></text>
</g>
<g >
<title>read_stream_start_pending_read (2,750,063 samples, 0.01%)</title><rect x="1174.8" y="229" width="0.1" height="15.0" fill="rgb(232,126,30)" rx="2" ry="2" />
<text  x="1177.77" y="239.5" ></text>
</g>
<g >
<title>ResourceOwnerEnlarge (5,500,016 samples, 0.02%)</title><rect x="1169.0" y="229" width="0.2" height="15.0" fill="rgb(223,86,20)" rx="2" ry="2" />
<text  x="1171.99" y="239.5" ></text>
</g>
<g >
<title>sysvec_apic_timer_interrupt (5,500,438 samples, 0.02%)</title><rect x="481.8" y="245" width="0.3" height="15.0" fill="rgb(220,69,16)" rx="2" ry="2" />
<text  x="484.82" y="255.5" ></text>
</g>
<g >
<title>native_read_msr (2,750,665 samples, 0.01%)</title><rect x="1051.8" y="133" width="0.1" height="15.0" fill="rgb(211,30,7)" rx="2" ry="2" />
<text  x="1054.82" y="143.5" ></text>
</g>
<g >
<title>heap_scan_stream_read_next_serial (2,750,491 samples, 0.01%)</title><rect x="1129.9" y="261" width="0.1" height="15.0" fill="rgb(205,4,0)" rx="2" ry="2" />
<text  x="1132.89" y="271.5" ></text>
</g>
<g >
<title>asm_sysvec_apic_timer_interrupt (2,751,087 samples, 0.01%)</title><rect x="1158.2" y="197" width="0.2" height="15.0" fill="rgb(232,127,30)" rx="2" ry="2" />
<text  x="1161.25" y="207.5" ></text>
</g>
<g >
<title>asm_sysvec_apic_timer_interrupt (2,750,402 samples, 0.01%)</title><rect x="1044.9" y="261" width="0.1" height="15.0" fill="rgb(232,127,30)" rx="2" ry="2" />
<text  x="1047.86" y="271.5" ></text>
</g>
<g >
<title>SeqNext (8,250,540 samples, 0.03%)</title><rect x="1189.6" y="325" width="0.4" height="15.0" fill="rgb(214,41,10)" rx="2" ry="2" />
<text  x="1192.65" y="335.5" ></text>
</g>
<g >
<title>ReservePrivateRefCountEntry (2,750,475 samples, 0.01%)</title><rect x="1168.9" y="229" width="0.1" height="15.0" fill="rgb(232,125,30)" rx="2" ry="2" />
<text  x="1171.87" y="239.5" ></text>
</g>
<g >
<title>GetPrivateRefCountEntry (5,499,028 samples, 0.02%)</title><rect x="1168.6" y="213" width="0.3" height="15.0" fill="rgb(250,209,50)" rx="2" ry="2" />
<text  x="1171.64" y="223.5" ></text>
</g>
<g >
<title>nohz_balancer_kick (2,751,087 samples, 0.01%)</title><rect x="1158.2" y="37" width="0.2" height="15.0" fill="rgb(225,93,22)" rx="2" ry="2" />
<text  x="1161.25" y="47.5" ></text>
</g>
<g >
<title>heapgettup_pagemode (2,234,165,531 samples, 8.13%)</title><rect x="1079.0" y="277" width="95.9" height="15.0" fill="rgb(242,170,40)" rx="2" ry="2" />
<text  x="1082.01" y="287.5" >heapgettup_..</text>
</g>
<g >
<title>LWLockRelease (11,001,108 samples, 0.04%)</title><rect x="1098.2" y="261" width="0.5" height="15.0" fill="rgb(217,58,13)" rx="2" ry="2" />
<text  x="1101.25" y="271.5" ></text>
</g>
<g >
<title>__hrtimer_run_queues (2,750,402 samples, 0.01%)</title><rect x="1044.9" y="197" width="0.1" height="15.0" fill="rgb(237,150,35)" rx="2" ry="2" />
<text  x="1047.86" y="207.5" ></text>
</g>
<g >
<title>tick_sched_handle (2,749,400 samples, 0.01%)</title><rect x="1129.8" y="149" width="0.1" height="15.0" fill="rgb(219,68,16)" rx="2" ry="2" />
<text  x="1132.78" y="159.5" ></text>
</g>
<g >
<title>[postgres] (27,494,324,000 samples, 100.00%)</title><rect x="10.0" y="421" width="1180.0" height="15.0" fill="rgb(245,184,44)" rx="2" ry="2" />
<text  x="13.00" y="431.5" >[postgres]</text>
</g>
<g >
<title>asm_sysvec_apic_timer_interrupt (5,500,438 samples, 0.02%)</title><rect x="481.8" y="261" width="0.3" height="15.0" fill="rgb(232,127,30)" rx="2" ry="2" />
<text  x="484.82" y="271.5" ></text>
</g>
<g >
<title>__sysvec_apic_timer_interrupt (2,751,087 samples, 0.01%)</title><rect x="1158.2" y="165" width="0.2" height="15.0" fill="rgb(242,173,41)" rx="2" ry="2" />
<text  x="1161.25" y="175.5" ></text>
</g>
<g >
<title>update_wall_time (2,750,624 samples, 0.01%)</title><rect x="105.7" y="149" width="0.1" height="15.0" fill="rgb(207,11,2)" rx="2" ry="2" />
<text  x="108.71" y="159.5" ></text>
</g>
<g >
<title>raw_notifier_call_chain (2,750,723 samples, 0.01%)</title><rect x="994.1" y="101" width="0.1" height="15.0" fill="rgb(221,73,17)" rx="2" ry="2" />
<text  x="997.10" y="111.5" ></text>
</g>
<g >
<title>read_stream_next_buffer (1,045,721,605 samples, 3.80%)</title><rect x="1130.0" y="261" width="44.9" height="15.0" fill="rgb(216,50,12)" rx="2" ry="2" />
<text  x="1133.01" y="271.5" >read..</text>
</g>
<g >
<title>asm_sysvec_apic_timer_interrupt (2,750,665 samples, 0.01%)</title><rect x="1051.8" y="293" width="0.1" height="15.0" fill="rgb(232,127,30)" rx="2" ry="2" />
<text  x="1054.82" y="303.5" ></text>
</g>
<g >
<title>update_process_times (8,251,140 samples, 0.03%)</title><rect x="994.2" y="149" width="0.4" height="15.0" fill="rgb(250,209,50)" rx="2" ry="2" />
<text  x="997.22" y="159.5" ></text>
</g>
<g >
<title>update_process_times (2,750,402 samples, 0.01%)</title><rect x="1044.9" y="149" width="0.1" height="15.0" fill="rgb(250,209,50)" rx="2" ry="2" />
<text  x="1047.86" y="159.5" ></text>
</g>
<g >
<title>heapgettup_pagemode (2,750,028 samples, 0.01%)</title><rect x="1174.9" y="293" width="0.1" height="15.0" fill="rgb(242,170,40)" rx="2" ry="2" />
<text  x="1177.89" y="303.5" ></text>
</g>
<g >
<title>pgstat_count_io_op (5,501,426 samples, 0.02%)</title><rect x="1174.5" y="245" width="0.3" height="15.0" fill="rgb(207,10,2)" rx="2" ry="2" />
<text  x="1177.54" y="255.5" ></text>
</g>
<g >
<title>__sysvec_apic_timer_interrupt (2,750,665 samples, 0.01%)</title><rect x="1051.8" y="261" width="0.1" height="15.0" fill="rgb(242,173,41)" rx="2" ry="2" />
<text  x="1054.82" y="271.5" ></text>
</g>
<g >
<title>heap_getnextslot (2,713,614,468 samples, 9.87%)</title><rect x="1058.4" y="293" width="116.5" height="15.0" fill="rgb(213,40,9)" rx="2" ry="2" />
<text  x="1061.43" y="303.5" >heap_getnextslot</text>
</g>
<g >
<title>sysvec_apic_timer_interrupt (2,750,624 samples, 0.01%)</title><rect x="105.7" y="261" width="0.1" height="15.0" fill="rgb(220,69,16)" rx="2" ry="2" />
<text  x="108.71" y="271.5" ></text>
</g>
<g >
<title>__sysvec_apic_timer_interrupt (2,749,400 samples, 0.01%)</title><rect x="1129.8" y="213" width="0.1" height="15.0" fill="rgb(242,173,41)" rx="2" ry="2" />
<text  x="1132.78" y="223.5" ></text>
</g>
<g >
<title>ServerLoop (27,494,324,000 samples, 100.00%)</title><rect x="10.0" y="453" width="1180.0" height="15.0" fill="rgb(238,155,37)" rx="2" ry="2" />
<text  x="13.00" y="463.5" >ServerLoop</text>
</g>
<g >
<title>ResourceOwnerRemember (60,510,127 samples, 0.22%)</title><rect x="1169.2" y="229" width="2.6" height="15.0" fill="rgb(243,178,42)" rx="2" ry="2" />
<text  x="1172.23" y="239.5" ></text>
</g>
<g >
<title>LockBuffer (5,500,361 samples, 0.02%)</title><rect x="1098.7" y="261" width="0.3" height="15.0" fill="rgb(235,142,34)" rx="2" ry="2" />
<text  x="1101.72" y="271.5" ></text>
</g>
<g >
<title>GetPrivateRefCountEntry (5,501,381 samples, 0.02%)</title><rect x="1075.9" y="245" width="0.3" height="15.0" fill="rgb(250,209,50)" rx="2" ry="2" />
<text  x="1078.93" y="255.5" ></text>
</g>
<g >
<title>slot_getsomeattrs_int (1,127,601,358 samples, 4.10%)</title><rect x="996.6" y="293" width="48.4" height="15.0" fill="rgb(252,219,52)" rx="2" ry="2" />
<text  x="999.58" y="303.5" >slot..</text>
</g>
<g >
<title>tick_sched_timer (2,751,087 samples, 0.01%)</title><rect x="1158.2" y="117" width="0.2" height="15.0" fill="rgb(254,227,54)" rx="2" ry="2" />
<text  x="1161.25" y="127.5" ></text>
</g>
<g >
<title>__memcmp_evex_movbe (5,501,168 samples, 0.02%)</title><rect x="1145.0" y="213" width="0.3" height="15.0" fill="rgb(219,67,16)" rx="2" ry="2" />
<text  x="1148.02" y="223.5" ></text>
</g>
<g >
<title>hrtimer_interrupt (2,749,400 samples, 0.01%)</title><rect x="1129.8" y="197" width="0.1" height="15.0" fill="rgb(228,109,26)" rx="2" ry="2" />
<text  x="1132.78" y="207.5" ></text>
</g>
<g >
<title>scheduler_tick (2,750,665 samples, 0.01%)</title><rect x="1051.8" y="165" width="0.1" height="15.0" fill="rgb(246,190,45)" rx="2" ry="2" />
<text  x="1054.82" y="175.5" ></text>
</g>
<g >
<title>tts_buffer_heap_getsomeattrs (79,757,255 samples, 0.29%)</title><rect x="1045.0" y="293" width="3.4" height="15.0" fill="rgb(222,81,19)" rx="2" ry="2" />
<text  x="1047.97" y="303.5" ></text>
</g>
<g >
<title>ResourceOwnerForget (11,001,387 samples, 0.04%)</title><rect x="1099.4" y="245" width="0.5" height="15.0" fill="rgb(235,142,33)" rx="2" ry="2" />
<text  x="1102.43" y="255.5" ></text>
</g>
<g >
<title>heap_scan_stream_read_next_serial (8,250,980 samples, 0.03%)</title><rect x="1174.2" y="245" width="0.3" height="15.0" fill="rgb(205,4,0)" rx="2" ry="2" />
<text  x="1177.18" y="255.5" ></text>
</g>
<g >
<title>tick_sched_handle (2,750,402 samples, 0.01%)</title><rect x="1044.9" y="165" width="0.1" height="15.0" fill="rgb(219,68,16)" rx="2" ry="2" />
<text  x="1047.86" y="175.5" ></text>
</g>
<g >
<title>pg_mbstrlen_with_len (8,251,655 samples, 0.03%)</title><rect x="996.2" y="293" width="0.4" height="15.0" fill="rgb(228,106,25)" rx="2" ry="2" />
<text  x="999.23" y="303.5" ></text>
</g>
<g >
<title>__hrtimer_run_queues (2,751,087 samples, 0.01%)</title><rect x="1158.2" y="133" width="0.2" height="15.0" fill="rgb(237,150,35)" rx="2" ry="2" />
<text  x="1161.25" y="143.5" ></text>
</g>
<g >
<title>hrtimer_interrupt (2,751,087 samples, 0.01%)</title><rect x="1158.2" y="149" width="0.2" height="15.0" fill="rgb(228,109,26)" rx="2" ry="2" />
<text  x="1161.25" y="159.5" ></text>
</g>
<g >
<title>__hrtimer_run_queues (2,750,665 samples, 0.01%)</title><rect x="1051.8" y="229" width="0.1" height="15.0" fill="rgb(237,150,35)" rx="2" ry="2" />
<text  x="1054.82" y="239.5" ></text>
</g>
<g >
<title>__sysvec_apic_timer_interrupt (2,750,402 samples, 0.01%)</title><rect x="1044.9" y="229" width="0.1" height="15.0" fill="rgb(242,173,41)" rx="2" ry="2" />
<text  x="1047.86" y="239.5" ></text>
</g>
<g >
<title>heap_page_prune_opt (2,750,436 samples, 0.01%)</title><rect x="1100.6" y="261" width="0.1" height="15.0" fill="rgb(211,29,7)" rx="2" ry="2" />
<text  x="1103.61" y="271.5" ></text>
</g>
<g >
<title>hrtimer_interrupt (2,750,624 samples, 0.01%)</title><rect x="105.7" y="229" width="0.1" height="15.0" fill="rgb(228,109,26)" rx="2" ry="2" />
<text  x="108.71" y="239.5" ></text>
</g>
<g >
<title>int4lt (101,761,593 samples, 0.37%)</title><rect x="1183.2" y="309" width="4.3" height="15.0" fill="rgb(242,172,41)" rx="2" ry="2" />
<text  x="1186.15" y="319.5" ></text>
</g>
<g >
<title>heap_getnextslot (151,253,853 samples, 0.55%)</title><rect x="1176.7" y="309" width="6.5" height="15.0" fill="rgb(213,40,9)" rx="2" ry="2" />
<text  x="1179.66" y="319.5" ></text>
</g>
<g >
<title>SeqNext (2,867,611,230 samples, 10.43%)</title><rect x="1051.9" y="309" width="123.1" height="15.0" fill="rgb(214,41,10)" rx="2" ry="2" />
<text  x="1054.94" y="319.5" >SeqNext</text>
</g>
<g >
<title>tick_sched_timer (2,750,624 samples, 0.01%)</title><rect x="105.7" y="197" width="0.1" height="15.0" fill="rgb(254,227,54)" rx="2" ry="2" />
<text  x="108.71" y="207.5" ></text>
</g>
<g >
<title>tick_sched_timer (2,750,665 samples, 0.01%)</title><rect x="1051.8" y="213" width="0.1" height="15.0" fill="rgb(254,227,54)" rx="2" ry="2" />
<text  x="1054.82" y="223.5" ></text>
</g>
<g >
<title>sysvec_apic_timer_interrupt (11,049,152 samples, 0.04%)</title><rect x="994.1" y="245" width="0.5" height="15.0" fill="rgb(220,69,16)" rx="2" ry="2" />
<text  x="997.10" y="255.5" ></text>
</g>
<g >
<title>scheduler_tick (5,500,438 samples, 0.02%)</title><rect x="481.8" y="133" width="0.3" height="15.0" fill="rgb(246,190,45)" rx="2" ry="2" />
<text  x="484.82" y="143.5" ></text>
</g>
<g >
<title>tick_sched_timer (11,001,863 samples, 0.04%)</title><rect x="994.1" y="181" width="0.5" height="15.0" fill="rgb(254,227,54)" rx="2" ry="2" />
<text  x="997.10" y="191.5" ></text>
</g>
<g >
<title>timekeeping_advance (2,750,624 samples, 0.01%)</title><rect x="105.7" y="133" width="0.1" height="15.0" fill="rgb(227,104,25)" rx="2" ry="2" />
<text  x="108.71" y="143.5" ></text>
</g>
<g >
<title>read_stream_look_ahead (2,750,063 samples, 0.01%)</title><rect x="1174.8" y="245" width="0.1" height="15.0" fill="rgb(252,219,52)" rx="2" ry="2" />
<text  x="1177.77" y="255.5" ></text>
</g>
<g >
<title>UnpinBufferNoOwner (16,494,986 samples, 0.06%)</title><rect x="1099.9" y="261" width="0.7" height="15.0" fill="rgb(253,221,53)" rx="2" ry="2" />
<text  x="1102.90" y="271.5" ></text>
</g>
<g >
<title>ReleaseBuffer (22,002,353 samples, 0.08%)</title><rect x="1099.0" y="261" width="0.9" height="15.0" fill="rgb(220,71,17)" rx="2" ry="2" />
<text  x="1101.95" y="271.5" ></text>
</g>
<g >
<title>asm_sysvec_apic_timer_interrupt (16,549,646 samples, 0.06%)</title><rect x="993.9" y="261" width="0.7" height="15.0" fill="rgb(232,127,30)" rx="2" ry="2" />
<text  x="996.86" y="271.5" ></text>
</g>
<g >
<title>ResourceOwnerForget (5,501,125 samples, 0.02%)</title><rect x="1076.6" y="245" width="0.3" height="15.0" fill="rgb(235,142,33)" rx="2" ry="2" />
<text  x="1079.65" y="255.5" ></text>
</g>
<g >
<title>task_tick_fair (2,749,400 samples, 0.01%)</title><rect x="1129.8" y="101" width="0.1" height="15.0" fill="rgb(217,57,13)" rx="2" ry="2" />
<text  x="1132.78" y="111.5" ></text>
</g>
<g >
<title>update_process_times (2,750,665 samples, 0.01%)</title><rect x="1051.8" y="181" width="0.1" height="15.0" fill="rgb(250,209,50)" rx="2" ry="2" />
<text  x="1054.82" y="191.5" ></text>
</g>
<g >
<title>__hrtimer_run_queues (5,500,438 samples, 0.02%)</title><rect x="481.8" y="197" width="0.3" height="15.0" fill="rgb(237,150,35)" rx="2" ry="2" />
<text  x="484.82" y="207.5" ></text>
</g>
<g >
<title>scheduler_tick (5,501,159 samples, 0.02%)</title><rect x="994.3" y="133" width="0.3" height="15.0" fill="rgb(246,190,45)" rx="2" ry="2" />
<text  x="997.33" y="143.5" ></text>
</g>
<g >
<title>__update_load_avg_se (2,749,400 samples, 0.01%)</title><rect x="1129.8" y="69" width="0.1" height="15.0" fill="rgb(254,227,54)" rx="2" ry="2" />
<text  x="1132.78" y="79.5" ></text>
</g>
</g>
</svg>
