<?xml version="1.0" standalone="no"?>
<!DOCTYPE svg PUBLIC "-//W3C//DTD SVG 1.1//EN" "http://www.w3.org/Graphics/SVG/1.1/DTD/svg11.dtd">
<svg version="1.1" width="1200" height="646" onload="init(evt)" viewBox="0 0 1200 646" xmlns="http://www.w3.org/2000/svg" xmlns:xlink="http://www.w3.org/1999/xlink">
<!-- Flame graph stack visualization. See https://github.com/brendangregg/FlameGraph for latest version, and http://www.brendangregg.com/flamegraphs.html for examples. -->
<!-- NOTES:  -->
<defs>
	<linearGradient id="background" y1="0" y2="1" x1="0" x2="0" >
		<stop stop-color="#eeeeee" offset="5%" />
		<stop stop-color="#eeeeb0" offset="95%" />
	</linearGradient>
</defs>
<style type="text/css">
	text { font-family:Verdana; font-size:12px; fill:rgb(0,0,0); }
	#search, #ignorecase { opacity:0.1; cursor:pointer; }
	#search:hover, #search.show, #ignorecase:hover, #ignorecase.show { opacity:1; }
	#subtitle { text-anchor:middle; font-color:rgb(160,160,160); }
	#title { text-anchor:middle; font-size:17px}
	#unzoom { cursor:pointer; }
	#frames > *:hover { stroke:black; stroke-width:0.5; cursor:pointer; }
	.hide { display:none; }
	.parent { opacity:0.5; }
</style>
<script type="text/ecmascript">
<![CDATA[
	"use strict";
	var details, searchbtn, unzoombtn, matchedtxt, svg, searching, currentSearchTerm, ignorecase, ignorecaseBtn;
	function init(evt) {
		details = document.getElementById("details").firstChild;
		searchbtn = document.getElementById("search");
		ignorecaseBtn = document.getElementById("ignorecase");
		unzoombtn = document.getElementById("unzoom");
		matchedtxt = document.getElementById("matched");
		svg = document.getElementsByTagName("svg")[0];
		searching = 0;
		currentSearchTerm = null;

		// use GET parameters to restore a flamegraphs state.
		var params = get_params();
		if (params.x && params.y)
			zoom(find_group(document.querySelector('[x="' + params.x + '"][y="' + params.y + '"]')));
                if (params.s) search(params.s);
	}

	// event listeners
	window.addEventListener("click", function(e) {
		var target = find_group(e.target);
		if (target) {
			if (target.nodeName == "a") {
				if (e.ctrlKey === false) return;
				e.preventDefault();
			}
			if (target.classList.contains("parent")) unzoom(true);
			zoom(target);
			if (!document.querySelector('.parent')) {
				// we have basically done a clearzoom so clear the url
				var params = get_params();
				if (params.x) delete params.x;
				if (params.y) delete params.y;
				history.replaceState(null, null, parse_params(params));
				unzoombtn.classList.add("hide");
				return;
			}

			// set parameters for zoom state
			var el = target.querySelector("rect");
			if (el && el.attributes && el.attributes.y && el.attributes._orig_x) {
				var params = get_params()
				params.x = el.attributes._orig_x.value;
				params.y = el.attributes.y.value;
				history.replaceState(null, null, parse_params(params));
			}
		}
		else if (e.target.id == "unzoom") clearzoom();
		else if (e.target.id == "search") search_prompt();
		else if (e.target.id == "ignorecase") toggle_ignorecase();
	}, false)

	// mouse-over for info
	// show
	window.addEventListener("mouseover", function(e) {
		var target = find_group(e.target);
		if (target) details.nodeValue = "Function: " + g_to_text(target);
	}, false)

	// clear
	window.addEventListener("mouseout", function(e) {
		var target = find_group(e.target);
		if (target) details.nodeValue = ' ';
	}, false)

	// ctrl-F for search
	// ctrl-I to toggle case-sensitive search
	window.addEventListener("keydown",function (e) {
		if (e.keyCode === 114 || (e.ctrlKey && e.keyCode === 70)) {
			e.preventDefault();
			search_prompt();
		}
		else if (e.ctrlKey && e.keyCode === 73) {
			e.preventDefault();
			toggle_ignorecase();
		}
	}, false)

	// functions
	function get_params() {
		var params = {};
		var paramsarr = window.location.search.substr(1).split('&');
		for (var i = 0; i < paramsarr.length; ++i) {
			var tmp = paramsarr[i].split("=");
			if (!tmp[0] || !tmp[1]) continue;
			params[tmp[0]]  = decodeURIComponent(tmp[1]);
		}
		return params;
	}
	function parse_params(params) {
		var uri = "?";
		for (var key in params) {
			uri += key + '=' + encodeURIComponent(params[key]) + '&';
		}
		if (uri.slice(-1) == "&")
			uri = uri.substring(0, uri.length - 1);
		if (uri == '?')
			uri = window.location.href.split('?')[0];
		return uri;
	}
	function find_child(node, selector) {
		var children = node.querySelectorAll(selector);
		if (children.length) return children[0];
	}
	function find_group(node) {
		var parent = node.parentElement;
		if (!parent) return;
		if (parent.id == "frames") return node;
		return find_group(parent);
	}
	function orig_save(e, attr, val) {
		if (e.attributes["_orig_" + attr] != undefined) return;
		if (e.attributes[attr] == undefined) return;
		if (val == undefined) val = e.attributes[attr].value;
		e.setAttribute("_orig_" + attr, val);
	}
	function orig_load(e, attr) {
		if (e.attributes["_orig_"+attr] == undefined) return;
		e.attributes[attr].value = e.attributes["_orig_" + attr].value;
		e.removeAttribute("_orig_"+attr);
	}
	function g_to_text(e) {
		var text = find_child(e, "title").firstChild.nodeValue;
		return (text)
	}
	function g_to_func(e) {
		var func = g_to_text(e);
		// if there's any manipulation we want to do to the function
		// name before it's searched, do it here before returning.
		return (func);
	}
	function update_text(e) {
		var r = find_child(e, "rect");
		var t = find_child(e, "text");
		var w = parseFloat(r.attributes.width.value) -3;
		var txt = find_child(e, "title").textContent.replace(/\([^(]*\)$/,"");
		t.attributes.x.value = parseFloat(r.attributes.x.value) + 3;

		// Smaller than this size won't fit anything
		if (w < 2 * 12 * 0.59) {
			t.textContent = "";
			return;
		}

		t.textContent = txt;
		var sl = t.getSubStringLength(0, txt.length);
		// check if only whitespace or if we can fit the entire string into width w
		if (/^ *$/.test(txt) || sl < w)
			return;

		// this isn't perfect, but gives a good starting point
		// and avoids calling getSubStringLength too often
		var start = Math.floor((w/sl) * txt.length);
		for (var x = start; x > 0; x = x-2) {
			if (t.getSubStringLength(0, x + 2) <= w) {
				t.textContent = txt.substring(0, x) + "..";
				return;
			}
		}
		t.textContent = "";
	}

	// zoom
	function zoom_reset(e) {
		if (e.attributes != undefined) {
			orig_load(e, "x");
			orig_load(e, "width");
		}
		if (e.childNodes == undefined) return;
		for (var i = 0, c = e.childNodes; i < c.length; i++) {
			zoom_reset(c[i]);
		}
	}
	function zoom_child(e, x, ratio) {
		if (e.attributes != undefined) {
			if (e.attributes.x != undefined) {
				orig_save(e, "x");
				e.attributes.x.value = (parseFloat(e.attributes.x.value) - x - 10) * ratio + 10;
				if (e.tagName == "text")
					e.attributes.x.value = find_child(e.parentNode, "rect[x]").attributes.x.value + 3;
			}
			if (e.attributes.width != undefined) {
				orig_save(e, "width");
				e.attributes.width.value = parseFloat(e.attributes.width.value) * ratio;
			}
		}

		if (e.childNodes == undefined) return;
		for (var i = 0, c = e.childNodes; i < c.length; i++) {
			zoom_child(c[i], x - 10, ratio);
		}
	}
	function zoom_parent(e) {
		if (e.attributes) {
			if (e.attributes.x != undefined) {
				orig_save(e, "x");
				e.attributes.x.value = 10;
			}
			if (e.attributes.width != undefined) {
				orig_save(e, "width");
				e.attributes.width.value = parseInt(svg.width.baseVal.value) - (10 * 2);
			}
		}
		if (e.childNodes == undefined) return;
		for (var i = 0, c = e.childNodes; i < c.length; i++) {
			zoom_parent(c[i]);
		}
	}
	function zoom(node) {
		var attr = find_child(node, "rect").attributes;
		var width = parseFloat(attr.width.value);
		var xmin = parseFloat(attr.x.value);
		var xmax = parseFloat(xmin + width);
		var ymin = parseFloat(attr.y.value);
		var ratio = (svg.width.baseVal.value - 2 * 10) / width;

		// XXX: Workaround for JavaScript float issues (fix me)
		var fudge = 0.0001;

		unzoombtn.classList.remove("hide");

		var el = document.getElementById("frames").children;
		for (var i = 0; i < el.length; i++) {
			var e = el[i];
			var a = find_child(e, "rect").attributes;
			var ex = parseFloat(a.x.value);
			var ew = parseFloat(a.width.value);
			var upstack;
			// Is it an ancestor
			if (0 == 0) {
				upstack = parseFloat(a.y.value) > ymin;
			} else {
				upstack = parseFloat(a.y.value) < ymin;
			}
			if (upstack) {
				// Direct ancestor
				if (ex <= xmin && (ex+ew+fudge) >= xmax) {
					e.classList.add("parent");
					zoom_parent(e);
					update_text(e);
				}
				// not in current path
				else
					e.classList.add("hide");
			}
			// Children maybe
			else {
				// no common path
				if (ex < xmin || ex + fudge >= xmax) {
					e.classList.add("hide");
				}
				else {
					zoom_child(e, xmin, ratio);
					update_text(e);
				}
			}
		}
		search();
	}
	function unzoom(dont_update_text) {
		unzoombtn.classList.add("hide");
		var el = document.getElementById("frames").children;
		for(var i = 0; i < el.length; i++) {
			el[i].classList.remove("parent");
			el[i].classList.remove("hide");
			zoom_reset(el[i]);
			if(!dont_update_text) update_text(el[i]);
		}
		search();
	}
	function clearzoom() {
		unzoom();

		// remove zoom state
		var params = get_params();
		if (params.x) delete params.x;
		if (params.y) delete params.y;
		history.replaceState(null, null, parse_params(params));
	}

	// search
	function toggle_ignorecase() {
		ignorecase = !ignorecase;
		if (ignorecase) {
			ignorecaseBtn.classList.add("show");
		} else {
			ignorecaseBtn.classList.remove("show");
		}
		reset_search();
		search();
	}
	function reset_search() {
		var el = document.querySelectorAll("#frames rect");
		for (var i = 0; i < el.length; i++) {
			orig_load(el[i], "fill")
		}
		var params = get_params();
		delete params.s;
		history.replaceState(null, null, parse_params(params));
	}
	function search_prompt() {
		if (!searching) {
			var term = prompt("Enter a search term (regexp " +
			    "allowed, eg: ^ext4_)"
			    + (ignorecase ? ", ignoring case" : "")
			    + "\nPress Ctrl-i to toggle case sensitivity", "");
			if (term != null) search(term);
		} else {
			reset_search();
			searching = 0;
			currentSearchTerm = null;
			searchbtn.classList.remove("show");
			searchbtn.firstChild.nodeValue = "Search"
			matchedtxt.classList.add("hide");
			matchedtxt.firstChild.nodeValue = ""
		}
	}
	function search(term) {
		if (term) currentSearchTerm = term;

		var re = new RegExp(currentSearchTerm, ignorecase ? 'i' : '');
		var el = document.getElementById("frames").children;
		var matches = new Object();
		var maxwidth = 0;
		for (var i = 0; i < el.length; i++) {
			var e = el[i];
			var func = g_to_func(e);
			var rect = find_child(e, "rect");
			if (func == null || rect == null)
				continue;

			// Save max width. Only works as we have a root frame
			var w = parseFloat(rect.attributes.width.value);
			if (w > maxwidth)
				maxwidth = w;

			if (func.match(re)) {
				// highlight
				var x = parseFloat(rect.attributes.x.value);
				orig_save(rect, "fill");
				rect.attributes.fill.value = "rgb(230,0,230)";

				// remember matches
				if (matches[x] == undefined) {
					matches[x] = w;
				} else {
					if (w > matches[x]) {
						// overwrite with parent
						matches[x] = w;
					}
				}
				searching = 1;
			}
		}
		if (!searching)
			return;
		var params = get_params();
		params.s = currentSearchTerm;
		history.replaceState(null, null, parse_params(params));

		searchbtn.classList.add("show");
		searchbtn.firstChild.nodeValue = "Reset Search";

		// calculate percent matched, excluding vertical overlap
		var count = 0;
		var lastx = -1;
		var lastw = 0;
		var keys = Array();
		for (k in matches) {
			if (matches.hasOwnProperty(k))
				keys.push(k);
		}
		// sort the matched frames by their x location
		// ascending, then width descending
		keys.sort(function(a, b){
			return a - b;
		});
		// Step through frames saving only the biggest bottom-up frames
		// thanks to the sort order. This relies on the tree property
		// where children are always smaller than their parents.
		var fudge = 0.0001;	// JavaScript floating point
		for (var k in keys) {
			var x = parseFloat(keys[k]);
			var w = matches[keys[k]];
			if (x >= lastx + lastw - fudge) {
				count += w;
				lastx = x;
				lastw = w;
			}
		}
		// display matched percent
		matchedtxt.classList.remove("hide");
		var pct = 100 * count / maxwidth;
		if (pct != 100) pct = pct.toFixed(1)
		matchedtxt.firstChild.nodeValue = "Matched: " + pct + "%";
	}
]]>
</script>
<rect x="0.0" y="0" width="1200.0" height="646.0" fill="url(#background)"  />
<text id="title" x="600.00" y="24" >Flame Graph</text>
<text id="details" x="10.00" y="629" > </text>
<text id="unzoom" x="10.00" y="24" class="hide">Reset Zoom</text>
<text id="search" x="1090.00" y="24" >Search</text>
<text id="ignorecase" x="1174.00" y="24" >ic</text>
<text id="matched" x="1090.00" y="629" > </text>
<g id="frames">
<g >
<title>ReleaseBuffer (2,750,308 samples, 0.01%)</title><rect x="1098.0" y="341" width="0.1" height="15.0" fill="rgb(220,71,17)" rx="2" ry="2" />
<text  x="1100.99" y="351.5" ></text>
</g>
<g >
<title>pg_detoast_datum_packed (54,991,123 samples, 0.20%)</title><rect x="1041.8" y="357" width="2.3" height="15.0" fill="rgb(238,155,37)" rx="2" ry="2" />
<text  x="1044.79" y="367.5" ></text>
</g>
<g >
<title>GetPrivateRefCountEntry (2,750,310 samples, 0.01%)</title><rect x="1096.2" y="325" width="0.1" height="15.0" fill="rgb(250,209,50)" rx="2" ry="2" />
<text  x="1099.22" y="335.5" ></text>
</g>
<g >
<title>sysvec_apic_timer_interrupt (11,005,134 samples, 0.04%)</title><rect x="1037.8" y="309" width="0.4" height="15.0" fill="rgb(220,69,16)" rx="2" ry="2" />
<text  x="1040.77" y="319.5" ></text>
</g>
<g >
<title>LockBuffer (5,500,543 samples, 0.02%)</title><rect x="1125.3" y="325" width="0.2" height="15.0" fill="rgb(235,142,34)" rx="2" ry="2" />
<text  x="1128.27" y="335.5" ></text>
</g>
<g >
<title>ExecInterpExpr (24,682,372,027 samples, 89.80%)</title><rect x="19.9" y="373" width="1059.7" height="15.0" fill="rgb(225,96,22)" rx="2" ry="2" />
<text  x="22.92" y="383.5" >ExecInterpExpr</text>
</g>
<g >
<title>IncrBufferRefCount (2,750,453 samples, 0.01%)</title><rect x="1097.9" y="341" width="0.1" height="15.0" fill="rgb(209,22,5)" rx="2" ry="2" />
<text  x="1100.87" y="351.5" ></text>
</g>
<g >
<title>update_wall_time (2,750,590 samples, 0.01%)</title><rect x="500.8" y="197" width="0.1" height="15.0" fill="rgb(207,11,2)" rx="2" ry="2" />
<text  x="503.82" y="207.5" ></text>
</g>
<g >
<title>_raw_spin_lock (2,750,721 samples, 0.01%)</title><rect x="500.9" y="181" width="0.2" height="15.0" fill="rgb(239,160,38)" rx="2" ry="2" />
<text  x="503.94" y="191.5" ></text>
</g>
<g >
<title>ExecSeqScanWithQual (27,287,557,567 samples, 99.28%)</title><rect x="12.0" y="389" width="1171.5" height="15.0" fill="rgb(254,227,54)" rx="2" ry="2" />
<text  x="15.01" y="399.5" >ExecSeqScanWithQual</text>
</g>
<g >
<title>ExecInterpExpr (46,757,282 samples, 0.17%)</title><rect x="10.0" y="389" width="2.0" height="15.0" fill="rgb(225,96,22)" rx="2" ry="2" />
<text  x="13.00" y="399.5" ></text>
</g>
<g >
<title>__sysvec_apic_timer_interrupt (11,002,812 samples, 0.04%)</title><rect x="1037.8" y="293" width="0.4" height="15.0" fill="rgb(242,173,41)" rx="2" ry="2" />
<text  x="1040.77" y="303.5" ></text>
</g>
<g >
<title>postmaster_child_launch (27,485,577,812 samples, 100.00%)</title><rect x="10.0" y="501" width="1180.0" height="15.0" fill="rgb(206,5,1)" rx="2" ry="2" />
<text  x="13.00" y="511.5" >postmaster_child_launch</text>
</g>
<g >
<title>hrtimer_interrupt (11,003,059 samples, 0.04%)</title><rect x="500.8" y="277" width="0.5" height="15.0" fill="rgb(228,109,26)" rx="2" ry="2" />
<text  x="503.82" y="287.5" ></text>
</g>
<g >
<title>LWLockAcquire (2,748,057 samples, 0.01%)</title><rect x="1153.9" y="293" width="0.1" height="15.0" fill="rgb(209,20,4)" rx="2" ry="2" />
<text  x="1156.87" y="303.5" ></text>
</g>
<g >
<title>tick_sched_timer (11,003,059 samples, 0.04%)</title><rect x="500.8" y="245" width="0.5" height="15.0" fill="rgb(254,227,54)" rx="2" ry="2" />
<text  x="503.82" y="255.5" ></text>
</g>
<g >
<title>GetPrivateRefCountEntry (5,500,811 samples, 0.02%)</title><rect x="1166.7" y="277" width="0.3" height="15.0" fill="rgb(250,209,50)" rx="2" ry="2" />
<text  x="1169.74" y="287.5" ></text>
</g>
<g >
<title>ResourceOwnerForget (2,750,199 samples, 0.01%)</title><rect x="1125.7" y="309" width="0.2" height="15.0" fill="rgb(235,142,33)" rx="2" ry="2" />
<text  x="1128.74" y="319.5" ></text>
</g>
<g >
<title>pg_mbstrlen_with_len (16,501,194 samples, 0.06%)</title><rect x="1044.1" y="357" width="0.8" height="15.0" fill="rgb(228,106,25)" rx="2" ry="2" />
<text  x="1047.15" y="367.5" ></text>
</g>
<g >
<title>get_hash_value (2,749,744 samples, 0.01%)</title><rect x="1168.2" y="309" width="0.1" height="15.0" fill="rgb(211,27,6)" rx="2" ry="2" />
<text  x="1171.16" y="319.5" ></text>
</g>
<g >
<title>hrtimer_interrupt (11,002,812 samples, 0.04%)</title><rect x="1037.8" y="277" width="0.4" height="15.0" fill="rgb(228,109,26)" rx="2" ry="2" />
<text  x="1040.77" y="287.5" ></text>
</g>
<g >
<title>bpcharlen (82,508,031 samples, 0.30%)</title><rect x="1170.5" y="373" width="3.6" height="15.0" fill="rgb(221,77,18)" rx="2" ry="2" />
<text  x="1173.52" y="383.5" ></text>
</g>
<g >
<title>slot_getsomeattrs_int (24,754,820 samples, 0.09%)</title><rect x="1182.4" y="373" width="1.1" height="15.0" fill="rgb(252,219,52)" rx="2" ry="2" />
<text  x="1185.44" y="383.5" ></text>
</g>
<g >
<title>perf_event_task_tick (2,751,083 samples, 0.01%)</title><rect x="501.2" y="181" width="0.1" height="15.0" fill="rgb(205,3,0)" rx="2" ry="2" />
<text  x="504.18" y="191.5" ></text>
</g>
<g >
<title>x86_pmu_disable_all (2,750,528 samples, 0.01%)</title><rect x="1179.4" y="149" width="0.1" height="15.0" fill="rgb(254,227,54)" rx="2" ry="2" />
<text  x="1182.37" y="159.5" ></text>
</g>
<g >
<title>__libc_start_call_main (27,485,577,812 samples, 100.00%)</title><rect x="10.0" y="565" width="1180.0" height="15.0" fill="rgb(210,26,6)" rx="2" ry="2" />
<text  x="13.00" y="575.5" >__libc_start_call_main</text>
</g>
<g >
<title>tick_do_update_jiffies64 (2,750,590 samples, 0.01%)</title><rect x="500.8" y="213" width="0.1" height="15.0" fill="rgb(208,14,3)" rx="2" ry="2" />
<text  x="503.82" y="223.5" ></text>
</g>
<g >
<title>heap_prepare_pagescan (2,746,454 samples, 0.01%)</title><rect x="1098.3" y="341" width="0.2" height="15.0" fill="rgb(222,82,19)" rx="2" ry="2" />
<text  x="1101.35" y="351.5" ></text>
</g>
<g >
<title>hrtimer_interrupt (2,750,528 samples, 0.01%)</title><rect x="1179.4" y="309" width="0.1" height="15.0" fill="rgb(228,109,26)" rx="2" ry="2" />
<text  x="1182.37" y="319.5" ></text>
</g>
<g >
<title>amd_pmu_addr_offset (2,750,845 samples, 0.01%)</title><rect x="1038.0" y="101" width="0.1" height="15.0" fill="rgb(227,104,25)" rx="2" ry="2" />
<text  x="1041.01" y="111.5" ></text>
</g>
<g >
<title>tick_sched_do_timer (2,750,826 samples, 0.01%)</title><rect x="1037.8" y="229" width="0.1" height="15.0" fill="rgb(227,104,25)" rx="2" ry="2" />
<text  x="1040.77" y="239.5" ></text>
</g>
<g >
<title>perf_adjust_freq_unthr_context (2,750,528 samples, 0.01%)</title><rect x="1179.4" y="197" width="0.1" height="15.0" fill="rgb(236,146,35)" rx="2" ry="2" />
<text  x="1182.37" y="207.5" ></text>
</g>
<g >
<title>SeqNext (2,055,112,361 samples, 7.48%)</title><rect x="1082.3" y="373" width="88.2" height="15.0" fill="rgb(214,41,10)" rx="2" ry="2" />
<text  x="1085.29" y="383.5" >SeqNext</text>
</g>
<g >
<title>update_wall_time (2,750,826 samples, 0.01%)</title><rect x="1037.8" y="197" width="0.1" height="15.0" fill="rgb(207,11,2)" rx="2" ry="2" />
<text  x="1040.77" y="207.5" ></text>
</g>
<g >
<title>slot_getsomeattrs_int (761,920,572 samples, 2.77%)</title><rect x="1044.9" y="357" width="32.7" height="15.0" fill="rgb(252,219,52)" rx="2" ry="2" />
<text  x="1047.85" y="367.5" >sl..</text>
</g>
<g >
<title>MemoryContextReset (118,259,068 samples, 0.43%)</title><rect x="1183.5" y="389" width="5.1" height="15.0" fill="rgb(210,26,6)" rx="2" ry="2" />
<text  x="1186.51" y="399.5" ></text>
</g>
<g >
<title>__sysvec_apic_timer_interrupt (13,753,249 samples, 0.05%)</title><rect x="500.8" y="293" width="0.6" height="15.0" fill="rgb(242,173,41)" rx="2" ry="2" />
<text  x="503.82" y="303.5" ></text>
</g>
<g >
<title>read_stream_next_buffer (2,750,083 samples, 0.01%)</title><rect x="1170.0" y="341" width="0.2" height="15.0" fill="rgb(216,50,12)" rx="2" ry="2" />
<text  x="1173.05" y="351.5" ></text>
</g>
<g >
<title>StartReadBuffer (828,489,160 samples, 3.01%)</title><rect x="1132.6" y="309" width="35.6" height="15.0" fill="rgb(222,78,18)" rx="2" ry="2" />
<text  x="1135.59" y="319.5" >Sta..</text>
</g>
<g >
<title>[postgres] (27,485,577,812 samples, 100.00%)</title><rect x="10.0" y="485" width="1180.0" height="15.0" fill="rgb(245,184,44)" rx="2" ry="2" />
<text  x="13.00" y="495.5" >[postgres]</text>
</g>
<g >
<title>GetPrivateRefCountEntry (2,749,096 samples, 0.01%)</title><rect x="1153.8" y="293" width="0.1" height="15.0" fill="rgb(250,209,50)" rx="2" ry="2" />
<text  x="1156.75" y="303.5" ></text>
</g>
<g >
<title>heap_getnextslot (126,520,068 samples, 0.46%)</title><rect x="1174.1" y="373" width="5.4" height="15.0" fill="rgb(213,40,9)" rx="2" ry="2" />
<text  x="1177.06" y="383.5" ></text>
</g>
<g >
<title>BufTableLookup (319,687,688 samples, 1.16%)</title><rect x="1140.0" y="293" width="13.8" height="15.0" fill="rgb(224,89,21)" rx="2" ry="2" />
<text  x="1143.03" y="303.5" ></text>
</g>
<g >
<title>update_process_times (2,750,928 samples, 0.01%)</title><rect x="1153.6" y="149" width="0.2" height="15.0" fill="rgb(250,209,50)" rx="2" ry="2" />
<text  x="1156.63" y="159.5" ></text>
</g>
<g >
<title>main (27,485,577,812 samples, 100.00%)</title><rect x="10.0" y="549" width="1180.0" height="15.0" fill="rgb(243,179,42)" rx="2" ry="2" />
<text  x="13.00" y="559.5" >main</text>
</g>
<g >
<title>exec_simple_query (27,485,577,812 samples, 100.00%)</title><rect x="10.0" y="453" width="1180.0" height="15.0" fill="rgb(211,29,6)" rx="2" ry="2" />
<text  x="13.00" y="463.5" >exec_simple_query</text>
</g>
<g >
<title>heap_getnextslot (1,895,596,265 samples, 6.90%)</title><rect x="1088.8" y="357" width="81.4" height="15.0" fill="rgb(213,40,9)" rx="2" ry="2" />
<text  x="1091.78" y="367.5" >heap_getn..</text>
</g>
<g >
<title>perf_event_task_tick (2,750,528 samples, 0.01%)</title><rect x="1179.4" y="213" width="0.1" height="15.0" fill="rgb(205,3,0)" rx="2" ry="2" />
<text  x="1182.37" y="223.5" ></text>
</g>
<g >
<title>update_process_times (8,252,469 samples, 0.03%)</title><rect x="500.9" y="213" width="0.4" height="15.0" fill="rgb(250,209,50)" rx="2" ry="2" />
<text  x="503.94" y="223.5" ></text>
</g>
<g >
<title>PinBuffer (176,020,353 samples, 0.64%)</title><rect x="1159.4" y="293" width="7.6" height="15.0" fill="rgb(219,64,15)" rx="2" ry="2" />
<text  x="1162.42" y="303.5" ></text>
</g>
<g >
<title>sysvec_apic_timer_interrupt (2,750,528 samples, 0.01%)</title><rect x="1179.4" y="341" width="0.1" height="15.0" fill="rgb(220,69,16)" rx="2" ry="2" />
<text  x="1182.37" y="351.5" ></text>
</g>
<g >
<title>pg_mbstrlen_with_len (8,988,538,339 samples, 32.70%)</title><rect x="115.5" y="341" width="385.9" height="15.0" fill="rgb(228,106,25)" rx="2" ry="2" />
<text  x="118.52" y="351.5" >pg_mbstrlen_with_len</text>
</g>
<g >
<title>hrtimer_active (2,750,665 samples, 0.01%)</title><rect x="501.1" y="181" width="0.1" height="15.0" fill="rgb(212,34,8)" rx="2" ry="2" />
<text  x="504.06" y="191.5" ></text>
</g>
<g >
<title>PortalRunSelect (27,485,577,812 samples, 100.00%)</title><rect x="10.0" y="421" width="1180.0" height="15.0" fill="rgb(245,188,45)" rx="2" ry="2" />
<text  x="13.00" y="431.5" >PortalRunSelect</text>
</g>
<g >
<title>LWLockRelease (60,509,000 samples, 0.22%)</title><rect x="1129.8" y="309" width="2.6" height="15.0" fill="rgb(217,58,13)" rx="2" ry="2" />
<text  x="1132.75" y="319.5" ></text>
</g>
<g >
<title>run_posix_cpu_timers (2,751,020 samples, 0.01%)</title><rect x="1037.9" y="213" width="0.1" height="15.0" fill="rgb(250,208,49)" rx="2" ry="2" />
<text  x="1040.89" y="223.5" ></text>
</g>
<g >
<title>scheduler_tick (2,750,928 samples, 0.01%)</title><rect x="1153.6" y="133" width="0.2" height="15.0" fill="rgb(246,190,45)" rx="2" ry="2" />
<text  x="1156.63" y="143.5" ></text>
</g>
<g >
<title>pg_database_encoding_max_length (77,005,631 samples, 0.28%)</title><rect x="1038.5" y="357" width="3.3" height="15.0" fill="rgb(243,176,42)" rx="2" ry="2" />
<text  x="1041.48" y="367.5" ></text>
</g>
<g >
<title>GetPrivateRefCountEntry (2,750,535 samples, 0.01%)</title><rect x="1097.8" y="309" width="0.1" height="15.0" fill="rgb(250,209,50)" rx="2" ry="2" />
<text  x="1100.75" y="319.5" ></text>
</g>
<g >
<title>SeqNext (33,003,895 samples, 0.12%)</title><rect x="1188.6" y="389" width="1.4" height="15.0" fill="rgb(214,41,10)" rx="2" ry="2" />
<text  x="1191.58" y="399.5" ></text>
</g>
<g >
<title>x86_pmu_disable (2,750,845 samples, 0.01%)</title><rect x="1038.0" y="149" width="0.1" height="15.0" fill="rgb(239,160,38)" rx="2" ry="2" />
<text  x="1041.01" y="159.5" ></text>
</g>
<g >
<title>LWLockAttemptLock (21,999,273 samples, 0.08%)</title><rect x="1154.0" y="293" width="0.9" height="15.0" fill="rgb(235,138,33)" rx="2" ry="2" />
<text  x="1156.99" y="303.5" ></text>
</g>
<g >
<title>LWLockRelease (104,510,629 samples, 0.38%)</title><rect x="1154.9" y="293" width="4.5" height="15.0" fill="rgb(217,58,13)" rx="2" ry="2" />
<text  x="1157.93" y="303.5" ></text>
</g>
<g >
<title>tick_program_event (2,750,190 samples, 0.01%)</title><rect x="501.3" y="277" width="0.1" height="15.0" fill="rgb(241,166,39)" rx="2" ry="2" />
<text  x="504.30" y="287.5" ></text>
</g>
<g >
<title>x86_pmu_disable (2,750,928 samples, 0.01%)</title><rect x="1153.6" y="85" width="0.2" height="15.0" fill="rgb(239,160,38)" rx="2" ry="2" />
<text  x="1156.63" y="95.5" ></text>
</g>
<g >
<title>PostgresMain (27,485,577,812 samples, 100.00%)</title><rect x="10.0" y="469" width="1180.0" height="15.0" fill="rgb(227,103,24)" rx="2" ry="2" />
<text  x="13.00" y="479.5" >PostgresMain</text>
</g>
<g >
<title>hash_search_with_hash_value (319,687,688 samples, 1.16%)</title><rect x="1140.0" y="277" width="13.8" height="15.0" fill="rgb(249,205,49)" rx="2" ry="2" />
<text  x="1143.03" y="287.5" ></text>
</g>
<g >
<title>ResourceOwnerEnlarge (2,750,443 samples, 0.01%)</title><rect x="1167.0" y="293" width="0.1" height="15.0" fill="rgb(223,86,20)" rx="2" ry="2" />
<text  x="1169.98" y="303.5" ></text>
</g>
<g >
<title>update_process_times (5,500,966 samples, 0.02%)</title><rect x="1038.0" y="213" width="0.2" height="15.0" fill="rgb(250,209,50)" rx="2" ry="2" />
<text  x="1041.01" y="223.5" ></text>
</g>
<g >
<title>pgstat_count_io_op (5,501,347 samples, 0.02%)</title><rect x="1167.9" y="293" width="0.3" height="15.0" fill="rgb(207,10,2)" rx="2" ry="2" />
<text  x="1170.92" y="303.5" ></text>
</g>
<g >
<title>update_vsyscall (2,750,590 samples, 0.01%)</title><rect x="500.8" y="165" width="0.1" height="15.0" fill="rgb(254,229,54)" rx="2" ry="2" />
<text  x="503.82" y="175.5" ></text>
</g>
<g >
<title>ReleaseBuffer (5,475,287 samples, 0.02%)</title><rect x="1096.8" y="325" width="0.2" height="15.0" fill="rgb(220,71,17)" rx="2" ry="2" />
<text  x="1099.81" y="335.5" ></text>
</g>
<g >
<title>scheduler_tick (5,500,966 samples, 0.02%)</title><rect x="1038.0" y="197" width="0.2" height="15.0" fill="rgb(246,190,45)" rx="2" ry="2" />
<text  x="1041.01" y="207.5" ></text>
</g>
<g >
<title>tick_sched_timer (2,750,528 samples, 0.01%)</title><rect x="1179.4" y="277" width="0.1" height="15.0" fill="rgb(254,227,54)" rx="2" ry="2" />
<text  x="1182.37" y="287.5" ></text>
</g>
<g >
<title>__hrtimer_run_queues (11,002,812 samples, 0.04%)</title><rect x="1037.8" y="261" width="0.4" height="15.0" fill="rgb(237,150,35)" rx="2" ry="2" />
<text  x="1040.77" y="271.5" ></text>
</g>
<g >
<title>__sysvec_apic_timer_interrupt (2,750,928 samples, 0.01%)</title><rect x="1153.6" y="229" width="0.2" height="15.0" fill="rgb(242,173,41)" rx="2" ry="2" />
<text  x="1156.63" y="239.5" ></text>
</g>
<g >
<title>ReleaseBuffer (8,251,486 samples, 0.03%)</title><rect x="1125.5" y="325" width="0.4" height="15.0" fill="rgb(220,71,17)" rx="2" ry="2" />
<text  x="1128.50" y="335.5" ></text>
</g>
<g >
<title>read_stream_next_buffer (957,760,343 samples, 3.48%)</title><rect x="1128.9" y="325" width="41.1" height="15.0" fill="rgb(216,50,12)" rx="2" ry="2" />
<text  x="1131.93" y="335.5" >rea..</text>
</g>
<g >
<title>hrtimer_interrupt (2,750,928 samples, 0.01%)</title><rect x="1153.6" y="213" width="0.2" height="15.0" fill="rgb(228,109,26)" rx="2" ry="2" />
<text  x="1156.63" y="223.5" ></text>
</g>
<g >
<title>update_load_avg (2,750,121 samples, 0.01%)</title><rect x="1038.1" y="181" width="0.1" height="15.0" fill="rgb(240,165,39)" rx="2" ry="2" />
<text  x="1041.12" y="191.5" ></text>
</g>
<g >
<title>heapgettup_pagemode (8,249,254 samples, 0.03%)</title><rect x="1170.2" y="357" width="0.3" height="15.0" fill="rgb(242,170,40)" rx="2" ry="2" />
<text  x="1173.16" y="367.5" ></text>
</g>
<g >
<title>tick_sched_do_timer (2,750,590 samples, 0.01%)</title><rect x="500.8" y="229" width="0.1" height="15.0" fill="rgb(227,104,25)" rx="2" ry="2" />
<text  x="503.82" y="239.5" ></text>
</g>
<g >
<title>PostmasterMain (27,485,577,812 samples, 100.00%)</title><rect x="10.0" y="533" width="1180.0" height="15.0" fill="rgb(212,35,8)" rx="2" ry="2" />
<text  x="13.00" y="543.5" >PostmasterMain</text>
</g>
<g >
<title>asm_sysvec_apic_timer_interrupt (2,750,928 samples, 0.01%)</title><rect x="1153.6" y="261" width="0.2" height="15.0" fill="rgb(232,127,30)" rx="2" ry="2" />
<text  x="1156.63" y="271.5" ></text>
</g>
<g >
<title>UnpinBufferNoOwner (19,253,908 samples, 0.07%)</title><rect x="1125.9" y="325" width="0.8" height="15.0" fill="rgb(253,221,53)" rx="2" ry="2" />
<text  x="1128.86" y="335.5" ></text>
</g>
<g >
<title>ServerLoop (27,485,577,812 samples, 100.00%)</title><rect x="10.0" y="517" width="1180.0" height="15.0" fill="rgb(238,155,37)" rx="2" ry="2" />
<text  x="13.00" y="527.5" >ServerLoop</text>
</g>
<g >
<title>__hrtimer_run_queues (11,003,059 samples, 0.04%)</title><rect x="500.8" y="261" width="0.5" height="15.0" fill="rgb(237,150,35)" rx="2" ry="2" />
<text  x="503.82" y="271.5" ></text>
</g>
<g >
<title>tick_sched_handle (8,251,986 samples, 0.03%)</title><rect x="1037.9" y="229" width="0.3" height="15.0" fill="rgb(219,68,16)" rx="2" ry="2" />
<text  x="1040.89" y="239.5" ></text>
</g>
<g >
<title>tick_sched_handle (8,252,469 samples, 0.03%)</title><rect x="500.9" y="229" width="0.4" height="15.0" fill="rgb(219,68,16)" rx="2" ry="2" />
<text  x="503.94" y="239.5" ></text>
</g>
<g >
<title>LWLockAttemptLock (2,750,624 samples, 0.01%)</title><rect x="1128.7" y="309" width="0.1" height="15.0" fill="rgb(235,138,33)" rx="2" ry="2" />
<text  x="1131.69" y="319.5" ></text>
</g>
<g >
<title>MemoryContextReset (63,255,384 samples, 0.23%)</title><rect x="1079.6" y="373" width="2.7" height="15.0" fill="rgb(210,26,6)" rx="2" ry="2" />
<text  x="1082.57" y="383.5" ></text>
</g>
<g >
<title>asm_sysvec_apic_timer_interrupt (11,005,134 samples, 0.04%)</title><rect x="1037.8" y="325" width="0.4" height="15.0" fill="rgb(232,127,30)" rx="2" ry="2" />
<text  x="1040.77" y="335.5" ></text>
</g>
<g >
<title>tts_buffer_heap_getsomeattrs (632,657,097 samples, 2.30%)</title><rect x="1050.4" y="341" width="27.2" height="15.0" fill="rgb(222,81,19)" rx="2" ry="2" />
<text  x="1053.40" y="351.5" >t..</text>
</g>
<g >
<title>amd_pmu_disable_all (2,750,928 samples, 0.01%)</title><rect x="1153.6" y="69" width="0.2" height="15.0" fill="rgb(213,38,9)" rx="2" ry="2" />
<text  x="1156.63" y="79.5" ></text>
</g>
<g >
<title>asm_sysvec_apic_timer_interrupt (2,750,528 samples, 0.01%)</title><rect x="1179.4" y="357" width="0.1" height="15.0" fill="rgb(232,127,30)" rx="2" ry="2" />
<text  x="1182.37" y="367.5" ></text>
</g>
<g >
<title>tick_sched_handle (2,750,528 samples, 0.01%)</title><rect x="1179.4" y="261" width="0.1" height="15.0" fill="rgb(219,68,16)" rx="2" ry="2" />
<text  x="1182.37" y="271.5" ></text>
</g>
<g >
<title>amd_pmu_disable_all (2,750,845 samples, 0.01%)</title><rect x="1038.0" y="133" width="0.1" height="15.0" fill="rgb(213,38,9)" rx="2" ry="2" />
<text  x="1041.01" y="143.5" ></text>
</g>
<g >
<title>int4lt (68,759,132 samples, 0.25%)</title><rect x="1179.5" y="373" width="2.9" height="15.0" fill="rgb(242,172,41)" rx="2" ry="2" />
<text  x="1182.49" y="383.5" ></text>
</g>
<g >
<title>amd_pmu_disable_all (2,750,528 samples, 0.01%)</title><rect x="1179.4" y="165" width="0.1" height="15.0" fill="rgb(213,38,9)" rx="2" ry="2" />
<text  x="1182.37" y="175.5" ></text>
</g>
<g >
<title>sysvec_apic_timer_interrupt (2,750,928 samples, 0.01%)</title><rect x="1153.6" y="245" width="0.2" height="15.0" fill="rgb(220,69,16)" rx="2" ry="2" />
<text  x="1156.63" y="255.5" ></text>
</g>
<g >
<title>tick_sched_handle (2,750,928 samples, 0.01%)</title><rect x="1153.6" y="165" width="0.2" height="15.0" fill="rgb(219,68,16)" rx="2" ry="2" />
<text  x="1156.63" y="175.5" ></text>
</g>
<g >
<title>all (27,485,577,812 samples, 100%)</title><rect x="10.0" y="597" width="1180.0" height="15.0" fill="rgb(213,39,9)" rx="2" ry="2" />
<text  x="13.00" y="607.5" ></text>
</g>
<g >
<title>perf_event_task_tick (2,750,928 samples, 0.01%)</title><rect x="1153.6" y="117" width="0.2" height="15.0" fill="rgb(205,3,0)" rx="2" ry="2" />
<text  x="1156.63" y="127.5" ></text>
</g>
<g >
<title>UnpinBufferNoOwner (19,251,154 samples, 0.07%)</title><rect x="1097.0" y="325" width="0.9" height="15.0" fill="rgb(253,221,53)" rx="2" ry="2" />
<text  x="1100.05" y="335.5" ></text>
</g>
<g >
<title>heap_page_prune_opt (2,750,449 samples, 0.01%)</title><rect x="1128.8" y="309" width="0.1" height="15.0" fill="rgb(211,29,7)" rx="2" ry="2" />
<text  x="1131.81" y="319.5" ></text>
</g>
<g >
<title>postgres (27,485,577,812 samples, 100.00%)</title><rect x="10.0" y="581" width="1180.0" height="15.0" fill="rgb(233,131,31)" rx="2" ry="2" />
<text  x="13.00" y="591.5" >postgres</text>
</g>
<g >
<title>__hrtimer_run_queues (2,750,928 samples, 0.01%)</title><rect x="1153.6" y="197" width="0.2" height="15.0" fill="rgb(237,150,35)" rx="2" ry="2" />
<text  x="1156.63" y="207.5" ></text>
</g>
<g >
<title>ResourceOwnerRemember (5,500,575 samples, 0.02%)</title><rect x="1098.1" y="341" width="0.2" height="15.0" fill="rgb(243,178,42)" rx="2" ry="2" />
<text  x="1101.11" y="351.5" ></text>
</g>
<g >
<title>ExecStoreBufferHeapTuple (107,235,088 samples, 0.39%)</title><rect x="1093.3" y="341" width="4.6" height="15.0" fill="rgb(230,117,28)" rx="2" ry="2" />
<text  x="1096.27" y="351.5" ></text>
</g>
<g >
<title>heap_prepare_pagescan (52,250,123 samples, 0.19%)</title><rect x="1126.7" y="325" width="2.2" height="15.0" fill="rgb(222,82,19)" rx="2" ry="2" />
<text  x="1129.68" y="335.5" ></text>
</g>
<g >
<title>x86_pmu_disable_all (2,750,928 samples, 0.01%)</title><rect x="1153.6" y="53" width="0.2" height="15.0" fill="rgb(254,227,54)" rx="2" ry="2" />
<text  x="1156.63" y="63.5" ></text>
</g>
<g >
<title>GetPrivateRefCountEntry (5,500,145 samples, 0.02%)</title><rect x="1096.6" y="309" width="0.2" height="15.0" fill="rgb(250,209,50)" rx="2" ry="2" />
<text  x="1099.58" y="319.5" ></text>
</g>
<g >
<title>IncrBufferRefCount (10,999,942 samples, 0.04%)</title><rect x="1096.3" y="325" width="0.5" height="15.0" fill="rgb(209,22,5)" rx="2" ry="2" />
<text  x="1099.34" y="335.5" ></text>
</g>
<g >
<title>heapgettup_pagemode (1,667,353,849 samples, 6.07%)</title><rect x="1098.5" y="341" width="71.5" height="15.0" fill="rgb(242,170,40)" rx="2" ry="2" />
<text  x="1101.46" y="351.5" >heapgett..</text>
</g>
<g >
<title>x86_pmu_disable (2,750,528 samples, 0.01%)</title><rect x="1179.4" y="181" width="0.1" height="15.0" fill="rgb(239,160,38)" rx="2" ry="2" />
<text  x="1182.37" y="191.5" ></text>
</g>
<g >
<title>perf_adjust_freq_unthr_context (2,750,928 samples, 0.01%)</title><rect x="1153.6" y="101" width="0.2" height="15.0" fill="rgb(236,146,35)" rx="2" ry="2" />
<text  x="1156.63" y="111.5" ></text>
</g>
<g >
<title>ResourceOwnerForget (5,475,287 samples, 0.02%)</title><rect x="1096.8" y="309" width="0.2" height="15.0" fill="rgb(235,142,33)" rx="2" ry="2" />
<text  x="1099.81" y="319.5" ></text>
</g>
<g >
<title>asm_sysvec_apic_timer_interrupt (13,753,249 samples, 0.05%)</title><rect x="500.8" y="325" width="0.6" height="15.0" fill="rgb(232,127,30)" rx="2" ry="2" />
<text  x="503.82" y="335.5" ></text>
</g>
<g >
<title>bpcharlen (22,252,984,096 samples, 80.96%)</title><rect x="83.1" y="357" width="955.4" height="15.0" fill="rgb(221,77,18)" rx="2" ry="2" />
<text  x="86.12" y="367.5" >bpcharlen</text>
</g>
<g >
<title>pgstat_count_io_op (24,753,571 samples, 0.09%)</title><rect x="1169.0" y="309" width="1.0" height="15.0" fill="rgb(207,10,2)" rx="2" ry="2" />
<text  x="1171.98" y="319.5" ></text>
</g>
<g >
<title>PinBuffer (5,502,059 samples, 0.02%)</title><rect x="1132.4" y="309" width="0.2" height="15.0" fill="rgb(219,64,15)" rx="2" ry="2" />
<text  x="1135.35" y="319.5" ></text>
</g>
<g >
<title>LWLockRelease (41,258,918 samples, 0.15%)</title><rect x="1123.5" y="325" width="1.8" height="15.0" fill="rgb(217,58,13)" rx="2" ry="2" />
<text  x="1126.50" y="335.5" ></text>
</g>
<g >
<title>standard_ExecutorRun (27,485,577,812 samples, 100.00%)</title><rect x="10.0" y="405" width="1180.0" height="15.0" fill="rgb(247,196,47)" rx="2" ry="2" />
<text  x="13.00" y="415.5" >standard_ExecutorRun</text>
</g>
<g >
<title>x86_pmu_disable_all (2,750,845 samples, 0.01%)</title><rect x="1038.0" y="117" width="0.1" height="15.0" fill="rgb(254,227,54)" rx="2" ry="2" />
<text  x="1041.01" y="127.5" ></text>
</g>
<g >
<title>tick_do_update_jiffies64 (2,750,826 samples, 0.01%)</title><rect x="1037.8" y="213" width="0.1" height="15.0" fill="rgb(208,14,3)" rx="2" ry="2" />
<text  x="1040.77" y="223.5" ></text>
</g>
<g >
<title>timekeeping_advance (2,750,590 samples, 0.01%)</title><rect x="500.8" y="181" width="0.1" height="15.0" fill="rgb(227,104,25)" rx="2" ry="2" />
<text  x="503.82" y="191.5" ></text>
</g>
<g >
<title>sync_regs (5,501,284 samples, 0.02%)</title><rect x="1038.2" y="325" width="0.3" height="15.0" fill="rgb(228,106,25)" rx="2" ry="2" />
<text  x="1041.24" y="335.5" ></text>
</g>
<g >
<title>GetPrivateRefCountEntry (11,002,433 samples, 0.04%)</title><rect x="1126.2" y="309" width="0.5" height="15.0" fill="rgb(250,209,50)" rx="2" ry="2" />
<text  x="1129.21" y="319.5" ></text>
</g>
<g >
<title>update_process_times (2,750,528 samples, 0.01%)</title><rect x="1179.4" y="245" width="0.1" height="15.0" fill="rgb(250,209,50)" rx="2" ry="2" />
<text  x="1182.37" y="255.5" ></text>
</g>
<g >
<title>pg_utf_mblen_private (12,509,788,057 samples, 45.51%)</title><rect x="501.4" y="341" width="537.1" height="15.0" fill="rgb(242,173,41)" rx="2" ry="2" />
<text  x="504.41" y="351.5" >pg_utf_mblen_private</text>
</g>
<g >
<title>scheduler_tick (8,252,469 samples, 0.03%)</title><rect x="500.9" y="197" width="0.4" height="15.0" fill="rgb(246,190,45)" rx="2" ry="2" />
<text  x="503.94" y="207.5" ></text>
</g>
<g >
<title>scheduler_tick (2,750,528 samples, 0.01%)</title><rect x="1179.4" y="229" width="0.1" height="15.0" fill="rgb(246,190,45)" rx="2" ry="2" />
<text  x="1182.37" y="239.5" ></text>
</g>
<g >
<title>ExecStoreBufferHeapTuple (13,751,854 samples, 0.05%)</title><rect x="1088.2" y="357" width="0.6" height="15.0" fill="rgb(230,117,28)" rx="2" ry="2" />
<text  x="1091.19" y="367.5" ></text>
</g>
<g >
<title>tts_buffer_heap_getsomeattrs (46,758,889 samples, 0.17%)</title><rect x="1077.6" y="357" width="2.0" height="15.0" fill="rgb(222,81,19)" rx="2" ry="2" />
<text  x="1080.57" y="367.5" ></text>
</g>
<g >
<title>pgstat_count_backend_io_op (5,500,861 samples, 0.02%)</title><rect x="1167.7" y="293" width="0.2" height="15.0" fill="rgb(244,179,42)" rx="2" ry="2" />
<text  x="1170.68" y="303.5" ></text>
</g>
<g >
<title>PortalRun (27,485,577,812 samples, 100.00%)</title><rect x="10.0" y="437" width="1180.0" height="15.0" fill="rgb(223,85,20)" rx="2" ry="2" />
<text  x="13.00" y="447.5" >PortalRun</text>
</g>
<g >
<title>ResourceOwnerRemember (13,751,587 samples, 0.05%)</title><rect x="1167.1" y="293" width="0.6" height="15.0" fill="rgb(243,178,42)" rx="2" ry="2" />
<text  x="1170.09" y="303.5" ></text>
</g>
<g >
<title>sysvec_apic_timer_interrupt (13,753,249 samples, 0.05%)</title><rect x="500.8" y="309" width="0.6" height="15.0" fill="rgb(220,69,16)" rx="2" ry="2" />
<text  x="503.82" y="319.5" ></text>
</g>
<g >
<title>perf_event_task_tick (2,750,845 samples, 0.01%)</title><rect x="1038.0" y="181" width="0.1" height="15.0" fill="rgb(205,3,0)" rx="2" ry="2" />
<text  x="1041.01" y="191.5" ></text>
</g>
<g >
<title>amd_pmu_addr_offset (2,750,928 samples, 0.01%)</title><rect x="1153.6" y="37" width="0.2" height="15.0" fill="rgb(227,104,25)" rx="2" ry="2" />
<text  x="1156.63" y="47.5" ></text>
</g>
<g >
<title>__sysvec_apic_timer_interrupt (2,750,528 samples, 0.01%)</title><rect x="1179.4" y="325" width="0.1" height="15.0" fill="rgb(242,173,41)" rx="2" ry="2" />
<text  x="1182.37" y="335.5" ></text>
</g>
<g >
<title>perf_adjust_freq_unthr_context (2,750,845 samples, 0.01%)</title><rect x="1038.0" y="165" width="0.1" height="15.0" fill="rgb(236,146,35)" rx="2" ry="2" />
<text  x="1041.01" y="175.5" ></text>
</g>
<g >
<title>hash_bytes (16,502,994 samples, 0.06%)</title><rect x="1168.3" y="309" width="0.7" height="15.0" fill="rgb(227,102,24)" rx="2" ry="2" />
<text  x="1171.27" y="319.5" ></text>
</g>
<g >
<title>tick_sched_timer (11,002,812 samples, 0.04%)</title><rect x="1037.8" y="245" width="0.4" height="15.0" fill="rgb(254,227,54)" rx="2" ry="2" />
<text  x="1040.77" y="255.5" ></text>
</g>
<g >
<title>timekeeping_advance (2,750,826 samples, 0.01%)</title><rect x="1037.8" y="181" width="0.1" height="15.0" fill="rgb(227,104,25)" rx="2" ry="2" />
<text  x="1040.77" y="191.5" ></text>
</g>
<g >
<title>__hrtimer_run_queues (2,750,528 samples, 0.01%)</title><rect x="1179.4" y="293" width="0.1" height="15.0" fill="rgb(237,150,35)" rx="2" ry="2" />
<text  x="1182.37" y="303.5" ></text>
</g>
<g >
<title>tick_sched_timer (2,750,928 samples, 0.01%)</title><rect x="1153.6" y="181" width="0.2" height="15.0" fill="rgb(254,227,54)" rx="2" ry="2" />
<text  x="1156.63" y="191.5" ></text>
</g>
</g>
</svg>
