<?xml version="1.0" standalone="no"?>
<!DOCTYPE svg PUBLIC "-//W3C//DTD SVG 1.1//EN" "http://www.w3.org/Graphics/SVG/1.1/DTD/svg11.dtd">
<svg version="1.1" width="1200" height="518" onload="init(evt)" viewBox="0 0 1200 518" xmlns="http://www.w3.org/2000/svg" xmlns:xlink="http://www.w3.org/1999/xlink">
<!-- Flame graph stack visualization. See https://github.com/brendangregg/FlameGraph for latest version, and http://www.brendangregg.com/flamegraphs.html for examples. -->
<!-- NOTES:  -->
<defs>
	<linearGradient id="background" y1="0" y2="1" x1="0" x2="0" >
		<stop stop-color="#eeeeee" offset="5%" />
		<stop stop-color="#eeeeb0" offset="95%" />
	</linearGradient>
</defs>
<style type="text/css">
	text { font-family:Verdana; font-size:12px; fill:rgb(0,0,0); }
	#search, #ignorecase { opacity:0.1; cursor:pointer; }
	#search:hover, #search.show, #ignorecase:hover, #ignorecase.show { opacity:1; }
	#subtitle { text-anchor:middle; font-color:rgb(160,160,160); }
	#title { text-anchor:middle; font-size:17px}
	#unzoom { cursor:pointer; }
	#frames > *:hover { stroke:black; stroke-width:0.5; cursor:pointer; }
	.hide { display:none; }
	.parent { opacity:0.5; }
</style>
<script type="text/ecmascript">
<![CDATA[
	"use strict";
	var details, searchbtn, unzoombtn, matchedtxt, svg, searching, currentSearchTerm, ignorecase, ignorecaseBtn;
	function init(evt) {
		details = document.getElementById("details").firstChild;
		searchbtn = document.getElementById("search");
		ignorecaseBtn = document.getElementById("ignorecase");
		unzoombtn = document.getElementById("unzoom");
		matchedtxt = document.getElementById("matched");
		svg = document.getElementsByTagName("svg")[0];
		searching = 0;
		currentSearchTerm = null;

		// use GET parameters to restore a flamegraphs state.
		var params = get_params();
		if (params.x && params.y)
			zoom(find_group(document.querySelector('[x="' + params.x + '"][y="' + params.y + '"]')));
                if (params.s) search(params.s);
	}

	// event listeners
	window.addEventListener("click", function(e) {
		var target = find_group(e.target);
		if (target) {
			if (target.nodeName == "a") {
				if (e.ctrlKey === false) return;
				e.preventDefault();
			}
			if (target.classList.contains("parent")) unzoom(true);
			zoom(target);
			if (!document.querySelector('.parent')) {
				// we have basically done a clearzoom so clear the url
				var params = get_params();
				if (params.x) delete params.x;
				if (params.y) delete params.y;
				history.replaceState(null, null, parse_params(params));
				unzoombtn.classList.add("hide");
				return;
			}

			// set parameters for zoom state
			var el = target.querySelector("rect");
			if (el && el.attributes && el.attributes.y && el.attributes._orig_x) {
				var params = get_params()
				params.x = el.attributes._orig_x.value;
				params.y = el.attributes.y.value;
				history.replaceState(null, null, parse_params(params));
			}
		}
		else if (e.target.id == "unzoom") clearzoom();
		else if (e.target.id == "search") search_prompt();
		else if (e.target.id == "ignorecase") toggle_ignorecase();
	}, false)

	// mouse-over for info
	// show
	window.addEventListener("mouseover", function(e) {
		var target = find_group(e.target);
		if (target) details.nodeValue = "Function: " + g_to_text(target);
	}, false)

	// clear
	window.addEventListener("mouseout", function(e) {
		var target = find_group(e.target);
		if (target) details.nodeValue = ' ';
	}, false)

	// ctrl-F for search
	// ctrl-I to toggle case-sensitive search
	window.addEventListener("keydown",function (e) {
		if (e.keyCode === 114 || (e.ctrlKey && e.keyCode === 70)) {
			e.preventDefault();
			search_prompt();
		}
		else if (e.ctrlKey && e.keyCode === 73) {
			e.preventDefault();
			toggle_ignorecase();
		}
	}, false)

	// functions
	function get_params() {
		var params = {};
		var paramsarr = window.location.search.substr(1).split('&');
		for (var i = 0; i < paramsarr.length; ++i) {
			var tmp = paramsarr[i].split("=");
			if (!tmp[0] || !tmp[1]) continue;
			params[tmp[0]]  = decodeURIComponent(tmp[1]);
		}
		return params;
	}
	function parse_params(params) {
		var uri = "?";
		for (var key in params) {
			uri += key + '=' + encodeURIComponent(params[key]) + '&';
		}
		if (uri.slice(-1) == "&")
			uri = uri.substring(0, uri.length - 1);
		if (uri == '?')
			uri = window.location.href.split('?')[0];
		return uri;
	}
	function find_child(node, selector) {
		var children = node.querySelectorAll(selector);
		if (children.length) return children[0];
	}
	function find_group(node) {
		var parent = node.parentElement;
		if (!parent) return;
		if (parent.id == "frames") return node;
		return find_group(parent);
	}
	function orig_save(e, attr, val) {
		if (e.attributes["_orig_" + attr] != undefined) return;
		if (e.attributes[attr] == undefined) return;
		if (val == undefined) val = e.attributes[attr].value;
		e.setAttribute("_orig_" + attr, val);
	}
	function orig_load(e, attr) {
		if (e.attributes["_orig_"+attr] == undefined) return;
		e.attributes[attr].value = e.attributes["_orig_" + attr].value;
		e.removeAttribute("_orig_"+attr);
	}
	function g_to_text(e) {
		var text = find_child(e, "title").firstChild.nodeValue;
		return (text)
	}
	function g_to_func(e) {
		var func = g_to_text(e);
		// if there's any manipulation we want to do to the function
		// name before it's searched, do it here before returning.
		return (func);
	}
	function update_text(e) {
		var r = find_child(e, "rect");
		var t = find_child(e, "text");
		var w = parseFloat(r.attributes.width.value) -3;
		var txt = find_child(e, "title").textContent.replace(/\([^(]*\)$/,"");
		t.attributes.x.value = parseFloat(r.attributes.x.value) + 3;

		// Smaller than this size won't fit anything
		if (w < 2 * 12 * 0.59) {
			t.textContent = "";
			return;
		}

		t.textContent = txt;
		var sl = t.getSubStringLength(0, txt.length);
		// check if only whitespace or if we can fit the entire string into width w
		if (/^ *$/.test(txt) || sl < w)
			return;

		// this isn't perfect, but gives a good starting point
		// and avoids calling getSubStringLength too often
		var start = Math.floor((w/sl) * txt.length);
		for (var x = start; x > 0; x = x-2) {
			if (t.getSubStringLength(0, x + 2) <= w) {
				t.textContent = txt.substring(0, x) + "..";
				return;
			}
		}
		t.textContent = "";
	}

	// zoom
	function zoom_reset(e) {
		if (e.attributes != undefined) {
			orig_load(e, "x");
			orig_load(e, "width");
		}
		if (e.childNodes == undefined) return;
		for (var i = 0, c = e.childNodes; i < c.length; i++) {
			zoom_reset(c[i]);
		}
	}
	function zoom_child(e, x, ratio) {
		if (e.attributes != undefined) {
			if (e.attributes.x != undefined) {
				orig_save(e, "x");
				e.attributes.x.value = (parseFloat(e.attributes.x.value) - x - 10) * ratio + 10;
				if (e.tagName == "text")
					e.attributes.x.value = find_child(e.parentNode, "rect[x]").attributes.x.value + 3;
			}
			if (e.attributes.width != undefined) {
				orig_save(e, "width");
				e.attributes.width.value = parseFloat(e.attributes.width.value) * ratio;
			}
		}

		if (e.childNodes == undefined) return;
		for (var i = 0, c = e.childNodes; i < c.length; i++) {
			zoom_child(c[i], x - 10, ratio);
		}
	}
	function zoom_parent(e) {
		if (e.attributes) {
			if (e.attributes.x != undefined) {
				orig_save(e, "x");
				e.attributes.x.value = 10;
			}
			if (e.attributes.width != undefined) {
				orig_save(e, "width");
				e.attributes.width.value = parseInt(svg.width.baseVal.value) - (10 * 2);
			}
		}
		if (e.childNodes == undefined) return;
		for (var i = 0, c = e.childNodes; i < c.length; i++) {
			zoom_parent(c[i]);
		}
	}
	function zoom(node) {
		var attr = find_child(node, "rect").attributes;
		var width = parseFloat(attr.width.value);
		var xmin = parseFloat(attr.x.value);
		var xmax = parseFloat(xmin + width);
		var ymin = parseFloat(attr.y.value);
		var ratio = (svg.width.baseVal.value - 2 * 10) / width;

		// XXX: Workaround for JavaScript float issues (fix me)
		var fudge = 0.0001;

		unzoombtn.classList.remove("hide");

		var el = document.getElementById("frames").children;
		for (var i = 0; i < el.length; i++) {
			var e = el[i];
			var a = find_child(e, "rect").attributes;
			var ex = parseFloat(a.x.value);
			var ew = parseFloat(a.width.value);
			var upstack;
			// Is it an ancestor
			if (0 == 0) {
				upstack = parseFloat(a.y.value) > ymin;
			} else {
				upstack = parseFloat(a.y.value) < ymin;
			}
			if (upstack) {
				// Direct ancestor
				if (ex <= xmin && (ex+ew+fudge) >= xmax) {
					e.classList.add("parent");
					zoom_parent(e);
					update_text(e);
				}
				// not in current path
				else
					e.classList.add("hide");
			}
			// Children maybe
			else {
				// no common path
				if (ex < xmin || ex + fudge >= xmax) {
					e.classList.add("hide");
				}
				else {
					zoom_child(e, xmin, ratio);
					update_text(e);
				}
			}
		}
		search();
	}
	function unzoom(dont_update_text) {
		unzoombtn.classList.add("hide");
		var el = document.getElementById("frames").children;
		for(var i = 0; i < el.length; i++) {
			el[i].classList.remove("parent");
			el[i].classList.remove("hide");
			zoom_reset(el[i]);
			if(!dont_update_text) update_text(el[i]);
		}
		search();
	}
	function clearzoom() {
		unzoom();

		// remove zoom state
		var params = get_params();
		if (params.x) delete params.x;
		if (params.y) delete params.y;
		history.replaceState(null, null, parse_params(params));
	}

	// search
	function toggle_ignorecase() {
		ignorecase = !ignorecase;
		if (ignorecase) {
			ignorecaseBtn.classList.add("show");
		} else {
			ignorecaseBtn.classList.remove("show");
		}
		reset_search();
		search();
	}
	function reset_search() {
		var el = document.querySelectorAll("#frames rect");
		for (var i = 0; i < el.length; i++) {
			orig_load(el[i], "fill")
		}
		var params = get_params();
		delete params.s;
		history.replaceState(null, null, parse_params(params));
	}
	function search_prompt() {
		if (!searching) {
			var term = prompt("Enter a search term (regexp " +
			    "allowed, eg: ^ext4_)"
			    + (ignorecase ? ", ignoring case" : "")
			    + "\nPress Ctrl-i to toggle case sensitivity", "");
			if (term != null) search(term);
		} else {
			reset_search();
			searching = 0;
			currentSearchTerm = null;
			searchbtn.classList.remove("show");
			searchbtn.firstChild.nodeValue = "Search"
			matchedtxt.classList.add("hide");
			matchedtxt.firstChild.nodeValue = ""
		}
	}
	function search(term) {
		if (term) currentSearchTerm = term;

		var re = new RegExp(currentSearchTerm, ignorecase ? 'i' : '');
		var el = document.getElementById("frames").children;
		var matches = new Object();
		var maxwidth = 0;
		for (var i = 0; i < el.length; i++) {
			var e = el[i];
			var func = g_to_func(e);
			var rect = find_child(e, "rect");
			if (func == null || rect == null)
				continue;

			// Save max width. Only works as we have a root frame
			var w = parseFloat(rect.attributes.width.value);
			if (w > maxwidth)
				maxwidth = w;

			if (func.match(re)) {
				// highlight
				var x = parseFloat(rect.attributes.x.value);
				orig_save(rect, "fill");
				rect.attributes.fill.value = "rgb(230,0,230)";

				// remember matches
				if (matches[x] == undefined) {
					matches[x] = w;
				} else {
					if (w > matches[x]) {
						// overwrite with parent
						matches[x] = w;
					}
				}
				searching = 1;
			}
		}
		if (!searching)
			return;
		var params = get_params();
		params.s = currentSearchTerm;
		history.replaceState(null, null, parse_params(params));

		searchbtn.classList.add("show");
		searchbtn.firstChild.nodeValue = "Reset Search";

		// calculate percent matched, excluding vertical overlap
		var count = 0;
		var lastx = -1;
		var lastw = 0;
		var keys = Array();
		for (k in matches) {
			if (matches.hasOwnProperty(k))
				keys.push(k);
		}
		// sort the matched frames by their x location
		// ascending, then width descending
		keys.sort(function(a, b){
			return a - b;
		});
		// Step through frames saving only the biggest bottom-up frames
		// thanks to the sort order. This relies on the tree property
		// where children are always smaller than their parents.
		var fudge = 0.0001;	// JavaScript floating point
		for (var k in keys) {
			var x = parseFloat(keys[k]);
			var w = matches[keys[k]];
			if (x >= lastx + lastw - fudge) {
				count += w;
				lastx = x;
				lastw = w;
			}
		}
		// display matched percent
		matchedtxt.classList.remove("hide");
		var pct = 100 * count / maxwidth;
		if (pct != 100) pct = pct.toFixed(1)
		matchedtxt.firstChild.nodeValue = "Matched: " + pct + "%";
	}
]]>
</script>
<rect x="0.0" y="0" width="1200.0" height="518.0" fill="url(#background)"  />
<text id="title" x="600.00" y="24" >Flame Graph</text>
<text id="details" x="10.00" y="501" > </text>
<text id="unzoom" x="10.00" y="24" class="hide">Reset Zoom</text>
<text id="search" x="1090.00" y="24" >Search</text>
<text id="ignorecase" x="1174.00" y="24" >ic</text>
<text id="matched" x="1090.00" y="501" > </text>
<g id="frames">
<g >
<title>tts_buffer_heap_getsomeattrs (132,519,998 samples, 0.48%)</title><rect x="1047.0" y="229" width="5.6" height="15.0" fill="rgb(222,81,19)" rx="2" ry="2" />
<text  x="1049.96" y="239.5" ></text>
</g>
<g >
<title>hrtimer_interrupt (8,251,889 samples, 0.03%)</title><rect x="521.7" y="149" width="0.3" height="15.0" fill="rgb(228,109,26)" rx="2" ry="2" />
<text  x="524.66" y="159.5" ></text>
</g>
<g >
<title>BufTableLookup (269,524,154 samples, 0.98%)</title><rect x="1148.7" y="165" width="11.5" height="15.0" fill="rgb(224,89,21)" rx="2" ry="2" />
<text  x="1151.66" y="175.5" ></text>
</g>
<g >
<title>trigger_load_balance (2,750,696 samples, 0.01%)</title><rect x="116.1" y="69" width="0.1" height="15.0" fill="rgb(228,108,26)" rx="2" ry="2" />
<text  x="119.10" y="79.5" ></text>
</g>
<g >
<title>update_load_avg (2,750,818 samples, 0.01%)</title><rect x="94.3" y="69" width="0.1" height="15.0" fill="rgb(240,165,39)" rx="2" ry="2" />
<text  x="97.25" y="79.5" ></text>
</g>
<g >
<title>ResourceOwnerForget (8,251,071 samples, 0.03%)</title><rect x="1077.5" y="197" width="0.3" height="15.0" fill="rgb(235,142,33)" rx="2" ry="2" />
<text  x="1080.46" y="207.5" ></text>
</g>
<g >
<title>postmaster_child_launch (27,482,975,985 samples, 100.00%)</title><rect x="10.0" y="373" width="1180.0" height="15.0" fill="rgb(206,5,1)" rx="2" ry="2" />
<text  x="13.00" y="383.5" >postmaster_child_launch</text>
</g>
<g >
<title>LWLockRelease (11,000,557 samples, 0.04%)</title><rect x="1098.6" y="197" width="0.5" height="15.0" fill="rgb(217,58,13)" rx="2" ry="2" />
<text  x="1101.59" y="207.5" ></text>
</g>
<g >
<title>tick_sched_handle (2,750,818 samples, 0.01%)</title><rect x="94.3" y="133" width="0.1" height="15.0" fill="rgb(219,68,16)" rx="2" ry="2" />
<text  x="97.25" y="143.5" ></text>
</g>
<g >
<title>PortalRunSelect (27,482,975,985 samples, 100.00%)</title><rect x="10.0" y="293" width="1180.0" height="15.0" fill="rgb(245,188,45)" rx="2" ry="2" />
<text  x="13.00" y="303.5" >PortalRunSelect</text>
</g>
<g >
<title>ReleaseBuffer (19,252,346 samples, 0.07%)</title><rect x="1099.7" y="197" width="0.8" height="15.0" fill="rgb(220,71,17)" rx="2" ry="2" />
<text  x="1102.65" y="207.5" ></text>
</g>
<g >
<title>scheduler_tick (5,501,270 samples, 0.02%)</title><rect x="521.8" y="69" width="0.2" height="15.0" fill="rgb(246,190,45)" rx="2" ry="2" />
<text  x="524.78" y="79.5" ></text>
</g>
<g >
<title>heap_prepare_pagescan (41,255,463 samples, 0.15%)</title><rect x="1080.2" y="213" width="1.7" height="15.0" fill="rgb(222,82,19)" rx="2" ry="2" />
<text  x="1083.18" y="223.5" ></text>
</g>
<g >
<title>PinBuffer (2,750,444 samples, 0.01%)</title><rect x="1144.8" y="181" width="0.1" height="15.0" fill="rgb(219,64,15)" rx="2" ry="2" />
<text  x="1147.76" y="191.5" ></text>
</g>
<g >
<title>tick_program_event (2,751,078 samples, 0.01%)</title><rect x="986.6" y="133" width="0.1" height="15.0" fill="rgb(241,166,39)" rx="2" ry="2" />
<text  x="989.61" y="143.5" ></text>
</g>
<g >
<title>GetPrivateRefCountEntry (22,001,581 samples, 0.08%)</title><rect x="1100.7" y="181" width="1.0" height="15.0" fill="rgb(250,209,50)" rx="2" ry="2" />
<text  x="1103.72" y="191.5" ></text>
</g>
<g >
<title>bpcharlen (107,249,743 samples, 0.39%)</title><rect x="1171.5" y="245" width="4.6" height="15.0" fill="rgb(221,77,18)" rx="2" ry="2" />
<text  x="1174.46" y="255.5" ></text>
</g>
<g >
<title>read_stream_next_buffer (654,850,447 samples, 2.38%)</title><rect x="1142.5" y="197" width="28.1" height="15.0" fill="rgb(216,50,12)" rx="2" ry="2" />
<text  x="1145.52" y="207.5" >r..</text>
</g>
<g >
<title>BufferGetBlockNumber (49,499,712 samples, 0.18%)</title><rect x="1070.4" y="213" width="2.1" height="15.0" fill="rgb(206,7,1)" rx="2" ry="2" />
<text  x="1073.38" y="223.5" ></text>
</g>
<g >
<title>hash_search_with_hash_value (2,751,328 samples, 0.01%)</title><rect x="1168.5" y="165" width="0.1" height="15.0" fill="rgb(249,205,49)" rx="2" ry="2" />
<text  x="1171.50" y="175.5" ></text>
</g>
<g >
<title>[postgres] (27,482,975,985 samples, 100.00%)</title><rect x="10.0" y="357" width="1180.0" height="15.0" fill="rgb(245,184,44)" rx="2" ry="2" />
<text  x="13.00" y="367.5" >[postgres]</text>
</g>
<g >
<title>tick_sched_handle (8,251,869 samples, 0.03%)</title><rect x="986.3" y="101" width="0.3" height="15.0" fill="rgb(219,68,16)" rx="2" ry="2" />
<text  x="989.25" y="111.5" ></text>
</g>
<g >
<title>hrtimer_interrupt (2,750,818 samples, 0.01%)</title><rect x="94.3" y="181" width="0.1" height="15.0" fill="rgb(228,109,26)" rx="2" ry="2" />
<text  x="97.25" y="191.5" ></text>
</g>
<g >
<title>tick_sched_do_timer (2,750,278 samples, 0.01%)</title><rect x="986.1" y="101" width="0.2" height="15.0" fill="rgb(227,104,25)" rx="2" ry="2" />
<text  x="989.14" y="111.5" ></text>
</g>
<g >
<title>tick_do_update_jiffies64 (2,750,278 samples, 0.01%)</title><rect x="986.1" y="85" width="0.2" height="15.0" fill="rgb(208,14,3)" rx="2" ry="2" />
<text  x="989.14" y="95.5" ></text>
</g>
<g >
<title>update_wall_time (2,750,278 samples, 0.01%)</title><rect x="986.1" y="69" width="0.2" height="15.0" fill="rgb(207,11,2)" rx="2" ry="2" />
<text  x="989.14" y="79.5" ></text>
</g>
<g >
<title>rcu_core (2,750,777 samples, 0.01%)</title><rect x="522.1" y="117" width="0.1" height="15.0" fill="rgb(222,81,19)" rx="2" ry="2" />
<text  x="525.13" y="127.5" ></text>
</g>
<g >
<title>asm_sysvec_apic_timer_interrupt (2,750,696 samples, 0.01%)</title><rect x="116.1" y="213" width="0.1" height="15.0" fill="rgb(232,127,30)" rx="2" ry="2" />
<text  x="119.10" y="223.5" ></text>
</g>
<g >
<title>ExecSeqScanWithQual (27,359,136,527 samples, 99.55%)</title><rect x="12.4" y="261" width="1174.6" height="15.0" fill="rgb(254,227,54)" rx="2" ry="2" />
<text  x="15.37" y="271.5" >ExecSeqScanWithQual</text>
</g>
<g >
<title>asm_sysvec_apic_timer_interrupt (16,503,738 samples, 0.06%)</title><rect x="986.0" y="197" width="0.7" height="15.0" fill="rgb(232,127,30)" rx="2" ry="2" />
<text  x="989.02" y="207.5" ></text>
</g>
<g >
<title>hash_bytes (25,068,038 samples, 0.09%)</title><rect x="1169.1" y="181" width="1.1" height="15.0" fill="rgb(227,102,24)" rx="2" ry="2" />
<text  x="1172.09" y="191.5" ></text>
</g>
<g >
<title>tick_sched_handle (8,251,889 samples, 0.03%)</title><rect x="521.7" y="101" width="0.3" height="15.0" fill="rgb(219,68,16)" rx="2" ry="2" />
<text  x="524.66" y="111.5" ></text>
</g>
<g >
<title>__hrtimer_run_queues (2,750,784 samples, 0.01%)</title><rect x="1098.4" y="117" width="0.1" height="15.0" fill="rgb(237,150,35)" rx="2" ry="2" />
<text  x="1101.35" y="127.5" ></text>
</g>
<g >
<title>PostmasterMain (27,482,975,985 samples, 100.00%)</title><rect x="10.0" y="405" width="1180.0" height="15.0" fill="rgb(212,35,8)" rx="2" ry="2" />
<text  x="13.00" y="415.5" >PostmasterMain</text>
</g>
<g >
<title>SeqNext (24,752,770 samples, 0.09%)</title><rect x="1188.9" y="261" width="1.1" height="15.0" fill="rgb(214,41,10)" rx="2" ry="2" />
<text  x="1191.94" y="271.5" ></text>
</g>
<g >
<title>__sysvec_apic_timer_interrupt (11,002,715 samples, 0.04%)</title><rect x="521.7" y="165" width="0.4" height="15.0" fill="rgb(242,173,41)" rx="2" ry="2" />
<text  x="524.66" y="175.5" ></text>
</g>
<g >
<title>standard_ExecutorRun (27,482,975,985 samples, 100.00%)</title><rect x="10.0" y="277" width="1180.0" height="15.0" fill="rgb(247,196,47)" rx="2" ry="2" />
<text  x="13.00" y="287.5" >standard_ExecutorRun</text>
</g>
<g >
<title>GetPrivateRefCountEntry (2,748,197 samples, 0.01%)</title><rect x="1160.2" y="165" width="0.1" height="15.0" fill="rgb(250,209,50)" rx="2" ry="2" />
<text  x="1163.23" y="175.5" ></text>
</g>
<g >
<title>scheduler_tick (2,750,696 samples, 0.01%)</title><rect x="116.1" y="85" width="0.1" height="15.0" fill="rgb(246,190,45)" rx="2" ry="2" />
<text  x="119.10" y="95.5" ></text>
</g>
<g >
<title>rcu_core_si (2,750,777 samples, 0.01%)</title><rect x="522.1" y="133" width="0.1" height="15.0" fill="rgb(237,150,36)" rx="2" ry="2" />
<text  x="525.13" y="143.5" ></text>
</g>
<g >
<title>ReleaseBuffer (8,249,994 samples, 0.03%)</title><rect x="1079.6" y="213" width="0.3" height="15.0" fill="rgb(220,71,17)" rx="2" ry="2" />
<text  x="1082.59" y="223.5" ></text>
</g>
<g >
<title>__hrtimer_run_queues (13,752,660 samples, 0.05%)</title><rect x="986.0" y="133" width="0.6" height="15.0" fill="rgb(237,150,35)" rx="2" ry="2" />
<text  x="989.02" y="143.5" ></text>
</g>
<g >
<title>ExecInterpExpr (55,083,090 samples, 0.20%)</title><rect x="10.0" y="261" width="2.4" height="15.0" fill="rgb(225,96,22)" rx="2" ry="2" />
<text  x="13.00" y="271.5" ></text>
</g>
<g >
<title>heap_getnextslot (123,746,102 samples, 0.45%)</title><rect x="1176.1" y="245" width="5.3" height="15.0" fill="rgb(213,40,9)" rx="2" ry="2" />
<text  x="1179.07" y="255.5" ></text>
</g>
<g >
<title>UnpinBufferNoOwner (27,502,320 samples, 0.10%)</title><rect x="1100.5" y="197" width="1.2" height="15.0" fill="rgb(253,221,53)" rx="2" ry="2" />
<text  x="1103.48" y="207.5" ></text>
</g>
<g >
<title>PostgresMain (27,482,975,985 samples, 100.00%)</title><rect x="10.0" y="341" width="1180.0" height="15.0" fill="rgb(227,103,24)" rx="2" ry="2" />
<text  x="13.00" y="351.5" >PostgresMain</text>
</g>
<g >
<title>all (27,482,975,985 samples, 100%)</title><rect x="10.0" y="469" width="1180.0" height="15.0" fill="rgb(213,39,9)" rx="2" ry="2" />
<text  x="13.00" y="479.5" ></text>
</g>
<g >
<title>UnpinBufferNoOwner (41,257,205 samples, 0.15%)</title><rect x="1077.8" y="197" width="1.8" height="15.0" fill="rgb(253,221,53)" rx="2" ry="2" />
<text  x="1080.82" y="207.5" ></text>
</g>
<g >
<title>pg_detoast_datum_packed (36,136,278 samples, 0.13%)</title><rect x="988.4" y="229" width="1.5" height="15.0" fill="rgb(238,155,37)" rx="2" ry="2" />
<text  x="991.37" y="239.5" ></text>
</g>
<g >
<title>exec_simple_query (27,482,975,985 samples, 100.00%)</title><rect x="10.0" y="325" width="1180.0" height="15.0" fill="rgb(211,29,6)" rx="2" ry="2" />
<text  x="13.00" y="335.5" >exec_simple_query</text>
</g>
<g >
<title>MemoryContextReset (44,003,598 samples, 0.16%)</title><rect x="1187.0" y="261" width="1.9" height="15.0" fill="rgb(210,26,6)" rx="2" ry="2" />
<text  x="1190.05" y="271.5" ></text>
</g>
<g >
<title>__memcmp_evex_movbe (2,750,622 samples, 0.01%)</title><rect x="1148.7" y="149" width="0.1" height="15.0" fill="rgb(219,67,16)" rx="2" ry="2" />
<text  x="1151.66" y="159.5" ></text>
</g>
<g >
<title>pg_utf_mblen_private (10,817,992,193 samples, 39.36%)</title><rect x="522.2" y="213" width="464.5" height="15.0" fill="rgb(242,173,41)" rx="2" ry="2" />
<text  x="525.25" y="223.5" >pg_utf_mblen_private</text>
</g>
<g >
<title>LWLockRelease (2,750,097 samples, 0.01%)</title><rect x="1162.1" y="165" width="0.1" height="15.0" fill="rgb(217,58,13)" rx="2" ry="2" />
<text  x="1165.12" y="175.5" ></text>
</g>
<g >
<title>LWLockRelease (2,750,132 samples, 0.01%)</title><rect x="1144.6" y="181" width="0.2" height="15.0" fill="rgb(217,58,13)" rx="2" ry="2" />
<text  x="1147.64" y="191.5" ></text>
</g>
<g >
<title>tick_sched_timer (2,750,784 samples, 0.01%)</title><rect x="1098.4" y="101" width="0.1" height="15.0" fill="rgb(254,227,54)" rx="2" ry="2" />
<text  x="1101.35" y="111.5" ></text>
</g>
<g >
<title>lapic_next_event (2,751,078 samples, 0.01%)</title><rect x="986.6" y="101" width="0.1" height="15.0" fill="rgb(205,4,0)" rx="2" ry="2" />
<text  x="989.61" y="111.5" ></text>
</g>
<g >
<title>native_read_msr (2,750,815 samples, 0.01%)</title><rect x="521.8" y="37" width="0.1" height="15.0" fill="rgb(211,30,7)" rx="2" ry="2" />
<text  x="524.78" y="47.5" ></text>
</g>
<g >
<title>asm_sysvec_apic_timer_interrupt (13,756,102 samples, 0.05%)</title><rect x="521.7" y="197" width="0.5" height="15.0" fill="rgb(232,127,30)" rx="2" ry="2" />
<text  x="524.66" y="207.5" ></text>
</g>
<g >
<title>update_process_times (8,251,889 samples, 0.03%)</title><rect x="521.7" y="85" width="0.3" height="15.0" fill="rgb(250,209,50)" rx="2" ry="2" />
<text  x="524.66" y="95.5" ></text>
</g>
<g >
<title>UnpinBufferNoOwner (2,750,160 samples, 0.01%)</title><rect x="1080.1" y="213" width="0.1" height="15.0" fill="rgb(253,221,53)" rx="2" ry="2" />
<text  x="1083.06" y="223.5" ></text>
</g>
<g >
<title>ReservePrivateRefCountEntry (2,750,004 samples, 0.01%)</title><rect x="1144.9" y="181" width="0.1" height="15.0" fill="rgb(232,125,30)" rx="2" ry="2" />
<text  x="1147.88" y="191.5" ></text>
</g>
<g >
<title>tick_sched_timer (2,750,818 samples, 0.01%)</title><rect x="94.3" y="149" width="0.1" height="15.0" fill="rgb(254,227,54)" rx="2" ry="2" />
<text  x="97.25" y="159.5" ></text>
</g>
<g >
<title>StartReadBuffer (561,038,780 samples, 2.04%)</title><rect x="1145.0" y="181" width="24.1" height="15.0" fill="rgb(222,78,18)" rx="2" ry="2" />
<text  x="1148.00" y="191.5" >S..</text>
</g>
<g >
<title>LWLockAcquire (5,500,750 samples, 0.02%)</title><rect x="1139.2" y="181" width="0.2" height="15.0" fill="rgb(209,20,4)" rx="2" ry="2" />
<text  x="1142.21" y="191.5" ></text>
</g>
<g >
<title>tick_sched_timer (11,002,147 samples, 0.04%)</title><rect x="986.1" y="117" width="0.5" height="15.0" fill="rgb(254,227,54)" rx="2" ry="2" />
<text  x="989.14" y="127.5" ></text>
</g>
<g >
<title>clockevents_program_event (2,751,078 samples, 0.01%)</title><rect x="986.6" y="117" width="0.1" height="15.0" fill="rgb(244,182,43)" rx="2" ry="2" />
<text  x="989.61" y="127.5" ></text>
</g>
<g >
<title>hrtimer_active (2,750,455 samples, 0.01%)</title><rect x="521.9" y="37" width="0.1" height="15.0" fill="rgb(212,34,8)" rx="2" ry="2" />
<text  x="524.89" y="47.5" ></text>
</g>
<g >
<title>update_process_times (8,251,869 samples, 0.03%)</title><rect x="986.3" y="85" width="0.3" height="15.0" fill="rgb(250,209,50)" rx="2" ry="2" />
<text  x="989.25" y="95.5" ></text>
</g>
<g >
<title>ResourceOwnerRemember (2,750,953 samples, 0.01%)</title><rect x="1079.9" y="213" width="0.2" height="15.0" fill="rgb(243,178,42)" rx="2" ry="2" />
<text  x="1082.94" y="223.5" ></text>
</g>
<g >
<title>ExecStoreBufferHeapTuple (165,022,905 samples, 0.60%)</title><rect x="1072.5" y="213" width="7.1" height="15.0" fill="rgb(230,117,28)" rx="2" ry="2" />
<text  x="1075.50" y="223.5" ></text>
</g>
<g >
<title>PinBuffer (140,248,170 samples, 0.51%)</title><rect x="1162.2" y="165" width="6.1" height="15.0" fill="rgb(219,64,15)" rx="2" ry="2" />
<text  x="1165.24" y="175.5" ></text>
</g>
<g >
<title>tick_sched_handle (2,750,784 samples, 0.01%)</title><rect x="1098.4" y="85" width="0.1" height="15.0" fill="rgb(219,68,16)" rx="2" ry="2" />
<text  x="1101.35" y="95.5" ></text>
</g>
<g >
<title>ResourceOwnerForget (13,750,788 samples, 0.05%)</title><rect x="1076.9" y="181" width="0.6" height="15.0" fill="rgb(235,142,33)" rx="2" ry="2" />
<text  x="1079.87" y="191.5" ></text>
</g>
<g >
<title>sysvec_apic_timer_interrupt (2,750,696 samples, 0.01%)</title><rect x="116.1" y="197" width="0.1" height="15.0" fill="rgb(220,69,16)" rx="2" ry="2" />
<text  x="119.10" y="207.5" ></text>
</g>
<g >
<title>update_load_avg (2,750,803 samples, 0.01%)</title><rect x="986.5" y="37" width="0.1" height="15.0" fill="rgb(240,165,39)" rx="2" ry="2" />
<text  x="989.49" y="47.5" ></text>
</g>
<g >
<title>sysvec_apic_timer_interrupt (2,750,784 samples, 0.01%)</title><rect x="1098.4" y="165" width="0.1" height="15.0" fill="rgb(220,69,16)" rx="2" ry="2" />
<text  x="1101.35" y="175.5" ></text>
</g>
<g >
<title>LWLockAttemptLock (22,003,124 samples, 0.08%)</title><rect x="1139.4" y="181" width="1.0" height="15.0" fill="rgb(235,138,33)" rx="2" ry="2" />
<text  x="1142.45" y="191.5" ></text>
</g>
<g >
<title>arch_scale_freq_tick (2,750,564 samples, 0.01%)</title><rect x="986.4" y="53" width="0.1" height="15.0" fill="rgb(252,219,52)" rx="2" ry="2" />
<text  x="989.37" y="63.5" ></text>
</g>
<g >
<title>tts_buffer_heap_getsomeattrs (1,053,314,443 samples, 3.83%)</title><rect x="1001.7" y="213" width="45.3" height="15.0" fill="rgb(222,81,19)" rx="2" ry="2" />
<text  x="1004.73" y="223.5" >tts_..</text>
</g>
<g >
<title>__sysvec_apic_timer_interrupt (2,750,696 samples, 0.01%)</title><rect x="116.1" y="181" width="0.1" height="15.0" fill="rgb(242,173,41)" rx="2" ry="2" />
<text  x="119.10" y="191.5" ></text>
</g>
<g >
<title>read_stream_next_buffer (19,252,725 samples, 0.07%)</title><rect x="1170.6" y="213" width="0.9" height="15.0" fill="rgb(216,50,12)" rx="2" ry="2" />
<text  x="1173.64" y="223.5" ></text>
</g>
<g >
<title>scheduler_tick (2,750,818 samples, 0.01%)</title><rect x="94.3" y="101" width="0.1" height="15.0" fill="rgb(246,190,45)" rx="2" ry="2" />
<text  x="97.25" y="111.5" ></text>
</g>
<g >
<title>__sysvec_apic_timer_interrupt (2,750,784 samples, 0.01%)</title><rect x="1098.4" y="149" width="0.1" height="15.0" fill="rgb(242,173,41)" rx="2" ry="2" />
<text  x="1101.35" y="159.5" ></text>
</g>
<g >
<title>timekeeping_advance (2,750,278 samples, 0.01%)</title><rect x="986.1" y="53" width="0.2" height="15.0" fill="rgb(227,104,25)" rx="2" ry="2" />
<text  x="989.14" y="63.5" ></text>
</g>
<g >
<title>task_tick_fair (2,750,818 samples, 0.01%)</title><rect x="94.3" y="85" width="0.1" height="15.0" fill="rgb(217,57,13)" rx="2" ry="2" />
<text  x="97.25" y="95.5" ></text>
</g>
<g >
<title>LWLockAcquire (2,750,136 samples, 0.01%)</title><rect x="1160.3" y="165" width="0.2" height="15.0" fill="rgb(209,20,4)" rx="2" ry="2" />
<text  x="1163.35" y="175.5" ></text>
</g>
<g >
<title>PortalRun (27,482,975,985 samples, 100.00%)</title><rect x="10.0" y="309" width="1180.0" height="15.0" fill="rgb(223,85,20)" rx="2" ry="2" />
<text  x="13.00" y="319.5" >PortalRun</text>
</g>
<g >
<title>hrtimer_interrupt (16,503,738 samples, 0.06%)</title><rect x="986.0" y="149" width="0.7" height="15.0" fill="rgb(228,109,26)" rx="2" ry="2" />
<text  x="989.02" y="159.5" ></text>
</g>
<g >
<title>heapgettup_pagemode (2,065,563,890 samples, 7.52%)</title><rect x="1081.9" y="213" width="88.7" height="15.0" fill="rgb(242,170,40)" rx="2" ry="2" />
<text  x="1084.95" y="223.5" >heapgettup..</text>
</g>
<g >
<title>__hrtimer_run_queues (2,750,818 samples, 0.01%)</title><rect x="94.3" y="165" width="0.1" height="15.0" fill="rgb(237,150,35)" rx="2" ry="2" />
<text  x="97.25" y="175.5" ></text>
</g>
<g >
<title>postgres (27,482,975,985 samples, 100.00%)</title><rect x="10.0" y="453" width="1180.0" height="15.0" fill="rgb(233,131,31)" rx="2" ry="2" />
<text  x="13.00" y="463.5" >postgres</text>
</g>
<g >
<title>tick_sched_timer (8,251,889 samples, 0.03%)</title><rect x="521.7" y="117" width="0.3" height="15.0" fill="rgb(254,227,54)" rx="2" ry="2" />
<text  x="524.66" y="127.5" ></text>
</g>
<g >
<title>rcu_sched_clock_irq (2,750,619 samples, 0.01%)</title><rect x="521.7" y="69" width="0.1" height="15.0" fill="rgb(208,15,3)" rx="2" ry="2" />
<text  x="524.66" y="79.5" ></text>
</g>
<g >
<title>heap_page_prune_opt (30,255,484 samples, 0.11%)</title><rect x="1101.7" y="197" width="1.3" height="15.0" fill="rgb(211,29,7)" rx="2" ry="2" />
<text  x="1104.66" y="207.5" ></text>
</g>
<g >
<title>ResourceOwnerForget (13,751,685 samples, 0.05%)</title><rect x="1099.9" y="181" width="0.6" height="15.0" fill="rgb(235,142,33)" rx="2" ry="2" />
<text  x="1102.89" y="191.5" ></text>
</g>
<g >
<title>tick_sched_timer (2,750,696 samples, 0.01%)</title><rect x="116.1" y="133" width="0.1" height="15.0" fill="rgb(254,227,54)" rx="2" ry="2" />
<text  x="119.10" y="143.5" ></text>
</g>
<g >
<title>arch_scale_freq_tick (2,750,815 samples, 0.01%)</title><rect x="521.8" y="53" width="0.1" height="15.0" fill="rgb(252,219,52)" rx="2" ry="2" />
<text  x="524.78" y="63.5" ></text>
</g>
<g >
<title>SeqNext (2,687,518,944 samples, 9.78%)</title><rect x="1056.1" y="245" width="115.4" height="15.0" fill="rgb(214,41,10)" rx="2" ry="2" />
<text  x="1059.07" y="255.5" >SeqNext</text>
</g>
<g >
<title>IncrBufferRefCount (16,501,600 samples, 0.06%)</title><rect x="1075.7" y="197" width="0.7" height="15.0" fill="rgb(209,22,5)" rx="2" ry="2" />
<text  x="1078.69" y="207.5" ></text>
</g>
<g >
<title>__remove_hrtimer (2,750,513 samples, 0.01%)</title><rect x="986.0" y="117" width="0.1" height="15.0" fill="rgb(218,63,15)" rx="2" ry="2" />
<text  x="989.02" y="127.5" ></text>
</g>
<g >
<title>__sysvec_apic_timer_interrupt (2,750,818 samples, 0.01%)</title><rect x="94.3" y="197" width="0.1" height="15.0" fill="rgb(242,173,41)" rx="2" ry="2" />
<text  x="97.25" y="207.5" ></text>
</g>
<g >
<title>sysvec_apic_timer_interrupt (2,750,818 samples, 0.01%)</title><rect x="94.3" y="213" width="0.1" height="15.0" fill="rgb(220,69,16)" rx="2" ry="2" />
<text  x="97.25" y="223.5" ></text>
</g>
<g >
<title>handle_softirqs (2,750,777 samples, 0.01%)</title><rect x="522.1" y="149" width="0.1" height="15.0" fill="rgb(238,156,37)" rx="2" ry="2" />
<text  x="525.13" y="159.5" ></text>
</g>
<g >
<title>LWLockAttemptLock (38,507,046 samples, 0.14%)</title><rect x="1160.5" y="165" width="1.6" height="15.0" fill="rgb(235,138,33)" rx="2" ry="2" />
<text  x="1163.47" y="175.5" ></text>
</g>
<g >
<title>hrtimer_interrupt (2,750,784 samples, 0.01%)</title><rect x="1098.4" y="133" width="0.1" height="15.0" fill="rgb(228,109,26)" rx="2" ry="2" />
<text  x="1101.35" y="143.5" ></text>
</g>
<g >
<title>pg_database_encoding_max_length (38,332,163 samples, 0.14%)</title><rect x="986.7" y="229" width="1.7" height="15.0" fill="rgb(243,176,42)" rx="2" ry="2" />
<text  x="989.73" y="239.5" ></text>
</g>
<g >
<title>update_process_times (2,750,818 samples, 0.01%)</title><rect x="94.3" y="117" width="0.1" height="15.0" fill="rgb(250,209,50)" rx="2" ry="2" />
<text  x="97.25" y="127.5" ></text>
</g>
<g >
<title>hrtimer_interrupt (2,750,696 samples, 0.01%)</title><rect x="116.1" y="165" width="0.1" height="15.0" fill="rgb(228,109,26)" rx="2" ry="2" />
<text  x="119.10" y="175.5" ></text>
</g>
<g >
<title>__update_load_avg_se (2,750,818 samples, 0.01%)</title><rect x="94.3" y="53" width="0.1" height="15.0" fill="rgb(254,227,54)" rx="2" ry="2" />
<text  x="97.25" y="63.5" ></text>
</g>
<g >
<title>MemoryContextReset (79,759,591 samples, 0.29%)</title><rect x="1052.6" y="245" width="3.5" height="15.0" fill="rgb(210,26,6)" rx="2" ry="2" />
<text  x="1055.65" y="255.5" ></text>
</g>
<g >
<title>__hrtimer_run_queues (2,750,696 samples, 0.01%)</title><rect x="116.1" y="149" width="0.1" height="15.0" fill="rgb(237,150,35)" rx="2" ry="2" />
<text  x="119.10" y="159.5" ></text>
</g>
<g >
<title>int4lt (112,758,334 samples, 0.41%)</title><rect x="1181.4" y="245" width="4.8" height="15.0" fill="rgb(242,172,41)" rx="2" ry="2" />
<text  x="1184.38" y="255.5" ></text>
</g>
<g >
<title>slot_getsomeattrs_int (19,251,518 samples, 0.07%)</title><rect x="1186.2" y="245" width="0.8" height="15.0" fill="rgb(252,219,52)" rx="2" ry="2" />
<text  x="1189.22" y="255.5" ></text>
</g>
<g >
<title>GetPrivateRefCountEntry (11,001,451 samples, 0.04%)</title><rect x="1079.1" y="181" width="0.5" height="15.0" fill="rgb(250,209,50)" rx="2" ry="2" />
<text  x="1082.11" y="191.5" ></text>
</g>
<g >
<title>__hrtimer_run_queues (8,251,889 samples, 0.03%)</title><rect x="521.7" y="133" width="0.3" height="15.0" fill="rgb(237,150,35)" rx="2" ry="2" />
<text  x="524.66" y="143.5" ></text>
</g>
<g >
<title>heap_prepare_pagescan (921,380,076 samples, 3.35%)</title><rect x="1103.0" y="197" width="39.5" height="15.0" fill="rgb(222,82,19)" rx="2" ry="2" />
<text  x="1105.96" y="207.5" >hea..</text>
</g>
<g >
<title>__sysvec_apic_timer_interrupt (16,503,738 samples, 0.06%)</title><rect x="986.0" y="165" width="0.7" height="15.0" fill="rgb(242,173,41)" rx="2" ry="2" />
<text  x="989.02" y="175.5" ></text>
</g>
<g >
<title>asm_sysvec_apic_timer_interrupt (2,750,818 samples, 0.01%)</title><rect x="94.3" y="229" width="0.1" height="15.0" fill="rgb(232,127,30)" rx="2" ry="2" />
<text  x="97.25" y="239.5" ></text>
</g>
<g >
<title>LWLockAcquire (2,750,296 samples, 0.01%)</title><rect x="1098.5" y="197" width="0.1" height="15.0" fill="rgb(209,20,4)" rx="2" ry="2" />
<text  x="1101.47" y="207.5" ></text>
</g>
<g >
<title>task_tick_fair (2,750,803 samples, 0.01%)</title><rect x="986.5" y="53" width="0.1" height="15.0" fill="rgb(217,57,13)" rx="2" ry="2" />
<text  x="989.49" y="63.5" ></text>
</g>
<g >
<title>ktime_get_update_offsets_now (2,750,826 samples, 0.01%)</title><rect x="522.0" y="149" width="0.1" height="15.0" fill="rgb(243,178,42)" rx="2" ry="2" />
<text  x="525.01" y="159.5" ></text>
</g>
<g >
<title>ServerLoop (27,482,975,985 samples, 100.00%)</title><rect x="10.0" y="389" width="1180.0" height="15.0" fill="rgb(238,155,37)" rx="2" ry="2" />
<text  x="13.00" y="399.5" >ServerLoop</text>
</g>
<g >
<title>pg_mbstrlen_with_len (9,456,824,604 samples, 34.41%)</title><rect x="116.2" y="213" width="406.0" height="15.0" fill="rgb(228,106,25)" rx="2" ry="2" />
<text  x="119.21" y="223.5" >pg_mbstrlen_with_len</text>
</g>
<g >
<title>main (27,482,975,985 samples, 100.00%)</title><rect x="10.0" y="421" width="1180.0" height="15.0" fill="rgb(243,179,42)" rx="2" ry="2" />
<text  x="13.00" y="431.5" >main</text>
</g>
<g >
<title>CheckForSerializableConflictOutNeeded (11,002,017 samples, 0.04%)</title><rect x="1098.0" y="197" width="0.5" height="15.0" fill="rgb(213,38,9)" rx="2" ry="2" />
<text  x="1101.00" y="207.5" ></text>
</g>
<g >
<title>run_posix_cpu_timers (2,750,784 samples, 0.01%)</title><rect x="1098.4" y="69" width="0.1" height="15.0" fill="rgb(250,208,49)" rx="2" ry="2" />
<text  x="1101.35" y="79.5" ></text>
</g>
<g >
<title>ReleaseBuffer (24,752,404 samples, 0.09%)</title><rect x="1076.4" y="197" width="1.1" height="15.0" fill="rgb(220,71,17)" rx="2" ry="2" />
<text  x="1079.40" y="207.5" ></text>
</g>
<g >
<title>native_write_msr (2,751,078 samples, 0.01%)</title><rect x="986.6" y="85" width="0.1" height="15.0" fill="rgb(237,151,36)" rx="2" ry="2" />
<text  x="989.61" y="95.5" ></text>
</g>
<g >
<title>slot_getsomeattrs_int (1,328,343,275 samples, 4.83%)</title><rect x="989.9" y="229" width="57.1" height="15.0" fill="rgb(252,219,52)" rx="2" ry="2" />
<text  x="992.92" y="239.5" >slot_g..</text>
</g>
<g >
<title>GetPrivateRefCountEntry (5,500,388 samples, 0.02%)</title><rect x="1075.8" y="181" width="0.2" height="15.0" fill="rgb(250,209,50)" rx="2" ry="2" />
<text  x="1078.81" y="191.5" ></text>
</g>
<g >
<title>ResourceOwnerEnlarge (8,250,838 samples, 0.03%)</title><rect x="1076.0" y="181" width="0.4" height="15.0" fill="rgb(223,86,20)" rx="2" ry="2" />
<text  x="1079.04" y="191.5" ></text>
</g>
<g >
<title>scheduler_tick (5,501,367 samples, 0.02%)</title><rect x="986.4" y="69" width="0.2" height="15.0" fill="rgb(246,190,45)" rx="2" ry="2" />
<text  x="989.37" y="79.5" ></text>
</g>
<g >
<title>IOContextForStrategy (2,746,989 samples, 0.01%)</title><rect x="1144.5" y="181" width="0.1" height="15.0" fill="rgb(241,169,40)" rx="2" ry="2" />
<text  x="1147.53" y="191.5" ></text>
</g>
<g >
<title>ExecInterpExpr (23,992,205,215 samples, 87.30%)</title><rect x="22.5" y="245" width="1030.1" height="15.0" fill="rgb(225,96,22)" rx="2" ry="2" />
<text  x="25.53" y="255.5" >ExecInterpExpr</text>
</g>
<g >
<title>sysvec_apic_timer_interrupt (13,756,102 samples, 0.05%)</title><rect x="521.7" y="181" width="0.5" height="15.0" fill="rgb(220,69,16)" rx="2" ry="2" />
<text  x="524.66" y="191.5" ></text>
</g>
<g >
<title>heap_page_prune_opt (49,506,652 samples, 0.18%)</title><rect x="1140.4" y="181" width="2.1" height="15.0" fill="rgb(211,29,7)" rx="2" ry="2" />
<text  x="1143.39" y="191.5" ></text>
</g>
<g >
<title>bpcharlen (20,783,613,099 samples, 75.62%)</title><rect x="94.4" y="229" width="892.3" height="15.0" fill="rgb(221,77,18)" rx="2" ry="2" />
<text  x="97.37" y="239.5" >bpcharlen</text>
</g>
<g >
<title>tick_sched_handle (2,750,696 samples, 0.01%)</title><rect x="116.1" y="117" width="0.1" height="15.0" fill="rgb(219,68,16)" rx="2" ry="2" />
<text  x="119.10" y="127.5" ></text>
</g>
<g >
<title>pgstat_count_backend_io_op (11,000,888 samples, 0.04%)</title><rect x="1168.6" y="165" width="0.5" height="15.0" fill="rgb(244,179,42)" rx="2" ry="2" />
<text  x="1171.61" y="175.5" ></text>
</g>
<g >
<title>ExecStoreBufferHeapTuple (11,027,696 samples, 0.04%)</title><rect x="1061.4" y="229" width="0.5" height="15.0" fill="rgb(230,117,28)" rx="2" ry="2" />
<text  x="1064.39" y="239.5" ></text>
</g>
<g >
<title>pgstat_count_io_op (8,246,205 samples, 0.03%)</title><rect x="1170.3" y="181" width="0.3" height="15.0" fill="rgb(207,10,2)" rx="2" ry="2" />
<text  x="1173.28" y="191.5" ></text>
</g>
<g >
<title>__libc_start_call_main (27,482,975,985 samples, 100.00%)</title><rect x="10.0" y="437" width="1180.0" height="15.0" fill="rgb(210,26,6)" rx="2" ry="2" />
<text  x="13.00" y="447.5" >__libc_start_call_main</text>
</g>
<g >
<title>LockBuffer (13,751,559 samples, 0.05%)</title><rect x="1099.1" y="197" width="0.6" height="15.0" fill="rgb(235,142,34)" rx="2" ry="2" />
<text  x="1102.06" y="207.5" ></text>
</g>
<g >
<title>ReservePrivateRefCountEntry (2,750,222 samples, 0.01%)</title><rect x="1168.3" y="165" width="0.1" height="15.0" fill="rgb(232,125,30)" rx="2" ry="2" />
<text  x="1171.26" y="175.5" ></text>
</g>
<g >
<title>heap_getnextslot (2,552,727,257 samples, 9.29%)</title><rect x="1061.9" y="229" width="109.6" height="15.0" fill="rgb(213,40,9)" rx="2" ry="2" />
<text  x="1064.86" y="239.5" >heap_getnexts..</text>
</g>
<g >
<title>sysvec_apic_timer_interrupt (16,503,738 samples, 0.06%)</title><rect x="986.0" y="181" width="0.7" height="15.0" fill="rgb(220,69,16)" rx="2" ry="2" />
<text  x="989.02" y="191.5" ></text>
</g>
<g >
<title>irq_exit_rcu (2,750,777 samples, 0.01%)</title><rect x="522.1" y="165" width="0.1" height="15.0" fill="rgb(254,227,54)" rx="2" ry="2" />
<text  x="525.13" y="175.5" ></text>
</g>
<g >
<title>check_cpu_stall (2,750,502 samples, 0.01%)</title><rect x="986.3" y="69" width="0.1" height="15.0" fill="rgb(208,16,3)" rx="2" ry="2" />
<text  x="989.25" y="79.5" ></text>
</g>
<g >
<title>task_tick_fair (2,750,455 samples, 0.01%)</title><rect x="521.9" y="53" width="0.1" height="15.0" fill="rgb(217,57,13)" rx="2" ry="2" />
<text  x="524.89" y="63.5" ></text>
</g>
<g >
<title>update_process_times (2,750,696 samples, 0.01%)</title><rect x="116.1" y="101" width="0.1" height="15.0" fill="rgb(250,209,50)" rx="2" ry="2" />
<text  x="119.10" y="111.5" ></text>
</g>
<g >
<title>ResourceOwnerEnlarge (2,750,771 samples, 0.01%)</title><rect x="1168.4" y="165" width="0.1" height="15.0" fill="rgb(223,86,20)" rx="2" ry="2" />
<text  x="1171.38" y="175.5" ></text>
</g>
<g >
<title>heap_scan_stream_read_next_serial (2,750,309 samples, 0.01%)</title><rect x="1170.2" y="181" width="0.1" height="15.0" fill="rgb(205,4,0)" rx="2" ry="2" />
<text  x="1173.16" y="191.5" ></text>
</g>
<g >
<title>asm_sysvec_apic_timer_interrupt (2,750,784 samples, 0.01%)</title><rect x="1098.4" y="181" width="0.1" height="15.0" fill="rgb(232,127,30)" rx="2" ry="2" />
<text  x="1101.35" y="191.5" ></text>
</g>
<g >
<title>hash_search_with_hash_value (266,773,532 samples, 0.97%)</title><rect x="1148.8" y="149" width="11.4" height="15.0" fill="rgb(249,205,49)" rx="2" ry="2" />
<text  x="1151.78" y="159.5" ></text>
</g>
</g>
</svg>
