<?xml version="1.0" standalone="no"?>
<!DOCTYPE svg PUBLIC "-//W3C//DTD SVG 1.1//EN" "http://www.w3.org/Graphics/SVG/1.1/DTD/svg11.dtd">
<svg version="1.1" width="1200" height="502" onload="init(evt)" viewBox="0 0 1200 502" xmlns="http://www.w3.org/2000/svg" xmlns:xlink="http://www.w3.org/1999/xlink">
<!-- Flame graph stack visualization. See https://github.com/brendangregg/FlameGraph for latest version, and http://www.brendangregg.com/flamegraphs.html for examples. -->
<!-- NOTES:  -->
<defs>
	<linearGradient id="background" y1="0" y2="1" x1="0" x2="0" >
		<stop stop-color="#eeeeee" offset="5%" />
		<stop stop-color="#eeeeb0" offset="95%" />
	</linearGradient>
</defs>
<style type="text/css">
	text { font-family:Verdana; font-size:12px; fill:rgb(0,0,0); }
	#search, #ignorecase { opacity:0.1; cursor:pointer; }
	#search:hover, #search.show, #ignorecase:hover, #ignorecase.show { opacity:1; }
	#subtitle { text-anchor:middle; font-color:rgb(160,160,160); }
	#title { text-anchor:middle; font-size:17px}
	#unzoom { cursor:pointer; }
	#frames > *:hover { stroke:black; stroke-width:0.5; cursor:pointer; }
	.hide { display:none; }
	.parent { opacity:0.5; }
</style>
<script type="text/ecmascript">
<![CDATA[
	"use strict";
	var details, searchbtn, unzoombtn, matchedtxt, svg, searching, currentSearchTerm, ignorecase, ignorecaseBtn;
	function init(evt) {
		details = document.getElementById("details").firstChild;
		searchbtn = document.getElementById("search");
		ignorecaseBtn = document.getElementById("ignorecase");
		unzoombtn = document.getElementById("unzoom");
		matchedtxt = document.getElementById("matched");
		svg = document.getElementsByTagName("svg")[0];
		searching = 0;
		currentSearchTerm = null;

		// use GET parameters to restore a flamegraphs state.
		var params = get_params();
		if (params.x && params.y)
			zoom(find_group(document.querySelector('[x="' + params.x + '"][y="' + params.y + '"]')));
                if (params.s) search(params.s);
	}

	// event listeners
	window.addEventListener("click", function(e) {
		var target = find_group(e.target);
		if (target) {
			if (target.nodeName == "a") {
				if (e.ctrlKey === false) return;
				e.preventDefault();
			}
			if (target.classList.contains("parent")) unzoom(true);
			zoom(target);
			if (!document.querySelector('.parent')) {
				// we have basically done a clearzoom so clear the url
				var params = get_params();
				if (params.x) delete params.x;
				if (params.y) delete params.y;
				history.replaceState(null, null, parse_params(params));
				unzoombtn.classList.add("hide");
				return;
			}

			// set parameters for zoom state
			var el = target.querySelector("rect");
			if (el && el.attributes && el.attributes.y && el.attributes._orig_x) {
				var params = get_params()
				params.x = el.attributes._orig_x.value;
				params.y = el.attributes.y.value;
				history.replaceState(null, null, parse_params(params));
			}
		}
		else if (e.target.id == "unzoom") clearzoom();
		else if (e.target.id == "search") search_prompt();
		else if (e.target.id == "ignorecase") toggle_ignorecase();
	}, false)

	// mouse-over for info
	// show
	window.addEventListener("mouseover", function(e) {
		var target = find_group(e.target);
		if (target) details.nodeValue = "Function: " + g_to_text(target);
	}, false)

	// clear
	window.addEventListener("mouseout", function(e) {
		var target = find_group(e.target);
		if (target) details.nodeValue = ' ';
	}, false)

	// ctrl-F for search
	// ctrl-I to toggle case-sensitive search
	window.addEventListener("keydown",function (e) {
		if (e.keyCode === 114 || (e.ctrlKey && e.keyCode === 70)) {
			e.preventDefault();
			search_prompt();
		}
		else if (e.ctrlKey && e.keyCode === 73) {
			e.preventDefault();
			toggle_ignorecase();
		}
	}, false)

	// functions
	function get_params() {
		var params = {};
		var paramsarr = window.location.search.substr(1).split('&');
		for (var i = 0; i < paramsarr.length; ++i) {
			var tmp = paramsarr[i].split("=");
			if (!tmp[0] || !tmp[1]) continue;
			params[tmp[0]]  = decodeURIComponent(tmp[1]);
		}
		return params;
	}
	function parse_params(params) {
		var uri = "?";
		for (var key in params) {
			uri += key + '=' + encodeURIComponent(params[key]) + '&';
		}
		if (uri.slice(-1) == "&")
			uri = uri.substring(0, uri.length - 1);
		if (uri == '?')
			uri = window.location.href.split('?')[0];
		return uri;
	}
	function find_child(node, selector) {
		var children = node.querySelectorAll(selector);
		if (children.length) return children[0];
	}
	function find_group(node) {
		var parent = node.parentElement;
		if (!parent) return;
		if (parent.id == "frames") return node;
		return find_group(parent);
	}
	function orig_save(e, attr, val) {
		if (e.attributes["_orig_" + attr] != undefined) return;
		if (e.attributes[attr] == undefined) return;
		if (val == undefined) val = e.attributes[attr].value;
		e.setAttribute("_orig_" + attr, val);
	}
	function orig_load(e, attr) {
		if (e.attributes["_orig_"+attr] == undefined) return;
		e.attributes[attr].value = e.attributes["_orig_" + attr].value;
		e.removeAttribute("_orig_"+attr);
	}
	function g_to_text(e) {
		var text = find_child(e, "title").firstChild.nodeValue;
		return (text)
	}
	function g_to_func(e) {
		var func = g_to_text(e);
		// if there's any manipulation we want to do to the function
		// name before it's searched, do it here before returning.
		return (func);
	}
	function update_text(e) {
		var r = find_child(e, "rect");
		var t = find_child(e, "text");
		var w = parseFloat(r.attributes.width.value) -3;
		var txt = find_child(e, "title").textContent.replace(/\([^(]*\)$/,"");
		t.attributes.x.value = parseFloat(r.attributes.x.value) + 3;

		// Smaller than this size won't fit anything
		if (w < 2 * 12 * 0.59) {
			t.textContent = "";
			return;
		}

		t.textContent = txt;
		var sl = t.getSubStringLength(0, txt.length);
		// check if only whitespace or if we can fit the entire string into width w
		if (/^ *$/.test(txt) || sl < w)
			return;

		// this isn't perfect, but gives a good starting point
		// and avoids calling getSubStringLength too often
		var start = Math.floor((w/sl) * txt.length);
		for (var x = start; x > 0; x = x-2) {
			if (t.getSubStringLength(0, x + 2) <= w) {
				t.textContent = txt.substring(0, x) + "..";
				return;
			}
		}
		t.textContent = "";
	}

	// zoom
	function zoom_reset(e) {
		if (e.attributes != undefined) {
			orig_load(e, "x");
			orig_load(e, "width");
		}
		if (e.childNodes == undefined) return;
		for (var i = 0, c = e.childNodes; i < c.length; i++) {
			zoom_reset(c[i]);
		}
	}
	function zoom_child(e, x, ratio) {
		if (e.attributes != undefined) {
			if (e.attributes.x != undefined) {
				orig_save(e, "x");
				e.attributes.x.value = (parseFloat(e.attributes.x.value) - x - 10) * ratio + 10;
				if (e.tagName == "text")
					e.attributes.x.value = find_child(e.parentNode, "rect[x]").attributes.x.value + 3;
			}
			if (e.attributes.width != undefined) {
				orig_save(e, "width");
				e.attributes.width.value = parseFloat(e.attributes.width.value) * ratio;
			}
		}

		if (e.childNodes == undefined) return;
		for (var i = 0, c = e.childNodes; i < c.length; i++) {
			zoom_child(c[i], x - 10, ratio);
		}
	}
	function zoom_parent(e) {
		if (e.attributes) {
			if (e.attributes.x != undefined) {
				orig_save(e, "x");
				e.attributes.x.value = 10;
			}
			if (e.attributes.width != undefined) {
				orig_save(e, "width");
				e.attributes.width.value = parseInt(svg.width.baseVal.value) - (10 * 2);
			}
		}
		if (e.childNodes == undefined) return;
		for (var i = 0, c = e.childNodes; i < c.length; i++) {
			zoom_parent(c[i]);
		}
	}
	function zoom(node) {
		var attr = find_child(node, "rect").attributes;
		var width = parseFloat(attr.width.value);
		var xmin = parseFloat(attr.x.value);
		var xmax = parseFloat(xmin + width);
		var ymin = parseFloat(attr.y.value);
		var ratio = (svg.width.baseVal.value - 2 * 10) / width;

		// XXX: Workaround for JavaScript float issues (fix me)
		var fudge = 0.0001;

		unzoombtn.classList.remove("hide");

		var el = document.getElementById("frames").children;
		for (var i = 0; i < el.length; i++) {
			var e = el[i];
			var a = find_child(e, "rect").attributes;
			var ex = parseFloat(a.x.value);
			var ew = parseFloat(a.width.value);
			var upstack;
			// Is it an ancestor
			if (0 == 0) {
				upstack = parseFloat(a.y.value) > ymin;
			} else {
				upstack = parseFloat(a.y.value) < ymin;
			}
			if (upstack) {
				// Direct ancestor
				if (ex <= xmin && (ex+ew+fudge) >= xmax) {
					e.classList.add("parent");
					zoom_parent(e);
					update_text(e);
				}
				// not in current path
				else
					e.classList.add("hide");
			}
			// Children maybe
			else {
				// no common path
				if (ex < xmin || ex + fudge >= xmax) {
					e.classList.add("hide");
				}
				else {
					zoom_child(e, xmin, ratio);
					update_text(e);
				}
			}
		}
		search();
	}
	function unzoom(dont_update_text) {
		unzoombtn.classList.add("hide");
		var el = document.getElementById("frames").children;
		for(var i = 0; i < el.length; i++) {
			el[i].classList.remove("parent");
			el[i].classList.remove("hide");
			zoom_reset(el[i]);
			if(!dont_update_text) update_text(el[i]);
		}
		search();
	}
	function clearzoom() {
		unzoom();

		// remove zoom state
		var params = get_params();
		if (params.x) delete params.x;
		if (params.y) delete params.y;
		history.replaceState(null, null, parse_params(params));
	}

	// search
	function toggle_ignorecase() {
		ignorecase = !ignorecase;
		if (ignorecase) {
			ignorecaseBtn.classList.add("show");
		} else {
			ignorecaseBtn.classList.remove("show");
		}
		reset_search();
		search();
	}
	function reset_search() {
		var el = document.querySelectorAll("#frames rect");
		for (var i = 0; i < el.length; i++) {
			orig_load(el[i], "fill")
		}
		var params = get_params();
		delete params.s;
		history.replaceState(null, null, parse_params(params));
	}
	function search_prompt() {
		if (!searching) {
			var term = prompt("Enter a search term (regexp " +
			    "allowed, eg: ^ext4_)"
			    + (ignorecase ? ", ignoring case" : "")
			    + "\nPress Ctrl-i to toggle case sensitivity", "");
			if (term != null) search(term);
		} else {
			reset_search();
			searching = 0;
			currentSearchTerm = null;
			searchbtn.classList.remove("show");
			searchbtn.firstChild.nodeValue = "Search"
			matchedtxt.classList.add("hide");
			matchedtxt.firstChild.nodeValue = ""
		}
	}
	function search(term) {
		if (term) currentSearchTerm = term;

		var re = new RegExp(currentSearchTerm, ignorecase ? 'i' : '');
		var el = document.getElementById("frames").children;
		var matches = new Object();
		var maxwidth = 0;
		for (var i = 0; i < el.length; i++) {
			var e = el[i];
			var func = g_to_func(e);
			var rect = find_child(e, "rect");
			if (func == null || rect == null)
				continue;

			// Save max width. Only works as we have a root frame
			var w = parseFloat(rect.attributes.width.value);
			if (w > maxwidth)
				maxwidth = w;

			if (func.match(re)) {
				// highlight
				var x = parseFloat(rect.attributes.x.value);
				orig_save(rect, "fill");
				rect.attributes.fill.value = "rgb(230,0,230)";

				// remember matches
				if (matches[x] == undefined) {
					matches[x] = w;
				} else {
					if (w > matches[x]) {
						// overwrite with parent
						matches[x] = w;
					}
				}
				searching = 1;
			}
		}
		if (!searching)
			return;
		var params = get_params();
		params.s = currentSearchTerm;
		history.replaceState(null, null, parse_params(params));

		searchbtn.classList.add("show");
		searchbtn.firstChild.nodeValue = "Reset Search";

		// calculate percent matched, excluding vertical overlap
		var count = 0;
		var lastx = -1;
		var lastw = 0;
		var keys = Array();
		for (k in matches) {
			if (matches.hasOwnProperty(k))
				keys.push(k);
		}
		// sort the matched frames by their x location
		// ascending, then width descending
		keys.sort(function(a, b){
			return a - b;
		});
		// Step through frames saving only the biggest bottom-up frames
		// thanks to the sort order. This relies on the tree property
		// where children are always smaller than their parents.
		var fudge = 0.0001;	// JavaScript floating point
		for (var k in keys) {
			var x = parseFloat(keys[k]);
			var w = matches[keys[k]];
			if (x >= lastx + lastw - fudge) {
				count += w;
				lastx = x;
				lastw = w;
			}
		}
		// display matched percent
		matchedtxt.classList.remove("hide");
		var pct = 100 * count / maxwidth;
		if (pct != 100) pct = pct.toFixed(1)
		matchedtxt.firstChild.nodeValue = "Matched: " + pct + "%";
	}
]]>
</script>
<rect x="0.0" y="0" width="1200.0" height="502.0" fill="url(#background)"  />
<text id="title" x="600.00" y="24" >Flame Graph</text>
<text id="details" x="10.00" y="485" > </text>
<text id="unzoom" x="10.00" y="24" class="hide">Reset Zoom</text>
<text id="search" x="1090.00" y="24" >Search</text>
<text id="ignorecase" x="1174.00" y="24" >ic</text>
<text id="matched" x="1090.00" y="485" > </text>
<g id="frames">
<g >
<title>pgstat_count_io_op (90,759,429 samples, 0.05%)</title><rect x="1166.7" y="149" width="0.6" height="15.0" fill="rgb(207,10,2)" rx="2" ry="2" />
<text  x="1169.71" y="159.5" ></text>
</g>
<g >
<title>PostmasterMain (192,397,437,293 samples, 100.00%)</title><rect x="10.0" y="389" width="1180.0" height="15.0" fill="rgb(212,35,8)" rx="2" ry="2" />
<text  x="13.00" y="399.5" >PostmasterMain</text>
</g>
<g >
<title>ExecStoreBufferHeapTuple (126,516,680 samples, 0.07%)</title><rect x="1054.9" y="213" width="0.8" height="15.0" fill="rgb(230,117,28)" rx="2" ry="2" />
<text  x="1057.94" y="223.5" ></text>
</g>
<g >
<title>heap_prepare_pagescan (5,904,421,876 samples, 3.07%)</title><rect x="1096.3" y="181" width="36.2" height="15.0" fill="rgb(222,82,19)" rx="2" ry="2" />
<text  x="1099.29" y="191.5" >hea..</text>
</g>
<g >
<title>UnpinBufferNoOwner (176,020,188 samples, 0.09%)</title><rect x="1094.8" y="181" width="1.0" height="15.0" fill="rgb(253,221,53)" rx="2" ry="2" />
<text  x="1097.75" y="191.5" ></text>
</g>
<g >
<title>pg_detoast_datum_packed (363,041,922 samples, 0.19%)</title><rect x="987.2" y="213" width="2.2" height="15.0" fill="rgb(238,155,37)" rx="2" ry="2" />
<text  x="990.22" y="223.5" ></text>
</g>
<g >
<title>hash_bytes (162,272,349 samples, 0.08%)</title><rect x="1167.3" y="165" width="1.0" height="15.0" fill="rgb(227,102,24)" rx="2" ry="2" />
<text  x="1170.34" y="175.5" ></text>
</g>
<g >
<title>pg_database_encoding_max_length (314,661,388 samples, 0.16%)</title><rect x="985.3" y="213" width="1.9" height="15.0" fill="rgb(243,176,42)" rx="2" ry="2" />
<text  x="988.29" y="223.5" ></text>
</g>
<g >
<title>ResourceOwnerForget (74,260,649 samples, 0.04%)</title><rect x="1094.3" y="165" width="0.4" height="15.0" fill="rgb(235,142,33)" rx="2" ry="2" />
<text  x="1097.28" y="175.5" ></text>
</g>
<g >
<title>postmaster_child_launch (192,397,437,293 samples, 100.00%)</title><rect x="10.0" y="357" width="1180.0" height="15.0" fill="rgb(206,5,1)" rx="2" ry="2" />
<text  x="13.00" y="367.5" >postmaster_child_launch</text>
</g>
<g >
<title>bpcharlen (146,354,414,045 samples, 76.07%)</title><rect x="87.7" y="213" width="897.6" height="15.0" fill="rgb(221,77,18)" rx="2" ry="2" />
<text  x="90.66" y="223.5" >bpcharlen</text>
</g>
<g >
<title>BufferGetBlockNumber (170,519,619 samples, 0.09%)</title><rect x="1063.3" y="197" width="1.0" height="15.0" fill="rgb(206,7,1)" rx="2" ry="2" />
<text  x="1066.25" y="207.5" ></text>
</g>
<g >
<title>heap_page_prune_opt (74,255,720 samples, 0.04%)</title><rect x="1132.0" y="165" width="0.5" height="15.0" fill="rgb(211,29,7)" rx="2" ry="2" />
<text  x="1135.04" y="175.5" ></text>
</g>
<g >
<title>asm_sysvec_apic_timer_interrupt (74,939,170 samples, 0.04%)</title><rect x="480.8" y="181" width="0.5" height="15.0" fill="rgb(232,127,30)" rx="2" ry="2" />
<text  x="483.79" y="191.5" ></text>
</g>
<g >
<title>ReleaseBuffer (90,754,349 samples, 0.05%)</title><rect x="1072.7" y="197" width="0.6" height="15.0" fill="rgb(220,71,17)" rx="2" ry="2" />
<text  x="1075.69" y="207.5" ></text>
</g>
<g >
<title>ServerLoop (192,397,437,293 samples, 100.00%)</title><rect x="10.0" y="373" width="1180.0" height="15.0" fill="rgb(238,155,37)" rx="2" ry="2" />
<text  x="13.00" y="383.5" >ServerLoop</text>
</g>
<g >
<title>pg_mbstrlen_with_len (33,003,991 samples, 0.02%)</title><rect x="989.4" y="213" width="0.3" height="15.0" fill="rgb(228,106,25)" rx="2" ry="2" />
<text  x="992.45" y="223.5" ></text>
</g>
<g >
<title>ExecSeqScanWithQual (191,689,984,059 samples, 99.63%)</title><rect x="12.4" y="245" width="1175.7" height="15.0" fill="rgb(254,227,54)" rx="2" ry="2" />
<text  x="15.42" y="255.5" >ExecSeqScanWithQual</text>
</g>
<g >
<title>UnpinBufferNoOwner (202,652,885 samples, 0.11%)</title><rect x="1071.4" y="181" width="1.2" height="15.0" fill="rgb(253,221,53)" rx="2" ry="2" />
<text  x="1074.35" y="191.5" ></text>
</g>
<g >
<title>ExecStoreBufferHeapTuple (1,352,246,291 samples, 0.70%)</title><rect x="1064.3" y="197" width="8.3" height="15.0" fill="rgb(230,117,28)" rx="2" ry="2" />
<text  x="1067.30" y="207.5" ></text>
</g>
<g >
<title>tick_do_update_jiffies64 (30,255,620 samples, 0.02%)</title><rect x="984.8" y="69" width="0.2" height="15.0" fill="rgb(208,14,3)" rx="2" ry="2" />
<text  x="987.77" y="79.5" ></text>
</g>
<g >
<title>asm_sysvec_apic_timer_interrupt (16,504,450 samples, 0.01%)</title><rect x="87.6" y="213" width="0.1" height="15.0" fill="rgb(232,127,30)" rx="2" ry="2" />
<text  x="90.56" y="223.5" ></text>
</g>
<g >
<title>ExecInterpExpr (167,232,178,962 samples, 86.92%)</title><rect x="18.8" y="229" width="1025.7" height="15.0" fill="rgb(225,96,22)" rx="2" ry="2" />
<text  x="21.85" y="239.5" >ExecInterpExpr</text>
</g>
<g >
<title>LWLockRelease (96,352,875 samples, 0.05%)</title><rect x="1092.8" y="181" width="0.6" height="15.0" fill="rgb(217,58,13)" rx="2" ry="2" />
<text  x="1095.76" y="191.5" ></text>
</g>
<g >
<title>[postgres] (192,397,437,293 samples, 100.00%)</title><rect x="10.0" y="341" width="1180.0" height="15.0" fill="rgb(245,184,44)" rx="2" ry="2" />
<text  x="13.00" y="351.5" >[postgres]</text>
</g>
<g >
<title>slot_getsomeattrs_int (8,304,821,821 samples, 4.32%)</title><rect x="989.7" y="213" width="50.9" height="15.0" fill="rgb(252,219,52)" rx="2" ry="2" />
<text  x="992.65" y="223.5" >slot_..</text>
</g>
<g >
<title>update_process_times (44,673,709 samples, 0.02%)</title><rect x="480.9" y="69" width="0.3" height="15.0" fill="rgb(250,209,50)" rx="2" ry="2" />
<text  x="483.93" y="79.5" ></text>
</g>
<g >
<title>ReleaseBuffer (211,750,995 samples, 0.11%)</title><rect x="1069.7" y="181" width="1.3" height="15.0" fill="rgb(220,71,17)" rx="2" ry="2" />
<text  x="1072.73" y="191.5" ></text>
</g>
<g >
<title>tick_sched_handle (41,258,513 samples, 0.02%)</title><rect x="985.0" y="85" width="0.2" height="15.0" fill="rgb(219,68,16)" rx="2" ry="2" />
<text  x="987.96" y="95.5" ></text>
</g>
<g >
<title>PinBuffer (1,001,140,075 samples, 0.52%)</title><rect x="1158.2" y="149" width="6.2" height="15.0" fill="rgb(219,64,15)" rx="2" ry="2" />
<text  x="1161.21" y="159.5" ></text>
</g>
<g >
<title>sysvec_apic_timer_interrupt (96,266,707 samples, 0.05%)</title><rect x="984.7" y="165" width="0.6" height="15.0" fill="rgb(220,69,16)" rx="2" ry="2" />
<text  x="987.69" y="175.5" ></text>
</g>
<g >
<title>LockBuffer (79,762,549 samples, 0.04%)</title><rect x="1093.4" y="181" width="0.4" height="15.0" fill="rgb(235,142,34)" rx="2" ry="2" />
<text  x="1096.35" y="191.5" ></text>
</g>
<g >
<title>__memcmp_evex_movbe (27,499,495 samples, 0.01%)</title><rect x="1141.9" y="133" width="0.2" height="15.0" fill="rgb(219,67,16)" rx="2" ry="2" />
<text  x="1144.94" y="143.5" ></text>
</g>
<g >
<title>GetPrivateRefCountEntry (44,005,136 samples, 0.02%)</title><rect x="1069.2" y="165" width="0.3" height="15.0" fill="rgb(250,209,50)" rx="2" ry="2" />
<text  x="1072.24" y="175.5" ></text>
</g>
<g >
<title>BufTableLookup (2,099,578,013 samples, 1.09%)</title><rect x="1141.9" y="149" width="12.9" height="15.0" fill="rgb(224,89,21)" rx="2" ry="2" />
<text  x="1144.94" y="159.5" ></text>
</g>
<g >
<title>StartReadBuffer (5,397,307,708 samples, 2.81%)</title><rect x="1134.2" y="165" width="33.1" height="15.0" fill="rgb(222,78,18)" rx="2" ry="2" />
<text  x="1137.17" y="175.5" >St..</text>
</g>
<g >
<title>hrtimer_interrupt (90,760,731 samples, 0.05%)</title><rect x="984.7" y="133" width="0.6" height="15.0" fill="rgb(228,109,26)" rx="2" ry="2" />
<text  x="987.70" y="143.5" ></text>
</g>
<g >
<title>tts_buffer_heap_getsomeattrs (639,028,328 samples, 0.33%)</title><rect x="1040.6" y="213" width="3.9" height="15.0" fill="rgb(222,81,19)" rx="2" ry="2" />
<text  x="1043.59" y="223.5" ></text>
</g>
<g >
<title>pg_mbstrlen_with_len (59,940,676,924 samples, 31.15%)</title><rect x="113.6" y="197" width="367.7" height="15.0" fill="rgb(228,106,25)" rx="2" ry="2" />
<text  x="116.64" y="207.5" >pg_mbstrlen_with_len</text>
</g>
<g >
<title>ResourceOwnerRemember (22,006,408 samples, 0.01%)</title><rect x="1073.3" y="197" width="0.1" height="15.0" fill="rgb(243,178,42)" rx="2" ry="2" />
<text  x="1076.25" y="207.5" ></text>
</g>
<g >
<title>heap_page_prune_opt (68,757,252 samples, 0.04%)</title><rect x="1095.9" y="181" width="0.4" height="15.0" fill="rgb(211,29,7)" rx="2" ry="2" />
<text  x="1098.86" y="191.5" ></text>
</g>
<g >
<title>read_stream_next_buffer (68,752,303 samples, 0.04%)</title><rect x="1172.2" y="197" width="0.4" height="15.0" fill="rgb(216,50,12)" rx="2" ry="2" />
<text  x="1175.20" y="207.5" ></text>
</g>
<g >
<title>read_stream_next_buffer (6,462,314,382 samples, 3.36%)</title><rect x="1132.6" y="181" width="39.6" height="15.0" fill="rgb(216,50,12)" rx="2" ry="2" />
<text  x="1135.57" y="191.5" >rea..</text>
</g>
<g >
<title>tick_sched_do_timer (30,255,620 samples, 0.02%)</title><rect x="984.8" y="85" width="0.2" height="15.0" fill="rgb(227,104,25)" rx="2" ry="2" />
<text  x="987.77" y="95.5" ></text>
</g>
<g >
<title>GetPrivateRefCountEntry (19,252,084 samples, 0.01%)</title><rect x="1164.2" y="133" width="0.2" height="15.0" fill="rgb(250,209,50)" rx="2" ry="2" />
<text  x="1167.23" y="143.5" ></text>
</g>
<g >
<title>standard_ExecutorRun (192,397,437,293 samples, 100.00%)</title><rect x="10.0" y="261" width="1180.0" height="15.0" fill="rgb(247,196,47)" rx="2" ry="2" />
<text  x="13.00" y="271.5" >standard_ExecutorRun</text>
</g>
<g >
<title>slot_getsomeattrs_int (192,520,210 samples, 0.10%)</title><rect x="1186.9" y="229" width="1.2" height="15.0" fill="rgb(252,219,52)" rx="2" ry="2" />
<text  x="1189.90" y="239.5" ></text>
</g>
<g >
<title>SeqNext (20,245,594,296 samples, 10.52%)</title><rect x="1048.5" y="229" width="124.1" height="15.0" fill="rgb(214,41,10)" rx="2" ry="2" />
<text  x="1051.45" y="239.5" >SeqNext</text>
</g>
<g >
<title>__libc_start_call_main (192,397,437,293 samples, 100.00%)</title><rect x="10.0" y="421" width="1180.0" height="15.0" fill="rgb(210,26,6)" rx="2" ry="2" />
<text  x="13.00" y="431.5" >__libc_start_call_main</text>
</g>
<g >
<title>__sysvec_apic_timer_interrupt (16,504,450 samples, 0.01%)</title><rect x="87.6" y="181" width="0.1" height="15.0" fill="rgb(242,173,41)" rx="2" ry="2" />
<text  x="90.56" y="191.5" ></text>
</g>
<g >
<title>pgstat_count_backend_io_op (349,279,410 samples, 0.18%)</title><rect x="1164.6" y="149" width="2.1" height="15.0" fill="rgb(244,179,42)" rx="2" ry="2" />
<text  x="1167.57" y="159.5" ></text>
</g>
<g >
<title>LWLockAttemptLock (107,252,661 samples, 0.06%)</title><rect x="1131.3" y="165" width="0.7" height="15.0" fill="rgb(235,138,33)" rx="2" ry="2" />
<text  x="1134.32" y="175.5" ></text>
</g>
<g >
<title>asm_sysvec_apic_timer_interrupt (104,517,730 samples, 0.05%)</title><rect x="984.6" y="181" width="0.7" height="15.0" fill="rgb(232,127,30)" rx="2" ry="2" />
<text  x="987.64" y="191.5" ></text>
</g>
<g >
<title>__sysvec_apic_timer_interrupt (63,927,652 samples, 0.03%)</title><rect x="480.8" y="149" width="0.4" height="15.0" fill="rgb(242,173,41)" rx="2" ry="2" />
<text  x="483.81" y="159.5" ></text>
</g>
<g >
<title>ExecInterpExpr (393,776,611 samples, 0.20%)</title><rect x="10.0" y="245" width="2.4" height="15.0" fill="rgb(225,96,22)" rx="2" ry="2" />
<text  x="13.00" y="255.5" ></text>
</g>
<g >
<title>bpcharlen (528,482,965 samples, 0.27%)</title><rect x="1172.6" y="229" width="3.3" height="15.0" fill="rgb(221,77,18)" rx="2" ry="2" />
<text  x="1175.64" y="239.5" ></text>
</g>
<g >
<title>ResourceOwnerForget (52,254,816 samples, 0.03%)</title><rect x="1071.0" y="181" width="0.4" height="15.0" fill="rgb(235,142,33)" rx="2" ry="2" />
<text  x="1074.03" y="191.5" ></text>
</g>
<g >
<title>PortalRunSelect (192,397,437,293 samples, 100.00%)</title><rect x="10.0" y="277" width="1180.0" height="15.0" fill="rgb(245,188,45)" rx="2" ry="2" />
<text  x="13.00" y="287.5" >PortalRunSelect</text>
</g>
<g >
<title>pg_utf_mblen_private (82,178,039,569 samples, 42.71%)</title><rect x="481.3" y="197" width="504.0" height="15.0" fill="rgb(242,173,41)" rx="2" ry="2" />
<text  x="484.27" y="207.5" >pg_utf_mblen_private</text>
</g>
<g >
<title>update_process_times (38,507,618 samples, 0.02%)</title><rect x="985.0" y="69" width="0.2" height="15.0" fill="rgb(250,209,50)" rx="2" ry="2" />
<text  x="987.97" y="79.5" ></text>
</g>
<g >
<title>hrtimer_interrupt (16,504,450 samples, 0.01%)</title><rect x="87.6" y="165" width="0.1" height="15.0" fill="rgb(228,109,26)" rx="2" ry="2" />
<text  x="90.56" y="175.5" ></text>
</g>
<g >
<title>ResourceOwnerForget (134,741,505 samples, 0.07%)</title><rect x="1070.2" y="165" width="0.8" height="15.0" fill="rgb(235,142,33)" rx="2" ry="2" />
<text  x="1073.20" y="175.5" ></text>
</g>
<g >
<title>scheduler_tick (33,006,937 samples, 0.02%)</title><rect x="985.0" y="53" width="0.2" height="15.0" fill="rgb(246,190,45)" rx="2" ry="2" />
<text  x="988.01" y="63.5" ></text>
</g>
<g >
<title>LWLockAcquire (43,997,497 samples, 0.02%)</title><rect x="1131.0" y="165" width="0.3" height="15.0" fill="rgb(209,20,4)" rx="2" ry="2" />
<text  x="1134.05" y="175.5" ></text>
</g>
<g >
<title>heap_scan_stream_read_next_serial (22,002,557 samples, 0.01%)</title><rect x="1168.3" y="165" width="0.2" height="15.0" fill="rgb(205,4,0)" rx="2" ry="2" />
<text  x="1171.33" y="175.5" ></text>
</g>
<g >
<title>__hrtimer_run_queues (82,508,881 samples, 0.04%)</title><rect x="984.7" y="117" width="0.5" height="15.0" fill="rgb(237,150,35)" rx="2" ry="2" />
<text  x="987.70" y="127.5" ></text>
</g>
<g >
<title>sysvec_apic_timer_interrupt (16,504,450 samples, 0.01%)</title><rect x="87.6" y="197" width="0.1" height="15.0" fill="rgb(220,69,16)" rx="2" ry="2" />
<text  x="90.56" y="207.5" ></text>
</g>
<g >
<title>MemoryContextReset (643,549,459 samples, 0.33%)</title><rect x="1044.5" y="229" width="4.0" height="15.0" fill="rgb(210,26,6)" rx="2" ry="2" />
<text  x="1047.51" y="239.5" ></text>
</g>
<g >
<title>tick_sched_timer (74,256,773 samples, 0.04%)</title><rect x="984.8" y="101" width="0.4" height="15.0" fill="rgb(254,227,54)" rx="2" ry="2" />
<text  x="987.75" y="111.5" ></text>
</g>
<g >
<title>CheckForSerializableConflictOutNeeded (16,501,419 samples, 0.01%)</title><rect x="1092.6" y="181" width="0.1" height="15.0" fill="rgb(213,38,9)" rx="2" ry="2" />
<text  x="1095.64" y="191.5" ></text>
</g>
<g >
<title>pgstat_count_io_op (608,427,550 samples, 0.32%)</title><rect x="1168.5" y="165" width="3.7" height="15.0" fill="rgb(207,10,2)" rx="2" ry="2" />
<text  x="1171.47" y="175.5" ></text>
</g>
<g >
<title>tts_buffer_heap_getsomeattrs (6,842,184,873 samples, 3.56%)</title><rect x="998.6" y="197" width="42.0" height="15.0" fill="rgb(222,81,19)" rx="2" ry="2" />
<text  x="1001.62" y="207.5" >tts..</text>
</g>
<g >
<title>update_wall_time (24,755,639 samples, 0.01%)</title><rect x="984.8" y="53" width="0.2" height="15.0" fill="rgb(207,11,2)" rx="2" ry="2" />
<text  x="987.80" y="63.5" ></text>
</g>
<g >
<title>GetPrivateRefCountEntry (121,012,731 samples, 0.06%)</title><rect x="1095.1" y="165" width="0.7" height="15.0" fill="rgb(250,209,50)" rx="2" ry="2" />
<text  x="1098.09" y="175.5" ></text>
</g>
<g >
<title>LWLockRelease (151,264,826 samples, 0.08%)</title><rect x="1157.3" y="149" width="0.9" height="15.0" fill="rgb(217,58,13)" rx="2" ry="2" />
<text  x="1160.29" y="159.5" ></text>
</g>
<g >
<title>LWLockAttemptLock (376,945,846 samples, 0.20%)</title><rect x="1155.0" y="149" width="2.3" height="15.0" fill="rgb(235,138,33)" rx="2" ry="2" />
<text  x="1157.97" y="159.5" ></text>
</g>
<g >
<title>all (192,397,437,293 samples, 100%)</title><rect x="10.0" y="453" width="1180.0" height="15.0" fill="rgb(213,39,9)" rx="2" ry="2" />
<text  x="13.00" y="463.5" ></text>
</g>
<g >
<title>ReleaseBuffer (145,766,698 samples, 0.08%)</title><rect x="1093.8" y="181" width="0.9" height="15.0" fill="rgb(220,71,17)" rx="2" ry="2" />
<text  x="1096.84" y="191.5" ></text>
</g>
<g >
<title>heapgettup_pagemode (16,020,128,074 samples, 8.33%)</title><rect x="1073.9" y="197" width="98.3" height="15.0" fill="rgb(242,170,40)" rx="2" ry="2" />
<text  x="1076.95" y="207.5" >heapgettup_..</text>
</g>
<g >
<title>heap_getnextslot (1,193,150,367 samples, 0.62%)</title><rect x="1175.9" y="229" width="7.3" height="15.0" fill="rgb(213,40,9)" rx="2" ry="2" />
<text  x="1178.90" y="239.5" ></text>
</g>
<g >
<title>ResourceOwnerRemember (30,251,674 samples, 0.02%)</title><rect x="1164.4" y="149" width="0.2" height="15.0" fill="rgb(243,178,42)" rx="2" ry="2" />
<text  x="1167.39" y="159.5" ></text>
</g>
<g >
<title>hash_search_with_hash_value (2,072,078,518 samples, 1.08%)</title><rect x="1142.1" y="133" width="12.7" height="15.0" fill="rgb(249,205,49)" rx="2" ry="2" />
<text  x="1145.11" y="143.5" ></text>
</g>
<g >
<title>heap_prepare_pagescan (80,391,811 samples, 0.04%)</title><rect x="1073.5" y="197" width="0.4" height="15.0" fill="rgb(222,82,19)" rx="2" ry="2" />
<text  x="1076.45" y="207.5" ></text>
</g>
<g >
<title>main (192,397,437,293 samples, 100.00%)</title><rect x="10.0" y="405" width="1180.0" height="15.0" fill="rgb(243,179,42)" rx="2" ry="2" />
<text  x="13.00" y="415.5" >main</text>
</g>
<g >
<title>hrtimer_interrupt (63,927,652 samples, 0.03%)</title><rect x="480.8" y="133" width="0.4" height="15.0" fill="rgb(228,109,26)" rx="2" ry="2" />
<text  x="483.81" y="143.5" ></text>
</g>
<g >
<title>GetPrivateRefCountEntry (46,752,647 samples, 0.02%)</title><rect x="1072.3" y="165" width="0.3" height="15.0" fill="rgb(250,209,50)" rx="2" ry="2" />
<text  x="1075.31" y="175.5" ></text>
</g>
<g >
<title>__hrtimer_run_queues (61,176,684 samples, 0.03%)</title><rect x="480.8" y="117" width="0.4" height="15.0" fill="rgb(237,150,35)" rx="2" ry="2" />
<text  x="483.82" y="127.5" ></text>
</g>
<g >
<title>tick_sched_timer (58,426,270 samples, 0.03%)</title><rect x="480.8" y="101" width="0.4" height="15.0" fill="rgb(254,227,54)" rx="2" ry="2" />
<text  x="483.84" y="111.5" ></text>
</g>
<g >
<title>LWLockRelease (30,278,307 samples, 0.02%)</title><rect x="1134.0" y="165" width="0.2" height="15.0" fill="rgb(217,58,13)" rx="2" ry="2" />
<text  x="1136.98" y="175.5" ></text>
</g>
<g >
<title>scheduler_tick (39,172,334 samples, 0.02%)</title><rect x="481.0" y="53" width="0.2" height="15.0" fill="rgb(246,190,45)" rx="2" ry="2" />
<text  x="483.96" y="63.5" ></text>
</g>
<g >
<title>heap_getnextslot (19,061,719,150 samples, 9.91%)</title><rect x="1055.7" y="213" width="116.9" height="15.0" fill="rgb(213,40,9)" rx="2" ry="2" />
<text  x="1058.71" y="223.5" >heap_getnextslot</text>
</g>
<g >
<title>timekeeping_advance (22,005,022 samples, 0.01%)</title><rect x="984.8" y="37" width="0.2" height="15.0" fill="rgb(227,104,25)" rx="2" ry="2" />
<text  x="987.82" y="47.5" ></text>
</g>
<g >
<title>tick_sched_handle (44,673,709 samples, 0.02%)</title><rect x="480.9" y="85" width="0.3" height="15.0" fill="rgb(219,68,16)" rx="2" ry="2" />
<text  x="483.93" y="95.5" ></text>
</g>
<g >
<title>PortalRun (192,397,437,293 samples, 100.00%)</title><rect x="10.0" y="293" width="1180.0" height="15.0" fill="rgb(223,85,20)" rx="2" ry="2" />
<text  x="13.00" y="303.5" >PortalRun</text>
</g>
<g >
<title>__sysvec_apic_timer_interrupt (90,760,731 samples, 0.05%)</title><rect x="984.7" y="149" width="0.6" height="15.0" fill="rgb(242,173,41)" rx="2" ry="2" />
<text  x="987.70" y="159.5" ></text>
</g>
<g >
<title>exec_simple_query (192,397,437,293 samples, 100.00%)</title><rect x="10.0" y="309" width="1180.0" height="15.0" fill="rgb(211,29,6)" rx="2" ry="2" />
<text  x="13.00" y="319.5" >exec_simple_query</text>
</g>
<g >
<title>int4lt (600,120,343 samples, 0.31%)</title><rect x="1183.2" y="229" width="3.7" height="15.0" fill="rgb(242,172,41)" rx="2" ry="2" />
<text  x="1186.21" y="239.5" ></text>
</g>
<g >
<title>PostgresMain (192,397,437,293 samples, 100.00%)</title><rect x="10.0" y="325" width="1180.0" height="15.0" fill="rgb(227,103,24)" rx="2" ry="2" />
<text  x="13.00" y="335.5" >PostgresMain</text>
</g>
<g >
<title>IncrBufferRefCount (110,013,352 samples, 0.06%)</title><rect x="1069.1" y="181" width="0.6" height="15.0" fill="rgb(209,22,5)" rx="2" ry="2" />
<text  x="1072.06" y="191.5" ></text>
</g>
<g >
<title>MemoryContextReset (211,910,452 samples, 0.11%)</title><rect x="1188.1" y="245" width="1.3" height="15.0" fill="rgb(210,26,6)" rx="2" ry="2" />
<text  x="1191.08" y="255.5" ></text>
</g>
<g >
<title>ResourceOwnerEnlarge (35,753,430 samples, 0.02%)</title><rect x="1069.5" y="165" width="0.2" height="15.0" fill="rgb(223,86,20)" rx="2" ry="2" />
<text  x="1072.51" y="175.5" ></text>
</g>
<g >
<title>postgres (192,397,437,293 samples, 100.00%)</title><rect x="10.0" y="437" width="1180.0" height="15.0" fill="rgb(233,131,31)" rx="2" ry="2" />
<text  x="13.00" y="447.5" >postgres</text>
</g>
<g >
<title>sysvec_apic_timer_interrupt (74,939,170 samples, 0.04%)</title><rect x="480.8" y="165" width="0.5" height="15.0" fill="rgb(220,69,16)" rx="2" ry="2" />
<text  x="483.79" y="175.5" ></text>
</g>
<g >
<title>LWLockAcquire (24,752,417 samples, 0.01%)</title><rect x="1154.8" y="149" width="0.2" height="15.0" fill="rgb(209,20,4)" rx="2" ry="2" />
<text  x="1157.82" y="159.5" ></text>
</g>
<g >
<title>SeqNext (101,766,171 samples, 0.05%)</title><rect x="1189.4" y="245" width="0.6" height="15.0" fill="rgb(214,41,10)" rx="2" ry="2" />
<text  x="1192.38" y="255.5" ></text>
</g>
</g>
</svg>
