<?xml version="1.0" standalone="no"?>
<!DOCTYPE svg PUBLIC "-//W3C//DTD SVG 1.1//EN" "http://www.w3.org/Graphics/SVG/1.1/DTD/svg11.dtd">
<svg version="1.1" width="1200" height="582" onload="init(evt)" viewBox="0 0 1200 582" xmlns="http://www.w3.org/2000/svg" xmlns:xlink="http://www.w3.org/1999/xlink">
<!-- Flame graph stack visualization. See https://github.com/brendangregg/FlameGraph for latest version, and http://www.brendangregg.com/flamegraphs.html for examples. -->
<!-- NOTES:  -->
<defs>
	<linearGradient id="background" y1="0" y2="1" x1="0" x2="0" >
		<stop stop-color="#eeeeee" offset="5%" />
		<stop stop-color="#eeeeb0" offset="95%" />
	</linearGradient>
</defs>
<style type="text/css">
	text { font-family:Verdana; font-size:12px; fill:rgb(0,0,0); }
	#search, #ignorecase { opacity:0.1; cursor:pointer; }
	#search:hover, #search.show, #ignorecase:hover, #ignorecase.show { opacity:1; }
	#subtitle { text-anchor:middle; font-color:rgb(160,160,160); }
	#title { text-anchor:middle; font-size:17px}
	#unzoom { cursor:pointer; }
	#frames > *:hover { stroke:black; stroke-width:0.5; cursor:pointer; }
	.hide { display:none; }
	.parent { opacity:0.5; }
</style>
<script type="text/ecmascript">
<![CDATA[
	"use strict";
	var details, searchbtn, unzoombtn, matchedtxt, svg, searching, currentSearchTerm, ignorecase, ignorecaseBtn;
	function init(evt) {
		details = document.getElementById("details").firstChild;
		searchbtn = document.getElementById("search");
		ignorecaseBtn = document.getElementById("ignorecase");
		unzoombtn = document.getElementById("unzoom");
		matchedtxt = document.getElementById("matched");
		svg = document.getElementsByTagName("svg")[0];
		searching = 0;
		currentSearchTerm = null;

		// use GET parameters to restore a flamegraphs state.
		var params = get_params();
		if (params.x && params.y)
			zoom(find_group(document.querySelector('[x="' + params.x + '"][y="' + params.y + '"]')));
                if (params.s) search(params.s);
	}

	// event listeners
	window.addEventListener("click", function(e) {
		var target = find_group(e.target);
		if (target) {
			if (target.nodeName == "a") {
				if (e.ctrlKey === false) return;
				e.preventDefault();
			}
			if (target.classList.contains("parent")) unzoom(true);
			zoom(target);
			if (!document.querySelector('.parent')) {
				// we have basically done a clearzoom so clear the url
				var params = get_params();
				if (params.x) delete params.x;
				if (params.y) delete params.y;
				history.replaceState(null, null, parse_params(params));
				unzoombtn.classList.add("hide");
				return;
			}

			// set parameters for zoom state
			var el = target.querySelector("rect");
			if (el && el.attributes && el.attributes.y && el.attributes._orig_x) {
				var params = get_params()
				params.x = el.attributes._orig_x.value;
				params.y = el.attributes.y.value;
				history.replaceState(null, null, parse_params(params));
			}
		}
		else if (e.target.id == "unzoom") clearzoom();
		else if (e.target.id == "search") search_prompt();
		else if (e.target.id == "ignorecase") toggle_ignorecase();
	}, false)

	// mouse-over for info
	// show
	window.addEventListener("mouseover", function(e) {
		var target = find_group(e.target);
		if (target) details.nodeValue = "Function: " + g_to_text(target);
	}, false)

	// clear
	window.addEventListener("mouseout", function(e) {
		var target = find_group(e.target);
		if (target) details.nodeValue = ' ';
	}, false)

	// ctrl-F for search
	// ctrl-I to toggle case-sensitive search
	window.addEventListener("keydown",function (e) {
		if (e.keyCode === 114 || (e.ctrlKey && e.keyCode === 70)) {
			e.preventDefault();
			search_prompt();
		}
		else if (e.ctrlKey && e.keyCode === 73) {
			e.preventDefault();
			toggle_ignorecase();
		}
	}, false)

	// functions
	function get_params() {
		var params = {};
		var paramsarr = window.location.search.substr(1).split('&');
		for (var i = 0; i < paramsarr.length; ++i) {
			var tmp = paramsarr[i].split("=");
			if (!tmp[0] || !tmp[1]) continue;
			params[tmp[0]]  = decodeURIComponent(tmp[1]);
		}
		return params;
	}
	function parse_params(params) {
		var uri = "?";
		for (var key in params) {
			uri += key + '=' + encodeURIComponent(params[key]) + '&';
		}
		if (uri.slice(-1) == "&")
			uri = uri.substring(0, uri.length - 1);
		if (uri == '?')
			uri = window.location.href.split('?')[0];
		return uri;
	}
	function find_child(node, selector) {
		var children = node.querySelectorAll(selector);
		if (children.length) return children[0];
	}
	function find_group(node) {
		var parent = node.parentElement;
		if (!parent) return;
		if (parent.id == "frames") return node;
		return find_group(parent);
	}
	function orig_save(e, attr, val) {
		if (e.attributes["_orig_" + attr] != undefined) return;
		if (e.attributes[attr] == undefined) return;
		if (val == undefined) val = e.attributes[attr].value;
		e.setAttribute("_orig_" + attr, val);
	}
	function orig_load(e, attr) {
		if (e.attributes["_orig_"+attr] == undefined) return;
		e.attributes[attr].value = e.attributes["_orig_" + attr].value;
		e.removeAttribute("_orig_"+attr);
	}
	function g_to_text(e) {
		var text = find_child(e, "title").firstChild.nodeValue;
		return (text)
	}
	function g_to_func(e) {
		var func = g_to_text(e);
		// if there's any manipulation we want to do to the function
		// name before it's searched, do it here before returning.
		return (func);
	}
	function update_text(e) {
		var r = find_child(e, "rect");
		var t = find_child(e, "text");
		var w = parseFloat(r.attributes.width.value) -3;
		var txt = find_child(e, "title").textContent.replace(/\([^(]*\)$/,"");
		t.attributes.x.value = parseFloat(r.attributes.x.value) + 3;

		// Smaller than this size won't fit anything
		if (w < 2 * 12 * 0.59) {
			t.textContent = "";
			return;
		}

		t.textContent = txt;
		var sl = t.getSubStringLength(0, txt.length);
		// check if only whitespace or if we can fit the entire string into width w
		if (/^ *$/.test(txt) || sl < w)
			return;

		// this isn't perfect, but gives a good starting point
		// and avoids calling getSubStringLength too often
		var start = Math.floor((w/sl) * txt.length);
		for (var x = start; x > 0; x = x-2) {
			if (t.getSubStringLength(0, x + 2) <= w) {
				t.textContent = txt.substring(0, x) + "..";
				return;
			}
		}
		t.textContent = "";
	}

	// zoom
	function zoom_reset(e) {
		if (e.attributes != undefined) {
			orig_load(e, "x");
			orig_load(e, "width");
		}
		if (e.childNodes == undefined) return;
		for (var i = 0, c = e.childNodes; i < c.length; i++) {
			zoom_reset(c[i]);
		}
	}
	function zoom_child(e, x, ratio) {
		if (e.attributes != undefined) {
			if (e.attributes.x != undefined) {
				orig_save(e, "x");
				e.attributes.x.value = (parseFloat(e.attributes.x.value) - x - 10) * ratio + 10;
				if (e.tagName == "text")
					e.attributes.x.value = find_child(e.parentNode, "rect[x]").attributes.x.value + 3;
			}
			if (e.attributes.width != undefined) {
				orig_save(e, "width");
				e.attributes.width.value = parseFloat(e.attributes.width.value) * ratio;
			}
		}

		if (e.childNodes == undefined) return;
		for (var i = 0, c = e.childNodes; i < c.length; i++) {
			zoom_child(c[i], x - 10, ratio);
		}
	}
	function zoom_parent(e) {
		if (e.attributes) {
			if (e.attributes.x != undefined) {
				orig_save(e, "x");
				e.attributes.x.value = 10;
			}
			if (e.attributes.width != undefined) {
				orig_save(e, "width");
				e.attributes.width.value = parseInt(svg.width.baseVal.value) - (10 * 2);
			}
		}
		if (e.childNodes == undefined) return;
		for (var i = 0, c = e.childNodes; i < c.length; i++) {
			zoom_parent(c[i]);
		}
	}
	function zoom(node) {
		var attr = find_child(node, "rect").attributes;
		var width = parseFloat(attr.width.value);
		var xmin = parseFloat(attr.x.value);
		var xmax = parseFloat(xmin + width);
		var ymin = parseFloat(attr.y.value);
		var ratio = (svg.width.baseVal.value - 2 * 10) / width;

		// XXX: Workaround for JavaScript float issues (fix me)
		var fudge = 0.0001;

		unzoombtn.classList.remove("hide");

		var el = document.getElementById("frames").children;
		for (var i = 0; i < el.length; i++) {
			var e = el[i];
			var a = find_child(e, "rect").attributes;
			var ex = parseFloat(a.x.value);
			var ew = parseFloat(a.width.value);
			var upstack;
			// Is it an ancestor
			if (0 == 0) {
				upstack = parseFloat(a.y.value) > ymin;
			} else {
				upstack = parseFloat(a.y.value) < ymin;
			}
			if (upstack) {
				// Direct ancestor
				if (ex <= xmin && (ex+ew+fudge) >= xmax) {
					e.classList.add("parent");
					zoom_parent(e);
					update_text(e);
				}
				// not in current path
				else
					e.classList.add("hide");
			}
			// Children maybe
			else {
				// no common path
				if (ex < xmin || ex + fudge >= xmax) {
					e.classList.add("hide");
				}
				else {
					zoom_child(e, xmin, ratio);
					update_text(e);
				}
			}
		}
		search();
	}
	function unzoom(dont_update_text) {
		unzoombtn.classList.add("hide");
		var el = document.getElementById("frames").children;
		for(var i = 0; i < el.length; i++) {
			el[i].classList.remove("parent");
			el[i].classList.remove("hide");
			zoom_reset(el[i]);
			if(!dont_update_text) update_text(el[i]);
		}
		search();
	}
	function clearzoom() {
		unzoom();

		// remove zoom state
		var params = get_params();
		if (params.x) delete params.x;
		if (params.y) delete params.y;
		history.replaceState(null, null, parse_params(params));
	}

	// search
	function toggle_ignorecase() {
		ignorecase = !ignorecase;
		if (ignorecase) {
			ignorecaseBtn.classList.add("show");
		} else {
			ignorecaseBtn.classList.remove("show");
		}
		reset_search();
		search();
	}
	function reset_search() {
		var el = document.querySelectorAll("#frames rect");
		for (var i = 0; i < el.length; i++) {
			orig_load(el[i], "fill")
		}
		var params = get_params();
		delete params.s;
		history.replaceState(null, null, parse_params(params));
	}
	function search_prompt() {
		if (!searching) {
			var term = prompt("Enter a search term (regexp " +
			    "allowed, eg: ^ext4_)"
			    + (ignorecase ? ", ignoring case" : "")
			    + "\nPress Ctrl-i to toggle case sensitivity", "");
			if (term != null) search(term);
		} else {
			reset_search();
			searching = 0;
			currentSearchTerm = null;
			searchbtn.classList.remove("show");
			searchbtn.firstChild.nodeValue = "Search"
			matchedtxt.classList.add("hide");
			matchedtxt.firstChild.nodeValue = ""
		}
	}
	function search(term) {
		if (term) currentSearchTerm = term;

		var re = new RegExp(currentSearchTerm, ignorecase ? 'i' : '');
		var el = document.getElementById("frames").children;
		var matches = new Object();
		var maxwidth = 0;
		for (var i = 0; i < el.length; i++) {
			var e = el[i];
			var func = g_to_func(e);
			var rect = find_child(e, "rect");
			if (func == null || rect == null)
				continue;

			// Save max width. Only works as we have a root frame
			var w = parseFloat(rect.attributes.width.value);
			if (w > maxwidth)
				maxwidth = w;

			if (func.match(re)) {
				// highlight
				var x = parseFloat(rect.attributes.x.value);
				orig_save(rect, "fill");
				rect.attributes.fill.value = "rgb(230,0,230)";

				// remember matches
				if (matches[x] == undefined) {
					matches[x] = w;
				} else {
					if (w > matches[x]) {
						// overwrite with parent
						matches[x] = w;
					}
				}
				searching = 1;
			}
		}
		if (!searching)
			return;
		var params = get_params();
		params.s = currentSearchTerm;
		history.replaceState(null, null, parse_params(params));

		searchbtn.classList.add("show");
		searchbtn.firstChild.nodeValue = "Reset Search";

		// calculate percent matched, excluding vertical overlap
		var count = 0;
		var lastx = -1;
		var lastw = 0;
		var keys = Array();
		for (k in matches) {
			if (matches.hasOwnProperty(k))
				keys.push(k);
		}
		// sort the matched frames by their x location
		// ascending, then width descending
		keys.sort(function(a, b){
			return a - b;
		});
		// Step through frames saving only the biggest bottom-up frames
		// thanks to the sort order. This relies on the tree property
		// where children are always smaller than their parents.
		var fudge = 0.0001;	// JavaScript floating point
		for (var k in keys) {
			var x = parseFloat(keys[k]);
			var w = matches[keys[k]];
			if (x >= lastx + lastw - fudge) {
				count += w;
				lastx = x;
				lastw = w;
			}
		}
		// display matched percent
		matchedtxt.classList.remove("hide");
		var pct = 100 * count / maxwidth;
		if (pct != 100) pct = pct.toFixed(1)
		matchedtxt.firstChild.nodeValue = "Matched: " + pct + "%";
	}
]]>
</script>
<rect x="0.0" y="0" width="1200.0" height="582.0" fill="url(#background)"  />
<text id="title" x="600.00" y="24" >Flame Graph</text>
<text id="details" x="10.00" y="565" > </text>
<text id="unzoom" x="10.00" y="24" class="hide">Reset Zoom</text>
<text id="search" x="1090.00" y="24" >Search</text>
<text id="ignorecase" x="1174.00" y="24" >ic</text>
<text id="matched" x="1090.00" y="565" > </text>
<g id="frames">
<g >
<title>__sysvec_apic_timer_interrupt (8,251,883 samples, 0.03%)</title><rect x="367.1" y="229" width="0.3" height="15.0" fill="rgb(242,173,41)" rx="2" ry="2" />
<text  x="370.07" y="239.5" ></text>
</g>
<g >
<title>ReleaseBuffer (46,778,147 samples, 0.17%)</title><rect x="1113.5" y="261" width="2.0" height="15.0" fill="rgb(220,71,17)" rx="2" ry="2" />
<text  x="1116.46" y="271.5" ></text>
</g>
<g >
<title>tick_sched_handle (2,750,713 samples, 0.01%)</title><rect x="1010.4" y="181" width="0.2" height="15.0" fill="rgb(219,68,16)" rx="2" ry="2" />
<text  x="1013.44" y="191.5" ></text>
</g>
<g >
<title>__hrtimer_run_queues (2,750,189 samples, 0.01%)</title><rect x="118.4" y="213" width="0.1" height="15.0" fill="rgb(237,150,35)" rx="2" ry="2" />
<text  x="121.39" y="223.5" ></text>
</g>
<g >
<title>ResourceOwnerRemember (8,251,951 samples, 0.03%)</title><rect x="1096.6" y="277" width="0.4" height="15.0" fill="rgb(243,178,42)" rx="2" ry="2" />
<text  x="1099.62" y="287.5" ></text>
</g>
<g >
<title>UnpinBufferNoOwner (2,750,198 samples, 0.01%)</title><rect x="1115.5" y="261" width="0.1" height="15.0" fill="rgb(253,221,53)" rx="2" ry="2" />
<text  x="1118.46" y="271.5" ></text>
</g>
<g >
<title>SeqNext (2,481,318,442 samples, 9.00%)</title><rect x="1069.7" y="309" width="106.2" height="15.0" fill="rgb(214,41,10)" rx="2" ry="2" />
<text  x="1072.66" y="319.5" >SeqNext</text>
</g>
<g >
<title>update_process_times (8,251,883 samples, 0.03%)</title><rect x="367.1" y="149" width="0.3" height="15.0" fill="rgb(250,209,50)" rx="2" ry="2" />
<text  x="370.07" y="159.5" ></text>
</g>
<g >
<title>BufTableHashCode (8,250,932 samples, 0.03%)</title><rect x="1125.0" y="245" width="0.4" height="15.0" fill="rgb(215,47,11)" rx="2" ry="2" />
<text  x="1128.02" y="255.5" ></text>
</g>
<g >
<title>__libc_start_call_main (27,564,976,900 samples, 100.00%)</title><rect x="10.0" y="501" width="1180.0" height="15.0" fill="rgb(210,26,6)" rx="2" ry="2" />
<text  x="13.00" y="511.5" >__libc_start_call_main</text>
</g>
<g >
<title>GetPrivateRefCountEntry (2,750,581 samples, 0.01%)</title><rect x="1096.4" y="245" width="0.1" height="15.0" fill="rgb(250,209,50)" rx="2" ry="2" />
<text  x="1099.39" y="255.5" ></text>
</g>
<g >
<title>tick_sched_timer (2,750,189 samples, 0.01%)</title><rect x="118.4" y="197" width="0.1" height="15.0" fill="rgb(254,227,54)" rx="2" ry="2" />
<text  x="121.39" y="207.5" ></text>
</g>
<g >
<title>__hrtimer_run_queues (5,501,344 samples, 0.02%)</title><rect x="1010.4" y="197" width="0.3" height="15.0" fill="rgb(237,150,35)" rx="2" ry="2" />
<text  x="1013.44" y="207.5" ></text>
</g>
<g >
<title>LWLockRelease (41,255,049 samples, 0.15%)</title><rect x="1111.5" y="261" width="1.7" height="15.0" fill="rgb(217,58,13)" rx="2" ry="2" />
<text  x="1114.45" y="271.5" ></text>
</g>
<g >
<title>tts_buffer_heap_getsomeattrs (882,859,138 samples, 3.20%)</title><rect x="1025.6" y="277" width="37.8" height="15.0" fill="rgb(222,81,19)" rx="2" ry="2" />
<text  x="1028.63" y="287.5" >tts..</text>
</g>
<g >
<title>PortalRunSelect (27,564,976,900 samples, 100.00%)</title><rect x="10.0" y="357" width="1180.0" height="15.0" fill="rgb(245,188,45)" rx="2" ry="2" />
<text  x="13.00" y="367.5" >PortalRunSelect</text>
</g>
<g >
<title>scheduler_tick (2,750,526 samples, 0.01%)</title><rect x="87.5" y="165" width="0.1" height="15.0" fill="rgb(246,190,45)" rx="2" ry="2" />
<text  x="90.51" y="175.5" ></text>
</g>
<g >
<title>hash_search_with_hash_value (71,390,497 samples, 0.26%)</title><rect x="1128.3" y="213" width="3.1" height="15.0" fill="rgb(249,205,49)" rx="2" ry="2" />
<text  x="1131.32" y="223.5" ></text>
</g>
<g >
<title>tick_sched_handle (5,500,998 samples, 0.02%)</title><rect x="87.4" y="197" width="0.2" height="15.0" fill="rgb(219,68,16)" rx="2" ry="2" />
<text  x="90.39" y="207.5" ></text>
</g>
<g >
<title>PinBuffer (610,654,766 samples, 2.22%)</title><rect x="1147.4" y="229" width="26.1" height="15.0" fill="rgb(219,64,15)" rx="2" ry="2" />
<text  x="1150.38" y="239.5" >P..</text>
</g>
<g >
<title>ResourceOwnerEnlarge (2,750,804 samples, 0.01%)</title><rect x="1089.0" y="245" width="0.1" height="15.0" fill="rgb(223,86,20)" rx="2" ry="2" />
<text  x="1091.97" y="255.5" ></text>
</g>
<g >
<title>scheduler_tick (2,750,189 samples, 0.01%)</title><rect x="118.4" y="149" width="0.1" height="15.0" fill="rgb(246,190,45)" rx="2" ry="2" />
<text  x="121.39" y="159.5" ></text>
</g>
<g >
<title>update_process_times (2,750,631 samples, 0.01%)</title><rect x="1010.6" y="149" width="0.1" height="15.0" fill="rgb(250,209,50)" rx="2" ry="2" />
<text  x="1013.56" y="159.5" ></text>
</g>
<g >
<title>ExecStoreBufferHeapTuple (236,534,168 samples, 0.86%)</title><rect x="1086.4" y="277" width="10.1" height="15.0" fill="rgb(230,117,28)" rx="2" ry="2" />
<text  x="1089.38" y="287.5" ></text>
</g>
<g >
<title>LockBuffer (5,500,875 samples, 0.02%)</title><rect x="1113.2" y="261" width="0.3" height="15.0" fill="rgb(235,142,34)" rx="2" ry="2" />
<text  x="1116.22" y="271.5" ></text>
</g>
<g >
<title>__sysvec_apic_timer_interrupt (5,500,998 samples, 0.02%)</title><rect x="87.4" y="261" width="0.2" height="15.0" fill="rgb(242,173,41)" rx="2" ry="2" />
<text  x="90.39" y="271.5" ></text>
</g>
<g >
<title>bpcharlen (68,617,610 samples, 0.25%)</title><rect x="1175.9" y="309" width="2.9" height="15.0" fill="rgb(221,77,18)" rx="2" ry="2" />
<text  x="1178.88" y="319.5" ></text>
</g>
<g >
<title>heap_getnextslot (2,272,309,941 samples, 8.24%)</title><rect x="1078.0" y="293" width="97.3" height="15.0" fill="rgb(213,40,9)" rx="2" ry="2" />
<text  x="1081.02" y="303.5" >heap_getnex..</text>
</g>
<g >
<title>account_process_tick (2,750,631 samples, 0.01%)</title><rect x="1010.6" y="133" width="0.1" height="15.0" fill="rgb(234,136,32)" rx="2" ry="2" />
<text  x="1013.56" y="143.5" ></text>
</g>
<g >
<title>bpcharlen (21,565,256,017 samples, 78.23%)</title><rect x="87.6" y="293" width="923.2" height="15.0" fill="rgb(221,77,18)" rx="2" ry="2" />
<text  x="90.63" y="303.5" >bpcharlen</text>
</g>
<g >
<title>slot_getsomeattrs_int (24,754,141 samples, 0.09%)</title><rect x="1186.7" y="309" width="1.1" height="15.0" fill="rgb(252,219,52)" rx="2" ry="2" />
<text  x="1189.70" y="319.5" ></text>
</g>
<g >
<title>perf_event_task_tick (2,750,526 samples, 0.01%)</title><rect x="87.5" y="149" width="0.1" height="15.0" fill="rgb(205,3,0)" rx="2" ry="2" />
<text  x="90.51" y="159.5" ></text>
</g>
<g >
<title>MemoryContextReset (49,507,458 samples, 0.18%)</title><rect x="1067.5" y="309" width="2.2" height="15.0" fill="rgb(210,26,6)" rx="2" ry="2" />
<text  x="1070.54" y="319.5" ></text>
</g>
<g >
<title>__hrtimer_run_queues (8,251,883 samples, 0.03%)</title><rect x="367.1" y="197" width="0.3" height="15.0" fill="rgb(237,150,35)" rx="2" ry="2" />
<text  x="370.07" y="207.5" ></text>
</g>
<g >
<title>standard_ExecutorRun (27,564,976,900 samples, 100.00%)</title><rect x="10.0" y="341" width="1180.0" height="15.0" fill="rgb(247,196,47)" rx="2" ry="2" />
<text  x="13.00" y="351.5" >standard_ExecutorRun</text>
</g>
<g >
<title>[postgres] (27,564,976,900 samples, 100.00%)</title><rect x="10.0" y="421" width="1180.0" height="15.0" fill="rgb(245,184,44)" rx="2" ry="2" />
<text  x="13.00" y="431.5" >[postgres]</text>
</g>
<g >
<title>pg_mbstrlen_with_len (5,817,370,027 samples, 21.10%)</title><rect x="118.5" y="277" width="249.0" height="15.0" fill="rgb(228,106,25)" rx="2" ry="2" />
<text  x="121.51" y="287.5" >pg_mbstrlen_with_len</text>
</g>
<g >
<title>MemoryContextReset (33,000,512 samples, 0.12%)</title><rect x="1187.8" y="325" width="1.4" height="15.0" fill="rgb(210,26,6)" rx="2" ry="2" />
<text  x="1190.76" y="335.5" ></text>
</g>
<g >
<title>heapgettup_pagemode (1,823,997,066 samples, 6.62%)</title><rect x="1097.0" y="277" width="78.1" height="15.0" fill="rgb(242,170,40)" rx="2" ry="2" />
<text  x="1099.97" y="287.5" >heapgettu..</text>
</g>
<g >
<title>IncrBufferRefCount (11,002,158 samples, 0.04%)</title><rect x="1088.6" y="261" width="0.5" height="15.0" fill="rgb(209,22,5)" rx="2" ry="2" />
<text  x="1091.61" y="271.5" ></text>
</g>
<g >
<title>native_write_msr (2,750,526 samples, 0.01%)</title><rect x="87.5" y="85" width="0.1" height="15.0" fill="rgb(237,151,36)" rx="2" ry="2" />
<text  x="90.51" y="95.5" ></text>
</g>
<g >
<title>perf_adjust_freq_unthr_context (5,501,170 samples, 0.02%)</title><rect x="367.1" y="101" width="0.2" height="15.0" fill="rgb(236,146,35)" rx="2" ry="2" />
<text  x="370.07" y="111.5" ></text>
</g>
<g >
<title>pg_detoast_datum_packed (93,512,730 samples, 0.34%)</title><rect x="1012.2" y="293" width="4.0" height="15.0" fill="rgb(238,155,37)" rx="2" ry="2" />
<text  x="1015.21" y="303.5" ></text>
</g>
<g >
<title>tick_sched_handle (2,750,189 samples, 0.01%)</title><rect x="118.4" y="181" width="0.1" height="15.0" fill="rgb(219,68,16)" rx="2" ry="2" />
<text  x="121.39" y="191.5" ></text>
</g>
<g >
<title>perf_adjust_freq_unthr_context (2,750,526 samples, 0.01%)</title><rect x="87.5" y="133" width="0.1" height="15.0" fill="rgb(236,146,35)" rx="2" ry="2" />
<text  x="90.51" y="143.5" ></text>
</g>
<g >
<title>pg_mbstrlen_with_len (2,748,918 samples, 0.01%)</title><rect x="1016.2" y="293" width="0.1" height="15.0" fill="rgb(228,106,25)" rx="2" ry="2" />
<text  x="1019.21" y="303.5" ></text>
</g>
<g >
<title>ExecStoreBufferHeapTuple (16,488,860 samples, 0.06%)</title><rect x="1077.3" y="293" width="0.7" height="15.0" fill="rgb(230,117,28)" rx="2" ry="2" />
<text  x="1080.31" y="303.5" ></text>
</g>
<g >
<title>hrtimer_interrupt (5,501,344 samples, 0.02%)</title><rect x="1010.4" y="213" width="0.3" height="15.0" fill="rgb(228,109,26)" rx="2" ry="2" />
<text  x="1013.44" y="223.5" ></text>
</g>
<g >
<title>PostmasterMain (27,564,976,900 samples, 100.00%)</title><rect x="10.0" y="469" width="1180.0" height="15.0" fill="rgb(212,35,8)" rx="2" ry="2" />
<text  x="13.00" y="479.5" >PostmasterMain</text>
</g>
<g >
<title>hash_bytes (35,754,537 samples, 0.13%)</title><rect x="1173.5" y="245" width="1.6" height="15.0" fill="rgb(227,102,24)" rx="2" ry="2" />
<text  x="1176.52" y="255.5" ></text>
</g>
<g >
<title>postgres (27,564,976,900 samples, 100.00%)</title><rect x="10.0" y="517" width="1180.0" height="15.0" fill="rgb(233,131,31)" rx="2" ry="2" />
<text  x="13.00" y="527.5" >postgres</text>
</g>
<g >
<title>update_load_avg (2,750,713 samples, 0.01%)</title><rect x="367.3" y="101" width="0.1" height="15.0" fill="rgb(240,165,39)" rx="2" ry="2" />
<text  x="370.31" y="111.5" ></text>
</g>
<g >
<title>asm_sysvec_apic_timer_interrupt (5,500,998 samples, 0.02%)</title><rect x="87.4" y="293" width="0.2" height="15.0" fill="rgb(232,127,30)" rx="2" ry="2" />
<text  x="90.39" y="303.5" ></text>
</g>
<g >
<title>asm_sysvec_apic_timer_interrupt (8,251,883 samples, 0.03%)</title><rect x="367.1" y="261" width="0.3" height="15.0" fill="rgb(232,127,30)" rx="2" ry="2" />
<text  x="370.07" y="271.5" ></text>
</g>
<g >
<title>GetPrivateRefCountEntry (5,501,151 samples, 0.02%)</title><rect x="1173.3" y="213" width="0.2" height="15.0" fill="rgb(250,209,50)" rx="2" ry="2" />
<text  x="1176.29" y="223.5" ></text>
</g>
<g >
<title>PortalRun (27,564,976,900 samples, 100.00%)</title><rect x="10.0" y="373" width="1180.0" height="15.0" fill="rgb(223,85,20)" rx="2" ry="2" />
<text  x="13.00" y="383.5" >PortalRun</text>
</g>
<g >
<title>error_entry (2,750,562 samples, 0.01%)</title><rect x="367.4" y="261" width="0.1" height="15.0" fill="rgb(240,163,39)" rx="2" ry="2" />
<text  x="370.42" y="271.5" ></text>
</g>
<g >
<title>ExecInterpExpr (52,255,599 samples, 0.19%)</title><rect x="10.0" y="325" width="2.2" height="15.0" fill="rgb(225,96,22)" rx="2" ry="2" />
<text  x="13.00" y="335.5" ></text>
</g>
<g >
<title>x86_pmu_disable_all (2,750,553 samples, 0.01%)</title><rect x="367.2" y="53" width="0.1" height="15.0" fill="rgb(254,227,54)" rx="2" ry="2" />
<text  x="370.19" y="63.5" ></text>
</g>
<g >
<title>account_user_time (2,750,631 samples, 0.01%)</title><rect x="1010.6" y="117" width="0.1" height="15.0" fill="rgb(225,96,23)" rx="2" ry="2" />
<text  x="1013.56" y="127.5" ></text>
</g>
<g >
<title>native_write_msr (2,750,617 samples, 0.01%)</title><rect x="367.1" y="53" width="0.1" height="15.0" fill="rgb(237,151,36)" rx="2" ry="2" />
<text  x="370.07" y="63.5" ></text>
</g>
<g >
<title>GetPrivateRefCountEntry (5,500,866 samples, 0.02%)</title><rect x="1088.7" y="245" width="0.3" height="15.0" fill="rgb(250,209,50)" rx="2" ry="2" />
<text  x="1091.73" y="255.5" ></text>
</g>
<g >
<title>tick_sched_handle (8,251,883 samples, 0.03%)</title><rect x="367.1" y="165" width="0.3" height="15.0" fill="rgb(219,68,16)" rx="2" ry="2" />
<text  x="370.07" y="175.5" ></text>
</g>
<g >
<title>sysvec_apic_timer_interrupt (5,500,998 samples, 0.02%)</title><rect x="87.4" y="277" width="0.2" height="15.0" fill="rgb(220,69,16)" rx="2" ry="2" />
<text  x="90.39" y="287.5" ></text>
</g>
<g >
<title>update_process_times (2,750,526 samples, 0.01%)</title><rect x="87.5" y="181" width="0.1" height="15.0" fill="rgb(250,209,50)" rx="2" ry="2" />
<text  x="90.51" y="191.5" ></text>
</g>
<g >
<title>pg_utf_mblen_private (15,026,437,123 samples, 54.51%)</title><rect x="367.5" y="277" width="643.3" height="15.0" fill="rgb(242,173,41)" rx="2" ry="2" />
<text  x="370.54" y="287.5" >pg_utf_mblen_private</text>
</g>
<g >
<title>update_process_times (2,750,189 samples, 0.01%)</title><rect x="118.4" y="165" width="0.1" height="15.0" fill="rgb(250,209,50)" rx="2" ry="2" />
<text  x="121.39" y="175.5" ></text>
</g>
<g >
<title>read_stream_next_buffer (5,499,822 samples, 0.02%)</title><rect x="1175.1" y="277" width="0.2" height="15.0" fill="rgb(216,50,12)" rx="2" ry="2" />
<text  x="1178.06" y="287.5" ></text>
</g>
<g >
<title>SeqNext (19,253,213 samples, 0.07%)</title><rect x="1189.2" y="325" width="0.8" height="15.0" fill="rgb(214,41,10)" rx="2" ry="2" />
<text  x="1192.18" y="335.5" ></text>
</g>
<g >
<title>amd_pmu_addr_offset (2,750,553 samples, 0.01%)</title><rect x="367.2" y="37" width="0.1" height="15.0" fill="rgb(227,104,25)" rx="2" ry="2" />
<text  x="370.19" y="47.5" ></text>
</g>
<g >
<title>ExecSeqScanWithQual (27,460,467,576 samples, 99.62%)</title><rect x="12.2" y="325" width="1175.6" height="15.0" fill="rgb(254,227,54)" rx="2" ry="2" />
<text  x="15.24" y="335.5" >ExecSeqScanWithQual</text>
</g>
<g >
<title>PostgresMain (27,564,976,900 samples, 100.00%)</title><rect x="10.0" y="405" width="1180.0" height="15.0" fill="rgb(227,103,24)" rx="2" ry="2" />
<text  x="13.00" y="415.5" >PostgresMain</text>
</g>
<g >
<title>scheduler_tick (8,251,883 samples, 0.03%)</title><rect x="367.1" y="133" width="0.3" height="15.0" fill="rgb(246,190,45)" rx="2" ry="2" />
<text  x="370.07" y="143.5" ></text>
</g>
<g >
<title>x86_pmu_disable (5,501,170 samples, 0.02%)</title><rect x="367.1" y="85" width="0.2" height="15.0" fill="rgb(239,160,38)" rx="2" ry="2" />
<text  x="370.07" y="95.5" ></text>
</g>
<g >
<title>LWLockAcquire (2,750,764 samples, 0.01%)</title><rect x="1131.4" y="229" width="0.1" height="15.0" fill="rgb(209,20,4)" rx="2" ry="2" />
<text  x="1134.37" y="239.5" ></text>
</g>
<g >
<title>asm_sysvec_call_function_single (2,750,231 samples, 0.01%)</title><rect x="1010.7" y="261" width="0.1" height="15.0" fill="rgb(234,136,32)" rx="2" ry="2" />
<text  x="1013.67" y="271.5" ></text>
</g>
<g >
<title>all (27,564,976,900 samples, 100%)</title><rect x="10.0" y="533" width="1180.0" height="15.0" fill="rgb(213,39,9)" rx="2" ry="2" />
<text  x="13.00" y="543.5" ></text>
</g>
<g >
<title>BufTableLookup (74,140,766 samples, 0.27%)</title><rect x="1128.2" y="229" width="3.2" height="15.0" fill="rgb(224,89,21)" rx="2" ry="2" />
<text  x="1131.20" y="239.5" ></text>
</g>
<g >
<title>UnpinBufferNoOwner (57,759,582 samples, 0.21%)</title><rect x="1094.0" y="261" width="2.5" height="15.0" fill="rgb(253,221,53)" rx="2" ry="2" />
<text  x="1097.03" y="271.5" ></text>
</g>
<g >
<title>__sysvec_apic_timer_interrupt (2,750,189 samples, 0.01%)</title><rect x="118.4" y="245" width="0.1" height="15.0" fill="rgb(242,173,41)" rx="2" ry="2" />
<text  x="121.39" y="255.5" ></text>
</g>
<g >
<title>LWLockAttemptLock (302,471,575 samples, 1.10%)</title><rect x="1131.5" y="229" width="12.9" height="15.0" fill="rgb(235,138,33)" rx="2" ry="2" />
<text  x="1134.49" y="239.5" ></text>
</g>
<g >
<title>hrtimer_interrupt (5,500,998 samples, 0.02%)</title><rect x="87.4" y="245" width="0.2" height="15.0" fill="rgb(228,109,26)" rx="2" ry="2" />
<text  x="90.39" y="255.5" ></text>
</g>
<g >
<title>asm_sysvec_apic_timer_interrupt (8,251,865 samples, 0.03%)</title><rect x="1010.3" y="261" width="0.4" height="15.0" fill="rgb(232,127,30)" rx="2" ry="2" />
<text  x="1013.32" y="271.5" ></text>
</g>
<g >
<title>sysvec_apic_timer_interrupt (8,251,883 samples, 0.03%)</title><rect x="367.1" y="245" width="0.3" height="15.0" fill="rgb(220,69,16)" rx="2" ry="2" />
<text  x="370.07" y="255.5" ></text>
</g>
<g >
<title>exec_simple_query (27,564,976,900 samples, 100.00%)</title><rect x="10.0" y="389" width="1180.0" height="15.0" fill="rgb(211,29,6)" rx="2" ry="2" />
<text  x="13.00" y="399.5" >exec_simple_query</text>
</g>
<g >
<title>int4lt (85,215,830 samples, 0.31%)</title><rect x="1183.1" y="309" width="3.6" height="15.0" fill="rgb(242,172,41)" rx="2" ry="2" />
<text  x="1186.06" y="319.5" ></text>
</g>
<g >
<title>asm_sysvec_apic_timer_interrupt (2,750,189 samples, 0.01%)</title><rect x="118.4" y="277" width="0.1" height="15.0" fill="rgb(232,127,30)" rx="2" ry="2" />
<text  x="121.39" y="287.5" ></text>
</g>
<g >
<title>LWLockAttemptLock (94,179,575 samples, 0.34%)</title><rect x="1119.0" y="245" width="4.0" height="15.0" fill="rgb(235,138,33)" rx="2" ry="2" />
<text  x="1121.99" y="255.5" ></text>
</g>
<g >
<title>main (27,564,976,900 samples, 100.00%)</title><rect x="10.0" y="485" width="1180.0" height="15.0" fill="rgb(243,179,42)" rx="2" ry="2" />
<text  x="13.00" y="495.5" >main</text>
</g>
<g >
<title>tick_sched_timer (8,251,883 samples, 0.03%)</title><rect x="367.1" y="181" width="0.3" height="15.0" fill="rgb(254,227,54)" rx="2" ry="2" />
<text  x="370.07" y="191.5" ></text>
</g>
<g >
<title>ServerLoop (27,564,976,900 samples, 100.00%)</title><rect x="10.0" y="453" width="1180.0" height="15.0" fill="rgb(238,155,37)" rx="2" ry="2" />
<text  x="13.00" y="463.5" >ServerLoop</text>
</g>
<g >
<title>hrtimer_interrupt (8,251,883 samples, 0.03%)</title><rect x="367.1" y="213" width="0.3" height="15.0" fill="rgb(228,109,26)" rx="2" ry="2" />
<text  x="370.07" y="223.5" ></text>
</g>
<g >
<title>tick_sched_timer (5,500,998 samples, 0.02%)</title><rect x="87.4" y="213" width="0.2" height="15.0" fill="rgb(254,227,54)" rx="2" ry="2" />
<text  x="90.39" y="223.5" ></text>
</g>
<g >
<title>hrtimer_interrupt (2,750,189 samples, 0.01%)</title><rect x="118.4" y="229" width="0.1" height="15.0" fill="rgb(228,109,26)" rx="2" ry="2" />
<text  x="121.39" y="239.5" ></text>
</g>
<g >
<title>amd_pmu_disable_all (5,501,170 samples, 0.02%)</title><rect x="367.1" y="69" width="0.2" height="15.0" fill="rgb(213,38,9)" rx="2" ry="2" />
<text  x="370.07" y="79.5" ></text>
</g>
<g >
<title>tts_buffer_heap_getsomeattrs (96,239,843 samples, 0.35%)</title><rect x="1063.4" y="293" width="4.1" height="15.0" fill="rgb(222,81,19)" rx="2" ry="2" />
<text  x="1066.42" y="303.5" ></text>
</g>
<g >
<title>postmaster_child_launch (27,564,976,900 samples, 100.00%)</title><rect x="10.0" y="437" width="1180.0" height="15.0" fill="rgb(206,5,1)" rx="2" ry="2" />
<text  x="13.00" y="447.5" >postmaster_child_launch</text>
</g>
<g >
<title>BufferGetBlockNumber (71,509,644 samples, 0.26%)</title><rect x="1083.3" y="277" width="3.1" height="15.0" fill="rgb(206,7,1)" rx="2" ry="2" />
<text  x="1086.32" y="287.5" ></text>
</g>
<g >
<title>GetPrivateRefCountEntry (2,750,198 samples, 0.01%)</title><rect x="1115.5" y="245" width="0.1" height="15.0" fill="rgb(250,209,50)" rx="2" ry="2" />
<text  x="1118.46" y="255.5" ></text>
</g>
<g >
<title>StartReadBuffer (1,124,736,083 samples, 4.08%)</title><rect x="1125.4" y="245" width="48.1" height="15.0" fill="rgb(222,78,18)" rx="2" ry="2" />
<text  x="1128.38" y="255.5" >Star..</text>
</g>
<g >
<title>ReleaseBuffer (2,750,324 samples, 0.01%)</title><rect x="1096.5" y="277" width="0.1" height="15.0" fill="rgb(220,71,17)" rx="2" ry="2" />
<text  x="1099.50" y="287.5" ></text>
</g>
<g >
<title>slot_getsomeattrs_int (1,100,122,022 samples, 3.99%)</title><rect x="1016.3" y="293" width="47.1" height="15.0" fill="rgb(252,219,52)" rx="2" ry="2" />
<text  x="1019.33" y="303.5" >slot..</text>
</g>
<g >
<title>pg_database_encoding_max_length (33,005,318 samples, 0.12%)</title><rect x="1010.8" y="293" width="1.4" height="15.0" fill="rgb(243,176,42)" rx="2" ry="2" />
<text  x="1013.79" y="303.5" ></text>
</g>
<g >
<title>perf_event_task_tick (5,501,170 samples, 0.02%)</title><rect x="367.1" y="117" width="0.2" height="15.0" fill="rgb(205,3,0)" rx="2" ry="2" />
<text  x="370.07" y="127.5" ></text>
</g>
<g >
<title>sysvec_apic_timer_interrupt (8,251,865 samples, 0.03%)</title><rect x="1010.3" y="245" width="0.4" height="15.0" fill="rgb(220,69,16)" rx="2" ry="2" />
<text  x="1013.32" y="255.5" ></text>
</g>
<g >
<title>nohz_balancer_kick (2,750,189 samples, 0.01%)</title><rect x="118.4" y="117" width="0.1" height="15.0" fill="rgb(225,93,22)" rx="2" ry="2" />
<text  x="121.39" y="127.5" ></text>
</g>
<g >
<title>ResourceOwnerForget (2,750,281 samples, 0.01%)</title><rect x="1093.9" y="245" width="0.1" height="15.0" fill="rgb(235,142,33)" rx="2" ry="2" />
<text  x="1096.91" y="255.5" ></text>
</g>
<g >
<title>heapgettup_pagemode (13,752,064 samples, 0.05%)</title><rect x="1175.3" y="293" width="0.6" height="15.0" fill="rgb(242,170,40)" rx="2" ry="2" />
<text  x="1178.29" y="303.5" ></text>
</g>
<g >
<title>__memcmp_evex_movbe (2,750,269 samples, 0.01%)</title><rect x="1128.2" y="213" width="0.1" height="15.0" fill="rgb(219,67,16)" rx="2" ry="2" />
<text  x="1131.20" y="223.5" ></text>
</g>
<g >
<title>tick_sched_handle (2,750,631 samples, 0.01%)</title><rect x="1010.6" y="165" width="0.1" height="15.0" fill="rgb(219,68,16)" rx="2" ry="2" />
<text  x="1013.56" y="175.5" ></text>
</g>
<g >
<title>irq_work_tick (2,750,472 samples, 0.01%)</title><rect x="87.4" y="181" width="0.1" height="15.0" fill="rgb(219,67,16)" rx="2" ry="2" />
<text  x="90.39" y="191.5" ></text>
</g>
<g >
<title>__sysvec_apic_timer_interrupt (8,251,865 samples, 0.03%)</title><rect x="1010.3" y="229" width="0.4" height="15.0" fill="rgb(242,173,41)" rx="2" ry="2" />
<text  x="1013.32" y="239.5" ></text>
</g>
<g >
<title>sysvec_apic_timer_interrupt (2,750,189 samples, 0.01%)</title><rect x="118.4" y="261" width="0.1" height="15.0" fill="rgb(220,69,16)" rx="2" ry="2" />
<text  x="121.39" y="271.5" ></text>
</g>
<g >
<title>tick_sched_timer (2,750,631 samples, 0.01%)</title><rect x="1010.6" y="181" width="0.1" height="15.0" fill="rgb(254,227,54)" rx="2" ry="2" />
<text  x="1013.56" y="191.5" ></text>
</g>
<g >
<title>read_stream_next_buffer (1,215,495,467 samples, 4.41%)</title><rect x="1123.0" y="261" width="52.1" height="15.0" fill="rgb(216,50,12)" rx="2" ry="2" />
<text  x="1126.02" y="271.5" >read_..</text>
</g>
<g >
<title>ExecInterpExpr (24,448,637,566 samples, 88.69%)</title><rect x="20.9" y="309" width="1046.6" height="15.0" fill="rgb(225,96,22)" rx="2" ry="2" />
<text  x="23.94" y="319.5" >ExecInterpExpr</text>
</g>
<g >
<title>trigger_load_balance (2,750,189 samples, 0.01%)</title><rect x="118.4" y="133" width="0.1" height="15.0" fill="rgb(228,108,26)" rx="2" ry="2" />
<text  x="121.39" y="143.5" ></text>
</g>
<g >
<title>heap_getnextslot (99,014,278 samples, 0.36%)</title><rect x="1178.8" y="309" width="4.3" height="15.0" fill="rgb(213,40,9)" rx="2" ry="2" />
<text  x="1181.82" y="319.5" ></text>
</g>
<g >
<title>__hrtimer_run_queues (5,500,998 samples, 0.02%)</title><rect x="87.4" y="229" width="0.2" height="15.0" fill="rgb(237,150,35)" rx="2" ry="2" />
<text  x="90.39" y="239.5" ></text>
</g>
<g >
<title>x86_pmu_disable (2,750,526 samples, 0.01%)</title><rect x="87.5" y="117" width="0.1" height="15.0" fill="rgb(239,160,38)" rx="2" ry="2" />
<text  x="90.51" y="127.5" ></text>
</g>
<g >
<title>heap_prepare_pagescan (173,938,874 samples, 0.63%)</title><rect x="1115.6" y="261" width="7.4" height="15.0" fill="rgb(222,82,19)" rx="2" ry="2" />
<text  x="1118.58" y="271.5" ></text>
</g>
<g >
<title>ReleaseBuffer (115,519,559 samples, 0.42%)</title><rect x="1089.1" y="261" width="4.9" height="15.0" fill="rgb(220,71,17)" rx="2" ry="2" />
<text  x="1092.09" y="271.5" ></text>
</g>
<g >
<title>__update_load_avg_se (2,750,713 samples, 0.01%)</title><rect x="367.3" y="85" width="0.1" height="15.0" fill="rgb(254,227,54)" rx="2" ry="2" />
<text  x="370.31" y="95.5" ></text>
</g>
<g >
<title>amd_pmu_disable_all (2,750,526 samples, 0.01%)</title><rect x="87.5" y="101" width="0.1" height="15.0" fill="rgb(213,38,9)" rx="2" ry="2" />
<text  x="90.51" y="111.5" ></text>
</g>
<g >
<title>LWLockRelease (68,755,739 samples, 0.25%)</title><rect x="1144.4" y="229" width="3.0" height="15.0" fill="rgb(217,58,13)" rx="2" ry="2" />
<text  x="1147.44" y="239.5" ></text>
</g>
<g >
<title>task_tick_fair (2,750,713 samples, 0.01%)</title><rect x="367.3" y="117" width="0.1" height="15.0" fill="rgb(217,57,13)" rx="2" ry="2" />
<text  x="370.31" y="127.5" ></text>
</g>
</g>
</svg>
